<svg width="363" height="222" viewBox="0 0 363 222" fill="none" xmlns="http://www.w3.org/2000/svg">
<line x1="10.5" y1="36.842" x2="10.5" y2="220.189" stroke="#EAEEF2" stroke-opacity="0.64"/>
<line x1="358" y1="220.689" x2="10" y2="220.689" stroke="#EAEEF2" stroke-opacity="0.64"/>
<line x1="358" y1="189.772" x2="10" y2="189.772" stroke="#EAEEF2" stroke-opacity="0.64"/>
<line x1="358" y1="158.854" x2="10" y2="158.854" stroke="#EAEEF2" stroke-opacity="0.64"/>
<line x1="358" y1="127.937" x2="10" y2="127.937" stroke="#EAEEF2" stroke-opacity="0.64"/>
<line x1="358" y1="97.0197" x2="10" y2="97.0197" stroke="#EAEEF2" stroke-opacity="0.64"/>
<line x1="358" y1="66.1024" x2="10" y2="66.1024" stroke="#EAEEF2" stroke-opacity="0.64"/>
<line x1="42.1362" y1="36.842" x2="42.1362" y2="220.189" stroke="#EAEEF2" stroke-opacity="0.64"/>
<line x1="73.7729" y1="36.842" x2="73.7729" y2="220.189" stroke="#EAEEF2" stroke-opacity="0.64"/>
<line x1="105.409" y1="36.842" x2="105.409" y2="220.189" stroke="#EAEEF2" stroke-opacity="0.64"/>
<line x1="137.045" y1="36.842" x2="137.045" y2="220.189" stroke="#EAEEF2" stroke-opacity="0.64"/>
<line x1="168.682" y1="36.842" x2="168.682" y2="220.189" stroke="#EAEEF2" stroke-opacity="0.64"/>
<line x1="200.318" y1="36.842" x2="200.318" y2="220.189" stroke="#EAEEF2" stroke-opacity="0.64"/>
<line x1="231.955" y1="36.842" x2="231.955" y2="220.189" stroke="#EAEEF2" stroke-opacity="0.64"/>
<line x1="263.591" y1="36.842" x2="263.591" y2="220.189" stroke="#EAEEF2" stroke-opacity="0.64"/>
<line x1="295.227" y1="36.842" x2="295.227" y2="220.189" stroke="#EAEEF2" stroke-opacity="0.64"/>
<line x1="326.864" y1="36.842" x2="326.864" y2="220.189" stroke="#EAEEF2" stroke-opacity="0.64"/>
<line x1="358.5" y1="36.842" x2="358.5" y2="220.189" stroke="#EAEEF2" stroke-opacity="0.64"/>
<rect x="10" y="95.4392" width="230.316" height="125.695" fill="url(#paint0_linear)" fill-opacity="0.07"/>
<line x1="11.5" y1="95.4446" x2="238.816" y2="95.4446" stroke="#5C62CD" stroke-width="3" stroke-linecap="round" stroke-linejoin="round"/>
<path d="M16.6714 176.957H12C10.8954 176.957 10 177.853 10 178.957V219.887C10 220.992 10.8954 221.887 12 221.887H361C362.105 221.887 363 220.992 363 219.887V43.8066C363 42.8088 362.191 42 361.193 42C360.196 42 359.387 42.8088 359.387 43.8066V70.3113C359.387 71.4158 358.491 72.3113 357.387 72.3113H337.887C336.99 72.3113 336.263 73.0383 336.263 73.9351C336.263 74.8319 335.536 75.5589 334.639 75.5589H313.694C312.589 75.5589 311.694 74.6635 311.694 73.5589V71.4117C311.694 70.3142 310.804 69.4245 309.707 69.4245C308.609 69.4245 307.72 70.3142 307.72 71.4117V73.5589C307.72 74.6635 306.824 75.5589 305.72 75.5589H296.712C295.608 75.5589 294.712 76.4543 294.712 77.5589V101.705C294.712 102.81 293.817 103.705 292.712 103.705H288.041C286.936 103.705 286.041 104.6 286.041 105.705V107.839C286.041 108.944 285.146 109.839 284.041 109.839H272.505C271.4 109.839 270.505 108.944 270.505 107.839V84.415C270.505 83.3104 269.609 82.415 268.505 82.415H242.877C241.773 82.415 240.877 83.3104 240.877 84.415V117.222C240.877 118.326 239.982 119.222 238.877 119.222H234.567C233.462 119.222 232.567 118.326 232.567 117.222V84.415C232.567 83.3104 231.672 82.415 230.567 82.415H187.235C186.131 82.415 185.235 83.3104 185.235 84.415V98.4574C185.235 99.562 184.34 100.457 183.235 100.457H158.692C157.587 100.457 156.692 101.353 156.692 102.457V120.108C156.692 121.213 155.796 122.108 154.692 122.108H151.104C150 122.108 149.104 121.213 149.104 120.108V108.592C149.104 107.487 148.209 106.592 147.104 106.592H142.794C141.69 106.592 140.794 105.696 140.794 104.592V93.0626C140.794 91.9651 139.905 91.0754 138.807 91.0754C137.71 91.0754 136.82 91.9651 136.82 93.0626V174.957C136.82 176.062 135.924 176.957 134.82 176.957H29.3429C28.2383 176.957 27.3429 177.853 27.3429 178.957V199.495C27.3429 200.6 26.4475 201.495 25.3429 201.495H20.6714C19.5669 201.495 18.6714 200.6 18.6714 199.495V178.957C18.6714 177.853 17.776 176.957 16.6714 176.957Z" fill="url(#paint1_linear)" fill-opacity="0.07"/>
<path d="M10 177.769H16.653C17.7575 177.769 18.653 178.665 18.653 179.769V200.318C18.653 201.422 19.5484 202.318 20.653 202.318H25.3059C26.4105 202.318 27.3059 201.422 27.3059 200.318V179.769C27.3059 178.665 28.2013 177.769 29.3059 177.769H134.549C135.654 177.769 136.549 176.874 136.549 175.769V93.8326C136.549 92.7374 137.437 91.8496 138.532 91.8496V91.8496C139.628 91.8496 140.515 92.7374 140.515 93.8326V105.373C140.515 106.477 141.411 107.373 142.515 107.373H146.808C147.912 107.373 148.808 108.268 148.808 109.373V120.896C148.808 122.001 149.703 122.896 150.808 122.896H154.379C155.484 122.896 156.379 122.001 156.379 120.896V103.236C156.379 102.131 157.275 101.236 158.379 101.236H182.862C183.966 101.236 184.862 100.34 184.862 99.2358V85.1855C184.862 84.0809 185.757 83.1855 186.862 83.1855H230.092C231.197 83.1855 232.092 84.0809 232.092 85.1855V118.008C232.092 119.113 232.988 120.008 234.092 120.008H238.385C239.489 120.008 240.385 119.113 240.385 118.008V85.1855C240.385 84.0809 241.28 83.1855 242.385 83.1855H267.949C269.054 83.1855 269.949 84.0809 269.949 85.1855V108.622C269.949 109.727 270.845 110.622 271.949 110.622H283.452C284.557 110.622 285.452 109.727 285.452 108.622V106.485C285.452 105.38 286.348 104.485 287.452 104.485H292.105C293.21 104.485 294.105 103.589 294.105 102.485V78.3263C294.105 77.2218 295.001 76.3263 296.105 76.3263H305.085C306.189 76.3263 307.085 75.4309 307.085 74.3263V72.1722C307.085 71.077 307.973 70.1892 309.068 70.1892V70.1892C310.163 70.1892 311.051 71.077 311.051 72.1722V74.3263C311.051 75.4309 311.946 76.3263 313.051 76.3263H333.943C334.84 76.3263 335.567 75.599 335.567 74.7018V74.7018C335.567 73.8046 336.295 73.0773 337.192 73.0773H356.642C357.747 73.0773 358.642 72.1818 358.642 71.0773V44.7527C358.642 43.6481 359.537 42.7527 360.642 42.7527H362.247" stroke="#FF8787" stroke-width="3"/>
<g filter="url(#filter0_d)">
<rect x="10" y="7" width="12" height="12" rx="2" fill="#5C62CD"/>
</g>
<path d="M31.845 17.18C31.345 17.18 30.875 17.11 30.435 16.97C30.005 16.82 29.63 16.58 29.31 16.25C29 15.91 28.755 15.47 28.575 14.93C28.395 14.39 28.305 13.725 28.305 12.935V7.16H29.55V12.965C29.55 13.555 29.61 14.05 29.73 14.45C29.85 14.85 30.01 15.17 30.21 15.41C30.42 15.65 30.665 15.825 30.945 15.935C31.225 16.035 31.525 16.085 31.845 16.085C32.175 16.085 32.48 16.035 32.76 15.935C33.04 15.825 33.285 15.65 33.495 15.41C33.705 15.17 33.87 14.85 33.99 14.45C34.11 14.05 34.17 13.555 34.17 12.965V7.16H35.37V12.935C35.37 13.725 35.28 14.39 35.1 14.93C34.92 15.47 34.67 15.91 34.35 16.25C34.04 16.58 33.67 16.82 33.24 16.97C32.81 17.11 32.345 17.18 31.845 17.18ZM39.473 17L36.848 9.71H38.123L39.503 13.85C39.613 14.21 39.723 14.57 39.833 14.93C39.953 15.29 40.068 15.645 40.178 15.995H40.238C40.348 15.645 40.458 15.29 40.568 14.93C40.678 14.57 40.788 14.21 40.898 13.85L42.278 9.71H43.493L40.913 17H39.473ZM46.287 17.18C45.677 17.18 45.167 17 44.757 16.64C44.357 16.28 44.157 15.77 44.157 15.11C44.157 14.31 44.512 13.7 45.222 13.28C45.932 12.85 47.067 12.55 48.627 12.38C48.627 12.15 48.602 11.925 48.552 11.705C48.512 11.485 48.437 11.29 48.327 11.12C48.217 10.95 48.062 10.815 47.862 10.715C47.672 10.605 47.427 10.55 47.127 10.55C46.707 10.55 46.312 10.63 45.942 10.79C45.572 10.95 45.242 11.13 44.952 11.33L44.472 10.475C44.812 10.255 45.227 10.045 45.717 9.845C46.207 9.635 46.747 9.53 47.337 9.53C48.227 9.53 48.872 9.805 49.272 10.355C49.672 10.895 49.872 11.62 49.872 12.53V17H48.852L48.747 16.13H48.702C48.352 16.42 47.977 16.67 47.577 16.88C47.177 17.08 46.747 17.18 46.287 17.18ZM46.647 16.19C46.997 16.19 47.327 16.11 47.637 15.95C47.947 15.78 48.277 15.535 48.627 15.215V13.19C48.017 13.27 47.502 13.365 47.082 13.475C46.672 13.585 46.337 13.715 46.077 13.865C45.827 14.015 45.642 14.19 45.522 14.39C45.412 14.58 45.357 14.79 45.357 15.02C45.357 15.44 45.482 15.74 45.732 15.92C45.982 16.1 46.287 16.19 46.647 16.19ZM47.097 8.405L46.467 7.79L48.582 5.285L49.452 6.11L47.097 8.405ZM54.6555 17.18C53.7355 17.18 53.0005 16.85 52.4505 16.19C51.9105 15.53 51.6405 14.59 51.6405 13.37C51.6405 12.78 51.7255 12.25 51.8955 11.78C52.0755 11.3 52.3105 10.895 52.6005 10.565C52.8905 10.235 53.2255 9.98 53.6055 9.8C53.9855 9.62 54.3855 9.53 54.8055 9.53C55.2255 9.53 55.5905 9.605 55.9005 9.755C56.2105 9.905 56.5255 10.11 56.8455 10.37L56.7855 9.125V6.32H58.0305V17H57.0105L56.9055 16.145H56.8605C56.5705 16.425 56.2355 16.67 55.8555 16.88C55.4855 17.08 55.0855 17.18 54.6555 17.18ZM54.9255 16.145C55.2655 16.145 55.5855 16.065 55.8855 15.905C56.1855 15.735 56.4855 15.48 56.7855 15.14V11.33C56.4755 11.05 56.1755 10.855 55.8855 10.745C55.6055 10.625 55.3155 10.565 55.0155 10.565C54.7255 10.565 54.4505 10.635 54.1905 10.775C53.9405 10.905 53.7205 11.095 53.5305 11.345C53.3405 11.585 53.1905 11.875 53.0805 12.215C52.9705 12.555 52.9155 12.935 52.9155 13.355C52.9155 14.235 53.0905 14.92 53.4405 15.41C53.7905 15.9 54.2855 16.145 54.9255 16.145ZM63.4409 17.18C62.9509 17.18 62.4909 17.095 62.0609 16.925C61.6409 16.745 61.2709 16.495 60.9509 16.175C60.6409 15.845 60.3959 15.445 60.2159 14.975C60.0359 14.505 59.9459 13.97 59.9459 13.37C59.9459 12.77 60.0359 12.235 60.2159 11.765C60.4059 11.285 60.6509 10.88 60.9509 10.55C61.2609 10.22 61.6109 9.97 62.0009 9.8C62.3909 9.62 62.7959 9.53 63.2159 9.53C63.6759 9.53 64.0859 9.61 64.4459 9.77C64.8159 9.93 65.1209 10.16 65.3609 10.46C65.6109 10.76 65.8009 11.12 65.9309 11.54C66.0609 11.96 66.1259 12.43 66.1259 12.95C66.1259 13.08 66.1209 13.21 66.1109 13.34C66.1109 13.46 66.1009 13.565 66.0809 13.655H61.1609C61.2109 14.435 61.4509 15.055 61.8809 15.515C62.3209 15.965 62.8909 16.19 63.5909 16.19C63.9409 16.19 64.2609 16.14 64.5509 16.04C64.8509 15.93 65.1359 15.79 65.4059 15.62L65.8409 16.43C65.5209 16.63 65.1659 16.805 64.7759 16.955C64.3859 17.105 63.9409 17.18 63.4409 17.18ZM61.1459 12.77H65.0459C65.0459 12.03 64.8859 11.47 64.5659 11.09C64.2559 10.7 63.8159 10.505 63.2459 10.505C62.9859 10.505 62.7359 10.555 62.4959 10.655C62.2659 10.755 62.0559 10.905 61.8659 11.105C61.6759 11.295 61.5159 11.53 61.3859 11.81C61.2659 12.09 61.1859 12.41 61.1459 12.77ZM62.6159 8.39L60.9059 6.29L61.4309 5.81L63.2009 7.505H63.2609L65.0309 5.81L65.5559 6.29L63.8459 8.39H62.6159ZM67.9273 17V9.71H68.9473L69.0523 10.76H69.0973C69.4473 10.41 69.8123 10.12 70.1923 9.89C70.5823 9.65 71.0323 9.53 71.5423 9.53C72.3123 9.53 72.8723 9.77 73.2223 10.25C73.5823 10.73 73.7623 11.44 73.7623 12.38V17H72.5323V12.545C72.5323 11.855 72.4223 11.36 72.2023 11.06C71.9823 10.75 71.6323 10.595 71.1523 10.595C70.7723 10.595 70.4373 10.69 70.1473 10.88C69.8573 11.07 69.5273 11.35 69.1573 11.72V17H67.9273ZM77.8104 17.18C77.2004 17.18 76.6904 17 76.2804 16.64C75.8804 16.28 75.6804 15.77 75.6804 15.11C75.6804 14.31 76.0354 13.7 76.7454 13.28C77.4554 12.85 78.5904 12.55 80.1504 12.38C80.1504 12.15 80.1254 11.925 80.0754 11.705C80.0354 11.485 79.9604 11.29 79.8504 11.12C79.7404 10.95 79.5854 10.815 79.3854 10.715C79.1954 10.605 78.9504 10.55 78.6504 10.55C78.2304 10.55 77.8354 10.63 77.4654 10.79C77.0954 10.95 76.7654 11.13 76.4754 11.33L75.9954 10.475C76.3354 10.255 76.7504 10.045 77.2404 9.845C77.7304 9.635 78.2704 9.53 78.8604 9.53C79.7504 9.53 80.3954 9.805 80.7954 10.355C81.1954 10.895 81.3954 11.62 81.3954 12.53V17H80.3754L80.2704 16.13H80.2254C79.8754 16.42 79.5004 16.67 79.1004 16.88C78.7004 17.08 78.2704 17.18 77.8104 17.18ZM78.1704 16.19C78.5204 16.19 78.8504 16.11 79.1604 15.95C79.4704 15.78 79.8004 15.535 80.1504 15.215V13.19C79.5404 13.27 79.0254 13.365 78.6054 13.475C78.1954 13.585 77.8604 13.715 77.6004 13.865C77.3504 14.015 77.1654 14.19 77.0454 14.39C76.9354 14.58 76.8804 14.79 76.8804 15.02C76.8804 15.44 77.0054 15.74 77.2554 15.92C77.5054 16.1 77.8104 16.19 78.1704 16.19ZM78.6204 8.405L77.9904 7.79L80.1054 5.285L80.9754 6.11L78.6204 8.405ZM86.6919 20.075V9.71H87.7119L87.8169 10.55H87.8619C88.1919 10.27 88.5519 10.03 88.9419 9.83C89.3419 9.63 89.7569 9.53 90.1869 9.53C90.6569 9.53 91.0719 9.62 91.4319 9.8C91.7919 9.97 92.0919 10.22 92.3319 10.55C92.5719 10.87 92.7519 11.26 92.8719 11.72C93.0019 12.17 93.0669 12.68 93.0669 13.25C93.0669 13.87 92.9819 14.425 92.8119 14.915C92.6419 15.395 92.4119 15.805 92.1219 16.145C91.8319 16.485 91.4969 16.745 91.1169 16.925C90.7369 17.095 90.3369 17.18 89.9169 17.18C89.5769 17.18 89.2369 17.105 88.8969 16.955C88.5669 16.805 88.2319 16.6 87.8919 16.34L87.9219 17.615V20.075H86.6919ZM89.7069 16.145C90.0069 16.145 90.2819 16.08 90.5319 15.95C90.7919 15.81 91.0119 15.62 91.1919 15.38C91.3819 15.13 91.5269 14.825 91.6269 14.465C91.7369 14.105 91.7919 13.7 91.7919 13.25C91.7919 12.85 91.7569 12.485 91.6869 12.155C91.6169 11.825 91.5019 11.545 91.3419 11.315C91.1919 11.075 90.9919 10.89 90.7419 10.76C90.5019 10.63 90.2119 10.565 89.8719 10.565C89.5619 10.565 89.2469 10.65 88.9269 10.82C88.6169 10.99 88.2819 11.235 87.9219 11.555V15.38C88.2519 15.66 88.5719 15.86 88.8819 15.98C89.1919 16.09 89.4669 16.145 89.7069 16.145ZM97.1422 17.18C96.3622 17.18 95.7922 16.94 95.4322 16.46C95.0822 15.98 94.9072 15.27 94.9072 14.33V9.71H96.1522V14.165C96.1522 14.855 96.2572 15.355 96.4672 15.665C96.6872 15.965 97.0372 16.115 97.5172 16.115C97.8972 16.115 98.2322 16.02 98.5222 15.83C98.8122 15.63 99.1322 15.315 99.4822 14.885V9.71H100.712V17H99.6922L99.5872 15.86H99.5422C99.2022 16.26 98.8422 16.58 98.4622 16.82C98.0922 17.06 97.6522 17.18 97.1422 17.18ZM97.8622 8.69C97.3522 8.69 96.9472 8.55 96.6472 8.27C96.3572 7.99 96.2122 7.635 96.2122 7.205C96.2122 6.785 96.3572 6.435 96.6472 6.155C96.9472 5.875 97.3522 5.735 97.8622 5.735C98.3722 5.735 98.7722 5.875 99.0622 6.155C99.3622 6.435 99.5122 6.785 99.5122 7.205C99.5122 7.635 99.3622 7.99 99.0622 8.27C98.7722 8.55 98.3722 8.69 97.8622 8.69ZM97.8622 8.135C98.1022 8.135 98.3022 8.055 98.4622 7.895C98.6322 7.725 98.7172 7.495 98.7172 7.205C98.7172 6.925 98.6322 6.705 98.4622 6.545C98.3022 6.375 98.1022 6.29 97.8622 6.29C97.6222 6.29 97.4172 6.375 97.2472 6.545C97.0872 6.705 97.0072 6.925 97.0072 7.205C97.0072 7.495 97.0872 7.725 97.2472 7.895C97.4172 8.055 97.6222 8.135 97.8622 8.135ZM104.746 17L102.121 9.71H103.396L104.776 13.85C104.886 14.21 104.996 14.57 105.106 14.93C105.226 15.29 105.341 15.645 105.451 15.995H105.511C105.621 15.645 105.731 15.29 105.841 14.93C105.951 14.57 106.061 14.21 106.171 13.85L107.551 9.71H108.766L106.186 17H104.746ZM112.95 17.18C112.5 17.18 112.07 17.095 111.66 16.925C111.26 16.755 110.905 16.51 110.595 16.19C110.285 15.86 110.035 15.46 109.845 14.99C109.665 14.51 109.575 13.97 109.575 13.37C109.575 12.76 109.665 12.22 109.845 11.75C110.035 11.27 110.285 10.865 110.595 10.535C110.905 10.205 111.26 9.955 111.66 9.785C112.07 9.615 112.5 9.53 112.95 9.53C113.4 9.53 113.825 9.615 114.225 9.785C114.635 9.955 114.995 10.205 115.305 10.535C115.615 10.865 115.86 11.27 116.04 11.75C116.23 12.22 116.325 12.76 116.325 13.37C116.325 13.97 116.23 14.51 116.04 14.99C115.86 15.46 115.615 15.86 115.305 16.19C114.995 16.51 114.635 16.755 114.225 16.925C113.825 17.095 113.4 17.18 112.95 17.18ZM112.95 16.16C113.26 16.16 113.545 16.095 113.805 15.965C114.065 15.825 114.285 15.635 114.465 15.395C114.655 15.145 114.8 14.85 114.9 14.51C115 14.17 115.05 13.79 115.05 13.37C115.05 12.95 115 12.57 114.9 12.23C114.8 11.88 114.655 11.58 114.465 11.33C114.285 11.08 114.065 10.89 113.805 10.76C113.545 10.62 113.26 10.55 112.95 10.55C112.64 10.55 112.355 10.62 112.095 10.76C111.835 10.89 111.61 11.08 111.42 11.33C111.24 11.58 111.1 11.88 111 12.23C110.9 12.57 110.85 12.95 110.85 13.37C110.85 13.79 110.9 14.17 111 14.51C111.1 14.85 111.24 15.145 111.42 15.395C111.61 15.635 111.835 15.825 112.095 15.965C112.355 16.095 112.64 16.16 112.95 16.16ZM120.735 17.18C119.815 17.18 119.08 16.85 118.53 16.19C117.99 15.53 117.72 14.59 117.72 13.37C117.72 12.78 117.805 12.25 117.975 11.78C118.155 11.3 118.39 10.895 118.68 10.565C118.97 10.235 119.305 9.98 119.685 9.8C120.065 9.62 120.465 9.53 120.885 9.53C121.305 9.53 121.67 9.605 121.98 9.755C122.29 9.905 122.605 10.11 122.925 10.37L122.865 9.125V6.32H124.11V17H123.09L122.985 16.145H122.94C122.65 16.425 122.315 16.67 121.935 16.88C121.565 17.08 121.165 17.18 120.735 17.18ZM121.005 16.145C121.345 16.145 121.665 16.065 121.965 15.905C122.265 15.735 122.565 15.48 122.865 15.14V11.33C122.555 11.05 122.255 10.855 121.965 10.745C121.685 10.625 121.395 10.565 121.095 10.565C120.805 10.565 120.53 10.635 120.27 10.775C120.02 10.905 119.8 11.095 119.61 11.345C119.42 11.585 119.27 11.875 119.16 12.215C119.05 12.555 118.995 12.935 118.995 13.355C118.995 14.235 119.17 14.92 119.52 15.41C119.87 15.9 120.365 16.145 121.005 16.145ZM126.565 17V9.71H127.585L127.69 10.76H127.735C128.085 10.41 128.45 10.12 128.83 9.89C129.22 9.65 129.67 9.53 130.18 9.53C130.95 9.53 131.51 9.77 131.86 10.25C132.22 10.73 132.4 11.44 132.4 12.38V17H131.17V12.545C131.17 11.855 131.06 11.36 130.84 11.06C130.62 10.75 130.27 10.595 129.79 10.595C129.41 10.595 129.075 10.69 128.785 10.88C128.495 11.07 128.165 11.35 127.795 11.72V17H126.565ZM134.768 17V9.71H135.998V17H134.768ZM135.173 8.405L134.543 7.79L136.658 5.285L137.528 6.11L135.173 8.405ZM144.342 17.18C143.862 17.18 143.412 17.095 142.992 16.925C142.572 16.755 142.207 16.51 141.897 16.19C141.597 15.86 141.357 15.46 141.177 14.99C141.007 14.51 140.922 13.97 140.922 13.37C140.922 12.76 141.017 12.22 141.207 11.75C141.397 11.27 141.652 10.865 141.972 10.535C142.292 10.205 142.662 9.955 143.082 9.785C143.512 9.615 143.962 9.53 144.432 9.53C144.912 9.53 145.322 9.615 145.662 9.785C146.002 9.955 146.302 10.155 146.562 10.385L145.932 11.195C145.722 11.005 145.497 10.85 145.257 10.73C145.027 10.61 144.767 10.55 144.477 10.55C144.147 10.55 143.842 10.62 143.562 10.76C143.282 10.89 143.042 11.08 142.842 11.33C142.642 11.58 142.482 11.88 142.362 12.23C142.252 12.57 142.197 12.95 142.197 13.37C142.197 13.79 142.252 14.17 142.362 14.51C142.472 14.85 142.622 15.145 142.812 15.395C143.012 15.635 143.252 15.825 143.532 15.965C143.812 16.095 144.117 16.16 144.447 16.16C144.787 16.16 145.097 16.09 145.377 15.95C145.667 15.8 145.927 15.625 146.157 15.425L146.697 16.25C146.367 16.54 146.002 16.77 145.602 16.94C145.202 17.1 144.782 17.18 144.342 17.18ZM150.936 17.18C150.446 17.18 149.986 17.095 149.556 16.925C149.136 16.745 148.766 16.495 148.446 16.175C148.136 15.845 147.891 15.445 147.711 14.975C147.531 14.505 147.441 13.97 147.441 13.37C147.441 12.77 147.531 12.235 147.711 11.765C147.901 11.285 148.146 10.88 148.446 10.55C148.756 10.22 149.106 9.97 149.496 9.8C149.886 9.62 150.291 9.53 150.711 9.53C151.171 9.53 151.581 9.61 151.941 9.77C152.311 9.93 152.616 10.16 152.856 10.46C153.106 10.76 153.296 11.12 153.426 11.54C153.556 11.96 153.621 12.43 153.621 12.95C153.621 13.08 153.616 13.21 153.606 13.34C153.606 13.46 153.596 13.565 153.576 13.655H148.656C148.706 14.435 148.946 15.055 149.376 15.515C149.816 15.965 150.386 16.19 151.086 16.19C151.436 16.19 151.756 16.14 152.046 16.04C152.346 15.93 152.631 15.79 152.901 15.62L153.336 16.43C153.016 16.63 152.661 16.805 152.271 16.955C151.881 17.105 151.436 17.18 150.936 17.18ZM148.641 12.77H152.541C152.541 12.03 152.381 11.47 152.061 11.09C151.751 10.7 151.311 10.505 150.741 10.505C150.481 10.505 150.231 10.555 149.991 10.655C149.761 10.755 149.551 10.905 149.361 11.105C149.171 11.295 149.011 11.53 148.881 11.81C148.761 12.09 148.681 12.41 148.641 12.77ZM155.422 17V9.71H156.442L156.547 10.76H156.592C156.942 10.41 157.307 10.12 157.687 9.89C158.077 9.65 158.527 9.53 159.037 9.53C159.807 9.53 160.367 9.77 160.717 10.25C161.077 10.73 161.257 11.44 161.257 12.38V17H160.027V12.545C160.027 11.855 159.917 11.36 159.697 11.06C159.477 10.75 159.127 10.595 158.647 10.595C158.267 10.595 157.932 10.69 157.642 10.88C157.352 11.07 157.022 11.35 156.652 11.72V17H155.422ZM165.306 17.18C164.696 17.18 164.186 17 163.776 16.64C163.376 16.28 163.176 15.77 163.176 15.11C163.176 14.31 163.531 13.7 164.241 13.28C164.951 12.85 166.086 12.55 167.646 12.38C167.646 12.15 167.621 11.925 167.571 11.705C167.531 11.485 167.456 11.29 167.346 11.12C167.236 10.95 167.081 10.815 166.881 10.715C166.691 10.605 166.446 10.55 166.146 10.55C165.726 10.55 165.331 10.63 164.961 10.79C164.591 10.95 164.261 11.13 163.971 11.33L163.491 10.475C163.831 10.255 164.246 10.045 164.736 9.845C165.226 9.635 165.766 9.53 166.356 9.53C167.246 9.53 167.891 9.805 168.291 10.355C168.691 10.895 168.891 11.62 168.891 12.53V17H167.871L167.766 16.13H167.721C167.371 16.42 166.996 16.67 166.596 16.88C166.196 17.08 165.766 17.18 165.306 17.18ZM165.666 16.19C166.016 16.19 166.346 16.11 166.656 15.95C166.966 15.78 167.296 15.535 167.646 15.215V13.19C167.036 13.27 166.521 13.365 166.101 13.475C165.691 13.585 165.356 13.715 165.096 13.865C164.846 14.015 164.661 14.19 164.541 14.39C164.431 14.58 164.376 14.79 164.376 15.02C164.376 15.44 164.501 15.74 164.751 15.92C165.001 16.1 165.306 16.19 165.666 16.19Z" fill="#4A4040"/>
<g filter="url(#filter1_d)">
<rect x="198" y="8" width="12" height="12" rx="2" fill="#FF8787"/>
</g>
<path d="M220.08 18.18C219.39 18.18 218.75 18.05 218.16 17.79C217.57 17.53 217.06 17.175 216.63 16.725L217.38 15.855C217.73 16.225 218.14 16.525 218.61 16.755C219.09 16.975 219.585 17.085 220.095 17.085C220.745 17.085 221.25 16.94 221.61 16.65C221.97 16.35 222.15 15.96 222.15 15.48C222.15 15.23 222.105 15.02 222.015 14.85C221.935 14.67 221.82 14.52 221.67 14.4C221.53 14.27 221.36 14.155 221.16 14.055C220.96 13.955 220.745 13.85 220.515 13.74L219.105 13.125C218.875 13.025 218.64 12.905 218.4 12.765C218.16 12.625 217.945 12.455 217.755 12.255C217.565 12.055 217.41 11.82 217.29 11.55C217.17 11.27 217.11 10.95 217.11 10.59C217.11 10.22 217.185 9.875 217.335 9.555C217.495 9.235 217.71 8.96 217.98 8.73C218.26 8.49 218.585 8.305 218.955 8.175C219.335 8.045 219.75 7.98 220.2 7.98C220.79 7.98 221.335 8.095 221.835 8.325C222.335 8.545 222.76 8.835 223.11 9.195L222.435 10.005C222.135 9.715 221.8 9.49 221.43 9.33C221.07 9.16 220.66 9.075 220.2 9.075C219.65 9.075 219.205 9.205 218.865 9.465C218.535 9.715 218.37 10.065 218.37 10.515C218.37 10.755 218.415 10.96 218.505 11.13C218.605 11.29 218.735 11.435 218.895 11.565C219.055 11.685 219.23 11.795 219.42 11.895C219.61 11.985 219.805 12.07 220.005 12.15L221.4 12.75C221.68 12.87 221.945 13.01 222.195 13.17C222.445 13.32 222.66 13.5 222.84 13.71C223.02 13.91 223.16 14.15 223.26 14.43C223.37 14.7 223.425 15.015 223.425 15.375C223.425 15.765 223.345 16.13 223.185 16.47C223.035 16.81 222.815 17.11 222.525 17.37C222.235 17.62 221.885 17.82 221.475 17.97C221.065 18.11 220.6 18.18 220.08 18.18ZM225.243 18V7.32H226.458V14.55H226.503L229.608 10.71H230.973L228.528 13.635L231.303 18H229.953L227.823 14.49L226.458 16.08V18H225.243ZM234.594 18.18C233.814 18.18 233.244 17.94 232.884 17.46C232.534 16.98 232.359 16.27 232.359 15.33V10.71H233.604V15.165C233.604 15.855 233.709 16.355 233.919 16.665C234.139 16.965 234.489 17.115 234.969 17.115C235.349 17.115 235.684 17.02 235.974 16.83C236.264 16.63 236.584 16.315 236.934 15.885V10.71H238.164V18H237.144L237.039 16.86H236.994C236.654 17.26 236.294 17.58 235.914 17.82C235.544 18.06 235.104 18.18 234.594 18.18ZM242.919 18.18C242.529 18.18 242.199 18.12 241.929 18C241.669 17.88 241.454 17.715 241.284 17.505C241.124 17.295 241.009 17.04 240.939 16.74C240.869 16.44 240.834 16.11 240.834 15.75V11.715H239.754V10.785L240.894 10.71L241.044 8.67H242.079V10.71H244.044V11.715H242.079V15.765C242.079 16.215 242.159 16.565 242.319 16.815C242.489 17.055 242.784 17.175 243.204 17.175C243.334 17.175 243.474 17.155 243.624 17.115C243.774 17.075 243.909 17.03 244.029 16.98L244.269 17.91C244.069 17.98 243.849 18.04 243.609 18.09C243.379 18.15 243.149 18.18 242.919 18.18ZM248.442 18.18C247.952 18.18 247.492 18.095 247.062 17.925C246.642 17.745 246.272 17.495 245.952 17.175C245.642 16.845 245.397 16.445 245.217 15.975C245.037 15.505 244.947 14.97 244.947 14.37C244.947 13.77 245.037 13.235 245.217 12.765C245.407 12.285 245.652 11.88 245.952 11.55C246.262 11.22 246.612 10.97 247.002 10.8C247.392 10.62 247.797 10.53 248.217 10.53C248.677 10.53 249.087 10.61 249.447 10.77C249.817 10.93 250.122 11.16 250.362 11.46C250.612 11.76 250.802 12.12 250.932 12.54C251.062 12.96 251.127 13.43 251.127 13.95C251.127 14.08 251.122 14.21 251.112 14.34C251.112 14.46 251.102 14.565 251.082 14.655H246.162C246.212 15.435 246.452 16.055 246.882 16.515C247.322 16.965 247.892 17.19 248.592 17.19C248.942 17.19 249.262 17.14 249.552 17.04C249.852 16.93 250.137 16.79 250.407 16.62L250.842 17.43C250.522 17.63 250.167 17.805 249.777 17.955C249.387 18.105 248.942 18.18 248.442 18.18ZM246.147 13.77H250.047C250.047 13.03 249.887 12.47 249.567 12.09C249.257 11.7 248.817 11.505 248.247 11.505C247.987 11.505 247.737 11.555 247.497 11.655C247.267 11.755 247.057 11.905 246.867 12.105C246.677 12.295 246.517 12.53 246.387 12.81C246.267 13.09 246.187 13.41 246.147 13.77ZM255.808 18.18C255.328 18.18 254.878 18.095 254.458 17.925C254.038 17.755 253.673 17.51 253.363 17.19C253.063 16.86 252.823 16.46 252.643 15.99C252.473 15.51 252.388 14.97 252.388 14.37C252.388 13.76 252.483 13.22 252.673 12.75C252.863 12.27 253.118 11.865 253.438 11.535C253.758 11.205 254.128 10.955 254.548 10.785C254.978 10.615 255.428 10.53 255.898 10.53C256.378 10.53 256.788 10.615 257.128 10.785C257.468 10.955 257.768 11.155 258.028 11.385L257.398 12.195C257.188 12.005 256.963 11.85 256.723 11.73C256.493 11.61 256.233 11.55 255.943 11.55C255.613 11.55 255.308 11.62 255.028 11.76C254.748 11.89 254.508 12.08 254.308 12.33C254.108 12.58 253.948 12.88 253.828 13.23C253.718 13.57 253.663 13.95 253.663 14.37C253.663 14.79 253.718 15.17 253.828 15.51C253.938 15.85 254.088 16.145 254.278 16.395C254.478 16.635 254.718 16.825 254.998 16.965C255.278 17.095 255.583 17.16 255.913 17.16C256.253 17.16 256.563 17.09 256.843 16.95C257.133 16.8 257.393 16.625 257.623 16.425L258.163 17.25C257.833 17.54 257.468 17.77 257.068 17.94C256.668 18.1 256.248 18.18 255.808 18.18ZM255.268 9.39L253.558 7.29L254.083 6.81L255.853 8.505H255.913L257.683 6.81L258.208 7.29L256.498 9.39H255.268ZM259.769 18V10.71H260.789L260.894 11.76H260.939C261.289 11.41 261.654 11.12 262.034 10.89C262.424 10.65 262.874 10.53 263.384 10.53C264.154 10.53 264.714 10.77 265.064 11.25C265.424 11.73 265.604 12.44 265.604 13.38V18H264.374V13.545C264.374 12.855 264.264 12.36 264.044 12.06C263.824 11.75 263.474 11.595 262.994 11.595C262.614 11.595 262.279 11.69 261.989 11.88C261.699 12.07 261.369 12.35 260.999 12.72V18H259.769ZM269.652 18.18C269.042 18.18 268.532 18 268.122 17.64C267.722 17.28 267.522 16.77 267.522 16.11C267.522 15.31 267.877 14.7 268.587 14.28C269.297 13.85 270.432 13.55 271.992 13.38C271.992 13.15 271.967 12.925 271.917 12.705C271.877 12.485 271.802 12.29 271.692 12.12C271.582 11.95 271.427 11.815 271.227 11.715C271.037 11.605 270.792 11.55 270.492 11.55C270.072 11.55 269.677 11.63 269.307 11.79C268.937 11.95 268.607 12.13 268.317 12.33L267.837 11.475C268.177 11.255 268.592 11.045 269.082 10.845C269.572 10.635 270.112 10.53 270.702 10.53C271.592 10.53 272.237 10.805 272.637 11.355C273.037 11.895 273.237 12.62 273.237 13.53V18H272.217L272.112 17.13H272.067C271.717 17.42 271.342 17.67 270.942 17.88C270.542 18.08 270.112 18.18 269.652 18.18ZM270.012 17.19C270.362 17.19 270.692 17.11 271.002 16.95C271.312 16.78 271.642 16.535 271.992 16.215V14.19C271.382 14.27 270.867 14.365 270.447 14.475C270.037 14.585 269.702 14.715 269.442 14.865C269.192 15.015 269.007 15.19 268.887 15.39C268.777 15.58 268.722 15.79 268.722 16.02C268.722 16.44 268.847 16.74 269.097 16.92C269.347 17.1 269.652 17.19 270.012 17.19ZM270.462 9.405L269.832 8.79L271.947 6.285L272.817 7.11L270.462 9.405ZM281.414 18.18C280.934 18.18 280.484 18.095 280.064 17.925C279.644 17.755 279.279 17.51 278.969 17.19C278.669 16.86 278.429 16.46 278.249 15.99C278.079 15.51 277.994 14.97 277.994 14.37C277.994 13.76 278.089 13.22 278.279 12.75C278.469 12.27 278.724 11.865 279.044 11.535C279.364 11.205 279.734 10.955 280.154 10.785C280.584 10.615 281.034 10.53 281.504 10.53C281.984 10.53 282.394 10.615 282.734 10.785C283.074 10.955 283.374 11.155 283.634 11.385L283.004 12.195C282.794 12.005 282.569 11.85 282.329 11.73C282.099 11.61 281.839 11.55 281.549 11.55C281.219 11.55 280.914 11.62 280.634 11.76C280.354 11.89 280.114 12.08 279.914 12.33C279.714 12.58 279.554 12.88 279.434 13.23C279.324 13.57 279.269 13.95 279.269 14.37C279.269 14.79 279.324 15.17 279.434 15.51C279.544 15.85 279.694 16.145 279.884 16.395C280.084 16.635 280.324 16.825 280.604 16.965C280.884 17.095 281.189 17.16 281.519 17.16C281.859 17.16 282.169 17.09 282.449 16.95C282.739 16.8 282.999 16.625 283.229 16.425L283.769 17.25C283.439 17.54 283.074 17.77 282.674 17.94C282.274 18.1 281.854 18.18 281.414 18.18ZM288.007 18.18C287.517 18.18 287.057 18.095 286.627 17.925C286.207 17.745 285.837 17.495 285.517 17.175C285.207 16.845 284.962 16.445 284.782 15.975C284.602 15.505 284.512 14.97 284.512 14.37C284.512 13.77 284.602 13.235 284.782 12.765C284.972 12.285 285.217 11.88 285.517 11.55C285.827 11.22 286.177 10.97 286.567 10.8C286.957 10.62 287.362 10.53 287.782 10.53C288.242 10.53 288.652 10.61 289.012 10.77C289.382 10.93 289.687 11.16 289.927 11.46C290.177 11.76 290.367 12.12 290.497 12.54C290.627 12.96 290.692 13.43 290.692 13.95C290.692 14.08 290.687 14.21 290.677 14.34C290.677 14.46 290.667 14.565 290.647 14.655H285.727C285.777 15.435 286.017 16.055 286.447 16.515C286.887 16.965 287.457 17.19 288.157 17.19C288.507 17.19 288.827 17.14 289.117 17.04C289.417 16.93 289.702 16.79 289.972 16.62L290.407 17.43C290.087 17.63 289.732 17.805 289.342 17.955C288.952 18.105 288.507 18.18 288.007 18.18ZM285.712 13.77H289.612C289.612 13.03 289.452 12.47 289.132 12.09C288.822 11.7 288.382 11.505 287.812 11.505C287.552 11.505 287.302 11.555 287.062 11.655C286.832 11.755 286.622 11.905 286.432 12.105C286.242 12.295 286.082 12.53 285.952 12.81C285.832 13.09 285.752 13.41 285.712 13.77ZM292.494 18V10.71H293.514L293.619 11.76H293.664C294.014 11.41 294.379 11.12 294.759 10.89C295.149 10.65 295.599 10.53 296.109 10.53C296.879 10.53 297.439 10.77 297.789 11.25C298.149 11.73 298.329 12.44 298.329 13.38V18H297.099V13.545C297.099 12.855 296.989 12.36 296.769 12.06C296.549 11.75 296.199 11.595 295.719 11.595C295.339 11.595 295.004 11.69 294.714 11.88C294.424 12.07 294.094 12.35 293.724 12.72V18H292.494ZM302.377 18.18C301.767 18.18 301.257 18 300.847 17.64C300.447 17.28 300.247 16.77 300.247 16.11C300.247 15.31 300.602 14.7 301.312 14.28C302.022 13.85 303.157 13.55 304.717 13.38C304.717 13.15 304.692 12.925 304.642 12.705C304.602 12.485 304.527 12.29 304.417 12.12C304.307 11.95 304.152 11.815 303.952 11.715C303.762 11.605 303.517 11.55 303.217 11.55C302.797 11.55 302.402 11.63 302.032 11.79C301.662 11.95 301.332 12.13 301.042 12.33L300.562 11.475C300.902 11.255 301.317 11.045 301.807 10.845C302.297 10.635 302.837 10.53 303.427 10.53C304.317 10.53 304.962 10.805 305.362 11.355C305.762 11.895 305.962 12.62 305.962 13.53V18H304.942L304.837 17.13H304.792C304.442 17.42 304.067 17.67 303.667 17.88C303.267 18.08 302.837 18.18 302.377 18.18ZM302.737 17.19C303.087 17.19 303.417 17.11 303.727 16.95C304.037 16.78 304.367 16.535 304.717 16.215V14.19C304.107 14.27 303.592 14.365 303.172 14.475C302.762 14.585 302.427 14.715 302.167 14.865C301.917 15.015 301.732 15.19 301.612 15.39C301.502 15.58 301.447 15.79 301.447 16.02C301.447 16.44 301.572 16.74 301.822 16.92C302.072 17.1 302.377 17.19 302.737 17.19Z" fill="#4A4040"/>
<g filter="url(#filter2_d)">
<rect x="145" y="116" width="87" height="22" rx="11" fill="white"/>
</g>
<path d="M159.876 131.144C159.476 131.144 159.1 131.088 158.748 130.976C158.404 130.856 158.104 130.664 157.848 130.4C157.6 130.128 157.404 129.776 157.26 129.344C157.116 128.912 157.044 128.38 157.044 127.748V123.128H158.04V127.772C158.04 128.244 158.088 128.64 158.184 128.96C158.28 129.28 158.408 129.536 158.568 129.728C158.736 129.92 158.932 130.06 159.156 130.148C159.38 130.228 159.62 130.268 159.876 130.268C160.14 130.268 160.384 130.228 160.608 130.148C160.832 130.06 161.028 129.92 161.196 129.728C161.364 129.536 161.496 129.28 161.592 128.96C161.688 128.64 161.736 128.244 161.736 127.772V123.128H162.696V127.748C162.696 128.38 162.624 128.912 162.48 129.344C162.336 129.776 162.136 130.128 161.88 130.4C161.632 130.664 161.336 130.856 160.992 130.976C160.648 131.088 160.276 131.144 159.876 131.144ZM164.718 131V122.456H165.69V128.24H165.726L168.21 125.168H169.302L167.346 127.508L169.566 131H168.486L166.782 128.192L165.69 129.464V131H164.718ZM171.887 131.144C171.399 131.144 170.991 131 170.663 130.712C170.343 130.424 170.183 130.016 170.183 129.488C170.183 128.848 170.467 128.36 171.035 128.024C171.603 127.68 172.511 127.44 173.759 127.304C173.759 127.12 173.739 126.94 173.699 126.764C173.667 126.588 173.607 126.432 173.519 126.296C173.431 126.16 173.307 126.052 173.147 125.972C172.995 125.884 172.799 125.84 172.559 125.84C172.223 125.84 171.907 125.904 171.611 126.032C171.315 126.16 171.051 126.304 170.819 126.464L170.435 125.78C170.707 125.604 171.039 125.436 171.431 125.276C171.823 125.108 172.255 125.024 172.727 125.024C173.439 125.024 173.955 125.244 174.275 125.684C174.595 126.116 174.755 126.696 174.755 127.424V131H173.939L173.855 130.304H173.819C173.539 130.536 173.239 130.736 172.919 130.904C172.599 131.064 172.255 131.144 171.887 131.144ZM172.175 130.352C172.455 130.352 172.719 130.288 172.967 130.16C173.215 130.024 173.479 129.828 173.759 129.572V127.952C173.271 128.016 172.859 128.092 172.523 128.18C172.195 128.268 171.927 128.372 171.719 128.492C171.519 128.612 171.371 128.752 171.275 128.912C171.187 129.064 171.143 129.232 171.143 129.416C171.143 129.752 171.243 129.992 171.443 130.136C171.643 130.28 171.887 130.352 172.175 130.352ZM172.535 124.124L172.031 123.632L173.723 121.628L174.419 122.288L172.535 124.124ZM175.977 131V130.472L179.049 125.972H176.313V125.168H180.297V125.696L177.225 130.196H180.393V131H175.977ZM181.687 131V122.456H182.659V128.24H182.695L185.179 125.168H186.271L184.315 127.508L186.535 131H185.455L183.751 128.192L182.659 129.464V131H181.687ZM188.855 131.144C188.367 131.144 187.959 131 187.631 130.712C187.311 130.424 187.151 130.016 187.151 129.488C187.151 128.848 187.435 128.36 188.003 128.024C188.571 127.68 189.479 127.44 190.727 127.304C190.727 127.12 190.707 126.94 190.667 126.764C190.635 126.588 190.575 126.432 190.487 126.296C190.399 126.16 190.275 126.052 190.115 125.972C189.963 125.884 189.767 125.84 189.527 125.84C189.191 125.84 188.875 125.904 188.579 126.032C188.283 126.16 188.019 126.304 187.787 126.464L187.403 125.78C187.675 125.604 188.007 125.436 188.399 125.276C188.791 125.108 189.223 125.024 189.695 125.024C190.407 125.024 190.923 125.244 191.243 125.684C191.563 126.116 191.723 126.696 191.723 127.424V131H190.907L190.823 130.304H190.787C190.507 130.536 190.207 130.736 189.887 130.904C189.567 131.064 189.223 131.144 188.855 131.144ZM189.143 130.352C189.423 130.352 189.687 130.288 189.935 130.16C190.183 130.024 190.447 129.828 190.727 129.572V127.952C190.239 128.016 189.827 128.092 189.491 128.18C189.163 128.268 188.895 128.372 188.687 128.492C188.487 128.612 188.339 128.752 188.243 128.912C188.155 129.064 188.111 129.232 188.111 129.416C188.111 129.752 188.211 129.992 188.411 130.136C188.611 130.28 188.855 130.352 189.143 130.352ZM197.929 133.688C197.569 133.688 197.241 133.652 196.945 133.58C196.649 133.516 196.393 133.416 196.177 133.28C195.969 133.144 195.805 132.98 195.685 132.788C195.573 132.596 195.517 132.372 195.517 132.116C195.517 131.868 195.593 131.632 195.745 131.408C195.897 131.184 196.105 130.98 196.369 130.796V130.748C196.225 130.66 196.101 130.54 195.997 130.388C195.901 130.228 195.853 130.032 195.853 129.8C195.853 129.552 195.921 129.336 196.057 129.152C196.193 128.968 196.337 128.824 196.489 128.72V128.672C196.297 128.512 196.121 128.3 195.961 128.036C195.809 127.764 195.733 127.452 195.733 127.1C195.733 126.78 195.789 126.492 195.901 126.236C196.021 125.98 196.181 125.764 196.381 125.588C196.581 125.404 196.813 125.264 197.077 125.168C197.349 125.072 197.633 125.024 197.929 125.024C198.089 125.024 198.237 125.04 198.373 125.072C198.517 125.096 198.645 125.128 198.757 125.168H200.785V125.924H199.585C199.721 126.06 199.833 126.232 199.921 126.44C200.017 126.648 200.065 126.876 200.065 127.124C200.065 127.436 200.009 127.72 199.897 127.976C199.785 128.224 199.633 128.436 199.441 128.612C199.249 128.78 199.021 128.912 198.757 129.008C198.501 129.104 198.225 129.152 197.929 129.152C197.785 129.152 197.637 129.136 197.485 129.104C197.333 129.064 197.189 129.012 197.053 128.948C196.949 129.036 196.861 129.136 196.789 129.248C196.717 129.352 196.681 129.484 196.681 129.644C196.681 129.828 196.753 129.98 196.897 130.1C197.041 130.22 197.313 130.28 197.713 130.28H198.841C199.521 130.28 200.029 130.392 200.365 130.616C200.709 130.832 200.881 131.184 200.881 131.672C200.881 131.944 200.813 132.2 200.677 132.44C200.541 132.688 200.345 132.904 200.089 133.088C199.833 133.272 199.521 133.416 199.153 133.52C198.793 133.632 198.385 133.688 197.929 133.688ZM197.929 128.492C198.097 128.492 198.253 128.46 198.397 128.396C198.549 128.332 198.681 128.24 198.793 128.12C198.913 128 199.005 127.856 199.069 127.688C199.133 127.512 199.165 127.316 199.165 127.1C199.165 126.668 199.045 126.336 198.805 126.104C198.565 125.864 198.273 125.744 197.929 125.744C197.585 125.744 197.293 125.864 197.053 126.104C196.813 126.336 196.693 126.668 196.693 127.1C196.693 127.316 196.725 127.512 196.789 127.688C196.853 127.856 196.941 128 197.053 128.12C197.173 128.24 197.305 128.332 197.449 128.396C197.601 128.46 197.761 128.492 197.929 128.492ZM198.073 133.004C198.353 133.004 198.605 132.968 198.829 132.896C199.061 132.832 199.257 132.744 199.417 132.632C199.577 132.528 199.701 132.404 199.789 132.26C199.877 132.116 199.921 131.968 199.921 131.816C199.921 131.544 199.821 131.356 199.621 131.252C199.421 131.148 199.129 131.096 198.745 131.096H197.737C197.625 131.096 197.501 131.088 197.365 131.072C197.237 131.064 197.109 131.04 196.981 131C196.773 131.152 196.621 131.312 196.525 131.48C196.429 131.648 196.381 131.816 196.381 131.984C196.381 132.296 196.529 132.544 196.825 132.728C197.129 132.912 197.545 133.004 198.073 133.004ZM202.007 131V125.168H202.823L202.907 126.224H202.943C203.143 125.856 203.383 125.564 203.663 125.348C203.951 125.132 204.263 125.024 204.599 125.024C204.831 125.024 205.039 125.064 205.223 125.144L205.031 126.008C204.935 125.976 204.847 125.952 204.767 125.936C204.687 125.92 204.587 125.912 204.467 125.912C204.219 125.912 203.959 126.012 203.687 126.212C203.423 126.412 203.191 126.76 202.991 127.256V131H202.007ZM207.219 131.144C206.731 131.144 206.323 131 205.995 130.712C205.675 130.424 205.515 130.016 205.515 129.488C205.515 128.848 205.799 128.36 206.367 128.024C206.935 127.68 207.843 127.44 209.091 127.304C209.091 127.12 209.071 126.94 209.031 126.764C208.999 126.588 208.939 126.432 208.851 126.296C208.763 126.16 208.639 126.052 208.479 125.972C208.327 125.884 208.131 125.84 207.891 125.84C207.555 125.84 207.239 125.904 206.943 126.032C206.647 126.16 206.383 126.304 206.151 126.464L205.767 125.78C206.039 125.604 206.371 125.436 206.763 125.276C207.155 125.108 207.587 125.024 208.059 125.024C208.771 125.024 209.287 125.244 209.607 125.684C209.927 126.116 210.087 126.696 210.087 127.424V131H209.271L209.187 130.304H209.151C208.871 130.536 208.571 130.736 208.251 130.904C207.931 131.064 207.587 131.144 207.219 131.144ZM207.507 130.352C207.787 130.352 208.051 130.288 208.299 130.16C208.547 130.024 208.811 129.828 209.091 129.572V127.952C208.603 128.016 208.191 128.092 207.855 128.18C207.527 128.268 207.259 128.372 207.051 128.492C206.851 128.612 206.703 128.752 206.607 128.912C206.519 129.064 206.475 129.232 206.475 129.416C206.475 129.752 206.575 129.992 206.775 130.136C206.975 130.28 207.219 130.352 207.507 130.352ZM212.09 131V125.972H211.298V125.228L212.09 125.168V124.244C212.09 123.644 212.226 123.172 212.498 122.828C212.778 122.484 213.21 122.312 213.794 122.312C213.978 122.312 214.15 122.332 214.31 122.372C214.478 122.404 214.63 122.448 214.766 122.504L214.55 123.26C214.334 123.164 214.114 123.116 213.89 123.116C213.346 123.116 213.074 123.492 213.074 124.244V125.168H214.31V125.972H213.074V131H212.09ZM217.129 131.144C216.505 131.144 216.049 130.952 215.761 130.568C215.481 130.184 215.341 129.616 215.341 128.864V125.168H216.337V128.732C216.337 129.284 216.421 129.684 216.589 129.932C216.765 130.172 217.045 130.292 217.429 130.292C217.733 130.292 218.001 130.216 218.233 130.064C218.465 129.904 218.721 129.652 219.001 129.308V125.168H219.985V131H219.169L219.085 130.088H219.049C218.777 130.408 218.489 130.664 218.185 130.856C217.889 131.048 217.537 131.144 217.129 131.144Z" fill="#757575"/>
<defs>
<filter id="filter0_d" x="0" y="0" width="32" height="32" filterUnits="userSpaceOnUse" color-interpolation-filters="sRGB">
<feFlood flood-opacity="0" result="BackgroundImageFix"/>
<feColorMatrix in="SourceAlpha" type="matrix" values="0 0 0 0 0 0 0 0 0 0 0 0 0 0 0 0 0 0 127 0"/>
<feOffset dy="3"/>
<feGaussianBlur stdDeviation="5"/>
<feColorMatrix type="matrix" values="0 0 0 0 0 0 0 0 0 0 0 0 0 0 0 0 0 0 0.1 0"/>
<feBlend mode="normal" in2="BackgroundImageFix" result="effect1_dropShadow"/>
<feBlend mode="normal" in="SourceGraphic" in2="effect1_dropShadow" result="shape"/>
</filter>
<filter id="filter1_d" x="188" y="1" width="32" height="32" filterUnits="userSpaceOnUse" color-interpolation-filters="sRGB">
<feFlood flood-opacity="0" result="BackgroundImageFix"/>
<feColorMatrix in="SourceAlpha" type="matrix" values="0 0 0 0 0 0 0 0 0 0 0 0 0 0 0 0 0 0 127 0"/>
<feOffset dy="3"/>
<feGaussianBlur stdDeviation="5"/>
<feColorMatrix type="matrix" values="0 0 0 0 0 0 0 0 0 0 0 0 0 0 0 0 0 0 0.1 0"/>
<feBlend mode="normal" in2="BackgroundImageFix" result="effect1_dropShadow"/>
<feBlend mode="normal" in="SourceGraphic" in2="effect1_dropShadow" result="shape"/>
</filter>
<filter id="filter2_d" x="125" y="116" width="127" height="62" filterUnits="userSpaceOnUse" color-interpolation-filters="sRGB">
<feFlood flood-opacity="0" result="BackgroundImageFix"/>
<feColorMatrix in="SourceAlpha" type="matrix" values="0 0 0 0 0 0 0 0 0 0 0 0 0 0 0 0 0 0 127 0"/>
<feOffset dy="20"/>
<feGaussianBlur stdDeviation="10"/>
<feColorMatrix type="matrix" values="0 0 0 0 0 0 0 0 0 0 0 0 0 0 0 0 0 0 0.06 0"/>
<feBlend mode="normal" in2="BackgroundImageFix" result="effect1_dropShadow"/>
<feBlend mode="normal" in="SourceGraphic" in2="effect1_dropShadow" result="shape"/>
</filter>
<linearGradient id="paint0_linear" x1="125.158" y1="95.4392" x2="125.158" y2="221.134" gradientUnits="userSpaceOnUse">
<stop stop-color="#5C62CD"/>
<stop offset="1" stop-color="white" stop-opacity="0"/>
</linearGradient>
<linearGradient id="paint1_linear" x1="186.5" y1="42" x2="186.5" y2="221.887" gradientUnits="userSpaceOnUse">
<stop stop-color="#EB6F55"/>
<stop offset="1" stop-color="white" stop-opacity="0"/>
</linearGradient>
</defs>
</svg>
