<svg width="353" height="188" viewBox="0 0 353 188" fill="none" xmlns="http://www.w3.org/2000/svg">
<line x1="0.5" y1="34" x2="0.499993" y2="186" stroke="#EAEEF2" stroke-opacity="0.64"/>
<line x1="348" y1="186.772" y2="186.772" stroke="#EAEEF2" stroke-opacity="0.64"/>
<line x1="348" y1="155.854" y2="155.854" stroke="#EAEEF2" stroke-opacity="0.64"/>
<line x1="348" y1="124.937" y2="124.937" stroke="#EAEEF2" stroke-opacity="0.64"/>
<line x1="348" y1="94.0197" y2="94.0197" stroke="#EAEEF2" stroke-opacity="0.64"/>
<line x1="348" y1="63.1024" y2="63.1024" stroke="#EAEEF2" stroke-opacity="0.64"/>
<line x1="32.5" y1="34" x2="32.5" y2="186" stroke="#EAEEF2" stroke-opacity="0.64"/>
<line x1="63.5" y1="34" x2="63.5" y2="186" stroke="#EAEEF2" stroke-opacity="0.64"/>
<line x1="95.5" y1="34" x2="95.5" y2="186" stroke="#EAEEF2" stroke-opacity="0.64"/>
<line x1="127.5" y1="34" x2="127.5" y2="186" stroke="#EAEEF2" stroke-opacity="0.64"/>
<line x1="158.5" y1="34" x2="158.5" y2="186" stroke="#EAEEF2" stroke-opacity="0.64"/>
<line x1="190.5" y1="34" x2="190.5" y2="186" stroke="#EAEEF2" stroke-opacity="0.64"/>
<line x1="221.5" y1="34" x2="221.5" y2="186" stroke="#EAEEF2" stroke-opacity="0.64"/>
<line x1="253.5" y1="34" x2="253.5" y2="186" stroke="#EAEEF2" stroke-opacity="0.64"/>
<line x1="285.5" y1="34" x2="285.5" y2="186" stroke="#EAEEF2" stroke-opacity="0.64"/>
<line x1="316.5" y1="34" x2="316.5" y2="186" stroke="#EAEEF2" stroke-opacity="0.64"/>
<line x1="348.5" y1="34" x2="348.5" y2="186" stroke="#EAEEF2" stroke-opacity="0.64"/>
<rect y="82.6694" width="230.316" height="102.715" fill="url(#paint0_linear)" fill-opacity="0.07"/>
<line x1="1.5" y1="82.3996" x2="228.816" y2="82.3996" stroke="#5C62CD" stroke-width="3" stroke-linecap="round" stroke-linejoin="round"/>
<path d="M6.67144 149.284H2C0.89543 149.284 0 150.18 0 151.284V184C0 185.105 0.895429 186 2 186H351C352.105 186 353 185.105 353 184V40.8066C353 39.8088 352.191 39 351.193 39C350.196 39 349.387 39.8088 349.387 40.8066V61.7697C349.387 62.8743 348.491 63.7697 347.387 63.7697H327.59C326.857 63.7697 326.263 64.3638 326.263 65.0967C326.263 65.8295 325.669 66.4236 324.936 66.4236H303.694C302.589 66.4236 301.694 65.5282 301.694 64.4236V63.3979C301.694 62.3004 300.804 61.4107 299.707 61.4107C298.609 61.4107 297.72 62.3004 297.72 63.3979V64.4236C297.72 65.5282 296.824 66.4236 295.72 66.4236H286.712C285.608 66.4236 284.712 67.3191 284.712 68.4236V87.4241C284.712 88.5287 283.817 89.4241 282.712 89.4241H278.041C276.936 89.4241 276.041 90.3195 276.041 91.4241V92.437C276.041 93.5416 275.146 94.437 274.041 94.437H262.505C261.4 94.437 260.505 93.5416 260.505 92.437V74.0263C260.505 72.9218 259.609 72.0263 258.505 72.0263H232.877C231.773 72.0263 230.877 72.9218 230.877 74.0263V100.104C230.877 101.208 229.982 102.104 228.877 102.104H224.567C223.462 102.104 222.567 101.208 222.567 100.104V74.0263C222.567 72.9218 221.672 72.0263 220.567 72.0263H177.235C176.131 72.0263 175.235 72.9218 175.235 74.0263V84.7702C175.235 85.8748 174.34 86.7702 173.235 86.7702H148.692C147.587 86.7702 146.692 87.6656 146.692 88.7702V102.463C146.692 103.567 145.796 104.463 144.692 104.463H141.104C140 104.463 139.104 103.567 139.104 102.463V93.7831C139.104 92.6786 138.209 91.7831 137.104 91.7831H132.794C131.69 91.7831 130.794 90.8877 130.794 89.7831V81.0906C130.794 79.9931 129.905 79.1034 128.807 79.1034C127.71 79.1034 126.82 79.9931 126.82 81.0906V147.284C126.82 148.389 125.924 149.284 124.82 149.284H19.3429C18.2383 149.284 17.3429 150.18 17.3429 151.284V167.336C17.3429 168.441 16.4475 169.336 15.3429 169.336H10.6714C9.56687 169.336 8.67144 168.441 8.67144 167.336V151.284C8.67144 150.18 7.77601 149.284 6.67144 149.284Z" fill="url(#paint1_linear)" fill-opacity="0.07"/>
<path d="M0 149.948H8.65295V170.008H17.3059V149.948H126.549V79.7361H130.515V92.4214H138.808V105.107H146.379V87.4063H174.862V72.6559H222.092V102.747H230.385V72.6559H259.949V95.0765H275.452V90.0613H284.105V67.0507H297.085V62.0356H301.051V67.0507H325.567V64.3957H348.642V39.6151H352.247" stroke="#FF8787" stroke-width="3"/>
<rect y="4" width="12" height="12" rx="2" fill="#5C62CD"/>
<path d="M21.845 15.18C21.345 15.18 20.875 15.11 20.435 14.97C20.005 14.82 19.63 14.58 19.31 14.25C19 13.91 18.755 13.47 18.575 12.93C18.395 12.39 18.305 11.725 18.305 10.935V5.16H19.55V10.965C19.55 11.555 19.61 12.05 19.73 12.45C19.85 12.85 20.01 13.17 20.21 13.41C20.42 13.65 20.665 13.825 20.945 13.935C21.225 14.035 21.525 14.085 21.845 14.085C22.175 14.085 22.48 14.035 22.76 13.935C23.04 13.825 23.285 13.65 23.495 13.41C23.705 13.17 23.87 12.85 23.99 12.45C24.11 12.05 24.17 11.555 24.17 10.965V5.16H25.37V10.935C25.37 11.725 25.28 12.39 25.1 12.93C24.92 13.47 24.67 13.91 24.35 14.25C24.04 14.58 23.67 14.82 23.24 14.97C22.81 15.11 22.345 15.18 21.845 15.18ZM29.473 15L26.848 7.71H28.123L29.503 11.85C29.613 12.21 29.723 12.57 29.833 12.93C29.953 13.29 30.068 13.645 30.178 13.995H30.238C30.348 13.645 30.458 13.29 30.568 12.93C30.678 12.57 30.788 12.21 30.898 11.85L32.278 7.71H33.493L30.913 15H29.473ZM36.287 15.18C35.677 15.18 35.167 15 34.757 14.64C34.357 14.28 34.157 13.77 34.157 13.11C34.157 12.31 34.512 11.7 35.222 11.28C35.932 10.85 37.067 10.55 38.627 10.38C38.627 10.15 38.602 9.925 38.552 9.705C38.512 9.485 38.437 9.29 38.327 9.12C38.217 8.95 38.062 8.815 37.862 8.715C37.672 8.605 37.427 8.55 37.127 8.55C36.707 8.55 36.312 8.63 35.942 8.79C35.572 8.95 35.242 9.13 34.952 9.33L34.472 8.475C34.812 8.255 35.227 8.045 35.717 7.845C36.207 7.635 36.747 7.53 37.337 7.53C38.227 7.53 38.872 7.805 39.272 8.355C39.672 8.895 39.872 9.62 39.872 10.53V15H38.852L38.747 14.13H38.702C38.352 14.42 37.977 14.67 37.577 14.88C37.177 15.08 36.747 15.18 36.287 15.18ZM36.647 14.19C36.997 14.19 37.327 14.11 37.637 13.95C37.947 13.78 38.277 13.535 38.627 13.215V11.19C38.017 11.27 37.502 11.365 37.082 11.475C36.672 11.585 36.337 11.715 36.077 11.865C35.827 12.015 35.642 12.19 35.522 12.39C35.412 12.58 35.357 12.79 35.357 13.02C35.357 13.44 35.482 13.74 35.732 13.92C35.982 14.1 36.287 14.19 36.647 14.19ZM37.097 6.405L36.467 5.79L38.582 3.285L39.452 4.11L37.097 6.405ZM44.6555 15.18C43.7355 15.18 43.0005 14.85 42.4505 14.19C41.9105 13.53 41.6405 12.59 41.6405 11.37C41.6405 10.78 41.7255 10.25 41.8955 9.78C42.0755 9.3 42.3105 8.895 42.6005 8.565C42.8905 8.235 43.2255 7.98 43.6055 7.8C43.9855 7.62 44.3855 7.53 44.8055 7.53C45.2255 7.53 45.5905 7.605 45.9005 7.755C46.2105 7.905 46.5255 8.11 46.8455 8.37L46.7855 7.125V4.32H48.0305V15H47.0105L46.9055 14.145H46.8605C46.5705 14.425 46.2355 14.67 45.8555 14.88C45.4855 15.08 45.0855 15.18 44.6555 15.18ZM44.9255 14.145C45.2655 14.145 45.5855 14.065 45.8855 13.905C46.1855 13.735 46.4855 13.48 46.7855 13.14V9.33C46.4755 9.05 46.1755 8.855 45.8855 8.745C45.6055 8.625 45.3155 8.565 45.0155 8.565C44.7255 8.565 44.4505 8.635 44.1905 8.775C43.9405 8.905 43.7205 9.095 43.5305 9.345C43.3405 9.585 43.1905 9.875 43.0805 10.215C42.9705 10.555 42.9155 10.935 42.9155 11.355C42.9155 12.235 43.0905 12.92 43.4405 13.41C43.7905 13.9 44.2855 14.145 44.9255 14.145ZM53.4409 15.18C52.9509 15.18 52.4909 15.095 52.0609 14.925C51.6409 14.745 51.2709 14.495 50.9509 14.175C50.6409 13.845 50.3959 13.445 50.2159 12.975C50.0359 12.505 49.9459 11.97 49.9459 11.37C49.9459 10.77 50.0359 10.235 50.2159 9.765C50.4059 9.285 50.6509 8.88 50.9509 8.55C51.2609 8.22 51.6109 7.97 52.0009 7.8C52.3909 7.62 52.7959 7.53 53.2159 7.53C53.6759 7.53 54.0859 7.61 54.4459 7.77C54.8159 7.93 55.1209 8.16 55.3609 8.46C55.6109 8.76 55.8009 9.12 55.9309 9.54C56.0609 9.96 56.1259 10.43 56.1259 10.95C56.1259 11.08 56.1209 11.21 56.1109 11.34C56.1109 11.46 56.1009 11.565 56.0809 11.655H51.1609C51.2109 12.435 51.4509 13.055 51.8809 13.515C52.3209 13.965 52.8909 14.19 53.5909 14.19C53.9409 14.19 54.2609 14.14 54.5509 14.04C54.8509 13.93 55.1359 13.79 55.4059 13.62L55.8409 14.43C55.5209 14.63 55.1659 14.805 54.7759 14.955C54.3859 15.105 53.9409 15.18 53.4409 15.18ZM51.1459 10.77H55.0459C55.0459 10.03 54.8859 9.47 54.5659 9.09C54.2559 8.7 53.8159 8.505 53.2459 8.505C52.9859 8.505 52.7359 8.555 52.4959 8.655C52.2659 8.755 52.0559 8.905 51.8659 9.105C51.6759 9.295 51.5159 9.53 51.3859 9.81C51.2659 10.09 51.1859 10.41 51.1459 10.77ZM52.6159 6.39L50.9059 4.29L51.4309 3.81L53.2009 5.505H53.2609L55.0309 3.81L55.5559 4.29L53.8459 6.39H52.6159ZM57.9273 15V7.71H58.9473L59.0523 8.76H59.0973C59.4473 8.41 59.8123 8.12 60.1923 7.89C60.5823 7.65 61.0323 7.53 61.5423 7.53C62.3123 7.53 62.8723 7.77 63.2223 8.25C63.5823 8.73 63.7623 9.44 63.7623 10.38V15H62.5323V10.545C62.5323 9.855 62.4223 9.36 62.2023 9.06C61.9823 8.75 61.6323 8.595 61.1523 8.595C60.7723 8.595 60.4373 8.69 60.1473 8.88C59.8573 9.07 59.5273 9.35 59.1573 9.72V15H57.9273ZM67.8104 15.18C67.2004 15.18 66.6904 15 66.2804 14.64C65.8804 14.28 65.6804 13.77 65.6804 13.11C65.6804 12.31 66.0354 11.7 66.7454 11.28C67.4554 10.85 68.5904 10.55 70.1504 10.38C70.1504 10.15 70.1254 9.925 70.0754 9.705C70.0354 9.485 69.9604 9.29 69.8504 9.12C69.7404 8.95 69.5854 8.815 69.3854 8.715C69.1954 8.605 68.9504 8.55 68.6504 8.55C68.2304 8.55 67.8354 8.63 67.4654 8.79C67.0954 8.95 66.7654 9.13 66.4754 9.33L65.9954 8.475C66.3354 8.255 66.7504 8.045 67.2404 7.845C67.7304 7.635 68.2704 7.53 68.8604 7.53C69.7504 7.53 70.3954 7.805 70.7954 8.355C71.1954 8.895 71.3954 9.62 71.3954 10.53V15H70.3754L70.2704 14.13H70.2254C69.8754 14.42 69.5004 14.67 69.1004 14.88C68.7004 15.08 68.2704 15.18 67.8104 15.18ZM68.1704 14.19C68.5204 14.19 68.8504 14.11 69.1604 13.95C69.4704 13.78 69.8004 13.535 70.1504 13.215V11.19C69.5404 11.27 69.0254 11.365 68.6054 11.475C68.1954 11.585 67.8604 11.715 67.6004 11.865C67.3504 12.015 67.1654 12.19 67.0454 12.39C66.9354 12.58 66.8804 12.79 66.8804 13.02C66.8804 13.44 67.0054 13.74 67.2554 13.92C67.5054 14.1 67.8104 14.19 68.1704 14.19ZM68.6204 6.405L67.9904 5.79L70.1054 3.285L70.9754 4.11L68.6204 6.405ZM76.6919 18.075V7.71H77.7119L77.8169 8.55H77.8619C78.1919 8.27 78.5519 8.03 78.9419 7.83C79.3419 7.63 79.7569 7.53 80.1869 7.53C80.6569 7.53 81.0719 7.62 81.4319 7.8C81.7919 7.97 82.0919 8.22 82.3319 8.55C82.5719 8.87 82.7519 9.26 82.8719 9.72C83.0019 10.17 83.0669 10.68 83.0669 11.25C83.0669 11.87 82.9819 12.425 82.8119 12.915C82.6419 13.395 82.4119 13.805 82.1219 14.145C81.8319 14.485 81.4969 14.745 81.1169 14.925C80.7369 15.095 80.3369 15.18 79.9169 15.18C79.5769 15.18 79.2369 15.105 78.8969 14.955C78.5669 14.805 78.2319 14.6 77.8919 14.34L77.9219 15.615V18.075H76.6919ZM79.7069 14.145C80.0069 14.145 80.2819 14.08 80.5319 13.95C80.7919 13.81 81.0119 13.62 81.1919 13.38C81.3819 13.13 81.5269 12.825 81.6269 12.465C81.7369 12.105 81.7919 11.7 81.7919 11.25C81.7919 10.85 81.7569 10.485 81.6869 10.155C81.6169 9.825 81.5019 9.545 81.3419 9.315C81.1919 9.075 80.9919 8.89 80.7419 8.76C80.5019 8.63 80.2119 8.565 79.8719 8.565C79.5619 8.565 79.2469 8.65 78.9269 8.82C78.6169 8.99 78.2819 9.235 77.9219 9.555V13.38C78.2519 13.66 78.5719 13.86 78.8819 13.98C79.1919 14.09 79.4669 14.145 79.7069 14.145ZM87.1422 15.18C86.3622 15.18 85.7922 14.94 85.4322 14.46C85.0822 13.98 84.9072 13.27 84.9072 12.33V7.71H86.1522V12.165C86.1522 12.855 86.2572 13.355 86.4672 13.665C86.6872 13.965 87.0372 14.115 87.5172 14.115C87.8972 14.115 88.2322 14.02 88.5222 13.83C88.8122 13.63 89.1322 13.315 89.4822 12.885V7.71H90.7122V15H89.6922L89.5872 13.86H89.5422C89.2022 14.26 88.8422 14.58 88.4622 14.82C88.0922 15.06 87.6522 15.18 87.1422 15.18ZM87.8622 6.69C87.3522 6.69 86.9472 6.55 86.6472 6.27C86.3572 5.99 86.2122 5.635 86.2122 5.205C86.2122 4.785 86.3572 4.435 86.6472 4.155C86.9472 3.875 87.3522 3.735 87.8622 3.735C88.3722 3.735 88.7722 3.875 89.0622 4.155C89.3622 4.435 89.5122 4.785 89.5122 5.205C89.5122 5.635 89.3622 5.99 89.0622 6.27C88.7722 6.55 88.3722 6.69 87.8622 6.69ZM87.8622 6.135C88.1022 6.135 88.3022 6.055 88.4622 5.895C88.6322 5.725 88.7172 5.495 88.7172 5.205C88.7172 4.925 88.6322 4.705 88.4622 4.545C88.3022 4.375 88.1022 4.29 87.8622 4.29C87.6222 4.29 87.4172 4.375 87.2472 4.545C87.0872 4.705 87.0072 4.925 87.0072 5.205C87.0072 5.495 87.0872 5.725 87.2472 5.895C87.4172 6.055 87.6222 6.135 87.8622 6.135ZM94.7464 15L92.1214 7.71H93.3964L94.7764 11.85C94.8864 12.21 94.9964 12.57 95.1064 12.93C95.2264 13.29 95.3414 13.645 95.4514 13.995H95.5114C95.6214 13.645 95.7314 13.29 95.8414 12.93C95.9514 12.57 96.0614 12.21 96.1714 11.85L97.5514 7.71H98.7664L96.1864 15H94.7464ZM102.95 15.18C102.5 15.18 102.07 15.095 101.66 14.925C101.26 14.755 100.905 14.51 100.595 14.19C100.285 13.86 100.035 13.46 99.8448 12.99C99.6648 12.51 99.5748 11.97 99.5748 11.37C99.5748 10.76 99.6648 10.22 99.8448 9.75C100.035 9.27 100.285 8.865 100.595 8.535C100.905 8.205 101.26 7.955 101.66 7.785C102.07 7.615 102.5 7.53 102.95 7.53C103.4 7.53 103.825 7.615 104.225 7.785C104.635 7.955 104.995 8.205 105.305 8.535C105.615 8.865 105.86 9.27 106.04 9.75C106.23 10.22 106.325 10.76 106.325 11.37C106.325 11.97 106.23 12.51 106.04 12.99C105.86 13.46 105.615 13.86 105.305 14.19C104.995 14.51 104.635 14.755 104.225 14.925C103.825 15.095 103.4 15.18 102.95 15.18ZM102.95 14.16C103.26 14.16 103.545 14.095 103.805 13.965C104.065 13.825 104.285 13.635 104.465 13.395C104.655 13.145 104.8 12.85 104.9 12.51C105 12.17 105.05 11.79 105.05 11.37C105.05 10.95 105 10.57 104.9 10.23C104.8 9.88 104.655 9.58 104.465 9.33C104.285 9.08 104.065 8.89 103.805 8.76C103.545 8.62 103.26 8.55 102.95 8.55C102.64 8.55 102.355 8.62 102.095 8.76C101.835 8.89 101.61 9.08 101.42 9.33C101.24 9.58 101.1 9.88 101 10.23C100.9 10.57 100.85 10.95 100.85 11.37C100.85 11.79 100.9 12.17 101 12.51C101.1 12.85 101.24 13.145 101.42 13.395C101.61 13.635 101.835 13.825 102.095 13.965C102.355 14.095 102.64 14.16 102.95 14.16ZM110.735 15.18C109.815 15.18 109.08 14.85 108.53 14.19C107.99 13.53 107.72 12.59 107.72 11.37C107.72 10.78 107.805 10.25 107.975 9.78C108.155 9.3 108.39 8.895 108.68 8.565C108.97 8.235 109.305 7.98 109.685 7.8C110.065 7.62 110.465 7.53 110.885 7.53C111.305 7.53 111.67 7.605 111.98 7.755C112.29 7.905 112.605 8.11 112.925 8.37L112.865 7.125V4.32H114.11V15H113.09L112.985 14.145H112.94C112.65 14.425 112.315 14.67 111.935 14.88C111.565 15.08 111.165 15.18 110.735 15.18ZM111.005 14.145C111.345 14.145 111.665 14.065 111.965 13.905C112.265 13.735 112.565 13.48 112.865 13.14V9.33C112.555 9.05 112.255 8.855 111.965 8.745C111.685 8.625 111.395 8.565 111.095 8.565C110.805 8.565 110.53 8.635 110.27 8.775C110.02 8.905 109.8 9.095 109.61 9.345C109.42 9.585 109.27 9.875 109.16 10.215C109.05 10.555 108.995 10.935 108.995 11.355C108.995 12.235 109.17 12.92 109.52 13.41C109.87 13.9 110.365 14.145 111.005 14.145ZM116.565 15V7.71H117.585L117.69 8.76H117.735C118.085 8.41 118.45 8.12 118.83 7.89C119.22 7.65 119.67 7.53 120.18 7.53C120.95 7.53 121.51 7.77 121.86 8.25C122.22 8.73 122.4 9.44 122.4 10.38V15H121.17V10.545C121.17 9.855 121.06 9.36 120.84 9.06C120.62 8.75 120.27 8.595 119.79 8.595C119.41 8.595 119.075 8.69 118.785 8.88C118.495 9.07 118.165 9.35 117.795 9.72V15H116.565ZM124.768 15V7.71H125.998V15H124.768ZM125.173 6.405L124.543 5.79L126.658 3.285L127.528 4.11L125.173 6.405ZM134.342 15.18C133.862 15.18 133.412 15.095 132.992 14.925C132.572 14.755 132.207 14.51 131.897 14.19C131.597 13.86 131.357 13.46 131.177 12.99C131.007 12.51 130.922 11.97 130.922 11.37C130.922 10.76 131.017 10.22 131.207 9.75C131.397 9.27 131.652 8.865 131.972 8.535C132.292 8.205 132.662 7.955 133.082 7.785C133.512 7.615 133.962 7.53 134.432 7.53C134.912 7.53 135.322 7.615 135.662 7.785C136.002 7.955 136.302 8.155 136.562 8.385L135.932 9.195C135.722 9.005 135.497 8.85 135.257 8.73C135.027 8.61 134.767 8.55 134.477 8.55C134.147 8.55 133.842 8.62 133.562 8.76C133.282 8.89 133.042 9.08 132.842 9.33C132.642 9.58 132.482 9.88 132.362 10.23C132.252 10.57 132.197 10.95 132.197 11.37C132.197 11.79 132.252 12.17 132.362 12.51C132.472 12.85 132.622 13.145 132.812 13.395C133.012 13.635 133.252 13.825 133.532 13.965C133.812 14.095 134.117 14.16 134.447 14.16C134.787 14.16 135.097 14.09 135.377 13.95C135.667 13.8 135.927 13.625 136.157 13.425L136.697 14.25C136.367 14.54 136.002 14.77 135.602 14.94C135.202 15.1 134.782 15.18 134.342 15.18ZM140.936 15.18C140.446 15.18 139.986 15.095 139.556 14.925C139.136 14.745 138.766 14.495 138.446 14.175C138.136 13.845 137.891 13.445 137.711 12.975C137.531 12.505 137.441 11.97 137.441 11.37C137.441 10.77 137.531 10.235 137.711 9.765C137.901 9.285 138.146 8.88 138.446 8.55C138.756 8.22 139.106 7.97 139.496 7.8C139.886 7.62 140.291 7.53 140.711 7.53C141.171 7.53 141.581 7.61 141.941 7.77C142.311 7.93 142.616 8.16 142.856 8.46C143.106 8.76 143.296 9.12 143.426 9.54C143.556 9.96 143.621 10.43 143.621 10.95C143.621 11.08 143.616 11.21 143.606 11.34C143.606 11.46 143.596 11.565 143.576 11.655H138.656C138.706 12.435 138.946 13.055 139.376 13.515C139.816 13.965 140.386 14.19 141.086 14.19C141.436 14.19 141.756 14.14 142.046 14.04C142.346 13.93 142.631 13.79 142.901 13.62L143.336 14.43C143.016 14.63 142.661 14.805 142.271 14.955C141.881 15.105 141.436 15.18 140.936 15.18ZM138.641 10.77H142.541C142.541 10.03 142.381 9.47 142.061 9.09C141.751 8.7 141.311 8.505 140.741 8.505C140.481 8.505 140.231 8.555 139.991 8.655C139.761 8.755 139.551 8.905 139.361 9.105C139.171 9.295 139.011 9.53 138.881 9.81C138.761 10.09 138.681 10.41 138.641 10.77ZM145.422 15V7.71H146.442L146.547 8.76H146.592C146.942 8.41 147.307 8.12 147.687 7.89C148.077 7.65 148.527 7.53 149.037 7.53C149.807 7.53 150.367 7.77 150.717 8.25C151.077 8.73 151.257 9.44 151.257 10.38V15H150.027V10.545C150.027 9.855 149.917 9.36 149.697 9.06C149.477 8.75 149.127 8.595 148.647 8.595C148.267 8.595 147.932 8.69 147.642 8.88C147.352 9.07 147.022 9.35 146.652 9.72V15H145.422ZM155.306 15.18C154.696 15.18 154.186 15 153.776 14.64C153.376 14.28 153.176 13.77 153.176 13.11C153.176 12.31 153.531 11.7 154.241 11.28C154.951 10.85 156.086 10.55 157.646 10.38C157.646 10.15 157.621 9.925 157.571 9.705C157.531 9.485 157.456 9.29 157.346 9.12C157.236 8.95 157.081 8.815 156.881 8.715C156.691 8.605 156.446 8.55 156.146 8.55C155.726 8.55 155.331 8.63 154.961 8.79C154.591 8.95 154.261 9.13 153.971 9.33L153.491 8.475C153.831 8.255 154.246 8.045 154.736 7.845C155.226 7.635 155.766 7.53 156.356 7.53C157.246 7.53 157.891 7.805 158.291 8.355C158.691 8.895 158.891 9.62 158.891 10.53V15H157.871L157.766 14.13H157.721C157.371 14.42 156.996 14.67 156.596 14.88C156.196 15.08 155.766 15.18 155.306 15.18ZM155.666 14.19C156.016 14.19 156.346 14.11 156.656 13.95C156.966 13.78 157.296 13.535 157.646 13.215V11.19C157.036 11.27 156.521 11.365 156.101 11.475C155.691 11.585 155.356 11.715 155.096 11.865C154.846 12.015 154.661 12.19 154.541 12.39C154.431 12.58 154.376 12.79 154.376 13.02C154.376 13.44 154.501 13.74 154.751 13.92C155.001 14.1 155.306 14.19 155.666 14.19Z" fill="#4A4040"/>
<rect x="188" y="4" width="12" height="12" rx="2" fill="#FF8787"/>
<path d="M207.35 15V5.16H210.155C210.705 5.16 211.205 5.21 211.655 5.31C212.115 5.41 212.505 5.575 212.825 5.805C213.145 6.025 213.395 6.32 213.575 6.69C213.755 7.06 213.845 7.515 213.845 8.055C213.845 8.575 213.755 9.025 213.575 9.405C213.405 9.785 213.16 10.1 212.84 10.35C212.52 10.6 212.135 10.79 211.685 10.92C211.245 11.04 210.755 11.1 210.215 11.1H208.595V15H207.35ZM208.595 10.08H210.065C210.925 10.08 211.56 9.92 211.97 9.6C212.39 9.27 212.6 8.755 212.6 8.055C212.6 7.345 212.38 6.855 211.94 6.585C211.51 6.305 210.865 6.165 210.005 6.165H208.595V10.08ZM215.726 15V7.71H216.746L216.851 9.03H216.896C217.146 8.57 217.446 8.205 217.796 7.935C218.156 7.665 218.546 7.53 218.966 7.53C219.256 7.53 219.516 7.58 219.746 7.68L219.506 8.76C219.386 8.72 219.276 8.69 219.176 8.67C219.076 8.65 218.951 8.64 218.801 8.64C218.491 8.64 218.166 8.765 217.826 9.015C217.496 9.265 217.206 9.7 216.956 10.32V15H215.726ZM223.615 15.18C223.165 15.18 222.735 15.095 222.325 14.925C221.925 14.755 221.57 14.51 221.26 14.19C220.95 13.86 220.7 13.46 220.51 12.99C220.33 12.51 220.24 11.97 220.24 11.37C220.24 10.76 220.33 10.22 220.51 9.75C220.7 9.27 220.95 8.865 221.26 8.535C221.57 8.205 221.925 7.955 222.325 7.785C222.735 7.615 223.165 7.53 223.615 7.53C224.065 7.53 224.49 7.615 224.89 7.785C225.3 7.955 225.66 8.205 225.97 8.535C226.28 8.865 226.525 9.27 226.705 9.75C226.895 10.22 226.99 10.76 226.99 11.37C226.99 11.97 226.895 12.51 226.705 12.99C226.525 13.46 226.28 13.86 225.97 14.19C225.66 14.51 225.3 14.755 224.89 14.925C224.49 15.095 224.065 15.18 223.615 15.18ZM223.615 14.16C223.925 14.16 224.21 14.095 224.47 13.965C224.73 13.825 224.95 13.635 225.13 13.395C225.32 13.145 225.465 12.85 225.565 12.51C225.665 12.17 225.715 11.79 225.715 11.37C225.715 10.95 225.665 10.57 225.565 10.23C225.465 9.88 225.32 9.58 225.13 9.33C224.95 9.08 224.73 8.89 224.47 8.76C224.21 8.62 223.925 8.55 223.615 8.55C223.305 8.55 223.02 8.62 222.76 8.76C222.5 8.89 222.275 9.08 222.085 9.33C221.905 9.58 221.765 9.88 221.665 10.23C221.565 10.57 221.515 10.95 221.515 11.37C221.515 11.79 221.565 12.17 221.665 12.51C221.765 12.85 221.905 13.145 222.085 13.395C222.275 13.635 222.5 13.825 222.76 13.965C223.02 14.095 223.305 14.16 223.615 14.16ZM231.4 15.18C230.48 15.18 229.745 14.85 229.195 14.19C228.655 13.53 228.385 12.59 228.385 11.37C228.385 10.78 228.47 10.25 228.64 9.78C228.82 9.3 229.055 8.895 229.345 8.565C229.635 8.235 229.97 7.98 230.35 7.8C230.73 7.62 231.13 7.53 231.55 7.53C231.97 7.53 232.335 7.605 232.645 7.755C232.955 7.905 233.27 8.11 233.59 8.37L233.53 7.125V4.32H234.775V15H233.755L233.65 14.145H233.605C233.315 14.425 232.98 14.67 232.6 14.88C232.23 15.08 231.83 15.18 231.4 15.18ZM231.67 14.145C232.01 14.145 232.33 14.065 232.63 13.905C232.93 13.735 233.23 13.48 233.53 13.14V9.33C233.22 9.05 232.92 8.855 232.63 8.745C232.35 8.625 232.06 8.565 231.76 8.565C231.47 8.565 231.195 8.635 230.935 8.775C230.685 8.905 230.465 9.095 230.275 9.345C230.085 9.585 229.935 9.875 229.825 10.215C229.715 10.555 229.66 10.935 229.66 11.355C229.66 12.235 229.835 12.92 230.185 13.41C230.535 13.9 231.03 14.145 231.67 14.145ZM240.185 15.18C239.695 15.18 239.235 15.095 238.805 14.925C238.385 14.745 238.015 14.495 237.695 14.175C237.385 13.845 237.14 13.445 236.96 12.975C236.78 12.505 236.69 11.97 236.69 11.37C236.69 10.77 236.78 10.235 236.96 9.765C237.15 9.285 237.395 8.88 237.695 8.55C238.005 8.22 238.355 7.97 238.745 7.8C239.135 7.62 239.54 7.53 239.96 7.53C240.42 7.53 240.83 7.61 241.19 7.77C241.56 7.93 241.865 8.16 242.105 8.46C242.355 8.76 242.545 9.12 242.675 9.54C242.805 9.96 242.87 10.43 242.87 10.95C242.87 11.08 242.865 11.21 242.855 11.34C242.855 11.46 242.845 11.565 242.825 11.655H237.905C237.955 12.435 238.195 13.055 238.625 13.515C239.065 13.965 239.635 14.19 240.335 14.19C240.685 14.19 241.005 14.14 241.295 14.04C241.595 13.93 241.88 13.79 242.15 13.62L242.585 14.43C242.265 14.63 241.91 14.805 241.52 14.955C241.13 15.105 240.685 15.18 240.185 15.18ZM237.89 10.77H241.79C241.79 10.03 241.63 9.47 241.31 9.09C241 8.7 240.56 8.505 239.99 8.505C239.73 8.505 239.48 8.555 239.24 8.655C239.01 8.755 238.8 8.905 238.61 9.105C238.42 9.295 238.26 9.53 238.13 9.81C238.01 10.09 237.93 10.41 237.89 10.77ZM243.921 18.255C243.691 18.255 243.486 18.235 243.306 18.195C243.126 18.155 242.971 18.11 242.841 18.06L243.096 17.13C243.186 17.16 243.291 17.185 243.411 17.205C243.531 17.235 243.656 17.25 243.786 17.25C244.146 17.25 244.386 17.125 244.506 16.875C244.626 16.625 244.686 16.275 244.686 15.825V7.71H245.916V15.825C245.916 16.565 245.766 17.155 245.466 17.595C245.166 18.035 244.651 18.255 243.921 18.255ZM245.316 6.21C245.076 6.21 244.871 6.135 244.701 5.985C244.541 5.835 244.461 5.645 244.461 5.415C244.461 5.175 244.541 4.985 244.701 4.845C244.871 4.695 245.076 4.62 245.316 4.62C245.546 4.62 245.741 4.695 245.901 4.845C246.071 4.985 246.156 5.175 246.156 5.415C246.156 5.645 246.071 5.835 245.901 5.985C245.741 6.135 245.546 6.21 245.316 6.21ZM248.377 15V7.71H249.397L249.502 8.76H249.547C249.897 8.41 250.262 8.12 250.642 7.89C251.032 7.65 251.482 7.53 251.992 7.53C252.762 7.53 253.322 7.77 253.672 8.25C254.032 8.73 254.212 9.44 254.212 10.38V15H252.982V10.545C252.982 9.855 252.872 9.36 252.652 9.06C252.432 8.75 252.082 8.595 251.602 8.595C251.222 8.595 250.887 8.69 250.597 8.88C250.307 9.07 249.977 9.35 249.607 9.72V15H248.377ZM256.581 15V7.71H257.811V15H256.581ZM256.986 6.405L256.356 5.79L258.471 3.285L259.341 4.11L256.986 6.405ZM266.155 15.18C265.675 15.18 265.225 15.095 264.805 14.925C264.385 14.755 264.02 14.51 263.71 14.19C263.41 13.86 263.17 13.46 262.99 12.99C262.82 12.51 262.735 11.97 262.735 11.37C262.735 10.76 262.83 10.22 263.02 9.75C263.21 9.27 263.465 8.865 263.785 8.535C264.105 8.205 264.475 7.955 264.895 7.785C265.325 7.615 265.775 7.53 266.245 7.53C266.725 7.53 267.135 7.615 267.475 7.785C267.815 7.955 268.115 8.155 268.375 8.385L267.745 9.195C267.535 9.005 267.31 8.85 267.07 8.73C266.84 8.61 266.58 8.55 266.29 8.55C265.96 8.55 265.655 8.62 265.375 8.76C265.095 8.89 264.855 9.08 264.655 9.33C264.455 9.58 264.295 9.88 264.175 10.23C264.065 10.57 264.01 10.95 264.01 11.37C264.01 11.79 264.065 12.17 264.175 12.51C264.285 12.85 264.435 13.145 264.625 13.395C264.825 13.635 265.065 13.825 265.345 13.965C265.625 14.095 265.93 14.16 266.26 14.16C266.6 14.16 266.91 14.09 267.19 13.95C267.48 13.8 267.74 13.625 267.97 13.425L268.51 14.25C268.18 14.54 267.815 14.77 267.415 14.94C267.015 15.1 266.595 15.18 266.155 15.18ZM272.748 15.18C272.258 15.18 271.798 15.095 271.368 14.925C270.948 14.745 270.578 14.495 270.258 14.175C269.948 13.845 269.703 13.445 269.523 12.975C269.343 12.505 269.253 11.97 269.253 11.37C269.253 10.77 269.343 10.235 269.523 9.765C269.713 9.285 269.958 8.88 270.258 8.55C270.568 8.22 270.918 7.97 271.308 7.8C271.698 7.62 272.103 7.53 272.523 7.53C272.983 7.53 273.393 7.61 273.753 7.77C274.123 7.93 274.428 8.16 274.668 8.46C274.918 8.76 275.108 9.12 275.238 9.54C275.368 9.96 275.433 10.43 275.433 10.95C275.433 11.08 275.428 11.21 275.418 11.34C275.418 11.46 275.408 11.565 275.388 11.655H270.468C270.518 12.435 270.758 13.055 271.188 13.515C271.628 13.965 272.198 14.19 272.898 14.19C273.248 14.19 273.568 14.14 273.858 14.04C274.158 13.93 274.443 13.79 274.713 13.62L275.148 14.43C274.828 14.63 274.473 14.805 274.083 14.955C273.693 15.105 273.248 15.18 272.748 15.18ZM270.453 10.77H274.353C274.353 10.03 274.193 9.47 273.873 9.09C273.563 8.7 273.123 8.505 272.553 8.505C272.293 8.505 272.043 8.555 271.803 8.655C271.573 8.755 271.363 8.905 271.173 9.105C270.983 9.295 270.823 9.53 270.693 9.81C270.573 10.09 270.493 10.41 270.453 10.77ZM277.235 15V7.71H278.255L278.36 8.76H278.405C278.755 8.41 279.12 8.12 279.5 7.89C279.89 7.65 280.34 7.53 280.85 7.53C281.62 7.53 282.18 7.77 282.53 8.25C282.89 8.73 283.07 9.44 283.07 10.38V15H281.84V10.545C281.84 9.855 281.73 9.36 281.51 9.06C281.29 8.75 280.94 8.595 280.46 8.595C280.08 8.595 279.745 8.69 279.455 8.88C279.165 9.07 278.835 9.35 278.465 9.72V15H277.235ZM287.118 15.18C286.508 15.18 285.998 15 285.588 14.64C285.188 14.28 284.988 13.77 284.988 13.11C284.988 12.31 285.343 11.7 286.053 11.28C286.763 10.85 287.898 10.55 289.458 10.38C289.458 10.15 289.433 9.925 289.383 9.705C289.343 9.485 289.268 9.29 289.158 9.12C289.048 8.95 288.893 8.815 288.693 8.715C288.503 8.605 288.258 8.55 287.958 8.55C287.538 8.55 287.143 8.63 286.773 8.79C286.403 8.95 286.073 9.13 285.783 9.33L285.303 8.475C285.643 8.255 286.058 8.045 286.548 7.845C287.038 7.635 287.578 7.53 288.168 7.53C289.058 7.53 289.703 7.805 290.103 8.355C290.503 8.895 290.703 9.62 290.703 10.53V15H289.683L289.578 14.13H289.533C289.183 14.42 288.808 14.67 288.408 14.88C288.008 15.08 287.578 15.18 287.118 15.18ZM287.478 14.19C287.828 14.19 288.158 14.11 288.468 13.95C288.778 13.78 289.108 13.535 289.458 13.215V11.19C288.848 11.27 288.333 11.365 287.913 11.475C287.503 11.585 287.168 11.715 286.908 11.865C286.658 12.015 286.473 12.19 286.353 12.39C286.243 12.58 286.188 12.79 286.188 13.02C286.188 13.44 286.313 13.74 286.563 13.92C286.813 14.1 287.118 14.19 287.478 14.19Z" fill="#4A4040"/>
<g filter="url(#filter0_d)">
<rect x="135" y="87" width="87" height="22" rx="11" fill="white"/>
</g>
<path d="M149.876 102.144C149.476 102.144 149.1 102.088 148.748 101.976C148.404 101.856 148.104 101.664 147.848 101.4C147.6 101.128 147.404 100.776 147.26 100.344C147.116 99.912 147.044 99.38 147.044 98.748V94.128H148.04V98.772C148.04 99.244 148.088 99.64 148.184 99.96C148.28 100.28 148.408 100.536 148.568 100.728C148.736 100.92 148.932 101.06 149.156 101.148C149.38 101.228 149.62 101.268 149.876 101.268C150.14 101.268 150.384 101.228 150.608 101.148C150.832 101.06 151.028 100.92 151.196 100.728C151.364 100.536 151.496 100.28 151.592 99.96C151.688 99.64 151.736 99.244 151.736 98.772V94.128H152.696V98.748C152.696 99.38 152.624 99.912 152.48 100.344C152.336 100.776 152.136 101.128 151.88 101.4C151.632 101.664 151.336 101.856 150.992 101.976C150.648 102.088 150.276 102.144 149.876 102.144ZM154.718 102V93.456H155.69V99.24H155.726L158.21 96.168H159.302L157.346 98.508L159.566 102H158.486L156.782 99.192L155.69 100.464V102H154.718ZM161.887 102.144C161.399 102.144 160.991 102 160.663 101.712C160.343 101.424 160.183 101.016 160.183 100.488C160.183 99.848 160.467 99.36 161.035 99.024C161.603 98.68 162.511 98.44 163.759 98.304C163.759 98.12 163.739 97.94 163.699 97.764C163.667 97.588 163.607 97.432 163.519 97.296C163.431 97.16 163.307 97.052 163.147 96.972C162.995 96.884 162.799 96.84 162.559 96.84C162.223 96.84 161.907 96.904 161.611 97.032C161.315 97.16 161.051 97.304 160.819 97.464L160.435 96.78C160.707 96.604 161.039 96.436 161.431 96.276C161.823 96.108 162.255 96.024 162.727 96.024C163.439 96.024 163.955 96.244 164.275 96.684C164.595 97.116 164.755 97.696 164.755 98.424V102H163.939L163.855 101.304H163.819C163.539 101.536 163.239 101.736 162.919 101.904C162.599 102.064 162.255 102.144 161.887 102.144ZM162.175 101.352C162.455 101.352 162.719 101.288 162.967 101.16C163.215 101.024 163.479 100.828 163.759 100.572V98.952C163.271 99.016 162.859 99.092 162.523 99.18C162.195 99.268 161.927 99.372 161.719 99.492C161.519 99.612 161.371 99.752 161.275 99.912C161.187 100.064 161.143 100.232 161.143 100.416C161.143 100.752 161.243 100.992 161.443 101.136C161.643 101.28 161.887 101.352 162.175 101.352ZM162.535 95.124L162.031 94.632L163.723 92.628L164.419 93.288L162.535 95.124ZM165.977 102V101.472L169.049 96.972H166.313V96.168H170.297V96.696L167.225 101.196H170.393V102H165.977ZM171.687 102V93.456H172.659V99.24H172.695L175.179 96.168H176.271L174.315 98.508L176.535 102H175.455L173.751 99.192L172.659 100.464V102H171.687ZM178.855 102.144C178.367 102.144 177.959 102 177.631 101.712C177.311 101.424 177.151 101.016 177.151 100.488C177.151 99.848 177.435 99.36 178.003 99.024C178.571 98.68 179.479 98.44 180.727 98.304C180.727 98.12 180.707 97.94 180.667 97.764C180.635 97.588 180.575 97.432 180.487 97.296C180.399 97.16 180.275 97.052 180.115 96.972C179.963 96.884 179.767 96.84 179.527 96.84C179.191 96.84 178.875 96.904 178.579 97.032C178.283 97.16 178.019 97.304 177.787 97.464L177.403 96.78C177.675 96.604 178.007 96.436 178.399 96.276C178.791 96.108 179.223 96.024 179.695 96.024C180.407 96.024 180.923 96.244 181.243 96.684C181.563 97.116 181.723 97.696 181.723 98.424V102H180.907L180.823 101.304H180.787C180.507 101.536 180.207 101.736 179.887 101.904C179.567 102.064 179.223 102.144 178.855 102.144ZM179.143 101.352C179.423 101.352 179.687 101.288 179.935 101.16C180.183 101.024 180.447 100.828 180.727 100.572V98.952C180.239 99.016 179.827 99.092 179.491 99.18C179.163 99.268 178.895 99.372 178.687 99.492C178.487 99.612 178.339 99.752 178.243 99.912C178.155 100.064 178.111 100.232 178.111 100.416C178.111 100.752 178.211 100.992 178.411 101.136C178.611 101.28 178.855 101.352 179.143 101.352ZM187.929 104.688C187.569 104.688 187.241 104.652 186.945 104.58C186.649 104.516 186.393 104.416 186.177 104.28C185.969 104.144 185.805 103.98 185.685 103.788C185.573 103.596 185.517 103.372 185.517 103.116C185.517 102.868 185.593 102.632 185.745 102.408C185.897 102.184 186.105 101.98 186.369 101.796V101.748C186.225 101.66 186.101 101.54 185.997 101.388C185.901 101.228 185.853 101.032 185.853 100.8C185.853 100.552 185.921 100.336 186.057 100.152C186.193 99.968 186.337 99.824 186.489 99.72V99.672C186.297 99.512 186.121 99.3 185.961 99.036C185.809 98.764 185.733 98.452 185.733 98.1C185.733 97.78 185.789 97.492 185.901 97.236C186.021 96.98 186.181 96.764 186.381 96.588C186.581 96.404 186.813 96.264 187.077 96.168C187.349 96.072 187.633 96.024 187.929 96.024C188.089 96.024 188.237 96.04 188.373 96.072C188.517 96.096 188.645 96.128 188.757 96.168H190.785V96.924H189.585C189.721 97.06 189.833 97.232 189.921 97.44C190.017 97.648 190.065 97.876 190.065 98.124C190.065 98.436 190.009 98.72 189.897 98.976C189.785 99.224 189.633 99.436 189.441 99.612C189.249 99.78 189.021 99.912 188.757 100.008C188.501 100.104 188.225 100.152 187.929 100.152C187.785 100.152 187.637 100.136 187.485 100.104C187.333 100.064 187.189 100.012 187.053 99.948C186.949 100.036 186.861 100.136 186.789 100.248C186.717 100.352 186.681 100.484 186.681 100.644C186.681 100.828 186.753 100.98 186.897 101.1C187.041 101.22 187.313 101.28 187.713 101.28H188.841C189.521 101.28 190.029 101.392 190.365 101.616C190.709 101.832 190.881 102.184 190.881 102.672C190.881 102.944 190.813 103.2 190.677 103.44C190.541 103.688 190.345 103.904 190.089 104.088C189.833 104.272 189.521 104.416 189.153 104.52C188.793 104.632 188.385 104.688 187.929 104.688ZM187.929 99.492C188.097 99.492 188.253 99.46 188.397 99.396C188.549 99.332 188.681 99.24 188.793 99.12C188.913 99 189.005 98.856 189.069 98.688C189.133 98.512 189.165 98.316 189.165 98.1C189.165 97.668 189.045 97.336 188.805 97.104C188.565 96.864 188.273 96.744 187.929 96.744C187.585 96.744 187.293 96.864 187.053 97.104C186.813 97.336 186.693 97.668 186.693 98.1C186.693 98.316 186.725 98.512 186.789 98.688C186.853 98.856 186.941 99 187.053 99.12C187.173 99.24 187.305 99.332 187.449 99.396C187.601 99.46 187.761 99.492 187.929 99.492ZM188.073 104.004C188.353 104.004 188.605 103.968 188.829 103.896C189.061 103.832 189.257 103.744 189.417 103.632C189.577 103.528 189.701 103.404 189.789 103.26C189.877 103.116 189.921 102.968 189.921 102.816C189.921 102.544 189.821 102.356 189.621 102.252C189.421 102.148 189.129 102.096 188.745 102.096H187.737C187.625 102.096 187.501 102.088 187.365 102.072C187.237 102.064 187.109 102.04 186.981 102C186.773 102.152 186.621 102.312 186.525 102.48C186.429 102.648 186.381 102.816 186.381 102.984C186.381 103.296 186.529 103.544 186.825 103.728C187.129 103.912 187.545 104.004 188.073 104.004ZM192.007 102V96.168H192.823L192.907 97.224H192.943C193.143 96.856 193.383 96.564 193.663 96.348C193.951 96.132 194.263 96.024 194.599 96.024C194.831 96.024 195.039 96.064 195.223 96.144L195.031 97.008C194.935 96.976 194.847 96.952 194.767 96.936C194.687 96.92 194.587 96.912 194.467 96.912C194.219 96.912 193.959 97.012 193.687 97.212C193.423 97.412 193.191 97.76 192.991 98.256V102H192.007ZM197.219 102.144C196.731 102.144 196.323 102 195.995 101.712C195.675 101.424 195.515 101.016 195.515 100.488C195.515 99.848 195.799 99.36 196.367 99.024C196.935 98.68 197.843 98.44 199.091 98.304C199.091 98.12 199.071 97.94 199.031 97.764C198.999 97.588 198.939 97.432 198.851 97.296C198.763 97.16 198.639 97.052 198.479 96.972C198.327 96.884 198.131 96.84 197.891 96.84C197.555 96.84 197.239 96.904 196.943 97.032C196.647 97.16 196.383 97.304 196.151 97.464L195.767 96.78C196.039 96.604 196.371 96.436 196.763 96.276C197.155 96.108 197.587 96.024 198.059 96.024C198.771 96.024 199.287 96.244 199.607 96.684C199.927 97.116 200.087 97.696 200.087 98.424V102H199.271L199.187 101.304H199.151C198.871 101.536 198.571 101.736 198.251 101.904C197.931 102.064 197.587 102.144 197.219 102.144ZM197.507 101.352C197.787 101.352 198.051 101.288 198.299 101.16C198.547 101.024 198.811 100.828 199.091 100.572V98.952C198.603 99.016 198.191 99.092 197.855 99.18C197.527 99.268 197.259 99.372 197.051 99.492C196.851 99.612 196.703 99.752 196.607 99.912C196.519 100.064 196.475 100.232 196.475 100.416C196.475 100.752 196.575 100.992 196.775 101.136C196.975 101.28 197.219 101.352 197.507 101.352ZM202.09 102V96.972H201.298V96.228L202.09 96.168V95.244C202.09 94.644 202.226 94.172 202.498 93.828C202.778 93.484 203.21 93.312 203.794 93.312C203.978 93.312 204.15 93.332 204.31 93.372C204.478 93.404 204.63 93.448 204.766 93.504L204.55 94.26C204.334 94.164 204.114 94.116 203.89 94.116C203.346 94.116 203.074 94.492 203.074 95.244V96.168H204.31V96.972H203.074V102H202.09ZM207.129 102.144C206.505 102.144 206.049 101.952 205.761 101.568C205.481 101.184 205.341 100.616 205.341 99.864V96.168H206.337V99.732C206.337 100.284 206.421 100.684 206.589 100.932C206.765 101.172 207.045 101.292 207.429 101.292C207.733 101.292 208.001 101.216 208.233 101.064C208.465 100.904 208.721 100.652 209.001 100.308V96.168H209.985V102H209.169L209.085 101.088H209.049C208.777 101.408 208.489 101.664 208.185 101.856C207.889 102.048 207.537 102.144 207.129 102.144Z" fill="#757575"/>
<defs>
<filter id="filter0_d" x="115" y="87" width="127" height="62" filterUnits="userSpaceOnUse" color-interpolation-filters="sRGB">
<feFlood flood-opacity="0" result="BackgroundImageFix"/>
<feColorMatrix in="SourceAlpha" type="matrix" values="0 0 0 0 0 0 0 0 0 0 0 0 0 0 0 0 0 0 127 0"/>
<feOffset dy="20"/>
<feGaussianBlur stdDeviation="10"/>
<feColorMatrix type="matrix" values="0 0 0 0 0 0 0 0 0 0 0 0 0 0 0 0 0 0 0.06 0"/>
<feBlend mode="normal" in2="BackgroundImageFix" result="effect1_dropShadow"/>
<feBlend mode="normal" in="SourceGraphic" in2="effect1_dropShadow" result="shape"/>
</filter>
<linearGradient id="paint0_linear" x1="115.158" y1="82.6694" x2="115.158" y2="185.385" gradientUnits="userSpaceOnUse">
<stop stop-color="#5C62CD"/>
<stop offset="1" stop-color="white" stop-opacity="0"/>
</linearGradient>
<linearGradient id="paint1_linear" x1="176.5" y1="39" x2="176.5" y2="186" gradientUnits="userSpaceOnUse">
<stop stop-color="#EB6F55"/>
<stop offset="1" stop-color="white" stop-opacity="0"/>
</linearGradient>
</defs>
</svg>
