<svg width="240" height="38" viewBox="0 0 240 38" fill="none" xmlns="http://www.w3.org/2000/svg">
<g clip-path="url(#clip0)">
<path d="M56.687 9.67297V26.2069H61.007V19.8622H67.6877V26.2069H72.0077V9.67297H67.6877V16.4186H61.007V9.67297H56.687Z" fill="#5C62CD"/>
<path d="M75.3398 8.70593V26.2069H79.5418V8.70593H75.3398Z" fill="#5C62CD"/>
<path d="M85.4014 8.04553L82.8755 12.1024H86.0624L89.1548 9.36636L85.4014 8.04553ZM82.8755 13.4468V26.2069H87.0539V13.4468H82.8755Z" fill="#5C62CD"/>
<path d="M98.9632 8.70593V15.1214C98.0662 13.9657 96.7442 13.3052 95.0917 13.3052C91.5744 13.3052 89.2373 15.8761 89.2373 19.7679C89.2373 23.7303 91.598 26.372 95.1862 26.372C96.7914 26.372 98.0898 25.7352 98.9632 24.5559V26.2069H103.165V8.70593H98.9632ZM96.2248 23.0699C94.5724 23.0699 93.4629 21.7727 93.4629 19.8858C93.4629 17.9989 94.5724 16.7017 96.2248 16.7017C97.8537 16.7017 98.9632 17.9753 98.9632 19.8858C98.9632 21.7727 97.8537 23.0699 96.2248 23.0699Z" fill="#5C62CD"/>
<path d="M112.242 13.2817C110.141 13.2817 108.3 13.777 106.293 14.6733L107.45 17.5036C108.819 16.8432 110.212 16.4894 111.274 16.4894C112.88 16.4894 113.706 17.197 113.706 18.3999V18.5414H110.377C107.214 18.5886 105.491 19.9802 105.491 22.4095C105.491 24.7446 107.12 26.3956 109.858 26.3956C111.581 26.3956 112.88 25.8295 113.706 24.7682V26.2069H117.837V17.9046C117.813 14.9799 115.76 13.2817 112.242 13.2817ZM111.156 23.5417C110.07 23.5417 109.433 22.9756 109.433 22.1029C109.433 21.2066 110.023 20.7821 111.204 20.7821H113.706V21.8906C113.446 22.8577 112.407 23.5417 111.156 23.5417Z" fill="#5C62CD"/>
<path d="M121.18 8.23419L124.06 12.1495H127.695L130.575 8.23419H127.317L125.877 10.3805L124.437 8.23419H121.18ZM128.899 18.0932L131.944 16.3243C130.835 14.4138 128.805 13.3052 126.231 13.3052C122.266 13.3052 119.622 15.9233 119.622 19.8858C119.622 23.7775 122.242 26.3484 126.184 26.3484C128.899 26.3484 130.976 25.2398 131.991 23.2822L128.899 21.5132C128.38 22.5038 127.506 22.952 126.397 22.952C124.886 22.952 123.847 21.7255 123.847 19.8622C123.847 18.0225 124.886 16.7724 126.397 16.7724C127.483 16.7724 128.332 17.2677 128.899 18.0932Z" fill="#5C62CD"/>
<path d="M142.438 17.48L143.854 14.744C142.249 13.777 140.384 13.2581 138.543 13.2581C135.545 13.2581 133.302 14.7204 133.302 17.3856C133.302 21.7963 139.888 20.9236 139.888 22.669C139.888 23.1878 139.322 23.4473 138.543 23.4473C137.127 23.4473 135.474 22.8812 134.01 21.867L132.688 24.5794C134.247 25.7823 136.3 26.3956 138.448 26.3956C141.565 26.3956 143.854 24.9096 143.854 22.2916C143.878 17.8574 137.174 18.6593 137.174 16.9847C137.174 16.4422 137.669 16.1827 138.378 16.1827C139.416 16.1827 140.856 16.6545 142.438 17.48Z" fill="#5C62CD"/>
<path d="M154.657 13.2817C152.792 13.2817 151.329 14.06 150.431 15.5223V8.70593H146.229V26.2069H150.431V19.9094C150.431 18.2348 151.376 17.0555 152.934 17.0319C154.279 17.0319 155.106 17.9281 155.106 19.3669V26.2069H159.308V18.164C159.308 15.1686 157.466 13.2817 154.657 13.2817Z" fill="#5C62CD"/>
<path d="M168.058 13.3052C163.856 13.3052 161.094 15.8997 161.094 19.815C161.094 23.7539 163.856 26.3484 168.058 26.3484C172.26 26.3484 175.045 23.7539 175.045 19.815C175.045 15.8997 172.26 13.3052 168.058 13.3052ZM168.058 16.7017C169.71 16.7017 170.82 17.9753 170.82 19.8858C170.82 21.7727 169.71 23.0463 168.058 23.0463C166.429 23.0463 165.319 21.7727 165.319 19.8858C165.319 17.9753 166.429 16.7017 168.058 16.7017Z" fill="#5C62CD"/>
<path d="M185.26 13.3052C183.678 13.3052 182.404 13.9421 181.507 15.0978V13.4468H177.305V30.7826H181.507V24.5559C182.404 25.7116 183.726 26.3484 185.354 26.3484C188.895 26.3484 191.209 23.7775 191.209 19.8858C191.209 15.9233 188.825 13.3052 185.26 13.3052ZM184.221 22.952C182.616 22.952 181.507 21.6783 181.507 19.7914C181.507 17.9045 182.616 16.6073 184.221 16.6073C185.874 16.6073 186.983 17.9045 186.983 19.7914C186.983 21.6783 185.874 22.952 184.221 22.952Z" fill="#5C62CD"/>
<path d="M199.484 12.6448C201.066 12.6448 202.341 11.3712 202.341 9.8145C202.341 8.23423 201.066 6.96057 199.484 6.96057C197.903 6.96057 196.628 8.23423 196.628 9.8145C196.628 11.3712 197.903 12.6448 199.484 12.6448ZM199.484 8.63519C200.145 8.63519 200.688 9.15409 200.688 9.8145C200.688 10.4513 200.145 10.9702 199.484 10.9702C198.823 10.9702 198.281 10.4513 198.281 9.8145C198.281 9.15409 198.823 8.63519 199.484 8.63519ZM201.633 13.4468V19.7443C201.633 21.4189 200.736 22.5982 199.248 22.6218C197.997 22.6218 197.195 21.7491 197.195 20.3104V13.4468H192.993V21.5133C192.993 24.4851 194.787 26.3956 197.549 26.3956C199.366 26.372 200.759 25.6173 201.633 24.1313V26.2069H205.835V13.4468H201.633Z" fill="#5C62CD"/>
<path d="M210.321 22.3152C209.141 22.3152 208.314 23.1407 208.314 24.3436C208.314 25.5465 209.141 26.3956 210.321 26.3956C211.501 26.3956 212.351 25.5465 212.351 24.3436C212.351 23.1407 211.501 22.3152 210.321 22.3152Z" fill="#5C62CD"/>
<path d="M223.071 18.0932L226.117 16.3243C225.007 14.4138 222.977 13.3052 220.404 13.3052C216.438 13.3052 213.794 15.9233 213.794 19.8858C213.794 23.7775 216.414 26.3484 220.357 26.3484C223.071 26.3484 225.149 25.2399 226.164 23.2822L223.071 21.5132C222.552 22.5039 221.679 22.952 220.569 22.952C219.058 22.952 218.02 21.7255 218.02 19.8622C218.02 18.0225 219.058 16.7724 220.569 16.7724C221.655 16.7724 222.505 17.2677 223.071 18.0932Z" fill="#5C62CD"/>
<path d="M227.498 13.4468V16.6781H233.423L227.285 23.6596V26.2069H238.923V22.9992H232.549L238.687 16.0177V13.4704L227.498 13.4468Z" fill="#5C62CD"/>
<path fill-rule="evenodd" clip-rule="evenodd" d="M2.67336 10.721H36.6709C38.1474 10.721 39.3443 11.9335 39.3443 13.4027V15.1866C39.3443 16.6677 38.1453 17.8684 36.6709 17.8684H2.67336C1.1969 17.8684 0 16.6559 0 15.1866V13.4027C0 11.9217 1.19898 10.721 2.67336 10.721ZM1.78838 15.1866C1.78838 15.6759 2.19146 16.0815 2.67336 16.0815H36.6709C37.157 16.0815 37.5559 15.6816 37.5559 15.1866V13.4027C37.5559 12.9134 37.1528 12.5078 36.6709 12.5078H2.67336C2.18734 12.5078 1.78838 12.9078 1.78838 13.4027V15.1866Z" fill="#5C62CD"/>
<path fill-rule="evenodd" clip-rule="evenodd" d="M2.67336 11.5551H36.6709C38.1474 11.5551 39.3443 12.4442 39.3443 13.5217V14.8298C39.3443 15.916 38.1453 16.7965 36.6709 16.7965H2.67336C1.1969 16.7965 0 15.9073 0 14.8298V13.5217C0 12.4356 1.19898 11.5551 2.67336 11.5551Z" fill="#5C62CD"/>
<path fill-rule="evenodd" clip-rule="evenodd" d="M26.9158 33.9498H8.92944C7.02905 33.9498 5.21676 32.4879 4.80369 30.6306L1.80957 17.1688L3.55537 16.781L6.54949 30.243C6.78122 31.285 7.86962 32.163 8.92944 32.163H25.6395C25.9579 32.8328 26.392 33.437 26.9158 33.9498ZM35.8508 25.1925L37.7522 17.0988L36.011 16.6905L34.2958 23.9921C34.876 24.3092 35.4005 24.7156 35.8508 25.1925Z" fill="#5C62CD"/>
<path fill-rule="evenodd" clip-rule="evenodd" d="M18.4903 1.5499C18.8532 1.21523 18.8759 0.650002 18.541 0.287435C18.206 -0.0751326 17.6402 -0.0977417 17.2773 0.236935L5.65292 10.9579C5.29003 11.2926 5.26741 11.8578 5.60237 12.2204C5.93734 12.583 6.50306 12.6056 6.86594 12.2709L18.4903 1.5499Z" fill="#5C62CD"/>
<path fill-rule="evenodd" clip-rule="evenodd" d="M22.0671 0.236935C21.7042 -0.0977417 21.1386 -0.0751326 20.8035 0.287435C20.4686 0.650002 20.4912 1.21523 20.8541 1.5499L32.4785 12.2709C32.8414 12.6056 33.4072 12.583 33.7421 12.2204C34.0771 11.8578 34.0544 11.2926 33.6915 10.9579L22.0671 0.236935Z" fill="#5C62CD"/>
<path fill-rule="evenodd" clip-rule="evenodd" d="M31.2966 37.5236C35.7412 37.5236 39.3444 33.9235 39.3444 29.4828C39.3444 25.042 35.7412 21.442 31.2966 21.442C26.852 21.442 23.249 25.042 23.249 29.4828C23.249 33.9235 26.852 37.5236 31.2966 37.5236ZM31.2966 35.7366C34.7535 35.7366 37.556 32.9367 37.556 29.4828C37.556 26.0288 34.7535 23.2289 31.2966 23.2289C27.8397 23.2289 25.0374 26.0288 25.0374 29.4828C25.0374 32.9367 27.8397 35.7366 31.2966 35.7366Z" fill="#EDEEF9"/>
<path fill-rule="evenodd" clip-rule="evenodd" d="M31.2964 35.7366C34.7533 35.7366 37.5558 32.9367 37.5558 29.4828C37.5558 26.0288 34.7533 23.2289 31.2964 23.2289C27.8395 23.2289 25.0371 26.0288 25.0371 29.4828C25.0371 32.9367 27.8395 35.7366 31.2964 35.7366Z" fill="#FF8787"/>
<path d="M31.0523 28.1236C31.0523 28.3157 31.0186 28.4909 30.951 28.6494C30.8835 28.8078 30.7938 28.9446 30.6821 29.0598C30.5703 29.1726 30.4398 29.2601 30.2908 29.3225C30.1441 29.385 29.9904 29.4162 29.8297 29.4162C29.6528 29.4162 29.4898 29.385 29.3408 29.3225C29.1941 29.2601 29.0659 29.1726 28.9566 29.0598C28.8494 28.9446 28.7656 28.8078 28.705 28.6494C28.6446 28.4909 28.6143 28.3157 28.6143 28.1236C28.6143 27.9245 28.6446 27.7446 28.705 27.5837C28.7656 27.4205 28.8494 27.2814 28.9566 27.1661C29.0659 27.0509 29.1941 26.962 29.3408 26.8997C29.4898 26.8349 29.6528 26.8024 29.8297 26.8024C30.0068 26.8024 30.1698 26.8349 30.3188 26.8997C30.4701 26.962 30.5993 27.0509 30.7065 27.1661C30.816 27.2814 30.9009 27.4205 30.9614 27.5837C31.022 27.7446 31.0523 27.9245 31.0523 28.1236ZM30.2209 28.1236C30.2209 28.0013 30.2105 27.9005 30.1895 27.8214C30.1708 27.7397 30.1441 27.6749 30.1092 27.6269C30.0743 27.5789 30.0324 27.5453 29.9834 27.5261C29.9369 27.5069 29.8856 27.4973 29.8297 27.4973C29.7739 27.4973 29.7226 27.5069 29.676 27.5261C29.6295 27.5453 29.5899 27.5789 29.5573 27.6269C29.5247 27.6749 29.4991 27.7397 29.4805 27.8214C29.4619 27.9005 29.4526 28.0013 29.4526 28.1236C29.4526 28.239 29.4619 28.3349 29.4805 28.4117C29.4991 28.4886 29.5247 28.5498 29.5573 28.5954C29.5899 28.641 29.6295 28.6733 29.676 28.6925C29.7226 28.7117 29.7739 28.7213 29.8297 28.7213C29.8856 28.7213 29.9369 28.7117 29.9834 28.6925C30.0324 28.6733 30.0743 28.641 30.1092 28.5954C30.1441 28.5498 30.1708 28.4886 30.1895 28.4117C30.2105 28.3349 30.2209 28.239 30.2209 28.1236ZM32.652 27.0185C32.6869 26.9778 32.7301 26.9405 32.7813 26.9069C32.8325 26.8708 32.9036 26.8529 32.9943 26.8529H33.7837L29.9486 31.9398C29.9135 31.9854 29.8693 32.0238 29.8158 32.0549C29.7646 32.0838 29.7017 32.0982 29.6271 32.0982H28.8169L32.652 27.0185ZM33.9794 30.867C33.9794 31.059 33.9455 31.2353 33.878 31.3962C33.8106 31.5545 33.7209 31.6913 33.6091 31.8066C33.4973 31.9193 33.3669 32.007 33.2179 32.0694C33.0712 32.1317 32.9175 32.163 32.7568 32.163C32.5799 32.163 32.4169 32.1317 32.2678 32.0694C32.1211 32.007 31.993 31.9193 31.8836 31.8066C31.7765 31.6913 31.6927 31.5545 31.6321 31.3962C31.5715 31.2353 31.5413 31.059 31.5413 30.867C31.5413 30.6678 31.5715 30.4878 31.6321 30.327C31.6927 30.1637 31.7765 30.0246 31.8836 29.9094C31.993 29.7942 32.1211 29.7054 32.2678 29.643C32.4169 29.5781 32.5799 29.5458 32.7568 29.5458C32.9339 29.5458 33.0968 29.5781 33.2459 29.643C33.3972 29.7054 33.5264 29.7942 33.6335 29.9094C33.743 30.0246 33.828 30.1637 33.8885 30.327C33.9491 30.4878 33.9794 30.6678 33.9794 30.867ZM33.148 30.867C33.148 30.747 33.1375 30.6474 33.1166 30.5681C33.0979 30.4866 33.0712 30.4217 33.0363 30.3738C33.0013 30.3258 32.9594 30.2921 32.9105 30.273C32.864 30.2537 32.8127 30.2442 32.7568 30.2442C32.7009 30.2442 32.6497 30.2537 32.6031 30.273C32.5566 30.2921 32.5169 30.3258 32.4844 30.3738C32.4518 30.4217 32.4262 30.4866 32.4076 30.5681C32.3889 30.6474 32.3796 30.747 32.3796 30.867C32.3796 30.9822 32.3889 31.0782 32.4076 31.155C32.4262 31.2318 32.4518 31.293 32.4844 31.3386C32.5169 31.3842 32.5566 31.4165 32.6031 31.4358C32.6497 31.4549 32.7009 31.4646 32.7568 31.4646C32.8127 31.4646 32.864 31.4549 32.9105 31.4358C32.9594 31.4165 33.0013 31.3842 33.0363 31.3386C33.0712 31.293 33.0979 31.2318 33.1166 31.155C33.1375 31.0782 33.148 30.9822 33.148 30.867Z" fill="white"/>
</g>
<defs>
<clipPath id="clip0">
<rect width="240" height="38" fill="white"/>
</clipPath>
</defs>
</svg>
