<svg width="99" height="20" viewBox="0 0 99 20" fill="none" xmlns="http://www.w3.org/2000/svg">
<path fill-rule="evenodd" clip-rule="evenodd" d="M65.8731 9.66267C65.5962 11.3679 65.321 12.0507 64.7265 12.7005C63.9304 13.5448 62.6331 14 61.0737 14C58.4775 14 57 12.8456 57 10.8319C57.0004 10.4402 57.0327 10.0491 57.0966 9.66267L58.217 3H61.5127L60.3923 9.66267C60.3476 9.93107 60.3203 10.2021 60.3104 10.4741C60.3104 11.1073 60.8165 11.546 61.4914 11.546C61.9943 11.546 62.4644 11.3514 62.7084 11.0265C62.887 10.7825 62.9853 10.4741 63.0983 9.77646L64.2351 3H67L65.8731 9.66267Z" fill="black"/>
<path fill-rule="evenodd" clip-rule="evenodd" d="M71.9379 14H68.8825L70.2525 5.5162H68L68.411 3H76L75.6065 5.5162H73.2919L71.9379 14Z" fill="black"/>
<path fill-rule="evenodd" clip-rule="evenodd" d="M85 7.80538C84.9857 9.22415 84.5608 10.6079 83.7775 11.7872C83.3146 12.478 82.6882 13.042 81.9549 13.4282C81.2216 13.8144 80.4044 14.0108 79.5769 13.9995C76.8488 13.9995 75 12.101 75 9.293C75 7.48683 75.6737 5.66792 76.7713 4.53707C77.262 4.04608 77.8442 3.65755 78.4845 3.39378C79.1247 3.13002 79.8104 2.99623 80.5021 3.00008C83.2287 3.00327 85 4.88589 85 7.80538ZM78.7466 7.05042C78.4751 8.00142 78.3159 8.98135 78.2722 9.96991C78.2722 11.0211 78.7118 11.5706 79.5896 11.5706C80.4199 11.5706 80.9687 11.0052 81.2818 9.8186C81.5333 8.87729 81.7357 7.60629 81.7357 7.08705C81.7357 6.05177 81.2344 5.45609 80.3883 5.45609C79.6402 5.45131 79.0756 6.0008 78.7466 7.05042Z" fill="black"/>
<path d="M85 15H12V18H85V15Z" fill="black"/>
<path fill-rule="evenodd" clip-rule="evenodd" d="M20.3266 3H16.9602L12 14H14.84L15.8375 11.7555H18.7214L19.0106 14H22L20.3266 3ZM16.6759 9.48083L17.2738 8.14181C17.9009 6.67225 18.1478 5.87218 18.1478 5.87218C18.1478 5.87218 18.1478 5.85712 18.1625 5.85712C18.1665 5.8571 18.1704 5.85863 18.1734 5.86142C18.1764 5.8642 18.1783 5.86804 18.1787 5.87218C18.2038 6.73741 18.2737 7.60063 18.3883 8.45816L18.528 9.48585L16.6759 9.48083Z" fill="black"/>
<path fill-rule="evenodd" clip-rule="evenodd" d="M30.3222 3H26.957L22 14H24.8374L25.8363 11.7555H28.7208L29.0115 14H32L30.3255 3H30.3222ZM26.6727 9.48083L27.272 8.14181C27.8974 6.67225 28.1442 5.87218 28.1442 5.87218C28.1449 5.86817 28.1469 5.86452 28.1499 5.8618C28.1528 5.85907 28.1565 5.85742 28.1605 5.85712C28.1643 5.85712 28.1681 5.85871 28.1708 5.86153C28.1735 5.86436 28.1751 5.86819 28.1751 5.87218C28.2001 6.73741 28.2701 7.60063 28.3846 8.45816L28.5243 9.48585L26.6727 9.48083Z" fill="black"/>
<path fill-rule="evenodd" clip-rule="evenodd" d="M41.3247 3H37.9594L33 14H35.8388L36.8365 11.7555H39.7192L40.0084 14H43L41.3247 3ZM37.6734 9.48083L38.2714 8.14181C38.897 6.67225 39.144 5.87218 39.144 5.87218C39.144 5.87218 39.144 5.85712 39.1602 5.85712C39.1641 5.85712 39.1678 5.85871 39.1706 5.86153C39.1733 5.86436 39.1748 5.86819 39.1748 5.87218C39.1999 6.73741 39.2699 7.60063 39.3845 8.45816L39.5242 9.48585L37.6734 9.48083Z" fill="black"/>
<path fill-rule="evenodd" clip-rule="evenodd" d="M55.3225 3H51.961L47 14H49.8397L50.8394 11.7555H53.7165L54.0058 14H57L55.3241 3H55.3225ZM51.67 9.48083L52.2682 8.14181C52.8956 6.67225 53.1427 5.87218 53.1427 5.87218C53.1427 5.87218 53.1427 5.85712 53.1573 5.85712C53.1614 5.8571 53.1653 5.85863 53.1683 5.86142C53.1713 5.8642 53.1732 5.86804 53.1736 5.87218C53.1986 6.73735 53.268 7.60055 53.3817 8.45816L53.5231 9.48585L51.67 9.48083Z" fill="black"/>
</svg>
