<?xml version="1.0" encoding="utf-8"?>
<svg version="1.1" id="layer" xmlns="http://www.w3.org/2000/svg" xmlns:xlink="http://www.w3.org/1999/xlink" x="0px" y="0px"
	 viewBox="0 0 652 652" style="enable-background:new 0 0 652 652;" xml:space="preserve">
<style type="text/css">
	.st0{fill:#FF5A00;}
</style>
<path class="st0" d="M607.7,281.7c-18.6-23.9-53-28.3-76.9-9.7c-3.6,2.8-6.9,6.1-9.7,9.7c-6.9,9.8-10.5,21.5-10.3,33.5
	c-0.2,12,3.4,23.7,10.3,33.5c18.6,23.9,53,28.3,76.9,9.7c3.6-2.8,6.9-6.1,9.7-9.7c6.9-9.8,10.5-21.5,10.3-33.5
	C618.2,303.2,614.6,291.5,607.7,281.7z M590.5,327.7c-3.9,11.8-13.3,20.9-26.2,21.2c-12.9,0.3-22.3-9.5-26.2-21.2
	c-2.8-8.1-2.8-17,0-25.1c3.9-11.8,13.3-20.9,26.2-21.2c12.9-0.3,22.3,9.5,26.2,21.2C593.3,310.7,593.3,319.6,590.5,327.7
	L590.5,327.7z M196.1,367.1c0,1.7-1.4,3.1-3.1,3.1h0h-18c-1.7,0-3.1-1.4-3.1-3.1v0V219.1c0-1.7,1.4-3.1,3.1-3.1l0,0h18
	c1.7,0,3.1,1.4,3.1,3.1c0,0,0,0,0,0V367.1z M153.8,367.1c0,1.7-1.4,3.1-3.1,3.1h0h-18c-1.7,0-3.1-1.4-3.1-3.1l0,0V219.1
	c0-1.7,1.4-3.1,3.1-3.1h18c1.7,0,3.1,1.4,3.1,3.1c0,0,0,0,0,0L153.8,367.1L153.8,367.1z M506.7,266.6v12.6c0.2,1.8-1,3.4-2.8,3.7
	c-0.5,0.1-0.9,0-1.4-0.1c-20.3-4.2-32.9,4.9-32.9,23.6v60.7c0,1.7-1.4,3.1-3.1,3.1h-18c-1.7,0-3.1-1.4-3.1-3.1v-62
	c-0.2-11.9,4.6-23.2,13.3-31.3c8.8-8.6,20.6-13.4,32.9-13.3c4.2,0,8.4,0.4,12.6,1.2c2.1,0.7,2.5,2,2.5,5.2V266.6z M429.7,315.1
	c0.2-12-3.4-23.7-10.3-33.5c-18.6-23.9-53-28.3-76.9-9.7c-3.6,2.8-6.9,6.1-9.7,9.7c-13.9,20.1-13.9,46.8,0,67
	c10.2,13.6,26.3,21.5,43.3,21.2c11,0,21.7-3.2,30.8-9.3v13.2c0,18-15.7,21.2-25.7,21.8c-6.9,0.2-13.8-0.1-20.7-1.1
	c-2.8-0.4-4.7,0-4.7,3v15.9c0.1,1.5,1.3,2.7,2.8,2.6c0,0,0,0,0,0c23.3,2,39,1.6,50.8-5.1c8.3-4.9,14.4-12.7,17.2-21.9
	c2.1-7.1,3.1-14.5,3-21.8L429.7,315.1L429.7,315.1z M376.1,348.9c-12.9,0-22.3-9.5-26.2-21.2c-2.8-8.1-2.8-17,0-25.1
	c3.9-11.8,13.3-21.2,26.2-21.2c28.9,0,29.9,29.5,29.9,33.8S405,348.9,376.1,348.9z M113.2,304.3c0-14.3-3.2-25.1-10-32.6
	c-6.9-7.5-20.7-11.2-33.5-11.2c-12.9-0.1-25.5,3.3-36.6,9.8c-0.7,0.4-1.1,1.2-1.1,2l1,15.7c0.3,1.5,1.7,2.5,3.2,2.3
	c0.5-0.1,1-0.3,1.4-0.6c15.7-9.7,34.5-11.5,44.1-6.6c5.4,3.1,8.6,8.9,8.4,15.1v2.3H63.8c-11.3,0-45.7,4.2-45.7,35.9v0.3
	c-0.5,9.8,3.6,19.2,11.2,25.4c8.2,5.7,18,8.6,28,8h52.9c1.7,0,3.1-1.4,3.1-3.1l0,0v-62.8L113.2,304.3z M89.9,350.7H58.7
	c-4-0.1-7.9-1.5-11.1-3.9c-3.3-2.3-5.3-6.2-5.2-10.3c0-5.6,3.8-16.9,22.8-16.9h24.7V350.7z M262.4,260.5c-32,0-46,21.5-50.5,39.6
	c-1.2,4.9-1.9,9.9-1.8,15c-0.2,12,3.4,23.7,10.3,33.5c10.4,13.4,26.4,21.2,43.3,21.2c17.3,0.6,28.8-2.3,37.7-7.3
	c1.8-1.1,2.6-3.3,2.1-5.3v-13.9c0-2.8-1.7-4.2-4.2-2.5c-10.3,6.6-22.6,9.6-34.8,8.4c-14.4-0.2-26.4-11.1-28-25.4h71.1
	c1.6,0,2.9-1.3,2.9-2.9C311.7,301.4,306.1,260.5,262.4,260.5z M236.8,304.5c0.6-13.3,11.9-23.7,25.3-23.1c0.1,0,0.2,0,0.4,0
	c11.9-0.7,22.1,8.3,22.8,20.2c0.1,1,0.1,1.9,0,2.9H236.8z"/>
</svg>
