<svg xmlns="http://www.w3.org/2000/svg" fill="#ff5a00" viewBox="0 0 145 50">
	<path d="M141.72 16.69a13.1 13.1 0 0 0-20.7 0 13.59 13.59 0 0 0-2.46 8 13.59 13.59 0 0 0 2.46 8 13.1 13.1 0 0 0 20.7 0 13.6 13.6 0 0 0 2.46-8 13.6 13.6 0 0 0-2.46-8zm-4.1 11c-.94 2.81-3.17 5-6.26 5.07s-5.32-2.26-6.25-5.07a9.27 9.27 0 0 1 0-6c.94-2.81 3.17-5 6.25-5.07s5.32 2.26 6.26 5.07a9.28 9.28 0 0 1 0 5.99zm-94.25 9.4a.74.74 0 0 1-.74.74h-4.3a.74.74 0 0 1-.74-.74V1.74a.74.74 0 0 1 .74-.74h4.3a.74.74 0 0 1 .74.74v35.35zm-10.1 0a.74.74 0 0 1-.74.74h-4.3a.74.74 0 0 1-.74-.74V1.74a.74.74 0 0 1 .73-.74h4.3a.74.74 0 0 1 .74.74v35.35zm84.32-24v3a.78.78 0 0 1-1 .85c-4.86-1-7.85 1.16-7.85 5.65v14.5a.74.74 0 0 1-.74.74h-4.3a.74.74 0 0 1-.74-.74V22.28a10 10 0 0 1 3.17-7.49 11.16 11.16 0 0 1 7.87-3.18 16.69 16.69 0 0 1 3 .28c.51.17.59.47.59 1.24zM99.18 24.68a13.41 13.41 0 0 0-2.46-8 13.1 13.1 0 0 0-20.7 0 14.07 14.07 0 0 0 0 16 12.73 12.73 0 0 0 10.35 5.07 13.2 13.2 0 0 0 7.37-2.22v3.16c0 4.29-3.75 5.07-6.15 5.22a28.26 28.26 0 0 1-4.94-.27c-.66-.1-1.12 0-1.12.71v3.8a.65.65 0 0 0 .68.62c5.57.48 9.32.38 12.14-1.23a9.18 9.18 0 0 0 4.11-5.23 17.49 17.49 0 0 0 .71-5.22V24.68zm-12.81 8.06c-3.09 0-5.32-2.26-6.26-5.07a9.27 9.27 0 0 1 0-6c.94-2.81 3.17-5.07 6.26-5.07 6.91 0 7.14 7.05 7.14 8.07s-.23 8.07-7.14 8.07zM23.55 22.09c0-3.41-.76-6-2.4-7.79s-4.94-2.68-8-2.68a17.34 17.34 0 0 0-8.75 2.33.55.55 0 0 0-.27.48l.23 3.76a.67.67 0 0 0 1.1.39C9.21 16.27 13.71 15.84 16 17a4 4 0 0 1 2 3.61v.55h-6.25c-2.69 0-10.93 1-10.93 8.57v.08a7.34 7.34 0 0 0 2.67 6.08 10.56 10.56 0 0 0 6.68 1.91h12.65a.74.74 0 0 0 .74-.74v-15zM18 33.18h-7.47a4.62 4.62 0 0 1-2.65-.93 2.94 2.94 0 0 1-1.25-2.46c0-1.35.91-4.05 5.46-4.05H18v7.44zm41.2-21.56c-7.65 0-11 5.13-12.07 9.47a14.58 14.58 0 0 0-.44 3.58 13.6 13.6 0 0 0 2.46 8 13.13 13.13 0 0 0 10.35 5.07c4.13.15 6.89-.55 9-1.75a1.17 1.17 0 0 0 .5-1.27v-3.33c0-.68-.41-1-1-.59a13.05 13.05 0 0 1-8.32 2A6.81 6.81 0 0 1 53 26.73h17a.7.7 0 0 0 .7-.69c.3-4.65-1.05-14.42-11.5-14.42zm-6.11 10.51a5.78 5.78 0 0 1 6.12-5.51 5.14 5.14 0 0 1 5.44 5.51H53.09z"/>
</svg>
