<svg width="60" height="19" viewBox="0 0 60 19" fill="none" xmlns="http://www.w3.org/2000/svg">
  <title>Alza.cz</title>
  <g>
    <path fill-rule="evenodd" clip-rule="evenodd"
          d="M2.69188 8.27765L4.55953 4.20435L8.89286 3.31134L14.0929 3.94038L15.1603 6.85389L13.7097 15.0805L3.55996 14.964L2.15887 12.9449L2.69188 8.27765Z"
          fill="white"/>
    <path fill-rule="evenodd" clip-rule="evenodd"
          d="M-0.000193011 5.98339L5.78654 4.68038C4.87912 5.21337 4.17586 6.03083 3.78741 7.00417L7.57925 7.31588C7.75315 6.56609 8.56893 6.15048 9.29704 6.15048C10.2641 6.15048 10.5582 6.81181 10.3235 7.60653C7.59481 7.60653 3.88638 8.14851 2.83026 11.0002C2.46974 11.9831 2.55739 13.1864 3.36327 13.9376C3.909 14.4459 4.7276 14.679 5.72858 14.679C7.08301 14.679 8.86582 14.1862 9.62504 12.973L9.49921 14.1174L9.56142 14.5133H13.5201C13.3575 13.8688 13.4395 13.0797 13.5413 12.4324C13.7025 11.5071 13.9343 10.5299 14.1309 9.547L15.5447 15.7251L2.86985 18.5782L-0.00302124 5.99041L-0.000193011 5.98339ZM10.2669 3.67223L12.6704 3.13025L12.8825 4.06257C12.1035 3.75648 11.1449 3.68206 10.2655 3.67223H10.2669Z"
          fill="#231F20"/>
    <path fill-rule="evenodd" clip-rule="evenodd"
          d="M1.49323 3.48546L14.1681 0.632324L17.0452 13.2201L13.4512 14.0247C13.4222 13.49 13.4554 12.9539 13.5502 12.4268C13.8839 10.52 14.5144 8.3914 14.5144 6.45655C14.5144 3.91793 12.0049 3.668 10.0312 3.668C7.50334 3.668 4.81568 4.46132 3.78926 6.99713L7.5811 7.30884C7.755 6.55905 8.57077 6.14343 9.29888 6.14343C10.2659 6.14343 10.56 6.80476 10.3253 7.59948C7.78045 7.59948 4.37882 8.07127 3.08376 10.454L1.49323 3.48546ZM11.3093 14.5105H9.57034L9.50813 14.1145L9.63396 12.9702C8.87474 14.1833 7.0891 14.6762 5.73749 14.6762C5.12973 14.6944 4.52552 14.5778 3.96881 14.335L4.36609 16.0718L11.3079 14.5091L11.3093 14.5105ZM10.0369 9.55962C9.07833 9.55962 7.76065 9.87554 7.24037 10.7714C7.15762 10.8987 7.10233 11.0416 7.078 11.1912C7.05367 11.3408 7.06081 11.4938 7.09899 11.6405C7.12255 11.7634 7.17062 11.8803 7.24037 11.9845C7.56555 12.4324 8.58773 12.2063 8.99774 11.9564C9.75978 11.4973 9.8842 10.374 10.0312 9.55821L10.0369 9.55962Z"
          fill="#043266"/>
    <path
      d="M27.3007 13.3437H24.5961C24.5857 13.207 24.5815 13.0965 24.5834 13.0123C24.5834 12.775 24.6116 12.4942 24.6498 12.1698C24.0843 13.0591 23.3161 13.5033 22.3453 13.5023C21.6865 13.5023 21.1605 13.3086 20.7618 12.9196C20.5666 12.7311 20.4142 12.5032 20.3149 12.2513C20.2157 11.9995 20.1719 11.7294 20.1864 11.4594C20.1938 11.0346 20.318 10.62 20.5455 10.2602C20.7789 9.89249 21.1076 9.59377 21.497 9.39532C21.8857 9.18829 22.306 9.04599 22.7412 8.97409C23.1653 8.90669 23.9867 8.81402 25.2125 8.69327C25.2628 8.56267 25.2938 8.42551 25.3044 8.28608C25.3143 7.89714 25.0542 7.70056 24.5254 7.70056C23.9966 7.70056 23.6149 7.96735 23.3533 8.49669L21.1125 8.02491C21.7147 6.7088 22.9872 6.05121 24.9297 6.05215C25.9119 6.05215 26.6791 6.22626 27.2314 6.57448C27.4965 6.73272 27.7123 6.96081 27.8548 7.23345C27.9973 7.50609 28.061 7.8126 28.0387 8.11899C28.0312 8.42321 27.8427 9.49969 27.4732 11.3484C27.3681 11.7992 27.2944 12.2566 27.2526 12.7174C27.2506 12.9275 27.269 13.1372 27.3078 13.3437H27.3007ZM24.9439 9.97381C23.6856 10.0721 23.0475 10.4835 23.0296 11.208C23.0202 11.6058 23.2186 11.8048 23.6248 11.8048C23.9237 11.789 24.2055 11.6616 24.4137 11.4481C24.6786 11.2085 24.8548 10.717 24.9425 9.97381H24.9439ZM32.2575 3.75644H29.6278L27.8337 13.3437H30.4648L32.2589 3.75644H32.2575ZM37.5862 11.5675L37.2624 13.3437H31.0657L31.364 11.75L34.8985 7.97156H32.3028L32.6251 6.25013H38.5858L38.3256 7.61913L34.6087 11.5675H37.5876H37.5862ZM44.955 13.3437C44.9163 13.1372 44.8978 12.9274 44.8998 12.7174C44.9416 12.2566 45.0153 11.7992 45.1204 11.3484C45.4927 9.49782 45.6812 8.42134 45.6859 8.11899C45.708 7.81263 45.6443 7.50617 45.5018 7.23356C45.3593 6.96095 45.1436 6.73284 44.8786 6.57448C44.3263 6.22719 43.5591 6.05308 42.5769 6.05215C40.6363 6.05215 39.3638 6.70974 38.7597 8.02491L41.0005 8.49669C41.2616 7.96688 41.6523 7.7015 42.1726 7.70056C42.7014 7.70056 42.9601 7.89714 42.9516 8.28608C42.941 8.42551 42.91 8.56267 42.8597 8.69327C41.6339 8.8084 40.8083 8.90248 40.3884 8.97409C39.9532 9.04599 39.5329 9.18829 39.1442 9.39532C38.7547 9.59377 38.4261 9.89249 38.1927 10.2602C37.9652 10.62 37.841 11.0346 37.8336 11.4594C37.8191 11.7294 37.8629 11.9995 37.9621 12.2513C38.0614 12.5032 38.2138 12.7311 38.409 12.9196C38.8063 13.3086 39.3322 13.5023 39.9925 13.5023C40.9652 13.5023 41.7334 13.0582 42.297 12.1698C42.2588 12.4942 42.2362 12.7736 42.2306 13.0123C42.2306 13.0965 42.2348 13.207 42.2433 13.3437H44.9479H44.955ZM42.5982 9.97381C42.5105 10.717 42.3342 11.2085 42.0694 11.4481C41.8611 11.6616 41.5793 11.789 41.2805 11.8048C40.8733 11.8048 40.6749 11.6058 40.6853 11.208C40.7022 10.4835 41.3403 10.0716 42.5996 9.97241L42.5982 9.97381Z"
      fill="#093266"/>
    <path d="M47.914 11.3892L47.5832 13.3423H45.5459L45.8725 11.3892H47.914Z" fill="#231F20"/>
    <path
      d="M51.8418 11.2249L53.4988 11.6279C53.2019 12.3327 52.8126 12.8209 52.331 13.0923C51.8774 13.356 51.362 13.4964 50.8366 13.4995C50.495 13.5149 50.1539 13.4594 49.8351 13.3367C49.5163 13.2139 49.2267 13.0266 48.9848 12.7866C48.7428 12.5466 48.5539 12.2592 48.4299 11.9427C48.306 11.6262 48.2498 11.2875 48.2648 10.9483C48.2564 10.1173 48.5586 9.31282 49.1131 8.69049C49.6787 8.03524 50.4284 7.70761 51.3625 7.70761C51.9926 7.69071 52.6065 7.90745 53.0845 8.31559C53.3133 8.50606 53.4957 8.74545 53.6181 9.01583C53.7405 9.28622 53.7998 9.5806 53.7914 9.87695L51.928 10.0932C51.928 9.5044 51.7273 9.21 51.3257 9.21C50.9808 9.21 50.7376 9.45151 50.592 9.93171C50.4598 10.3406 50.3869 10.7661 50.3757 11.1954C50.3757 11.7276 50.5793 11.9943 50.9836 11.9943C51.388 11.9943 51.6665 11.7346 51.8418 11.2249Z"
      fill="#231F20"/>
    <path
      d="M58.5673 11.9789L58.3397 13.3423H53.4324L53.6374 12.1179L56.3632 9.21842H54.3104L54.5323 7.89575H59.2573L59.0777 8.94742L56.2063 11.9789H58.5673Z"
      fill="#231F20"/>
  </g>
</svg>
