<svg width="302" height="84" viewBox="0 0 302 84" fill="none" xmlns="http://www.w3.org/2000/svg">
<path d="M47.6495 -0.000488281H81.83C82.5252 -0.000488281 83.0889 0.563151 83.0889 1.25843V53.4946C83.0889 54.7458 81.4616 55.2309 80.7765 54.1839L46.596 1.94775C46.0481 1.11046 46.6489 -0.000488281 47.6495 -0.000488281Z" fill="#246DFF"/>
<path d="M35.4394 -0.000488281H1.25892C0.563639 -0.000488281 0 0.563151 0 1.25843V53.4946C0 54.7458 1.62729 55.2309 2.31236 54.1839L36.4929 1.94775C37.0407 1.11046 36.44 -0.000488281 35.4394 -0.000488281Z" fill="#20A34E"/>
<path d="M40.9589 41.8216L2.12976 80.9426C1.34126 81.7371 1.90397 83.0884 3.02328 83.0884H80.0976C81.2123 83.0884 81.777 81.7465 80.9978 80.9494L42.7526 41.8284C42.2614 41.3259 41.4539 41.3228 40.9589 41.8216Z" fill="#F86606"/>
<path d="M267.077 11.43H252.532C247.982 11.43 246.032 13.7049 246.032 17.8488V21.8302L267.223 21.8308L279.33 49.7822L291.437 21.8308H302L276.649 80.2533H266.248L274.048 62.2147L259.548 30.6058H246.032V62.9456H235.632V30.6058H224.337V21.8302H235.632V15.8178C235.632 7.85478 240.019 3.14186 249.364 3.14186H267.077V11.43Z" fill="#1F2123"/>
<path fill-rule="evenodd" clip-rule="evenodd" d="M184.3 20.937C195.025 20.9372 203.801 28.9816 203.801 42.3885C203.801 55.8766 195.025 63.8392 184.3 63.8394C175.362 63.8394 170.892 58.3142 170.08 56.6891V80.1722H159.842V21.8308H170.161V28.3314C170.892 26.7875 175.362 20.937 184.3 20.937ZM181.618 30.0378C174.549 30.0379 169.999 35.3194 169.999 42.3885C169.999 49.3763 174.549 54.7391 181.618 54.7392C188.768 54.7392 193.319 49.3764 193.319 42.3885C193.319 35.3193 188.768 30.0378 181.618 30.0378Z" fill="#1F2123"/>
<path fill-rule="evenodd" clip-rule="evenodd" d="M132.867 20.7742C145.624 20.7742 152.693 27.437 152.693 37.1875V51.0823C152.693 53.5199 153.587 54.6573 155.943 54.8198V63.189H152.693C147.574 63.1078 144.243 61.1576 143.105 57.5011C141.074 60.4263 136.848 63.8393 129.779 63.8394C120.11 63.8394 112.797 58.3138 112.797 49.9445C112.797 41.6567 119.053 37.1875 129.21 37.1875H142.699C142.699 32.2311 138.88 29.0624 132.867 29.0623C127.179 29.0623 124.904 32.1496 124.335 33.206H113.853C114.666 28.8182 119.948 20.7742 132.867 20.7742ZM130.917 44.2566C126.123 44.2566 123.035 46.0445 123.035 49.7822C123.035 53.7637 126.773 56.1199 131.973 56.1199C137.824 56.1198 142.699 53.1946 142.699 47.7506V44.2566H130.917Z" fill="#1F2123"/>
<path d="M219.387 62.9456H208.987V21.8308H219.387V62.9456Z" fill="#1F2123"/>
<path d="M219.55 15.2492H208.743V2.89844H219.55V15.2492Z" fill="#1F2123"/>
</svg>
