<svg width="157" height="42" viewBox="0 0 157 42" fill="none" xmlns="http://www.w3.org/2000/svg">
<g>
<path fill-rule="evenodd" clip-rule="evenodd" d="M92.5443 21.5007H86.6805V13.5711H92.5463C94.7133 13.5711 96.4713 15.347 96.4713 17.5359C96.472 18.0559 96.371 18.5711 96.174 19.0518C95.977 19.5325 95.6879 19.9695 95.3232 20.3376C94.9585 20.7058 94.5254 20.998 94.0486 21.1976C93.5718 21.3972 93.0606 21.5001 92.5443 21.5007ZM93.1371 9.36279H81.3404V33.2911H86.6795V25.709H93.1351C97.6054 25.709 101.229 22.05 101.229 17.5359C101.229 13.0217 97.6065 9.36279 93.1361 9.36279H93.1371ZM113.769 33.2911H119.106V24.8049H128.748V20.4926H119.106V13.7802H131.09V9.36279H113.768V33.2911H113.769ZM151.318 9.36279L145.498 19.2046H145.36L139.817 9.36279H133.756L142.641 24.214V33.2911H148.012V24.1796L157 9.36279H151.318ZM104.404 33.2911H109.742V9.36279H104.404V33.2911ZM63.2844 24.1442L66.5897 14.3357H66.727L69.9641 24.1442H63.2834H63.2844ZM63.5581 9.36279L54.7434 33.2911H60.2188L61.8714 28.3879H71.3761L73.0287 33.2911H78.6766L69.8609 9.36279H63.5592H63.5581Z" fill="#02184B"/>
<path fill-rule="evenodd" clip-rule="evenodd" d="M5.48362 4.94693C2.00277 5.39636 -0.424538 8.3666 0.0619559 11.5824L3.81756 36.4127L19.625 3.12109L5.48362 4.94693Z" fill="#6CC04A"/>
<path fill-rule="evenodd" clip-rule="evenodd" d="M41.3013 24.0666L39.9617 5.35253C39.7231 2.02546 36.7142 -0.405865 33.4059 0.0570959L27.8882 0.825923L40.0402 28.0896C40.9533 26.959 41.404 25.5202 41.3003 24.0666" fill="#00A7CE"/>
<path fill-rule="evenodd" clip-rule="evenodd" d="M9.29605 41.5776C10.3191 41.69 11.3537 41.5416 12.3049 41.1458L34.0855 32.1321L23.7308 9.36279L9.29605 41.5776Z" fill="#FF9012"/>
</g>
</svg>
