<svg width="67" height="18" viewBox="0 0 67 18" fill="none" xmlns="http://www.w3.org/2000/svg">
<g>
<path d="M58.2666 0.00736403C59.209 0.00736403 60.1532 0.0184058 61.0956 0.00368342C61.7804 -0.0073584 62.1055 0.296292 62.0945 0.995607C62.0799 2.03722 62.142 3.08251 62.0726 4.12044C62.0233 4.84552 62.2863 4.99459 62.942 4.95778C63.9428 4.90257 64.9491 4.95778 65.9517 4.93938C66.6804 4.92465 67.0037 5.23935 66.9964 5.98467C66.9763 7.91515 66.9744 9.84562 66.9982 11.7761C67.0073 12.5435 66.6494 12.8104 65.9371 12.7956C64.8724 12.7754 63.8076 12.8159 62.7447 12.7791C62.2206 12.7607 62.0653 12.9447 62.0818 13.4581C62.1146 14.5292 62.0671 15.6039 62.1 16.675C62.1219 17.4166 61.8042 17.7571 61.0828 17.7552C59.167 17.7534 57.2512 17.7516 55.3335 17.7571C54.6085 17.7589 54.2852 17.4093 54.298 16.6805C54.3163 15.6076 54.2798 14.5347 54.3108 13.4637C54.3254 12.9447 54.1501 12.7662 53.6332 12.7809C52.5703 12.8122 51.5038 12.7735 50.4409 12.7956C49.7103 12.8104 49.3725 12.4699 49.3725 11.7485C49.3743 9.8493 49.3779 7.94827 49.3706 6.04908C49.367 5.23014 49.7505 4.90073 50.5577 4.93386C51.5604 4.9725 52.5667 4.90441 53.5675 4.95778C54.1957 4.9909 54.3345 4.74983 54.3126 4.17197C54.2725 3.1322 54.3126 2.08875 54.298 1.04714C54.2871 0.312854 54.6085 -0.0165599 55.3463 0.00184312C56.3197 0.0257671 57.2932 0.00736403 58.2666 0.00736403ZM57.1617 4.21798C56.1134 4.27503 55.5363 4.89153 55.2587 5.96258C54.9464 5.11052 54.6962 5.49515 54.4478 5.89081C54.1446 6.37297 54.1245 6.94531 53.8159 7.47899C53.2333 8.4838 53.5036 9.70208 54.0716 10.8063C54.3583 10.2689 54.2998 9.58062 54.9756 9.35794C55.0906 9.90635 54.5829 10.2431 54.5172 10.7455C54.4606 11.1817 54.3857 11.5424 54.7272 11.9307C55.8814 13.241 58.0675 13.8262 59.6729 13.2612C60.3358 13.0275 59.8317 12.8987 59.6765 12.7202C59.7094 12.6834 59.7423 12.6466 59.777 12.6098C60.6755 12.6613 61.4535 12.4533 61.9192 11.5865C61.932 11.5681 61.9484 11.5497 61.9576 11.5295C61.9612 11.5203 61.9521 11.5074 61.9503 11.4945C61.9466 11.5295 61.9411 11.5645 61.9375 11.5994C61.7092 11.4154 61.3658 11.7319 61.1394 11.4356C62.5968 10.6001 62.9127 10.1235 62.7173 9.05245C61.848 10.0904 60.7449 10.4069 59.461 10.1401C58.9898 10.0425 58.115 10.0444 58.2155 9.60454C58.3506 9.01749 59.0501 9.54933 59.472 9.62663C61.6489 10.0315 62.962 8.64023 62.3521 6.51468C62.3977 6.47051 62.4452 6.42818 62.4909 6.38401C63.2506 6.60669 63.6031 7.44035 64.2843 7.68327C64.7372 7.47531 63.6323 7.09805 64.4578 6.97843C64.5272 7.15326 64.6696 7.14406 64.8139 7.12013C64.8358 7.11645 64.8504 7.07597 64.8669 7.05388C64.7336 7.02444 64.6002 6.99499 64.4669 6.96555C63.0461 5.46938 61.6124 5.02219 60.2171 5.76383C59.3149 6.24231 58.4273 6.77784 57.6858 7.50844C57.5872 7.55077 57.4904 7.59309 57.3918 7.63542C57.5288 7.7624 57.6584 7.72743 57.7863 7.6207C58.5771 7.38698 59.2711 6.59565 60.2244 7.23423C60.3595 7.32441 60.6755 7.14222 60.9093 7.08701C61.0956 7.04284 61.2179 6.70975 61.4499 6.9177C61.6891 7.12934 61.7676 7.42931 61.7238 7.75136C61.627 8.45988 60.838 9.04325 59.976 8.78009C58.672 8.38442 57.3973 8.14334 56.0549 8.45619C56.3325 8.08813 56.5279 7.71823 56.6047 7.22319C56.7398 6.34721 57.2786 5.66814 58.0274 5.1823C58.7451 4.71854 59.5505 4.62837 60.5312 4.72406C59.3587 3.95665 58.325 4.01554 57.2786 4.55291C57.2219 4.4885 57.1653 4.42225 57.1105 4.35784C57.0886 4.29343 57.1087 4.24742 57.169 4.21982L57.1836 4.19405L57.1617 4.21798Z" fill="#3DB74F"/>
<path d="M25.8642 9.76465C25.8642 11.9896 25.8715 14.2145 25.8606 16.4376C25.8532 17.9503 26.0614 17.7368 24.5547 17.7479C23.0133 17.7589 23.0133 17.7497 23.0133 16.2352C23.0133 12.711 23.0261 9.18679 23.0006 5.66261C22.9969 5.08108 23.1357 4.93385 23.7347 4.87864C24.9492 4.76639 25.7729 5.18966 26.5162 6.15949C27.8165 7.85625 29.1315 9.54013 30.335 11.3105C30.5158 11.5755 30.7112 11.8313 31.0491 12.2969C31.0491 9.98916 31.082 7.9225 31.0308 5.85768C31.0126 5.12892 31.1459 4.86024 31.9458 4.886C33.9401 4.94858 33.9401 4.90257 33.9401 6.88089C33.9401 10.221 33.9182 13.563 33.9566 16.9032C33.9639 17.6025 33.752 17.7184 33.0946 17.7865C31.9002 17.9098 31.2463 17.4718 30.6784 16.4118C29.3945 14.0121 27.8238 11.7945 25.8642 9.76465Z" fill="#183B7F"/>
<path d="M8.17639 10.751C10.2091 12.2951 10.6401 14.2605 9.36349 16.1045C8.7042 17.0578 7.72164 17.4332 6.66421 17.654C4.61143 18.081 2.55501 17.9153 0.498583 17.6411C0.100447 17.5878 2.6813e-07 17.4129 0.00182658 17.0449C0.00913182 13.2428 0.0109581 9.44075 2.68083e-07 5.63869C-0.00182604 5.27983 0.0675737 5.06267 0.463883 5.01482C2.55136 4.7627 4.637 4.55843 6.71534 5.09764C7.96819 5.42521 8.94892 6.073 9.30323 7.40722C9.65753 8.7396 9.35254 9.6027 8.17639 10.751ZM2.86 13.8225C2.86 14.2182 2.86366 14.6157 2.85818 15.0113C2.85452 15.2506 2.90566 15.4273 3.19239 15.4365C4.21878 15.4733 5.2543 15.5653 6.23685 15.1586C6.83405 14.912 7.11165 14.4096 7.10983 13.7839C7.108 13.1545 6.82675 12.6723 6.20763 12.4423C5.66339 12.2399 5.09723 12.1626 4.52012 12.1552C2.85635 12.135 2.85635 12.135 2.86 13.8225ZM2.85818 8.55741C2.85818 8.8629 2.86731 9.16655 2.85635 9.47204C2.84539 9.76648 2.94036 9.92659 3.26362 9.91371C4.0745 9.88058 4.89451 10.0002 5.69261 9.73704C6.28433 9.54197 6.59663 9.1463 6.60211 8.52612C6.60759 7.89858 6.28251 7.51395 5.68896 7.32256C4.88903 7.06492 4.06902 7.18086 3.25814 7.1643C2.94584 7.15694 2.85087 7.36121 2.85635 7.64646C2.86366 7.94827 2.85818 8.25376 2.85818 8.55741Z" fill="#183B7F"/>
<path d="M36.4878 9.56589C36.4878 8.21879 36.5061 6.86985 36.4787 5.52275C36.4696 5.05715 36.581 4.90625 37.0759 4.89152C39.3752 4.83079 39.3698 4.81239 39.3771 7.12749C39.3844 9.17943 39.3478 11.2332 39.4428 13.2796C39.514 14.8071 40.4838 15.5671 41.9229 15.4309C42.9493 15.3334 43.5885 14.7739 43.8442 13.7673C43.9812 13.2263 43.9757 12.676 43.9739 12.1258C43.9702 9.95052 43.994 7.77712 43.9593 5.60188C43.9501 5.03323 44.0999 4.89152 44.6642 4.88968C46.9033 4.88416 46.9307 4.86208 46.896 7.087C46.8613 9.41131 47.0822 11.7448 46.7626 14.0581C46.4741 16.1523 45.1884 17.4313 43.1119 17.8473C42.1457 18.0405 41.1869 18.0515 40.219 17.8565C38.0274 17.4148 36.7088 15.9389 36.5225 13.6955C36.5116 13.5741 36.4952 13.4508 36.4952 13.3293C36.4933 12.0742 36.4933 10.8173 36.4933 9.56221C36.4915 9.56589 36.4897 9.56589 36.4878 9.56589Z" fill="#183B7F"/>
<path d="M11.9075 11.2995C11.9075 9.42971 11.924 7.55997 11.8966 5.69022C11.8893 5.13997 11.9678 4.88049 12.618 4.89153C15.0214 4.93201 17.4248 4.91913 19.8282 4.89705C20.314 4.89337 20.5076 4.97986 20.5131 5.53379C20.5314 7.37594 20.5569 7.37594 18.7525 7.37594C17.6275 7.37594 16.5007 7.39066 15.3757 7.36857C14.9648 7.36121 14.8095 7.45875 14.7876 7.91698C14.6963 9.80329 14.6781 9.80145 16.5171 9.80145C17.4303 9.80145 18.3435 9.81986 19.2548 9.79409C19.7187 9.78121 19.8776 9.92475 19.894 10.4161C19.9597 12.2748 19.978 12.2748 18.117 12.2748C17.2659 12.2748 16.4112 12.3061 15.562 12.2638C14.9958 12.2362 14.7821 12.3632 14.784 12.9999C14.7895 15.2782 14.7621 15.2782 17.034 15.2782C18.1298 15.2782 19.2256 15.3021 20.3195 15.2672C20.8437 15.2506 20.9806 15.4346 20.9916 15.9499C21.0263 17.7497 21.0464 17.7497 19.2475 17.7497C17.087 17.7497 14.9264 17.724 12.7677 17.7644C12.103 17.7773 11.871 17.6227 11.8929 16.9069C11.9422 15.0408 11.9075 13.1692 11.9075 11.2995Z" fill="#183B7F"/>
<path d="M64.4706 6.96187C64.6039 6.99131 64.7372 7.02076 64.8705 7.0502C64.8523 7.07413 64.8377 7.11277 64.8176 7.11645C64.6733 7.14222 64.529 7.15142 64.4614 6.97475C64.4596 6.97475 64.4706 6.96187 64.4706 6.96187Z" fill="#FEFEFE"/>
<path d="M57.7899 7.61333C57.6621 7.72007 57.5324 7.75504 57.3954 7.62806C57.4941 7.58573 57.5909 7.5434 57.6895 7.50108C57.7242 7.53788 57.757 7.57469 57.7899 7.61333Z" fill="#FEFEFE"/>
<path d="M57.1617 4.21798L57.1854 4.18485L57.1708 4.21246L57.1617 4.21798Z" fill="#FEFEFE"/>
<path d="M61.9356 11.5957C61.9393 11.5608 61.9448 11.5258 61.9484 11.4908C61.9521 11.5019 61.9594 11.5166 61.9557 11.5258C61.9466 11.5461 61.9302 11.5645 61.9192 11.5829L61.9356 11.5957Z" fill="#FEFEFE"/>
<path d="M54.9646 9.36346C54.9208 8.94755 55.1071 8.76168 55.518 8.80584C55.549 9.20887 55.3646 9.39474 54.9646 9.36346Z" fill="#3DB74F"/>
<path d="M55.5125 8.81137C55.5198 8.41938 55.7353 8.34025 56.0677 8.43779C56.0568 8.82793 55.8321 8.89234 55.5125 8.81137Z" fill="#3DB74F"/>
<path d="M59.6765 12.7165C59.5961 12.6815 59.43 12.6852 59.5048 12.5545C59.5541 12.4662 59.6984 12.5067 59.7769 12.6061C59.7441 12.6429 59.7094 12.6797 59.6765 12.7165Z" fill="#3DB74F"/>
<path d="M62.352 6.50915C62.3374 6.44106 62.3228 6.37297 62.3064 6.30488C62.3685 6.32881 62.4287 6.35457 62.4908 6.37849C62.4452 6.42266 62.3977 6.46499 62.352 6.50915Z" fill="#3DB74F"/>
<path d="M57.2804 4.54555C57.2128 4.64308 57.1105 4.78111 57.0119 4.69645C56.8603 4.56579 56.9681 4.43513 57.1124 4.35048C57.169 4.41489 57.2256 4.48114 57.2804 4.54555Z" fill="#3DB74F"/>
</g>
</svg>
