<svg width="55" height="13" viewBox="0 0 55 13" fill="none" xmlns="http://www.w3.org/2000/svg">
  <title>CZC.cz</title>
  <g>
    <path
      d="M5.74708 12.7481C2.22183 12.7481 0.459198 10.7084 0.459198 6.62903C0.459198 4.61768 0.943584 3.05959 1.8989 1.98309C2.85422 0.934921 4.22665 0.382507 6.01618 0.382507C7.33479 0.382507 8.50539 0.665796 9.54144 1.18988L8.63994 3.71115C8.1421 3.49869 7.69808 3.34288 7.28097 3.20123C6.86386 3.07375 6.43329 3.00293 6.01618 3.00293C4.40156 3.00293 3.60771 4.20691 3.60771 6.61487C3.60771 8.93784 4.41502 10.1135 6.02964 10.1135C7.1596 10.1196 8.26382 9.75851 9.1916 9.07948V11.8416C8.72609 12.1657 8.21211 12.4051 7.67117 12.5498C7.15987 12.6631 6.52748 12.7339 5.74708 12.7339V12.7481ZM19.7001 12.5356H10.7524V10.6092L15.9999 3.10208H11.0619V0.594974H19.5117V2.70548L14.3988 10.0285H19.7001V12.5498V12.5356ZM25.9164 12.7481C22.3911 12.7481 20.6285 10.7084 20.6285 6.62903C20.6285 4.60352 21.0994 3.05959 22.0682 1.98309C23.0235 0.934921 24.3959 0.382507 26.1855 0.382507C27.5041 0.382507 28.6747 0.665796 29.7107 1.18988L28.7958 3.71115C28.3114 3.49869 27.8539 3.34288 27.4503 3.20123C27.0197 3.07375 26.6026 3.00293 26.1855 3.00293C24.5709 3.00293 23.777 4.20691 23.777 6.61487C23.777 8.93784 24.5843 10.1135 26.1989 10.1135C27.3289 10.1196 28.4331 9.75851 29.3609 9.07948V11.8416C28.8954 12.1657 28.3814 12.4051 27.8405 12.5498C27.3292 12.6631 26.6968 12.7339 25.9164 12.7339V12.7481ZM30.8948 10.9917C30.8948 10.3968 31.0293 9.94351 31.3388 9.6319C31.6483 9.33444 32.0923 9.17863 32.6709 9.17863C33.236 9.17863 33.6666 9.33444 33.976 9.64606C34.2855 9.95768 34.4335 10.4109 34.4335 10.9917C34.4335 11.5583 34.272 11.9832 33.9626 12.3231C33.7887 12.4901 33.5849 12.6188 33.363 12.7015C33.1412 12.7842 32.9058 12.8193 32.6709 12.8047C32.1058 12.8047 31.6617 12.6489 31.3523 12.3231C31.1907 12.1475 31.0654 11.9385 30.9844 11.7093C30.9033 11.4802 30.8682 11.2358 30.8813 10.9917"
      fill="#D3121A"/>
    <path
      d="M40.327 12.7484C36.8017 12.7484 35.0391 10.7087 35.0391 6.62937C35.0391 4.60385 35.5235 3.05992 36.4788 1.98343C37.4341 0.935257 38.82 0.382843 40.6096 0.382843C41.9147 0.382843 43.0853 0.666132 44.1348 1.19022L43.2199 3.71149C42.7355 3.49902 42.278 3.34321 41.8609 3.20157C41.4438 3.07409 41.0267 3.00327 40.6096 3.00327C38.9949 3.00327 38.1876 4.20725 38.1876 6.6152C38.1876 8.93817 38.9949 10.1138 40.6096 10.1138C41.7395 10.1199 42.8437 9.75885 43.7715 9.07982V11.8419C43.3101 12.1646 42.8008 12.4039 42.2646 12.5501C41.7533 12.6634 41.1074 12.7342 40.327 12.7342V12.7484ZM54.28 12.5359H45.3323V10.6096L50.5798 3.10242H45.6687V0.59531H54.1051V2.70581L49.0056 10.0288H54.28V12.5501V12.5359Z"
      fill="#205D89"/>
  </g>
</svg>
