<svg width="98" height="13" viewBox="0 0 98 13" fill="none" xmlns="http://www.w3.org/2000/svg">
  <title>Datart</title>
  <g>
    <path
      d="M29.3987 8.56619C29.1332 8.84043 28.6214 8.99679 28.0713 9.09505C27.0853 9.25128 26.0045 9.17316 26.0045 9.17316V4.31871C26.0045 4.31871 27.0471 4.18146 28.0713 4.39682C28.9057 4.57306 29.7211 4.98416 29.9867 5.82574C30.3658 6.88293 30.0625 7.97924 29.3988 8.56632L29.3987 8.56619ZM77.6599 1.79361H59.4933V9.8585L54.8473 1.73474H36.1876L32.6415 7.92036C32.9827 6.5502 32.6985 5.00366 31.826 3.73149C31.0675 2.57656 29.5886 2.0286 28.0714 1.77399C25.7199 1.36288 23.2737 1.69561 23.2737 1.69561V12.09C23.2737 12.09 26.0424 12.1291 28.0714 11.9721C28.3938 11.953 28.6972 11.9136 28.9816 11.8746C29.7594 11.7965 30.4228 11.5419 31.1056 11.1113C30.8781 11.4243 30.4417 12.09 30.4417 12.09H33.7415L37.3444 5.92399L40.5683 12.09H43.8296L39.6958 4.41645H44.5506V12.09H47.6036V4.41645H52.0979L48.3242 12.09H49.5949L54.2409 3.39864L59.209 12.1095H60.821V2.88967H62.8309C64.0444 2.88967 65.4288 3.04615 65.8649 4.0446C66.0357 4.4752 66.2633 5.76724 65.4859 6.64794C64.8409 7.19616 64.1013 7.41165 63.2293 7.47001C64.6135 9.1343 65.7702 10.4848 67.1543 12.1095H68.7094C68.7094 12.1095 66.5475 9.36903 65.4288 7.99886C66.1495 7.74438 66.775 7.29403 67.1543 6.5502C67.6095 5.39527 67.4768 3.79024 66.6424 2.88979H71.3642V12.1486H72.6916V2.83118H78.2478L77.6601 1.79374"
      fill="#FFB612"/>
    <path d="M0.783676 12.8529L21.074 6.88281L0.783676 0.892792V12.8528V12.8529Z" fill="#FFB612"/>
    <path d="M97.552 0.892792L77.2429 6.88281L97.552 12.8529V0.89292V0.892792Z" fill="#FFB612"/>
  </g>
</svg>
