<svg version="1.0" xmlns="http://www.w3.org/2000/svg" viewBox="0 0 745.79 113.39">
  <path d="M11.23.004H734.56c6.203 0 11.23 5.027 11.23 11.23v90.926c0 6.2-5.027 11.23-11.23 11.23H11.23C5.027 113.39 0 108.36 0 102.16V11.234C0 5.031 5.027.004 11.23.004" fill="#242d83"/>
  <path d="M362.691 61.77c0-8.145 3.301-20.13 13.442-20.13 6.61 0 8.527 4.993 8.527 9.985 0 8.145-3.305 20.129-13.441 20.129-6.61 0-8.528-4.992-8.528-9.984m-16.902-.387c0 15.828 9.45 24.047 24.969 24.047 18.668 0 30.805-14.98 30.805-33.418 0-16.75-9.45-24.047-24.965-24.047-18.672 0-30.809 14.98-30.809 33.418" fill="#fff"/>
  <path d="M362.887 61.68c0-8.004 3.246-19.782 13.203-19.782 6.488 0 8.375 4.91 8.375 9.817 0 8.004-3.242 19.777-13.203 19.777-6.489 0-8.375-4.906-8.375-9.812Zm-16.602-.38c0 15.555 9.281 23.634 24.524 23.634 18.336 0 30.257-14.723 30.257-32.84 0-16.461-9.28-23.633-24.523-23.633-18.336 0-30.258 14.723-30.258 32.84Zm0 0" fill="none" stroke-width="3.3030000000000004" stroke-linecap="round" stroke-linejoin="round" stroke="#fff" stroke-miterlimit="3.864"/>
  <path d="M692.348 43.332h6.222c5.688 0 9.91 1.996 9.91 10.215 0 5.07-2.535 16.516-13.597 16.516h-8.145Zm-25.504 40.793h27.117c19.055 0 30.5-12.371 31.422-30.656.922-17.899-11.754-24.2-21.817-24.2H678.29l-11.445 54.856" fill="#fff"/>
  <path d="M692.41 43.57h6.117c5.59 0 9.743 1.961 9.743 10.035 0 4.977-2.489 16.215-13.368 16.215h-8.004Zm-25.07 40.055H694c18.73 0 29.98-12.145 30.887-30.098.906-17.574-11.555-23.761-21.45-23.761H678.59Zm0 0" fill="none" stroke-width="3.3030000000000004" stroke-linecap="round" stroke-linejoin="round" stroke="#fff" stroke-miterlimit="3.864"/>
  <path d="M619.234 83.625h40.25l2.856-13.805h-23.73l8.257-40.054h-16.52l-11.113 53.859" fill="#fff"/>
  <path d="M619.234 83.625h40.25l2.856-13.805h-23.73l8.257-40.054h-16.52Zm0 0" fill="none" stroke-width="3.3030000000000004" stroke-linecap="round" stroke-linejoin="round" stroke="#fff" stroke-miterlimit="3.864"/>
  <path d="M507.063 29.766h-16.981L477.273 61.07h-.152V29.766h-14.555L449.602 61.07h-.153V29.766h-16.37l3.94 53.859h16.07l11.75-27.91h.153v27.91h16.07l26-53.86" fill="#fff"/>
  <path d="M507.063 29.766h-16.981L477.273 61.07h-.152V29.766h-14.555L449.602 61.07h-.153V29.766h-16.37l3.94 53.859h16.07l11.75-27.91h.153v27.91h16.07Zm0 0" fill="none" stroke-width="3.3030000000000004" stroke-linecap="round" stroke-linejoin="round" stroke="#fff" stroke-miterlimit="3.864"/>
  <path d="M521.09 61.77c0-8.145 3.3-20.13 13.441-20.13 6.606 0 8.528 4.993 8.528 9.985 0 8.145-3.305 20.129-13.446 20.129-6.605 0-8.523-4.992-8.523-9.984m-16.903-.387c0 15.828 9.45 24.047 24.965 24.047 18.668 0 30.809-14.98 30.809-33.418 0-16.75-9.45-24.047-24.969-24.047-18.668 0-30.804 14.98-30.804 33.418" fill="#fff"/>
  <path d="M521.281 61.68c0-8.004 3.246-19.782 13.207-19.782 6.489 0 8.375 4.91 8.375 9.817 0 8.004-3.246 19.777-13.203 19.777-6.488 0-8.379-4.906-8.379-9.812Zm-16.597-.38c0 15.555 9.28 23.634 24.523 23.634 18.336 0 30.258-14.723 30.258-32.84 0-16.461-9.281-23.633-24.524-23.633-18.336 0-30.257 14.723-30.257 32.84Zm0 0" fill="none" stroke-width="3.3030000000000004" stroke-linecap="round" stroke-linejoin="round" stroke="#fff" stroke-miterlimit="3.864"/>
  <path d="M587.008 42.332h9.14c4.38 0 5.688 2.61 5.688 4.762 0 3.304-2.613 6.144-8.223 6.144h-8.91Zm-25.352 41.793h16.594l3.992-19.133h7.301c4.687 0 6.836 2.153 6.836 4.996 0 2.766-.844 6.145-.844 8.758 0 2.457.074 3.992.692 5.379h16.132c-1.382-3.23-.77-8.836-.77-13.984 0-5.149-.69-9.832-5.683-11.215v-.156c7.914-1.305 12.828-7.145 12.828-15.133 0-11.598-7.757-14.367-17.898-14.367h-27.813l-11.367 54.855" fill="#fff"/>
  <path d="M587.063 42.59h8.984c4.3 0 5.586 2.566 5.586 4.68 0 3.242-2.567 6.03-8.078 6.03h-8.758Zm-24.91 41.035h16.304l3.926-18.781h7.172c4.605 0 6.718 2.113 6.718 4.902 0 2.715-.832 6.035-.832 8.602 0 2.414.075 3.922.68 5.277h15.852c-1.36-3.168-.754-8.672-.754-13.727 0-5.054-.68-9.656-5.586-11.011v-.153c7.773-1.285 12.605-7.015 12.605-14.859 0-11.39-7.625-14.11-17.59-14.11h-27.324Zm0 0" fill="none" stroke-width="3.3030000000000004" stroke-linecap="round" stroke-linejoin="round" stroke="#fff" stroke-miterlimit="3.864"/>
  <path d="M20.855 83.625h45.137L68.86 69.82H40.33l1.433-6.71h25.965l2.64-12.825H44.48l1.434-6.715H73.84l2.793-13.804H32.102L20.855 83.625" fill="#fff"/>
  <path d="M20.855 83.625h45.137L68.86 69.82H40.33l1.433-6.71h25.965l2.64-12.825H44.48l1.434-6.715H73.84l2.793-13.804H32.102Zm0 0" fill="none" stroke-width="3.3030000000000004" stroke-linecap="round" stroke-linejoin="round" stroke="#fff" stroke-miterlimit="3.864"/>
  <path d="M75.086 83.625h40.25l2.855-13.805h-23.73l8.262-40.054H86.199L75.086 83.625" fill="#fff"/>
  <path d="M75.086 83.625h40.25l2.855-13.805h-23.73l8.262-40.054H86.199Zm0 0" fill="none" stroke-width="3.3030000000000004" stroke-linecap="round" stroke-linejoin="round" stroke="#fff" stroke-miterlimit="3.864"/>
  <path d="M123.496 83.625h45.14l2.868-13.805h-28.531l1.433-6.71h25.965l2.64-12.825h-25.89l1.438-6.715h27.925l2.793-13.804h-44.53l-11.25 53.859" fill="#fff"/>
  <path d="M123.496 83.625h45.14l2.868-13.805h-28.531l1.433-6.71h25.965l2.64-12.825h-25.89l1.438-6.715h27.925l2.793-13.804h-44.53Zm0 0" fill="none" stroke-width="3.3030000000000004" stroke-linecap="round" stroke-linejoin="round" stroke="#fff" stroke-miterlimit="3.864"/>
  <path d="M215.715 63.188c-1.055 4.757-3.996 8.304-9.195 8.304-7.618 0-8.672-6.941-8.672-11.398 0-7.625 3.316-18.196 12.515-18.196 5.125 0 7.54 2.872 7.387 7.93h15.684c-.301-16.156-11.008-21.367-22.996-21.367-18.32 0-29.176 14.496-29.176 31.937 0 14.418 7.539 24.536 23.144 24.536 22.39 0 26.614-16.235 27.594-21.746h-16.285" fill="#fff"/>
  <path d="M215.715 63.188c-1.055 4.757-3.996 8.304-9.195 8.304-7.618 0-8.672-6.941-8.672-11.398 0-7.625 3.316-18.196 12.515-18.196 5.125 0 7.54 2.872 7.387 7.93h15.684c-.301-16.156-11.008-21.367-22.996-21.367-18.32 0-29.176 14.496-29.176 31.937 0 14.418 7.539 24.536 23.144 24.536 22.39 0 26.614-16.235 27.594-21.746Zm0 0" fill="none" stroke-width="3.3030000000000004" stroke-linecap="round" stroke-linejoin="round" stroke="#fff" stroke-miterlimit="3.864"/>
  <path d="M246.457 83.625h16.566l8.286-40.055h14.91l2.86-13.804H242.69l-2.863 13.804h14.91l-8.281 40.055" fill="#fff"/>
  <path d="M246.457 83.625h16.566l8.286-40.055h14.91l2.86-13.804H242.69l-2.863 13.804h14.91Zm0 0" fill="none" stroke-width="3.3030000000000004" stroke-linecap="round" stroke-linejoin="round" stroke="#fff" stroke-miterlimit="3.864"/>
  <path d="M294.45 85.305c1.452-2.68 3.113-4.657 3.113-4.657s-1.352.98-2.407 3.586c-.547 1.348-1.242 4.825.543 9.246 5.274 13.047 37.867.586 64.738-22.015 25.247-21.235 32.708-42.934 27.93-58.219-4.347-13.937-32.898-3.715-55.96 13.856-2.278 1.777-4.962 3.82-2.028 1.43 25.555-20.798 62.582-35.571 66.2-19.333 3.964 17.793-13.493 47.586-42.31 74.762-28.652 27.023-58.89 37.016-62.925 18.898-1.555-6.968.933-13.543 3.105-17.554" fill="#fff"/>
  <path d="M294.621 83.79c1.254-1.876 3.402-4.556 3.422-4.571 0 0-2.137 2.824-3.008 4.804-1.48 3.372-1.18 6.274-.71 8.149 3.87 15.512 37.863.582 64.734-22.02 25.242-21.23 32.707-42.93 27.933-58.218-4.402-14.098-32.879-1.7-54.402 14.93-5.418 4.222-5.375 4.003 0-.204C355.03 8.09 391.676-7.937 395.2 7.89c3.964 17.79-13.497 47.583-42.31 74.758-28.648 27.024-58.886 37.016-62.925 18.903-1.55-6.969 2.125-13.969 4.656-17.762" fill="#ef3a4f"/>
  <path d="M362.691 61.77c0-8.145 3.301-20.13 13.442-20.13 6.61 0 8.527 4.993 8.527 9.985 0 8.145-3.305 20.129-13.441 20.129-6.61 0-8.528-4.992-8.528-9.984m-16.902-.387c0 15.828 9.45 24.047 24.969 24.047 18.668 0 30.805-14.98 30.805-33.418 0-16.75-9.45-24.047-24.965-24.047-18.672 0-30.809 14.98-30.809 33.418" fill="#fff"/>
  <path d="M362.887 61.68c0-8.004 3.246-19.782 13.203-19.782 6.488 0 8.375 4.91 8.375 9.817 0 8.004-3.242 19.777-13.203 19.777-6.489 0-8.375-4.906-8.375-9.812Zm-16.602-.38c0 15.555 9.281 23.634 24.524 23.634 18.336 0 30.257-14.723 30.257-32.84 0-16.461-9.28-23.633-24.523-23.633-18.336 0-30.258 14.723-30.258 32.84Zm0 0" fill="none" stroke-width="3.3030000000000004" stroke-linecap="round" stroke-linejoin="round" stroke="#fff" stroke-miterlimit="3.864"/>
  <path d="M310.523 42.332h9.145c4.379 0 5.684 2.61 5.684 4.762 0 3.304-2.614 6.144-8.22 6.144h-8.913Zm-25.351 41.793h16.594l3.996-19.133h7.297c4.687 0 6.84 2.153 6.84 4.996 0 2.766-.848 6.145-.848 8.758 0 2.457.078 3.992.691 5.379h16.133c-1.383-3.23-.766-8.836-.766-13.984 0-5.149-.691-9.832-5.687-11.215v-.156c7.914-1.305 12.832-7.145 12.832-15.133 0-11.598-7.762-14.367-17.902-14.367h-27.809l-11.371 54.855" fill="#fff"/>
  <path d="M310.578 42.59h8.985c4.304 0 5.585 2.566 5.585 4.68 0 3.242-2.566 6.03-8.078 6.03h-8.754Zm-24.91 41.035h16.309l3.921-18.781h7.172c4.606 0 6.72 2.113 6.72 4.902 0 2.715-.83 6.035-.83 8.602 0 2.414.075 3.922.68 5.277h15.852c-1.36-3.168-.758-8.672-.758-13.727 0-5.054-.675-9.656-5.586-11.011v-.153c7.778-1.285 12.61-7.015 12.61-14.859 0-11.39-7.625-14.11-17.59-14.11H296.84Zm0 0" fill="none" stroke-width="3.3030000000000004" stroke-linecap="round" stroke-linejoin="round" stroke="#fff" stroke-miterlimit="3.864"/>
</svg>
