<svg xmlns="http://www.w3.org/2000/svg" width="400" height="210">
  <g fill-rule="evenodd">
    <path
      d="M212.28 81.776c-.007 2.327-.101 3.49-.344 4.253-.184.578-.541 1.736-.793 2.574-.531 1.764-.529 1.764-2.109 1.192-.996-.359-1.024-.365-3.677-.732-8.989-1.242-16.005 2.821-19.067 11.042-1.875 5.036-1.428 12.139.967 15.336.314.42.315.42.804-.013.269-.238.692-.569.94-.735.739-.496 4.306-3.442 5.374-4.438.987-.921.991-.931.761-1.756-.857-3.062 1.293-8.906 3.907-10.619 3.168-2.077 7.509.265 5.765 3.11-.503.821-3.127 4.496-3.343 4.682-.067.058-.838 1.011-1.714 2.118-3.334 4.212-11.442 12.458-14.975 15.229-.928.728-2.019 1.6-2.423 1.938-1.068.893-5.278 3.722-6.339 4.261-.5.253-.956.532-1.014.62-.16.244-3.672 1.92-5.567 2.657-2.55.992-4.938 1.539-6.717 1.539-.87 0-1.582.083-1.582.185 0 .488 2.64.607 3.53.16.312-.157.975-.298 1.474-.314 4.403-.141 14.459-6.092 22.144-13.103 2.418-2.206 2.415-2.205 3.283-1.756 3.781 1.956 10.49 1.853 14.894-.227 9.293-4.391 12.72-19.917 5.918-26.805-1.189-1.203-1.448-1.727-1.07-2.163.594-.685 1.508-4.967 1.508-7.063 0-2.061-.21-4.377-.397-4.376-.071.001-.133 1.442-.138 3.204m-102.301 7.228c-13.201 1.497-18.804 23.442-7.651 29.969 3.811 2.23 10.833 2.194 15.455-.079 3.63-1.786 7.522-7.422 7.182-10.402l-.07-.614-4.496-.057c-5.034-.063-5.138-.036-5.406 1.392-.224 1.195-2.025 2.87-3.289 3.059-4.851.728-6.751-4.173-4.263-10.996 1.807-4.952 8.946-5.769 8.946-1.024 0 1.193.097 1.219 4.743 1.219 4.99 0 4.776.099 4.586-2.127-.645-7.575-6.455-11.392-15.737-10.34m174.055.047c-3.889.514-8.259 3.367-10.658 6.957-4.086 6.116-4.331 15.293-.54 20.222 3.787 4.924 13.292 5.922 19.906 2.089 1.442-.836 4.397-3.719 5.103-4.979 3.994-7.131 4.106-15.71.264-20.339-2.725-3.284-7.972-4.757-14.075-3.95m-267.382.707c-.114.145-.264.547-.335.893-.07.347-.373 1.765-.673 3.152a116.43 116.43 0 00-.722 3.571 74.829 74.829 0 01-.631 3.046 68.674 68.674 0 00-.625 3.046 24.86 24.86 0 01-.391 1.891 56.983 56.983 0 00-.567 2.626 90.227 90.227 0 01-.573 2.731c-.123.52-.296 1.418-.383 1.996a25.434 25.434 0 01-.366 1.891c-.649 2.615-.915 4.062-.85 4.622l.073.63h25.209l.7-3.256c.386-1.791.717-3.635.736-4.097l.036-.84-7.493-.105c-8.436-.119-7.824-.002-7.515-1.438.304-1.421-.285-1.315 7.284-1.305 3.67.006 6.781-.06 6.913-.147.461-.302 1.422-4.773 1.433-6.669l.008-1.261-6.723-.105-6.722-.105.05-.821c.027-.451.194-1.041.371-1.31l.32-.489 7.403-.056 7.402-.055.248-.84c.26-.88.568-2.429.941-4.727.122-.751.313-1.537.424-1.747.522-.985.536-.984-12.537-.984-9.541 0-12.284.058-12.445.262m29.002 0c-.092.145-.294.925-.447 1.734-.448 2.362-.741 3.781-2.386 11.554a173.688 173.688 0 00-.788 3.887c-.091.52-.265 1.371-.388 1.891a94.856 94.856 0 00-.574 2.731c-.438 2.223-.82 4.05-1.282 6.119-.567 2.537-1.778 2.296 11.203 2.233l11.298-.054.271-1.05a53.98 53.98 0 00.559-2.521c.159-.809.406-2.05.55-2.758.427-2.111.856-1.969-5.943-1.973-3.268-.001-6.077-.089-6.242-.193-.304-.193-.11-1.529.948-6.526.159-.751.44-2.122.625-3.046.185-.925.434-2.106.554-2.626.121-.52.357-1.655.525-2.521l.49-2.521c.101-.52.33-1.624.509-2.453.499-2.314.807-2.169-4.621-2.169-3.523 0-4.734.065-4.861.262m26.011.109c-.11.206-.311.986-.447 1.735-.136.748-.372 1.88-.525 2.516-.153.635-.394 1.77-.537 2.521a196.9 196.9 0 01-.907 4.516c-.17.809-.459 2.275-.642 3.257-.182.982-.38 1.913-.438 2.07-.144.389-.718 3.055-.934 4.337-.32 1.906-1.654 8.073-1.796 8.302-.501.811-.107.837 12.685.834 13.489-.004 12.671.075 13.007-1.258.637-2.528 1.084-4.837 1.14-5.882l.061-1.155-7.458-.105-7.458-.105.009-1.102c.013-1.619-.323-1.547 7.161-1.531 7.957.018 7.24.287 7.842-2.935.248-1.328.541-2.757.65-3.175.571-2.18.917-2.077-6.938-2.077-7.18 0-6.891.063-6.466-1.399.41-1.41-.056-1.332 7.931-1.332 7.965 0 7.646.052 7.822-1.26.054-.405.206-1.161.336-1.681.583-2.323.908-4.146.842-4.727l-.071-.63-12.335-.054c-11.646-.052-12.345-.034-12.534.32m57.995-.102c-.215.258-.696 2.245-1.08 4.458a33.539 33.539 0 01-.435 2.044c-.422 1.667-.5 1.632 3.683 1.632 4.275 0 4.111-.092 3.695 2.085-.145.76-.339 1.916-.431 2.569-.092.652-.23 1.288-.307 1.412-.076.124-.276.96-.443 1.859-.546 2.935-.917 4.686-1.034 4.875-.063.102-.2.738-.304 1.414-.178 1.158-.43 2.426-1.16 5.839-.449 2.098-.665 2.006 4.711 2.006 5.173 0 4.948.074 5.241-1.711.102-.619.278-1.551.391-2.071a446.18 446.18 0 001.205-5.777c.187-.924.471-2.295.632-3.046.161-.751.39-1.886.508-2.521.118-.636.356-1.817.529-2.626.173-.809.406-1.977.518-2.596.318-1.749.175-1.694 4.569-1.759l3.886-.057.264-.84c.145-.462.361-1.408.481-2.101.119-.693.383-2.097.586-3.12.314-1.58.325-1.887.076-2.045-.502-.318-25.515-.243-25.781.077m29.077.198c-.177.271-.418 1.104-.534 1.851a34.91 34.91 0 01-.412 2.199 88.498 88.498 0 00-.52 2.416 697.88 697.88 0 01-.626 3.046c-.61 2.927-.985 4.756-1.302 6.354-.667 3.366-.964 4.808-1.178 5.726a78.97 78.97 0 00-.502 2.416c-.154.808-.477 2.396-.718 3.528-.545 2.567-.636 2.459 2.092 2.459 1.638 0 2.306.074 2.369.263.07.209.191.209.595.001.279-.143 1.354-.285 2.388-.315l1.881-.054.276-1.366c.152-.751.407-2.027.568-2.836 1.25-6.305 1.056-5.988 3.666-5.983 3.805.009 4.356.537 4.118 3.941-.24 3.442-.204 4.918.137 5.63l.294.614h9.028l-.054-.84c-.03-.463-.124-3.015-.21-5.673l-.156-4.832-.665-1.172c-.762-1.345-.74-1.417.626-2.093 4.753-2.348 5.638-10.91 1.444-13.957-2.246-1.631-2.378-1.649-12.894-1.737l-9.388-.079-.323.493m73.248-.328c-.35.141-.339 1.668.044 5.953.361 4.041.703 8.56.85 11.24.13 2.375.728 10.086.912 11.764l.138 1.261 4.306.059c5.691.079 5.009.427 6.496-3.315.253-.636.544-1.345.647-1.576.469-1.052 1.05-2.451 1.701-4.097.793-2.004 1.619-3.472 1.833-3.259.079.079.19 2.853.248 6.165l.105 6.023 4.552.057 4.552.056.437-.614c.241-.338.438-.676.438-.751 0-.129.66-1.534 3.311-7.046a2478.66 2478.66 0 002.465-5.147c.716-1.503 1.732-3.63 2.257-4.727.526-1.098 1.45-3.036 2.055-4.307a1149.15 1149.15 0 012.243-4.68c1.614-3.345 1.925-3.093-3.825-3.093h-4.829l-.36.735c-.324.661-.732 1.586-1.529 3.467-.578 1.363-2.483 6.184-3.087 7.81-1.202 3.24-1.432 2.304-1.432-5.818 0-5.318-.04-6.059-.333-6.172-.182-.07-2.059-.127-4.169-.127-4.524 0-4.109-.227-5.384 2.941-.488 1.213-.968 2.296-1.068 2.405a.853.853 0 00-.181.494c0 .162-.131.592-.29.956-.16.364-.64 1.513-1.066 2.553-.427 1.039-.91 2.188-1.075 2.552-.165.364-.3.753-.3.865 0 .287-.832 1.309-1.066 1.309-.115 0-.194-2.756-.194-6.785 0-4.998-.067-6.852-.253-7.038-.251-.252-8.55-.355-9.149-.113m75.167.362c-.19.5-1.518 6.601-1.904 8.742-.297 1.653-.782 4.065-1.014 5.043-.572 2.414-1.226 5.609-1.503 7.352-.12.752-.304 1.65-.409 1.996-.39 1.287-1.295 6.411-1.168 6.616.082.132 1.848.212 4.699.212 4.835 0 5.071-.046 5.071-.991 0-.267.136-1.028.302-1.691.166-.662.461-2.008.656-2.99.195-.982.509-2.4.698-3.152l.343-1.365 2.1-.065c4.332-.133 4.581.175 4.388 5.419-.197 5.349-.703 4.856 4.916 4.787l4.56-.057-.054-.735c-.029-.405-.053-2.39-.053-4.412-.001-4.133-.346-6.302-1.211-7.61-.639-.967-.531-1.279.622-1.809 5.949-2.737 5.776-12.431-.266-15l-1.559-.663-9.505-.082-9.505-.083-.204.538m30.705-.249c-.139.139-.252.44-.252.669 0 .23-.13.991-.29 1.691a304.73 304.73 0 00-.627 2.85c-.185.867-.439 2.048-.565 2.626a49.257 49.257 0 00-.406 2.164 39.317 39.317 0 01-.406 2.101c-.124.543-.421 1.933-.661 3.088a991.243 991.243 0 01-.723 3.466c-.678 3.216-.969 4.609-1.273 6.093a141.47 141.47 0 01-.645 2.965c-.178.764-.291 1.615-.252 1.891l.071.501 11.227.054c6.175.03 11.306-.024 11.402-.12.158-.158.939-3.678 1.449-6.535.324-1.816.753-1.697-6.116-1.697-7.081 0-6.524.23-5.999-2.477a740.005 740.005 0 011.871-9.288c1.78-8.46 2.01-9.747 1.787-10.015-.317-.382-9.211-.408-9.592-.027m25.956-.036c-.204.125-.368.478-.368.794 0 .312-.099.898-.22 1.302s-.352 1.443-.514 2.31c-.484 2.594-1.602 7.854-1.705 8.02-.053.086-.181.75-.285 1.477a37.918 37.918 0 01-.423 2.372 307.063 307.063 0 00-1.79 8.509c-.191.982-.452 2.15-.581 2.595-.13.445-.241 1.248-.247 1.785l-.012.977 8.106.055c12.93.088 15.894-.753 20.094-5.7 2.184-2.572 4.345-8.785 3.389-9.741-.343-.343-.364-4.228-.024-4.511 1.076-.892-1.167-5.755-3.553-7.698-3.004-2.448-3.75-2.598-13.411-2.692-5.505-.053-8.206-.007-8.456.146m-74.675 7.951c2.216 1.369 2.485 6.551.554 10.635-2.822 5.966-9.65 5.337-9.65-.889 0-7.103 4.892-12.344 9.096-9.746m-116.295.096c1.805.95 1.531 3.265-.504 4.245-.886.426-5.61.701-6.114.355-.349-.239.403-4.124.906-4.681.477-.526 4.672-.467 5.712.081m148.411-.024c.881.387 1.225.904 1.225 1.841 0 1.886-1.42 2.751-4.763 2.902-2.956.134-3.272.036-3.111-.961.37-2.308.788-3.839 1.095-4.011.575-.321 4.688-.152 5.554.229m55.899.571c4.2 1.297 3.205 10.148-1.407 12.51-1.521.778-6.084 1.095-6.336.44-.07-.183.178-1.822.552-3.641.374-1.82.758-3.767.854-4.327.095-.561.267-1.317.382-1.681.114-.364.271-1.134.347-1.712.272-2.055 2.268-2.621 5.608-1.589m-171.313 4.683c.232 4.35-2.735 9.014-5.945 9.345-2.018.209-2.816-.384-1.816-1.349.672-.648 4.271-5.163 5.804-7.28 1.656-2.289 1.869-2.367 1.957-.716"
      fill="#f6f8f9"/>
    <path
      d="M0 105.042v105.042h400V0H0v105.042m208.915-30.153c1.605.458 4.11 2.68 4.11 3.645 0 .311.098.896.216 1.299.586 1.988.153 5.504-1.207 9.801l-.343 1.083 1.245 1.364c1.634 1.791 2.321 3.131 3.027 5.904.46 1.805.578 5.981.215 7.582-.105.462-.292 1.313-.415 1.891-.251 1.183-.827 2.84-1.092 3.141-.096.11-.175.355-.175.545 0 .603-2.481 4.114-3.911 5.535-1.31 1.301-4.911 3.479-5.764 3.486a.926.926 0 00-.556.233c-1.15 1.151-9.278.874-12.114-.412l-1.425-.646-1.173 1.164c-5.194 5.152-14.598 11.335-20.015 13.16-3.518 1.186-3.996 1.283-6.38 1.299-6.098.042-9.976-6.134-7.378-11.749.16-.346.456-1.008.658-1.47.202-.462.404-.912.449-.998.044-.087-.772-.158-1.814-.158-3.121 0-3.388-.312-2.678-3.137.161-.643.44-1.879.62-2.745.18-.867.474-2.238.652-3.046.179-.809.325-1.734.325-2.055 0-.322.141-.924.315-1.339.173-.415.315-.942.315-1.171 0-.23.146-1.093.324-1.918.178-.825.458-2.162.621-2.971.163-.809.626-3.031 1.027-4.937.402-1.907.896-4.365 1.097-5.462.237-1.292.515-2.163.786-2.469l.42-.472 8.104.015c4.457.008 8.586.084 9.176.168l1.071.153 1.24-1.132a21.324 21.324 0 013.214-2.461c.185-.115.758-.541 1.273-.945.985-.772 2.678-1.891 2.862-1.891.059 0 .647-.35 1.305-.778a65.331 65.331 0 011.829-1.151c1.101-.65 6.952-3.533 7.17-3.533.115 0 .678-.227 1.252-.503 3.349-1.616 9.18-2.587 11.522-1.919m-9.335 3.577c-.289.166-.963.304-1.498.308-.6.005-1.072.128-1.233.323-.144.173-.57.315-.946.315s-.801.142-.945.315a1 1 0 01-.676.315c-.228 0-.666.127-.972.283-.307.156-.889.431-1.293.611-.405.18-1.357.62-2.118.977-.76.358-1.452.65-1.537.65-.085 0-.465.236-.843.525-.379.289-.775.525-.881.525-.383 0-2.324 1.14-3.81 2.238-.837.618-1.577 1.124-1.646 1.124-.068 0-.528.331-1.021.735-.494.404-.991.735-1.106.735-.115 0-.375.184-.578.409-.344.38.511 1.062 1.331 1.062.847 0 3.018 1.822 3.629 3.046 2.236 4.476.923 9.999-2.972 12.498-1.15.738-1.251 1.019-.665 1.861.679.975.872 2.392.872 6.392 0 4.338.261 6.29.814 6.085.188-.07 1.029-.606 1.869-1.191.84-.586 1.695-1.16 1.899-1.275.204-.116.669-.446 1.034-.735l.663-.526-.835-1.68c-3.462-6.97-1.07-17.299 5.181-22.371 1.264-1.026 4.363-2.734 4.958-2.734a.823.823 0 00.499-.196c.659-.648 6.52-.937 9.317-.459 1.854.316 1.811.356 2.001-1.838.341-3.934-1.127-8.587-2.565-8.131a.63.63 0 01-.671-.191c-.366-.441-4.487-.444-5.256-.005m-82.934 10.146c5.402.972 8.85 4.705 9.598 10.389.4 3.035.297 3.1-4.893 3.1-4.917 0-5.375-.147-5.381-1.721-.02-4.617-6.478-3.433-8.244 1.511-1.92 5.372-.453 10.061 3.153 10.079 1.694.009 3.827-1.968 3.827-3.546 0-.95.619-1.071 5.492-1.071 5.45 0 5.222-.059 5.222 1.343 0 3.546-3.588 8.731-7.358 10.634-5.085 2.567-12.219 2.461-16.399-.244-1.781-1.153-4.394-4.275-4.394-5.252 0-.121-.128-.518-.284-.882-.923-2.152-1.329-8.252-.676-10.168.181-.533.333-1.258.336-1.613.004-.355.146-.829.315-1.054.17-.224.312-.602.316-.84.003-.238.145-.616.315-.84.169-.225.308-.544.308-.71 0-1.8 5.38-7.047 8.352-8.145.548-.203 1.098-.444 1.221-.536.123-.092.785-.23 1.47-.307.686-.077 1.389-.222 1.562-.322.394-.228 4.524-.097 6.142.195m174.633.034c.807.138 1.563.325 1.68.416.117.091.467.226.777.3 8.808 2.102 10.376 18.138 2.598 26.577-4.244 4.605-12.626 6.634-18.262 4.421-4.104-1.612-5.846-3.343-7.703-7.65-1.412-3.277-.719-11.061 1.301-14.601.099-.173.27-.522.38-.776.778-1.794 3.694-5.071 5.576-6.265 1.454-.923 3.218-1.782 3.659-1.782.202 0 .437-.071.523-.158.73-.742 6.289-1.025 9.471-.482m-249.83.414c.84.319.844.554.073 4.532-.179.925-.425 2.011-.546 2.415-.121.404-.22.991-.22 1.306 0 .983-.334 1.027-8.044 1.071l-7.187.04-.39.8c-.527 1.079-.952 1.011 6.197.993 8.118-.021 7.685-.243 6.939 3.565a430.106 430.106 0 00-.784 4.096c-.226 1.284-.04 1.251-7.69 1.366l-7.003.105v1.68l7.187.021c8.854.024 8.399-.249 7.3 4.391-.164.693-.458 1.999-.652 2.901-.247 1.147-.483 1.731-.786 1.943-.584.41-25.099.459-25.507.051-.343-.343-.319-2.585.041-3.859.269-.953.574-2.331 1.181-5.343a890.76 890.76 0 011.135-5.567c.168-.809.446-2.179.618-3.046.315-1.593.596-2.888 1.414-6.513.247-1.097.523-2.515.613-3.151.09-.635.268-1.421.396-1.747.128-.325.232-.818.232-1.096 0-1.122.106-1.131 13.064-1.14 6.794-.005 12.128.075 12.419.186m13.981.143c.543.38.498 2.234-.095 3.969-.158.462-.288 1.136-.29 1.497-.002.361-.145 1.058-.318 1.549-.173.492-.315 1.216-.315 1.609 0 .394-.142 1.055-.315 1.47-.174.415-.32 1.097-.325 1.516-.005.42-.145 1.141-.312 1.603-.166.462-.303 1.077-.304 1.366-.001.5-.105 1.007-1.014 4.97-.578 2.515-1.001 2.341 5.695 2.333 6.454-.008 6.787.051 6.576 1.171a67.13 67.13 0 00-.315 1.925c-.105.693-.294 1.526-.421 1.852a3.864 3.864 0 00-.235 1.155c-.004.829-.722 2.989-1.066 3.206-.724.459-22.636.229-23.107-.242-.285-.286-.383-.558-.282-.788.085-.193.213-.871.284-1.507.071-.635.208-1.281.304-1.434.097-.153.257-.862.358-1.576.1-.713.328-1.958.507-2.767.546-2.459.97-4.546 1.243-6.105.143-.816.327-1.592.409-1.725.082-.133.237-.836.344-1.563.107-.727.389-2.172.626-3.212.238-1.04.526-2.493.641-3.228.116-.736.277-1.445.358-1.576.082-.131.209-.711.282-1.289.073-.577.24-1.475.371-1.995.13-.52.284-1.19.341-1.489.172-.898.736-1.003 5.476-1.018 3.731-.012 4.492.038 4.899.323m41.103-.204c.634.244.748 1.03.4 2.758-.18.894-.46 2.344-.621 3.222-.162.878-.415 1.966-.562 2.416l-.268.819-7.555.105-7.554.105-.189.8c-.262 1.107-.601 1.052 6.213 1.004 7.534-.054 7.389-.088 7.243 1.719-.115 1.427-.45 3.237-.902 4.881a28.648 28.648 0 00-.397 1.601c-.153.776-.799.841-7.954.802-6.494-.036-6.341-.062-6.556 1.107l-.143.779 7.217-.027c8.639-.032 8.849.029 7.919 2.289-.134.325-.314 1.112-.399 1.747a20.582 20.582 0 01-.376 1.996 20.222 20.222 0 00-.342 1.607c-.067.421-.315 1.012-.551 1.313l-.43.546h-25.17l-.355-.541c-.33-.505-.331-.643-.011-2.048.189-.829.678-3.115 1.088-5.079.409-1.964.893-4.28 1.075-5.147l.617-2.941.633-3.046c.192-.925.447-2.106.567-2.626.12-.52.296-1.371.391-1.891.45-2.473.829-4.336.941-4.622.068-.173.204-.87.303-1.549.116-.804.342-1.408.648-1.733l.469-.499h12.131c6.672 0 12.288.06 12.48.133m59.003.065c.912.347.89.993-.185 5.264-.16.635-.333 1.625-.384 2.199-.164 1.826-.457 1.944-4.598 1.844-3.983-.095-4.361.047-4.361 1.644 0 .428-.132 1.237-.294 1.799-.326 1.13-.71 2.967-.967 4.626-.092.596-.264 1.399-.382 1.786-.118.386-.33 1.317-.471 2.068-1.372 7.31-1.899 9.552-2.336 9.927-1.318 1.131-11.071.331-10.553-.866.082-.188.267-1.004.412-1.813.145-.809.468-2.369.719-3.466.251-1.098.535-2.469.633-3.047.097-.577.379-1.948.626-3.046.247-1.097.526-2.468.62-3.046.095-.578.274-1.476.398-1.996.685-2.878.924-4.172.805-4.365-.083-.134-1.436-.209-3.587-.2-4.454.02-4.554-.066-3.81-3.278.165-.713.441-1.957.614-2.766.834-3.907-.947-3.466 14.028-3.466 7.351 0 12.768.082 13.073.198m85.933.242l.56.44-.019 5.967c-.01 3.282.054 5.975.142 5.985.088.009.409-.606.714-1.367.304-.761.616-1.446.693-1.523.076-.076.138-.264.138-.418 0-.154.284-.88.631-1.614.346-.733.63-1.452.63-1.596 0-.144.127-.513.283-.82.385-.757.823-1.755 1.519-3.461.84-2.06.771-2.033 5.341-2.033 5.366 0 4.828-.73 4.847 6.577.016 6.559.107 7.288.693 5.567.209-.613.504-1.399.654-1.745a70.624 70.624 0 001.169-2.836c.249-.636.533-1.345.631-1.576 1.08-2.551 1.88-4.521 1.88-4.631 0-.075.195-.411.434-.746l.435-.61h4.597c6.502 0 6.787.328 4.19 4.831-.271.47-.939 1.848-1.527 3.152-.525 1.162-2.46 5.236-4.34 9.138a105.434 105.434 0 00-1.139 2.416 4.937 4.937 0 01-.321.631c-.107.173-.663 1.307-1.236 2.521l-2.033 4.306c-.545 1.156-1.147 2.432-1.336 2.836-.19.405-.577.996-.86 1.314l-.514.577H249.4l-.451-.574c-.437-.555-.45-.733-.396-5.563.056-5.035-.016-5.759-.463-4.657-.135.333-.37.889-.522 1.235-.151.347-.861 2.049-1.577 3.782-1.878 4.549-2.253 5.321-2.703 5.562-.505.27-8.611.29-9.313.023-.602-.229-.898-2.429-1.204-8.946-.097-2.08-.266-4.207-.374-4.727-.109-.52-.214-1.607-.233-2.416-.042-1.72-.343-6.164-.64-9.454-.577-6.397-.921-5.987 5.026-5.987 4.107 0 4.392.025 4.919.44m84.476-.081c1.618.248 3.944 1.324 4.771 2.208 3.866 4.129 2.689 11.769-2.197 14.265-.902.461-.944.615-.379 1.401.88 1.225 1.698 12.117.994 13.227-.174.273-8.353.393-9.31.136-1.12-.3-1.32-2.227-.796-7.65.21-2.168-.063-2.384-3.166-2.517-2.667-.115-2.726-.094-2.897 1.05-.328 2.177-.637 3.719-.814 4.06-.11.211-.251.872-.313 1.47-.131 1.259-.637 2.816-1.087 3.346-.32.377-8.689.581-9.594.234-.615-.236-.779-1.083-.439-2.26.17-.59.407-1.64.526-2.334.12-.693.5-2.631.846-4.306.346-1.676.822-3.992 1.057-5.147.236-1.156.62-2.999.854-4.097.233-1.098.572-2.705.751-3.572.179-.866.46-2.117.623-2.78.164-.663.297-1.473.297-1.801 0-.328.135-1.014.3-1.526a13.49 13.49 0 00.432-1.922c.259-1.94-.069-1.88 9.762-1.772 4.685.052 9.086.181 9.779.287m21.842.052c.41.453.372 1.089-.233 3.895-.439 2.041-.91 4.332-1.878 9.139-.174.867-.42 2.001-.546 2.521a28.51 28.51 0 00-.386 1.996c-.086.577-.27 1.428-.409 1.89-.139.463-.221 1.172-.182 1.576l.07.735 5.672.021c7.683.027 7.269-.279 6.082 4.496a25.975 25.975 0 00-.411 1.996c-.239 1.618-.726 2.785-1.216 2.916-.965.259-22.53.143-22.795-.122-.31-.309-.32-1.871-.02-3.004.122-.462.351-1.574.509-2.47.157-.896.339-1.715.403-1.819.064-.104.205-.741.313-1.416.109-.675.394-2.079.635-3.119.24-1.04.536-2.552.658-3.361.122-.809.309-1.56.416-1.67.107-.11.195-.547.195-.972 0-.424.142-1.173.315-1.665.173-.491.315-1.262.315-1.713 0-.452.142-1.161.315-1.575.174-.415.315-.984.315-1.263 0-.28.145-1.143.321-1.918.177-.775.47-2.071.652-2.879.496-2.208.501-2.22.989-2.417 1.039-.418 9.495-.246 9.901.202m31.94-.108c4.861.874 7.9 3.253 9.732 7.614.486 1.157.611 2.979.231 3.359-.22.219-.176 1.99.132 5.369.168 1.838-1.271 5.922-2.785 7.904-1.118 1.464-2.407 2.972-2.541 2.972-.083 0-.392.212-.686.472-1.572 1.392-4.649 2.767-7.451 3.331-2.254.454-18.452.502-18.899.056-.378-.379-.299-3.101.113-3.876.097-.182.241-.844.32-1.47.08-.627.274-1.458.432-1.848.159-.39.288-1.081.288-1.537 0-.456.107-1.028.238-1.272.13-.244.311-.97.4-1.614.209-1.496 1.202-6.438 1.46-7.263.108-.347.252-1.056.32-1.576s.252-1.465.409-2.101c.157-.635.432-1.864.611-2.731.179-.867.475-2.285.658-3.151l.425-2.014c.051-.242.307-.543.569-.669.768-.37 13.925-.333 16.024.045m-179.424 8.618c-.225.17-.565.312-.756.316-.474.009-2.139 1.898-2.707 3.07-.448.926-.657 1.595-1.046 3.344-.24 1.077-.26 3.828-.029 3.971.187.115 3.491-3.152 4.288-4.241.26-.355 1.016-1.346 1.68-2.202.665-.856 1.208-1.637 1.208-1.735 0-.098.182-.373.405-.612.788-.844.76-1.456-.085-1.859-.925-.441-2.409-.467-2.958-.052m84.622.139c-4.036 1.855-5.927 11.171-2.738 13.493 2.489 1.814 6.298-.492 7.583-4.591 1.99-6.345-.491-10.904-4.845-8.902m-117.442.169c-.263.186-.941 3.35-.798 3.724.129.335 2.166.313 4.639-.051 1.791-.264 2.798-2.04 1.832-3.233-.404-.499-5.075-.861-5.673-.44m148.394-.005c-.196.329-.751 2.858-.751 3.418v.635l1.838-.121c4.459-.292 5.061-.645 4.891-2.862-.075-.977-.4-1.092-3.248-1.145-1.461-.028-2.69.006-2.73.075m56.633.519c-.103.129-.299.755-.436 1.391s-.351 1.581-.474 2.101c-.124.52-.345 1.56-.491 2.311-.525 2.7-.736 3.697-1.063 5.019-.422 1.702-.349 1.758 2.118 1.626 2.155-.116 3.115-.356 4.103-1.028.794-.539 2.291-2.597 2.299-3.159.003-.208.157-.671.342-1.03.882-1.705.215-5.875-1.072-6.699-.839-.538-4.994-.953-5.326-.532m-168.309 5.428c-1.247 1.807-4.445 5.793-5.831 7.27-.433.46-.094.668 1.091.668.737 0 1.207-.108 1.379-.315.144-.174.426-.315.628-.315 1.02 0 3.574-4.115 3.574-5.76 0-.295.114-.963.253-1.484.421-1.573-.033-1.599-1.094-.064m-39.272 6.362c-.089.116-.322.919-.52 1.786-.197.866-.46 2.001-.584 2.521-.124.52-.303 1.418-.397 1.996-.57 3.488-.888 3.885-3.122 3.889-.873.002-1.717.086-1.875.186-.837.53.964 5.198 2.277 5.901 1.092.584 7.647-.083 8.504-.865.11-.101.358-.183.551-.183.194 0 .813-.195 1.376-.433l1.445-.611c1.339-.564 3.68-1.733 3.773-1.884.06-.097.37-.242.689-.321.319-.08.864-.36 1.21-.623.347-.264.843-.546 1.103-.628 1.2-.38.167-.537-3.864-.59l-4.337-.057-.439-.588c-.599-.804-.699-3.107-.251-5.787.552-3.303.263-3.661-3.082-3.814-1.412-.064-2.359-.024-2.457.105"
      fill="#044494"/>
    <path
      d="M203.783 74.994c-.172.109-.834.263-1.47.341-.637.078-1.344.271-1.572.429-.228.157-.571.286-.762.286-.319 0-2.614.847-4.391 1.62-2.096.913-6.509 3.211-8.198 4.27l-1.576.988c-.228.143-.698.417-1.045.609s-1.101.761-1.677 1.263c-.576.503-1.129.914-1.23.914-.197 0-1.155.731-2.069 1.578-.311.288-.62.523-.689.523-.216 0-1.583 1.32-1.583 1.529 0 .11.402-.146.893-.57.491-.423.992-.836 1.114-.917.701-.465 1.074-.691 1.354-.82.174-.081.41-.22.526-.311 1.592-1.251 2.382-1.767 5.462-3.57 2.439-1.428 6.195-3.324 6.584-3.324.127 0 .541-.174.92-.386 5.436-3.045 12.273-2.31 13.16 1.416.099.415.311 1.276.472 1.911.333 1.315.333 4.849.001 5.718-.243.635.123 1.208.779 1.222.194.004.584.136.867.293.779.431 1.003.217 1.496-1.422.249-.827.606-1.977.793-2.555.499-1.535.498-7.713-.002-8.613-.527-.95-1.639-1.886-2.703-2.277-1.059-.388-4.907-.49-5.454-.145m.209 23.76c0 .361-1.675 2.855-2.929 4.361-.584.703-1.063 1.363-1.063 1.466 0 .529-8.789 8.612-10.999 10.116a30.06 30.06 0 00-1.448 1.122c-1.386 1.134-6.881 4.769-7.208 4.769-.147 0-.299.073-.338.161-.108.248-2.689 1.73-3.014 1.73-.158 0-.343.09-.411.2-.184.298-2.32 1.344-4.658 2.281-3.312 1.328-3.837 1.511-4.344 1.511-.264 0-.588.108-.721.242-.515.515-5.296.496-6.355-.026-1.849-.91-2.39-1.834-2.487-4.243-.072-1.789-.133-2.078-.426-2.024-.459.084-1.873 2.974-2.037 4.16-.072.52-.234 1.25-.361 1.621-.174.51-.161 1.027.051 2.094 1.338 6.731 7.473 7.638 17.76 2.625 1.04-.507 1.938-.993 1.996-1.082.058-.088.514-.367 1.014-.62 1.061-.539 5.271-3.368 6.339-4.261a137.63 137.63 0 012.423-1.938c3.533-2.771 11.641-11.017 14.975-15.229.876-1.107 1.647-2.06 1.714-2.118.218-.188 2.842-3.864 3.353-4.697.624-1.019.437-2.295-.354-2.408-.266-.037-.472.044-.472.187"
      fill="#ea1c2e"/>
    <path
      d="M212.028 77.731c.144.405.34.793.436.863.394.289.427 5.744.045 7.463-.419 1.886-.961 3.66-1.207 3.954-.37.441-.111.963 1.075 2.163 6.802 6.888 3.375 22.414-5.918 26.805-4.404 2.08-11.113 2.183-14.894.227-.868-.449-.865-.45-3.283 1.756-7.685 7.011-17.741 12.962-22.144 13.103-.499.016-1.162.157-1.474.314-.867.435-2.388.342-4.113-.254-.858-.296-1.612-.487-1.674-.425-.063.063.065.169.284.237.219.068.722.283 1.119.478 4.998 2.456 18.284-4.008 29.359-14.284 1.074-.997 1.401-1.084 2.086-.559 2.874 2.203 11.543 1.6 16.142-1.123 8.345-4.94 11.145-19.385 5.037-25.983-1.424-1.537-1.544-1.887-1.054-3.061 1.49-3.565 1.729-10.174.427-11.779l-.512-.63.263.735m-11.923-.006a13.088 13.088 0 00-3.361.857c-.712.281 1.17-.014 2.305-.361.659-.201 1.94-.325 3.467-.335 1.83-.011 2.19-.054 1.476-.175-1.123-.189-2.175-.185-3.887.014m-4.884 1.273c-.26.105-.473.234-.473.287 0 .116 1.269-.232 1.429-.392.173-.173-.43-.106-.956.105m-2.737 1.183c-.379.187-.641.387-.583.445.058.058.226.011.373-.106.148-.116.552-.311.898-.433.347-.122.489-.227.315-.234-.173-.006-.625.141-1.003.328m-82.505 8.567c-8.284 1.41-13.761 8.594-13.76 18.05 0 10.232 6.644 15.554 17.239 13.811 6.158-1.012 12.069-7.087 11.712-12.035l-.065-.906-4.706-.057c-5.25-.063-5.318-.046-5.58 1.349-.36 1.92-2.929 3.504-5.039 3.108-4.605-.864-3.816-12.045 1.008-14.292 2.478-1.153 4.937-.168 5.249 2.102.26 1.903-.02 1.803 5.051 1.803 5.473 0 5.293.088 4.955-2.436-.74-5.53-3.848-9.204-8.611-10.18-.633-.13-1.547-.322-2.031-.428-1.155-.251-3.583-.201-5.422.111M200 88.655c-.289.093-.82.178-1.181.19-4.653.148-10.16 4.85-12.696 10.84-1.188 2.806-1.62 9.99-.746 12.395.76 2.089 1.749 4.016 1.955 3.809.05-.05-.197-.599-.548-1.221-2.009-3.56-2.225-9.915-.494-14.563 2.045-5.491 5.561-8.922 10.931-10.664 1.709-.555 8.761-.688 9.676-.183.269.149.647.202.84.119 1.051-.451-6.408-1.147-7.737-.722m84.139.106c-6.451 1.186-11.219 5.494-13.345 12.057-.804 2.484-1.168 7.61-.685 9.644.099.419.167-.83.172-3.151.013-6.948 2.272-11.85 7.142-15.498 4.933-3.697 13.745-4.009 18.69-.662 5.648 3.821 6.427 13.807 1.732 22.189-1.803 3.217-6.661 6.428-10.678 7.057-2.035.319-7.096.12-8.385-.329-4.417-1.54-6.446-3.49-7.982-7.673-.26-.708-.39-.912-.338-.525.501 3.662 4.626 7.703 8.684 8.506.666.132 1.495.31 1.841.396 1.031.255 6.598-.087 7.99-.492 9.961-2.895 15.385-16.288 10.494-25.91-2.159-4.248-9.04-6.765-15.332-5.609m-166.072.706c4.593 1.459 7.222 4.853 7.649 9.877.19 2.226.404 2.127-4.586 2.127-4.646 0-4.743-.026-4.743-1.219 0-4.745-7.139-3.928-8.946 1.024-2.488 6.823-.588 11.724 4.263 10.996 1.264-.189 3.065-1.864 3.289-3.059.268-1.428.372-1.455 5.406-1.392l4.496.057.07.614c.34 2.98-3.552 8.616-7.182 10.402-3.511 1.727-10.062 2.271-13.249 1.099-12.461-4.58-10.096-26.4 3.304-30.496 2.502-.765 7.868-.781 10.229-.03m-100.961-.211c-.699.13-.85.397-1.225 2.18-.201.955-.505 2.368-.676 3.14-.17.772-.389 1.859-.486 2.416-.097.557-.617 3.092-1.157 5.634-.54 2.542-1.114 5.357-1.275 6.256-.162.899-.346 1.717-.409 1.818-.062.102-.202.737-.31 1.413-.108.675-.405 2.125-.66 3.223-.586 2.522-.737 4.326-.397 4.735.299.36 24.121.469 25.054.114.448-.17.562-.461.967-2.468.253-1.252.56-2.67.684-3.151.123-.481.237-1.379.254-1.996l.03-1.12-7.455-.105c-8.323-.118-7.771 0-7.471-1.597l.134-.714h13.837l.324-.496c.179-.272.462-1.241.63-2.153.167-.912.449-2.32.625-3.129.641-2.932 1.178-2.709-6.821-2.836l-6.618-.105.042-.599c.024-.33.191-.826.373-1.103l.33-.504h7.228c8.02 0 7.726.052 7.972-1.408.199-1.188.73-3.76 1.106-5.367.521-2.225 1.637-2.033-12.206-2.097-6.611-.031-12.202-.023-12.424.019m28.954-.008c-.616.087-.754.398-1.184 2.664-.198 1.04-.445 2.221-.55 2.626-.104.404-.428 1.917-.719 3.361-.291 1.444-1.006 4.942-1.59 7.773-.584 2.831-1.342 6.518-1.686 8.194a175.03 175.03 0 01-.83 3.886c-.68 2.784-1.369 2.626 11.495 2.626 12.819 0 11.58.33 12.24-3.256.107-.578.387-1.985.623-3.128.595-2.874 1.11-2.649-6.089-2.649-6.724 0-6.389.082-6.064-1.485.106-.512.326-1.64.49-2.507.164-.867.393-2.001.509-2.521.115-.52.358-1.678.538-2.574.428-2.123.828-4.034 1.57-7.51.845-3.951.955-4.911.6-5.206-.268-.222-8.118-.469-9.353-.294m83.404.396c-.26.255-.472.68-.471.945.001.265-.148 1.144-.331 1.953l-.65 2.855c-.173.762-.284 1.66-.246 1.996l.07.611 3.738.058c4.574.07 4.329-.374 2.98 5.404-.541 2.321-1.421 6.715-1.493 7.458l-.071.736.215-.631c.233-.682.656-2.619 1.137-5.205.167-.899.367-1.735.443-1.859.077-.124.215-.76.307-1.412.092-.653.286-1.809.431-2.569.416-2.177.58-2.085-3.695-2.085-4.183 0-4.105.035-3.683-1.632.139-.547.334-1.467.435-2.044.384-2.213.865-4.2 1.08-4.458.266-.32 25.279-.395 25.781-.077.249.158.238.465-.076 2.045a154.232 154.232 0 00-.586 3.12c-.12.693-.336 1.639-.481 2.101l-.264.84-3.886.057c-4.394.065-4.251.01-4.569 1.759-.112.619-.345 1.787-.518 2.596-.173.809-.411 1.99-.529 2.626-.118.635-.347 1.77-.508 2.521-.161.751-.445 2.122-.632 3.046a446.18 446.18 0 01-1.205 5.777c-.113.52-.289 1.452-.391 2.071-.293 1.785-.068 1.711-5.241 1.711-5.376 0-5.16.092-4.711-2.006.813-3.801.983-4.664 1.055-5.347l.078-.735-.211.63c-.116.347-.502 2.092-.858 3.878l-.647 3.248.457.37c.404.327.958.369 4.8.362 4.914-.009 5.182-.079 5.399-1.396.071-.434.253-1.357.405-2.05.151-.694.436-2.064.632-3.046l.673-3.362c.174-.866.446-2.143.605-2.836.16-.693.487-2.292.727-3.554.241-1.261.48-2.361.531-2.444.051-.083.185-.798.297-1.59.282-1.995.225-1.971 4.651-1.971h3.718l.31-.788c.171-.433.377-1.26.458-1.838.08-.578.229-1.381.33-1.786.778-3.114.879-3.83.585-4.124-.243-.244-2.467-.302-13.098-.343l-12.804-.049-.473.463m29.291-.108c-.441.395-.606.856-.892 2.481-.46 2.622-.542 3.033-1.461 7.353-.771 3.622-.872 4.116-1.344 6.617a74.83 74.83 0 01-.53 2.521c-.388 1.676-.898 4.212-1.056 5.253-.07.462-.208 1.076-.307 1.365-.098.289-.349 1.447-.558 2.574-.477 2.576-.493 2.556 2.183 2.623 1.121.028 2.156.096 2.3.151.145.056.263-.038.263-.207 0-.253-.417-.309-2.299-.309-2.747 0-2.654.109-2.109-2.459.241-1.132.564-2.72.718-3.528a78.97 78.97 0 01.502-2.416c.214-.918.511-2.36 1.178-5.726.317-1.598.692-3.427 1.302-6.354.169-.809.45-2.18.626-3.046.175-.867.409-1.954.52-2.416a34.91 34.91 0 00.412-2.199c.116-.747.356-1.579.533-1.849l.321-.491 9.138.035c5.026.019 9.196-.023 9.267-.094.071-.071-3.85-.129-8.712-.129-4.863 0-8.979-.053-9.148-.118-.168-.064-.549.101-.847.368m179.585-.31c-.79.189-1.009.894-2.201 7.098a509.28 509.28 0 01-.815 3.991c-.36 1.733-.947 4.569-1.305 6.303-.358 1.733-.978 4.711-1.379 6.617-1.197 5.702-1.293 6.502-.82 6.849.508.371 22.422.338 22.794-.034.206-.206.896-3.157 1.569-6.71.402-2.123.792-1.995-6.078-1.995-6.967 0-6.895.038-5.886-3.141.068-.215.212-.896.319-1.514.107-.617.531-2.73.944-4.694 1.738-8.281 2.423-11.941 2.305-12.314-.118-.371-.394-.396-4.297-.396-2.293 0-4.296-.036-4.45-.08-.154-.044-.469-.035-.7.02m25.408.224c-.364.191-.513.446-.513.879 0 .336-.092.854-.206 1.152-.113.298-.298 1.084-.412 1.747-.113.662-.55 2.812-.971 4.776-.421 1.964-.892 4.305-1.047 5.201-.155.897-.33 1.707-.388 1.801-.058.095-.202.732-.32 1.417a66.612 66.612 0 01-.545 2.716c-1.848 8.228-2.206 10.564-1.676 10.952 1.087.794 17.686.285 20.701-.636 4.966-1.516 9.515-6.087 10.737-10.789l.383-1.471c.274-1.054.269-2.645-.01-2.924-.227-.227-.156-3.163.123-5.111.305-2.129-2.056-6.083-4.625-7.744-2.869-1.856-3.481-1.984-9.874-2.065a1774.63 1774.63 0 01-8.153-.119c-1.871-.036-2.848.031-3.204.218M71.347 90c-.186.393-.33.984-.32 1.313.015.474.078.385.3-.426.155-.564.365-1.108.467-1.21.103-.103 5.603-.161 12.462-.13l12.278.054.071.63c.066.581-.259 2.404-.842 4.727-.13.52-.282 1.276-.336 1.681-.176 1.312.143 1.26-7.822 1.26-7.987 0-7.521-.078-7.931 1.332-.425 1.462-.714 1.399 6.466 1.399 7.855 0 7.509-.103 6.938 2.077-.109.418-.402 1.847-.65 3.175-.602 3.222.115 2.953-7.842 2.935-7.484-.016-7.148-.088-7.161 1.531l-.009 1.102 7.458.105 7.458.105-.061 1.155c-.056 1.045-.503 3.354-1.14 5.882-.336 1.333.482 1.254-13.007 1.258-12.792.003-13.186-.023-12.685-.834.142-.229 1.476-6.396 1.796-8.302.216-1.282.79-3.948.934-4.337.058-.157.256-1.088.438-2.07.183-.982.463-2.4.621-3.151.159-.752.346-1.65.417-1.996.07-.347.272-1.259.448-2.027.176-.769.288-1.619.25-1.891-.038-.272-.233.31-.433 1.292-.199.982-.555 2.683-.791 3.781a471.824 471.824 0 00-.832 3.992c-1.541 7.614-2.185 10.696-2.854 13.644l-.355 1.565.471.382c.663.536 24.763.579 25.298.044.351-.351.56-1.046 1.072-3.555.188-.925.487-2.321.663-3.102.495-2.189 1.022-2.045-7.53-2.045-8.142 0-7.74.077-7.387-1.416l.187-.79 6.967-.105c7.739-.117 7.241 0 7.606-1.786.142-.693.43-2.111.641-3.151.21-1.04.445-2.138.522-2.439.308-1.207.128-1.238-7.18-1.238h-6.63l.141-.882c.241-1.505-.181-1.429 7.896-1.429 8.35 0 7.546.23 8.071-2.311l.653-3.151c.787-3.78 2.331-3.361-12.384-3.361H71.687l-.34.714m160.293-.382c-.203.529-.15 2.373.179 6.249.169 1.984.415 5.168.548 7.074.133 1.907.319 4.128.412 4.937.433 3.745-.104-5.065-.75-12.29-.408-4.573-.403-5.8.026-5.965.661-.253 8.813-.141 9.079.125.186.186.253 2.04.253 7.038 0 4.029.079 6.785.194 6.785.234 0 1.066-1.022 1.066-1.309 0-.112.135-.501.3-.865.165-.364.648-1.513 1.075-2.552.426-1.04.906-2.189 1.066-2.553.159-.364.29-.794.29-.956 0-.162.082-.384.181-.494.1-.109.58-1.192 1.068-2.405 1.275-3.168.86-2.941 5.384-2.941 2.11 0 3.987.057 4.169.127.293.113.333.854.333 6.172 0 8.122.23 9.058 1.432 5.818.604-1.626 2.509-6.447 3.087-7.81.797-1.881 1.205-2.806 1.529-3.467l.36-.735h4.829c5.75 0 5.439-.252 3.825 3.093a1149.15 1149.15 0 00-2.243 4.68 2371.47 2371.47 0 01-2.055 4.307c-.525 1.097-1.541 3.224-2.257 4.727a2478.66 2478.66 0 01-2.465 5.147c-2.651 5.512-3.311 6.917-3.311 7.046 0 .075-.197.413-.438.751l-.437.614-4.552-.056-4.552-.057-.105-6.023c-.058-3.312-.169-6.086-.248-6.165-.214-.213-1.04 1.255-1.833 3.259a108.725 108.725 0 01-1.701 4.097c-.103.231-.394.94-.647 1.576-1.487 3.742-.805 3.394-6.496 3.315l-4.306-.059-.159-1.576c-.088-.866-.297-2.993-.466-4.727-.327-3.354-.305-2.277.075 3.833.192 3.077-.127 2.876 4.709 2.96 5.998.104 4.963 1.014 8.437-7.423 2.474-6.01 2.448-6.023 2.414 1.177-.032 7.009-.584 6.281 4.764 6.281 5.238 0 4.83.208 6.507-3.304l2.183-4.574c.442-.924 1.568-3.268 2.503-5.208.935-1.94 1.701-3.562 1.701-3.605 0-.043.745-1.623 1.657-3.511 4.264-8.832 4.664-9.723 4.603-10.246l-.063-.539h-10.083l-.35.735c-.876 1.838-1.486 3.255-2.054 4.77-.337.901-1.093 2.804-1.679 4.23-.586 1.426-1.066 2.703-1.068 2.836-.002.134-.096.386-.21.559-.504.767-.621-.481-.624-6.648-.003-5.578-.043-6.347-.336-6.46-1.743-.669-9.121-.02-9.121.803 0 .089-.135.46-.3.824-.293.647-.645 1.493-2.853 6.859a193.938 193.938 0 01-1.38 3.288c-.164.364-.299.761-.299.881 0 .371-.457.523-.655.217-.104-.159-.18-3.011-.169-6.338.015-4.445-.048-6.131-.234-6.355-.396-.477-9.555-.452-9.739.026m75.323.035c-.161.304-1.299 5.479-1.929 8.771-.528 2.759-.947 4.784-1.996 9.664-.199.925-.479 2.295-.623 3.046-.944 4.934-1.393 7.113-1.572 7.637-.509 1.485.11 1.658 5.607 1.568 4.981-.081 4.366.461 5.429-4.793 1.223-6.04 1-5.664 3.373-5.669 3.345-.006 4.156.612 3.988 3.041-.553 7.985-.919 7.489 5.494 7.451 4.85-.029 4.369.551 4.288-5.181-.074-5.227-.315-6.886-1.187-8.171-.613-.904-.589-.964.625-1.552 4.721-2.285 5.87-10.562 1.944-14.009-1.082-.95-2.982-1.776-4.552-1.979-2.944-.38-18.672-.233-18.889.176m-265.378.144c.17.205.186.425.049.683-.111.21-.302.996-.424 1.747-.373 2.298-.681 3.847-.941 4.727l-.248.84-7.402.055-7.403.056-.32.489c-.177.269-.344.859-.371 1.31l-.05.821 6.722.105 6.723.105-.008 1.261c-.011 1.896-.972 6.367-1.433 6.669-.132.087-3.243.153-6.913.147-7.569-.01-6.98-.116-7.284 1.305-.309 1.436-.921 1.319 7.515 1.438l7.493.105-.036.84c-.019.462-.35 2.306-.736 4.097l-.7 3.256H10.609l-.073-.63c-.065-.56.201-2.007.85-4.622.114-.462.279-1.313.366-1.891.087-.578.26-1.476.383-1.996.124-.52.381-1.749.573-2.731.191-.982.446-2.164.567-2.626a24.86 24.86 0 00.391-1.891c.095-.577.376-1.948.625-3.046.249-1.098.533-2.468.631-3.046.098-.578.423-2.185.722-3.571.3-1.387.603-2.805.673-3.152.248-1.217-.438-1.155 12.78-1.155 10.38 0 12.276.046 12.488.301m13.749.03c.07.182-.019 1.009-.198 1.838-.179.829-.408 1.933-.509 2.453l-.49 2.521a89.191 89.191 0 01-.525 2.521c-.12.52-.369 1.701-.554 2.626-.185.924-.466 2.295-.625 3.046-1.058 4.997-1.252 6.333-.948 6.526.165.104 2.974.192 6.242.193 6.799.004 6.37-.138 5.943 1.973a522.48 522.48 0 00-.55 2.758 53.98 53.98 0 01-.559 2.521l-.271 1.05-11.298.054c-12.981.063-11.77.304-11.203-2.233.462-2.069.844-3.896 1.282-6.119.193-.983.451-2.212.574-2.731.123-.52.297-1.371.388-1.891.091-.52.445-2.269.788-3.887 1.645-7.773 1.938-9.192 2.386-11.554.153-.809.355-1.589.447-1.734.281-.437 9.511-.372 9.68.069m122.607-.135c.173.101.788.339 1.366.528 6.016 1.977 6.417 12.145.591 15.023-1.366.676-1.388.748-.626 2.093l.665 1.172.156 4.832c.086 2.658.18 5.21.21 5.673l.054.84h-9.028l-.294-.614c-.336-.7-.403-2.408-.191-4.848l.145-1.681-.292 1.576c-1.023 5.511-.498 6.137 5.092 6.072 2.186-.026 4.067.01 4.18.08.42.26.917-.996.697-1.761-.112-.392-.204-2.481-.204-4.642 0-4.17-.222-5.657-1.043-6.985-.563-.911-.625-.793.991-1.875 2.576-1.725 3.634-3.643 3.789-6.871.22-4.549-1.292-7.103-4.946-8.357-1.378-.473-1.842-.563-1.312-.255m149.984.595c6.042 2.569 6.215 12.263.266 15-1.153.53-1.261.842-.622 1.809.865 1.308 1.21 3.477 1.211 7.61 0 2.022.024 4.007.053 4.412l.054.735-4.56.057c-5.619.069-5.113.562-4.916-4.787.193-5.244-.056-5.552-4.388-5.419l-2.1.065-.343 1.365c-.189.752-.503 2.17-.698 3.152-.195.982-.49 2.328-.656 2.99-.166.663-.302 1.424-.302 1.691 0 .945-.236.991-5.071.991-2.851 0-4.617-.08-4.699-.212-.127-.205.778-5.329 1.168-6.616.105-.346.289-1.244.409-1.996.277-1.743.931-4.938 1.503-7.352.232-.978.717-3.39 1.014-5.043.386-2.141 1.714-8.242 1.904-8.742l.204-.538 9.505.083 9.505.082 1.559.663m19.524-.512c.223.268-.007 1.555-1.787 10.015a740.005 740.005 0 00-1.871 9.288c-.525 2.707-1.082 2.477 5.999 2.477 6.869 0 6.44-.119 6.116 1.697-.51 2.857-1.291 6.377-1.449 6.535-.096.096-5.227.15-11.402.12l-11.227-.054-.071-.501c-.039-.276.074-1.127.252-1.891.177-.764.468-2.099.645-2.965.304-1.484.595-2.877 1.273-6.093.159-.751.484-2.311.723-3.466.24-1.155.537-2.545.661-3.088.125-.543.307-1.488.406-2.101.098-.612.281-1.586.406-2.164.126-.578.38-1.759.565-2.626.186-.867.468-2.149.627-2.85.16-.7.29-1.461.29-1.691 0-.866.301-.921 5.058-.921 3.535 0 4.606.062 4.786.279m34.213.312c2.761.936 4.644 2.325 6.032 4.451 1.459 2.234 2.206 4.865 1.539 5.418-.34.283-.319 4.168.024 4.511.956.956-1.205 7.169-3.389 9.741-4.2 4.947-7.164 5.788-20.094 5.7l-8.106-.055.012-.977c.006-.537.117-1.34.247-1.785.129-.445.39-1.613.581-2.595.495-2.55 1.073-5.301 1.79-8.509.129-.577.319-1.645.423-2.372.104-.727.232-1.391.285-1.477.103-.166 1.221-5.426 1.705-8.02.162-.867.393-1.906.514-2.31.121-.404.22-.99.22-1.302 0-1.004.185-1.024 8.824-.94 7.553.074 8.174.108 9.393.521M70.641 92.915c-.374 1.42-.321 2.178.075 1.098.17-.463.282-1.123.248-1.469-.055-.566-.086-.53-.323.371m129.028 4.604c-2.579 1.462-3.788 3.547-4.419 7.625-.318 2.058-.252 3.89.141 3.89.241 0 .242.048-.013-.842-.601-2.092.934-7.425 2.669-9.276 1.691-1.803 5.276-2.081 6.414-.496.1.139.156.127.158-.034.014-1.132-3.42-1.734-4.95-.867m85.231-.077c-1.149.483-2.589 1.825-3.162 2.947-.644 1.263-.521 1.338.223.136 2.463-3.98 7.314-4.427 8.379-.771 1.882 6.454-2.874 13.959-7.682 12.123-2.048-.782-2.926-5.377-1.701-8.897.403-1.158.369-1.758-.041-.728-1.737 4.359-.785 9.221 1.949 9.958 3.588.966 6.669-1.744 7.792-6.853 1.306-5.939-1.448-9.724-5.757-7.915m-117.769.236c-.503.557-1.255 4.442-.906 4.681.504.346 5.228.071 6.114-.355 2.035-.98 2.309-3.295.504-4.245-1.04-.548-5.235-.607-5.712-.081m148.569-.172c-.307.172-.725 1.703-1.095 4.011-.161.997.155 1.095 3.111.961 3.82-.173 5.694-1.817 4.536-3.98-.499-.933-5.346-1.667-6.552-.992m-142.445.904c.716.833.578 2.077-.321 2.88-1.232 1.101-6.369 1.434-6.512.422-.085-.596.562-3.383.876-3.781.499-.629 5.338-.241 5.957.479m147.787-.505c1.367.38 1.587 2.418.371 3.441-.733.617-2.844 1.013-4.925.923l-1.467-.063-.067-.696c-.058-.607.464-3.224.731-3.663.143-.236 4.47-.188 5.357.058m50.955.443c-.172.273-.375.969-.452 1.547-.076.578-.233 1.348-.347 1.712-.115.364-.287 1.12-.382 1.681-.096.56-.48 2.507-.854 4.327-.374 1.819-.622 3.458-.552 3.641.252.655 4.815.338 6.336-.44 4.612-2.362 5.607-11.213 1.407-12.51-1.738-.537-4.807-.511-5.156.042m4.665.143c2.151.564 2.616 1.295 2.718 4.268.19 5.539-2.535 8.586-7.677 8.586-2.261 0-2.25.022-1.617-3.05.285-1.385.656-3.258.824-4.163.168-.905.354-1.725.414-1.821.059-.097.242-.945.407-1.887.164-.941.411-1.847.549-2.013.344-.415 2.656-.372 4.382.08m-172.779 5.214c-1.533 2.117-5.132 6.632-5.804 7.28-1 .965-.202 1.558 1.816 1.349 3.21-.331 6.177-4.995 5.945-9.345-.088-1.651-.301-1.573-1.957.716m1.488 1.209c-.181.72-.329 1.429-.329 1.573 0 2.265-3.4 5.698-5.644 5.698-1.869 0-1.875-.156-.078-2.239.782-.906 2.41-2.971 3.618-4.589 2.849-3.814 3.299-3.896 2.433-.443m-40.853 5.038c-.226.272-.749 2.395-1.404 5.699-.161.809-.416 2.085-.568 2.836l-.276 1.366-2.074.105c-1.486.075-2.101.186-2.168.39-.067.202.028.245.327.15.232-.073 1.183-.156 2.114-.184 2.067-.063 2.165-.209 2.857-4.243.348-2.024 1.23-5.694 1.426-5.934.823-1.004 5.527.015 6.058 1.313.168.411.172.411.185-.02.041-1.362-5.52-2.631-6.477-1.478m-6.527 13.078c-.014.781.247 1.757.438 1.639.101-.063.187.01.191.161.007.278.925 1.431 1.14 1.431.064 0-.168-.393-.515-.872-.347-.48-.632-.989-.632-1.132 0-.506-.613-1.715-.622-1.227"
      fill="#7ca4cc"/>
    <path
      d="M206.145 74.725c.202.052.533.052.735 0 .202-.053.037-.096-.367-.096-.405 0-.57.043-.368.096m-5.935 1.024c-.507.191-.601.281-.303.29.238.006.616-.127.841-.297.479-.362.435-.362-.538.007m11.283 1.001c.714.789 1.337 1.64 1.386 1.891.085.435.09.433.118-.036.033-.582-.338-1.079-1.754-2.35-1.01-.907-1.001-.889.25.495m-13.069-.377c-.525.253-.542.282-.105.175.596-.145 1.265-.486.946-.482-.116.002-.494.14-.841.307m2.206 1.606c-2.29.282-4.658.925-6.827 1.851-.578.247-1.287.549-1.576.67a8.59 8.59 0 00-.84.408 5.806 5.806 0 01-.631.316c-1.521.625-1.89.812-1.89.959 0 .094-.183.17-.406.17-.222 0-.547.142-.72.315-.173.173-.367.315-.43.315s-.425.197-.803.437c-.578.367-.604.413-.162.29.288-.08.826-.371 1.194-.646.367-.276.738-.501.823-.501.085 0 .777-.292 1.537-.65.761-.357 1.713-.797 2.118-.977.404-.18.986-.455 1.293-.611.306-.156.744-.283.972-.283a1 1 0 00.676-.315c.144-.173.569-.315.945-.315s.802-.142.946-.315c.161-.195.633-.318 1.233-.323.535-.004 1.209-.142 1.498-.308.782-.447 4.774-.432 5.273.019.279.253.462.28.752.112.354-.207.349-.223-.073-.229-.25-.004-.486-.095-.525-.203-.09-.252-2.88-.371-4.377-.186m12.464 4.269c-.002 2.051.051 2.719.176 2.206.238-.976.245-3.726.012-4.517-.129-.438-.186.268-.188 2.311m-4.963 2.416c.064.866.152 1.615.195 1.663.146.165.053-1.558-.13-2.398-.135-.623-.152-.433-.065.735m-25.148.008c-.52.457-1.025.831-1.122.832-.097 0-.453.213-.789.473-1.773 1.368-2.307 1.838-2.087 1.838.134 0 .497-.235.808-.523.917-.85 1.872-1.578 2.071-1.578.102 0 .655-.421 1.23-.936.575-.514.997-.936.94-.936-.058 0-.531.373-1.051.83m-.356 1.163l-.589.54.683-.475c.375-.261.682-.504.682-.54 0-.166-.232-.024-.776.475m30.001.92c-.153.597-.234 1.129-.18 1.184.141.141.639-1.723.54-2.02-.045-.137-.207.24-.36.836m-4.588.64c0 .52.041.733.091.473.051-.26.051-.686 0-.946-.05-.26-.091-.047-.091.473m-27.578-.105c-.144.173-.351.315-.461.315-.109 0-.344.145-.521.322-.178.178-.483.271-.68.209-.231-.073-.577.129-.976.571l-.618.684.642-.578c.844-.76 1.172-.745.438.021l-.573.599 1.427.48c3.787 1.274 5.28 3.779 5.056 8.484-.056 1.17-.027 1.939.063 1.708 1.339-3.409-1.623-10.189-4.451-10.189-.82 0-1.675-.682-1.331-1.062.203-.225.473-.41.6-.412.244-.003 2.003-1.446 1.779-1.459-.073-.005-.25.134-.394.307m-69.958 1.145c-.212.139.29.164 1.533.077 7.778-.547 13.035 3.482 14.006 10.733.341 2.544.526 2.456-5.018 2.387l-4.533-.056-.251-.736c-.215-.63-.252-.66-.26-.21-.021 1.288.645 1.471 5.37 1.471 5.19 0 5.293-.065 4.893-3.1-.748-5.684-4.196-9.417-9.598-10.389-1.712-.309-5.764-.425-6.142-.177m89.181.012c-.231.101-.962.243-1.625.316-.663.072-1.259.22-1.325.327-.067.108-.269.196-.45.196-.621 0-3.695 1.685-4.979 2.729-1.785 1.453-4.343 4.63-4.327 5.377.002.106.298-.281.658-.858 3.301-5.305 8.346-7.984 15.034-7.983 1.296 0 2.194-.065 1.996-.143-.523-.208-4.488-.177-4.982.039m12.223.791c-.527 1.47-.474 1.64.996 3.228 7.73 8.349 1.325 26.048-10.173 28.113l-.945.17.84.023c.462.013 1.111-.117 1.442-.29.331-.173.709-.315.84-.317.778-.008 4.441-2.258 5.677-3.486 1.43-1.421 3.911-4.932 3.911-5.535 0-.19.079-.435.175-.545.265-.301.841-1.958 1.092-3.141.123-.578.31-1.429.415-1.891.363-1.601.245-5.777-.215-7.582-.706-2.773-1.393-4.113-3.027-5.904l-1.245-1.364.386-1.137c.213-.625.342-1.181.287-1.236-.055-.054-.26.348-.456.894m71.668-.612c-.887.19-1.683.415-1.768.502-.086.087-.321.158-.523.158-.441 0-2.205.859-3.659 1.782-1.882 1.194-4.798 4.471-5.576 6.265-.11.254-.281.603-.38.776-2.02 3.54-2.713 11.324-1.301 14.601 1.857 4.307 3.599 6.038 7.703 7.65 5.636 2.213 14.018.184 18.262-4.421 7.778-8.439 6.21-24.475-2.598-26.577-.31-.074-.66-.209-.777-.3-.858-.667-6.97-.951-9.383-.436m-75.803.005c0 .185-.364.226-1.313.149l-1.313-.107 1.236.215c1.181.206 1.928.026 1.534-.369-.079-.079-.144-.029-.144.112m82.513.141c7.266 1.162 10.975 5.693 10.975 13.41 0 8.512-5.087 16.006-12.284 18.098-1.392.405-6.959.747-7.99.492a52.085 52.085 0 00-1.841-.396c-5.606-1.109-9.187-6.115-9.239-12.918-.093-12.269 8.905-20.519 20.379-18.686m-181.988.024c-.231.05-.609.173-.84.274-2.312 1.004-2.966 1.34-4.027 2.068-2.045 1.403-5.532 5.556-5.532 6.589 0 .166-.139.485-.308.71-.17.224-.312.602-.315.84-.004.238-.146.616-.316.84-.169.225-.3.739-.29 1.144.01.434.059.563.119.315 1.591-6.597 7-12.008 12.77-12.774.578-.077.57-.084-.105-.091-.405-.004-.925.034-1.156.085m-91.754.4c-.428.232-.57.461-.549.884.024.472.044.492.118.114.049-.252.214-.562.368-.689.395-.328 24.86-.309 25.255.02.207.171.281.169.281-.009 0-.737-24.145-1.04-25.473-.32m29.149-.079c-.588.333-.731.6-.71 1.324l.018.63.166-.702c.264-1.114.257-1.113 5.276-1.091 5.842.025 5.636-.151 4.69 3.999-.099.434-.08.464.107.172.572-.89.727-3.797.225-4.203-.568-.46-8.992-.572-9.772-.129m25.76.248c-.306.325-.532.929-.648 1.733-.099.679-.235 1.376-.303 1.549-.114.29-.488 2.14-.957 4.727a19.502 19.502 0 01-.414 1.784c-.123.404-.215.971-.206 1.261.022.643.431-.978 1.033-4.095.246-1.271.582-2.838.748-3.481.167-.643.302-1.385.302-1.649 0-.263.153-.801.339-1.194l.34-.714h12.468c14.715 0 13.171-.419 12.384 3.361l-.653 3.151c-.525 2.541.279 2.311-8.071 2.311-8.077 0-7.655-.076-7.896 1.429-.123.774-.092.882.254.879.305-.003.329-.044.105-.186-.221-.141-.244-.373-.097-.995l.192-.812 7.554-.105 7.555-.105.268-.819c.147-.45.4-1.538.562-2.416.161-.878.441-2.328.621-3.222.348-1.728.234-2.514-.4-2.758-.192-.073-5.808-.133-12.48-.133H71.922l-.469.499m58.001-.073c-.252.234-.513.683-.581.997l-.438 2.043c-.173.809-.449 2.053-.614 2.766-.742 3.204-.651 3.282 3.848 3.307l3.501.019.156.526c.145.489.153.482.114-.105l-.041-.631-3.781-.105-3.782-.105-.07-.611c-.038-.336.073-1.234.246-1.996l.65-2.855c.183-.809.332-1.673.331-1.92-.001-.247.164-.653.366-.902l.368-.452 12.909.005c10.769.005 12.958.054 13.203.299.298.299.201.961-.63 4.289-.124.494-.178.946-.12 1.004.228.228 1.265-4.665 1.1-5.187-.245-.771-.949-.812-13.726-.812-12.319 0-12.56.007-13.009.426m28.969.078c-.307.327-.441.679-.381.998.084.439.097.445.123.053.075-1.164.043-1.16 9.933-1.173 5.281-.007 8.667-.082 8.057-.179-.577-.092-4.697-.175-9.154-.185l-8.104-.018-.474.504m73.279-.11c-.552.447-.575 1.191-.178 5.593.297 3.29.598 7.734.64 9.454.019.809.124 1.896.231 2.416.108.52.287 2.741.399 4.937.211 4.166.517 7.312.581 5.987.035-.719-.096-2.627-.718-10.504a591.635 591.635 0 01-.516-7.143 208.025 208.025 0 00-.413-5.357c-.235-2.417-.272-4.544-.088-5.025.184-.478 9.343-.503 9.739-.026.186.224.249 1.91.234 6.355-.011 3.327.065 6.179.169 6.338.198.306.655.154.655-.217 0-.12.136-.517.302-.881.627-1.375.96-2.305.861-2.405-.056-.056-.166.076-.244.295-.443 1.25-1.047 2.552-1.194 2.576-.093.015-.162-2.658-.152-5.94l.019-5.967-.56-.44c-.817-.643-8.983-.681-9.767-.046m16.071-.094c-.236.166-.692.946-1.013 1.733-.696 1.706-1.134 2.704-1.519 3.461-.156.307-.279.732-.275.946.004.213.389-.511.855-1.609.465-1.097.982-2.293 1.147-2.657.166-.364.301-.752.301-.861 0-.787 7.439-1.411 9.121-.766.293.113.333.882.336 6.46.003 6.167.12 7.415.624 6.648.114-.173.208-.425.21-.559.002-.133.482-1.41 1.068-2.836a181.231 181.231 0 001.679-4.23c.568-1.515 1.178-2.932 2.054-4.77l.35-.735h10.083l.063.539c.039.335-.49 1.69-1.393 3.572l-2.77 5.763a577.994 577.994 0 00-2.098 4.411c-1.618 3.471-2.364 5.049-2.481 5.253-.066.115.04.08.235-.079.196-.158.356-.393.356-.521s.466-1.18 1.035-2.338c1.302-2.646 3.675-7.621 4.363-9.142.588-1.304 1.256-2.682 1.527-3.152 2.597-4.503 2.312-4.831-4.19-4.831h-4.597l-.435.61c-.239.335-.434.671-.434.746 0 .11-.8 2.08-1.88 4.631-.098.231-.382.94-.631 1.576a70.624 70.624 0 01-1.169 2.836c-.15.346-.445 1.132-.654 1.745-.586 1.721-.677.992-.693-5.567-.015-5.875-.019-5.926-.482-6.25-.658-.461-8.04-.484-8.693-.027m59.287.161c-.415.365-.576.743-.654 1.534l-.104 1.051.275-1.058c.152-.582.346-1.173.433-1.313.187-.303 16.558-.359 18.842-.064 1.57.203 3.47 1.029 4.552 1.979 3.926 3.447 2.777 11.724-1.944 14.009-1.214.588-1.238.648-.625 1.552.872 1.285 1.113 2.944 1.187 8.171.081 5.732.562 5.152-4.288 5.181-6.413.038-6.047.534-5.494-7.451.167-2.413-.645-3.044-3.918-3.044-1.742 0-2.297.117-2.297.485 0 .145.074.156.199.03.115-.116 1.227-.156 2.645-.094 3.095.133 3.368.351 3.159 2.517-.524 5.423-.324 7.35.796 7.65.957.257 9.136.137 9.31-.136.704-1.11-.114-12.002-.994-13.227-.565-.786-.523-.94.379-1.401 5.965-3.047 6.04-12.879.12-15.617-2.057-.952-3.001-1.038-12.491-1.143l-8.536-.094-.552.483m30.826-.252c-.488.197-.493.209-.989 2.417-.182.808-.475 2.104-.652 2.879-.176.775-.321 1.638-.321 1.918 0 .279-.141.848-.315 1.263-.173.414-.308 1.111-.299 1.548.016.78.423-.717 1.041-3.827.548-2.757 1.244-5.641 1.398-5.791.516-.505 9.873-.318 10.038.2.118.373-.567 4.033-2.305 12.314-.413 1.964-.837 4.077-.944 4.694-.107.618-.251 1.299-.319 1.514-1.009 3.179-1.081 3.141 5.886 3.141 6.87 0 6.48-.128 6.078 1.995-.673 3.553-1.363 6.504-1.569 6.71-.372.372-22.286.405-22.794.034-.537-.393-.532-.422 1.893-11.965.191-.908.302-1.695.247-1.75-.055-.055-.211.451-.346 1.125a61.97 61.97 0 01-.455 2.065 30.974 30.974 0 00-.402 2.068c-.106.675-.246 1.312-.31 1.416-.064.104-.246.923-.403 1.819-.158.896-.387 2.008-.509 2.47-.3 1.133-.29 2.695.02 3.004.265.265 21.83.381 22.795.122.49-.131.977-1.298 1.216-2.916.068-.462.253-1.36.411-1.996 1.187-4.775 1.601-4.469-6.082-4.496l-5.672-.021-.07-.735c-.039-.404.043-1.113.182-1.576.139-.462.323-1.313.409-1.89a28.51 28.51 0 01.386-1.996c.126-.52.372-1.654.546-2.521.968-4.807 1.439-7.098 1.878-9.139.975-4.527 1.212-4.31-4.677-4.293-2.495.007-4.741.096-4.991.196m25.817.049c-.262.126-.518.427-.569.669l-.425 2.014c-.183.866-.479 2.284-.658 3.151a89.116 89.116 0 01-.611 2.731 23.388 23.388 0 00-.409 2.101c-.068.52-.212 1.229-.32 1.576-.33 1.056-1.303 6.032-1.376 7.037l-.068.946.196-.841c.108-.462.297-1.4.419-2.085.123-.685.271-1.322.329-1.417.058-.094.233-.904.388-1.801.155-.896.626-3.237 1.047-5.201.421-1.964.858-4.114.971-4.776.114-.663.299-1.449.412-1.747.114-.298.206-.817.206-1.153 0-1.127.291-1.16 9.244-1.031 9.341.134 9.463.154 12.5 2.119 2.569 1.661 4.93 5.615 4.625 7.744-.279 1.948-.35 4.884-.123 5.111.279.279.284 1.87.01 2.924l-.383 1.471c-.586 2.255-2.696 5.561-4.741 7.427-.81.739-1.358 1.344-1.218 1.344.14 0 .255-.071.256-.158.001-.086.342-.389.759-.673.66-.45 1.35-1.218 2.873-3.195 1.506-1.956 2.953-6.061 2.785-7.9-.308-3.379-.352-5.15-.132-5.369.38-.38.255-2.202-.231-3.359-1.832-4.361-4.871-6.74-9.732-7.614-2.099-.378-15.256-.415-16.024-.045M41.636 91.702l-.577 2.656c-.166.767-.296 1.571-.289 1.786.021.56.539-1.188.707-2.382.078-.556.238-1.316.356-1.689.118-.374.183-.894.146-1.155-.041-.288-.177.022-.343.784m-26.057-.134c-.133.447-.231 1.133-.217 1.524.027.709.027.709.174-.13.08-.462.218-1.147.305-1.523.221-.949.034-.857-.262.129m142.013.785c-.146.797-.594 3.009-.997 4.916a795.69 795.69 0 00-1.028 4.937c-.163.809-.443 2.146-.621 2.971-.178.825-.324 1.688-.324 1.918 0 .229-.142.756-.315 1.171-.174.415-.315 1.017-.315 1.339 0 .321-.146 1.246-.325 2.055-.178.808-.472 2.179-.652 3.046a85.98 85.98 0 01-.62 2.745c-.365 1.449-.378 2.639-.032 2.859.346.221 4.781.43 4.78.226 0-.087-.166-.16-.368-.162-2.827-.034-4.061-.139-4.285-.363-.258-.258.181-3.432.675-4.885.099-.289.237-.903.307-1.365.158-1.041.668-3.577 1.056-5.253a74.83 74.83 0 00.53-2.521c.422-2.234.551-2.885 1.231-6.197.367-1.791.752-3.587.855-3.992.407-1.596.888-4.37.803-4.625-.049-.148-.209.383-.355 1.18m-113.021-.364c-.134.446-.245 1.084-.246 1.418-.002.333-.14.984-.306 1.446-.167.462-.299 1.171-.295 1.576.009.767.315-.322.798-2.837.11-.577.266-1.357.345-1.733.199-.945 0-.857-.296.13m261.354.81c-.139.463-.245 1.162-.236 1.553.013.536.09.375.314-.655.343-1.575.293-2.139-.078-.898M14.953 94.794c-.136.539-.241 1.151-.233 1.36.007.209.151-.133.32-.76s.273-1.239.233-1.361c-.04-.121-.184.222-.32.761m39.602 1.115c-.21 1.037-.513 2.5-.672 3.251-.269 1.267-.43 2.054-1.256 6.144a302.9 302.9 0 01-.659 3.155c-.193.897-.304 1.678-.246 1.736.057.058.262-.629.454-1.526s.491-2.246.664-2.997c.173-.751.315-1.602.316-1.89.001-.289.138-.904.304-1.366.167-.462.307-1.183.312-1.603.005-.419.151-1.101.325-1.516.173-.415.315-1.071.315-1.459 0-.387.148-1.141.33-1.674.182-.533.3-1.233.263-1.555-.043-.372-.207.101-.45 1.3m250.701.292c-.139.581-.215 1.169-.17 1.306.046.138.205-.292.354-.955.148-.664.225-1.251.17-1.307-.055-.055-.214.375-.354.956m-150.395-.354c-.016.315-.181.953-.367 1.418l-.338.844h-3.718c-4.426 0-4.369-.024-4.651 1.971-.112.792-.246 1.507-.297 1.59-.051.083-.29 1.183-.531 2.444-.24 1.262-.567 2.861-.727 3.554-.159.693-.431 1.97-.605 2.836l-.673 3.362c-.196.982-.481 2.352-.632 3.046a49.273 49.273 0 00-.405 2.05c-.217 1.317-.485 1.387-5.399 1.396-3.854.007-4.395-.034-4.804-.365l-.461-.373.558-2.825c.307-1.553.703-3.486.88-4.295l.518-2.366c.107-.493.186-1.06.176-1.261-.026-.527-.39.702-.608 2.051a65.709 65.709 0 01-.642 3.152 93.686 93.686 0 00-.718 3.466c-.145.809-.33 1.625-.412 1.813-.518 1.197 9.235 1.997 10.553.866.437-.375.964-2.617 2.336-9.927.141-.751.353-1.682.471-2.068.118-.387.29-1.19.382-1.786.257-1.659.641-3.496.967-4.626.162-.562.294-1.371.294-1.799 0-1.596.38-1.739 4.349-1.644 4.269.103 5.054-.338 4.627-2.598-.088-.466-.097-.461-.123.074m89.366 1.118c-.297.671-.509 1.312-.471 1.424.038.113.326-.389.642-1.116.315-.727.527-1.368.47-1.424-.056-.057-.345.446-.641 1.116m-229.731-.154c0 .095-.197 1.064-.439 2.153-.241 1.09-.578 2.69-.748 3.557-.171.867-.448 2.237-.616 3.046a890.76 890.76 0 00-1.135 5.567c-.607 3.012-.912 4.39-1.181 5.343-.36 1.274-.384 3.516-.041 3.859.463.463 25.006.352 25.547-.115.429-.372 1.107-2.665 1.075-3.638-.009-.281-.222.378-.473 1.465-.353 1.532-.55 2.013-.876 2.138-.864.334-24.817.224-25.098-.115-.34-.409-.189-2.213.397-4.735.255-1.098.552-2.548.66-3.223.108-.676.248-1.311.31-1.413.063-.101.247-.919.409-1.818.161-.899.737-3.714 1.279-6.256 1.093-5.122 1.246-5.987 1.058-5.987-.071 0-.128.077-.128.172m26.05.233c0 1.047-.138 1.065-7.888 1.065H25.43l-.33.504c-.446.68-.5 1.631-.1 1.748.26.075.264.055.024-.112-.243-.171-.226-.335.105-1.014l.396-.811 7.187-.04c7.785-.044 8.044-.08 8.044-1.122 0-.343-.047-.623-.105-.623-.058 0-.105.182-.105.405m2.743 1.416c-.13.674-.338 1.603-.463 2.065a11.595 11.595 0 00-.297 1.786c-.064.878-.057.893.098.21.689-3.044 1.085-5.097.999-5.183-.056-.057-.208.449-.337 1.122m67.499-.684c-3.872 1.804-5.592 10.704-2.59 13.4.847.761 2.289 1.217 2.976.942.151-.06-.055-.12-.46-.131-2.994-.087-4.335-3.018-3.554-7.768.663-4.027 2.474-6.27 5.445-6.743l.945-.151-.84-.026c-.495-.015-1.285.181-1.922.477m90.42-.359c.26.05.685.05.945 0 .26-.05.048-.091-.472-.091s-.733.041-.473.091m85.662.046c3.025.508 3.969 2.261 3.461 6.424-.486 3.972-1.799 6.433-4.025 7.543-.669.333-.927.545-.664.545 1.057 0 2.966-1.894 3.831-3.802 2.481-5.473 1.32-10.557-2.469-10.808l-1.185-.078 1.051.176m-172.427.431c.491.222.893.486.893.585 0 .29.616 1.022.624.74.011-.434-1.451-1.74-1.944-1.735-.338.003-.22.115.427.41m85.347-.1c-.305.174-.393.301-.21.301.173.001.498-.138.723-.308.519-.392.177-.388-.513.007m3.519.052c.375.187.683.417.683.511 0 .095.094.172.21.172.405 0 .201-.318-.439-.682-.355-.203-.756-.362-.891-.355-.135.008.061.167.437.354m81.25-.018c-2.588 1.364-3.978 4.539-3.987 9.105-.007 3.97.949 5.31 3.728 5.224.809-.025.778-.041-.34-.184-2.39-.306-3.288-1.627-3.288-4.841 0-4.419 1.662-8.016 4.253-9.206.492-.227.753-.416.579-.421-.173-.005-.599.14-.945.323m-117.261.103c-.314.398-.961 3.185-.876 3.781.143 1.012 5.28.679 6.512-.422.899-.803 1.037-2.047.321-2.88-.619-.72-5.458-1.108-5.957-.479m19.033.726c-2.309 5.335-2.392 11.343-.218 15.731l.831 1.679-.667.595-.668.595.788-.565c.94-.674.919-.474.19-1.824-2.354-4.365-2.259-12.168.202-16.622.118-.213.163-.439.101-.502-.063-.063-.315.348-.559.913m129.354-.81c-.267.439-.789 3.056-.731 3.663l.067.696 1.467.063c2.081.09 4.192-.306 4.925-.923 1.216-1.023.996-3.061-.371-3.441-.887-.246-5.214-.294-5.357-.058m-142.529.688c.966 1.193-.041 2.969-1.832 3.233-2.473.364-4.51.386-4.639.051-.143-.374.535-3.538.798-3.724.598-.421 5.269-.059 5.673.44m148.383-.186c.152.157.294.522.316.811.17 2.217-.432 2.57-4.891 2.862l-1.838.121v-.635c0-.56.555-3.089.751-3.418.16-.271 5.381-.031 5.662.259m-123.265.368c-2.036 1.792-3.983 9.2-2.636 10.032.195.121 4.362-3.853 4.362-4.16 0-.08-.912.79-2.026 1.933-2.318 2.379-2.389 2.389-2.377.346.019-3.155.923-5.78 2.654-7.704 1.058-1.177 1.068-1.367.023-.447m106.389.495a680.94 680.94 0 00-1.516 7.196c-.235 1.155-.711 3.471-1.057 5.147a191.984 191.984 0 00-.846 4.306 26.269 26.269 0 01-.526 2.334c-.664 2.299-.457 2.393 5.254 2.393 4.595 0 5.162-.104 5.162-.949 0-.1-.134.002-.297.226-.274.375-.624.413-4.36.474-5.527.09-6.144-.082-5.634-1.568.182-.532.591-2.52 1.57-7.637.165-.866.498-2.473.738-3.571a408.424 408.424 0 001.813-8.771c.222-1.139-.048-.763-.301.42m67.617-.801c-.138.166-.385 1.072-.549 2.013-.165.942-.348 1.79-.407 1.887-.06.096-.245.916-.412 1.821a160.03 160.03 0 01-.731 3.641c-.425 1.985-.563 3.294-.199 1.891.229-.886.765-3.378 1.128-5.252.145-.751.366-1.791.49-2.311.123-.52.337-1.465.474-2.101.337-1.563.424-1.637 1.827-1.564 4.452.233 5.147.808 5.27 4.365.063 1.828.007 2.435-.284 3.081-.2.442-.321.93-.269 1.085.299.893.835-2.089.761-4.237-.101-2.94-.572-3.676-2.717-4.239-1.726-.452-4.038-.495-4.382-.08m-237.396 2.361c-.13.673-.342 1.649-.472 2.169-.129.52-.262 1.324-.296 1.786-.063.872-.046.823.437-1.261.528-2.276.78-3.707.674-3.814-.058-.057-.212.446-.343 1.12m-103.266-.358c7.645.135 7.145-.083 6.506 2.842-.176.809-.458 2.217-.625 3.129-.168.912-.451 1.881-.63 2.153l-.324.496h-6.928c-3.81 0-6.928.071-6.928.157 0 .087 3.175.11 7.055.053 7.71-.115 7.517-.081 7.743-1.366.081-.457.489-2.59.784-4.096.745-3.8 1.156-3.585-6.753-3.525l-6.203.046 6.303.111m52.678-.047c1.589.036 4.189.036 5.778 0 1.588-.036.288-.065-2.889-.065-3.178 0-4.478.029-2.889.065m250.62.625c-.139.463-.245 1.162-.235 1.553.012.536.089.375.313-.654.343-1.575.294-2.14-.078-.899m-151.366.563c-.591 1.433-1.598 2.595-3.14 3.624-1.616 1.078-1.554.96-.991 1.871.821 1.328 1.043 2.815 1.043 6.985 0 2.161.093 4.255.207 4.653.162.564.136.832-.121 1.224-.462.705-.225.81.588.263.381-.257.538-.418.35-.358-.553.175-.814-1.78-.814-6.104 0-4-.193-5.417-.872-6.392-.586-.842-.485-1.123.665-1.861 1.674-1.074 3.795-3.844 3.534-4.614-.039-.115-.241.205-.449.709m-115.021.451c-.138.517-.244 1.2-.235 1.516.019.664.052.581.414-1.055.319-1.444.18-1.803-.179-.461m24.582 1.881c-.258 1.271-.52 2.594-.582 2.941l-.112.63.325-.707c.179-.389.325-.942.325-1.23 0-.288.147-1.091.327-1.784.18-.694.295-1.464.256-1.711-.039-.248-.282.59-.539 1.861m3.141-.975c-.356 1.189-.292 6.869.088 7.802l.299.736-.118-.736c-.275-1.702-.334-5.738-.104-7.059.276-1.586.196-1.947-.165-.743m109.099-.648c-.119.084-1.205 1.475-2.413 3.093-1.208 1.618-2.836 3.683-3.618 4.589-1.809 2.097-1.755 2.404.385 2.184.723-.075.691-.089-.27-.12-1.167-.038-1.49-.251-1.065-.703 1.386-1.477 4.584-5.463 5.831-7.27 1.061-1.535 1.515-1.509 1.094.064-.139.521-.247 1.158-.239 1.417.007.258.153-.051.324-.686.342-1.269.324-2.815-.029-2.568m-163.205 1.623a76.518 76.518 0 00-.436 2.1 246.066 246.066 0 01-1.272 6.093c-.329 1.472-.609 3.546-.426 3.151.054-.115.288-1.155.52-2.311.233-1.155.756-3.708 1.164-5.672.407-1.964.709-3.666.67-3.782-.038-.115-.137.074-.22.421m292.229-.358c-.067.108-.171.752-.232 1.432l-.111 1.236.311-1.353c.293-1.276.305-1.757.032-1.315m-266.474 1.554c-.14.542-.243 1.204-.231 1.47.013.267.154-.035.313-.671.159-.635.263-1.297.23-1.47-.032-.174-.172.128-.312.671m65.864 1.114c-.325 1.494-.355 2.34-.042 1.156.168-.636.277-1.297.242-1.471-.035-.173-.125-.031-.2.315m70.558 1.636c-.652 1.601-2.206 3.512-2.855 3.512-.202 0-.484.141-.628.315-.657.792 1.108-.182 2.036-1.123.726-.737 2.262-3.645 2.126-4.026-.036-.101-.341.493-.679 1.322m-137.052.191c-.14.542-.244 1.204-.231 1.47.013.267.153-.035.312-.67.159-.636.263-1.298.231-1.471-.032-.173-.172.128-.312.671m47.902-.344c-.257.18-.467.514-.467.744 0 .983-1.056 2.401-2.44 3.276-.284.179-.311.254-.093.262.54.022 2.495-2.195 2.646-3.002.262-1.395.33-1.412 5.58-1.349l4.706.057.065.906c.357 4.948-5.554 11.023-11.712 12.035-8.159 1.343-14.053-1.473-16.315-7.794-.342-.956-.491-1.196-.496-.8-.005.311.079.619.186.685.106.066.258.415.337.775 1.711 7.788 16.246 10.44 23.252 4.242 3.469-3.069 6.428-9.56 4.666-10.237-.806-.309-9.437-.135-9.915.2m262.532.781c-1.264 1.88-2.408 2.418-5.552 2.61-1.611.099-1.957.062-2.259-.24-.196-.196-.356-.274-.356-.174 0 1.256 5.314.793 7.017-.611.756-.623 2.133-2.436 1.972-2.597-.046-.047-.416.409-.822 1.012m-285.462-.436c-.009.312-.182.664-.384.782-.346.201-.346.214-.004.22.382.007.707-.815.514-1.297-.06-.15-.116-.017-.126.295m155.995.896c-.186.285-.339.57-.339.633 0 .063-.621 1.602-1.379 3.421l-2.143 5.139c-.953 2.288-.894 2.264-5.622 2.264-4.192 0-4.898-.097-5.146-.712-.176-.437-.179-.436-.192.035-.022.761.73.887 5.266.887 5.447 0 4.669.615 7.308-5.777a433.868 433.868 0 011.577-3.782c.152-.346.387-.902.522-1.235.447-1.102.519-.378.463 4.657-.054 4.83-.041 5.008.396 5.563l.451.574h4.465c4.413 0 4.471-.006 4.928-.492.502-.535 1.297-1.984 1.281-2.336-.006-.12-.293.329-.638.998-.82 1.59-.926 1.62-5.733 1.62-5.347 0-4.796.724-4.764-6.261.027-5.745-.036-6.21-.701-5.196m-170.439.448c-.071.185-.139.681-.151 1.103l-.022.767 7.382.056c8.401.062 8.072-.008 7.655 1.65-.286 1.134-.171 1.458.17.48.819-2.351.765-2.367-7.928-2.335l-7.217.027.14-.779c.077-.429.294-.897.482-1.042.313-.241.312-.262-.02-.262a.567.567 0 00-.491.335m4.409-.178c1.712.035 4.453.035 6.093 0 1.639-.036.239-.065-3.112-.065s-4.692.029-2.981.065m181.403.744c-.188.371-.782 1.62-1.32 2.775a110.232 110.232 0 01-1.613 3.324c-.349.672-.585 1.272-.524 1.332.06.061.504-.726.987-1.748.483-1.021 1.353-2.83 1.933-4.019.58-1.189 1.015-2.202.966-2.25-.048-.049-.242.215-.429.586m95.253.222c-.138.381-.243.969-.233 1.307.012.427.109.236.318-.625.336-1.391.294-1.731-.085-.682m-336.313.242l.033.84 7.458.106 7.458.105.065.46c.037.253-.045 1.009-.181 1.68-.407 2.018-.448 2.627-.108 1.607.513-1.537.634-3.512.236-3.843-.273-.226-1.814-.288-7.531-.304l-7.187-.021-.138-.735-.138-.735.033.84m142.201-.262c-.218.266-1.32 4.904-1.291 5.435.027.489.582-1.143.599-1.762.019-.692.649-3.122.878-3.387.233-.269 4.189-.147 4.807.149.98.469 1.121 1.151.728 3.505-.454 2.711-.356 5.011.246 5.818l.439.588 4.275.057c3.098.042 4.32.128 4.439.315.114.181.165.148.167-.109.004-.434.255-.413-4.474-.37-5.392.049-5.805-.482-4.869-6.255.448-2.764.131-3.521-1.683-4.016-1.175-.32-3.99-.299-4.261.032m-98.549 3.255c-.39 1.82-.855 3.94-1.034 4.709-.301 1.294-.298 1.441.031 1.944l.356.543h25.17l.43-.546c.236-.301.484-.892.551-1.313a19.04 19.04 0 01.346-1.607c.124-.462.254-1.313.29-1.891.074-1.185.15-1.465-.617 2.27-.344 1.675-.643 2.445-1.054 2.713-.127.083-5.726.155-12.441.16-14.051.012-13.408.096-12.932-1.697.135-.509.39-1.634.566-2.501.176-.866.513-2.501.75-3.632.237-1.132.4-2.149.363-2.26-.037-.111-.386 1.287-.775 3.108m-14.65-2.555c.07.182.128.371.128.42 0 .048 2.73.088 6.066.088 6.684 0 6.63-.011 6.43 1.282-.085.553-.065.619.09.293.815-1.718.374-1.844-6.443-1.835-4.741.006-5.772-.045-5.865-.287-.062-.162-.208-.294-.323-.294-.116 0-.153.15-.083.333m261.227.402c-.064.347-.322 1.611-.575 2.81-.252 1.198-.407 2.23-.344 2.293.062.063.114-.085.114-.328 0-.244.094-.501.21-.573.115-.071.21-.425.21-.787 0-.361.149-1.251.331-1.978.183-.727.295-1.489.251-1.694-.053-.245-.121-.157-.197.257m45.451 2.035c-.117.383-.278 1.169-.357 1.747-.078.578-.218 1.192-.31 1.366-.092.173-.234 1.031-.315 1.907-.234 2.507-.979 2.326 9.214 2.23 10.16-.096 11.407-.267 14.805-2.035 1.931-1.005 1.769-1.14-.207-.171-3.696 1.811-5.557 2.06-15.407 2.06-6.09 0-7.668-.057-7.984-.287-.45-.33-.333-1.614.492-5.375.436-1.986.473-2.756.069-1.442m-294.332.548c-.032.465-.313 1.782-.996 4.665-.483 2.04.453 1.891-11.907 1.891-11.575 0-11.708-.011-11.714-1.005-.002-.446-.047-.501-.206-.255-.29.447-.264.577.21 1.05.456.457 22.387.671 23.09.226.339-.214 1.062-2.372 1.066-3.182.002-.297.152-.976.333-1.508.181-.532.291-1.281.244-1.665-.053-.425-.099-.51-.12-.217m-24.356 2.617c-.141.392-.251.99-.243 1.328.01.464.089.335.32-.525.354-1.317.303-1.853-.077-.803m123.724-.132c-.045.639-.817 3.666-.975 3.824-.073.073-.858.154-1.744.18-2.452.07-2.565.122-2.565 1.181 0 1.586 1.394 4.724 2.252 5.068.14.056-.058-.343-.441-.887-1.173-1.664-1.966-4.514-1.363-4.896.158-.1 1.002-.184 1.875-.186.936-.001 1.734-.111 1.944-.265.429-.317 1.25-3.162 1.132-3.922-.066-.429-.09-.449-.115-.097m148.115 1.637c-.153.667-.239 1.252-.192 1.299.163.164.615-1.513.542-2.013-.049-.338-.162-.107-.35.714m-126.831-.134c-.708.634-.527.578.404-.125.333-.252.522-.456.42-.452-.102.003-.473.263-.824.577m5.088 2.321c-9.609 8.915-19.896 14.591-26.509 14.626-1.876.01-2.408-.057-2.83-.356-.286-.202-.691-.367-.9-.367-.209 0-.434-.142-.5-.316-.067-.173-.203-.315-.302-.315-.485 0 .141.588 1.122 1.054 1.408.669 4.999.727 7.009.114 4.527-1.38 6.351-2.196 10.477-4.684 4.071-2.455 9.595-6.653 12.347-9.383l1.173-1.164 1.431.649c2.086.946 8.173 1.654 9.213 1.071.223-.124-.651-.207-2.493-.235-3.634-.056-6.169-.501-7.157-1.257-.68-.521-1.009-.432-2.081.563m-33.973 3.199c-.127.237-.201.574-.165.749.037.175.17-.02.297-.431.26-.842.212-.959-.132-.318m12.191 2.931c-.422.135-.443.169-.105.174.231.003.609-.075.84-.174.536-.231-.017-.231-.735 0m-1.575.42l-.631.16.566.025c.311.014.623-.07.695-.185.071-.116.1-.199.065-.186-.036.014-.349.097-.695.186m-4.037.365c.669.042 1.709.042 2.311-.001.602-.042.055-.076-1.216-.076-1.271.001-1.764.035-1.095.077m-6.768 2.891c0 .116.135.446.3.735.165.289.301.431.301.315 0-.115-.136-.446-.301-.735-.165-.289-.3-.431-.3-.315m1.561 2.416c.569.578 1.082 1.05 1.139 1.05.058 0-.36-.472-.929-1.05-.569-.578-1.082-1.05-1.14-1.05-.058 0 .361.472.93 1.05"
      fill="#5e8cbc"/>
  </g>
</svg>
