<svg xmlns="http://www.w3.org/2000/svg" viewBox="-162.264 -40.864 1406.284 245.181">
  <defs>
    <clipPath id="a" clipPathUnits="userSpaceOnUse">
      <path d="M4645.49 1409.03h816.73V591.922h-816.73z"/>
    </clipPath>
  </defs>
  <path d="M0 163.452h908.386V0H0z" fill="#f7911a"/>
  <path d="M918.41 163.454h163.347V.032H918.41z" fill="#c40070"/>
  <g clip-path="url(#a)" fill="#f7911a" transform="matrix(.2 0 0 -.2 -10.688 281.838)">
    <path
      d="m4516.08 519.168 1004.1 1004.092 56.01-55.96-1004.1-1004.093-56.01 55.961m-83.95 83.863 1004.1 1004.099 56.02-55.97-1004.1-1004.094-56.02 55.965m-83.93 83.86L5352.29 1690.99l56.01-55.97L4404.21 630.93l-56.01 55.961m-83.95 83.863 1004.1 1004.096 56.01-55.96L4320.27 714.793l-56.02 55.961M6204.78 29.855 5199.72 1033.95l56.02 56.03L6260.79 85.879l-56.01-56.024m-83.94-83.949L5115.78 950l56.02 56.02L6176.85 1.926l-56.01-56.02m-83.95-83.953L5031.84 866.051l56.01 56.023L6092.91-82.027l-56.02-56.02M5952.95-222 4947.89 782.098l56.02 56.023L6008.96-165.977 5952.95-222"/>
  </g>
  <path
    d="M199.78 48.336c-18.333 0-33.188 14.856-33.188 33.188 0 18.333 14.855 33.187 33.188 33.187 18.332 0 33.187-14.854 33.187-33.187 0-18.332-14.855-33.188-33.187-33.188zm319.187 43.688v24.875c9.108-.304 18.822 1.522 25.5-5.156 2.732-3.036 3.018-8.804 1.5-12.75-5.464-9.107-17.286-6.362-27-6.97zM634.03 59.21l-12.47 37.344h25.126zM518.967 46.18v22.437c6.376 0 13.063.608 17.313-4.25 2.428-2.732 3.014-6.757 1.812-10.907-2.22-7.666-11.839-7.28-19.125-7.28zm-215.656-.095c-1.064.007-2.156.056-3.219.094v29.125c7.182-.17 16.809.076 21.969-6.906 2.732-3.946 2.807-10.614.219-14.656-4.251-6.642-11.519-7.703-18.97-7.657zm445.312-27.5c8.546-.126 17.002 1.287 24.344 4.532l.094 37.968c-8.5-11.234-22.153-14.308-35.813-10.968-8.502 2.428-16.995 9.718-20.03 18.218-4.555 12.752-2.752 28.527 7.874 37.938 7.892 6.679 18.508 9.428 29.438 7 6.982-1.518 13.37-5.785 18.53-11.25v36.437c-19.427 8.501-45.851 6.363-63.155-5.78-21.252-13.966-29.728-37.63-25.782-62.22 3.036-22.466 23.353-43.41 44.907-48.875a73.027 73.027 0 0 1 19.593-3zm-550 .125c3.79-.029 7.657.229 11.594.75 18.822 3.036 37.66 14.245 47.375 32.157 11.84 20.946 8.178 51.628-7 69.843-16.09 18.822-38.535 25.8-63.125 22.157-18.519-3.036-37.344-14.254-45.844-32.47-10.928-19.732-10.032-49.797 4.844-67.405 13.576-16.65 31.692-24.875 52.156-25.032zm-174.5 3.782h30.375V67.71c14.63 0 30.062.032 44.938.032 0-14.872-.031-30.086-.031-45.25h30.375v118.093H99.405V92.274c-14.603 0-29.124.031-44.625.031v48.281H24.123V22.493zm245.313 0h54.531c7.09 0 13.773 3.863 19.531 7.875 12.446 9.716 14.573 26.115 10.625 40.687-2.732 10.322-13.063 19.43-23.687 21.25l36.75 43.063-.031-112.875h27.937l56.531 72.718c0-23.523-.062-48.424-.062-72.406h31.5v117.781h-31.5l-56-71.875-.094 71.875h-66.25c-9.714-15.179-19.107-30.352-29.125-45.53v45.53h-30.656V22.493zm348.187 0h33.094l44.625 118.093h-32.781l-7.281-20.343h-42.5l-8.22 20.343h-32.155zm235.282 0h30.656v118.093h-30.344V92.618c-14.626 0-30.427.093-44.969.093 0 15.427.032 31.676.032 47.875h-30.344V22.743h30.344v45.312c14.616 0 29.749-.031 44.625-.031V22.493zm-365.47.25h54.25c6.647 0 12.849 3.094 17.595 8.218 8.756 9.454 9.486 26.737 3.718 37.97-2.126 3.641-5.483 6.373-9.125 8.5 8.5 1.517 19.086 7.134 21.438 15.53 3.472 12.387 4.01 27.521-6.469 38-7.364 7.364-13.095 9.563-28.687 9.563-18.344 0-35.129.062-52.657.062z"
    fill="#fff"/>
  <path
    d="M199.78 48.336c-18.333 0-33.188 14.856-33.188 33.188 0 18.333 14.855 33.187 33.188 33.187 18.332 0 33.187-14.854 33.187-33.187 0-18.332-14.855-33.188-33.187-33.188zm0 4.125c16.04 0 29.062 13.023 29.062 29.063s-13.022 29.031-29.062 29.031c-16.042 0-29.032-12.99-29.032-29.031 0-16.04 12.99-29.063 29.032-29.063zm319.187 39.563v24.875c9.108-.304 18.822 1.522 25.5-5.156 2.732-3.036 3.018-8.804 1.5-12.75-5.464-9.107-17.286-6.362-27-6.97zm8.75 3.812c4.81.043 9.535.737 13.406 3.47 2.124 2.731 2.124 7.267 0 10-5.162 3.642-11.842 3.655-18.218 3.655v-17c1.594-.075 3.209-.139 4.812-.125zM634.03 59.211l-12.47 37.344h25.126zm0 13.657 6.656 19.437h-13.344zM518.967 46.18v22.438c6.376 0 13.063.608 17.313-4.25 2.428-2.732 3.014-6.757 1.812-10.907-2.22-7.666-11.839-7.28-19.125-7.28zm3.938 3.938c3.644.302 6.768.336 9.5 2.156 2.384 1.588 2.947 6.353 1.125 8.781-2.732 3.036-6.981 3.321-10.625 3.625zM303.31 46.086c-1.064.007-2.156.056-3.219.094v29.125c7.182-.17 16.809.076 21.969-6.906 2.732-3.946 2.807-10.614.219-14.656-4.251-6.642-11.519-7.703-18.97-7.657zm.719 4.032c5.16.302 10.168.608 13.812 4.25 2.798 2.8 2.874 8.19.75 11.53-3.34 4.555-9.098 5.166-14.562 5.47zm-106.22-35.75a85.58 85.58 0 0 0-5.187.218c-25.196 1.214-49.504 20.034-59.218 42.5l-.032-38.53H95.217l-.062 45.468h-36.72l.032-45.469h-38v125.969h37.969v-48.25h36.719v48.281l38.218-.031.032-41.938.625 1.875c2.125 5.161 4.254 10.331 7.593 15.188 15.483 22.161 39.464 30.96 65.875 28.531 25.198-.91 50.685-20.968 57.97-44.344v40.72l38.218-.032.031-36.406.625 1.187c7.59 11.84 14.27 24.29 23.375 35.219h71.219V79.149c17 21.555 33.517 44.428 51.125 65.375h33.687c3.57 0 46.963.031 56.313.031 21.424 0 26.614-5.492 31.094-10.875 0 0-3.364 8.85-4.032 10.844h40.532l8.156-20.344h36.125c2.864 6.977 5.453 14.05 7.937 20.344h40.625s-5.712-16.21-7.718-21.656l6.968 7.625c17.792 18.172 46.163 21.61 73.125 14.062 1.91 0 39.688-.031 39.688-.031l-.031-48.25h36.437v48.281h38.25V18.524h-38.125l-.125 45.563H812.53V18.524l-36.438.031-2.719-.031c-18.364-6.304-44.03-4.83-61.03 5.188-21.859 12.75-34.61 35.21-33.095 60.406l.313 2.781-25.438-68.375H614.53l-.844 2.156-31.875 81.969c0-11.536-7.603-22.79-18.531-27.344 10.016-9.714 10.076-27.973 3.75-40.125-5.512-10.586-14.073-16.656-27.47-16.656l-53.374.031h-38.25l.156 64.906c-16.696-21.555-33.664-42.934-51.156-64.906h-33.813l.094 105.938-25.5-29.75c6.982-2.43 13.68-8.813 17.625-15.188 6.376-11.84 6.67-30.972-.312-42.812-7.286-11.232-19.217-18.188-32.47-18.188h-57.405l.03 39.156-4.874-10.343c-14.231-21.915-36.73-33.4-62.5-33zm550.813 4.218c8.546-.126 17.002 1.287 24.344 4.532l.094 37.968c-8.5-11.234-22.153-14.308-35.813-10.968-8.502 2.428-16.995 9.718-20.03 18.218-4.555 12.752-2.752 28.527 7.874 37.938 7.892 6.679 18.508 9.428 29.438 7 6.982-1.518 13.37-5.785 18.53-11.25v36.437c-19.427 8.501-45.851 6.363-63.155-5.78-21.252-13.966-29.728-37.63-25.782-62.22 3.036-22.466 23.353-43.41 44.907-48.875a73.027 73.027 0 0 1 19.593-3zm-550 .125c3.79-.029 7.657.229 11.594.75 18.822 3.036 37.66 14.245 47.375 32.157 11.84 20.946 8.178 51.628-7 69.843-16.09 18.822-38.535 25.8-63.125 22.157-18.519-3.036-37.344-14.254-45.844-32.47-10.928-19.732-10.032-49.797 4.844-67.405 13.576-16.65 31.692-24.875 52.156-25.032zm-174.5 3.782h30.375V67.71c14.63 0 30.062.032 44.938.032 0-14.872-.031-30.086-.031-45.25h30.375v118.093H99.405V92.274c-14.603 0-29.124.031-44.625.031v48.281H24.123V22.493zm245.313 0h54.531c7.09 0 13.773 3.863 19.531 7.875 12.446 9.716 14.573 26.115 10.625 40.687-2.732 10.322-13.063 19.43-23.687 21.25l36.75 43.063-.031-112.875h27.937l56.531 72.718c0-23.523-.062-48.424-.062-72.406h31.5v117.781h-31.5l-56-71.875-.094 71.875h-66.25c-9.714-15.179-19.107-30.352-29.125-45.53v45.53h-30.656V22.493zm348.187 0h33.094l44.625 118.093H662.56l-7.281-20.343h-42.5l-8.22 20.343h-32.155zm235.282 0h30.656v118.093h-30.344V92.618c-14.626 0-30.427.093-44.969.093 0 15.427.032 31.676.032 47.875h-30.344V22.743h30.344v45.312c14.616 0 29.749-.031 44.625-.031V22.493zm-365.47.25h54.25c6.647 0 12.849 3.094 17.595 8.218 8.756 9.454 9.486 26.737 3.718 37.97-2.126 3.641-5.483 6.373-9.125 8.5 8.5 1.517 19.086 7.134 21.438 15.53 3.472 12.387 4.01 27.521-6.469 38-7.364 7.364-13.095 9.563-28.687 9.563-18.344 0-35.129.062-52.657.062zM746.812 53.21c3.76.024 7.506.815 10.781 2.375 8.334 3.97 11.27 6.36 15.281 13.907v26.78c-11.964 13.567-29.258 15.461-38.062 10.907-10.322-3.947-14.87-14.857-15.781-24.875.304-10.321 4.558-20.338 13.968-25.5 4.1-2.39 8.978-3.624 13.813-3.594z"
    fill="#231f20"/>
</svg>
