<svg xmlns="http://www.w3.org/2000/svg" width="1102.072" height="183.77">
  <defs>
    <clipPath clipPathUnits="userSpaceOnUse" id="a">
      <path d="M4645.49 1409.03h816.73V591.922h-816.73v817.108z"/>
    </clipPath>
  </defs>
  <path d="M10.064 173.65H918.45V10.198H10.064V173.65z" fill="#f7911a"/>
  <path d="M928.475 173.652h163.346V10.23H928.475v163.422z" fill="#c40070"/>
  <g clip-path="url(#a)" fill="#f7911a" transform="matrix(.2 0 0 -.2 -.623 292.036)">
    <path
      d="M4516.08 519.168l1004.1 1004.092 56.01-55.96-1004.1-1004.093-56.01 55.961M4432.13 603.031l1004.1 1004.099 56.02-55.97-1004.1-1004.094-56.02 55.965M4348.2 686.891L5352.29 1690.99l56.01-55.97L4404.21 630.93l-56.01 55.961M4264.25 770.754l1004.1 1004.096 56.01-55.96L4320.27 714.793l-56.02 55.961M6204.78 29.855L5199.72 1033.95l56.02 56.03L6260.79 85.879l-56.01-56.024M6120.84-54.094L5115.78 950l56.02 56.02L6176.85 1.926l-56.01-56.02M6036.89-138.047L5031.84 866.051l56.01 56.023L6092.91-82.027l-56.02-56.02M5952.95-222L4947.89 782.098l56.02 56.023L6008.96-165.977 5952.95-222"/>
  </g>
  <path
    d="M209.844 58.534c-18.333 0-33.188 14.856-33.188 33.188s14.855 33.187 33.188 33.187c18.332 0 33.187-14.855 33.187-33.187 0-18.332-14.855-33.188-33.187-33.188zm319.187 43.688v24.875c9.108-.304 18.822 1.522 25.5-5.157 2.732-3.036 3.018-8.803 1.5-12.75-5.464-9.107-17.286-6.361-27-6.968zm115.063-32.813l-12.469 37.344h25.125zM529.03 56.378v22.437c6.376 0 13.063.608 17.313-4.25 2.428-2.732 3.014-6.756 1.812-10.906-2.22-7.666-11.839-7.281-19.125-7.281zm-215.656-.094c-1.064.007-2.156.056-3.219.094v29.125c7.182-.17 16.809.076 21.969-6.906 2.732-3.946 2.807-10.615.219-14.657-4.251-6.64-11.519-7.702-18.969-7.656zm445.313-27.5c8.545-.126 17.002 1.287 24.343 4.531l.094 37.97c-8.5-11.235-22.153-14.31-35.813-10.97-8.502 2.428-16.995 9.72-20.03 18.22-4.555 12.751-2.752 28.526 7.874 37.937 7.892 6.679 18.508 9.428 29.438 7 6.982-1.518 13.37-5.785 18.53-11.25v36.437c-19.427 8.501-45.851 6.363-63.155-5.781-21.252-13.965-29.728-37.629-25.782-62.219 3.036-22.466 23.353-43.41 44.907-48.875a73.027 73.027 0 0119.593-3zm-550 .125c3.79-.029 7.656.228 11.593.75 18.822 3.036 37.66 14.244 47.375 32.156 11.84 20.946 8.178 51.629-7 69.844-16.09 18.822-38.535 25.8-63.125 22.156-18.519-3.036-37.344-14.253-45.844-32.468-10.928-19.733-10.032-49.799 4.844-67.407 13.576-16.648 31.692-24.874 52.156-25.03zm-174.5 3.781h30.374v45.22c14.63 0 30.062.03 44.938.03 0-14.872-.031-30.086-.031-45.25h30.375v118.094h-30.375v-48.312c-14.603 0-29.124.03-44.625.03v48.282H34.188V32.69zm245.312 0h54.531c7.09 0 13.773 3.863 19.531 7.875 12.446 9.716 14.573 26.116 10.625 40.688-2.732 10.322-13.063 19.429-23.687 21.25l36.75 43.062-.031-112.875h27.937l56.532 72.72c0-23.524-.063-48.425-.063-72.407h31.5v117.781h-31.5l-56-71.875-.094 71.875h-66.25c-9.714-15.179-19.107-30.352-29.125-45.531v45.531H279.5V32.69zm348.188 0h33.093l44.625 118.094h-32.781l-7.281-20.344h-42.5l-8.219 20.344h-32.156zm235.28 0h30.657v118.094h-30.344v-47.969c-14.626 0-30.426.094-44.968.094 0 15.427.03 31.676.03 47.875H788V32.94h30.344v45.313c14.616 0 29.749-.031 44.625-.031V32.69zm-365.468.25h54.25c6.646 0 12.848 3.095 17.594 8.22 8.756 9.453 9.486 26.736 3.718 37.968-2.126 3.642-5.483 6.374-9.125 8.5 8.5 1.518 19.086 7.135 21.438 15.531 3.472 12.387 4.01 27.521-6.469 38-7.364 7.363-13.095 9.563-28.687 9.563-18.344 0-35.129.062-52.657.062z"
    fill="#fff"/>
  <path
    d="M209.844 58.534c-18.333 0-33.188 14.856-33.188 33.188s14.855 33.187 33.188 33.187c18.332 0 33.187-14.855 33.187-33.187 0-18.332-14.855-33.188-33.187-33.188zm0 4.125c16.04 0 29.062 13.023 29.062 29.063s-13.022 29.031-29.062 29.031c-16.042 0-29.031-12.99-29.031-29.031 0-16.04 12.99-29.063 29.03-29.063zm319.187 39.563v24.875c9.108-.304 18.822 1.522 25.5-5.157 2.732-3.036 3.018-8.803 1.5-12.75-5.464-9.107-17.286-6.361-27-6.968zm8.75 3.812c4.81.043 9.535.737 13.407 3.469 2.124 2.732 2.124 7.268 0 10-5.162 3.643-11.843 3.656-18.22 3.656v-17c1.595-.076 3.21-.139 4.813-.125zM644.094 69.41l-12.469 37.344h25.125l-12.656-37.344zm0 13.656l6.656 19.438h-13.344l6.688-19.438zM529.03 56.378v22.437c6.376 0 13.063.608 17.313-4.25 2.428-2.732 3.014-6.756 1.812-10.906-2.22-7.666-11.839-7.281-19.125-7.281zm3.938 3.937c3.644.302 6.768.337 9.5 2.157 2.384 1.588 2.947 6.353 1.125 8.781-2.732 3.036-6.981 3.321-10.625 3.625V60.315zm-219.594-4.03c-1.064.006-2.156.055-3.219.093v29.125c7.182-.17 16.809.076 21.969-6.906 2.732-3.946 2.807-10.615.219-14.657-4.251-6.64-11.519-7.702-18.969-7.656zm.719 4.03c5.16.302 10.168.608 13.812 4.25 2.798 2.8 2.874 8.192.75 11.532-3.34 4.554-9.098 5.164-14.562 5.468v-21.25zm-106.219-35.75a85.58 85.58 0 00-5.188.22c-25.196 1.213-49.503 20.033-59.218 42.5l-.031-38.532H105.28l-.062 45.469H68.5l.031-45.469h-38v125.969H68.5v-48.25h36.719v48.281l38.219-.031.03-41.938.626 1.875c2.125 5.161 4.254 10.33 7.593 15.188 15.483 22.16 39.464 30.96 65.875 28.531 25.198-.911 50.685-20.968 57.97-44.344v40.719l38.218-.031.031-36.406.625 1.187c7.59 11.84 14.27 24.29 23.375 35.219H409V89.347c17 21.555 33.517 44.428 51.125 65.375h33.687c3.57 0 46.963.031 56.313.031 21.424 0 26.614-5.492 31.094-10.875 0 0-3.364 8.85-4.032 10.844h40.532l8.156-20.344H662c2.864 6.977 5.453 14.05 7.937 20.344h40.625s-5.712-16.211-7.718-21.656l6.968 7.625c17.792 18.172 46.163 21.609 73.125 14.062 1.91 0 39.688-.031 39.688-.031l-.031-48.25h36.437v48.281h38.25V28.722h-38.125l-.125 45.562h-36.437V28.722l-36.438.031-2.719-.031c-18.364-6.304-44.03-4.83-61.03 5.187-21.859 12.75-34.61 35.21-33.095 60.407l.313 2.78-25.438-68.374h-39.593l-.844 2.156-31.875 81.969c0-11.536-7.603-22.79-18.531-27.344 10.016-9.714 10.076-27.973 3.75-40.125-5.512-10.586-14.073-16.656-27.469-16.656l-53.375.031H458l.156 64.906C441.46 72.104 424.492 50.725 407 28.753h-33.813l.094 105.937-25.5-29.75c6.982-2.429 13.68-8.813 17.625-15.187 6.376-11.84 6.67-30.973-.312-42.813-7.286-11.232-19.217-18.187-32.469-18.187h-57.406l.031 39.156-4.875-10.344c-14.231-21.915-36.73-33.398-62.5-33zm550.813 4.22c8.545-.127 17.002 1.286 24.343 4.53l.094 37.97c-8.5-11.235-22.153-14.31-35.813-10.97-8.502 2.428-16.995 9.72-20.03 18.22-4.555 12.751-2.752 28.526 7.874 37.937 7.892 6.679 18.508 9.428 29.438 7 6.982-1.518 13.37-5.785 18.53-11.25v36.437c-19.427 8.501-45.851 6.363-63.155-5.781-21.252-13.965-29.728-37.629-25.782-62.219 3.036-22.466 23.353-43.41 44.907-48.875a73.027 73.027 0 0119.593-3zm-550 .124c3.79-.029 7.656.228 11.593.75 18.822 3.036 37.66 14.244 47.375 32.156 11.84 20.946 8.178 51.629-7 69.844-16.09 18.822-38.535 25.8-63.125 22.156-18.519-3.036-37.344-14.253-45.844-32.468-10.928-19.733-10.032-49.799 4.844-67.407 13.576-16.648 31.692-24.874 52.156-25.03zm-174.5 3.781h30.374v45.22c14.63 0 30.062.03 44.938.03 0-14.872-.031-30.086-.031-45.25h30.375v118.094h-30.375v-48.312c-14.603 0-29.124.03-44.625.03v48.282H34.188V32.69zm245.312 0h54.531c7.09 0 13.773 3.863 19.531 7.875 12.446 9.716 14.573 26.116 10.625 40.688-2.732 10.322-13.063 19.429-23.687 21.25l36.75 43.062-.031-112.875h27.937l56.532 72.72c0-23.524-.063-48.425-.063-72.407h31.5v117.781h-31.5l-56-71.875-.094 71.875h-66.25c-9.714-15.179-19.107-30.352-29.125-45.531v45.531H279.5V32.69zm348.188 0h33.093l44.625 118.094h-32.781l-7.281-20.344h-42.5l-8.219 20.344h-32.156L627.687 32.69zm235.28 0h30.657v118.094h-30.344v-47.969c-14.626 0-30.426.094-44.968.094 0 15.427.03 31.676.03 47.875H788V32.94h30.344v45.313c14.616 0 29.749-.031 44.625-.031V32.69zm-365.468.25h54.25c6.646 0 12.848 3.095 17.594 8.22 8.756 9.453 9.486 26.736 3.718 37.968-2.126 3.642-5.483 6.374-9.125 8.5 8.5 1.518 19.086 7.135 21.438 15.531 3.472 12.387 4.01 27.521-6.469 38-7.364 7.363-13.095 9.563-28.687 9.563-18.344 0-35.129.062-52.657.062L497.5 32.94zm259.375 30.47c3.76.023 7.506.814 10.781 2.374 8.334 3.97 11.27 6.36 15.282 13.906v26.782c-11.965 13.565-29.259 15.46-38.063 10.906-10.322-3.947-14.87-14.857-15.781-24.875.304-10.321 4.558-20.338 13.968-25.5 4.1-2.39 8.978-3.624 13.813-3.594z"
    fill="#231f20"/>
</svg>
