<svg width="55" height="18" viewBox="0 0 55 18" fill="none" xmlns="http://www.w3.org/2000/svg">
  <title>Tesco</title>
  <g>
    <path
      d="M1.45029 1.56436H12.2818V3.96278C11.5108 3.31041 9.87479 3.04179 8.14476 3.04179V9.60388C8.14476 10.5824 8.21998 10.8511 8.59607 11.3499H5.13601C5.5121 10.8511 5.58732 10.5824 5.58732 9.60388V3.06097C3.83849 3.06097 2.22129 3.3296 1.45029 3.98197V1.56436ZM17.4531 9.89169C18.5626 9.89169 20.4242 9.62307 21.1388 8.9707V11.3691H13.2596C13.6357 10.9086 13.7109 10.6016 13.7109 9.66144V3.27203C13.7109 2.33185 13.6357 2.02485 13.2596 1.56436H20.7439V3.96278C20.0105 3.31041 18.1677 3.04179 17.0582 3.04179H16.1744V5.65127H16.8137C17.4531 5.65127 18.4121 5.63209 19.0703 5.38265V7.32058C18.4309 7.09033 17.4531 7.05195 16.8137 7.05195H16.1744V9.8725H17.4531V9.89169ZM27.7957 5.34428C29.6761 5.6129 31.2369 6.28446 31.2369 8.37589C31.2369 10.8319 28.9615 11.5994 26.4981 11.5994C24.7869 11.5802 23.3389 11.4267 22.2671 10.9854V8.75963C23.7903 9.77657 25.351 10.0836 26.4981 10.0836C27.6828 10.0836 28.7923 9.79575 28.7923 8.87476C28.7923 7.95376 27.7768 7.72351 25.6895 7.39733C23.8843 7.10952 22.2671 6.34202 22.2483 4.51922C22.2295 2.08242 24.5048 1.33411 26.6674 1.33411C28.0589 1.33411 29.4317 1.50679 30.6728 1.92892V4.28897C29.6385 3.34878 28.0777 2.81154 26.5545 2.81154C25.5203 2.81154 24.5612 3.15691 24.5612 3.92441C24.5612 4.94134 26.0092 5.07565 27.7957 5.34428ZM38.5143 1.35329C39.6426 1.35329 40.6204 1.48761 41.3914 1.69867V4.15466C40.6204 3.34878 39.7178 2.84991 38.5331 2.84991C36.3518 2.84991 34.9038 4.40409 34.9038 6.47633C34.9038 8.54857 36.3518 10.1028 38.5331 10.1028C39.7178 10.1028 40.6392 9.60388 41.3914 8.79801V11.2348C40.6016 11.4459 39.6426 11.5994 38.5143 11.5994C34.7346 11.5994 32.0079 9.68063 32.0079 6.47633C32.0079 3.27204 34.7534 1.35329 38.5143 1.35329Z"
      fill="#ED1C24"/>
    <path
      d="M48.1989 1.3533C44.3063 1.3533 42.0874 3.65579 42.0874 6.45715C42.0874 9.23933 44.3063 11.561 48.1989 11.561C52.0915 11.561 54.3104 9.23933 54.3104 6.45715C54.3104 3.67498 52.0915 1.3533 48.1989 1.3533ZM48.1989 10.1028C46.2432 10.1028 44.9645 8.45264 44.9645 6.47634C44.9645 4.48085 46.2432 2.84992 48.1989 2.84992C50.1546 2.84992 51.4333 4.48085 51.4333 6.47634C51.4333 8.43346 50.1546 10.1028 48.1989 10.1028Z"
      fill="#ED1C24"/>
    <path
      d="M47.6536 14.0362H54.1976H54.2164C54.2353 14.0554 54.2353 14.0745 54.2164 14.0937C54.2164 14.0937 54.1976 14.0937 54.1976 14.1129H54.1788C53.4267 14.4583 52.4112 15.552 52.4112 15.552C51.659 16.2811 51.0761 16.7608 49.8726 16.7608H43.6482C43.6294 16.7608 43.6294 16.7416 43.6106 16.7224C43.6106 16.7032 43.6106 16.7032 43.6294 16.684L43.6482 16.6648C44.3252 16.2811 45.3594 15.1874 45.3594 15.1874C45.7543 14.6885 46.6005 14.0362 47.6536 14.0362Z"
      fill="#0053A1"/>
    <path
      d="M37.0099 14.0362H43.5351H43.5539C43.5727 14.0554 43.5727 14.0745 43.5539 14.0937C43.5539 14.0937 43.5351 14.0937 43.5351 14.1129H43.5163C42.7641 14.4583 41.7487 15.552 41.7487 15.552C40.9965 16.2811 40.4135 16.7608 39.21 16.7608H32.9857C32.9669 16.7608 32.9669 16.7416 32.9481 16.7224C32.9481 16.7032 32.9481 16.7032 32.9669 16.684L32.9857 16.6648C33.6626 16.2811 34.6969 15.1874 34.6969 15.1874C35.1106 14.6885 35.938 14.0362 37.0099 14.0362Z"
      fill="#0053A1"/>
    <path
      d="M26.3664 14.0362H32.9104H32.9292C32.948 14.0554 32.948 14.0745 32.9292 14.0937C32.9292 14.0937 32.9104 14.0937 32.9104 14.1129H32.8916C32.1394 14.4583 31.124 15.552 31.124 15.552C30.3718 16.2811 29.7888 16.7608 28.5853 16.7608H22.361C22.3422 16.7608 22.3422 16.7416 22.3234 16.7224C22.3234 16.7032 22.3234 16.7032 22.3422 16.684L22.361 16.6648C23.0379 16.2811 24.0722 15.1874 24.0722 15.1874C24.4671 14.6885 25.2945 14.0362 26.3664 14.0362Z"
      fill="#0053A1"/>
    <path
      d="M15.7044 14.0362H22.2484H22.2672C22.286 14.0554 22.286 14.0745 22.2672 14.0937C22.2672 14.0937 22.2484 14.0937 22.2484 14.1129H22.2296C21.4774 14.4583 20.462 15.552 20.462 15.552C19.7098 16.2811 19.1269 16.7608 17.9234 16.7608H11.6802C11.6614 16.7608 11.6614 16.7416 11.6426 16.7224C11.6426 16.7032 11.6426 16.7032 11.6614 16.684L11.6802 16.6648C12.3572 16.2811 13.3914 15.1874 13.3914 15.1874C13.8051 14.6885 14.6513 14.0362 15.7044 14.0362Z"
      fill="#0053A1"/>
    <path
      d="M5.06088 14.0362H11.6049H11.6237C11.6425 14.0554 11.6425 14.0745 11.6237 14.0937C11.6237 14.0937 11.6049 14.0937 11.6049 14.1129H11.5861C10.8339 14.4583 9.81846 15.552 9.81846 15.552C9.06628 16.2811 8.48333 16.7608 7.27983 16.7608H1.03668C1.01787 16.7608 1.01787 16.7416 0.999069 16.7224C0.999069 16.7032 0.999069 16.7032 1.01787 16.684L1.03668 16.6648C1.71365 16.2811 2.7479 15.1874 2.7479 15.1874C3.16161 14.6885 3.98901 14.0362 5.06088 14.0362Z"
      fill="#0053A1"/>
  </g>
</svg>
