<svg width="70" height="18" viewBox="0 0 70 18" fill="none" xmlns="http://www.w3.org/2000/svg">
  <title>kasa.cz</title>
  <g>
    <path
      d="M3.83953 13.6552C3.58568 13.9818 3.33182 14.2759 3.1097 14.5699C3.07797 14.6352 3.04624 14.7005 3.04624 14.7985C3.04624 15.7132 3.04624 16.6279 3.04624 17.5426C3.04624 17.608 3.04624 17.6733 3.04624 17.7713C2.98277 17.7713 2.91931 17.7713 2.85585 17.7713C1.96736 17.7713 1.07888 17.7713 0.222121 17.7713C0.0634633 17.7713 0 17.706 0 17.5426C0 12.8058 0 8.06896 0 3.33212C0 3.26678 0 3.20144 0 3.13611C1.01541 3.13611 1.99909 3.13611 3.04624 3.13611C3.04624 6.04355 3.04624 8.98366 3.04624 11.8911H3.07797C3.1097 11.8584 3.14143 11.8258 3.17316 11.7604C4.02992 10.421 4.85494 9.08166 5.71169 7.77495C5.74343 7.70961 5.83862 7.67694 5.90208 7.67694C7.04442 7.67694 8.18676 7.67694 9.36083 7.67694C9.39256 7.67694 9.39256 7.67694 9.45603 7.70961C8.28196 9.08166 7.13962 10.421 5.96555 11.7604C7.29828 13.7532 8.63101 15.7459 9.96373 17.7386C9.86854 17.7386 9.80508 17.7386 9.70988 17.7386C8.59927 17.7386 7.5204 17.7386 6.40979 17.7386C6.25113 17.7386 6.15594 17.706 6.09247 17.5426C5.39438 16.3013 4.66455 15.0599 3.96645 13.8185C3.93472 13.7858 3.87126 13.7205 3.83953 13.6552Z"
      fill="black"/>
    <path
      d="M29.2883 10.3557C29.2566 10.225 29.1931 10.0617 29.1614 9.93101C29.0345 9.47366 28.9075 9.01631 28.7806 8.52629C28.7489 8.39562 28.7806 8.33029 28.9075 8.26495C29.9864 7.74226 31.1287 7.51359 32.3345 7.48092C33.1596 7.44825 33.9529 7.54626 34.7144 7.87294C35.825 8.36295 36.4914 9.24499 36.7135 10.421C36.8087 10.9437 36.8404 11.4664 36.8722 11.9891C36.9039 13.5245 36.9039 15.0272 36.9039 16.5626C36.9039 16.9546 36.9674 17.3793 36.9991 17.7713C36.9356 17.7713 36.9039 17.7713 36.8404 17.7713C36.0471 17.7713 35.2539 17.7713 34.4606 17.7713C34.3019 17.7713 34.2702 17.7386 34.2384 17.5753C34.2067 17.314 34.1432 17.0526 34.0798 16.7586C34.0163 16.7913 33.9846 16.7913 33.9846 16.8239C33.1913 17.706 32.1759 18.0326 31.0335 17.9673C30.3672 17.9346 29.7325 17.7386 29.1931 17.314C27.6065 16.0399 27.67 13.4591 29.32 12.1851C30.0499 11.6297 30.9066 11.3357 31.7951 11.2051C32.398 11.1071 33.0009 11.0744 33.6038 11.0417C33.7625 11.0417 33.7942 10.9764 33.7942 10.813C33.7625 10.225 33.35 9.76767 32.6836 9.637C31.573 9.44099 30.5258 9.70234 29.5104 10.225C29.447 10.2577 29.4152 10.2904 29.3518 10.2904C29.32 10.3557 29.32 10.3557 29.2883 10.3557ZM33.8577 13.7205C33.8577 13.7205 33.8894 13.7205 33.8577 13.7205C33.8577 13.5571 33.8577 13.3611 33.8894 13.1978C33.8894 13.0671 33.8577 13.0018 33.7307 13.0345C33.3182 13.0671 32.9057 13.0998 32.4932 13.1651C32.1124 13.2305 31.7634 13.3611 31.4778 13.6225C31.097 13.9818 31.0018 14.4065 31.097 14.9292C31.1605 15.3212 31.4143 15.6152 31.7951 15.7459C32.7471 16.0726 33.7942 15.3865 33.8894 14.3738C33.8894 14.1452 33.8577 13.9165 33.8577 13.7205Z"
      fill="black"/>
    <path
      d="M11.2013 10.3557C11.0109 9.70238 10.8522 9.08169 10.6618 8.461C10.6301 8.33033 10.7253 8.29766 10.7888 8.265C11.4234 7.93832 12.058 7.74231 12.7561 7.61164C13.7715 7.41563 14.8187 7.38296 15.8341 7.61164C17.4841 7.97099 18.4678 9.14703 18.6582 10.8784C18.6899 11.2378 18.7217 11.5971 18.7217 11.9565C18.7217 13.3612 18.7217 14.7659 18.7534 16.1706C18.7534 16.6606 18.8169 17.1507 18.8486 17.6407C18.8486 17.6733 18.8486 17.706 18.8486 17.7713C17.9284 17.7713 17.0399 17.7713 16.1197 17.7713C16.0562 17.4447 15.9927 17.118 15.9293 16.7586C15.8658 16.7913 15.8341 16.824 15.8024 16.8566C15.0091 17.7387 13.9937 18.0654 12.8513 18C11.8676 17.9674 11.0109 17.5427 10.4397 16.6933C9.58295 15.4846 9.64642 13.2959 11.233 12.1525C11.9628 11.6298 12.7561 11.3358 13.6446 11.2051C14.2475 11.1071 14.8821 11.0744 15.485 11.0418C15.612 11.0418 15.6754 11.0091 15.6754 10.8458C15.6437 10.2251 15.2629 9.76772 14.5648 9.66972C13.4542 9.47371 12.4071 9.73505 11.3917 10.2577C11.3599 10.2904 11.2965 10.3231 11.2013 10.3557ZM15.7706 13.7532C15.8024 13.7532 15.8024 13.7532 15.7706 13.7532C15.7706 13.5572 15.7706 13.3612 15.7706 13.1652C15.7706 13.0672 15.7389 13.0345 15.6437 13.0345C15.0725 13.0345 14.5331 13.0672 13.9937 13.2632C13.7398 13.3612 13.4542 13.5245 13.2638 13.7205C12.6292 14.3412 12.883 15.5173 13.6763 15.7459C14.7552 16.0726 15.7389 15.2233 15.7706 14.3086C15.7706 14.1125 15.7706 13.9165 15.7706 13.7532Z"
      fill="black"/>
    <path
      d="M53.9755 10.1597C53.8486 10.1597 53.7851 10.1597 53.7217 10.1597C52.4524 10.1597 51.1831 10.1597 49.8821 10.1597C49.6917 10.1597 49.66 10.0944 49.66 9.93104C49.66 9.27768 49.66 8.59166 49.66 7.9383C49.66 7.87296 49.66 7.80763 49.66 7.70963C49.7552 7.70963 49.8187 7.70963 49.8821 7.70963C52.4207 7.70963 54.9592 7.70963 57.466 7.70963C57.6247 7.70963 57.6881 7.74229 57.6881 7.9383C57.6881 8.46099 57.6881 8.951 57.6881 9.47369C57.6881 9.53903 57.6564 9.63703 57.6247 9.70237C56.3554 11.3358 55.0544 12.9692 53.7851 14.6025C53.5947 14.8312 53.3726 15.0599 53.1505 15.3212C54.7371 15.3212 56.2919 15.3212 57.8468 15.3212C57.8468 15.4192 57.8785 15.4519 57.8785 15.5172C57.8785 16.2359 57.8785 16.922 57.8785 17.6407C57.8785 17.804 57.8468 17.8367 57.6881 17.8367C54.9592 17.8367 52.262 17.8367 49.5331 17.8367C49.4696 17.8367 49.4379 17.8367 49.3744 17.8367C49.3744 17.7713 49.3744 17.706 49.3744 17.6407C49.3744 17.1506 49.3744 16.6933 49.3744 16.2033C49.3744 16.1053 49.4062 15.9746 49.4696 15.9093C50.9293 14.0472 52.3255 12.0871 53.9438 10.3557C53.9121 10.2577 53.9438 10.2577 53.9755 10.1597Z"
      fill="black"/>
    <path
      d="M20.3717 15.0599C20.6573 15.1906 20.9112 15.3213 21.165 15.4193C21.7996 15.6479 22.4343 15.8113 23.1006 15.8113C23.3228 15.8113 23.5766 15.7459 23.7987 15.6806C24.0843 15.5826 24.2747 15.3866 24.3064 15.0599C24.3382 14.7332 24.243 14.4719 23.9891 14.3085C23.6718 14.1452 23.3545 14.0145 23.0372 13.8512C22.5612 13.6225 22.0852 13.4265 21.6093 13.1978C21.5141 13.1652 21.4506 13.0998 21.3554 13.0345C19.4832 11.7278 19.9592 9.4737 21.1016 8.49367C21.7996 7.87298 22.6247 7.61163 23.5132 7.51363C24.6872 7.38296 25.7344 7.7423 26.7498 8.26499C26.7815 8.29766 26.845 8.36299 26.8132 8.39566C26.6546 9.01635 26.4642 9.66971 26.2738 10.3231C26.1786 10.2904 26.1151 10.2577 26.0517 10.2251C25.4171 9.89838 24.7824 9.63704 24.0526 9.66971C23.8305 9.66971 23.6083 9.73504 23.3862 9.83305C22.8785 10.0944 22.8151 10.7477 23.291 11.0744C23.5766 11.2704 23.8939 11.4011 24.2113 11.5318C24.719 11.7605 25.2267 11.9565 25.7344 12.2178C26.4007 12.5771 26.8767 13.1325 27.0988 13.8839C27.5431 15.3866 26.9084 16.8566 25.5122 17.5427C24.8776 17.8367 24.243 18 23.5449 18.0327C22.3391 18.098 21.1967 17.9673 20.0861 17.4773C19.8006 17.3467 19.8006 17.3467 19.8957 17.0526C20.0227 16.4646 20.1813 15.9093 20.3083 15.3213C20.3083 15.1906 20.34 15.1252 20.3717 15.0599Z"
      fill="black"/>
    <path
      d="M47.7561 15.2232C47.8513 15.8112 47.9465 16.3666 48.01 16.922C48.0417 17.02 48.0417 17.1506 48.0734 17.2486C48.1369 17.5753 48.1369 17.5426 47.8513 17.6407C46.3599 18.0653 44.8685 18.1633 43.4089 17.6733C41.6319 17.0853 40.6165 15.8112 40.2992 13.9165C40.1088 12.8385 40.1723 11.7604 40.5848 10.7151C41.1877 9.17967 42.2665 8.2323 43.7897 7.74229C45.1859 7.3176 46.582 7.35027 47.9782 7.77495C48.0417 7.77495 48.0734 7.80762 48.1369 7.84029C48.1369 7.84029 48.1686 7.84029 48.1686 7.87296C48.01 8.62432 47.8513 9.40835 47.6927 10.1597C47.3436 10.0944 46.9946 9.99637 46.6455 9.93103C46.2013 9.8657 45.7253 9.8657 45.281 9.9637C44.2022 10.225 43.4406 11.1397 43.3454 12.3158C43.3137 12.7731 43.3137 13.2632 43.4723 13.7205C43.8214 14.8639 44.8051 15.5826 46.0743 15.5499C46.6138 15.5172 47.1849 15.4519 47.7561 15.2232Z"
      fill="black"/>
    <path
      d="M64.0345 5.52085C62.6065 6.04354 61.2421 6.56623 59.8459 7.08891C59.8141 7.02358 59.7824 6.99091 59.7824 6.92557C59.4968 5.94554 59.2112 4.99817 58.9574 4.01813C58.7987 3.36477 59.0526 2.74408 59.6555 2.45007C60.544 2.02539 61.4325 1.63338 62.3209 1.24136C62.3527 1.20869 62.4161 1.20869 62.4796 1.17603C63.019 2.61341 63.5268 4.0508 64.0345 5.52085Z"
      fill="#FF6300"/>
    <path
      d="M64.2566 6.17422C64.7643 7.61161 65.272 9.01633 65.7797 10.4864C65.7162 10.5191 65.6528 10.5517 65.5576 10.5844C64.6056 10.8784 63.6854 11.1397 62.7335 11.4011C62.194 11.5644 61.5276 11.2704 61.3055 10.7477C60.8613 9.80036 60.4805 8.85299 60.068 7.87295C60.0363 7.77495 60.0363 7.70962 60.1315 7.67695C61.4642 7.18693 62.8286 6.66424 64.1614 6.17422C64.1931 6.17422 64.2248 6.17422 64.2566 6.17422Z"
      fill="#FF6300"/>
    <path
      d="M64.6691 5.29219C64.1614 3.85481 63.6537 2.41742 63.146 0.980034C63.2094 0.947367 63.2729 0.914699 63.3364 0.914699C64.2566 0.653356 65.1451 0.359345 66.0653 0.0980018C66.7951 -0.0980054 67.3663 0.196005 67.6836 0.882031C68.0644 1.76406 68.4451 2.6461 68.7942 3.52813C68.8259 3.59346 68.8259 3.6588 68.8577 3.7568C67.4615 4.24682 66.0653 4.73684 64.6691 5.29219Z"
      fill="#FF6300"/>
    <path
      d="M69.0798 4.3448C69.2067 4.70415 69.3336 5.0635 69.4288 5.42284C69.6192 6.0762 69.7779 6.72956 69.9683 7.41558C70.1269 8.03627 69.8413 8.68963 69.2702 8.95097C68.3817 9.37566 67.4932 9.76767 66.6047 10.1597C66.4778 10.225 66.4143 10.1924 66.3509 10.029C65.8749 8.68963 65.4306 7.38292 64.9547 6.04353C64.9229 5.94553 64.8912 5.88019 65.0181 5.81486C66.3509 5.32484 67.7153 4.83482 69.048 4.31213C69.048 4.37747 69.048 4.37747 69.0798 4.3448Z"
      fill="#FF6300"/>
    <path
      d="M38.9665 15.3539C39.6963 15.3539 40.1723 15.8766 40.1723 16.628C40.1723 17.3793 39.6645 17.9347 38.9347 17.9347C38.2366 17.9347 37.7289 17.412 37.7289 16.6606C37.7607 15.8766 38.2366 15.3539 38.9665 15.3539Z"
      fill="black"/>
    <path
      d="M33.8577 13.7205C33.8577 13.9492 33.8894 14.1452 33.8577 14.3739C33.7625 15.3866 32.6836 16.0726 31.7634 15.7459C31.3826 15.6152 31.1605 15.3539 31.0653 14.9292C30.9701 14.4392 31.0653 13.9819 31.4461 13.6225C31.7316 13.3612 32.0807 13.2305 32.4615 13.1652C32.874 13.0998 33.2865 13.0672 33.699 13.0345C33.8259 13.0345 33.8577 13.0672 33.8577 13.1978C33.8894 13.3612 33.8894 13.5245 33.8577 13.7205C33.8577 13.7205 33.8894 13.7205 33.8577 13.7205Z"
      fill="white"/>
    <path
      d="M15.7706 13.7532C15.7706 13.9492 15.7706 14.1125 15.7706 14.3085C15.7706 15.2232 14.7552 16.0726 13.6763 15.7459C12.883 15.5172 12.6292 14.3739 13.2638 13.7205C13.4542 13.5245 13.7398 13.3612 13.9936 13.2632C14.5331 13.0345 15.0725 13.0345 15.6437 13.0345C15.7389 13.0345 15.7706 13.0672 15.7706 13.1652C15.8024 13.3612 15.8024 13.5572 15.7706 13.7532C15.8024 13.7532 15.8024 13.7532 15.7706 13.7532Z"
      fill="white"/>
  </g>
</svg>
