<svg xmlns="http://www.w3.org/2000/svg" viewBox="0 0 2468.5 681.2">
  <path fill="#e10915" d="M2411.6 273v120.9a85.84 85.84 0 0 0-62.4-26.6c-55.2 0-92.7 45.5-92.7 103.2s38.3 101.6 92.7 101.6c31.6 0 52.3-15.6 62.4-26.5v22.3h56.9V273Zm0 229.6a54.67 54.67 0 0 1-43.8 21.1c-30.3 0-51.8-21.9-51.8-53.9s21.5-53.9 51.8-53.9a54.67 54.67 0 0 1 43.8 21.1Zm-262.2-135.2a83 83 0 0 0-62.4 27.8v-23.6h-57.3V568h57.3V439c7.2-10.1 20.7-22.3 42.1-22.3 24 0 37.9 15.6 37.9 41.3v110h57.7V446.6c.1-46.3-26.4-79.2-75.3-79.2m-218.3 4.2v20.7c-11.8-11.4-32-24.9-60.3-24.9-54.8 0-92.7 45.5-92.7 103.2 0 56.9 37.5 101.6 92.7 101.6 29.9 0 49.7-13.9 60.3-24.5v20.2h56.9V371.6Zm0 133.6a54.74 54.74 0 0 1-41.7 18.5c-30.3 0-51.8-21.9-51.8-53.9s21.5-53.9 51.8-53.9a55.08 55.08 0 0 1 41.7 18.5ZM1683.4 273h58.6v294.9h-58.6zm-67.6 43.4c19.4 0 30.8 8.4 30.8 8.4l9.3-43.8s-15.6-12.2-52.7-12.2c-48 0-77.9 27.8-77.9 79.6v23.2h-29.1v47.2h29.1V568h58.6V418.8h66.6v-47.2h-66.6v-18.1c-.2-24.9 11.2-37.1 31.9-37.1m-208.2 184.1c-7.6 9.7-21 22.3-42.1 22.3-24 0-38.4-15.6-38.4-41.3v-110h-57.7v121.4c0 46.3 26.5 79.2 75.4 79.2 32.5 0 52.6-16.9 62.8-27.8v23.6h56.9V371.6h-56.9Zm-235.7-128.9v20.7c-11.8-11.4-32-24.9-60.2-24.9-54.8 0-92.7 45.5-92.7 103.2 0 56.9 37.5 101.6 92.7 101.6 29.9 0 49.7-13.9 60.2-24.5v20.2h56.9V371.6Zm0 133.6a54.74 54.74 0 0 1-41.7 18.5c-30.3 0-51.8-21.9-51.8-53.9s21.5-53.9 51.8-53.9a55.08 55.08 0 0 1 41.7 18.5Z"/>
  <path fill="#e10915" d="M1025.6 273h-75l-96.9 135.3V273h-66.2v294.9h66.2V435.2l96.9 132.7h76.7L913.5 417.1 1025.6 273zm-912.7 85.4h209.6V568H112.9Zm245.4 209.5H568L358.3 358.2Zm.2-454.7v209.7l209.7-209.7Zm-245.3 0h209.6v209.6H113.2Z"/>
  <path fill="#e10915" d="M0 681.2h681.1V0H0Zm643.8-37.4H37.3V37.3h606.5Z"/>
</svg>
