<svg role="img" aria-describedby="kaufland-logo" focusable="false" viewBox="0 0 2501.7 2501.6"
     xmlns="http://www.w3.org/2000/svg" class="svg-logo__image">
  <path d="M0 2501.6h2501.7V0H0Zm2398.5-103.1H103.1V103.1h2295.3v2295.4Z"></path>
  <path
    d="M787.5 981.6H1245v457.5H787.5zm526.3-.2v457.7h457.8l-457.8-457.7zm-526.3-526H1245v457.5H787.5zm526.3 0v457.7l457.8-457.7h-457.8zM572.9 1709.6h-84.4l-109 152.2v-152.2h-74.4v331.9h74.4v-149.4l109 149.4h86.3l-128-169.8 126.1-162.1zm430 256c-8.6 10.9-23.7 25.1-47.4 25.1-27 0-43.1-17.5-43.1-46.5v-123.8h-65V1957c0 52.2 29.9 89.1 84.9 89.1 36.5 0 59.3-19 70.6-31.3v26.6h64v-221h-64v145.2Zm589-145.1v23.3c-13.3-12.8-36.1-28-67.8-28-61.6 0-104.3 51.2-104.3 116.2 0 64 42.2 114.3 104.3 114.3 33.7 0 55.9-15.7 67.8-27.5v22.8h64v-221h-64Zm0 150.3c-9 9.9-24.2 20.9-47 20.9-34.2 0-58.3-24.6-58.3-60.7s24.2-60.7 58.3-60.7c22.7 0 37.9 10.9 47 20.9Z"></path>
  <path
    d="M737.6 1820.5v23.3c-13.3-12.8-36.1-28-67.8-28-61.6 0-104.3 51.2-104.3 116.2 0 64 42.2 114.3 104.3 114.3 33.7 0 55.9-15.7 67.8-27.5v22.8h64v-221h-64Zm0 150.3c-9 9.9-24.2 20.9-47 20.9-34.1 0-58.3-24.6-58.3-60.7s24.2-60.7 58.3-60.7c22.8 0 37.9 10.9 47 20.9Zm1394.9-261.2v136a96.59 96.59 0 0 0-70.2-29.9c-62.1 0-104.3 51.2-104.3 116.2s43.1 114.3 104.3 114.3c35.5 0 58.8-17.5 70.2-29.9v25.1h64v-331.9l-64 .1Zm0 258.4a61.56 61.56 0 0 1-49.3 23.7c-34.2 0-58.3-24.6-58.3-60.7s24.2-60.7 58.3-60.7a61.72 61.72 0 0 1 49.3 23.7Zm-295-152.2a93.06 93.06 0 0 0-70.2 31.3v-26.6h-64.5v221h64.5v-145.1c8.1-11.4 23.2-25.1 47.4-25.1 27 0 42.7 17.6 42.7 46.5v123.8h65V1905c0-52.2-29.9-89.2-84.9-89.2m-600.5-57.4c21.8 0 34.6 9.5 34.6 9.5l10.4-49.3s-17.5-13.8-59.3-13.8c-54 0-87.7 31.3-87.7 89.6v26.1h-32.7v53.1h32.7v167.8h65.9v-167.8h74.9v-53.1h-74.9v-20.4c.1-27.9 12.9-41.7 36.1-41.7m76.1-48.8h65.9v331.9h-65.9z"></path>
</svg>
