<svg width="161" height="41" viewBox="0 0 161 41" fill="none" xmlns="http://www.w3.org/2000/svg">
<path d="M156.743 26.4164C156.743 28.7628 154.635 30.3742 151.872 30.3742C149.87 30.3742 148.315 29.3585 148.315 27.5716V27.5025C148.315 25.5762 149.904 24.4195 152.599 24.4195C154.255 24.4195 155.672 24.7359 156.743 25.156V26.4164ZM158.746 16.3989C157.467 15.0681 155.431 14.3329 152.702 14.3329C150.318 14.3329 148.557 14.753 146.83 15.4191C146.208 15.6637 145.69 16.3284 145.69 17.0995C145.69 18.0806 146.485 18.8504 147.451 18.8504C147.659 18.8504 147.866 18.8158 148.107 18.7453C149.248 18.2907 150.56 18.0102 152.149 18.0102C155.085 18.0102 156.674 19.4114 156.674 22.0385V22.4931C155.257 22.0385 153.807 21.7234 151.769 21.7234C147.313 21.7234 144.239 23.6843 144.239 27.678V27.7471C144.239 31.4603 147.279 33.4572 150.698 33.4572C153.496 33.4572 155.396 32.266 156.639 30.7597V31.4603C156.639 32.4056 157.467 33.2472 158.677 33.2472C159.817 33.2472 160.714 32.371 160.714 31.2157V22.1075C160.714 19.692 160.093 17.7296 158.746 16.3989ZM139.957 7.32797C138.783 7.32797 137.884 8.2732 137.884 9.42848V31.1453C137.884 32.3365 138.817 33.2472 139.957 33.2472C141.131 33.2472 142.064 32.3365 142.064 31.1453V9.42848C142.064 8.2732 141.131 7.32797 139.957 7.32797ZM131.289 23.9303C131.289 27.117 129.147 29.7799 125.762 29.7799C122.516 29.7799 120.202 27.0824 120.202 23.8598V23.7893C120.202 20.5681 122.343 17.9051 125.694 17.9051C128.975 17.9051 131.289 20.6013 131.289 23.8598V23.9303ZM125.762 14.1919C120.167 14.1919 116.022 18.5712 116.022 23.8598V23.9303C116.022 29.1829 120.133 33.4918 125.694 33.4918C131.323 33.4918 135.467 29.1139 135.467 23.8598V23.7893C135.467 18.5007 131.358 14.1919 125.762 14.1919ZM110.669 23.9303C110.669 27.117 108.528 29.7799 105.143 29.7799C101.896 29.7799 99.5823 27.0824 99.5823 23.8598V23.7893C99.5823 20.5681 101.724 17.9051 105.074 17.9051C108.355 17.9051 110.669 20.6013 110.669 23.8598V23.9303ZM105.143 14.1919C99.5479 14.1919 95.4025 18.5712 95.4025 23.8598V23.9303C95.4025 29.1829 99.5134 33.4918 105.074 33.4918C110.704 33.4918 114.848 29.1139 114.848 23.8598V23.7893C114.848 18.5007 110.738 14.1919 105.143 14.1919ZM89.9121 23.8598C89.9121 27.5025 87.5638 29.7799 84.6973 29.7799C81.8653 29.7799 79.3778 27.3975 79.3778 23.8598V23.7893C79.3778 20.2516 81.8653 17.8692 84.6973 17.8692C87.5293 17.8692 89.9121 20.2171 89.9121 23.7893V23.8598ZM85.6978 14.1919C82.728 14.1919 80.8289 15.7342 79.4811 17.6605V9.42848C79.4811 8.23727 78.5495 7.32797 77.374 7.32797C76.1998 7.32797 75.3027 8.23727 75.3027 9.42848V31.1453C75.3027 32.3005 76.2343 33.2472 77.374 33.2472C78.5495 33.2472 79.4811 32.3005 79.4811 31.1453V30.2C80.76 31.915 82.6591 33.4572 85.6978 33.4572C90.0154 33.4572 94.1608 29.9886 94.1608 23.8598V23.7893C94.1608 17.6246 89.981 14.1919 85.6978 14.1919ZM59.6569 22.529C60.0373 19.656 61.8329 17.6605 64.3894 17.6605C67.1525 17.6605 68.7401 19.7956 69.0171 22.529H59.6569ZM64.4238 14.1919C59.2076 14.1919 55.5129 18.5353 55.5129 23.8253V23.8944C55.5129 29.6044 59.588 33.4918 64.8717 33.4918C67.7051 33.4918 69.7764 32.5465 71.4343 31.0402C71.7457 30.7252 71.9869 30.2691 71.9869 29.744C71.9869 28.7628 71.262 28.0277 70.329 28.0277C69.8453 28.0277 69.5697 28.1686 69.2582 28.4132C68.0841 29.3944 66.7032 30.0245 64.942 30.0245C62.2478 30.0245 60.1406 28.3427 59.6913 25.3302H71.1242C72.195 25.3302 73.0922 24.49 73.0922 23.2988C73.0922 19.0259 70.2257 14.1919 64.4238 14.1919ZM46.6364 19.341L54.1665 11.9864C54.6488 11.5304 54.9258 11.0398 54.9258 10.3751C54.9258 9.32345 54.1306 8.37823 52.9565 8.37823C52.1971 8.37823 51.679 8.65737 51.1952 9.18388L39.7293 20.8832V10.5147C39.7293 9.32346 38.7963 8.37823 37.6222 8.37823C36.4136 8.37823 35.4806 9.32346 35.4806 10.5147V31.1093C35.4806 32.3005 36.4136 33.2472 37.6222 33.2472C38.7963 33.2472 39.7293 32.3005 39.7293 31.1093V26.0308L43.6666 22.178L51.4378 32.2315C51.8857 32.8271 52.4039 33.2472 53.2335 33.2472C54.4421 33.2472 55.3751 32.3365 55.3751 31.1453C55.3751 30.4792 55.1325 30.0591 54.788 29.6044L46.6364 19.341ZM9.48513 19.8716C10.3947 19.8716 11.132 20.5971 11.132 21.4898C11.132 22.3853 10.3947 23.1094 9.48513 23.1094C8.57557 23.1094 7.83828 22.3853 7.83828 21.4898C7.83828 20.5971 8.57557 19.8716 9.48513 19.8716ZM13.8179 19.8716C14.7275 19.8716 15.4648 20.5971 15.4648 21.4898C15.4648 22.3853 14.7275 23.1094 13.8179 23.1094C12.9084 23.1094 12.1711 22.3853 12.1711 21.4898C12.1711 20.5971 12.9084 19.8716 13.8179 19.8716ZM11.8073 25.514C16.9173 25.514 21.4141 18.6445 21.4141 9.94393C21.4141 1.24478 18.1438 0.00244141 11.8073 0.00244141C5.47067 0.00244141 1.89032 1.24478 1.89032 9.94393C1.89032 18.6445 6.18729 25.514 11.8073 25.514ZM23.0761 33.4544C22.3857 32.3033 21.6126 31.4051 20.8188 30.6671C20.0222 29.9278 19.2229 29.3446 18.4443 28.7615C18.0763 28.4851 17.6987 28.2308 17.3142 28C17.6987 27.7693 18.0763 27.5136 18.4443 27.2372C20.222 25.9064 21.7683 24.1113 23.0761 21.9307C23.5378 21.1609 23.276 20.1687 22.4932 19.7155C21.709 19.2622 20.7003 19.5178 20.2372 20.2876C19.1058 22.1766 17.8186 23.6387 16.4501 24.6613C14.9838 25.7517 13.5409 26.292 12.0581 26.3777C11.923 26.3735 11.788 26.3694 11.6515 26.3694C11.5165 26.3694 11.38 26.3735 11.245 26.3777C9.76213 26.292 8.32062 25.7517 6.85293 24.6613C5.48446 23.6387 4.19867 22.1766 3.06586 20.2876C2.60419 19.5178 1.59403 19.2622 0.811258 19.7155C0.027109 20.1687 -0.233355 21.1609 0.228314 21.932C1.53615 24.1113 3.08102 25.9064 4.85879 27.2372C5.22675 27.5136 5.60435 27.7693 5.99023 28C5.60435 28.2308 5.22675 28.4851 4.85879 28.7615C4.08153 29.3446 3.28085 29.9278 2.48567 30.6671C1.69188 31.4051 0.917373 32.3033 0.228314 33.4544C-0.233355 34.2242 0.027109 35.2178 0.811258 35.671C1.59403 36.1243 2.60419 35.8687 3.06586 35.0989C3.59643 34.2159 4.14079 33.5885 4.75268 33.015C5.36318 32.4443 6.05775 31.933 6.8543 31.3374C7.24293 31.0485 7.62881 30.7984 8.01606 30.5856C7.9692 30.6685 7.92372 30.7528 7.87825 30.8399C6.76059 32.9459 5.60986 35.8687 5.60435 39.1977C5.60435 40.0904 6.34165 40.8145 7.2512 40.8145C8.16076 40.8145 8.89805 40.0904 8.89805 39.1977C8.89254 36.6273 9.82691 34.1537 10.7957 32.3406C11.0906 31.7879 11.3856 31.2973 11.6515 30.8841C11.9327 31.318 12.2441 31.8376 12.5528 32.4263C13.5065 34.2311 14.4105 36.666 14.405 39.1977C14.405 40.0904 15.1423 40.8145 16.0532 40.8145C16.9628 40.8145 17.7001 40.0904 17.7001 39.1977C17.6946 35.8687 16.5425 32.9459 15.4262 30.8399C15.3793 30.7528 15.3339 30.6685 15.2884 30.5856C15.6743 30.7984 16.0615 31.0485 16.4501 31.3374C17.2453 31.933 17.9399 32.4443 18.5518 33.015C19.1637 33.5885 19.7066 34.2159 20.2372 35.0975C20.5445 35.6102 21.0944 35.8949 21.658 35.8949C21.9419 35.8949 22.23 35.8231 22.4932 35.671C23.276 35.2178 23.5378 34.2242 23.0761 33.4544Z" fill="#3CA0FF"/>
</svg>
