<svg xmlns="http://www.w3.org/2000/svg" version="1.0" x="2" y="20" viewBox="0 0 220 54">
  <path fill="#7E459A" d="M205.333 0H220v27h-14.667z"/>
  <path fill="#EC1C2E" d="M197.999 0h4.89v27h-4.89z"/>
  <path fill="#007CC1" d="M188.222 0h7.332v27h-7.332z"/>
  <path fill="#FFDE1B" d="M173.556 0h9.778v27h-9.778z"/>
  <path fill="#007CC1" d="M153.999 0h14.667v27h-14.667z"/>
  <path fill="#2CA243" d="M146.667 0h4.889v27h-4.889z"/>
  <path fill="#EC1C2E" d="M137.108 0h7.344v27h-7.344z"/>
  <path fill="#FFDE1B" d="M122.417 0h9.793v27h-9.793z"/>
  <path fill="#EC1C2E" d="M102.831 0h14.689v27h-14.689z"/>
  <path fill="#007CC1" d="M95.485 0h4.897v27h-4.897z"/>
  <path fill="#7E459A" d="M85.692 0h7.346v27h-7.346z"/>
  <path fill="#2CA243" d="M70.889 0h9.777v27h-9.777z"/>
  <path fill="#FFDE1B" d="M51.334 0H66v27H51.334z"/>
  <path fill="#EC1C2E" d="M43.999 0h4.891v27h-4.891z"/>
  <path fill="#007CC1" d="M34.222 0h7.333v27h-7.333z"/>
  <path fill="#2CA243" d="M19.556 0h9.778v27h-9.778z"/>
  <path fill="#FFF"
        d="M202.889 0h2.445v27h-2.445zM195.554 0h2.444v27h-2.444zM183.334 0h4.888v27h-4.888zM168.666 0h4.889v27h-4.889zM151.556 0h2.443v27h-2.443zM144.452 0h2.443v27h-2.443zM132.21 0h4.898v27h-4.898zM117.52 0h4.897v27h-4.897zM100.381 0h2.45v27h-2.45zM93.037 0h2.447v27h-2.447zM65.999 0h4.89v27h-4.89zM80.667 0h4.89v27h-4.89zM48.89 0h2.443v27H48.89zM41.555 0h2.444v27h-2.444zM29.334 0h4.888v27h-4.888zM14.667 0h4.888v27h-4.888z"/>
  <path fill="#EC1C2E" d="M0 0h14.667v27H0z"/>
  <path fill="#231F20" d="M0 27h220v27H0z"/>
  <g fill="#FFF">
    <path
      d="M9.743 47.046c0 .038-.019.076-.057.115-.038.038-.076.058-.114.058h-2.54a.15.15 0 01-.123-.058.178.178 0 01-.048-.115v-13.15c0-.127.057-.191.171-.191h2.54c.038 0 .076.019.114.058a.184.184 0 01.057.134v3.178c0 .409-.003.804-.01 1.187-.006.383-.022.715-.047.995h.398c.151 0 .433-.211.843-.632.41-.421.919-1.034 1.526-1.838.341-.446.723-.938 1.147-1.474.423-.536.831-1.021 1.222-1.455a.343.343 0 01.284-.153h2.899c.114 0 .171.07.171.211 0 .115-.032.192-.095.23-.215.128-.6.482-1.156 1.062a53.048 53.048 0 00-2.122 2.402 27.487 27.487 0 01-1.289 1.426c-.404.415-.708.686-.909.813.088.038.221.137.398.297.177.16.379.363.606.613.228.249.477.536.749.861.271.325.559.667.862 1.024.366.434.746.868 1.137 1.302.391.434.758.833 1.099 1.196.341.363.644.676.909.938.265.262.461.437.588.526.088.051.133.147.133.287 0 .217-.057.325-.171.325h-3.127a.45.45 0 01-.322-.153 28.287 28.287 0 01-1.459-1.684 69.747 69.747 0 01-1.402-1.8c-.619-.842-1.147-1.483-1.583-1.923-.436-.44-.742-.661-.919-.661h-.417c.025.306.041.683.047 1.129.006.447.01.894.01 1.34v3.58zM25.092 38.969a48.333 48.333 0 01-.663-1.589 21.702 21.702 0 01-.587-1.703c.051.715.085 1.385.104 2.01.019.625.028 1.263.028 1.914v7.446a.186.186 0 01-.047.115c-.032.038-.066.058-.104.058h-2.331a.15.15 0 01-.123-.058.178.178 0 01-.048-.115v-13.15c0-.127.057-.191.171-.191h3.619c.126 0 .221.064.285.191l4.074 7.331c.29.625.549 1.241.777 1.847.228.606.436 1.254.625 1.943l-.104-1.34a25.829 25.829 0 01-.066-1.11 52.306 52.306 0 01-.037-2.029v-6.642c0-.127.057-.191.171-.191h2.312c.038 0 .076.019.114.058a.184.184 0 01.057.134v13.15c0 .038-.019.076-.057.115s-.076.058-.114.058h-3.373c-.114 0-.189-.051-.228-.153l-4.455-8.099zM41.389 47.046c0 .038-.019.076-.057.115s-.076.058-.114.058h-2.54a.15.15 0 01-.123-.058.178.178 0 01-.048-.115v-13.15c0-.127.057-.191.171-.191h2.54c.038 0 .076.019.114.058a.184.184 0 01.057.134v13.149zM53.624 38.873c.684 0 1.324.019 1.92.057-.026-.37-.041-.753-.047-1.148-.007-.395-.01-.797-.01-1.206v-2.68c0-.127.057-.191.17-.191h2.542c.037 0 .075.019.113.058a.188.188 0 01.057.134v13.15c0 .038-.019.076-.057.115-.038.038-.075.058-.113.058h-2.542a.147.147 0 01-.122-.058.182.182 0 01-.047-.115v-3.158c0-.931.019-1.812.057-2.641-.38.026-.707.038-.979.038h-4.172c-.266 0-.589-.012-.969-.038.025.409.038.839.038 1.292v4.507c0 .038-.019.076-.057.115s-.076.058-.114.058h-2.54a.15.15 0 01-.123-.058.178.178 0 01-.048-.115v-13.15c0-.127.057-.191.171-.191h2.54c.038 0 .076.019.114.058a.184.184 0 01.057.134v3.886c0 .396-.013.778-.038 1.148a29.34 29.34 0 011.901-.057h2.298zM69.169 47.046c0 .038-.019.076-.057.115-.038.038-.076.058-.114.058h-2.539a.149.149 0 01-.123-.058.182.182 0 01-.047-.115V41.61l-5.495-7.58a.3.3 0 01-.057-.22c.013-.07.076-.105.19-.105h2.861a.3.3 0 01.208.067c.05.045.101.099.151.163l2.066 2.89c.328.46.622.919.881 1.378.259.46.484.932.673 1.416.228-.497.477-.976.749-1.435.272-.46.565-.906.881-1.34l2.104-2.89c.114-.166.252-.249.417-.249h2.634c.101 0 .164.032.19.096.025.064.006.14-.057.229l-5.515 7.58v5.436zM82.964 47.218a.15.15 0 01-.123-.058.178.178 0 01-.048-.115v-13.15c0-.127.057-.191.171-.191h5.003c1.099 0 2.084.153 2.956.459.871.306 1.611.753 2.217 1.34a5.938 5.938 0 011.402 2.154c.328.848.493 1.815.493 2.9 0 1.098-.164 2.061-.493 2.89-.329.83-.796 1.525-1.402 2.086-.606.562-1.336.983-2.189 1.263-.853.281-1.797.421-2.833.421h-5.154zm4.89-2.277c1.263 0 2.267-.364 3.013-1.091.745-.727 1.118-1.85 1.118-3.369a6.3 6.3 0 00-.246-1.799 3.83 3.83 0 00-.768-1.426c-.347-.402-.799-.714-1.355-.938-.556-.223-1.225-.335-2.009-.335-.29 0-.622-.003-.995-.009a14.716 14.716 0 01-1.014-.048c.025.37.044.727.057 1.072.012.345.019.721.019 1.129v3.962c0 .651-.007 1.2-.019 1.646-.013.447-.031.868-.057 1.263.429-.026.811-.042 1.146-.048.336-.006.705-.009 1.11-.009zM104.946 33.264a7.24 7.24 0 012.653.488 6.624 6.624 0 012.198 1.397 6.677 6.677 0 011.506 2.201c.373.861.559 1.834.559 2.919 0 1.072-.174 2.051-.521 2.938a6.713 6.713 0 01-1.449 2.278 6.449 6.449 0 01-2.189 1.464c-.84.345-1.76.517-2.757.517-.96 0-1.86-.172-2.7-.517a6.627 6.627 0 01-2.198-1.455 6.757 6.757 0 01-1.478-2.268c-.36-.887-.54-1.873-.54-2.957 0-1.072.183-2.038.549-2.9a6.68 6.68 0 011.497-2.211 6.515 6.515 0 012.208-1.407 7.332 7.332 0 012.662-.487zm0 11.849c.644 0 1.2-.115 1.668-.345a3.077 3.077 0 001.156-.979c.303-.421.527-.933.672-1.534a8.597 8.597 0 00.218-2.014c0-1.586-.329-2.752-.985-3.5-.657-.748-1.56-1.122-2.71-1.122-1.162 0-2.075.371-2.738 1.113-.663.742-.995 1.911-.995 3.51 0 1.496.313 2.682.938 3.558.625.875 1.55 1.313 2.776 1.313zM115.652 47.218a.15.15 0 01-.123-.058.178.178 0 01-.048-.115v-13.15c0-.127.057-.191.171-.191h5.079c.859 0 1.576.093 2.151.278.575.185 1.033.43 1.374.737.341.306.581.651.72 1.034s.208.772.208 1.168c0 .409-.083.782-.246 1.12a3.126 3.126 0 01-.644.89 3.57 3.57 0 01-.929.641c-.354.172-.72.297-1.099.373a4.215 4.215 0 012.606 1.158c.334.325.597.702.786 1.129.189.428.284.897.284 1.407 0 1.123-.395 2-1.184 2.632-.789.632-1.898.947-3.326.947h-5.78zm4.188-7.943c.872 0 1.491-.153 1.857-.459.366-.306.549-.727.549-1.263 0-.599-.165-1.036-.493-1.311-.329-.274-.884-.412-1.668-.412-.253 0-.552-.003-.9-.009a10.756 10.756 0 01-.9-.048 21.343 21.343 0 01.057 2.699 14.39 14.39 0 01-.057.861 8.97 8.97 0 01.748-.048c.274-.007.542-.01.807-.01zm.986 5.819c.758 0 1.31-.153 1.658-.459.347-.306.521-.785.521-1.436 0-.638-.202-1.132-.606-1.483-.404-.351-1.087-.526-2.047-.526-.329 0-.682-.003-1.061-.009a13.845 13.845 0 01-1.004-.048c.025.306.044.629.057.967a29.991 29.991 0 010 2.067c-.013.326-.031.648-.057.967.366-.025.777-.038 1.232-.038.454-.002.89-.002 1.307-.002zM133.068 42.108h-.37c-.158 0-.307-.013-.445-.038.025.383.047.813.066 1.292.019.479.029.941.029 1.388v2.297c0 .038-.019.076-.057.115s-.076.058-.114.058h-2.54a.15.15 0 01-.123-.058.178.178 0 01-.048-.115V33.954a.28.28 0 01.057-.172c.038-.051.076-.076.114-.076h4.832c.846 0 1.566.105 2.16.316.594.211 1.077.497 1.45.861s.644.788.815 1.273.256.995.256 1.531a3.501 3.501 0 01-1.07 2.555c-.335.325-.723.59-1.165.794-.442.204-.91.338-1.402.402.48.14 1.001.466 1.563.976a22.94 22.94 0 011.829 1.895c.632.689 1.108 1.215 1.431 1.579.322.364.572.584.749.661.063.025.101.067.114.124a.89.89 0 01.019.182c0 .243-.095.364-.285.364h-2.747a.7.7 0 01-.228-.038.862.862 0 01-.265-.163 2.423 2.423 0 01-.341-.363 12.622 12.622 0 01-.455-.622c-.404-.523-.786-1.024-1.147-1.503-.36-.479-.701-.896-1.023-1.254a6.727 6.727 0 00-.9-.852c-.28-.211-.532-.316-.759-.316zm.909-6.259a18.92 18.92 0 01-1.706-.076 18.86 18.86 0 01.066 1.148c.006.217.01.431.01.641v.584c0 .332-.007.67-.019 1.014-.013.345-.031.677-.057.995.151-.012.338-.022.559-.029.221-.006.445-.009.673-.009.947 0 1.636-.201 2.065-.603.43-.402.644-.967.644-1.694 0-.613-.174-1.094-.521-1.445-.347-.351-.918-.526-1.714-.526zM149.952 33.264a7.24 7.24 0 012.653.488 6.624 6.624 0 012.198 1.397c.632.606 1.134 1.34 1.506 2.201s.559 1.834.559 2.919c0 1.072-.174 2.051-.521 2.938a6.713 6.713 0 01-1.449 2.278 6.449 6.449 0 01-2.189 1.464c-.84.345-1.76.517-2.757.517-.96 0-1.86-.172-2.7-.517a6.627 6.627 0 01-2.198-1.455 6.757 6.757 0 01-1.478-2.268c-.36-.887-.54-1.873-.54-2.957 0-1.072.183-2.038.549-2.9a6.68 6.68 0 011.497-2.211 6.515 6.515 0 012.208-1.407 7.324 7.324 0 012.662-.487zm0 11.849c.644 0 1.2-.115 1.668-.345a3.077 3.077 0 001.156-.979c.303-.421.527-.933.672-1.534a8.597 8.597 0 00.218-2.014c0-1.586-.329-2.752-.985-3.5-.657-.748-1.56-1.122-2.71-1.122-1.162 0-2.075.371-2.738 1.113-.663.742-.995 1.911-.995 3.51 0 1.496.313 2.682.938 3.558.625.875 1.55 1.313 2.776 1.313zM163.728 47.218c-.126 0-.202-.058-.228-.172l-4.643-13.035c-.076-.204-.019-.306.171-.306h2.672c.101 0 .177.064.228.191l2.331 7.235c.215.651.423 1.34.626 2.067.202.727.36 1.442.474 2.144.139-.728.303-1.445.493-2.154.19-.708.391-1.394.606-2.058l2.35-7.235a.239.239 0 01.095-.134c.05-.039.094-.058.132-.058h2.426c.19 0 .247.102.171.306l-4.604 13.035a.314.314 0 01-.076.115c-.038.038-.076.058-.114.058h-3.11zM177.796 45.266c.755 0 1.332-.146 1.729-.44.397-.293.595-.683.595-1.168 0-.281-.057-.523-.17-.727a1.618 1.618 0 00-.529-.546 5.269 5.269 0 00-.888-.46 31.764 31.764 0 00-1.266-.488 9.143 9.143 0 01-1.446-.622 4.719 4.719 0 01-1.124-.833 3.533 3.533 0 01-.737-1.091c-.176-.408-.264-.88-.264-1.416 0-.549.107-1.078.322-1.589a3.8 3.8 0 01.966-1.349c.43-.389.957-.699 1.583-.928.625-.23 1.348-.345 2.169-.345.708 0 1.336.07 1.886.211.549.14 1.077.357 1.582.651a.632.632 0 01.218.211c.044.076.066.198.066.364v2.01c0 .115-.028.201-.085.259a.273.273 0 01-.199.086.34.34 0 01-.246-.115 4.164 4.164 0 00-1.563-.995 5.447 5.447 0 00-1.867-.326c-.669 0-1.162.153-1.478.46a1.488 1.488 0 00-.474 1.11c0 .294.073.543.218.747.145.204.338.383.578.536.24.153.518.29.834.412.316.122.638.239.966.354.695.23 1.285.482 1.772.756.486.275.881.578 1.184.909.303.332.524.699.663 1.101s.208.845.208 1.33c0 .677-.132 1.273-.398 1.79a3.93 3.93 0 01-1.08 1.311 4.688 4.688 0 01-1.611.804 7.17 7.17 0 01-1.99.268c-.948 0-1.725-.092-2.331-.278a6.143 6.143 0 01-1.649-.775.654.654 0 01-.199-.22.766.766 0 01-.066-.354v-1.627c0-.23.082-.345.246-.345.088 0 .176.045.265.134a5.659 5.659 0 001.738.918 6.083 6.083 0 001.872.305zM189.329 47.046c0 .038-.019.076-.057.115-.038.038-.076.058-.114.058h-2.54a.15.15 0 01-.123-.058.178.178 0 01-.048-.115v-13.15c0-.127.057-.191.171-.191h2.54c.038 0 .076.019.114.058a.184.184 0 01.057.134v3.178c0 .409-.003.804-.01 1.187-.006.383-.022.715-.047.995h.398c.151 0 .433-.211.843-.632.41-.421.919-1.034 1.526-1.838.341-.446.723-.938 1.147-1.474.423-.536.831-1.021 1.222-1.455a.343.343 0 01.284-.153h2.899c.114 0 .171.07.171.211 0 .115-.032.192-.095.23-.215.128-.6.482-1.156 1.062a53.048 53.048 0 00-2.122 2.402 27.487 27.487 0 01-1.289 1.426c-.404.415-.708.686-.909.813.088.038.221.137.398.297.177.16.379.363.606.613.228.249.477.536.749.861.271.325.559.667.862 1.024.366.434.746.868 1.137 1.302.391.434.758.833 1.099 1.196.341.363.644.676.909.938.265.262.461.437.588.526.088.051.133.147.133.287 0 .217-.057.325-.171.325h-3.127a.45.45 0 01-.322-.153 28.287 28.287 0 01-1.459-1.684 69.747 69.747 0 01-1.402-1.8c-.619-.842-1.147-1.483-1.583-1.923-.436-.44-.742-.661-.919-.661h-.417c.025.306.041.683.047 1.129.006.447.01.894.01 1.34v3.58zM207.369 47.046c0 .038-.019.076-.057.115s-.076.058-.114.058h-2.539a.149.149 0 01-.123-.058.182.182 0 01-.047-.115V41.61l-5.495-7.58a.3.3 0 01-.057-.22c.013-.07.076-.105.19-.105h2.861a.3.3 0 01.208.067c.05.045.101.099.151.163l2.066 2.89c.328.46.622.919.881 1.378.259.46.484.932.673 1.416.228-.497.477-.976.749-1.435.272-.46.565-.906.881-1.34l2.104-2.89c.114-.166.252-.249.417-.249h2.634c.101 0 .164.032.19.096.025.064.006.14-.057.229l-5.515 7.58v5.436zm-1.497-14.394a.564.564 0 01-.151.105.365.365 0 01-.151.048h-1.118c-.063 0-.104-.019-.123-.058-.019-.038-.009-.083.028-.134l2.35-2.68a.936.936 0 01.142-.105.353.353 0 01.18-.067h1.838c.063 0 .098.029.104.086s-.009.105-.047.143l-3.052 2.662z"/>
  </g>
</svg>
