<svg width="71" height="22" viewBox="0 0 71 22" fill="none" xmlns="http://www.w3.org/2000/svg">
  <title>Košík.cz</title>
  <g>
    <path
      d="M33.6753 10.8288L35.8822 14.8611H33.7629L32.134 11.7092H31.3633V14.8611H29.4717V7.07837H31.3633V10.0717H32.134L33.7279 7.07837H35.7596L33.6753 10.7936V10.8288ZM39.3852 14.9843C37.6337 14.9843 36.2325 13.8222 36.2325 12.079C36.2325 10.3182 37.6337 9.13849 39.3852 9.13849C41.1542 9.13849 42.5554 10.3182 42.5554 12.079C42.5379 13.8222 41.1367 14.9843 39.3852 14.9843ZM39.3852 10.688C38.7021 10.688 38.1241 11.2162 38.1241 12.0614C38.1241 12.9066 38.7021 13.3996 39.3852 13.3996C40.0683 13.3996 40.6463 12.889 40.6463 12.0614C40.6463 11.2162 40.0683 10.688 39.3852 10.688ZM45.533 10.6528C45.2527 10.6528 44.99 10.7232 44.99 10.9169C44.99 11.3395 47.5997 11.4099 47.5997 13.2059C47.5997 14.1567 46.759 14.9843 45.3228 14.9843C43.9216 14.9843 43.0984 14.1567 43.0984 14.1567L43.9041 12.889C43.9041 12.889 44.5171 13.4524 45.3228 13.4524C45.603 13.4524 45.8657 13.382 45.8657 13.1883C45.8657 12.6953 43.256 12.6425 43.256 10.8112C43.256 9.75477 44.2544 9.10328 45.5505 9.10328C46.8466 9.10328 47.5122 9.73716 47.5122 9.73716L46.8816 11.0754C46.8466 11.1106 46.3036 10.6528 45.533 10.6528ZM44.447 8.7159L43.3786 7.07837H44.8324L45.3403 7.97637H45.3578L45.8657 7.07837H47.3195L46.2511 8.7159H44.447ZM50.1919 8.7159H48.7382L49.614 7.07837H51.453L50.1919 8.7159ZM50.4722 14.8434H48.5981V9.26175H50.4722V14.8434ZM55.7442 11.8149L57.6008 14.8434H55.464L54.308 12.6777H53.73V14.8434H51.8559V7.07837H53.73V11.093H54.2554L55.3589 9.24414H57.3906L55.7442 11.8149ZM58.5816 14.8434V14.1567H59.2472V14.8434H58.5816ZM63.5559 9.73716C62.2948 9.73716 61.2439 10.688 61.2439 12.1494C61.2439 13.5933 62.2948 14.5441 63.5559 14.5441C64.7469 14.5441 65.3599 13.7694 65.3599 13.7694L65.6051 14.1567C65.6051 14.1567 64.9045 15.0019 63.5559 15.0019C62.0321 15.0019 60.771 13.8926 60.771 12.167C60.771 10.4415 62.0496 9.31457 63.5559 9.31457C64.8345 9.31457 65.4825 10.0893 65.4825 10.0893L65.2023 10.4591C65.2023 10.4239 64.5893 9.73716 63.5559 9.73716ZM67.777 14.4209H71.0523V14.8434H66.621V14.4737L69.8963 10.3358C70.089 10.0893 70.3167 9.84281 70.3167 9.84281V9.8252C70.3167 9.8252 70.124 9.84281 69.7737 9.84281H66.7786V9.42022H70.9472V9.78998L67.6544 13.9278C67.4617 14.1743 67.2165 14.4209 67.2165 14.4209V14.4385C67.2165 14.4561 67.4267 14.4209 67.777 14.4209Z"
      fill="#414042"/>
    <path fill-rule="evenodd" clip-rule="evenodd"
          d="M11.6232 0C17.5958 0 22.43 4.85977 22.43 10.8641C22.43 16.8683 17.5958 21.7281 11.6232 21.7281C5.65062 21.7281 0.816483 16.8683 0.816483 10.8641C0.816483 4.85977 5.65062 0 11.6232 0Z"
          fill="#E4162F"/>
    <path fill-rule="evenodd" clip-rule="evenodd"
          d="M11.6241 19.9145C10.3785 19.9146 9.14648 19.6547 8.00597 19.1513C6.86546 18.6479 5.84132 17.9119 4.99838 16.99C4.15543 16.0681 3.51204 14.9804 3.10891 13.7955C2.70579 12.6107 2.55171 11.3547 2.65644 10.1069H4.46049C4.44297 10.3534 4.42546 10.6 4.42546 10.8641C4.42669 12.5608 5.02088 14.2031 6.10423 15.5041C7.18757 16.8051 8.69119 17.6821 10.3524 17.9818C12.0136 18.2816 13.7267 17.985 15.1925 17.1439C16.6583 16.3029 17.7835 14.9708 18.3716 13.3805C18.9597 11.7901 18.9733 10.0426 18.4099 8.44322C17.8466 6.84384 16.7421 5.49429 15.2896 4.63037C13.837 3.76644 12.1287 3.44305 10.463 3.71672C8.79739 3.99038 7.28035 4.84368 6.17695 6.12755H3.95255C4.75539 4.80696 5.88289 3.71639 7.2265 2.96084C8.57012 2.20529 10.0846 1.81021 11.6241 1.81362C16.5984 1.81362 20.6268 5.86343 20.6268 10.8641C20.6268 15.8647 16.5984 19.9145 11.6241 19.9145Z"
          fill="white"/>
    <path fill-rule="evenodd" clip-rule="evenodd"
          d="M8.92684 10.1421H14.3215C14.8119 10.1421 15.2147 10.5471 15.2147 11.0401C15.2147 11.5332 14.8119 11.9382 14.3215 11.9382H8.92684C8.43643 11.9382 8.03358 11.5332 8.03358 11.0401C8.0312 10.9216 8.05267 10.8037 8.09672 10.6937C8.14077 10.5836 8.20648 10.4837 8.2899 10.3998C8.37333 10.316 8.47275 10.2499 8.58221 10.2056C8.69166 10.1613 8.80889 10.1398 8.92684 10.1421Z"
          fill="white"/>
    <path
      d="M12.8852 15.583C12.1846 15.583 11.6242 15.0195 11.6242 14.3152C11.6242 13.6109 12.1846 13.0474 12.8852 13.0474C13.5858 13.0474 14.1463 13.6109 14.1463 14.3152C14.1463 15.0019 13.5858 15.583 12.8852 15.583ZM9.64498 15.583C8.94438 15.583 8.3839 15.0195 8.3839 14.3152C8.3839 13.6109 8.94438 13.0474 9.64498 13.0474C10.3456 13.0474 10.9061 13.6109 10.9061 14.3152C10.9061 15.0019 10.3456 15.583 9.64498 15.583Z"
      fill="white"/>
    <path fill-rule="evenodd" clip-rule="evenodd"
          d="M3.16409 7.25445H15.4071C15.8975 7.25445 16.3003 7.65943 16.3003 8.15245C16.3003 8.64547 15.8975 9.05046 15.4071 9.05046H3.16409C2.67367 9.05046 2.27082 8.64547 2.27082 8.15245C2.26844 8.03387 2.28992 7.91602 2.33396 7.80599C2.37801 7.69596 2.44372 7.596 2.52715 7.51213C2.61057 7.42826 2.71 7.36221 2.81945 7.31793C2.9289 7.27365 3.04613 7.25206 3.16409 7.25445Z"
          fill="white"/>
  </g>
</svg>
