<svg width="79" height="20" viewBox="0 0 79 20" fill="none" xmlns="http://www.w3.org/2000/svg">
  <title>Lékárna.cz</title>
  <g>
    <path
      d="M18.1216 3.04377H16.2182V12.1986H21.3718V10.6286H18.1219L18.1216 3.04377ZM28.0754 8.86335C28.0754 6.82124 26.8156 5.47369 24.9947 5.47369C23.0071 5.47369 21.8856 7.08499 21.8856 8.94759C21.8856 10.6687 22.8663 12.3362 25.2466 12.3362C26.0349 12.3362 26.9414 12.1417 27.7673 11.5897L27.3373 10.3947C26.6924 10.7288 26.2025 10.8521 25.5594 10.8521C24.6758 10.8521 23.8395 10.3261 23.7929 9.43599H28.0783V8.86726L28.0754 8.86335ZM23.7485 8.14177C23.7485 7.54388 24.1835 6.85003 24.9381 6.85003C25.7514 6.85003 26.1015 7.51545 26.1431 8.14177H23.7485ZM27.3187 2.77895H25.2319L24.071 4.82533H25.54L27.3187 2.77895ZM53.155 5.4744C52.2736 5.4744 51.5319 5.79325 50.8306 6.32217L50.6336 5.6276H49.024V12.199H50.9285V7.64199C51.4459 7.29364 51.9647 7.07148 52.4817 7.07148C53.27 7.07148 53.4062 7.7664 53.4062 8.3913V12.1993H55.2981V7.84673C55.2981 6.05344 54.1765 5.47085 53.1554 5.47085L53.155 5.4744ZM45.5545 6.3076L45.3582 5.6276H43.7486V12.199H45.6527V7.61355C46.1282 7.22433 46.4643 7.0992 46.8566 7.0992C47.153 7.1015 47.4433 7.18304 47.6969 7.33523L48.3827 5.77939C48.0889 5.57144 47.6969 5.47369 47.3615 5.47369C46.69 5.47405 46.1576 5.77938 45.5549 6.30724L45.5545 6.3076ZM35.4796 5.6276H33.3225L31.2931 7.83643H31.2787V2.36307H29.374V12.1986H31.2777V9.25258H31.292L33.4945 12.1986H35.6791L32.822 8.50256L35.4796 5.6276ZM41.5243 2.77895H39.4378L38.2626 4.82178H39.746L41.5243 2.77895ZM41.9879 10.7117V7.91889C41.9879 6.18283 41.0072 5.47405 39.2418 5.47405C38.3453 5.47405 37.4775 5.61623 36.5674 6.19634L37.1414 7.33558C37.6626 7.04341 38.2512 6.89032 38.8498 6.89126C39.4941 6.89126 40.0537 7.18345 40.0537 7.8773V7.98927L38.9347 8.0298C37.2507 8.08667 36.1199 8.81181 36.1199 10.1981C36.1199 11.5044 37.0715 12.3369 38.3324 12.3369C39.1866 12.3369 39.7743 12.0184 40.2229 11.6281L40.5024 12.1993H42.1126C42.0022 11.8641 41.9872 11.3462 41.9872 10.7121L41.9879 10.7117ZM40.0537 10.5696C39.8581 10.7089 39.5224 10.8752 39.0326 10.8752C38.3876 10.8752 38.0239 10.556 38.0239 10.0559C38.0239 9.55578 38.4027 9.2739 39.2149 9.24902L40.0541 9.22272V10.5735L40.0537 10.5696ZM62.3958 10.7117V7.91889C62.3958 6.18248 61.4141 5.47405 59.6476 5.47405C58.7518 5.47405 57.8847 5.61623 56.9746 6.19634L57.5479 7.33558C58.0649 7.04536 58.6486 6.89232 59.2427 6.89126C59.902 6.89126 60.461 7.18345 60.461 7.8773V7.98927L59.3394 8.0298C57.6626 8.08667 56.5267 8.81181 56.5267 10.1981C56.5267 11.5044 57.4798 12.3369 58.7375 12.3369C59.5974 12.3369 60.1815 12.0184 60.615 11.6281L60.9088 12.1993H62.5069C62.4066 11.8641 62.3994 11.3462 62.3994 10.7121L62.3958 10.7117ZM60.4466 10.5696C60.2675 10.7089 59.9307 10.8752 59.4254 10.8752C58.7805 10.8752 58.4222 10.556 58.4222 10.0559C58.4222 9.55578 58.8163 9.2739 59.6261 9.24902L60.4502 9.22272V10.5735L60.4466 10.5696Z"
      fill="#008B3D"/>
    <path
      d="M64.9626 12.3191C64.3761 12.3191 63.912 11.8617 63.912 11.2499C63.912 10.6527 64.3757 10.1942 64.9626 10.1942C65.5381 10.1942 66.0125 10.6563 66.0125 11.2499C66.0125 11.8613 65.5377 12.3191 64.9626 12.3191ZM70.2119 12.2644C68.0136 12.2644 66.8932 10.7217 66.8932 8.86087C66.8932 6.79032 68.4887 5.40118 70.3795 5.40118C71.3742 5.40118 71.9758 5.63721 72.3262 5.87394L72.2976 7.37398C71.821 6.99791 71.3169 6.8184 70.6601 6.8184C69.6092 6.8184 68.7826 7.62316 68.7826 8.77342C68.7826 9.78755 69.3286 10.764 70.6314 10.764C71.2334 10.764 71.6956 10.5863 72.1722 10.319L72.638 11.5275C72.0912 11.9164 71.1528 12.2644 70.2158 12.2644H70.2119ZM73.1109 12.1293L76.0799 6.96094L73.7416 7.00182L73.3474 5.55794H78.8378L75.9248 10.7121L78.8099 10.6712V12.1293H73.1109Z"
      fill="#F9B000"/>
    <path
      d="M6.10173 2.0538C5.47529 1.43231 4.62564 1.08313 3.73969 1.0831C2.85374 1.08307 2.00407 1.43218 1.37758 2.05363C0.751101 2.67508 0.399127 3.51797 0.399094 4.39687C0.39906 5.27576 0.750969 6.11868 1.37741 6.74018L2.26602 7.62172L6.9889 2.93428L6.10173 2.05416V2.0538Z"
      fill="#76B82A"/>
    <path
      d="M12.6014 6.74019C12.9116 6.43255 13.1576 6.06731 13.3255 5.66532C13.4933 5.26333 13.5798 4.83248 13.5798 4.39736C13.5798 3.96224 13.4933 3.53139 13.3255 3.1294C13.1576 2.72741 12.9116 2.36217 12.6014 2.05453C11.2971 0.758882 9.18309 0.758882 7.87526 2.05453L6.9888 2.93429L11.7185 7.62209L12.6053 6.74055L12.6014 6.74019Z"
      fill="#F9B000"/>
    <path
      d="M7.87544 13.1893C9.17969 14.4849 11.2937 14.4849 12.599 13.1893C12.9092 12.8816 13.1553 12.5164 13.3231 12.1144C13.491 11.7124 13.5774 11.2816 13.5774 10.8464C13.5774 10.4113 13.491 9.98047 13.3231 9.57848C13.1553 9.17649 12.9092 8.81125 12.599 8.50361L11.7115 7.62207L6.98181 12.3099L7.87544 13.1893Z"
      fill="#76B82A"/>
    <path
      d="M1.37814 8.50292C0.751702 9.12442 0.399792 9.96733 0.399826 10.8462C0.39986 11.7251 0.751834 12.568 1.37832 13.1895C2.0048 13.8109 2.85448 14.16 3.74043 14.16C4.62637 14.16 5.47602 13.8108 6.10246 13.1893L6.98892 12.3088L2.26639 7.62173L1.3785 8.50327L1.37814 8.50292Z"
      fill="#F9B000"/>
    <path
      d="M6.98903 2.9343L2.26543 7.62173L6.98903 12.3088L11.7187 7.62173L6.98903 2.9343ZM16.0342 18.7369L17.6244 15.9715L16.1829 15.9857L16.0582 15.6053H18.3002L16.7258 18.3665L18.3543 18.357V18.7373L16.0342 18.7369ZM19.876 18.7842C19.5313 18.7842 19.2533 18.6893 19.0376 18.4991C18.8029 18.2947 18.6879 18.0015 18.6879 17.6389C18.6879 17.292 18.8025 16.9991 19.0326 16.7741C19.2626 16.5491 19.5449 16.4321 19.8853 16.4321C20.0194 16.4321 20.1344 16.4417 20.2257 16.4652V15.3725H20.6557V18.6179C20.4497 18.727 20.191 18.7839 19.8796 18.7839L19.876 18.7842ZM20.2257 16.8363C20.1301 16.8029 20.0251 16.7887 19.905 16.7887C19.6793 16.7887 19.4977 16.8647 19.349 17.0119C19.196 17.1683 19.1143 17.3684 19.1143 17.6155C19.1143 17.8579 19.1813 18.0527 19.3203 18.1998C19.469 18.357 19.67 18.433 19.9337 18.433C20.0484 18.433 20.1444 18.4142 20.2257 18.3808V16.8399V16.8363ZM22.3763 16.8985C22.3093 16.8651 22.233 16.8463 22.1413 16.8463C21.9836 16.8463 21.8252 16.9269 21.6672 17.0933V18.7373H21.2372V16.4897H21.5956L21.6482 16.7385C21.874 16.5342 22.0889 16.4293 22.2853 16.4293C22.3856 16.4293 22.4716 16.4531 22.5433 16.505L22.376 16.8949L22.3763 16.8985ZM24.1919 18.7369L24.1012 18.523C23.9142 18.6985 23.6892 18.7842 23.4161 18.7842C23.2298 18.7889 23.0491 18.7205 22.9131 18.594C22.7744 18.4661 22.7074 18.2947 22.7074 18.0857C22.7074 17.8625 22.7887 17.6866 22.9464 17.5586C23.104 17.4306 23.3348 17.3595 23.6315 17.3496L24.0722 17.3354V17.2501C24.0722 16.9362 23.9138 16.7794 23.6064 16.7794C23.4004 16.7794 23.199 16.8463 23.0123 16.9742L22.8539 16.6898C23.0959 16.5196 23.3861 16.4298 23.6827 16.4332C24.2288 16.4332 24.5015 16.6945 24.5015 17.2124V17.9677C24.5015 18.4 24.5158 18.6566 24.5498 18.7376H24.1915L24.1919 18.7369ZM24.0726 17.6727L23.6605 17.6869C23.3108 17.7011 23.1338 17.8199 23.1338 18.053C23.1338 18.1668 23.1675 18.2574 23.2391 18.3285C23.3108 18.3996 23.4165 18.433 23.5509 18.433C23.7472 18.433 23.9246 18.3619 24.0733 18.2144V17.6727H24.0726ZM26.0167 18.7515H25.6957L24.8096 16.4897H25.2453L25.863 18.2002H25.8727L26.5478 16.4897H26.9598L26.0167 18.7515ZM27.6936 16.2142H27.3532L27.7606 15.5538H28.2684L27.6901 16.2142H27.6936ZM27.397 18.7373V16.4897H27.8183V18.7373H27.3962H27.397ZM31.1571 18.7369V17.373C31.1571 17.0027 31.0324 16.8171 30.7833 16.8171C30.5917 16.8171 30.3713 16.9216 30.1223 17.1306V18.7373H29.7009V16.4897H30.0592L30.1119 16.7464C30.3985 16.5374 30.663 16.4329 30.9166 16.4329C31.103 16.4329 31.257 16.4947 31.3764 16.6177C31.5154 16.7599 31.5913 16.9646 31.5913 17.2305V18.7369H31.1614H31.1571ZM33.5423 18.7369L33.4513 18.523C33.2643 18.6985 33.0393 18.7842 32.7662 18.7842C32.58 18.7888 32.3994 18.7205 32.2635 18.594C32.1202 18.4661 32.0575 18.2947 32.0575 18.0857C32.0575 17.8625 32.1388 17.6866 32.2969 17.5586C32.4549 17.4306 32.6845 17.3595 32.9776 17.3496L33.4184 17.3354V17.2501C33.4184 16.9362 33.26 16.7794 32.9526 16.7794C32.7465 16.7794 32.5452 16.8463 32.3585 16.9742L32.2008 16.6898C32.4427 16.5197 32.7327 16.4299 33.0292 16.4332C33.5757 16.4332 33.8483 16.6945 33.8483 17.2124V17.9677C33.8483 18.4 33.8627 18.6566 33.8964 18.7376H33.5423V18.7369ZM33.4227 17.6727L33.0106 17.6869C32.6609 17.7011 32.4839 17.8199 32.4839 18.053C32.4839 18.1668 32.5176 18.2574 32.5892 18.3285C32.6609 18.3996 32.7666 18.433 32.901 18.433C33.097 18.433 33.2743 18.3619 33.423 18.2144V17.6727H33.4227ZM33.0586 16.2139H32.7182L33.1253 15.5534H33.633L33.0583 16.2139H33.0586ZM35.5632 18.6275C35.4099 18.732 35.2042 18.7839 34.9541 18.7839C34.6764 18.7839 34.4317 18.722 34.226 18.5983L34.379 18.2798C34.5462 18.3953 34.7453 18.4568 34.9491 18.4558C35.0831 18.4558 35.1884 18.4273 35.2701 18.3751C35.3518 18.3228 35.3944 18.2471 35.3944 18.1511C35.3944 18.0182 35.3034 17.9094 35.1264 17.8188L34.6248 17.5717C34.5395 17.5139 34.4703 17.4356 34.4235 17.3443C34.3766 17.2529 34.3537 17.1513 34.3568 17.0489C34.3543 16.9649 34.3711 16.8814 34.406 16.8048C34.4408 16.7282 34.4927 16.6604 34.5578 16.6067C34.6968 16.4879 34.8928 16.4311 35.1469 16.4311C35.3626 16.4311 35.5639 16.4688 35.7452 16.5498V16.9109C35.5252 16.8207 35.3285 16.773 35.1612 16.773C34.9025 16.773 34.7731 16.8583 34.7731 17.0297C34.7731 17.1487 34.8645 17.2536 35.0465 17.3435L35.5543 17.5952C35.7363 17.7232 35.8273 17.8945 35.8273 18.1088C35.8276 18.3321 35.7413 18.508 35.5639 18.6271L35.5632 18.6275ZM39.0266 18.4561C38.7876 18.6747 38.4902 18.7842 38.1359 18.7842C37.8492 18.7842 37.6278 18.7366 37.4658 18.6367V15.3722H37.8872V16.5267C38.0545 16.4648 38.2176 16.4318 38.3759 16.4318C38.6633 16.4318 38.9027 16.5221 39.0926 16.7026C39.3033 16.9017 39.4043 17.1825 39.4043 17.5344C39.4043 17.9148 39.28 18.224 39.0306 18.4561H39.0266ZM38.8016 17.0165C38.6819 16.8786 38.515 16.8075 38.3 16.8075C38.171 16.8075 38.0313 16.8409 37.8833 16.907V18.3751C37.991 18.4117 38.1044 18.4294 38.2183 18.4273C38.3211 18.4285 38.4229 18.4064 38.5158 18.3627C38.6087 18.3191 38.6904 18.255 38.7547 18.1753C38.9034 18.009 38.9754 17.7999 38.9754 17.5575C38.9754 17.3336 38.9131 17.1537 38.798 17.0158L38.8016 17.0165ZM41.2535 18.7369L41.1629 18.523C40.9758 18.6985 40.7508 18.7842 40.4778 18.7842C40.2914 18.7889 40.1107 18.7205 39.9747 18.594C39.8361 18.4661 39.7691 18.2947 39.7691 18.0857C39.7691 17.8625 39.8504 17.6866 40.0081 17.5586C40.1657 17.4306 40.3965 17.3595 40.6931 17.3496L41.1339 17.3354V17.2501C41.1339 16.9362 40.9762 16.7794 40.6681 16.7794C40.4624 16.7794 40.261 16.8463 40.074 16.9742L39.9163 16.6898C40.1583 16.5196 40.4485 16.4298 40.7451 16.4332C41.2908 16.4332 41.5638 16.6945 41.5638 17.2124V17.9677C41.5638 18.4 41.5782 18.6566 41.6119 18.7376H41.2578L41.2535 18.7369ZM41.1342 17.6727L40.7222 17.6869C40.3725 17.7011 40.1954 17.8199 40.1954 18.053C40.1954 18.1668 40.2288 18.2574 40.3008 18.3285C40.3728 18.3996 40.4778 18.433 40.6118 18.433C40.7093 18.4338 40.8059 18.4147 40.8957 18.3772C40.9856 18.3396 41.0667 18.2842 41.1342 18.2144V17.6727ZM43.0791 18.7515H42.7581L41.872 16.4897H42.3077L42.9254 18.2002H42.9351L43.6101 16.4897H44.0222L43.0791 18.7515ZM44.7549 16.2142H44.4146L44.822 15.5538H45.3297L44.7546 16.2142H44.7549ZM44.4583 18.7373V16.4897H44.88V18.7373H44.459H44.4583Z"
      fill="#008B3D"/>
  </g>
</svg>
