<svg xmlns="http://www.w3.org/2000/svg" width="400" height="400">
  <g fill-rule="evenodd">
    <path
      d="M187.4 80.009c-6.08.379-13.932 1.606-19.2 3.002-1.32.349-2.85.728-3.4.842-.55.114-1.36.346-1.8.515-.44.17-2.6.899-4.8 1.619-2.2.721-4.171 1.469-4.38 1.662a1.52 1.52 0 01-.889.351c-.701 0-11.53 4.999-12.131 5.6-.11.11-.83.517-1.6.904-2.41 1.212-4.994 2.801-5.133 3.156-.074.187-.307.34-.52.34-.329 0-4.957 3.006-5.547 3.602-.11.112-1.276 1.003-2.59 1.981-6.275 4.67-14.621 12.673-19.23 18.439a681.982 681.982 0 01-2.78 3.464c-3.701 4.499-8.71 12.684-12.442 20.335-1.627 3.335-2.958 6.324-2.958 6.642 0 .317-.159.748-.354.957-.195.209-1.099 2.63-2.009 5.38-2.389 7.226-2.236 6.672-4.035 14.6-2.966 13.075-2.948 32.937.044 46.8 1.539 7.134 4.05 15.657 5.833 19.8.331.77.746 1.76.922 2.2 1.419 3.547 4.486 9.535 8.021 15.657 1.217 2.108 7.518 11.037 8.991 12.743 9.444 10.931 15.117 16.063 26.305 23.798 1.275.881 2.417 1.602 2.538 1.602s.788.405 1.481.9c2.049 1.463 10.392 5.77 14.863 7.673l2.4 1.022c.775.33 5.768 2.127 7.8 2.806 19.248 6.439 43.323 7.194 64 2.006 4.55-1.142 6.561-1.754 11.2-3.412 3.312-1.184 4.561-1.691 9.8-3.978 2.847-1.243 2.071-.837 10.2-5.347 10.014-5.557 23.079-16.817 31.419-27.078 8.571-10.544 17.582-27.17 20.592-37.992.183-.66.63-2.19.993-3.4.712-2.375.966-3.394 1.995-8 2.99-13.385 3.207-36.683.439-47a148 148 0 01-.841-3.6c-3.026-13.527-7.623-24.354-16.303-38.4-6.002-9.713-23.33-27.459-30.623-31.362-.445-.238-1.057-.681-1.361-.985-.929-.929-10.292-6.372-14.11-8.202a281.65 281.65 0 01-4.303-2.093c-2.176-1.14-11.115-4.369-14.897-5.382-7.051-1.889-9.337-2.366-17-3.552-4.691-.725-17.629-1.049-24.6-.615m-15 77.283c13.083 6.348 8.73 24.986-5.809 24.878-14.8-.109-17.823-20.448-3.791-25.499 2.718-.979 6.855-.711 9.6.621m-43.3 19.36c.866.232.9.413.9 4.748 0 5.145.126 4.984-3.906 4.995l-2.105.005.105 12.7.106 12.7 1.769.126 1.769.127 6.058-6.049 6.058-6.048 2.373.122 2.373.122.105 2c.238 4.563-.569 5.058 11.623-7.128 6.093-6.09 11.291-11.072 11.552-11.072.261 0 4.979 4.498 10.483 9.995l10.009 9.995 4.214-4.204 4.214-4.204V186.4l-1.9-.005c-3.784-.011-3.7.098-3.7-4.828 0-5.77-2.381-5.241 22.921-5.092l21.279.125 2.651 1.285c7.581 3.674 11.128 10.505 11.142 21.457.011 8.01-1.525 12.892-5.235 16.642-1.013 1.024-2.889 2.392-4.168 3.039l-2.326 1.177H192.2l-.117-3.1c-.064-1.705-.245-3.1-.403-3.1-.157 0-5.324 5.051-11.483 11.225-13.757 13.791-11.86 12.769-16.006 8.623-3.987-3.987-3.952-3.83-1.391-6.285 1.1-1.055 2-2.191 2-2.526 0-1.274-13.202-13.931-13.933-13.357-2.691 2.11-5.703 5.634-5.989 7.008l-.314 1.512-26.296.103-26.296.103.114-4.103.114-4.103 3.1-.117 3.1-.117V186.4l-2.7-.005c-4.69-.01-4.5.194-4.5-4.822 0-3.705.101-4.392.7-4.741.757-.441 35.598-.609 37.2-.18m157.709.548c.208.33.382 2.359.385 4.51.007 4.489-.165 4.69-4.02 4.69H281.2V212l1.7-.011c1.654-.011 1.861-.173 7.667-6l5.966-5.989h2.326c2.939 0 2.796-.594 2.654 11l-.113 9.2-26.175.103c-20.674.081-26.241-.003-26.493-.4-.466-.734-.403-6.223.082-7.129.349-.652.855-.774 3.2-.774h2.786v-25.6l-2.5-.005c-4.481-.01-4.3.2-4.3-5.012 0-3.97.086-4.547.7-4.713 2.048-.552 37.739-.056 38.109.53M220 200c0 12.123-.142 11.649 2.908 9.742 6.612-4.133 8.2-12.21 3.354-17.052-1.199-1.198-5.073-3.49-5.899-3.49-.208 0-.363 4.599-.363 10.8m-24.722 10.119c-1.615 1.667-1.601 1.881.122 1.881 1.367 0 1.4-.038 1.4-1.6 0-1.927.062-1.915-1.522-.281"
      fill="#fbfb04"/>
    <path
      d="M186 74.631c-6.287.546-6.93.642-14.4 2.157-7.096 1.439-9.661 2.135-15.8 4.285-12.174 4.264-25.147 11.343-34.6 18.882-9.614 7.666-17.83 16.222-24.606 25.623-1.426 1.98-2.594 3.769-2.594 3.977 0 .208-.135.438-.3.512-.73.324-3.935 5.878-7.118 12.333-2.475 5.018-3.093 6.432-4.982 11.4l-.914 2.4c-.766 2.01-2.32 7.15-2.722 9-.167.77-.602 2.57-.967 4-3.334 13.056-3.967 34.602-1.416 48.2.649 3.456 1.688 8.351 2.038 9.6.186.66.635 2.28.999 3.6.889 3.229 2.546 8.238 3.008 9.095.206.382.374.872.374 1.089 0 .217.429 1.344.954 2.505a856.734 856.734 0 011.843 4.111c1.072 2.411 3.476 7.295 4.131 8.39a390.62 390.62 0 001.772 2.908c.715 1.165 1.3 2.181 1.3 2.258 0 .429 6.755 10.16 7.881 11.354.265.28 1.165 1.36 2 2.4 8.937 11.122 25.029 24.411 36.119 29.828.77.376 1.67.856 2 1.067.954.609 8.22 3.938 10.512 4.817 1.149.44 2.448.95 2.888 1.134 1.196.499 5.83 2.083 7.2 2.461 10.813 2.982 15.831 3.911 26 4.808 5.852.517 20.286.271 25-.425 8.334-1.232 10.869-1.764 19.4-4.071 2.391-.647 5.111-1.553 5.895-1.964.382-.201.927-.365 1.212-.365.748 0 8.043-3.088 12.693-5.372 14.04-6.898 30.583-19.8 39.014-30.427.872-1.1 1.844-2.27 2.16-2.6.316-.331 1.622-2.041 2.903-3.801 1.281-1.76 2.508-3.417 2.726-3.683.218-.266.397-.656.397-.867 0-.211.146-.443.324-.517.4-.164 4.376-6.606 5.76-9.333.559-1.1 1.395-2.72 1.858-3.6 1.309-2.487 4.058-8.604 4.058-9.029 0-.21.171-.694.381-1.076.678-1.238 1.511-3.441 2.228-5.895.385-1.32.834-2.58.996-2.8.162-.22.387-.94.5-1.6.113-.66.518-2.28.9-3.6.383-1.32.833-3.12 1.002-4l.96-5c2.303-11.964 2.307-32.208.01-44.2-1.032-5.389-1.234-6.335-1.746-8.2-.272-.99-.687-2.52-.923-3.4-.584-2.181-2.277-7.419-2.714-8.4-.197-.44-1.161-2.78-2.144-5.2-2.018-4.968-5.789-12.47-7.983-15.881-.807-1.254-1.467-2.384-1.467-2.511 0-.325-5.824-8.408-7.776-10.792-3.268-3.992-4.108-4.909-9.02-9.844-4.561-4.583-8.044-7.719-12.188-10.972-1.806-1.417-10.55-7.4-10.817-7.4-.101 0-1.132-.602-2.291-1.338-2.987-1.895-11.922-6.2-16.708-8.049-.99-.382-2.07-.82-2.4-.973-.33-.153-1.68-.609-3-1.015-1.32-.405-2.76-.886-3.2-1.067-1.96-.809-8.94-2.421-17.2-3.972-7.21-1.354-20.004-1.77-29.4-.955m26 5.993c7.663 1.186 9.949 1.663 17 3.552 3.782 1.013 12.721 4.242 14.897 5.382a281.65 281.65 0 004.303 2.093c3.818 1.83 13.181 7.273 14.11 8.202.304.304.916.747 1.361.985 7.293 3.903 24.621 21.649 30.623 31.362 8.68 14.046 13.277 24.873 16.303 38.4a148 148 0 00.841 3.6c2.768 10.317 2.551 33.615-.439 47-1.029 4.606-1.283 5.625-1.995 8-.363 1.21-.81 2.74-.993 3.4-3.01 10.822-12.021 27.448-20.592 37.992-8.34 10.261-21.405 21.521-31.419 27.078-8.129 4.51-7.353 4.104-10.2 5.347-5.239 2.287-6.488 2.794-9.8 3.978-4.639 1.658-6.65 2.27-11.2 3.412-20.677 5.188-44.752 4.433-64-2.006-2.032-.679-7.025-2.476-7.8-2.806l-2.4-1.022c-4.471-1.903-12.814-6.21-14.863-7.673-.693-.495-1.36-.9-1.481-.9s-1.263-.721-2.538-1.602c-11.188-7.735-16.861-12.867-26.305-23.798-1.473-1.706-7.774-10.635-8.991-12.743-3.535-6.122-6.602-12.11-8.021-15.657-.176-.44-.591-1.43-.922-2.2-3.363-7.814-6.721-21.777-7.504-31.2-1.136-13.663-.584-25.653 1.627-35.4 1.799-7.928 1.646-7.374 4.035-14.6.91-2.75 1.814-5.171 2.009-5.38.195-.209.354-.64.354-.957 0-.318 1.331-3.307 2.958-6.642 3.732-7.651 8.741-15.836 12.442-20.335.22-.267 1.471-1.826 2.78-3.464 4.609-5.766 12.955-13.769 19.23-18.439 1.314-.978 2.48-1.869 2.59-1.981.59-.596 5.218-3.602 5.547-3.602.213 0 .446-.153.52-.34.139-.355 2.723-1.944 5.133-3.156.77-.387 1.49-.794 1.6-.904.601-.601 11.43-5.6 12.131-5.6.28 0 .68-.158.889-.351.209-.193 2.18-.941 4.38-1.662 2.2-.72 4.36-1.449 4.8-1.619.44-.169 1.25-.401 1.8-.515.55-.114 2.08-.493 3.4-.842 5.268-1.396 13.12-2.623 19.2-3.002 6.971-.434 19.909-.11 24.6.615m-49.2 76.047c-14.032 5.051-11.009 25.39 3.791 25.499 14.539.108 18.892-18.53 5.809-24.878-2.745-1.332-6.882-1.6-9.6-.621m-6.703 38.632L144.8 206.605v5.098c0 5.922-.001 5.921 3.11 2.796 1.259-1.265 2.589-2.534 2.955-2.82.733-.572 13.935 12.083 13.935 13.358 0 .335-.9 1.471-2 2.526-1.1 1.054-2 2.137-2 2.406 0 .991 6.746 7.301 7.41 6.93.925-.519 23.72-23.34 23.975-24.004.12-.314.533-.664.917-.778.384-.113 1.463-1.093 2.398-2.177l1.7-1.97v-5.761c0-7.181.072-7.148-4.813-2.235l-4.004 4.027L178.369 194c-5.508-5.5-10.23-10-10.494-10-.264 0-5.564 5.086-11.778 11.303"
      fill="#f90b05"/>
    <path
      d="M31.6 200v151.6h336.8V48.4H31.6V200M366.4 49.2c0 .266-55.733.4-166.4.4s-166.4-.134-166.4-.4 55.733-.4 166.4-.4 166.4.134 166.4.4M207.979 74.42c8.505 1.043 15.591 2.25 18.711 3.187.721.216 1.895.548 2.61.738 1.936.514 5.987 1.725 6.9 2.063 2.487.921 4.483 1.717 5.095 2.033.382.197.872.359 1.089.359.527 0 4.057 1.621 9.416 4.324 2.42 1.22 4.804 2.412 5.297 2.647.493.236.898.564.9.729.002.165.212.3.467.3.256 0 1.791.9 3.412 2s3.035 2 3.142 2c.203 0 5.834 4.004 6.182 4.395.11.124 1.01.848 2 1.609 3.963 3.046 14.282 13.101 17.2 16.76.77.966 1.867 2.314 2.438 2.996 1.839 2.196 6.362 8.621 6.362 9.037 0 .222.151.403.336.403.184 0 .54.405.791.9.25.495.896 1.62 1.435 2.5 1.69 2.758 5.614 10.309 6.86 13.2.285.66.981 2.24 1.548 3.511.566 1.271 1.03 2.565 1.03 2.876 0 .311.18.677.4.813.22.136.4.651.4 1.144 0 .493.154 1.067.342 1.276.615.683 3.042 9.217 4.204 14.78 4.479 21.448 3.501 41.832-3.003 62.6-1.49 4.756-2.791 8.402-3.925 11-1.852 4.242-6.219 12.728-8.091 15.721-1.28 2.046-2.327 3.876-2.327 4.067 0 .19-.135.405-.3.479-.165.073-.93 1.078-1.7 2.232-.77 1.155-1.535 2.1-1.7 2.1-.165.001-.3.228-.3.505s-.405.953-.9 1.502-1.98 2.338-3.3 3.975c-3.192 3.961-12.058 12.84-15.8 15.824-1.65 1.316-3.09 2.495-3.2 2.62-.388.44-8.781 6.375-9.016 6.375-.13 0-.827.45-1.548 1-.722.55-1.404 1-1.516 1-.113 0-1.74.883-3.615 1.962-4.711 2.711-14.286 7.238-15.309 7.238-.302 0-.647.159-.767.354-.121.195-.716.445-1.324.557-.608.112-2.185.588-3.505 1.057-23.693 8.432-54.841 8.342-78.608-.228-1.435-.517-2.884-.94-3.22-.94-.337 0-.783-.151-.992-.336-.209-.185-1.01-.573-1.78-.863-4.018-1.513-10.061-4.406-14.357-6.873-1.847-1.06-3.426-1.928-3.509-1.928-.363 0-11.516-7.704-12.134-8.381-.11-.12-1.19-1.024-2.4-2.008-4.628-3.763-11.211-10.143-14.487-14.042C94.56 266.44 89 257.631 83.609 245.4c-.484-1.1-1.023-2.36-1.197-2.8l-.945-2.4c-.346-.88-1.115-3.13-1.708-5-.594-1.87-1.208-3.76-1.366-4.2-.576-1.611-1.79-6.761-2.356-10-.192-1.1-.537-2.99-.766-4.2-1.198-6.319-1.429-9.583-1.428-20.2 0-6.59.187-12.27.455-13.8.251-1.43.669-3.95.93-5.6.886-5.621 1.656-9.49 2.344-11.779.202-.672.85-2.841 1.441-4.821.59-1.98 1.212-3.96 1.382-4.4 2.147-5.558 2.343-6.053 2.996-7.6.671-1.589 5.716-11.782 6.329-12.788 4.927-8.086 7.931-12.465 11.258-16.41 1.112-1.319 2.202-2.643 2.422-2.944 2.02-2.756 13.779-13.9 17.563-16.645.901-.653 1.727-1.301 1.837-1.439.407-.513 6.015-4.374 6.352-4.374.193 0 .56-.253.817-.563.257-.31 1.045-.858 1.749-1.219.705-.36 2.182-1.196 3.282-1.857s2.72-1.558 3.6-1.994c.88-.435 1.87-.962 2.2-1.17 1.277-.806 9.227-4.397 9.733-4.397.293 0 .657-.123.808-.274.31-.31 2.309-1.065 5.259-1.984 1.1-.343 2.63-.856 3.4-1.14 1.364-.503 2.009-.682 7-1.946 4.948-1.254 10.437-2.219 17-2.988 4.336-.509 19.971-.54 23.979-.048M92.4 181.6v4h7.2v28h-7.2v6h51.2v-1.176c0-.647.18-1.288.4-1.424.231-.142.4-2.271.4-5.024 0-2.917-.156-4.776-.4-4.776-.229 0-.4-1.2-.4-2.8v-2.8h-2c-1.1 0-2 .18-2 .4 0 .22-.27.4-.6.4-.33 0-.6.193-.6.429 0 .553-1.018 1.571-1.571 1.571a.43.43 0 00-.429.429c0 .553-1.018 1.571-1.571 1.571a.43.43 0 00-.429.429c0 .553-1.018 1.571-1.571 1.571a.43.43 0 00-.429.429c0 .553-1.018 1.571-1.571 1.571a.43.43 0 00-.429.429c0 .235-.257.685-.571 1-.315.314-.765.571-1 .571-.236 0-.429.27-.429.6 0 .476-.577.6-2.792.6-3.522 0-3.258 1.252-3.12-14.8l.112-13 2.9-.118 2.9-.117V177.6h-36v4m100 0v4h6v4.829c0 3.758-.133 4.961-.6 5.428-.897.897-.879 11.547.021 12.051.482.27.594.921.5 2.92l-.121 2.572-2.3.12-2.3.12v5.96h20.957c18.26 0 20.987-.077 21.188-.6.133-.347.731-.6 1.419-.6.654 0 1.3-.18 1.436-.4.136-.22.507-.4.824-.4.317 0 .899-.315 1.293-.7.395-.385 1.205-1.058 1.8-1.495.596-.437 1.083-.957 1.083-1.154 0-.198.45-.776 1-1.286s1-1.195 1-1.522c0-.328.18-.707.4-.843.22-.136.4-.782.4-1.436 0-.688.253-1.286.6-1.419.458-.176.6-.928.6-3.188 0-1.705.169-2.957.4-2.957.22 0 .4-.889.4-1.976s-.18-2.088-.4-2.224c-.22-.136-.406-1.452-.413-2.924-.008-1.716-.223-2.954-.6-3.452-.323-.428-.587-1.193-.587-1.7 0-.508-.18-.924-.4-.924-.22 0-.4-.45-.4-1s-.168-1-.373-1-.491-.373-.636-.829c-.399-1.257-5.293-5.971-6.198-5.971-.438 0-.793-.269-.793-.6 0-.433-.444-.6-1.6-.6-.88 0-1.6-.18-1.6-.4 0-.262-7.267-.4-21-.4h-21v4m57.2 0v4h6.8v28h-6.8v6h50.8v-18h-1.829c-1.762 0-2.971.64-2.971 1.571a.43.43 0 01-.429.429c-.553 0-1.571 1.018-1.571 1.571a.43.43 0 01-.429.429c-.553 0-1.571 1.018-1.571 1.571a.43.43 0 01-.429.429c-.553 0-1.571 1.018-1.571 1.571a.43.43 0 01-.429.429c-.235 0-.685.257-1 .571-.314.315-.571.765-.571 1a.43.43 0 01-.429.429c-.235 0-.685.257-1 .571-.314.315-.571.765-.571 1 0 .267-1.133.429-3 .429h-3v-28h6v-8h-36v4m-29.2 6.4c0 .22.636.4 1.413.4.886 0 1.498.223 1.642.6.127.33.584.6 1.016.6.85 0 1.929.879 1.929 1.571a.43.43 0 00.429.429c.533 0 1.571 1.01 1.571 1.529 0 .212.27.489.6.616.351.134.6.734.6 1.442 0 .667.18 1.213.4 1.213.235 0 .4 1.392.4 3.376 0 1.857-.18 3.488-.4 3.624-.22.136-.4.687-.4 1.224 0 .601-.231.976-.6.976-.34 0-.6.359-.6.829 0 .885-.866 1.971-1.571 1.971a.43.43 0 00-.429.429c0 .705-1.086 1.571-1.971 1.571-.47 0-.829.26-.829.6 0 .373-.378.6-1 .6-.55 0-1 .18-1 .4 0 .22-.72.4-1.6.4h-1.6v-12.133c0-6.674.12-12.254.267-12.4.415-.415 1.733-.314 1.733.133m62.9 163.1c-45.815.056-120.785.056-166.6 0s-8.33-.102 83.3-.102 129.115.046 83.3.102"
      fill="#1c2b93"/>
    <path
      d="M185.4 74.407c-.88.162.2.202 2.4.089 2.2-.114 4.075-.271 4.167-.351.289-.252-4.896-.045-6.567.262m15.033-.262c.092.08 1.967.242 4.167.361 2.663.145 3.465.104 2.4-.121-1.566-.332-6.896-.526-6.567-.24m-20.533.937a5.661 5.661 0 001.8 0c.495-.095.09-.173-.9-.173s-1.395.078-.9.173m31.605.001c.497.096 1.217.092 1.6-.008.382-.1-.025-.179-.905-.174-.88.004-1.193.086-.695.182M176.2 75.6c-1.089.277-1.107.307-.2.325.55.01 1.36-.136 1.8-.325.986-.424.066-.424-1.6 0m39 0c1.368.438 2.419.438 1.4 0-.44-.189-1.16-.338-1.6-.332-.643.009-.604.075.2.332m-43.8.8c-1.019.438.032.438 1.4 0 .804-.257.843-.323.2-.332-.44-.006-1.16.143-1.6.332m48.6 0c1.368.438 2.419.438 1.4 0-.44-.189-1.16-.338-1.6-.332-.643.009-.604.075.2.332m-60 3c-1.278.73-1.004.734 1 .012.88-.317 1.24-.578.8-.58-.44-.002-1.25.254-1.8.568m-6 2c-1.306.747-.849.755.854.016.74-.322 1.076-.585.746-.586-.33-.001-1.05.256-1.6.57m-5.2 2c-.55.314-.82.572-.6.572.22 0 .85-.258 1.4-.572.55-.314.82-.572.6-.572-.22 0-.85.258-1.4.572m98.946 2.002c1.459.761 1.829.766.83.011-.427-.323-1.046-.592-1.376-.598-.33-.005-.084.259.546.587m-106.015 1.219c-.699.306-1.374.725-1.502.932-.128.207.488.028 1.369-.398.881-.425 1.602-.859 1.602-.964 0-.228.101-.258-1.469.43M137.4 88.99c-.88.542-1.475.991-1.323.998.347.015 3.123-1.609 3.123-1.828 0-.26-.124-.203-1.8.83m-6.8 4.045l-1.2 1.031 1.4-.903c1.796-1.159 1.801-1.163 1.367-1.161-.202.001-.907.466-1.567 1.033m-6 4l-1.2 1.031 1.3-.86c.715-.473 1.3-.938 1.3-1.033 0-.3-.169-.195-1.4.862m142.2-.889c0 .11.54.584 1.2 1.054.66.47 1.2.764 1.2.654 0-.11-.54-.584-1.2-1.054-.66-.47-1.2-.764-1.2-.654M119.533 100.9c-1.462 1.155-2.601 2.16-2.53 2.232.108.112 3.968-2.855 5.177-3.979 1.119-1.04-.323-.089-2.647 1.747m154.437.832c1.019 1.122 1.238 1.261 1.217.768-.006-.165-.501-.646-1.1-1.068l-1.087-.768.97 1.068m7.43 6.881c3.3 3.293 6.08 5.937 6.178 5.875.255-.159-5.206-5.637-8.978-9.005-1.76-1.572-.5-.163 2.8 3.13m-166.346-3.98c-.631.554-1.08 1.074-1 1.154.081.081.734-.378 1.453-1.02.718-.642 1.168-1.161.999-1.154-.168.007-.822.466-1.452 1.02m-5.462 5.267l-3.792 3.9 3.9-3.792c3.622-3.522 4.082-4.008 3.792-4.008-.059 0-1.814 1.755-3.9 3.9m-5.092 5.188c-.495.571-.9 1.22-.9 1.442 0 .222.045.327.1.235.055-.093.629-.753 1.275-1.467.646-.714 1.006-1.287.8-1.273-.206.013-.78.492-1.275 1.063m184.529 1.35c.644.791 1.252 1.37 1.35 1.287.099-.083-.428-.73-1.17-1.438L287.858 115l1.171 1.438M100.742 119.7c-2.332 2.791-2.873 3.5-2.671 3.5.093 0 1.206-1.26 2.473-2.8 1.267-1.54 2.225-2.8 2.128-2.8-.096 0-.965.945-1.93 2.1m194.058 3.9c.47.66.944 1.2 1.054 1.2.11 0-.184-.54-.654-1.2-.47-.66-.944-1.2-1.054-1.2-.11 0 .184.54.654 1.2m-200 4c-.47.66-.764 1.2-.654 1.2.11 0 .584-.54 1.054-1.2.47-.66.764-1.2.654-1.2-.11 0-.584.54-1.054 1.2m205.2 3.284c0 .489 1.695 3.154 1.885 2.964.102-.102-.28-.872-.849-1.71-.57-.838-1.036-1.402-1.036-1.254m6 10.812c0 .417 1.74 3.497 1.891 3.346.082-.081-.24-.844-.714-1.695-.926-1.66-1.177-2.012-1.177-1.651m2.324 4.904c.202.44.468 1.07.59 1.4.193.518.227.515.254-.024.018-.342-.248-.972-.59-1.4-.612-.764-.616-.763-.254.024m1.69 3.854c-.008.14.249.86.57 1.6.322.74.585 1.076.586.746.002-.576-1.127-2.866-1.156-2.346M77.4 166c-.15.473-.183.95-.073 1.06.11.11.323-.187.473-.66.15-.473.183-.95.073-1.06-.11-.11-.323.187-.473.66m238.606 4.233c.003.422.189 1.037.412 1.367.297.438.334.276.138-.6-.329-1.471-.558-1.79-.55-.767m-239.757.382a3.854 3.854 0 00-.215 1.318c.019.367.193.136.387-.513.377-1.262.244-1.887-.172-.805m-.827 4.807c-.15.803-.194 1.54-.096 1.638.098.097.301-.479.452-1.282.15-.803.194-1.54.096-1.638-.098-.097-.301.479-.452 1.282m241.846.778c.006.44.156 1.25.332 1.8l.32 1 .012-1c.006-.55-.143-1.36-.332-1.8l-.344-.8.012.8m-225.368.632c-.599.349-.7 1.036-.7 4.741 0 5.016-.19 4.812 4.5 4.822l2.7.005v25.566l-3.1.117-3.1.117-.114 4.1-.114 4.1h26.19c18.274 0 26.271-.13 26.457-.431.331-.536.309-19.039-.024-19.577-.133-.216-1.269-.392-2.524-.392h-2.281l-5.995 6.014-5.995 6.013-1.8-.113-1.8-.114-.106-12.7-.105-12.7 2.105-.005c4.032-.011 3.906.15 3.906-4.995 0-4.335-.034-4.516-.9-4.748-1.602-.429-36.443-.261-37.2.18m100-.014c-.598.36-.7 1.055-.7 4.755 0 4.919-.083 4.811 3.7 4.822l1.9.005v5c0 3.067.155 5 .4 5 .246 0 .4-1.986.4-5.157 0-5.857.13-5.643-3.433-5.643H192v-8.4h21.405c11.856 0 21.716.16 22.1.359.382.197 1.505.69 2.495 1.095 3.562 1.456 8.8 7.142 8.8 9.553 0 .355.183.987.406 1.405 1.894 3.539 1.878 15.155-.028 19.793-2.353 5.728-4.121 7.609-9.178 9.762-1.426.607-42.482 1.198-44.7.643-.838-.21-.9-.442-.9-3.369 0-3.657.206-3.938 3.01-4.115l1.99-.126.121-2.337c.081-1.56-.019-2.25-.3-2.076-.232.143-.421 1.15-.421 2.237V212h-1.951c-2.662 0-2.905.41-2.765 4.66l.116 3.54h45.264l2.326-1.177c4.587-2.321 7.284-6.026 8.796-12.081 3.008-12.046-1.587-24.72-10.535-29.057L235.4 176.6l-21.4-.102c-14.468-.069-21.627.035-22.1.32m56.8-.148c-.614.166-.7.743-.7 4.713 0 5.212-.181 5.002 4.3 5.012l2.5.005V212h-2.786c-2.345 0-2.851.122-3.2.774-.485.906-.548 6.395-.082 7.129.252.397 5.819.481 26.493.4l26.175-.103.113-9.2c.142-11.594.285-11-2.654-11h-2.326l-5.966 5.989c-5.806 5.827-6.013 5.989-7.667 6l-1.7.011v-25.6h1.974c3.855 0 4.027-.201 4.02-4.69-.003-2.151-.177-4.18-.385-4.51-.37-.586-36.061-1.082-38.109-.53m-119.186 4.83l.114 4.1h-2.381c-3.988 0-3.647-1.272-3.647 13.594 0 14.627-.06 14.315 2.662 13.873 1.211-.196 2.512-1.28 7.772-6.476l6.317-6.239 1.724.124 1.725.124.356 6.553c.208 3.829.208 7.82 0 9.6l-.356 3.047-25.7.103-25.7.103V213.2h2.374c1.306 0 2.836-.176 3.4-.39l1.026-.39V186.1l-1.25-.25c-.687-.137-2.307-.25-3.6-.25H92v-8.408l18.7.104 18.7.104.114 4.1M286 181.4v4.2h-1.75c-.962 0-2.312.113-3 .25l-1.25.25.006 12.85c.007 14.266-.033 14.05 2.575 14.05 1.801 0 1.839-.03 7.992-6.174l6.184-6.173 1.921-.027 1.922-.026.107 9.703.107 9.703-25.707-.103-25.707-.103-.116-3.3-.116-3.3h2.802c3.816 0 3.63.735 3.63-14.331 0-14.631.435-13.269-4.233-13.269H248.4v-3.933c0-2.164.12-4.054.267-4.2.146-.147 8.606-.267 18.8-.267H286v4.2m-211.107-2.6c0 .77.082 1.085.183.7.1-.385.1-1.015 0-1.4-.101-.385-.183-.07-.183.7m243.154 3.633c.026.752.194 1.907.373 2.567.215.789.25.378.103-1.2-.246-2.645-.55-3.519-.476-1.367m-243.794.803a12.897 12.897 0 00-.204 2.514c.029.744.189.29.394-1.122.368-2.524.233-3.51-.19-1.392m244.72 13.564c0 5.39.057 7.595.126 4.9.069-2.695.069-7.105 0-9.8-.069-2.695-.126-.49-.126 4.9m-99.93-7.367c-.605 1.577-.259 21.294.386 21.938 1.834 1.835 9.121-4.457 9.926-8.571.151-.77.381-1.913.511-2.539.25-1.207-.334-3.597-1.414-5.779-1.77-3.578-8.573-7.229-9.409-5.049m3.806.867c8.312 4.308 8.343 14.263.059 19.442-3.05 1.907-2.908 2.381-2.908-9.742 0-6.201.155-10.8.363-10.8.2 0 1.318.495 2.486 1.1m-149.091 6.3c0 3.08.063 4.287.139 2.682.076-1.604.076-4.124-.001-5.6-.077-1.475-.139-.162-.138 2.918m.289 11.433c.026.972.195 2.307.374 2.967.206.757.244.166.104-1.6-.254-3.179-.549-4.024-.478-1.367m244.446.367c0 .77.082 1.085.183.7.1-.385.1-1.015 0-1.4-.101-.385-.183-.07-.183.7m-243.592 6.2c.004.88.086 1.193.182.695.096-.497.092-1.217-.008-1.6-.1-.382-.179.025-.174.905m242.748.4a17.47 17.47 0 01-.266 1.8l-.206 1 .429-.981c.236-.54.355-1.35.266-1.8-.159-.798-.165-.798-.223-.019m-242.393 2.2c0 .33.155.96.344 1.4.217.504.344.578.344.2 0-.33-.155-.96-.344-1.4-.217-.504-.344-.578-.344-.2m241.637 2.4c0 .77.082 1.085.183.7.1-.385.1-1.015 0-1.4-.101-.385-.183-.07-.183.7m-240.837 2c0 .33.155.96.344 1.4.217.504.344.578.344.2 0-.33-.155-.96-.344-1.4-.217-.504-.344-.578-.344-.2m6.759 22c.006.33.275.949.598 1.376.755.999.75.629-.011-.83-.328-.63-.592-.876-.587-.546M90 258.128c0 .173.45.977 1 1.786s1 1.33 1 1.158c0-.173-.45-.977-1-1.786s-1-1.33-1-1.158m2.8 4.672c.47.66.944 1.2 1.054 1.2.11 0-.184-.54-.654-1.2-.47-.66-.944-1.2-1.054-1.2-.11 0 .184.54.654 1.2m203.919 4.403c-.877 1.54-.617 1.539.481-.003.47-.66.707-1.199.527-1.197-.18.001-.634.541-1.008 1.2M98 270.4c.47.66.944 1.2 1.054 1.2.11 0-.184-.54-.654-1.2-.47-.66-.944-1.2-1.054-1.2-.11 0 .184.54.654 1.2m196.3.214c-.999 1.336-.869 1.709.146.419.465-.591.78-1.138.7-1.215-.08-.077-.461.282-.846.796m-3.668 4.499l-.768 1.087 1.068-.97c1.122-1.019 1.261-1.238.768-1.217-.165.006-.646.501-1.068 1.1M102.637 276.2c.36.55.813 1 1.006 1 .194 0-.04-.45-.518-1-.478-.55-.931-1-1.006-1-.076 0 .157.45.518 1m4.083 4.5c1.542 1.705 3.396 3.64 4.119 4.3.723.66-.464-.735-2.638-3.1-2.175-2.365-4.028-4.3-4.12-4.3-.091 0 1.096 1.395 2.639 3.1m173.096 5.897c-.652.532-1.102 1.043-1 1.135.101.092.724-.35 1.384-.982 1.457-1.395 1.241-1.481-.384-.153m-165.93 1.006c.928.967 1.749 1.677 1.826 1.577.076-.099-.683-.89-1.687-1.758l-1.825-1.578 1.686 1.759M267 297.035l-1.2 1.031 1.3-.86c.715-.473 1.3-.938 1.3-1.033 0-.3-.169-.195-1.4.862m-138.6 1.907c0 .273 4.28 3.058 4.701 3.058.264 0-.939-.863-3.601-2.582-.605-.39-1.1-.605-1.1-.476m132.697 1.824c-1.372.879-1.737 1.235-1.264 1.232.202-.001.907-.445 1.567-.986 1.399-1.146 1.267-1.253-.303-.246m-19.297 9.848c-.66.303-.93.552-.6.554.33.002 1.05-.254 1.6-.568 1.265-.723.589-.713-1 .014m-76.6 4.986c.33.213.87.388 1.2.388.533 0 .533-.043 0-.388-.33-.213-.87-.388-1.2-.388-.533 0-.533.043 0 .388m61.2 0c-.533.345-.533.388 0 .388.33 0 .87-.175 1.2-.388.533-.345.533-.388 0-.388-.33 0-.87.175-1.2.388m-57.8.8c.44.189 1.07.344 1.4.344.378 0 .304-.127-.2-.344-.44-.189-1.07-.344-1.4-.344-.378 0-.304.127.2.344m54.4 0c-.504.217-.578.344-.2.344.33 0 .96-.155 1.4-.344.504-.217.578-.344.2-.344-.33 0-.96.155-1.4.344m-48.8 1.2c.44.189 1.25.338 1.8.332l1-.012-1-.32c-.55-.176-1.36-.326-1.8-.332l-.8-.012.8.344m43 0c-.804.257-.843.323-.2.332.44.006 1.16-.143 1.6-.332 1.019-.438-.032-.438-1.4 0m-37.4.8c.66.168 1.65.305 2.2.305.892 0 .87-.033-.2-.305-.66-.168-1.65-.305-2.2-.305-.892 0-.87.033.2.305m31.2 0c-1.07.272-1.092.305-.2.305.55 0 1.54-.137 2.2-.305 1.07-.272 1.092-.305.2-.305-.55 0-1.54.137-2.2.305m-26.309.689c.71.088 1.97.09 2.8.003.83-.087.249-.159-1.291-.161-1.54-.002-2.219.069-1.509.158m20.609.002c.825.087 2.175.087 3 0 .825-.086.15-.157-1.5-.157s-2.325.071-1.5.157"
      fill="#858e4f"/>
    <path
      d="M33.6 49.2c0 .266 55.733.4 166.4.4s166.4-.134 166.4-.4-55.733-.4-166.4-.4-166.4.134-166.4.4m58.484 132.296l.085 4.304.129-4.1.13-4.1H128.4v4c0 3.329.103 4 .614 4 .519 0 .596-.631.5-4.1l-.114-4.1-18.7-.104-18.7-.104.084 4.304m100 .004l.085 4.3.129-4.1.13-4.1h20.986c13.724 0 20.986.138 20.986.4 0 .22.675.379 1.5.354.847-.027 1.152-.131.7-.239-.44-.106-.971-.355-1.18-.554-.216-.206-9.643-.361-21.9-.361H192l.084 4.3m56.583-4.033c-.603.603-.295 8.133.333 8.133.493 0 .6-.711.6-4v-4h35.972l.13 4.1.129 4.1.085-4.3.084-4.3h-18.533c-10.194 0-18.654.12-18.8.267m-11.067 1.542c0 .325.357.591.793.591.905 0 5.799 4.714 6.198 5.971.145.456.431.829.636.829.205 0 .373.45.373 1s.18 1 .4 1c.22 0 .4.416.4.924 0 .507.264 1.272.587 1.7.377.498.592 1.736.6 3.452.007 1.472.193 2.788.413 2.924.22.136.4 1.137.4 2.224 0 1.087-.18 1.976-.4 1.976-.231 0-.4 1.252-.4 2.957 0 2.26-.142 3.012-.6 3.188-.347.133-.6.731-.6 1.419 0 .654-.18 1.3-.4 1.436-.22.136-.4.515-.4.843 0 .327-.45 1.012-1 1.522s-1 1.088-1 1.286c0 .197-.487.717-1.083 1.154-.595.437-1.405 1.11-1.8 1.495-.394.385-.976.7-1.293.7-.317 0-.688.18-.824.4-.136.22-.766.4-1.4.4-1.119 0-1.924.609-1.442 1.091.358.358 3.429-.719 5.239-1.837 2.972-1.836 4.244-3.534 6.181-8.249 1.906-4.638 1.922-16.254.028-19.793-.223-.418-.406-1.05-.406-1.405 0-.985-2.701-5.033-4.408-6.607-2.748-2.534-4.792-3.64-4.792-2.591m-139.3 6.873l.9.174v13.148c0 14.955.372 13.652-4 14.022l-3 .253 3.7.061 3.7.06v-28l-1.1.054c-.943.047-.972.08-.2.228m24.367-.015c-.334.333-.356 26.235-.024 27.1.346.901 5.757.932 5.757.033 0-.33.193-.6.429-.6.553 0 1.571-1.018 1.571-1.571a.43.43 0 01.429-.429c.553 0 1.571-1.018 1.571-1.571a.43.43 0 01.429-.429c.553 0 1.571-1.018 1.571-1.571a.43.43 0 01.429-.429c.553 0 1.571-1.018 1.571-1.571a.43.43 0 01.429-.429c.235 0 .685-.257 1-.571.314-.315.571-.765.571-1 0-.236.27-.429.6-.429.33 0 .6-.18.6-.4 0-.22.892-.4 1.982-.4h1.983l.147 2.9c.137 2.714.145 2.682.117-.5l-.029-3.4-1.725-.124-1.724-.124-6.317 6.239c-6.605 6.524-8.222 7.546-9.831 6.212-.818-.679-.918-26.609-.103-26.938.275-.111.125-.216-.333-.233-.459-.018-.954.088-1.1.235m74.433-.002c.361.145.5 1.529.5 4.968 0 2.911.156 4.767.4 4.767.245 0 .4-1.933.4-5 0-4.928-.013-5-.9-4.968-.495.017-.675.122-.4.233m58 0c.647.261.728 25.361.086 26.561-.349.652-.855.774-3.216.774h-2.802l.116 3.3.116 3.3 25.707.103 25.707.103-.107-9.703-.107-9.703-1.922.026-1.921.027-6.184 6.173c-6.153 6.144-6.191 6.174-7.992 6.174-2.608 0-2.568.218-2.575-14.072L280 186.056l.9-.174c.772-.148.743-.181-.2-.228l-1.1-.054v28h3c1.867 0 3-.162 3-.429 0-.553 1.018-1.571 1.571-1.571a.43.43 0 00.429-.429c0-.553 1.018-1.571 1.571-1.571a.43.43 0 00.429-.429c0-.553 1.018-1.571 1.571-1.571a.43.43 0 00.429-.429c0-.553 1.018-1.571 1.571-1.571a.43.43 0 00.429-.429c0-.553 1.018-1.571 1.571-1.571a.43.43 0 00.429-.429c0-.931 1.209-1.571 2.971-1.571h1.829v18h-50.8v-6h6.8v-28l-.9.032c-.495.017-.675.122-.4.233m-36.433 2.002c-.147.146-.267 5.726-.267 12.4V212.4h1.6c.88 0 1.6-.18 1.6-.4 0-.22.45-.4 1-.4.622 0 1-.227 1-.6 0-.34.359-.6.829-.6.885 0 1.971-.866 1.971-1.571a.43.43 0 01.429-.429c.705 0 1.571-1.086 1.571-1.971 0-.47.26-.829.6-.829.369 0 .6-.375.6-.976 0-.537.18-1.088.4-1.224.22-.136.4-1.767.4-3.624 0-1.984-.165-3.376-.4-3.376-.22 0-.4-.546-.4-1.213 0-.708-.249-1.308-.6-1.442-.33-.127-.6-.404-.6-.616 0-.519-1.038-1.529-1.571-1.529a.43.43 0 01-.429-.429c0-.692-1.079-1.571-1.929-1.571-.432 0-.889-.27-1.016-.6-.144-.377-.756-.6-1.642-.6-.777 0-1.413-.18-1.413-.4 0-.447-1.318-.548-1.733-.133m4.773 1.966c4.159 2.191 7.133 7.019 6.426 10.428-.13.626-.36 1.769-.511 2.539-.805 4.114-8.092 10.406-9.926 8.571-.645-.644-.991-20.361-.386-21.938.36-.94 2.168-.775 4.397.4M197.521 210.1l-.121 2.1-1.99.126c-2.804.177-3.01.458-3.01 4.115 0 3.972-2.379 3.604 22.4 3.466l20.6-.114-20.9-.097-20.9-.096v-5.96l2.3-.12 2.3-.12.118-2.7c.07-1.601-.043-2.7-.279-2.7-.218 0-.452.945-.518 2.1m-53.867 8.197l-.054 1.297-25.7.106-25.7.106 25.713.097c27.802.105 26.39.212 25.973-1.974-.135-.709-.19-.622-.232.368M116.7 351.1c45.815.056 120.785.056 166.6 0s8.33-.102-83.3-.102-129.115.046-83.3.102"
      fill="#1c3494"/>
  </g>
</svg>
