<svg xmlns="http://www.w3.org/2000/svg" xml:space="preserve" viewBox="0 0 449.733 179.907"><path d="M813.398 472.457 1212.9 877.609l340.4-337.949 174.65 172.75 3.75-145.097L1163.9 2.609 1091 74.86l93 87.301-265.098 270.75-97.949-94.25-7.555 133.797" style="fill:#ed1c24;fill-opacity:1;fill-rule:nonzero;stroke:none" transform="matrix(.13333 0 0 -.13333 0 179.907)"/>
  <path
    d="M813.398 472.457 1212.9 877.609l340.4-337.949 174.65 172.75 3.75-145.097L1163.9 2.609 1091 74.86l93 87.301-265.098 270.75-97.949-94.25Z"
    style="fill:none;stroke:#ed1c24;stroke-width:3.7;stroke-linecap:butt;stroke-linejoin:miter;stroke-miterlimit:4;stroke-dasharray:none;stroke-opacity:1"
    transform="matrix(.13333 0 0 -.13333 0 179.907)"/>
  <path
    d="M2545.1 992.563h565.3V865.66h-89.2V413.41l348.65 190.352 1.25-332.301h-829.15v131.301h93l.6 462.898h-89.8l-.65 126.903"
    style="fill:#176fc1;fill-opacity:1;fill-rule:nonzero;stroke:none" transform="matrix(.13333 0 0 -.13333 0 179.907)"/>
  <path d="M2545.1 992.563h565.3V865.66h-89.2V413.41l348.65 190.352 1.25-332.301h-829.15v131.301h93l.6 462.898h-89.8z"
        style="fill:none;stroke:#176fc1;stroke-width:3.7;stroke-linecap:butt;stroke-linejoin:miter;stroke-miterlimit:4;stroke-dasharray:none;stroke-opacity:1"
        transform="matrix(.13333 0 0 -.13333 0 179.907)"/>
  <path
    d="M1163.9 907.113c120.6 0 219.8 99.247 219.8 220.497 0 121.2-99.2 219.8-219.8 219.8-121.85 0-220.502-98.6-220.502-219.8 0-121.25 98.652-220.497 220.502-220.497"
    style="fill:#ed1c24;fill-opacity:1;fill-rule:nonzero;stroke:none" transform="matrix(.13333 0 0 -.13333 0 179.907)"/>
  <path
    d="M1163.9 907.113c120.6 0 219.8 99.247 219.8 220.497 0 121.2-99.2 219.8-219.8 219.8-121.85 0-220.502-98.6-220.502-219.8 0-121.25 98.652-220.497 220.502-220.497z"
    style="fill:none;stroke:#ed1c24;stroke-width:3.7;stroke-linecap:butt;stroke-linejoin:miter;stroke-miterlimit:4;stroke-dasharray:none;stroke-opacity:1"
    transform="matrix(.13333 0 0 -.13333 0 179.907)"/>
  <path
    d="M5 984.363h564.703V857.512h-88.605v-452.25L829.75 595.559l.602-332.25H1.852v130.652h92.347l.649 463.551H4.398L5 984.363"
    style="fill:#176fc1;fill-opacity:1;fill-rule:nonzero;stroke:none" transform="matrix(.13333 0 0 -.13333 0 179.907)"/>
  <path
    d="M5 984.363h564.703V857.512h-88.605v-452.25L829.75 595.559l.602-332.25H1.852v130.652h92.347l.649 463.551H4.398Z"
    style="fill:none;stroke:#176fc1;stroke-width:3.7;stroke-linecap:butt;stroke-linejoin:miter;stroke-miterlimit:4;stroke-dasharray:none;stroke-opacity:1"
    transform="matrix(.13333 0 0 -.13333 0 179.907)"/>
  <path
    d="M2089.7 495.711c68.5.602 125.65 39.551 126.25 144.445 0 101.754-59 146.356-124.95 146.356zm117.5-223h-588.55v127.5h99.85l-1.9 461.051h-99.85v125h593.55c172.1.601 309.05-119.352 310.95-355.504C2520 387.008 2368 272.711 2207.2 272.711"
    style="fill:#176fc1;fill-opacity:1;fill-rule:nonzero;stroke:none" transform="matrix(.13333 0 0 -.13333 0 179.907)"/>
  <path
    d="M2089.7 495.711c68.5.602 125.65 39.551 126.25 144.445 0 101.754-59 146.356-124.95 146.356zm117.5-223h-588.55v127.5h99.85l-1.9 461.051h-99.85v125h593.55c172.1.601 309.05-119.352 310.95-355.504C2520 387.008 2368 272.711 2207.2 272.711Z"
    style="fill:none;stroke:#176fc1;stroke-width:3.7;stroke-linecap:butt;stroke-linejoin:miter;stroke-miterlimit:4;stroke-dasharray:none;stroke-opacity:1"
    transform="matrix(.13333 0 0 -.13333 0 179.907)"/></svg>
