<svg width="68" height="19" viewBox="0 0 68 19" fill="none" xmlns="http://www.w3.org/2000/svg">
  <title>Mall.cz</title>
  <g>
    <path d="M0.867188 0.229614H67.7353V17.9902H0.867188V0.229614Z" fill="#D20A11"/>
    <path
      d="M5.54797 4.87467C5.81544 3.50847 6.61786 3.23523 7.28654 3.23523C8.55703 3.23523 8.89137 3.98664 9.49319 6.10425L10.7637 10.1345L12.0342 6.10425C12.7029 3.98664 12.9703 3.23523 14.2408 3.23523C14.9095 3.23523 15.7119 3.50847 15.9794 4.87467L16.9824 10.8176C17.183 12.0472 17.3836 13.3451 17.3836 13.755C17.3836 14.3698 16.9155 14.9845 16.18 14.9845C15.0432 14.9845 14.7758 14.1648 14.7089 13.2085L13.9734 8.08524L12.2348 13.8233C11.9673 14.643 11.5661 14.9845 10.8305 14.9845C10.0281 14.9845 9.69379 14.643 9.42632 13.8233L7.68775 8.08524L6.9522 13.2085C6.81846 14.0965 6.61786 14.9845 5.4811 14.9845C4.74555 14.9845 4.27747 14.3014 4.27747 13.755C4.27747 13.3451 4.47808 12.0472 4.67868 10.8176L5.54797 4.87467ZM20.727 5.42115C21.1951 4.12326 21.5963 3.0303 22.9337 3.0303C24.271 3.0303 24.6722 4.12326 25.1403 5.42115L27.6144 12.3205C27.9488 13.2768 28.0157 13.55 28.0157 13.9599C28.0157 14.643 27.4807 15.0529 26.7452 15.0529C25.8759 15.0529 25.6084 14.5064 25.4078 13.755L25.0735 12.7303H20.7939L20.4596 13.755C20.1921 14.5064 19.9246 15.0529 19.1222 15.0529C18.3866 15.0529 17.8517 14.643 17.8517 13.9599C17.8517 13.55 17.9186 13.2768 18.2529 12.3205L20.727 5.42115ZM23.0005 5.96763L21.5963 10.2028H24.271L23.0005 5.96763ZM28.5506 4.60143C28.5506 3.64509 29.0855 3.16692 29.8211 3.16692C30.5566 3.16692 31.0916 3.64509 31.0916 4.60143V12.4571H33.9001C34.7025 12.4571 35.1705 12.9352 35.1705 13.6867C35.1705 14.4381 34.7025 14.9162 33.9001 14.9162H29.8211C29.1524 14.9162 28.5506 14.4381 28.5506 13.6183V4.60143ZM35.7055 4.60143C35.7055 3.64509 36.2404 3.16692 36.976 3.16692C37.7115 3.23523 38.3133 3.64509 38.3133 4.60143V12.4571H41.1218C41.9242 12.4571 42.3923 12.9352 42.3923 13.6867C42.3923 14.4381 41.9242 14.9162 41.1218 14.9162H36.976C36.3073 14.9162 35.7055 14.4381 35.7055 13.6183V4.60143ZM44.7995 12.3205C45.5351 12.3205 46.2038 13.0036 46.2038 13.755C46.2038 14.5064 45.5351 15.1895 44.7995 15.1895C44.064 15.1895 43.3953 14.5747 43.3953 13.755C43.3953 13.0036 43.9971 12.3205 44.7995 12.3205ZM51.8876 3.0303C53.4255 3.0303 55.2978 3.50847 55.2978 4.87467C55.2978 5.48946 54.8298 6.10425 54.1611 6.10425C53.5593 6.10425 52.8906 5.55777 51.8876 5.55777C49.8147 5.55777 48.9454 7.26552 48.9454 9.10989C48.9454 10.9543 49.8815 12.5254 51.6201 12.5254C53.2249 12.5254 53.4924 11.9789 54.1611 11.9789C55.1641 11.9789 55.2978 12.8669 55.2978 13.2085C55.2978 14.643 53.1581 15.1895 51.687 15.1895C48.0761 15.1895 46.07 12.4571 46.07 9.10989C46.2038 5.55777 48.4773 3.0303 51.8876 3.0303ZM63.1883 12.4571C64.0576 12.4571 64.5925 12.9352 64.5925 13.6867C64.5925 14.4381 64.1244 14.9162 63.1883 14.9162H57.4376C56.0334 14.9162 55.6322 14.3014 55.6322 13.4817C55.6322 13.0036 55.8328 12.7303 56.1003 12.3205L60.9816 5.69439H57.1702C56.3009 5.69439 55.7659 5.21622 55.7659 4.53312C55.7659 3.85002 56.234 3.37185 57.1702 3.37185H62.7202C64.1244 3.37185 64.325 4.25988 64.325 4.66974C64.325 5.21622 63.857 5.89932 63.1214 6.85566L58.9756 12.4571H63.1883Z"
      fill="white"/>
  </g>
</svg>
