<svg version="1.0" id="Layer_1" xmlns="http://www.w3.org/2000/svg" xmlns:xlink="http://www.w3.org/1999/xlink" x="0px"
     y="0px" style="enable-background:new 0 0 2000 2000;" xml:space="preserve" viewBox="196.73 305.25 1628.63 1351.5"><style type="text/css">	.st0{fill:#ED684A;}	.st1{fill:#282A2C;}</style>
  <g id="Orange_00000004543304591864261400000017572989474360065665_">	<polygon class="st0"
                                                                                points="1007.31,1381.75 1186.94,1202.49 1186.94,1381.93 1814.99,1381.93 1814.99,305.27 1186.74,305.27    1007.31,484.99 827.89,305.27 199.99,305.27 199.99,1381.93 828.05,1381.93 828.05,1202.49  "></polygon>
    <g id="Logotyp_00000044867281973651729750000008487244227622255012_">		<path class="st1"
                                                                                  d="M212.37,1643.76l13.17-110.05l-18.79-2.19v-9.75h47.93l27.55,80.48l4.57,20.18l3.95-20.18l24.31-80.48h47.92    v9.75l-19.48,2.27l17.03,109.89l15.71,2.1v9.57h-52.13v-9.57l15.53-2.01l-11.06-79.69l-3.87-35.03l-6.05,24.06l-28.61,96.27    h-11.32l-31.68-86.44l-9.75-33.79l-2.8,34.83l-7.12,79.7l17.29,2.1v9.57h-47.92v-9.57L212.37,1643.76z"></path>
      <path class="st1"
            d="M457.69,1643.68v-109.71l-14.48-2.42v-9.78h91.45l2.45,27.85H525.8l-5.43-17.22h-42.04v48.71h28.53    l2.63-14.83h11.32v41.59h-11.32l-2.54-15.61h-28.62v51.26h48.27l9.92-23l11.23,3.35l-5.17,31.5h-99.61v-9.57L457.69,1643.68z"></path>
      <path class="st1"
            d="M630.87,1553.19c6.07-10.51,14.37-18.57,24.9-24.14c10.54-5.59,22.39-8.37,35.54-8.37    c8.22,0,15.89,0.58,23,1.73c7.11,1.16,13.74,2.48,19.87,3.96l-1.79,30.13l-13.74,0l-4.83-19.93c-1.49-1.4-4.14-2.66-7.94-3.78    c-3.81-1.11-9.14-1.67-15.98-1.67c-8.69,0-16.35,2.07-22.95,6.2c-6.61,4.13-11.78,10.3-15.49,18.48    c-3.72,8.18-6.08,18.28-6.07,30.07c0,10.83,2.07,20.68,5.19,29.82c3.13,9.12,7.92,16.49,14.39,22.06    c6.46,5.59,14.39,8.38,23.8,8.38c5.36,0,10.39-0.65,15.09-1.94c4.7-1.27,8.33-3.16,10.89-5.67l-0.01-39.11l-21.88-2.04l0-11.52    l53.31-0.01l0,11.52l-10.45,1.87l0.01,48.23c-1.55,0-3.31,0.25-5.31,0.74c-1.99,0.51-4.48,1.24-7.45,2.2    c-6.31,1.97-12.2,3.51-17.68,4.65c-5.48,1.13-11.58,1.69-18.31,1.69c-13.4,0-25-2.85-34.83-8.57    c-9.82-5.72-17.33-13.6-22.55-23.65c-5.21-10.05-7.81-21.4-7.82-34.07C621.76,1576.13,624.8,1563.7,630.87,1553.19z"></path>
      <path class="st1"
            d="M825.38,1643.69l43.26-121.92h20.89l43.61,121.92l11.15,2.08v9.57h-48.19v-9.57l14.3-2.1l-8.33-25.64h-51.6    l-7.98,25.64l15,2.1v9.57h-43.18l-0.08-9.57L825.38,1643.69z M898.48,1606.9l-18.78-56.76l-3.87-14.51l-3.86,14.69l-17.99,56.58    H898.48z"></path>
      <path class="st1"
            d="M1033.21,1643.76v-109.01l-13.78-2.24v-10.74h21.67c3.17,0,7.44,0,12.82,0c6.32,0,12.4,0,18.18,0    c12.41,0,22.26,1.45,29.57,4.35c7.31,2.91,12.51,7.12,15.63,12.64c3.09,5.51,4.65,12.44,4.65,20.78c0,9.49-2.21,17.71-6.66,24.66    c-4.45,6.95-10.62,12.25-18.49,15.9c-7.86,3.66-16.86,5.47-26.97,5.47c-3.18,0-6.43,0-9.75,0c-3.35,0-5.43-0.08-6.24-0.26v38.44    l23.69,2.01v9.57h-59.05v-9.57L1033.21,1643.76z M1091.43,1587.14c5.59-5.57,8.38-14.85,8.38-27.85c0-10.07-2.44-17.33-7.38-21.75    c-4.91-4.44-12.57-6.64-22.97-6.64c-3.57,0-7.18,0-10.8,0c-1.93,0-3.57,0-4.92,0v63.81c2.83,0.52,8.16,0.78,16.08,0.78    C1078.63,1595.49,1085.84,1592.7,1091.43,1587.14z"></path>
      <path class="st1"
            d="M1220.62,1643.68v-109.89l-16.07-2.27v-9.75h52.83v9.75l-16.05,2.19v109.97l16.31,2.36v9.31h-53.09v-9.57    L1220.62,1643.68z"></path>
      <path class="st1"
            d="M1352.02,1643.76l37.22-55.12l-36.78-54.85l-13.16-2.27v-9.75h53.79v9.75l-15.87,2.27l27.11,43.88    l26.85-43.88l-15.19-2.27v-9.75h44.59v9.75l-14.05,2.27l-35.98,51.34l39.77,58.63l13.68,2.01v9.57h-53.79v-9.57l15.27-2.1    l-29.76-47.41l-27.81,47.49l17.2,2.01v9.57h-48.44v-9.57L1352.02,1643.76z"></path>
      <path class="st1"
            d="M1555.38,1643.68v-109.71l-14.47-2.42v-9.78h91.45l2.45,27.85h-11.32l-5.44-17.22h-42.03v48.71h28.51    l2.63-14.83h11.32v41.59h-11.32l-2.53-15.61h-28.61v51.26h48.27l9.91-23l11.24,3.35l-5.18,31.5h-99.6v-9.57L1555.38,1643.68z"></path>
      <path class="st1"
            d="M1737.77,1643.68v-109.97l-14.48-2.19v-9.75h52.21v9.75l-16.94,2.27v109.09h44.32l10.71-30.18l11.76,2.01    l-5.96,40.63h-96.37v-9.57L1737.77,1643.68z"></path>	</g></g>
  <g></g>
  <g></g>
  <g></g>
  <g></g>
  <g></g>
  <g></g></svg>
