<svg width="59" height="20" viewBox="0 0 59 20" fill="none" xmlns="http://www.w3.org/2000/svg">
  <title>Mironet</title>
  <path
    d="M56.5796 20H1.80157C0.809399 20 0 19.1906 0 18.1984V1.80157C0 0.809398 0.809399 0 1.80157 0H56.5927C57.5849 0 58.3943 0.809398 58.3943 1.80157V18.1984C58.3812 19.1906 57.5718 20 56.5796 20Z"
    fill="white"/>
  <path
    d="M11.4752 4.12534C11.9321 4.37338 12.3629 4.66059 12.7546 5.01307C12.7807 5.03918 12.8198 5.06528 12.8329 5.10445C12.7937 5.13056 12.7546 5.1175 12.7154 5.1175C12.1671 5.1175 11.6057 5.1175 11.0574 5.1175C10.9661 5.1175 10.9399 5.14362 10.9138 5.22195C10.8486 5.52221 10.7833 5.80941 10.718 6.10967C10.705 6.20106 10.6658 6.21411 10.5744 6.21411C10.0261 6.21411 9.4778 6.21411 8.9295 6.21411C8.82506 6.21411 8.75979 6.24022 8.75979 6.35771C8.75979 6.40993 8.74673 6.4491 8.73368 6.48826C8.68146 6.7363 8.61618 6.97129 8.56397 7.21933C8.55091 7.32377 8.51175 7.33683 8.42036 7.33683C7.859 7.33683 7.29765 7.33683 6.74934 7.33683C6.68407 7.33683 6.6449 7.34988 6.63185 7.42821C6.55352 7.83291 6.46214 8.25066 6.37075 8.65536C6.25326 9.17756 6.13577 9.69975 6.01827 10.2219C5.88773 10.8094 5.75718 11.4099 5.62663 11.9974C5.53524 12.376 5.45692 12.7415 5.36553 13.1201C5.35248 13.1593 5.37859 13.2115 5.33942 13.2246C5.30026 13.2376 5.27415 13.1854 5.23498 13.1593C4.79112 12.7415 4.38642 12.2716 4.11227 11.7233C4.11227 11.7102 4.09921 11.6971 4.09921 11.6841C3.82506 11.1749 3.64229 10.6397 3.53786 10.0783C3.45953 9.62142 3.44647 9.1645 3.45953 8.70758C3.45953 8.66842 3.47258 8.64231 3.47258 8.60315C3.56397 7.58487 3.91645 6.65797 4.51697 5.82246C4.7389 5.50915 5 5.235 5.27415 4.9739C5.61357 4.69975 5.953 4.4256 6.34464 4.22978C8.00261 3.36816 9.67363 3.32899 11.3708 4.09923C11.4099 4.09923 11.436 4.11228 11.4752 4.12534Z"
    fill="#1F5C94"/>
  <path
    d="M13.8512 11.7363C13.6162 12.1279 13.3682 12.5065 13.0548 12.8329C12.624 13.3029 12.1279 13.6815 11.5666 13.9817C11.5405 13.9948 11.5274 14.0078 11.5013 14.0209C11.1358 14.1906 10.7572 14.3473 10.3655 14.4386C9.08617 14.752 7.84596 14.6345 6.64491 14.0862C6.6188 14.0731 6.59269 14.06 6.56658 14.06C6.52742 14.047 6.50131 14.0209 6.46215 14.0078C6.18799 13.8642 5.9269 13.6945 5.67886 13.5117C5.62664 13.4726 5.60053 13.4334 5.63969 13.3812C5.88773 12.9373 6.13578 12.4935 6.38382 12.0496C6.50131 11.8538 6.6188 11.6449 6.72324 11.4491C6.93212 11.0574 7.15405 10.6658 7.36293 10.2741C7.48042 10.0653 7.59792 9.85639 7.71541 9.66057C7.88512 9.36031 8.04178 9.04699 8.22455 8.74673C8.25066 8.79895 8.22455 8.83811 8.21149 8.89033C8.094 9.42558 7.97651 9.96083 7.85901 10.4961C7.66319 11.3969 7.45431 12.2976 7.25849 13.1984C7.27155 13.1984 7.2846 13.1984 7.2846 13.2115C7.38904 13.0157 7.50653 12.8068 7.61097 12.611C7.87207 12.1279 8.13316 11.658 8.39426 11.1749C8.51175 10.953 8.65536 10.7441 8.7598 10.5091C8.83813 10.3655 8.91645 10.235 8.99478 10.0914C9.24283 9.63446 9.49087 9.19059 9.72585 8.73368C9.93473 8.35509 10.1436 7.97649 10.3655 7.5979C10.3786 7.5979 10.3786 7.5979 10.3917 7.61096C10.3133 8.0026 10.2219 8.39425 10.1436 8.78589C10.1306 8.812 10.1306 8.83811 10.1175 8.86422C9.93473 9.68668 9.75196 10.5091 9.5692 11.3316C9.50392 11.6057 9.4517 11.8929 9.38643 12.1671C9.42559 12.141 9.4517 12.1018 9.46476 12.0627C9.63447 11.7624 9.80418 11.4491 9.9739 11.1488C10.2219 10.6919 10.47 10.235 10.705 9.77806C10.8747 9.45169 11.0574 9.13838 11.2402 8.81201C11.2924 8.72062 11.3447 8.62924 11.3969 8.53785C11.6449 8.08093 11.893 7.62401 12.141 7.1671C12.2585 6.94516 12.376 6.73629 12.4935 6.51435C12.6762 6.18798 12.859 5.86161 13.0418 5.52219C13.0679 5.48302 13.0809 5.44386 13.1071 5.40469C13.3943 5.73106 13.6423 6.07049 13.8512 6.44908C13.8642 6.47519 13.8773 6.48824 13.8903 6.51435C13.9165 6.56657 13.9295 6.60574 13.9556 6.65796C14.1514 7.06266 14.295 7.48041 14.3995 7.91122C14.4909 8.28981 14.517 8.68146 14.53 9.06005C14.517 9.58224 14.4648 10.0914 14.3212 10.5875C14.2037 10.9791 14.047 11.3577 13.8512 11.7363Z"
    fill="#1F5C94"/>
  <path
    d="M25.6658 14.1514C25.8225 14.9739 25.9791 15.7702 26.1358 16.5535C26.1488 16.6449 26.1358 16.6971 26.0183 16.6841C25.8355 16.671 25.8355 16.6841 25.8094 16.5013C25.7311 16.0575 25.6527 15.6136 25.5744 15.1697C25.5744 15.1567 25.5614 15.1436 25.5614 15.1306C25.5222 15.1306 25.5222 15.1567 25.5222 15.1697C25.3003 15.6528 25.0914 16.1488 24.8695 16.6319C24.8564 16.658 24.8564 16.6971 24.8172 16.6971C24.7781 16.6971 24.7911 16.6449 24.7781 16.6188C24.5561 16.1097 24.3473 15.6136 24.0992 15.1044C24.0731 15.2611 24.047 15.4178 24.0078 15.5744C23.9426 15.9138 23.8773 16.2663 23.8251 16.6058C23.812 16.658 23.799 16.671 23.7598 16.658C23.7467 16.658 23.7467 16.658 23.7337 16.658C23.6554 16.658 23.564 16.6841 23.5118 16.6449C23.4465 16.5927 23.5248 16.5144 23.5379 16.4491C23.6815 15.6919 23.8381 14.9217 23.9948 14.1253C24.2689 14.765 24.5431 15.3917 24.8172 16.0313C25.1044 15.4178 25.3786 14.7911 25.6658 14.1514Z"
    fill="#1F5C94"/>
  <path
    d="M20.6919 16.7232C20.0131 16.7493 19.4517 16.1227 19.4517 15.47C19.4517 14.765 20.0131 14.2036 20.718 14.2036C21.423 14.2036 21.9713 14.765 21.9843 15.47C21.9843 16.1358 21.4099 16.7624 20.6919 16.7232ZM20.705 16.436C21.2402 16.436 21.671 16.0052 21.671 15.47C21.671 14.9347 21.2402 14.4909 20.718 14.4778C20.1828 14.4778 19.752 14.9086 19.752 15.4569C19.752 16.0052 20.1828 16.436 20.705 16.436Z"
    fill="#1F5C94"/>
  <path
    d="M41.9191 16.6841C41.7885 16.6841 41.6841 16.6841 41.5796 16.6841C41.5405 16.6841 41.5274 16.658 41.5013 16.6318C41.3055 16.3446 41.1097 16.0574 40.9138 15.7702C40.9008 15.7441 40.8747 15.7311 40.8616 15.705C40.8355 15.6527 40.7833 15.6658 40.7441 15.6658C40.6919 15.6788 40.705 15.718 40.705 15.7572C40.705 16.0313 40.705 16.3055 40.705 16.5796C40.705 16.671 40.6789 16.6971 40.5875 16.6971C40.3916 16.6971 40.3916 16.6971 40.3916 16.5013C40.3916 15.7963 40.3916 15.1044 40.3916 14.3995C40.3916 14.282 40.4308 14.2689 40.5222 14.2689C40.718 14.282 40.9138 14.2689 41.1227 14.295C41.436 14.3342 41.6841 14.5692 41.7232 14.8825C41.7624 15.2219 41.5666 15.5352 41.2402 15.6266C41.1488 15.6527 41.1619 15.6788 41.201 15.7311C41.3969 16.0052 41.5927 16.2663 41.7885 16.5405C41.8407 16.5666 41.8668 16.6188 41.9191 16.6841ZM40.718 14.9739C40.718 15.0914 40.718 15.2089 40.718 15.3394C40.718 15.3916 40.7311 15.4177 40.7963 15.4177C40.9269 15.4177 41.0574 15.4047 41.1749 15.3655C41.3447 15.3133 41.436 15.1958 41.4491 15.013C41.4621 14.8303 41.3838 14.6997 41.2141 14.6214C41.0705 14.5561 40.9269 14.5561 40.7833 14.5561C40.7311 14.5561 40.718 14.5822 40.718 14.6214C40.718 14.7258 40.718 14.8433 40.718 14.9739Z"
    fill="#1F5C94"/>
  <path
    d="M32.5849 15.1828C32.5718 15.4308 32.611 15.7441 32.5587 16.0444C32.4935 16.4099 32.141 16.7493 31.7232 16.7363C31.5405 16.7363 31.3708 16.7232 31.2141 16.6188C30.953 16.423 30.8225 16.1619 30.8094 15.8355C30.8094 15.3394 30.8094 14.8564 30.8094 14.3603C30.8094 14.282 30.8486 14.2689 30.9138 14.2689C31.1227 14.2689 31.1227 14.2689 31.1227 14.4647C31.1227 14.8825 31.1227 15.3003 31.1227 15.718C31.1227 15.8877 31.1488 16.0574 31.2402 16.201C31.3577 16.3969 31.5535 16.4621 31.7755 16.4491C31.9843 16.436 32.141 16.3316 32.2324 16.1358C32.2977 15.9791 32.3107 15.8224 32.3107 15.6658C32.3107 15.235 32.3107 14.8042 32.3107 14.3864C32.3107 14.295 32.3368 14.2689 32.4282 14.2689C32.611 14.2689 32.611 14.2689 32.611 14.4647C32.5849 14.6736 32.5849 14.9086 32.5849 15.1828Z"
    fill="#1F5C94"/>
  <path
    d="M37.9635 14.2559C38.1462 14.2559 38.329 14.2559 38.5118 14.2559C38.5901 14.2559 38.6162 14.282 38.6031 14.3603C38.6031 14.3864 38.6031 14.4126 38.6031 14.4256C38.6162 14.517 38.5901 14.5431 38.4856 14.5431C38.2246 14.53 37.9765 14.5431 37.7154 14.5431C37.624 14.5431 37.5979 14.5692 37.611 14.6606C37.624 14.8172 37.611 14.9739 37.611 15.1306C37.611 15.2089 37.624 15.235 37.7024 15.2219C37.9504 15.2219 38.2115 15.2219 38.4595 15.2219C38.5509 15.2219 38.5901 15.2481 38.577 15.3394C38.577 15.3656 38.577 15.3917 38.577 15.4047C38.5901 15.4961 38.5509 15.5092 38.4726 15.5092C38.2115 15.5092 37.9635 15.5092 37.7024 15.5092C37.6371 15.5092 37.611 15.5222 37.611 15.6005C37.611 15.8355 37.611 16.0836 37.611 16.3186C37.611 16.3969 37.6371 16.4099 37.7154 16.4099C37.9765 16.4099 38.2376 16.4099 38.4987 16.4099C38.5901 16.4099 38.6162 16.436 38.6031 16.5144C38.6031 16.5535 38.6031 16.5797 38.6031 16.6188C38.6031 16.671 38.5901 16.6841 38.5379 16.6841C38.1462 16.6841 37.7676 16.6841 37.376 16.6841C37.3107 16.6841 37.3107 16.658 37.3107 16.6058C37.3107 15.8486 37.3107 15.0914 37.3107 14.3473C37.3107 14.282 37.3368 14.2689 37.4021 14.2689C37.5979 14.2559 37.7807 14.2559 37.9635 14.2559Z"
    fill="#1F5C94"/>
  <path
    d="M44.2037 16.7233C43.812 16.7494 43.5509 16.4752 43.4726 16.175C43.4465 16.0966 43.4465 16.0314 43.564 16.0314C43.577 16.0314 43.6031 16.0183 43.6162 16.0183C43.7076 15.9922 43.7598 15.9791 43.7729 16.1097C43.799 16.3316 44.047 16.4622 44.282 16.4361C44.5039 16.4099 44.6475 16.2402 44.6606 16.0183C44.6736 15.8094 44.5692 15.6789 44.3995 15.5875C44.2167 15.4961 44.0078 15.4308 43.8381 15.3133C43.577 15.1436 43.4856 14.8173 43.6293 14.5562C43.7598 14.3342 43.9556 14.2167 44.2167 14.2037C44.4909 14.1906 44.7128 14.2689 44.8695 14.5039C44.9086 14.5562 44.8956 14.5823 44.8433 14.6084C44.8172 14.6214 44.8042 14.6345 44.7781 14.6475C44.6997 14.7128 44.6606 14.7128 44.5823 14.6214C44.4386 14.4517 44.1906 14.4256 44.0209 14.5562C43.8251 14.6998 43.8251 14.9347 44.0209 15.0653C44.1384 15.1436 44.2689 15.1828 44.3995 15.235C44.4778 15.2742 44.5561 15.3003 44.6345 15.3525C44.9086 15.5222 45.0131 15.7703 44.9608 16.0836C44.9217 16.3838 44.7259 16.5666 44.4517 16.671C44.3734 16.7233 44.282 16.7363 44.2037 16.7233Z"
    fill="#1F5C94"/>
  <path
    d="M17.8329 14.7128C17.1932 14.3864 16.7755 14.4386 16.4491 14.8694C16.1619 15.248 16.1749 15.7702 16.5013 16.1358C16.8277 16.5144 17.2715 16.5405 17.8329 16.2141C17.846 16.3185 17.846 16.423 17.846 16.5274C17.846 16.5666 17.8068 16.5796 17.7807 16.5927C17.3499 16.8146 16.906 16.8016 16.5274 16.5274C15.7702 16.0052 15.8355 15.0783 16.2533 14.6214C16.6057 14.2428 17.2585 14.0992 17.7415 14.295C17.8329 14.3342 17.8721 14.3734 17.859 14.4778C17.8329 14.5561 17.8329 14.6345 17.8329 14.7128Z"
    fill="#1F5C94"/>
  <path
    d="M27.846 15.47C27.846 15.1045 27.846 14.7389 27.846 14.3734C27.846 14.2951 27.859 14.2559 27.9504 14.2559C28.1462 14.2689 28.342 14.2559 28.5379 14.282C28.9426 14.3342 29.1645 14.5692 29.1645 14.9739C29.1645 15.3525 28.9034 15.6266 28.5379 15.6658C28.4465 15.6789 28.342 15.6789 28.2507 15.6789C28.1723 15.6789 28.1462 15.705 28.1462 15.7833C28.1462 16.0575 28.1462 16.3186 28.1462 16.5927C28.1462 16.671 28.1332 16.7102 28.0418 16.7102C27.846 16.7102 27.846 16.7102 27.846 16.5144C27.846 16.1488 27.846 15.8094 27.846 15.47ZM28.1462 14.9609C28.1462 15.0783 28.1462 15.1958 28.1462 15.3133C28.1462 15.3656 28.1593 15.3917 28.2246 15.3917C28.3682 15.3917 28.4987 15.3786 28.6293 15.3264C28.7859 15.2611 28.8773 15.1306 28.8773 14.9347C28.8773 14.765 28.799 14.6606 28.6293 14.5953C28.4987 14.5431 28.3551 14.53 28.2115 14.53C28.1593 14.53 28.1462 14.5562 28.1462 14.5953C28.1593 14.7259 28.1462 14.8434 28.1462 14.9609Z"
    fill="#1F5C94"/>
  <path
    d="M34.9478 14.2559C35.1567 14.2559 35.3655 14.2559 35.5614 14.2559C35.6397 14.2559 35.6789 14.282 35.6658 14.3603C35.6658 14.3995 35.6658 14.4256 35.6658 14.4648C35.6658 14.517 35.6527 14.5431 35.5875 14.5431C35.4569 14.5431 35.3264 14.5431 35.2089 14.5431C35.1044 14.53 35.0914 14.5692 35.0914 14.6736C35.0914 15.3003 35.0914 15.9269 35.0914 16.5535C35.0914 16.658 35.0653 16.6971 34.9478 16.6971C34.752 16.6841 34.7781 16.7233 34.7781 16.5274C34.7781 15.9139 34.7781 15.2872 34.7781 14.6736C34.7781 14.5692 34.752 14.5431 34.6606 14.5562C34.5431 14.5692 34.4256 14.5562 34.295 14.5562C34.2298 14.5562 34.1906 14.5431 34.2037 14.4648C34.2037 14.4387 34.2037 14.4125 34.2037 14.3995C34.1906 14.3081 34.2167 14.2689 34.3211 14.2689C34.53 14.2689 34.7389 14.2559 34.9478 14.2559Z"
    fill="#1F5C94"/>
  <path
    d="M17.9896 11.5013C17.9634 11.8799 17.9504 12.2715 17.9243 12.6501C17.9243 12.7415 17.8982 12.7546 17.8068 12.7546C17.1671 12.7546 16.5274 12.7546 15.9008 12.7546C15.8094 12.7546 15.7963 12.7285 15.8094 12.6371C15.8486 12.3368 15.8747 12.0235 15.9138 11.7232C15.9269 11.671 15.9269 11.6188 15.94 11.5666C15.9791 11.188 16.0313 10.8224 16.0705 10.4439C16.1227 9.97389 16.1749 9.50391 16.2272 9.04699C16.2663 8.68146 16.3185 8.32898 16.3577 7.96344C16.3838 7.70234 16.3969 7.4543 16.436 7.1932C16.4621 6.95822 16.5144 6.72323 16.5274 6.47519C16.5796 6.17493 16.6057 5.86161 16.6449 5.5483C16.658 5.44386 16.6841 5.41775 16.7885 5.41775C17.5326 5.41775 18.2637 5.41775 19.0078 5.41775C19.0992 5.41775 19.1384 5.44386 19.1514 5.53524C19.1775 5.78328 19.2298 6.03132 19.2689 6.27936C19.2689 6.30547 19.2689 6.34464 19.2689 6.37075C19.3473 6.89294 19.4256 7.42819 19.5039 7.95039C19.5692 8.36814 19.6345 8.7859 19.6867 9.20365C19.765 8.90339 19.8172 8.59007 19.8695 8.28981C19.9347 7.88511 20.0131 7.46735 20.0783 7.06265C20.1175 6.80156 20.1697 6.54046 20.2089 6.27936C20.2611 6.01827 20.3003 5.75717 20.3525 5.49608C20.3655 5.4308 20.3916 5.40469 20.4569 5.40469C21.2141 5.40469 21.9843 5.40469 22.7415 5.40469C22.8198 5.40469 22.8329 5.4308 22.8329 5.49608C22.859 5.82245 22.8982 6.14882 22.9373 6.47519C23.0026 7.33681 23.094 8.19843 23.1854 9.0731C23.1984 9.1906 23.1984 9.32114 23.2115 9.43864C23.2507 9.80417 23.2898 10.1697 23.329 10.5222C23.3682 10.9008 23.4073 11.2924 23.4465 11.671C23.4726 11.9843 23.4987 12.2846 23.5379 12.5979C23.5509 12.6893 23.5379 12.7154 23.4334 12.7154C22.8198 12.7154 22.2063 12.7154 21.5927 12.7154C21.5144 12.7154 21.4883 12.7023 21.4883 12.611C21.4491 11.658 21.4099 10.705 21.3708 9.75195C21.3447 9.24281 21.3316 8.73368 21.2924 8.21148C21.2402 8.51174 21.1749 8.812 21.1227 9.12532C20.9138 10.3003 20.705 11.4621 20.483 12.6371C20.47 12.7023 20.4439 12.7285 20.3786 12.7285C19.8956 12.7285 19.4256 12.7285 18.9426 12.7285C18.8381 12.7285 18.8381 12.6762 18.8251 12.611C18.7728 12.2324 18.7076 11.8538 18.6554 11.4752C18.4987 10.3916 18.329 9.30809 18.1723 8.22454C18.1593 8.2637 18.1462 8.28981 18.1462 8.32897C18.1201 8.87728 18.094 9.42558 18.0679 9.98694C18.0287 10.5091 18.0026 11.0052 17.9896 11.5013Z"
    fill="#1F5C94"/>
  <path
    d="M44.752 11.0314C44.752 11.5405 44.752 12.0366 44.7389 12.5457C44.7389 12.7546 44.7389 12.7546 44.53 12.7546C44.0078 12.7546 43.4856 12.7546 42.9504 12.7546C42.846 12.7546 42.8068 12.7154 42.7676 12.624C42.6501 12.2585 42.5196 11.906 42.389 11.5405C42.376 11.5144 42.376 11.4883 42.3629 11.4622C42.0757 10.6397 41.7885 9.83031 41.5144 9.00785C41.4621 8.85119 41.4099 8.69454 41.3447 8.55093C41.3316 8.60315 41.3316 8.65537 41.3316 8.69453C41.3838 9.63448 41.4752 10.5614 41.4491 11.5013C41.4491 11.5144 41.4491 11.5274 41.4621 11.5405C41.4621 11.906 41.4491 12.2585 41.4621 12.624C41.4621 12.7285 41.436 12.7546 41.3316 12.7546C40.7833 12.7546 40.2219 12.7546 39.6736 12.7546C39.5822 12.7546 39.5561 12.7285 39.5561 12.6371C39.5561 12.0888 39.5561 11.5535 39.5561 11.0052C39.5561 10.953 39.5561 10.9139 39.5561 10.8616C39.5561 9.66059 39.5561 8.44649 39.5561 7.24545C39.5561 7.15407 39.5561 7.07574 39.5561 6.98435C39.5561 6.50132 39.5692 6.0183 39.5561 5.53527C39.5561 5.43083 39.5822 5.40472 39.6867 5.40472C40.235 5.40472 40.7702 5.40472 41.3185 5.40472C41.423 5.40472 41.4621 5.44388 41.4883 5.52221C41.5927 5.83553 41.7102 6.14884 41.8277 6.46216C42.2193 7.55877 42.624 8.65537 43.0157 9.75198C43.0418 9.71281 43.0418 9.67365 43.0287 9.63448C42.9896 9.25589 42.9504 8.89036 42.9243 8.51177C42.8721 7.93735 42.7937 7.34989 42.8068 6.77548C42.8068 6.65798 42.8068 6.55354 42.7937 6.43605C42.7937 6.13579 42.8068 5.83553 42.7937 5.52221C42.7937 5.43083 42.8198 5.39166 42.9112 5.39166C43.4726 5.39166 44.0339 5.39166 44.5953 5.39166C44.6867 5.39166 44.7128 5.41777 44.7128 5.50916C44.7128 6.03135 44.7128 6.55354 44.7128 7.07574C44.7128 7.1149 44.7128 7.15406 44.7259 7.20628C44.7259 7.23239 44.7259 7.2585 44.7259 7.28461C44.7259 8.49871 44.7259 9.69976 44.7259 10.9139C44.7389 10.9661 44.7389 11.0052 44.752 11.0314Z"
    fill="#1F5C94"/>
  <path
    d="M29.3734 11.7363C29.3734 12.0365 29.3603 12.3368 29.3734 12.6501C29.3734 12.7415 29.3473 12.7676 29.2559 12.7676C28.6684 12.7676 28.094 12.7676 27.5065 12.7676C27.4151 12.7676 27.389 12.7415 27.389 12.6501C27.389 12.2715 27.389 11.906 27.389 11.5274C27.389 11.4752 27.4021 11.436 27.4021 11.3838C27.4021 10.6919 27.4021 9.99999 27.4021 9.30809C27.4021 9.20365 27.4021 9.08616 27.389 8.98172C27.389 8.9295 27.4021 8.89033 27.4021 8.83811C27.4021 8.27675 27.4021 7.70234 27.4021 7.14098C27.4021 6.94516 27.4021 6.7624 27.389 6.56657C27.4151 6.22715 27.389 5.88772 27.389 5.5483C27.389 5.44386 27.4021 5.40469 27.5196 5.40469C28.2507 5.41775 28.9687 5.40469 29.6997 5.41775C30.1828 5.4308 30.6658 5.50913 31.1227 5.70495C31.7232 5.96605 32.0757 6.42297 32.2193 7.06265C32.2324 7.10182 32.2324 7.15404 32.2454 7.1932C32.2846 7.46735 32.2846 7.74151 32.2585 8.01566C32.1932 8.74673 31.9191 9.3342 31.201 9.63446C31.1488 9.66057 31.1358 9.67362 31.1619 9.72584C31.4099 10.235 31.658 10.7441 31.9191 11.2533C32.1279 11.671 32.3238 12.1018 32.5326 12.5196C32.5588 12.5849 32.5849 12.6371 32.611 12.7023C32.5849 12.7415 32.5457 12.7285 32.5196 12.7285C31.8668 12.7285 31.2141 12.7285 30.5744 12.7285C30.483 12.7285 30.4569 12.7023 30.4308 12.624C30.3264 12.3107 30.2089 12.0104 30.0914 11.7102C29.8695 11.0966 29.6475 10.483 29.4256 9.85639C29.4125 9.83028 29.4125 9.79112 29.3864 9.77806C29.3734 10.4569 29.3734 11.0966 29.3734 11.7363ZM29.3603 7.89817C29.3603 8.17232 29.3603 8.44647 29.3603 8.72062C29.3603 8.78589 29.3734 8.81201 29.4517 8.81201C29.9608 8.7859 30.2742 8.43341 30.2742 7.91122C30.2742 7.40208 29.9608 7.0496 29.4517 7.02349C29.3734 7.02349 29.3473 7.03655 29.3473 7.11488C29.3734 7.36292 29.3603 7.63707 29.3603 7.89817Z"
    fill="#1F5C94"/>
  <path
    d="M38.2768 11.0052C38.1332 11.3316 37.9765 11.6449 37.7546 11.9191C37.1932 12.624 36.4621 12.8982 35.5875 12.859C34.7389 12.8199 34.1384 12.3499 33.6815 11.658C33.5901 11.5274 33.5248 11.3708 33.4334 11.2272C33.4073 11.1619 33.3681 11.0836 33.342 11.0183C33.0418 10.2742 32.9765 9.49087 33.0157 8.69452C33.0418 8.19844 33.107 7.70236 33.2768 7.21933C33.4204 6.85379 33.5901 6.51437 33.8381 6.20105C34.8695 4.86946 36.6841 5.1175 37.5587 6.00523C37.859 6.30549 38.0809 6.64492 38.2637 7.01045C38.2637 7.02351 38.2637 7.02351 38.2637 7.03656C38.6292 7.93735 38.6554 8.86424 38.5509 9.80418C38.5248 10.2219 38.4204 10.6266 38.2768 11.0052ZM35.0653 9.04701C35.0392 9.41254 35.0653 9.76502 35.1305 10.1175C35.1828 10.3655 35.248 10.6266 35.4178 10.8355C35.6527 11.1097 36.0313 11.1097 36.2533 10.8225C36.3446 10.705 36.3969 10.5875 36.436 10.4439C36.5666 9.98696 36.6188 9.51698 36.5927 9.04701C36.6057 8.60314 36.5666 8.15928 36.436 7.72847C36.3969 7.59792 36.3316 7.46737 36.2533 7.34988C36.0313 7.06267 35.6919 7.04962 35.4439 7.31071C35.3655 7.38904 35.3133 7.49348 35.2742 7.59792C35.0914 8.06789 35.0653 8.56398 35.0653 9.04701Z"
    fill="#1F5C94"/>
  <path
    d="M49.5953 11.5927C49.5953 11.9452 49.5953 12.2976 49.5953 12.6501C49.5953 12.7285 49.5692 12.7546 49.4909 12.7546C48.329 12.7546 47.1802 12.7546 46.0183 12.7546C45.94 12.7546 45.9138 12.7285 45.9138 12.6501C45.9138 12.154 45.9138 11.658 45.9138 11.1749C45.9138 11.1227 45.9138 11.0835 45.9008 11.0313C45.9008 10.9922 45.9138 10.9661 45.9138 10.9269C45.9138 9.72584 45.9138 8.5248 45.9138 7.32375C45.9138 7.29764 45.9138 7.25848 45.9138 7.23237C45.9138 7.12793 45.9269 7.03655 45.9269 6.93211C45.9269 6.46213 45.9269 5.99216 45.9269 5.52219C45.9269 5.44386 45.94 5.40469 46.0313 5.40469C47.1932 5.40469 48.342 5.40469 49.5039 5.40469C49.5823 5.40469 49.6084 5.4308 49.5953 5.49608C49.5953 5.82245 49.5953 6.14882 49.5953 6.47519C49.5953 6.67101 49.5822 6.85378 49.5953 7.0496C49.5953 7.14099 49.5692 7.15404 49.4909 7.15404C48.9948 7.15404 48.4987 7.15404 48.0157 7.15404C47.9243 7.15404 47.8982 7.18015 47.8982 7.27153C47.8982 7.53263 47.8982 7.79373 47.8982 8.06788C47.8982 8.15926 47.9243 8.17232 48.0157 8.17232C48.4465 8.17232 48.8903 8.17232 49.3212 8.17232C49.4125 8.17232 49.4517 8.18537 49.4517 8.28981C49.4386 8.5248 49.4517 8.74673 49.4517 8.98172C49.4517 9.25587 49.4517 9.53002 49.4517 9.79112C49.4517 9.8825 49.4256 9.90861 49.3342 9.90861C48.8903 9.90861 48.4595 9.90861 48.0157 9.90861C47.9243 9.90861 47.8982 9.93472 47.9112 10.0261C47.9112 10.3264 47.9112 10.6136 47.9112 10.9138C47.9112 11.0183 47.9373 11.0313 48.0418 11.0313C48.5248 11.0313 49.0209 11.0313 49.5039 11.0313C49.5823 11.0313 49.6214 11.0444 49.6214 11.1358C49.5822 11.2794 49.5822 11.436 49.5953 11.5927Z"
    fill="#1F5C94"/>
  <path
    d="M54.6084 6.68407C54.6084 6.81462 54.5953 6.95822 54.6084 7.08877C54.6084 7.19321 54.5823 7.20626 54.4778 7.20626C54.1645 7.20626 53.8642 7.20626 53.5509 7.20626C53.4857 7.20626 53.4465 7.20627 53.4465 7.29765C53.4465 7.91123 53.4465 8.52481 53.4465 9.13838C53.4465 9.94778 53.4465 10.7572 53.4465 11.5666C53.4465 11.9191 53.4465 12.2846 53.4465 12.6371C53.4465 12.7285 53.4204 12.7546 53.329 12.7546C52.7415 12.7546 52.1541 12.7546 51.5535 12.7546C51.4622 12.7546 51.436 12.7285 51.436 12.6371C51.436 12.2846 51.436 11.9321 51.436 11.5927C51.436 11.5405 51.4491 11.5013 51.4491 11.4491C51.4491 10.705 51.4491 9.97389 51.4491 9.22976C51.4491 9.13838 51.4491 9.06005 51.436 8.96867C51.436 8.40731 51.436 7.84595 51.4491 7.28459C51.4491 7.20627 51.3969 7.20626 51.3447 7.20626C51.0575 7.20626 50.7572 7.20626 50.47 7.20626C50.3917 7.20626 50.3525 7.19321 50.3525 7.10183C50.3525 6.89295 50.3525 6.68407 50.3525 6.47519C50.3525 6.16188 50.3525 5.84856 50.3525 5.5483C50.3525 5.45692 50.3655 5.41776 50.47 5.41776C51.8016 5.41776 53.1332 5.41776 54.4517 5.41776C54.5561 5.41776 54.5692 5.44386 54.5692 5.5483C54.5953 5.92689 54.6084 6.30548 54.6084 6.68407Z"
    fill="#1F5C94"/>
  <path
    d="M26.2141 11.5274C26.2141 11.906 26.201 12.2716 26.2141 12.6501C26.2141 12.7415 26.188 12.7676 26.0966 12.7676C25.5222 12.7676 24.9347 12.7676 24.3603 12.7676C24.2689 12.7676 24.2428 12.7415 24.2428 12.6501C24.2428 12.3368 24.2428 12.0235 24.2428 11.7232C24.2428 11.5405 24.2428 11.3708 24.2428 11.188C24.2428 10.4961 24.2428 9.80419 24.2428 9.11228C24.2428 8.95562 24.2428 8.79896 24.2428 8.64231C24.2428 7.93735 24.2428 7.21933 24.2428 6.51437C24.2428 6.20105 24.2559 5.87468 24.2428 5.56136C24.2428 5.46998 24.2559 5.43082 24.3603 5.43082C24.9347 5.43082 25.5222 5.43082 26.0966 5.43082C26.201 5.43082 26.2141 5.46998 26.2141 5.56136C26.2141 5.90079 26.2141 6.24022 26.2141 6.5927C26.2141 6.95824 26.2141 7.32377 26.2141 7.70236C26.2141 8.13317 26.2141 8.56398 26.2141 9.00784C26.2141 9.49087 26.2141 9.9739 26.2141 10.4569C26.2141 10.7964 26.2141 11.1619 26.2141 11.5274Z"
    fill="#1F5C94"/>
  <path
    d="M8.25081 8.69452C8.23768 8.70765 8.26394 8.74704 8.22455 8.74704C8.22455 8.73391 8.22455 8.72078 8.22455 8.70765C8.23768 8.70765 8.25081 8.69452 8.25081 8.69452Z"
    fill="#1F5C94"/>
</svg>
