<svg width="64" height="11" viewBox="0 0 64 11" fill="none" xmlns="http://www.w3.org/2000/svg">
  <title>Mountfield</title>
  <g>
    <path
      d="M0 10.1711C0.186737 10.0503 0.373475 9.96391 0.543236 9.82576C0.662069 9.73942 0.780902 9.60127 0.814854 9.46313C0.865783 9.27317 0.865782 9.06595 0.865782 8.85873C0.899735 6.6311 0.916711 4.3862 0.950663 2.15857C0.950663 1.58872 0.933687 1.57145 0.407427 1.38149C0.203714 1.31242 0.0339523 1.19154 0.0679045 0.932514C0.0848806 0.673488 0.271618 0.518072 0.509284 0.518072C1.4939 0.500803 2.47851 0.518072 3.46313 0.518072C3.73475 0.518072 3.8366 0.742561 3.92149 0.967051C4.44775 2.3658 4.97401 3.74727 5.50027 5.14601C5.67003 5.59499 5.83979 6.04397 6.02653 6.56203C6.11141 6.40661 6.14536 6.303 6.19629 6.21666C6.85836 4.52435 7.5374 2.83204 8.19947 1.157C8.43713 0.552608 8.52202 0.483535 9.16711 0.483535C9.91406 0.483535 10.644 0.466266 11.391 0.500803C11.5607 0.500803 11.7814 0.621682 11.8833 0.75983C12.07 1.00159 11.9512 1.31242 11.6286 1.41603C11.1194 1.55418 11.0005 1.88228 11.0175 2.3658C11.0345 4.64523 11.0345 6.9074 11.0345 9.18683C11.0345 9.5322 11.1363 9.77396 11.4759 9.89484C11.6966 9.98118 11.8493 10.1366 11.7984 10.3956C11.7475 10.6719 11.5268 10.7755 11.2891 10.7755C10.3385 10.7755 9.37082 10.7755 8.42016 10.7755C8.18249 10.7755 8.01273 10.6546 7.9618 10.4302C7.8939 10.2057 7.99576 10.0157 8.19947 9.92937C8.58992 9.77396 8.69178 9.48039 8.6748 9.06595C8.65782 7.08008 8.65782 5.07694 8.65782 3.09107C8.65782 3.0738 8.64085 3.05653 8.6069 2.95292C8.53899 3.14288 8.48806 3.26375 8.43714 3.38463C7.75809 5.12875 7.07905 6.87286 6.4 8.61697C6.38302 8.66878 6.36605 8.72058 6.3321 8.75512C6.0435 9.44586 5.60212 9.65308 4.92308 9.37678C4.73634 9.30771 4.5496 9.06595 4.46472 8.876C3.90451 7.5636 3.36127 6.21666 2.83501 4.88699C2.59735 4.31713 2.37666 3.73 2.08806 3.16014C2.08806 3.21195 2.07109 3.26375 2.07109 3.33283C2.05411 5.05967 2.03714 6.78652 2.02016 8.51336C2.02016 8.68605 2.03714 8.876 2.03714 9.04868C2.05411 9.46313 2.22387 9.75669 2.6313 9.87757C2.88594 9.96391 3.0557 10.1193 2.9878 10.4302C2.91989 10.7237 2.6992 10.7928 2.42759 10.7928C1.8504 10.7928 1.27321 10.7755 0.712997 10.7928C0.424403 10.7928 0.186737 10.7237 0.0169761 10.4647C0 10.3784 0 10.2747 0 10.1711Z"
      fill="#E7240D"/>
    <path
      d="M59.3825 11C59.2467 10.9655 59.1279 10.9309 58.992 10.8964C57.6679 10.5165 57.0058 9.54945 56.7852 8.25432C56.5814 7.01099 56.8531 5.87127 57.7019 4.92151C58.5507 3.97175 60.0955 3.62638 61.182 4.31711C61.2159 4.35165 61.2668 4.35165 61.3517 4.38619C61.3687 4.31711 61.3857 4.28258 61.3857 4.23077C61.3857 3.59184 61.3857 2.93564 61.3857 2.29671C61.3857 1.93407 61.2669 1.65777 60.9443 1.43328C60.8255 1.34694 60.6897 1.15699 60.6897 1.01884C60.6897 0.897963 60.8764 0.759815 61.0292 0.70801C61.5724 0.518057 62.1157 0.328104 62.6589 0.189956C63.0833 0.0690774 63.2531 0.207225 63.321 0.656204C63.3549 0.897963 63.3719 1.13972 63.3719 1.38148C63.3719 3.72999 63.3719 6.0785 63.3719 8.44427C63.3719 9.13501 63.27 9.84302 64 10.2575C64 10.3611 64 10.4647 64 10.5683C63.7963 10.6546 63.6096 10.7755 63.3889 10.81C63.0493 10.8446 62.7098 10.8273 62.3533 10.8273C61.6403 10.8273 61.6403 10.8273 61.4875 10.1366C61.4875 10.1193 61.4536 10.1193 61.4196 10.0848C61.0462 10.6374 60.5029 10.8964 59.8748 11.0173C59.705 11 59.5353 11 59.3825 11ZM61.3687 7.32182H61.3517C61.3517 6.87284 61.3857 6.4066 61.3348 5.95762C61.2668 5.37049 60.9103 4.99058 60.4011 4.90424C59.9427 4.8179 59.4844 5.05966 59.2467 5.57771C59.0769 5.95762 58.9581 6.38933 58.8902 6.82104C58.7883 7.64992 58.7883 8.47881 59.2127 9.23862C59.6881 10.0675 60.7066 10.0848 61.148 9.25589C61.2669 9.01413 61.3178 8.72057 61.3517 8.44427C61.4027 8.06437 61.3687 7.70173 61.3687 7.32182Z"
      fill="#E7240D"/>
    <path
      d="M21.4409 11C21.4069 10.9827 21.373 10.9482 21.322 10.9482C20.3544 10.6892 19.8281 10.0848 19.7602 9.06594C19.7093 8.15071 19.7263 7.25275 19.7263 6.33752C19.7263 6.11303 19.7093 5.88854 19.7093 5.66405C19.7093 5.40503 19.6074 5.23234 19.4037 5.07693C19.0303 4.78336 19.0642 4.43799 19.5056 4.29985C19.9979 4.14443 20.5072 4.02355 21.0165 3.95448C21.4239 3.8854 21.6106 4.07536 21.6785 4.4898C21.7125 4.66248 21.7125 4.85244 21.7125 5.02512C21.7125 6.16484 21.7125 7.28729 21.7125 8.427C21.7125 8.68603 21.7295 8.94506 21.7804 9.18682C21.9502 9.91209 22.782 10.0848 23.3422 9.54945C23.5968 9.29043 23.7326 8.96233 23.7326 8.59969C23.7496 7.63266 23.7496 6.64836 23.7157 5.68132C23.7157 5.49137 23.5289 5.31869 23.4271 5.12873C23.3422 4.99058 23.1894 4.83517 23.2064 4.71429C23.2403 4.57614 23.3931 4.40346 23.5289 4.35165C24.0043 4.19624 24.4796 4.04082 24.9719 3.95448C25.4982 3.86814 25.7019 4.04082 25.7188 4.57614C25.7528 5.40503 25.7358 6.23391 25.7358 7.04553C25.7358 7.80534 25.7528 8.56515 25.7528 9.32496C25.7528 9.60126 25.8547 9.80848 26.1093 9.94663C26.33 10.0502 26.4318 10.2402 26.3639 10.4992C26.296 10.7582 26.0923 10.7928 25.8716 10.7928C25.4642 10.7928 25.0568 10.7928 24.6493 10.7928C24.157 10.7928 24.0212 10.6892 23.9194 10.2057C23.9024 10.1538 23.9024 10.0848 23.8685 9.9639C23.3592 10.4819 22.8159 10.8273 22.1539 10.9827C21.9332 11 21.6955 11 21.4409 11Z"
      fill="#E7240D"/>
    <path
      d="M15.1257 11C14.973 10.9655 14.8032 10.9309 14.6504 10.8964C12.9698 10.5337 11.9173 9.1868 11.9512 7.44269C11.9682 5.76765 13.1565 4.33437 14.7692 4.02354C16.7894 3.64364 18.6058 4.83516 18.9623 6.80376C19.3358 8.77236 18.0117 10.6546 16.0594 10.9482C15.9576 10.9655 15.8557 11 15.7539 11.0173C15.5501 11 15.3295 11 15.1257 11ZM16.9761 7.47723C16.9422 7.47723 16.9252 7.45996 16.8913 7.45996C16.8913 6.8383 16.8403 6.21663 16.5517 5.64678C16.331 5.23233 16.0255 4.95604 15.5332 4.93877C15.0239 4.9215 14.6504 5.16326 14.4637 5.61224C14.2939 6.00941 14.1751 6.42385 14.1072 6.85557C14.0053 7.61538 14.0562 8.37519 14.3109 9.10046C14.4637 9.51491 14.7183 9.87754 15.1767 9.99842C15.7539 10.1538 16.331 9.89481 16.5687 9.25588C16.7554 8.68602 16.8403 8.08162 16.9761 7.47723Z"
      fill="#E7240D"/>
    <path
      d="M49.808 11C49.6552 10.9654 49.5024 10.9309 49.3496 10.8964C47.0918 10.4474 46.0053 8.04708 47.0918 5.90579C47.9066 4.29983 49.9268 3.50548 51.5904 4.12714C52.5241 4.48978 53.0504 5.23232 52.9485 6.13028C52.8806 6.73468 52.5241 7.14912 52.0488 7.45995C51.4037 7.8744 50.6737 8.02981 49.9268 8.16796C49.6042 8.21976 49.2817 8.27157 48.9592 8.34064C49.044 9.5149 50.3003 10.2229 51.3528 9.67031C51.6923 9.49763 51.9979 9.20407 52.3034 8.94504C52.5072 8.77235 52.7109 8.5824 52.9655 8.80689C53.2202 9.01411 53.1183 9.27314 52.9655 9.49763C52.4393 10.3092 51.6584 10.7237 50.7586 10.8964C50.6568 10.9136 50.5549 10.9482 50.47 10.9654C50.2324 11 50.0286 11 49.808 11ZM48.8064 7.52903C49.3666 7.33907 49.8589 7.20093 50.3003 6.97644C50.5379 6.85556 50.7416 6.6138 50.8775 6.38931C51.166 5.90579 51.0472 5.24959 50.6737 5.00783C50.3003 4.74881 49.774 4.90422 49.3836 5.37047C48.9252 5.97487 48.8573 6.68287 48.8064 7.52903Z"
      fill="#E7240D"/>
    <path
      d="M41.9989 2.15118e-05C42.1517 0.0518269 42.2875 0.103632 42.4403 0.155438C42.7798 0.310854 43.0175 0.552612 43.0345 0.932518C43.0514 1.26062 42.9326 1.53691 42.644 1.7096C42.3724 1.86501 42.1178 1.7614 41.8971 1.58872C41.5236 1.31242 41.4217 1.32969 41.4048 1.79594C41.3708 2.52121 41.3878 3.24649 41.3878 4.0063C41.6255 4.0063 41.8801 4.0063 42.1178 4.0063C42.4743 4.02357 42.661 4.21352 42.661 4.55889C42.644 4.88699 42.4743 5.05968 42.1178 5.07694C41.3708 5.09421 41.3708 5.09421 41.3708 5.85403C41.3708 6.94194 41.3708 8.02985 41.3708 9.11776C41.3708 9.4804 41.4387 9.79123 41.7952 9.99845C41.914 10.0675 41.9819 10.3093 41.9819 10.4647C41.9819 10.6892 41.7782 10.7755 41.5745 10.7755C40.7766 10.7755 39.9957 10.7928 39.1979 10.7583C39.0451 10.7583 38.8584 10.6028 38.7735 10.4647C38.6716 10.2747 38.7735 10.0675 38.9602 9.96392C39.2828 9.79123 39.3676 9.51494 39.3676 9.16957C39.3676 7.8917 39.3676 6.61384 39.3676 5.3187C39.3676 5.24963 39.3507 5.18056 39.3507 5.05968C38.9432 5.04241 38.4509 5.14602 38.4849 4.47255C38.5019 4.10991 38.6377 4.02357 39.3337 3.9545C39.3676 3.45371 39.3507 2.95293 39.4355 2.45214C39.5034 2.00316 39.6223 1.55418 39.792 1.15701C40.0297 0.587149 40.505 0.24178 41.0992 0.0690953C41.1841 0.0518269 41.269 2.15118e-05 41.3538 -0.0345154C41.5915 2.15118e-05 41.7952 2.15118e-05 41.9989 2.15118e-05Z"
      fill="#E7240D"/>
    <path
      d="M29.182 4.92151C29.5894 4.4898 29.9968 4.14443 30.54 4.02355C32.2037 3.64364 33.443 4.57614 33.4939 6.32025C33.5278 7.28728 33.5109 8.27159 33.4939 9.23862C33.4939 9.58399 33.5448 9.87755 33.8674 10.0848C33.9692 10.1538 34.0202 10.3783 34.0032 10.4992C33.9692 10.6201 33.7995 10.7928 33.6976 10.7928C32.8997 10.8273 32.1188 10.8273 31.3209 10.7928C31.2021 10.7928 31.0324 10.6374 30.9984 10.5165C30.9645 10.3956 31.0324 10.1711 31.1342 10.102C31.4907 9.87755 31.5247 9.56672 31.5247 9.20408C31.5247 8.32339 31.5247 7.4427 31.5247 6.56201C31.5247 6.35479 31.5077 6.1303 31.4737 5.92308C31.3889 5.45683 31.1512 5.1978 30.7777 5.12873C30.3024 5.04239 29.861 5.1978 29.6743 5.59498C29.5385 5.90581 29.4366 6.25118 29.4196 6.59655C29.3857 7.49451 29.4026 8.39247 29.4026 9.29042C29.4026 9.60126 29.4536 9.86028 29.7591 10.0502C29.861 10.1193 29.9629 10.3611 29.9289 10.4647C29.861 10.6028 29.6743 10.7582 29.5215 10.7755C28.7915 10.81 28.0615 10.81 27.3316 10.7755C27.1788 10.7755 26.9581 10.6201 26.9241 10.4992C26.8902 10.3783 26.992 10.1193 27.1109 10.033C27.3316 9.86028 27.4164 9.65306 27.4164 9.37677C27.4164 8.27159 27.4164 7.14914 27.4164 6.04396C27.4164 5.71586 27.3146 5.45683 27.009 5.28414C26.7204 5.12873 26.6865 4.85243 26.9411 4.64521C27.4334 4.23077 28.0276 4.02355 28.6557 3.95447C28.8934 3.91994 29.0122 4.10989 29.0631 4.31711C29.0801 4.4898 29.131 4.67975 29.182 4.92151Z"
      fill="#E7240D"/>
    <path
      d="M55.8175 5.09419C55.8175 6.42386 55.8175 7.7708 55.8175 9.10047C55.8175 9.48037 55.8854 9.79121 56.2419 10.0157C56.3607 10.0848 56.4286 10.3611 56.3947 10.4992C56.3607 10.6201 56.14 10.7755 56.0042 10.7755C55.2064 10.81 54.4085 10.81 53.5936 10.7755C53.4578 10.7755 53.2711 10.6201 53.2032 10.4819C53.1013 10.292 53.1862 10.0675 53.3899 9.98116C53.7294 9.82574 53.7973 9.53218 53.7973 9.20408C53.7973 6.89011 53.7973 4.55887 53.7973 2.2449C53.7973 1.88226 53.6615 1.62323 53.356 1.41601C53.2371 1.32967 53.1013 1.13971 53.1013 1.00157C53.1013 0.880688 53.2881 0.725272 53.4239 0.673467C53.9671 0.483514 54.5103 0.31083 55.0536 0.155414C55.461 0.0518028 55.6308 0.172682 55.7156 0.604393C55.7496 0.828883 55.7666 1.05337 55.7666 1.26059C55.8175 2.55573 55.8175 3.81632 55.8175 5.09419Z"
      fill="#E7240D"/>
    <path
      d="M36.6854 5.09419C36.6684 5.23234 36.6684 5.30141 36.6684 5.38776C36.6684 6.56201 36.6684 7.73626 36.6684 8.91052C36.6684 9.60126 36.9231 9.82575 37.5851 9.75667C37.9586 9.72214 38.1793 9.87755 38.2133 10.2057C38.2642 10.551 38.0774 10.7928 37.687 10.81C36.8891 10.8273 36.0912 10.8273 35.2764 10.7928C34.8011 10.7755 34.6483 10.5338 34.6483 9.91209C34.6483 8.47881 34.6483 7.02826 34.6483 5.59498C34.6483 5.45683 34.6483 5.31868 34.6483 5.16327C34.4446 5.16327 34.2748 5.16327 34.105 5.16327C33.8334 5.146 33.6976 4.99058 33.6467 4.73156C33.6127 4.45526 33.6806 4.24804 33.9692 4.17897C33.9862 4.17897 34.0032 4.1617 34.0371 4.1617C34.869 4.10989 35.1406 3.5573 35.2424 2.83203C35.2764 2.59027 35.3103 2.34851 35.3782 2.12402C35.4801 1.76138 35.7517 1.6405 36.2101 1.70958C36.5496 1.76138 36.5835 1.98587 36.5835 2.26217C36.5835 2.8493 36.5835 3.41915 36.5835 4.04082C36.9061 4.04082 37.1947 4.04082 37.4833 4.04082C37.9077 4.04082 38.1114 4.2135 38.0944 4.57614C38.0944 4.93878 37.8907 5.09419 37.4663 5.11146C37.2456 5.09419 36.974 5.09419 36.6854 5.09419Z"
      fill="#E7240D"/>
    <path
      d="M45.8695 7.28726C45.8695 7.99527 45.8695 8.70327 45.8695 9.41128C45.8695 9.67031 45.9374 9.87753 46.1751 10.0157C46.3618 10.1193 46.4806 10.3092 46.3618 10.4819C46.2769 10.6201 46.0902 10.7755 45.9544 10.7755C45.2244 10.81 44.4775 10.7928 43.7475 10.7755C43.6117 10.7755 43.4249 10.6373 43.357 10.4992C43.2552 10.3265 43.3401 10.1193 43.5438 10.0157C43.7814 9.89479 43.8663 9.68757 43.8663 9.41128C43.8663 8.28883 43.8493 7.16638 43.8493 6.04393C43.8493 5.69856 43.7135 5.4568 43.408 5.26685C43.2721 5.19778 43.1194 5.00782 43.1363 4.86968C43.1363 4.73153 43.3061 4.54158 43.4419 4.48977C44.0191 4.28255 44.6133 4.10986 45.1905 3.97172C45.496 3.90264 45.6997 4.07533 45.7507 4.36889C45.8016 4.66246 45.8525 4.97329 45.8525 5.28412C45.8695 5.97486 45.8525 6.63106 45.8695 7.28726C45.8525 7.28726 45.8525 7.28726 45.8695 7.28726Z"
      fill="#E7240D"/>
    <path
      d="M44.7321 0.897955C45.4281 0.897955 45.9034 1.3642 45.9034 1.98587C45.9034 2.64207 45.3602 3.12558 44.6472 3.10832C44.0021 3.09105 43.5098 2.64207 43.5098 2.05494C43.5098 1.38147 44.0361 0.880687 44.7321 0.897955Z"
      fill="#E7240D"/>
  </g>
</svg>
