<svg width="68" height="13" fill="none" xmlns="http://www.w3.org/2000/svg">
  <path
    d="M35.046 3.25h-3.36V12h-2.504V3.25h-3.367V1.138h9.231V3.25zm5.26-2.112h-2.504V12h2.504V1.14zm27.565 5.43a5.668 5.668 0 01-.423 2.216 5.705 5.705 0 01-1.254 1.88 5.94 5.94 0 01-4.072 1.613 5.94 5.94 0 01-4.073-1.612 5.655 5.655 0 01-1.266-1.877 5.62 5.62 0 01-.425-2.22 5.59 5.59 0 01.41-2.216 5.627 5.627 0 011.252-1.88A5.94 5.94 0 0162.093.862a5.94 5.94 0 014.072 1.612 5.65 5.65 0 011.275 1.875c.293.704.44 1.46.43 2.22zm-9.009 0a3.552 3.552 0 00.957 2.491 3.174 3.174 0 002.292.97 3.195 3.195 0 002.292-.97c.628-.677.968-1.57.95-2.49a3.551 3.551 0 00-.95-2.505 3.173 3.173 0 00-2.292-.97 3.196 3.196 0 00-2.292.97 3.551 3.551 0 00-.957 2.505zm-34.285 0a5.668 5.668 0 01-.422 2.216 5.707 5.707 0 01-1.254 1.88 5.94 5.94 0 01-4.073 1.613 5.94 5.94 0 01-4.072-1.612 5.655 5.655 0 01-1.266-1.877 5.62 5.62 0 01-.425-2.22 5.59 5.59 0 01.423-2.219 5.627 5.627 0 011.268-1.876A5.94 5.94 0 0118.828.86a5.94 5.94 0 014.073 1.612A5.65 5.65 0 0124.16 4.35a5.61 5.61 0 01.417 2.218zm-9.008 0a3.552 3.552 0 00.957 2.491 3.174 3.174 0 002.292.97 3.195 3.195 0 002.291-.97 3.55 3.55 0 00.936-2.49 3.55 3.55 0 00-.936-2.505 3.174 3.174 0 00-2.291-.97 3.196 3.196 0 00-2.292.97 3.551 3.551 0 00-.957 2.505zm-7.598-5.43v6.78L6.64 6.09 4.568 3.236l-.446-.606a6.614 6.614 0 00-.44-.528 3.553 3.553 0 00-1.165-.835 3.161 3.161 0 00-2.058-.129V12h2.504V5.22l1.331 1.827L6.366 9.9l.447.607c.135.183.281.357.438.52a3.54 3.54 0 001.166.843c.652.27 1.377.316 2.058.128V1.14H7.97zm43.293 0v6.78L49.933 6.09l-2.072-2.855-.446-.606a6.616 6.616 0 00-.44-.528 3.553 3.553 0 00-1.186-.835 3.161 3.161 0 00-2.03-.129V12h2.497V5.22l1.331 1.827L49.66 9.9l.446.607c.135.183.282.357.439.52a3.54 3.54 0 001.165.843c.652.27 1.377.316 2.058.128V1.14h-2.504z"
    fill="#1D3650"/>
</svg>
