<svg xmlns="http://www.w3.org/2000/svg" width="400" height="99.375">
  <g fill-rule="evenodd">
    <path
      d="M178.47.289l-38.446.045-.097.875c-.115 1.042-.927 12.304-.927 12.862 0 .283.147.447.542.605.298.119 1.216.547 2.041.952.825.405 4.725 2.298 8.667 4.208a3596.87 3596.87 0 018.366 4.061l1.199.59-.081 1.131c-.044.623-.488 10.057-.987 20.965-.498 10.909-.954 20.676-1.013 21.705l-.107 1.87-1.355.867a41.878 41.878 0 01-2.105 1.269 12.14 12.14 0 00-1.25.778c-.275.207-1.475.957-2.667 1.668-1.192.71-2.405 1.472-2.697 1.692-.292.221-.724.475-.962.565-.237.09-.973.528-1.636.973a53.422 53.422 0 01-2.455 1.532 55.752 55.752 0 00-2.571 1.611c-.726.488-1.38.887-1.452.887-.073 0-.758.408-1.523.907l-1.391.906-.278 4.802a457.619 457.619 0 00-.38 7.593L134.804 99h60.824c68.954 0 65.092.086 70.539-1.58.779-.238 1.797-.538 2.262-.667.792-.219 2.359-.947 4.913-2.283 5.983-3.13 10.653-9.095 13.219-16.888 2.21-6.71.638-17.705-3.293-23.041-.422-.573-.768-1.109-.768-1.191 0-.199-3.492-3.683-3.691-3.683-.086 0-.547-.29-1.024-.643a16.991 16.991 0 00-1.576-1.03l-.707-.387.645-.429c1.595-1.059 5.673-5.37 6.386-6.751.186-.361.445-.762.575-.892.358-.358 1.593-2.655 2.033-3.783 2.012-5.148 2.21-6.029 2.313-10.276.103-4.256-.486-7.383-2.02-10.735-.239-.521-.434-1.033-.434-1.136-.003-1.271-4.934-7.865-6.5-8.69a4.302 4.302 0 01-.782-.565c-1.286-1.215-5.306-3.03-8.237-3.719l-1.564-.368-25.5-.009c-14.025-.005-42.801.011-63.947.035M40.333.582c-2.291.278-4.137.659-6.555 1.352-1.084.311-2.048.566-2.141.566-.706 0-7.144 3.011-8.677 4.058-.574.392-1.281.83-1.572.975-3.478 1.725-11.36 9.796-13.772 14.103a428.44 428.44 0 01-1.348 2.367c-.54.943-1.114 2.059-1.276 2.481a75.848 75.848 0 01-1.049 2.471c-1.316 2.972-2.515 7.529-3.021 11.48C.596 42.987 0 54.086 0 57.62c0 5.177.643 8.865 2.575 14.76.695 2.122 2.835 6.328 4.438 8.723 7.189 10.741 18.325 17.001 31.57 17.747 5.563.314 55.604.102 57.917-.245 4.481-.671 8.876-1.922 12.167-3.462.962-.45 2.065-.964 2.451-1.142.385-.177 1.323-.719 2.083-1.204.76-.485 1.57-.978 1.799-1.096.229-.119.942-.622 1.583-1.12a50.154 50.154 0 011.755-1.305c1.144-.779 6.471-5.957 6.489-6.308.004-.063.388-.551.854-1.083 1.819-2.076 6.157-9.411 6.733-11.385.067-.229.443-1.317.836-2.417.994-2.782 1.534-4.867 1.835-7.094 2.011-14.862 1.481-27.337-1.466-34.489a161.01 161.01 0 01-1.037-2.583c-.381-.989-1.759-3.6-2.155-4.084-.113-.137-.357-.55-.544-.916-3.23-6.366-13.585-14.46-21.216-16.586-3.508-.977-4.216-1.156-5.5-1.39C99.948.355 98.74.333 70.298.351 48.562.365 41.681.418 40.333.582M302.768.471c-.046.075-.163 2.531-.26 5.458-.096 2.927-.223 6.039-.281 6.917l-.107 1.595 3.982 2c6.356 3.191 16.971 8.577 17.038 8.644.077.076-.41 10.416-1.399 29.748-.415 8.113-.752 14.836-.748 14.941.01.262-1.164.982-3.826 2.347A469.773 469.773 0 00312 74.829a508.789 508.789 0 01-4.583 2.414A77.158 77.158 0 00305 78.535c-.72.416-2.551 1.378-6.667 3.502a89.359 89.359 0 00-2.625 1.4l-.708.41v1.912c0 1.767-.37 9.513-.579 12.116l-.09 1.125H394.476l.094-.875c.114-1.063.38-6.997.518-11.542.055-1.833.114-3.483.131-3.666.024-.262-.289-.497-1.469-1.102a2527.41 2527.41 0 01-8.833-4.572c-5.657-2.938-7.951-4.119-10.167-5.233l-2.333-1.172.045-2.294c.053-2.637 2.186-43.023 2.289-43.331.037-.112.278-.255.534-.318s1.615-.665 3.021-1.338 2.619-1.224 2.696-1.224c.077 0 1.311-.562 2.743-1.25 1.431-.687 2.669-1.25 2.751-1.25.082 0 1.224-.519 2.538-1.154 1.314-.634 2.779-1.307 3.256-1.495.476-.188 1.45-.635 2.163-.993a61.951 61.951 0 013.143-1.427l1.847-.774.204-3.87c.112-2.128.249-5.201.304-6.828l.101-2.959h-48.6c-26.729 0-48.637.062-48.684.138m-35.935 3.695c8.68.998 14.529 7.137 16.673 17.501 1.81 8.749-3.979 19.516-13.389 24.902-2.433 1.393-3.444 2.008-3.447 2.098-.001.045 1.253.457 2.789.914 9.61 2.86 13.889 8.931 14.16 20.093.283 11.666-7.527 21.407-19.507 24.333-4.352 1.062.222.993-65.451.993h-59.828l.003-.875c.004-1.616.493-8.02.621-8.144.118-.114 2.382-1.525 5.71-3.558a2060.12 2060.12 0 007.666-4.72c.963-.595 2.575-1.588 3.584-2.205 4.845-2.965 4.996-3.076 5.041-3.686.034-.473.423-8.968 1.376-30.062.091-2.017.277-6.554.413-10.083.135-3.53.292-7.132.349-8.007l.102-1.589-3.474-1.691c-1.911-.93-6.512-3.163-10.224-4.962-3.713-1.798-6.81-3.33-6.884-3.403-.121-.121.067-4.229.311-6.806l.099-1.042 60.446-.042c33.244-.023 60.67-.06 60.945-.082.275-.022 1.137.033 1.916.123m-165.404.379c13.575 2.422 23.697 10.589 28.454 22.955 2.726 7.088 3.081 12.288 1.949 28.587-1.384 19.932-17.12 36.617-36.534 38.736-2.675.292-57.234.235-59.466-.063C18.736 92.484 6.137 79.446 4.085 61.907c-.393-3.362 0-15.499.675-20.824C7.254 21.405 23.156 5.759 42.167 4.278c2.947-.229 57.866.018 59.262.267m294.505 2.247a114.052 114.052 0 01-.209 3.567l-.098 1.108-1.355.586c-1.428.618-4.516 2.023-7.851 3.571-1.097.51-2.71 1.244-3.583 1.632a542.32 542.32 0 00-4.755 2.161 659.04 659.04 0 01-4.991 2.269c-1.004.447-1.896.884-1.982.97-.147.147-1.067 16.446-1.69 29.927-.153 3.3-.447 9.225-.654 13.167-.207 3.942-.332 7.218-.279 7.282.053.063 5.196 2.752 11.43 5.975 6.233 3.223 11.363 5.888 11.399 5.923.077.073-.274 7.86-.418 9.278l-.097.959H344.66c-25.377 0-46.174-.057-46.214-.125-.131-.221.345-8.733.497-8.885.08-.08 2.057-1.149 4.393-2.376 3.742-1.965 6.168-3.243 11.914-6.278l4.417-2.33a361.072 361.072 0 003.945-2.106l1.028-.569.098-1.04c.09-.966.571-10.478 1.174-23.208.138-2.933.488-9.855.776-15.381.288-5.526.494-10.073.459-10.105-.035-.032-4.714-2.402-10.397-5.266s-10.421-5.291-10.528-5.394c-.18-.173 0-6.922.202-7.562.052-.166 9.167-.209 44.843-.209h44.778l-.111 2.459m-329.71 6.955c-4.507.817-8.103 3.528-10.12 7.628-1.512 3.072-1.441 2.528-2.109 16.125-.187 3.804-.637 12.504-1.001 19.333-.861 16.194-.861 16.226.29 19 2.289 5.52 6.359 8.002 13.118 7.999 6.412-.002 10.453-2.158 13.435-7.165 1.612-2.709 1.704-3.393 2.494-18.584 1.299-24.948 1.545-30.475 1.448-32.416-.429-8.502-8.013-13.652-17.555-11.92m7.074 3.825C77.547 18.703 80 22.254 80 27.274c0 3.027-2.086 42.127-2.353 44.107-.513 3.809-3.818 7.462-7.505 8.296-5.829 1.318-10.946-.452-12.882-4.456-1.268-2.622-1.252-2.011-.456-17.739.386-7.644.893-17.724 1.126-22.399.517-10.402.73-11.413 2.963-14.101 2.545-3.065 8.034-4.574 12.405-3.41m135.534 2.877c-.001.074-.226 4.184-.499 9.134-.274 4.95-.499 9.432-.499 9.959l-.001.958 8.209-.003c4.514-.001 8.903-.076 9.752-.165 11.731-1.236 13.883-16.357 2.789-19.601-1.077-.316-19.748-.581-19.751-.282m19.209 4.176c3.535 1.103 4.896 4.718 3.122 8.292-.924 1.861-2.625 3.035-5.076 3.504-1.733.332-14.255.364-14.252.037.001-.114.15-2.796.33-5.958.181-3.163.33-5.887.332-6.054.005-.497 13.891-.336 15.544.179M207 54.079c0 .969-.795 17.985-.905 19.379l-.082 1.042 8.368-.001c8.898 0 10.061-.079 12.286-.829 8.779-2.96 10.055-15.302 1.979-19.137-2.33-1.107-2.132-1.089-12.354-1.156L207 53.315v.764m176.417-.505c-7.8 1.985-8.97 13.107-1.742 16.557 5.802 2.769 12.165-1.393 12.156-7.95-.008-5.735-5.115-9.956-10.414-8.607m4.263 2.259c4.205 2.101 5.504 6.421 3.048 10.131-4.617 6.971-14.848.673-11.16-6.87 1.524-3.116 5.336-4.649 8.112-3.261m-161.43 1.819c4.336 1.743 5.288 7.306 1.841 10.756-1.94 1.942-3.591 2.251-12.049 2.255l-6.042.004.002-.459c.001-.252.15-3.158.331-6.458.181-3.3.331-6.134.332-6.297.003-.536 14.207-.355 15.585.199m157.458-.032l-1.875.058v8.989h1.834v-3.352l.766.051.766.051 1.047 1.666 1.048 1.667 1.186.049c.653.027 1.187.003 1.187-.053 0-.173-.35-.778-1.275-2.203-1.058-1.629-1.025-1.432-.31-1.853 1.467-.866 1.678-2.781.449-4.08-.897-.948-1.589-1.09-4.823-.99m3.531 2.368c.742.82-.319 1.512-2.317 1.512h-1.255V59.667h1.641c1.408 0 1.681.045 1.931.321"
      fill="#040404"/>
    <path
      d="M42.75 4.439C22.059 6.187 5.912 22.82 4.67 43.667c-1.01 16.967-.781 20.549 1.763 27.482 4.622 12.597 15.907 21.717 28.996 23.433 2.89.378 57.926.377 60.817-.002 16.464-2.158 30.957-15.708 34.49-32.247 1.315-6.155 2.016-21.867 1.189-26.666-2.879-16.713-14.526-28.43-30.842-31.027-1.072-.171-56.433-.361-58.333-.201m100.855.934c-.195 2.03-.48 6.474-.418 6.531.035.032 3.475 1.711 7.646 3.732 4.171 2.021 8.503 4.129 9.626 4.684 1.123.555 2.305 1.119 2.627 1.254.815.34.797.108.507 6.365-.849 18.365-1.279 28.062-1.503 33.894-.14 3.621-.302 7.499-.361 8.619l-.107 2.034-2.019 1.235c-1.111.678-5.882 3.618-10.603 6.532a2149.084 2149.084 0 01-9.041 5.564c-.253.147-.459.415-.462.6a259.69 259.69 0 01-.246 4c-.133 2.016-.244 3.836-.246 4.043l-.005.376 60.625-.043 60.625-.043 1.833-.388c15.214-3.218 23.55-15.042 20.943-29.703-1.468-8.258-5.852-12.832-14.602-15.234-2.321-.638-2.388-.711-1.22-1.343 13.236-7.156 18.896-18.066 15.355-29.596-2.225-7.245-6.632-11.876-13.046-13.708l-1.263-.361-62.272-.044-62.272-.043-.101 1.043m163.006-.331c-.071.42-.219 3.248-.356 6.843-.003.075 4.683 2.499 10.412 5.388 5.729 2.888 10.474 5.308 10.545 5.377.186.179-.9 22.737-2.311 48.046l-.109 1.946-2.604 1.372c-1.433.755-3.805 2.007-5.271 2.782-1.467.776-3.417 1.805-4.334 2.288-.916.483-2.791 1.474-4.166 2.203-1.375.729-4.038 2.136-5.917 3.126a814.034 814.034 0 00-3.45 1.824c-.072.052-.467 8.623-.4 8.691.04.039 20.753.072 46.029.072h45.958l.097-1.375c.27-3.835.444-8.512.322-8.624-.077-.07-1.339-.745-2.806-1.501a5394.48 5394.48 0 01-10-5.166 4670.6 4670.6 0 00-6.122-3.156l-3.956-2.035.089-1.447c.087-1.399 1.502-28.465 1.984-37.946.131-2.567.282-5.904.336-7.417.054-1.512.134-2.98.178-3.262.086-.563-.248-.388 7.491-3.903 1.65-.749 3.898-1.78 4.995-2.291 1.098-.51 2.71-1.245 3.584-1.633 2.044-.907 7.239-3.276 8.034-3.663.697-.339.684-.27.898-4.873l.103-2.208h-89.16l-.093.542M74.417 13.726c5.992 1.634 10.031 7.476 9.638 13.941-.083 1.371-1.3 24.652-1.625 31.083a901.11 901.11 0 00-.349 7.5c-.29 7.416-1.115 10.009-4.225 13.283-3.298 3.472-6.173 4.537-11.972 4.436-5.49-.095-8.396-1.452-11.18-5.219-2.521-3.41-2.728-4.983-2.142-16.25.237-4.538.546-10.763.688-13.833.541-11.724 1.095-21.795 1.26-22.916a14.627 14.627 0 0111.323-12.167c1.514-.337 7.171-.243 8.584.142m153.95 6.789c9.427 1.939 10.172 15.788 1.028 19.115-2.541.924-2.467.918-12.437.992l-9.291.069v-.649c0-.358.072-1.994.161-3.638.089-1.643.278-5.612.42-8.821.142-3.208.299-6.152.349-6.541l.09-.709h9.398c6.132 0 9.706.063 10.282.182m-1.284 33.204c10.768 3.791 9.041 18.539-2.416 20.636-.957.175-3.302.228-10 .228h-8.75l.038-1.5c.064-2.569.898-19.488.971-19.715.055-.172 1.905-.205 9.446-.166l9.378.048 1.333.469"
      fill="#fc7414"/>
    <path
      d="M57.529 4.292c7.119.024 18.819.024 26 0 7.18-.024 1.354-.044-12.946-.044s-20.174.02-13.054.044m86.029.132c-.055.141-.052.304.005.361.057.057.104-.021.104-.173 0-.258 2.178-.281 30.458-.32l30.458-.043-30.463-.041c-27.328-.037-30.474-.015-30.562.216M306.379 6.5c0 .412.032.581.072.375.04-.206.04-.544 0-.75-.04-.206-.072-.038-.072.375m-29.046 2.75c.311.321.603.583.649.583.046 0-.171-.262-.482-.583-.311-.321-.603-.583-.649-.583-.046 0 .171.262.482.583m28.876.667c.002.366.036.497.076.289a1.83 1.83 0 00-.004-.666c-.042-.16-.074.01-.072.377M68.875 13.456c.527.034 1.39.034 1.917 0 .527-.033.095-.06-.959-.06s-1.485.027-.958.06m94.778 9.002c.08.576.092.587.147.147.033-.264-.006-.545-.087-.625-.084-.084-.109.12-.06.478m44.889.625c.002.367.036.497.076.29.04-.207.038-.507-.003-.667-.042-.159-.075.011-.073.377m24.291-.198c0 .029.244.273.542.542l.542.49-.49-.542c-.456-.505-.594-.618-.594-.49M163.539 26.5c0 .321.034.452.076.292a1.37 1.37 0 000-.584c-.042-.16-.076-.029-.076.292m-79.664 1.917c.002.366.036.497.076.289.04-.207.039-.507-.003-.666-.042-.16-.074.01-.073.377m79.497 1.916c0 .321.034.452.076.292.042-.16.042-.423 0-.583-.042-.161-.076-.03-.076.291M83.709 31.75c.002.367.036.497.076.29a1.834 1.834 0 00-.004-.667c-.042-.159-.074.01-.072.377M163.205 34c0 .321.035.452.077.292a1.402 1.402 0 000-.584c-.042-.16-.077-.029-.077.292m-109.33 2.75c.002.367.036.497.076.29.04-.208.039-.508-.003-.667-.042-.159-.074.01-.073.377m272.664-.083c0 .32.034.452.076.291.042-.16.042-.423 0-.583-.042-.16-.076-.029-.076.292m-272.83 3.416c.002.367.036.497.076.29a1.835 1.835 0 00-.004-.667c-.042-.159-.074.011-.072.377m272.666 0c.002.367.036.497.076.29.04-.207.039-.507-.003-.667-.042-.159-.074.011-.073.377m-194.003 3.25c0 .321.034.452.076.292.042-.16.042-.423 0-.583-.042-.161-.076-.03-.076.291m193.837.084c.002.366.036.497.076.289a1.83 1.83 0 00-.004-.666c-.042-.16-.074.01-.072.377m-272.67.416c0 .321.034.452.076.292.042-.16.042-.423 0-.583-.042-.161-.076-.03-.076.291M4.042 53.25c.002.367.036.497.076.29.04-.208.038-.508-.003-.667-.042-.159-.075.01-.073.377m207.345.042c2.458.026 6.433.026 8.833 0 2.4-.026.388-.048-4.47-.048s-6.822.022-4.363.048M3.889 57.5c0 .688.03.969.066.625a7.247 7.247 0 000-1.25c-.036-.344-.066-.062-.066.625m365.15-.333c0 .32.034.452.076.291.042-.16.042-.423 0-.583-.042-.16-.076-.029-.076.292m-.167 3.333c0 .321.034.452.076.292a1.37 1.37 0 000-.584c-.042-.16-.076-.029-.076.292m-162.333.5c0 .321.034.452.076.292a1.37 1.37 0 000-.584c-.042-.16-.076-.029-.076.292m162.17 2.917c.002.366.036.497.076.289a1.83 1.83 0 00-.004-.666c-.042-.16-.074.01-.072.377m-162.334.5c.002.366.036.497.076.289.04-.207.039-.507-.003-.666-.042-.16-.074.01-.073.377m162.167 3.166c.002.367.036.497.076.29.04-.207.038-.507-.003-.667-.042-.159-.075.011-.073.377m-162.333.334c.002.366.036.497.076.289a1.83 1.83 0 00-.004-.666c-.042-.16-.074.01-.072.377m77.33.583c0 .321.034.452.076.292a1.37 1.37 0 000-.584c-.042-.16-.076-.029-.076.292m-121.994 3c0 .412.033.581.073.375a2.418 2.418 0 000-.75c-.04-.206-.073-.038-.073.375m44.497.25c.002.367.036.497.076.29.04-.208.038-.508-.003-.667-.042-.159-.075.01-.073.377M391.205 85.5c0 .321.035.452.077.292a1.402 1.402 0 000-.584c-.042-.16-.077-.029-.077.292m-114.872 1.75c-.405.412-.698.75-.652.75.045 0 .414-.338.819-.75.405-.413.699-.75.653-.75-.046 0-.415.337-.82.75m114.709 1.833c.002.367.036.497.076.29.04-.207.038-.507-.003-.667-.042-.159-.075.011-.073.377m-92.333.5c.002.367.036.497.076.29a1.835 1.835 0 00-.004-.667c-.042-.159-.074.011-.072.377m-.17 3.584c0 .32.034.452.076.291.042-.16.042-.423 0-.583-.042-.16-.076-.029-.076.292m-159.667 1c0 .32.034.452.076.291.042-.16.042-.423 0-.583-.042-.16-.076-.029-.076.292"
      fill="#9a450c"/>
    <path
      d="M264.708 4.119c.252.039.665.039.917 0 .252-.038.046-.069-.458-.069-.505 0-.711.031-.459.069m-221.413.168c.299.038.749.037 1-.001.25-.038.005-.069-.545-.068-.55.001-.755.032-.455.069m53.666 0c.3.038.75.037 1-.001.251-.038.006-.069-.544-.068-.55.001-.755.032-.456.069m209.418.88c0 .412.032.581.072.375.04-.207.04-.544 0-.75-.04-.207-.072-.038-.072.375m-163 .666c0 .413.032.582.072.375.04-.206.04-.543 0-.75-.04-.206-.072-.037-.072.375m252.5.5c0 .413.032.582.072.375.04-.206.04-.543 0-.75-.04-.206-.072-.037-.072.375m-89.661 2.084c.001.55.032.755.069.455.038-.3.037-.75-.001-1s-.069-.005-.068.545m-163.006-.084c0 .413.033.582.072.375.04-.206.04-.543 0-.75-.039-.206-.072-.037-.072.375m252.497 1.25c.002.367.036.497.076.29a1.835 1.835 0 00-.004-.667c-.042-.159-.074.011-.072.377M143.039 11c0 .321.034.452.076.292a1.37 1.37 0 000-.584c-.042-.16-.076-.029-.076.292m163 .5c0 .321.034.452.076.292a1.37 1.37 0 000-.584c-.042-.16-.076-.029-.076.292M121.5 14.75c.775.779 1.447 1.417 1.493 1.417.045 0-.551-.638-1.326-1.417s-1.447-1.417-1.493-1.417c-.046 0 .551.638 1.326 1.417M16.997 16.125l-1.58 1.625 1.625-1.58c1.509-1.468 1.7-1.67 1.58-1.67-.025 0-.756.731-1.625 1.625m41.747 1.417l-.827.875.875-.827c.481-.455.875-.849.875-.875 0-.125-.155.014-.923.827m149.97 3.541c.002.459.034.626.072.373a2.933 2.933 0 00-.002-.833c-.04-.205-.071.002-.07.46m162.183 1.657c-.05.132-.062.376-.027.542.041.188.098.098.152-.24.091-.568.032-.71-.125-.302m-207.341 2.093c0 .688.029.969.065.625a7.247 7.247 0 000-1.25c-.036-.343-.065-.062-.065.625m44.989-.5c0 .413.033.582.073.375a2.418 2.418 0 000-.75c-.04-.206-.073-.037-.073.375m75.172 1c0 .504.031.711.069.459a3.702 3.702 0 000-.917c-.038-.252-.069-.046-.069.458m43.322.5c0 .321.034.452.076.292.042-.16.042-.423 0-.583-.042-.161-.076-.03-.076.291m-243.15.834c0 .687.03.968.066.625a7.247 7.247 0 000-1.25c-.036-.344-.066-.063-.066.625m286.82-.584c.002.367.036.497.076.29a1.835 1.835 0 00-.004-.667c-.042-.159-.074.011-.072.377m-162.334 1.334c.002.366.036.497.076.289.04-.207.039-.507-.003-.666-.042-.16-.074.01-.073.377m-153.992.75c0 .504.032.71.07.458a3.702 3.702 0 000-.917c-.038-.252-.07-.046-.07.459m109.006.5c0 .687.03.968.066.625a7.247 7.247 0 000-1.25c-.036-.344-.066-.063-.066.625m163.49.333c0 .412.032.581.072.375.04-.206.04-.544 0-.75-.04-.206-.072-.038-.072.375m43.663.25c.002.367.036.497.076.29.04-.208.038-.508-.003-.667-.042-.159-.075.01-.073.377M83.717 30.333c0 .504.031.711.069.459a3.702 3.702 0 000-.917c-.038-.252-.069-.046-.069.458m124.492.25c.002.367.036.497.076.29a1.835 1.835 0 00-.004-.667c-.042-.159-.074.011-.072.377M54.22 31.5c0 .596.03.84.067.542a5.307 5.307 0 000-1.084c-.037-.298-.067-.054-.067.542m272.492.667c0 .412.033.581.072.375.04-.207.04-.544 0-.75-.039-.207-.072-.038-.072.375m-163.494.416c.001.55.032.755.069.456.038-.3.037-.75-.001-1-.038-.251-.069-.006-.068.544m207.154-.25c0 .321.034.452.076.292.042-.16.042-.423 0-.583-.042-.161-.076-.03-.076.291M83.555 33.917c0 .641.031.883.067.538a6.219 6.219 0 00-.002-1.167c-.037-.296-.066-.013-.065.629m124.484-.25c0 .32.034.452.076.291.042-.16.042-.423 0-.583-.042-.16-.076-.029-.076.292m-153.984 1.25c0 .641.031.883.067.538a6.219 6.219 0 00-.002-1.167c-.037-.296-.066-.013-.065.629m272.493.5c.001.458.033.626.072.372a2.968 2.968 0 00-.003-.833c-.039-.205-.071.002-.069.461m-163.503 1.25c0 .412.033.581.073.375a2.418 2.418 0 000-.75c-.04-.207-.073-.038-.073.375m-79.658.666c0 .596.03.84.067.542a5.297 5.297 0 000-1.083c-.037-.298-.067-.055-.067.541m149.353.042l-.49.542.542-.49c.505-.456.618-.594.489-.594-.029 0-.272.244-.541.542m-178.855.875c.001.55.032.755.069.455a4.447 4.447 0 00-.002-1c-.038-.25-.068-.005-.067.545m272.498.417c0 .504.032.71.07.458a3.702 3.702 0 000-.917c-.038-.252-.07-.046-.07.459m-118.674 1.25c.002.366.036.497.076.289a1.83 1.83 0 00-.004-.666c-.042-.16-.074.01-.072.377m-124.492.75c0 .504.031.71.069.458a3.702 3.702 0 000-.917c-.038-.252-.069-.046-.069.459m79.658-.25c.002.366.036.497.076.289.04-.207.039-.507-.003-.666-.042-.16-.074.01-.073.377m62.167.031c.16.042.423.042.583 0 .16-.042.029-.076-.292-.076s-.452.034-.291.076M53.718 41.583c.001.55.032.755.069.456.038-.3.037-.75-.001-1-.038-.251-.069-.006-.068.544m222.526.292l-.827.875.875-.827c.481-.455.875-.849.875-.875 0-.124-.155.014-.923.827m49.973.125c0 .504.031.71.069.458a3.694 3.694 0 000-.916c-.038-.252-.069-.046-.069.458M83.042 44.25c.002.367.036.497.076.29.04-.208.038-.508-.003-.667-.042-.159-.075.01-.073.377m79.667 0c.002.367.036.497.076.29a1.834 1.834 0 00-.004-.667c-.042-.159-.074.01-.072.377m-109.161.833c.001.459.033.626.072.373a2.968 2.968 0 00-.003-.833c-.039-.205-.071.002-.069.46m272.505.584c0 .595.031.839.068.541a5.297 5.297 0 000-1.083c-.037-.298-.068-.054-.068.542m43.652-.5c0 .32.035.452.077.291.041-.16.041-.423 0-.583-.042-.16-.077-.029-.077.292M4.379 45.5c0 .413.032.581.072.375.04-.206.04-.544 0-.75-.04-.206-.072-.038-.072.375m78.493 2c0 .321.034.452.076.292a1.37 1.37 0 000-.584c-.042-.16-.076-.029-.076.292m49.333 0c0 .321.035.452.077.292a1.402 1.402 0 000-.584c-.042-.16-.077-.029-.077.292m30.334.5c0 .321.034.452.076.292a1.37 1.37 0 000-.584c-.042-.16-.076-.029-.076.292m-109.16.333c0 .413.032.582.072.375.04-.206.04-.543 0-.75-.04-.206-.072-.037-.072.375m316.163.084c.002.366.036.497.076.289a1.83 1.83 0 00-.003-.666c-.042-.16-.075.01-.073.377M325.887 49c0 .596.03.84.067.542a5.307 5.307 0 000-1.084c-.037-.298-.067-.054-.067.542M4.209 48.75c.002.367.036.497.076.29a1.834 1.834 0 00-.004-.667c-.042-.159-.074.01-.072.377m78.496 1.917c0 .32.035.452.077.291.041-.16.041-.423 0-.583-.042-.16-.077-.029-.077.292m49.337.083c.002.367.036.497.076.29.04-.208.038-.508-.003-.667-.042-.159-.075.01-.073.377m-78.83.75c0 .413.033.581.072.375.04-.206.04-.544 0-.75-.039-.206-.072-.038-.072.375m109.163.083c.002.367.036.497.076.29.04-.207.039-.507-.003-.667-.042-.159-.074.011-.073.377M369.383 52c0 .504.032.71.07.458a3.694 3.694 0 000-.916c-.038-.252-.07-.046-.07.458M4.045 52c0 .413.033.581.073.375a2.418 2.418 0 000-.75c-.04-.206-.073-.038-.073.375m321.672.333c0 .504.031.711.069.459a3.702 3.702 0 000-.917c-.038-.252-.069-.046-.069.458m-193.834 2c0 .504.032.711.07.459a3.702 3.702 0 000-.917c-.038-.252-.07-.046-.07.458m146.034-.166c.358.366.688.666.734.666.046 0-.21-.3-.568-.666-.358-.367-.688-.667-.734-.667-.046 0 .21.3.568.667m-224.878.5c0 .32.034.452.076.291.042-.16.042-.423 0-.583-.042-.16-.076-.029-.076.292m316.181.666c0 .596.03.84.067.542a5.297 5.297 0 000-1.083c-.037-.298-.067-.055-.067.541m-365.335.084c.001.55.032.755.069.455.037-.3.036-.75-.002-1s-.068-.005-.067.545m158.324-.167c.002.367.036.497.076.29a1.834 1.834 0 00-.004-.667c-.042-.159-.074.01-.072.377m44.674.25c0 .504.032.71.07.458a3.694 3.694 0 000-.916c-.038-.252-.07-.046-.07.458m118.659.417c.002.366.036.497.076.289a1.83 1.83 0 00-.003-.666c-.042-.16-.075.01-.073.377m-94.382.458c.69.736.84.868.84.743 0-.027-.356-.383-.792-.792l-.791-.743.743.792m-99.451.542c.002.366.036.497.076.289a1.83 1.83 0 00-.004-.666c-.042-.16-.074.01-.072.377m-78.837.916c0 .321.034.452.076.292.042-.16.042-.423 0-.583-.042-.161-.076-.03-.076.291m316.181.834c0 .595.031.839.068.541a5.297 5.297 0 000-1.083c-.037-.298-.068-.054-.068.542M206.72 59c0 .596.03.84.067.542a5.307 5.307 0 000-1.084c-.037-.298-.067-.054-.067.542m-44.678-.083c.002.366.036.497.076.289a1.83 1.83 0 00-.003-.666c-.042-.16-.075.01-.073.377M3.883 59.5c0 .504.032.71.07.458a3.694 3.694 0 000-.916c-.038-.252-.07-.046-.07.458m321.489-.333c0 .32.034.452.076.291.042-.16.042-.423 0-.583-.042-.16-.076-.029-.076.292M82.209 60.25c.002.367.036.497.076.29a1.834 1.834 0 00-.004-.667c-.042-.159-.074.01-.072.377M52.705 61c0 .321.035.452.077.292a1.402 1.402 0 000-.584c-.042-.16-.077-.029-.077.292m316.182 1c0 .596.03.84.067.542a5.307 5.307 0 000-1.084c-.037-.298-.067-.054-.067.542m-162.334.5c0 .596.031.84.068.542a5.307 5.307 0 000-1.084c-.037-.298-.068-.054-.068.542m-44.674.167c0 .412.032.581.072.375.04-.207.04-.544 0-.75-.04-.207-.072-.038-.072.375m-79.837.75c.002.366.036.497.076.289a1.83 1.83 0 00-.003-.666c-.042-.16-.075.01-.073.377m-29.503.75c0 .32.034.452.076.291.042-.16.042-.423 0-.583-.042-.16-.076-.029-.076.292m316.178 1.166c0 .504.031.711.069.459a3.702 3.702 0 000-.917c-.038-.252-.069-.046-.069.458M206.387 66c0 .596.03.84.067.542a5.307 5.307 0 000-1.084c-.037-.298-.067-.054-.067.542m-44.67.333c0 .504.031.711.069.459a3.702 3.702 0 000-.917c-.038-.252-.069-.046-.069.458m-79.842.25c.002.367.036.497.076.29.04-.207.039-.507-.003-.667-.042-.159-.074.011-.073.377m-29.503.75c0 .321.034.452.076.292.042-.16.042-.423 0-.583-.042-.161-.076-.03-.076.291m316.173 1.5c0 .413.033.582.073.375a2.418 2.418 0 000-.75c-.04-.206-.073-.037-.073.375m-162.327.584c.001.55.032.755.069.455.038-.3.037-.75-.001-1s-.069-.005-.068.545m-124.509.333c.002.367.036.497.076.29a1.834 1.834 0 00-.004-.667c-.042-.159-.074.01-.072.377m79.841.25c0 .504.031.71.069.458a3.6 3.6 0 000-.916c-.038-.252-.069-.046-.069.458m-109.338.833c0 .413.033.582.072.375.04-.206.04-.543 0-.75-.039-.206-.072-.037-.072.375m316.163 1.25c.002.367.036.497.076.29.04-.207.039-.507-.003-.667-.042-.159-.074.011-.073.377m-162.327 1c.001.459.033.626.072.373a2.968 2.968 0 00-.003-.833c-.039-.205-.071.002-.069.46M77.491 79.792l-.574.625.625-.575c.343-.316.625-.597.625-.625 0-.127-.141-.007-.676.575m41.584 3.583l-.658.708.708-.658c.659-.613.785-.758.659-.758-.027 0-.346.318-.709.708m-105.742-.323c0 .029.244.273.542.542l.542.489-.49-.541c-.456-.505-.594-.619-.594-.49m51.868.905c.615.032 1.665.032 2.333 0 .669-.031.166-.058-1.117-.058-1.284 0-1.831.026-1.216.058M15.75 85.5c.358.367.688.667.734.667.046 0-.209-.3-.567-.667-.358-.367-.689-.667-.735-.667-.045 0 .21.3.568.667m284.375-.071c-.623.338-.585.478.042.154.275-.142.5-.294.5-.337 0-.108-.018-.101-.542.183m91.092 1.404c0 .504.031.711.069.459a3.702 3.702 0 000-.917c-.038-.252-.069-.046-.069.458m-252.012.834c0 .32.035.452.077.291.041-.16.041-.423 0-.583-.042-.16-.077-.029-.077.292m159.513.416c.001.55.032.755.069.456.038-.3.037-.75-.001-1-.038-.251-.069-.006-.068.544m-159.673 2.25c0 .413.033.582.073.375a2.418 2.418 0 000-.75c-.04-.206-.073-.037-.073.375m252 0c0 .413.033.582.073.375a2.418 2.418 0 000-.75c-.04-.206-.073-.037-.073.375m-92.492 1.334c0 .596.031.839.068.541a5.297 5.297 0 000-1.083c-.037-.298-.068-.054-.068.542M138.879 93c0 .412.032.581.072.375.04-.206.04-.544 0-.75-.04-.206-.072-.038-.072.375m252 .5c0 .412.032.581.072.375.04-.206.04-.544 0-.75-.04-.206-.072-.038-.072.375m-92.478 1.167l.016.416 46.208.001h46.208l-46.155-.042-46.156-.043-.069-.374c-.059-.326-.066-.32-.052.042"
      fill="#5c2906"/>
    <path
      d="M219.945 4.292c8.541.024 22.566.024 31.167 0 8.601-.024 1.613-.044-15.529-.044-17.141 0-24.179.02-15.638.044m-177.653.159c.206.04.543.04.75 0 .206-.04.037-.072-.375-.072-.413 0-.582.032-.375.072m55.833 0c.206.04.544.04.75 0 .206-.04.037-.072-.375-.072-.413 0-.581.032-.375.072m208.437.127a.734.734 0 00-.008.458c.048.118.092.045.1-.161l.013-.375h44.569c30.272 0 44.597.055 44.654.171.047.094.066.075.042-.042-.07-.343-89.238-.394-89.37-.051m89.155 2.755c0 .504.031.711.069.459a3.702 3.702 0 000-.917c-.038-.252-.069-.046-.069.458m-89.338.5c0 .413.032.582.072.375.04-.206.04-.543 0-.75-.04-.206-.072-.037-.072.375m89.16 2.834c0 .32.034.452.076.291.042-.16.042-.423 0-.583-.042-.16-.076-.029-.076.292m-89.33.416c.002.367.036.497.076.29a1.835 1.835 0 00-.004-.667c-.042-.159-.074.011-.072.377M67.127 13.451c.207.04.507.039.667-.003.159-.042-.011-.074-.377-.073-.367.002-.497.036-.29.076m4.748-.003c.16.042.423.042.583 0 .161-.042.029-.076-.291-.076-.321 0-.452.034-.292.076m48.625.469c.311.32.603.583.649.583.046 0-.171-.263-.482-.583-.311-.321-.603-.584-.649-.584-.046 0 .171.263.482.584m-61.925 3.625l-.658.708.708-.659c.39-.362.708-.681.708-.708 0-.126-.145 0-.758.659m149.973 4.208c.001.458.033.626.072.373a2.975 2.975 0 00-.003-.834c-.039-.205-.071.003-.069.461m-44.836 1.917c0 .412.033.581.072.375.04-.207.04-.544 0-.75-.039-.207-.072-.038-.072.375m207.005.166c0 .504.031.711.069.459a3.702 3.702 0 000-.917c-.038-.252-.069-.046-.069.458m-162.332 1.25c.001.55.032.755.069.456.037-.3.036-.75-.002-1-.038-.251-.068-.006-.067.544m162.163 2.167c.001.458.033.626.072.373a2.975 2.975 0 00-.003-.834c-.039-.205-.071.003-.069.461m-207.006.333c.002.367.036.497.076.29.04-.207.038-.507-.003-.667-.042-.159-.075.011-.073.377m163.503.25c0 .413.033.582.073.375a2.418 2.418 0 000-.75c-.04-.206-.073-.037-.073.375m-118.828.5c0 .504.031.711.069.459a3.702 3.702 0 000-.917c-.038-.252-.069-.046-.069.458m27.664 1.25c.001.459.034.626.072.373a3.008 3.008 0 00-.002-.833c-.04-.205-.071.002-.07.46m-152.002.084c0 .412.032.581.072.375.04-.207.04-.544 0-.75-.04-.207-.072-.038-.072.375m243.006 1.583c.001.55.032.755.069.455a4.447 4.447 0 00-.002-1c-.038-.25-.068-.005-.067.545m-163.513.083c0 .321.034.452.076.292.042-.16.042-.423 0-.583-.042-.161-.076-.03-.076.291m44.676.417c.001.458.033.626.072.373a2.975 2.975 0 00-.003-.834c-.039-.205-.071.003-.069.461m-154.009.75c0 .321.034.452.076.292a1.37 1.37 0 000-.584c-.042-.16-.076-.029-.076.292m29.673.5c0 .412.033.581.072.375.04-.206.04-.544 0-.75-.039-.206-.072-.038-.072.375m243.006 1.583c.001.55.032.755.069.456.038-.3.037-.75-.001-1-.038-.251-.069-.006-.068.544M53.872 35.667c0 .32.034.452.076.291.042-.16.042-.423 0-.583-.042-.16-.076-.029-.076.292m29.667.666c0 .321.034.452.076.292.042-.16.042-.423 0-.583-.042-.161-.076-.03-.076.291M326.55 38c0 .504.031.71.069.458a3.6 3.6 0 000-.916c-.038-.252-.069-.046-.069.458m-272.841.917c.002.366.036.497.076.289a1.83 1.83 0 00-.004-.666c-.042-.16-.074.01-.072.377m158.261 1.708c2.413.026 6.313.026 8.667 0s.38-.048-4.387-.047c-4.767 0-6.693.021-4.28.047m-79.582 1.125c.001.642.031.884.067.538a6.308 6.308 0 00-.001-1.167c-.037-.296-.067-.013-.066.629m143.691.125l-1.162 1.208 1.208-1.162c1.122-1.079 1.284-1.254 1.162-1.254-.025 0-.569.543-1.208 1.208m50.302-.458c.001.458.034.626.072.372a3.008 3.008 0 00-.002-.833c-.04-.205-.071.002-.07.461M53.55 42.5c0 .504.031.71.069.458a3.6 3.6 0 000-.916c-.038-.252-.069-.046-.069.458M4.545 44.333c0 .413.033.582.073.375a2.418 2.418 0 000-.75c-.04-.206-.073-.037-.073.375m321.667.334c0 .412.033.581.072.375.04-.207.04-.544 0-.75-.039-.207-.072-.038-.072.375m-272.827 1.25c.001.55.032.755.069.455.037-.3.036-.75-.002-1s-.068-.005-.067.545m-49 1.833c.001.55.032.755.069.455a4.447 4.447 0 00-.002-1c-.038-.25-.068-.005-.067.545m321.654.25c0 .321.034.452.076.292a1.37 1.37 0 000-.584c-.042-.16-.076-.029-.076.292M53.218 49.25c.001.55.032.755.069.455a4.392 4.392 0 00-.001-1c-.038-.25-.069-.005-.068.545m-49 1.833c.001.55.032.755.069.456.038-.3.037-.75-.001-1-.038-.251-.069-.006-.068.544m48.83 1.667c.001.458.033.626.072.373a2.975 2.975 0 00-.003-.834c-.039-.205-.071.003-.069.461m224.778 1.458c.691.736.841.869.841.743 0-.026-.357-.383-.792-.791l-.792-.743.743.791m-273.778.375c.001.459.033.626.072.373a2.968 2.968 0 00-.003-.833c-.039-.205-.071.002-.069.46m227.112 1.625c.69.736.84.869.84.743 0-.026-.356-.383-.792-.791l-.791-.743.743.791m-24.455.459c0 .32.035.452.077.291.041-.16.041-.423 0-.583-.042-.16-.077-.029-.077.292M368.872 59.5c0 .321.034.452.076.292a1.37 1.37 0 000-.584c-.042-.16-.076-.029-.076.292m-364.827.667c0 .412.033.581.073.375a2.418 2.418 0 000-.75c-.04-.207-.073-.038-.073.375M206.539 60c0 .321.034.452.076.292a1.37 1.37 0 000-.584c-.042-.16-.076-.029-.076.292m-44.489 1.167c0 .504.031.71.069.458a3.608 3.608 0 000-.917c-.038-.252-.069-.045-.069.459m72.174 2.083c0 .733.03 1.013.065.621a8.357 8.357 0 00-.001-1.334c-.036-.341-.065-.02-.064.713m134.485-.5c.002.367.036.497.076.29a1.834 1.834 0 00-.004-.667c-.042-.159-.074.01-.072.377m-162.334.5c.002.367.036.497.076.29.04-.208.039-.508-.003-.667-.042-.159-.074.01-.073.377m-44.488 1.917c0 .595.03.839.067.541a5.297 5.297 0 000-1.083c-.037-.298-.067-.054-.067.542m-79.839.25c.001.458.033.626.072.372a2.968 2.968 0 00-.003-.833c-.039-.205-.071.002-.069.461m286.5.833c.001.458.033.626.072.373a2.975 2.975 0 00-.003-.834c-.039-.205-.071.003-.069.461m-162.336.417c0 .412.033.581.072.375.04-.207.04-.544 0-.75-.039-.207-.072-.038-.072.375m77.16.5c0 .32.034.452.076.291.042-.16.042-.423 0-.583-.042-.16-.076-.029-.076.292M81.883 68.833c0 .504.032.711.07.459a3.702 3.702 0 000-.917c-.038-.252-.07-.046-.07.458m79.838.25c.001.642.031.884.067.538a6.211 6.211 0 00-.001-1.166c-.037-.296-.066-.013-.066.628m206.666.584c0 .595.03.839.067.541a5.297 5.297 0 000-1.083c-.037-.298-.067-.054-.067.542m-84.827.833c0 .871.028 1.227.063.792.034-.436.034-1.148 0-1.584-.035-.435-.063-.079-.063.792m-77.51-.167c0 .504.031.711.069.459a3.608 3.608 0 000-.917c-.038-.252-.069-.046-.069.458m162.117 2.324c0 .269.059.527.132.571.072.045.101-.175.065-.49-.082-.7-.197-.748-.197-.081M205.9 73.75l.017.833 8.208.003 8.208.002-8.157-.046-8.158-.045-.068-.79-.067-.79.017.833m-87.071 9.708l-1.079 1.125 1.125-1.078c.619-.593 1.125-1.1 1.125-1.125 0-.123-.17.033-1.171 1.078m20.552 3.459c.001.458.034.626.072.372a3.008 3.008 0 00-.002-.833c-.04-.205-.071.002-.07.461m159.498.583c0 .412.032.581.072.375.04-.206.04-.544 0-.75-.04-.206-.072-.038-.072.375m92.169.25c.001.458.033.626.072.373a2.975 2.975 0 00-.003-.834c-.039-.205-.071.003-.069.461m-251.831 1.917c0 .504.031.71.069.458a3.702 3.702 0 000-.917c-.038-.252-.069-.046-.069.459m159.492 1.083c.002.367.036.497.076.29a1.834 1.834 0 00-.004-.667c-.042-.159-.074.01-.072.377m92.176.333c.001.55.032.755.069.456.037-.3.036-.75-.002-1-.038-.251-.068-.006-.067.544M139.045 92.5c0 .412.033.581.073.375a2.418 2.418 0 000-.75c-.04-.206-.073-.038-.073.375m159.494 1.667c0 .32.034.452.076.291.042-.16.042-.423 0-.583-.042-.16-.076-.029-.076.292m92.173.166c0 .413.033.582.072.375.04-.206.04-.543 0-.75-.039-.206-.072-.037-.072.375m-251.737.542c.069.069 26.859.107 59.534.084l59.408-.042-59.534-.084c-32.743-.046-59.477-.027-59.408.042m-86.754.083c7.501.024 19.726.024 27.167 0 7.441-.024 1.304-.043-13.638-.043s-21.03.019-13.529.043"
      fill="#bc540c"/>
  </g>
</svg>
