<svg width="53" height="20" viewBox="0 0 53 20" fill="none" xmlns="http://www.w3.org/2000/svg">
<g>
<path d="M11.825 -4.0778e-06C11.9378 0.0784735 12.0758 0.0627779 12.1983 0.107903C13.2659 0.506176 13.9193 1.27329 14.1935 2.37983C14.2149 2.47008 14.2285 2.56033 14.246 2.65057C14.3238 3.28232 14.2207 3.88071 13.8843 4.42613C13.9718 4.47714 14.0398 4.44575 14.1079 4.44379C14.3957 4.43594 14.6835 4.3967 14.9732 4.43005C16.0214 4.54973 16.525 5.64449 15.9416 6.53129C15.9008 6.59407 15.8269 6.63919 15.8327 6.73337C16.1361 6.81577 16.3928 6.96684 16.5581 7.2474C16.8225 7.69668 16.7253 8.30488 16.315 8.66195C16.1964 8.76397 16.138 8.81302 16.3208 8.90916C16.492 9.00137 16.6028 9.16813 16.6534 9.3604C16.7486 9.72532 16.6553 10.0471 16.4297 10.3374C16.385 10.3943 16.3228 10.4277 16.3675 10.5336C16.6825 11.2635 16.5581 11.7991 15.9475 12.3092C15.3019 12.8487 14.5668 13.1803 13.7287 13.2647C13.2854 13.2745 12.8984 13.145 12.6067 12.7938C12.5425 12.7173 12.492 12.7153 12.4122 12.7644C12.0272 13.0037 11.6072 13.1548 11.1774 13.2882C11.1599 13.2941 11.1308 13.2902 11.1463 13.3255L11.1483 13.3216C10.8877 13.3117 10.6349 13.3883 10.3724 13.3647C9.71511 13.3059 9.13368 13.1254 8.87505 12.423C8.83033 12.3013 8.7681 12.3681 8.71365 12.3916C8.05249 12.6937 7.39328 12.9978 6.73407 13.3019C6.29265 13.5001 5.85123 13.6982 5.40398 13.9003C5.38065 13.6217 5.46232 13.4864 5.72095 13.3686C6.58239 12.9763 7.43606 12.5682 8.30723 12.2072C8.67281 12.0561 8.90422 11.8815 8.8206 11.4499C8.81477 11.4224 8.82255 11.393 8.82449 11.3655C8.85755 10.9672 8.93144 10.5768 9.03451 10.1903C9.06756 10.0667 9.12785 9.97057 9.2698 10.0137C9.40981 10.0569 9.41759 10.1668 9.37286 10.2904C9.3612 10.3237 9.35342 10.359 9.34564 10.3924C9.21341 10.9633 9.10451 11.5342 9.18813 12.1248C9.24063 12.4975 9.43898 12.7487 9.79095 12.8782C9.9504 12.937 10.1137 12.9782 10.2829 12.992C11.0296 13.0547 11.6772 12.7761 12.3053 12.4151C12.35 12.3896 12.3889 12.3622 12.3811 12.3013C12.3422 12.0012 12.4258 11.7265 12.562 11.4538C12.455 11.4342 12.3656 11.4185 12.2761 11.3989C11.3252 11.2046 10.948 10.2904 11.4925 9.4742C11.5761 9.35059 11.5527 9.32313 11.4283 9.278C10.9752 9.11712 10.6757 8.8091 10.5999 8.31665C10.5143 7.76142 10.7302 7.33176 11.1677 7.00412C11.228 6.95899 11.3233 6.94722 11.2319 6.82166C10.7671 6.17422 10.913 5.47773 11.5877 5.05591C12.0292 4.77928 12.5211 4.64783 13.0267 4.58897C13.3067 4.55758 13.4565 4.4124 13.5907 4.20639C13.7229 4.00235 13.8221 3.78261 13.8668 3.54129C13.9776 2.95467 13.8862 2.39356 13.6432 1.85599C13.1862 0.847553 12.1983 0.255048 11.1794 0.372764C10.386 0.463013 10.0087 0.986851 10.176 1.77359C10.2071 1.91877 10.2538 2.06199 10.3024 2.20325C10.4346 2.57994 10.6368 2.92328 10.8118 3.28036C11.0569 3.77869 11.0083 4.24367 10.6524 4.67137C10.5571 4.78516 10.4502 4.88915 10.3374 4.98528C9.93873 5.32862 9.47981 5.58367 9.06367 5.90151C8.6242 6.237 8.39863 6.68628 8.3928 7.24151C8.38696 7.80262 8.51141 8.32842 8.8206 8.80125C8.89061 8.90916 8.95867 9.02491 8.82255 9.11712C8.67476 9.21718 8.59309 9.10143 8.51919 8.9896C8.36168 8.75024 8.23528 8.49519 8.17111 8.21659C8.13611 8.0616 8.07388 8.05179 7.93776 8.09103C7.30772 8.27153 6.67379 8.43829 6.0418 8.61683C5.87457 8.66391 5.72095 8.65803 5.58094 8.55012C5.53816 8.51677 5.47398 8.48342 5.48565 8.4226C5.49732 8.36766 5.56538 8.37551 5.61205 8.36374C5.99124 8.25583 6.37043 8.14596 6.74963 8.03806C7.15021 7.93211 7.55079 7.82421 7.95138 7.71826C8.03305 7.69668 8.06611 7.65744 8.05444 7.56915C7.99416 7.1493 8.08361 6.75103 8.2314 6.36256C8.46086 5.93878 8.80699 5.63664 9.20368 5.37963C9.52843 5.16774 9.85317 4.95389 10.1449 4.69491C10.6641 4.23386 10.7282 3.91014 10.419 3.29017C10.209 2.86639 9.97763 2.45046 9.85706 1.98548C9.77928 1.6853 9.74622 1.38316 9.81817 1.08102C9.94651 0.543453 10.3082 0.239352 10.8138 0.0823973C10.8974 0.0568921 10.9946 0.0627779 11.0646 -0.00588989C11.3155 -4.0778e-06 11.5702 -4.0778e-06 11.825 -4.0778e-06ZM12.877 9.05826C13.7598 9.02099 14.631 8.90131 15.4886 8.69727C15.6986 8.64626 15.8853 8.54816 16.0486 8.40886C16.5017 8.02432 16.4239 7.33568 15.9047 7.1336C15.6577 7.03747 15.403 6.99431 15.1385 7.0512C14.6135 7.16499 14.0846 7.24151 13.5518 7.2886C12.9334 7.34157 12.3131 7.40043 11.7122 7.16696C11.6616 7.14734 11.6208 7.15715 11.5722 7.17677C11.1677 7.33961 10.8857 7.7575 10.9169 8.15577C10.9499 8.58544 11.2027 8.86207 11.6772 8.97783C12.0719 9.07788 12.4745 9.06611 12.877 9.05826ZM12.982 6.97272C13.6276 6.9531 14.3801 6.85108 15.1269 6.69609C15.2299 6.67451 15.331 6.64704 15.4147 6.57445C15.7511 6.28997 15.9028 5.93094 15.8016 5.49539C15.7044 5.07945 15.3952 4.8813 15.0044 4.7989C14.8955 4.77535 14.7807 4.77732 14.6679 4.77928C13.9971 4.79105 13.334 4.88326 12.6767 5.00882C12.3364 5.07357 12.0214 5.21875 11.7258 5.40514C11.4186 5.59741 11.2785 5.87404 11.3233 6.23307C11.368 6.58622 11.6033 6.77457 11.9241 6.87267C12.2333 6.96684 12.5484 6.98253 12.982 6.97272ZM12.8537 9.42319C12.667 9.42319 12.5056 9.42907 12.3422 9.42122C12.0117 9.40749 11.7958 9.54483 11.6694 9.85285C11.4283 10.4454 11.7336 10.9692 12.4103 11.0614C13.6879 11.2341 14.8702 10.926 15.9689 10.2668C16.105 10.1844 16.2081 10.0706 16.2722 9.92152C16.3986 9.62723 16.3325 9.3192 16.0914 9.18579C15.8911 9.07592 15.6772 9.02099 15.4419 9.07788C14.5843 9.28389 13.7112 9.39179 12.8537 9.42319ZM13.6898 12.9056C14.5727 12.8056 15.3427 12.4505 15.9553 11.8011C16.2139 11.5264 16.2761 11.1615 16.1167 10.7867C16.0642 10.6651 16.0175 10.6317 15.8853 10.7063C15.0316 11.1791 14.1157 11.4283 13.1415 11.4538C13.0695 11.4558 13.0092 11.4636 12.9528 11.5225C12.56 11.9266 12.6923 12.5976 13.2115 12.8154C13.3612 12.8762 13.5226 12.8978 13.6898 12.9056Z" fill="#0A68AF"/>
<path d="M38.6699 14.0436C38.6699 14.3437 38.6699 14.6047 38.6699 14.8656C38.6699 14.9559 38.6018 15.0029 38.5493 15.0579C37.9659 15.6877 37.225 16.0016 36.4025 16.1507C35.9494 16.2331 35.4924 16.2252 35.0355 16.1664C34.314 16.0722 33.7773 15.6975 33.404 15.0814C33.3184 14.9402 33.2542 14.9245 33.1337 15.0422C32.4239 15.723 31.541 16.0114 30.6018 16.1507C29.9076 16.2527 29.2076 16.2507 28.527 16.0467C26.7321 15.5072 26.1196 13.4844 27.2766 11.9757C27.8016 11.291 28.527 10.9672 29.3301 10.7691C30.4326 10.4944 31.5566 10.4493 32.6845 10.463C33.1745 10.4689 33.1084 10.5238 33.1084 10.0334C33.1103 9.22111 33.1123 8.41083 33.1064 7.59859C33.1025 6.87855 32.8945 6.67451 32.1828 6.67059C31.93 6.66863 31.6752 6.65882 31.4244 6.70787C31.3777 6.71768 31.3194 6.70002 31.298 6.7628C31.2746 6.83147 31.3252 6.86482 31.3719 6.89817C31.3835 6.90602 31.3933 6.91583 31.4049 6.92564C32.0894 7.52599 32.033 8.48146 31.261 8.96017C30.2712 9.57426 29.2503 9.59388 28.2411 9.01314C27.3213 8.48342 27.298 7.36512 28.1789 6.7628C28.7525 6.37041 29.402 6.1958 30.0768 6.1134C31.0646 5.99176 32.0583 5.9486 33.052 6.02707C34.069 6.10751 35.0841 6.18599 36.0564 6.53914C37.1123 6.92368 37.6004 7.61428 37.6004 8.74632C37.6023 10.5042 37.6023 12.2621 37.5984 14.022C37.5984 14.2123 37.6276 14.383 37.8123 14.4713C38.0087 14.5654 38.1837 14.4968 38.3373 14.3633C38.4462 14.2672 38.5435 14.1652 38.6699 14.0436ZM33.1142 12.6663C33.1142 12.2974 33.1142 11.9266 33.1142 11.5578C33.1142 11.0104 33.1142 11.0104 32.5717 11.032C31.9144 11.0594 31.4516 11.497 31.4263 12.1562C31.403 12.7879 31.401 13.4216 31.4127 14.0534C31.4224 14.5517 31.8172 14.9225 32.2819 14.9048C32.7506 14.8872 33.1123 14.4987 33.1142 14.0082C33.1162 13.5609 33.1142 13.1136 33.1142 12.6663Z" fill="#10A74D"/>
<path d="M43.0335 6.21149C44.1614 6.21149 45.2912 6.21542 46.419 6.20757C46.5979 6.20561 46.6485 6.26054 46.6368 6.43515C46.6212 6.65489 46.6251 6.87659 46.6368 7.09633C46.6426 7.23366 46.5921 7.26702 46.4657 7.25917C46.3179 7.25132 46.1682 7.24936 46.0223 7.26898C45.7151 7.31018 45.6081 7.54365 45.7676 7.80851C46.4073 8.86403 47.051 9.9176 47.6869 10.977C47.7822 11.136 47.8347 11.1261 47.9241 10.9751C48.5133 9.97057 49.1064 8.96998 49.6995 7.96939C49.7326 7.91446 49.7637 7.85952 49.789 7.80066C49.9095 7.52795 49.7967 7.31214 49.5031 7.2729C49.3573 7.25328 49.2075 7.25721 49.0597 7.26309C48.9509 7.26702 48.91 7.23366 48.9139 7.11987C48.9217 6.89229 48.9275 6.66274 48.912 6.43712C48.9003 6.2625 48.9509 6.20953 49.1298 6.21149C50.2012 6.21934 51.2746 6.21542 52.3461 6.21542C52.7583 6.21542 52.7583 6.21542 52.7583 6.64116C52.7583 6.65489 52.7583 6.67059 52.7583 6.68432C52.7564 6.86286 52.8128 7.07475 52.735 7.20816C52.6514 7.34942 52.4258 7.23759 52.2625 7.26505C51.9319 7.32195 51.7063 7.5103 51.5371 7.79478C50.5512 9.46243 49.5653 11.1301 48.5697 12.7918C47.6285 14.3614 46.7029 15.9427 45.6781 17.4612C45.2387 18.1106 44.7447 18.7149 44.1166 19.1897C43.158 19.9117 42.1001 20.1923 40.9275 19.8705C39.7141 19.537 39.0102 18.4893 39.1249 17.2278C39.2066 16.3351 40.0447 15.5739 41.0675 15.4777C41.7267 15.4149 42.3335 15.566 42.8488 15.9957C43.3835 16.441 43.6227 17.0139 43.5235 17.7183C43.5158 17.7752 43.4613 17.8497 43.541 17.889C43.6052 17.9203 43.6383 17.8477 43.6772 17.8124C44.3072 17.1964 44.7545 16.445 45.2037 15.6955C45.2678 15.5876 45.192 15.5209 45.1473 15.4463C44.2605 13.9592 43.3719 12.472 42.4851 10.9849C41.859 9.93722 41.227 8.89346 40.6106 7.8399C40.3753 7.43771 40.0564 7.22189 39.5897 7.26309C39.4302 7.27683 39.3796 7.22385 39.3894 7.06298C39.403 6.84324 39.403 6.62154 39.3894 6.4018C39.3816 6.24681 39.438 6.21149 39.5819 6.21346C40.7331 6.21346 41.8823 6.21149 43.0335 6.21149Z" fill="#0265AE"/>
<path d="M13.7268 13.2686C14.5649 13.1842 15.3019 12.8527 15.9455 12.3131C16.5561 11.803 16.6806 11.2674 16.3656 10.5376C16.3208 10.4316 16.3831 10.3983 16.4278 10.3414C16.6553 10.051 16.7486 9.72729 16.6514 9.36434C16.6009 9.17207 16.49 9.0053 16.3189 8.91309C16.1361 8.81499 16.1944 8.76791 16.3131 8.66589C16.7234 8.30685 16.8206 7.70061 16.5561 7.25133C16.3908 6.97077 16.1342 6.82166 15.8308 6.7373C15.825 6.64509 15.8989 6.598 15.9397 6.53522C16.5231 5.64646 16.0194 4.55366 14.9713 4.43399C14.6816 4.40063 14.3938 4.43987 14.106 4.44772C14.0379 4.44968 13.9698 4.48107 13.8823 4.43006C14.2187 3.88464 14.3218 3.28625 14.244 2.65451C15.4147 2.26997 16.5872 1.88739 17.7559 1.495C17.9348 1.43418 17.964 1.47734 17.9621 1.65196C17.9582 4.40063 17.9582 7.14735 17.9582 9.89602C17.9582 9.94507 17.9562 9.99608 17.9582 10.0451C17.9621 10.1118 17.929 10.2021 18.0107 10.2354C18.0787 10.2629 18.1215 10.1903 18.1682 10.1491C18.7943 9.61743 19.4185 9.08378 20.0428 8.55209C20.2858 8.34609 20.527 8.13812 20.77 7.93212C20.8964 7.82421 20.98 7.69865 20.9236 7.52404C20.8653 7.34354 20.7195 7.27683 20.5483 7.26506C20.4083 7.25525 20.2664 7.25722 20.1264 7.2631C20.0175 7.26899 19.9766 7.23171 19.9766 7.11792C19.9786 6.8766 19.9689 6.63332 19.9591 6.392C19.9533 6.28409 19.9844 6.24093 20.0991 6.24093C21.4253 6.24289 22.7515 6.24093 24.0758 6.23701C24.1672 6.23701 24.2216 6.25074 24.2197 6.36257C24.2139 6.61959 24.2139 6.87464 24.2197 7.13165C24.2216 7.2376 24.1789 7.27487 24.0816 7.26114C23.6636 7.2062 23.3583 7.41221 23.0666 7.68296C22.4268 8.2735 21.7793 8.85619 21.1278 9.43497C21.0053 9.54287 21.0053 9.61743 21.0967 9.74888C22.2148 11.3734 23.3252 12.9998 24.4375 14.6282C24.6572 14.95 24.9703 15.0873 25.3456 15.0697C25.5342 15.0598 25.5945 15.1167 25.577 15.3051C25.5595 15.4954 25.5615 15.6896 25.577 15.8819C25.5906 16.0506 25.5245 16.0997 25.3728 16.0761C25.3592 16.0742 25.3456 16.0761 25.3301 16.0761C21.2192 16.0761 17.1064 16.0742 12.9956 16.0801C12.7992 16.0801 12.7136 16.0447 12.737 15.8289C12.7564 15.6386 12.7486 15.4444 12.7389 15.2521C12.7311 15.1089 12.77 15.0383 12.9237 15.0559C13.0151 15.0657 13.1064 15.0598 13.1978 15.0579C13.5498 15.054 13.7112 14.8931 13.7151 14.5321C13.7287 14.1083 13.7268 13.6884 13.7268 13.2686ZM17.9621 13.4609C17.9621 13.9298 17.9659 14.4006 17.9601 14.8695C17.9582 14.9971 17.9834 15.0697 18.1312 15.0697C18.7943 15.0657 19.4574 15.0677 20.1205 15.0677C20.1769 15.0677 20.245 15.0716 20.2722 15.0167C20.3014 14.9578 20.245 14.9107 20.2139 14.8676C19.5274 13.9043 18.8391 12.939 18.1507 11.9776C18.1157 11.9286 18.0846 11.8501 18.0068 11.8815C17.9309 11.9129 17.964 11.9933 17.964 12.0542C17.9621 12.5211 17.9621 12.992 17.9621 13.4609Z" fill="#FED129"/>
<path d="M8.2275 6.36845C8.07972 6.75691 7.99027 7.15519 8.05055 7.57504C8.06416 7.66333 8.0311 7.70453 7.94748 7.72415C7.5469 7.82813 7.14632 7.93604 6.74574 8.04198C6.74379 7.90072 6.74185 7.7575 6.73796 7.61624C6.7224 7.22189 6.48905 6.9021 6.12736 6.78242C5.78123 6.66666 5.4137 6.77849 5.17841 7.06886C5.02284 7.26113 4.982 7.48675 4.982 7.72807C4.982 9.92544 4.982 12.1228 4.982 14.3182C4.982 14.3889 4.98589 14.4595 4.99562 14.5301C5.05784 15.001 5.44676 15.3482 5.88429 15.3267C6.34904 15.3031 6.71851 14.9382 6.73407 14.4575C6.74574 14.0749 6.73212 13.6904 6.73018 13.3059C7.38939 13.0018 8.0486 12.6977 8.70976 12.3955C8.76421 12.37 8.82643 12.3033 8.87116 12.4269C9.12784 13.1293 9.71122 13.3078 10.3685 13.3686C10.6291 13.3922 10.8838 13.3157 11.1444 13.3255C10.8216 13.9768 10.3393 14.487 9.76178 14.9068C8.43752 15.8701 6.95575 16.2723 5.32619 16.1624C4.01555 16.0742 2.80602 15.7112 1.76956 14.8774C0.624205 13.9572 0.0291644 12.7624 -4.24671e-06 11.2654C-0.0233392 10.0922 0.233345 9.02491 0.954783 8.09496C1.78123 7.03158 2.88575 6.41161 4.17111 6.11928C5.52065 5.81322 6.85658 5.89562 8.16917 6.3351C8.1925 6.34491 8.21 6.35864 8.2275 6.36845Z" fill="#E93929"/>
<path d="M11.1444 13.3294C11.1288 13.2941 11.158 13.298 11.1755 13.2921C11.1638 13.3059 11.1541 13.3176 11.1444 13.3294Z" fill="#E93929"/>
<path d="M6.73212 13.3078C6.73407 13.6924 6.74768 14.0749 6.73601 14.4595C6.72046 14.9382 6.35293 15.3051 5.88623 15.3286C5.4487 15.3502 5.05979 15.0029 4.99756 14.5321C4.98784 14.4614 4.98395 14.3908 4.98395 14.3202C4.98395 12.1228 4.98395 9.92545 4.98395 7.73004C4.98395 7.49068 5.02478 7.26506 5.18035 7.07083C5.41564 6.78046 5.78317 6.66863 6.1293 6.78439C6.48905 6.90603 6.72434 7.22386 6.7399 7.61821C6.74573 7.75947 6.74574 7.90269 6.74768 8.04395C6.36849 8.15186 5.98929 8.26173 5.6101 8.36963C5.56343 8.38337 5.49537 8.37356 5.4837 8.42849C5.47204 8.48931 5.53426 8.52266 5.57899 8.55602C5.719 8.66588 5.87262 8.66981 6.03985 8.62272C6.67184 8.44615 7.30577 8.27938 7.93582 8.09692C8.07194 8.05768 8.13416 8.06553 8.16917 8.22249C8.23334 8.50108 8.35973 8.75613 8.51724 8.99549C8.59114 9.10732 8.67281 9.22504 8.8206 9.12302C8.95477 9.03081 8.88866 8.91505 8.81865 8.80714C8.50947 8.33432 8.38501 7.80852 8.39085 7.2474C8.39668 6.69217 8.62225 6.24289 9.06173 5.9074C9.47787 5.58956 9.93873 5.33451 10.3354 4.99117C10.4482 4.89504 10.5552 4.79106 10.6504 4.67726C11.0063 4.25152 11.053 3.78654 10.8099 3.28625C10.6349 2.92918 10.4327 2.58584 10.3004 2.20914C10.2518 2.06789 10.2051 1.92663 10.174 1.77948C10.0068 0.990781 10.384 0.468906 11.1774 0.378656C12.1964 0.262902 13.1842 0.853445 13.6412 1.86188C13.8843 2.39945 13.9757 2.96057 13.8648 3.54719C13.8201 3.78851 13.7209 4.00824 13.5887 4.21228C13.4545 4.41829 13.3048 4.56347 13.0248 4.59486C12.5211 4.65176 12.0272 4.78517 11.5858 5.0618C10.911 5.48362 10.7632 6.18011 11.2299 6.82755C11.3213 6.95311 11.226 6.96488 11.1658 7.01001C10.7282 7.33961 10.5124 7.76732 10.5979 8.32255C10.6738 8.81499 10.9752 9.12105 11.4263 9.2839C11.5508 9.32902 11.5741 9.35452 11.4905 9.48009C10.946 10.2963 11.3233 11.2105 12.2742 11.4048C12.3636 11.4224 12.4531 11.4381 12.56 11.4597C12.4239 11.7304 12.3403 12.0071 12.3792 12.3072C12.387 12.37 12.3481 12.3975 12.3033 12.421C11.6772 12.782 11.0277 13.0606 10.281 12.9978C10.1099 12.9841 9.94845 12.9429 9.789 12.8841C9.43897 12.7546 9.23868 12.5034 9.18618 12.1307C9.10256 11.5401 9.21146 10.9692 9.34369 10.3983C9.35147 10.363 9.35925 10.3276 9.37091 10.2963C9.41564 10.1727 9.40786 10.0608 9.26785 10.0196C9.1259 9.97646 9.06562 10.0726 9.03256 10.1962C8.9295 10.5807 8.8556 10.9731 8.82254 11.3714C8.8206 11.3989 8.81282 11.4303 8.81865 11.4558C8.90227 11.8854 8.67087 12.06 8.30529 12.2131C7.43217 12.576 6.5785 12.9841 5.719 13.3745C5.46037 13.4923 5.3787 13.6276 5.40203 13.9062C5.84928 13.7041 6.2907 13.506 6.73212 13.3078Z" fill="#FDFCFD"/>
<path d="M12.877 9.05827C12.4745 9.06612 12.0739 9.07789 11.6791 8.97979C11.2047 8.86207 10.9519 8.5874 10.9188 8.15774C10.8877 7.75947 11.1697 7.34157 11.5741 7.17873C11.6227 7.15911 11.6616 7.1493 11.7141 7.16892C12.315 7.40239 12.9353 7.34353 13.5537 7.29056C14.0865 7.24544 14.6174 7.16696 15.1405 7.05317C15.4049 6.99627 15.6597 7.03943 15.9066 7.13557C16.4258 7.33961 16.5056 8.02825 16.0505 8.41083C15.8872 8.55013 15.7005 8.64822 15.4905 8.69923C14.6291 8.90327 13.7579 9.02295 12.877 9.05827Z" fill="#FCFCFD"/>
<path d="M12.982 6.97273C12.5484 6.98254 12.2314 6.96684 11.9261 6.87267C11.6072 6.77457 11.3699 6.58622 11.3252 6.23307C11.2805 5.876 11.4205 5.59937 11.7277 5.40514C12.0233 5.21875 12.3383 5.07553 12.6786 5.00883C13.3359 4.88326 13.999 4.79105 14.6699 4.77928C14.7827 4.77732 14.8974 4.77535 15.0063 4.7989C15.3972 4.8813 15.7064 5.07946 15.8036 5.49539C15.9047 5.93094 15.753 6.28997 15.4166 6.57445C15.331 6.64704 15.2319 6.67451 15.1288 6.69609C14.3821 6.85109 13.6295 6.95114 12.982 6.97273Z" fill="#FCFDFD"/>
<path d="M12.8537 9.42319C13.7112 9.39376 14.5843 9.28389 15.4438 9.07985C15.6811 9.02295 15.893 9.07789 16.0933 9.18776C16.3325 9.31921 16.3986 9.62723 16.2742 9.92348C16.21 10.0726 16.1069 10.1864 15.9708 10.2688C14.8721 10.93 13.6898 11.236 12.4122 11.0634C11.7355 10.9731 11.4283 10.4493 11.6714 9.85482C11.7978 9.54483 12.0136 9.40946 12.3442 9.42319C12.5056 9.42907 12.667 9.42319 12.8537 9.42319Z" fill="#FCFCFD"/>
<path d="M13.6898 12.9056C13.5226 12.8997 13.3631 12.8782 13.2115 12.8154C12.6903 12.5976 12.5581 11.9266 12.9528 11.5225C13.0092 11.4636 13.0695 11.4558 13.1415 11.4538C14.1157 11.4263 15.0316 11.1772 15.8853 10.7063C16.0175 10.6337 16.0642 10.6671 16.1167 10.7867C16.2781 11.1615 16.2139 11.5283 15.9553 11.8011C15.3427 12.4485 14.5727 12.8056 13.6898 12.9056Z" fill="#FBFCFD"/>
<path d="M33.1142 12.6663C33.1142 13.1136 33.1162 13.5609 33.1142 14.0102C33.1123 14.5007 32.7506 14.8892 32.2819 14.9068C31.8172 14.9245 31.4224 14.5537 31.4127 14.0553C31.401 13.4236 31.403 12.7899 31.4263 12.1581C31.4516 11.4989 31.9144 11.0614 32.5717 11.0339C33.1142 11.0124 33.1142 11.0124 33.1142 11.5597C33.1142 11.9266 33.1142 12.2974 33.1142 12.6663Z" fill="#FDFDFD"/>
<path d="M17.9621 13.4609C17.9621 12.992 17.9601 12.5211 17.964 12.0522C17.964 11.9933 17.931 11.9109 18.0068 11.8795C18.0846 11.8481 18.1157 11.9266 18.1507 11.9757C18.8391 12.939 19.5275 13.9023 20.2139 14.8656C20.245 14.9107 20.3014 14.9559 20.2722 15.0147C20.245 15.0697 20.1769 15.0657 20.1205 15.0657C19.4574 15.0657 18.7943 15.0638 18.1312 15.0677C17.9835 15.0697 17.9601 14.9951 17.9601 14.8676C17.966 14.4006 17.9621 13.9317 17.9621 13.4609Z" fill="#FEFDFA"/>
</g></svg>
