<svg width="86" height="20" viewBox="0 0 86 20" fill="none" xmlns="http://www.w3.org/2000/svg">
<path d="M18 11.8452V4.23035C18 3.43851 18.4534 2.9832 19.1978 2.9832H21.8302C24.4896 2.9832 25.9716 4.13797 25.9716 6.30234C25.9716 8.4865 24.5573 9.60828 21.8302 9.60828H20.3076V11.8386C20.3076 12.4787 19.9625 12.8548 19.3128 12.8548H18.9609C18.3587 12.8614 18 12.5117 18 11.8452ZM20.267 7.93221H21.7896C23.0482 7.93221 23.7182 7.35813 23.7182 6.32214C23.7182 5.29274 23.0482 4.73185 21.776 4.73185H20.267V7.93221ZM26.7228 3.07558C26.7228 2.40912 27.1897 2 27.9544 2C28.7191 2 29.186 2.39592 29.186 3.07558C29.186 3.75525 28.7191 4.17097 27.9544 4.17097C27.1897 4.17097 26.7228 3.76185 26.7228 3.07558ZM26.8513 11.8452V6.35513C26.8513 5.58308 27.2709 5.32574 27.8326 5.32574H28.0626C28.6514 5.32574 29.0439 5.56989 29.0439 6.35513V11.8452C29.0439 12.6173 28.6379 12.8614 28.083 12.8614H27.8529C27.2709 12.8614 26.8513 12.6371 26.8513 11.8452ZM30.5191 11.8452V2.5015C30.5191 2.42232 30.9048 2.25735 31.3447 2.25735C32.0011 2.25735 32.7116 2.59388 32.7116 3.97301V11.8452C32.7116 12.6173 32.3056 12.8614 31.7439 12.8614H31.5139C30.9387 12.8614 30.5191 12.6371 30.5191 11.8452ZM39.3704 11.6935C38.8426 12.4523 38.0644 13 36.8802 13C34.8906 13 34.0651 11.6341 34.0651 9.93821V6.35513C34.0651 5.58308 34.4711 5.32574 35.0327 5.32574H35.2628C35.838 5.32574 36.2576 5.56989 36.2576 6.35513V9.61488C36.2576 10.5981 36.7719 11.2052 37.6922 11.2052C38.4231 11.2052 39.0118 10.8092 39.3231 10.2352V6.34853C39.3231 5.57648 39.7291 5.31914 40.3043 5.31914H40.5208C41.1096 5.31914 41.5156 5.56329 41.5156 6.34853V12.6107C41.5156 12.6833 41.1434 12.8548 40.69 12.8548C40.1487 12.8614 39.5396 12.6371 39.3704 11.6935ZM42.9299 11.8452V2.5015C42.9299 2.42232 43.3157 2.25735 43.7555 2.25735C44.4119 2.25735 45.1225 2.59388 45.1225 3.97301V11.8452C45.1225 12.6173 44.7164 12.8614 44.1548 12.8614H43.9247C43.3495 12.8614 42.9299 12.6371 42.9299 11.8452ZM46.5435 11.8452V2.5015C46.5435 2.42232 46.9293 2.25735 47.3691 2.25735C48.0255 2.25735 48.7361 2.59388 48.7361 3.97301V8.61188L50.8677 5.9856C51.2264 5.4841 51.6933 5.30594 52.079 5.30594C52.776 5.30594 53.3106 5.92621 53.243 6.03179L50.8474 8.92861L53.5542 12.162C53.6152 12.2675 53.0535 12.8878 52.3565 12.8878C51.9504 12.8878 51.5038 12.7229 51.1113 12.2082L48.7361 9.40372V11.8452C48.7361 12.6173 48.3301 12.8614 47.7684 12.8614H47.5383C46.9428 12.8614 46.5435 12.6371 46.5435 11.8452ZM53.852 10.829C53.852 9.12657 55.4084 8.35453 58.7378 8.30834H58.9882C58.9882 7.35153 58.4468 6.83683 57.4318 6.83683C56.3761 6.83683 55.828 7.39772 55.5505 7.97181C55.5505 8.0048 54.1362 8.04439 54.1362 7.06119C54.1362 6.13737 55.2595 5.22675 57.5739 5.22675C59.9694 5.22675 61.1537 6.28914 61.1537 8.27534V12.6569C61.1537 12.7624 60.7477 12.901 60.3281 12.901C59.6311 12.901 59.1642 12.5381 59.0356 11.7331C58.4942 12.5051 57.5265 12.9604 56.4032 12.9604C54.8129 12.967 53.852 12.0894 53.852 10.829ZM58.9882 9.90522V9.4829L58.5822 9.4961C56.8566 9.54229 55.9498 9.87882 55.9498 10.6773C55.9498 11.225 56.4032 11.5747 57.134 11.5747C58.2235 11.5747 58.9882 10.8752 58.9882 9.90522ZM62.2838 11.9046V11.6935C62.2838 11.027 62.6289 10.6905 63.3124 10.6905H63.5898C64.3071 10.6905 64.6455 11.027 64.6455 11.6935V11.9046C64.6455 12.5711 64.3004 12.9076 63.5898 12.9076H63.3124C62.6424 12.9076 62.2838 12.5711 62.2838 11.9046ZM65.4575 9.10018C65.4575 6.85663 67.1358 5.24655 69.4569 5.24655C71.778 5.24655 72.6916 6.53329 72.6916 7.24595C72.6916 8.11038 71.5276 8.26215 71.4802 8.18956C71.1825 7.4769 70.6276 6.96221 69.5516 6.96221C68.3539 6.96221 67.4809 7.85963 67.4809 9.10018C67.4809 10.3737 68.3539 11.2843 69.5516 11.2843C70.5938 11.2843 71.1825 10.7696 71.4802 10.057C71.5141 9.96461 72.6916 10.1032 72.6916 11.0138C72.6916 11.7133 71.7239 13 69.4569 13C67.1019 13 65.4575 11.3899 65.4575 9.10018ZM73.1991 12.0432V11.9244C73.1991 11.4361 73.3412 11.2843 73.6795 10.9082L77.0699 7.05459H74.1329C73.5239 7.05459 73.2465 6.81044 73.2465 6.28254V6.17696C73.2465 5.67547 73.5239 5.40492 74.1329 5.40492H79.0188C79.6075 5.40492 79.8579 5.76785 79.8579 6.15057V6.25615C79.8579 6.71146 79.7158 6.87642 79.3774 7.23935L75.8924 11.1524H79.1135C79.7226 11.1524 80 11.3965 80 11.9244V12.0168C80 12.5315 79.7226 12.8086 79.1135 12.8086H74.0247C73.4359 12.802 73.1991 12.4193 73.1991 12.0432Z" fill="#D32D7D"/>
<path d="M13.6006 6.50135H11.6367V4.40877C11.6367 3.56903 10.9459 2.88505 10.0994 2.88505C9.2461 2.88505 8.56212 3.56903 8.56212 4.40877V6.50135H6.53049C5.67721 6.50135 5 7.1921 5 8.03861C5 8.8919 5.68398 9.57588 6.52372 9.57588H8.55535V11.4788C8.55535 12.3253 9.2461 13.0026 10.0926 13.0026C10.9391 13.0026 11.6299 12.3186 11.6299 11.4788V9.57588H13.6006C14.4471 9.57588 15.1243 8.88513 15.1243 8.03861C15.1311 7.1921 14.4471 6.50135 13.6006 6.50135Z" fill="#68AB46"/>
<path d="M17.5961 18.0139V15.7723C17.5961 15.5692 17.6909 15.4744 17.8738 15.4744H17.9686C18.1582 15.4744 18.2598 15.5692 18.2598 15.7723V17.7972H19.3365C19.5397 17.7972 19.6413 17.892 19.6413 18.0749V18.0952C19.6413 18.278 19.5465 18.3796 19.3365 18.3796H17.9415C17.7248 18.3728 17.5961 18.2442 17.5961 18.0139ZM20.9415 18.0139V15.8536C20.9415 15.6234 21.0702 15.4879 21.2869 15.4879H22.8987C23.1018 15.4879 23.2034 15.5895 23.2034 15.7656V15.7859C23.2034 15.9687 23.1086 16.0635 22.8987 16.0635H21.6052V16.6324H22.5533C22.77 16.6324 22.858 16.7272 22.858 16.8897V16.9101C22.858 17.0861 22.7632 17.1742 22.5533 17.1742H21.6052V17.804H22.919C23.1221 17.804 23.2237 17.892 23.2237 18.0613V18.0884C23.2237 18.2645 23.1289 18.3728 22.919 18.3728H21.2869C21.0702 18.3728 20.9415 18.2442 20.9415 18.0139ZM22.1944 14.4992C22.2688 14.4518 22.3433 14.4247 22.4178 14.4247C22.5804 14.4247 22.7023 14.5331 22.7023 14.6685C22.7023 14.7904 22.621 14.9258 22.4856 15.0071C22.1402 15.217 21.7203 15.2103 21.6797 15.1561C21.6458 15.1019 21.8964 14.682 22.1944 14.4992ZM24.551 18.0952V15.7723C24.551 15.5692 24.6459 15.4744 24.8287 15.4744H24.9235C25.1131 15.4744 25.2147 15.5692 25.2147 15.7723V16.8017L26.1628 15.6843C26.2847 15.5218 26.4066 15.4676 26.5217 15.4676C26.7655 15.4676 26.9077 15.6979 26.8874 15.7317L25.9122 16.9033L26.9213 18.1358C26.9416 18.1697 26.7926 18.3931 26.5353 18.3931C26.4066 18.3931 26.2847 18.339 26.1764 18.19L25.2147 17.0387V18.0952C25.2147 18.2916 25.1199 18.3931 24.9235 18.3931H24.8287C24.6526 18.3931 24.551 18.2916 24.551 18.0952ZM29.9552 17.6347H28.8987L28.7227 18.0952C28.6414 18.3254 28.506 18.3999 28.3637 18.3999C28.1809 18.3999 27.998 18.2577 28.0184 18.1968L29.0071 15.6504C29.041 15.5285 29.1358 15.4541 29.4337 15.4541C29.7385 15.4541 29.8197 15.5285 29.8604 15.6504L30.8694 18.19C30.8897 18.2442 30.7069 18.3931 30.5105 18.3931C30.3683 18.3931 30.2193 18.3187 30.1313 18.0816L29.9552 17.6347ZM29.0274 17.1471H29.8197L29.4202 16.0974L29.0274 17.1471ZM29.6437 14.4992C29.7182 14.4518 29.7927 14.4247 29.8671 14.4247C30.0297 14.4247 30.1516 14.5331 30.1516 14.6685C30.1516 14.7904 30.0703 14.9258 29.9349 15.0071C29.5895 15.217 29.1696 15.2103 29.129 15.1561C29.1019 15.1019 29.3525 14.682 29.6437 14.4992ZM33.6189 18.1223L33.0026 17.3435H32.7521V18.0884C32.7521 18.278 32.6573 18.3864 32.4676 18.3864H32.3728C32.1968 18.3864 32.0952 18.2577 32.0952 18.0275V15.8536C32.0952 15.6234 32.2238 15.4879 32.4405 15.4879H33.2938C34.0455 15.4879 34.4315 15.7994 34.4315 16.3886C34.4315 16.8491 34.1674 17.1674 33.6798 17.2419L34.4315 18.1493C34.4586 18.1832 34.3367 18.3931 34.0523 18.3931C33.8627 18.3931 33.7543 18.3119 33.6189 18.1223ZM32.7453 16.8627H33.2464C33.5986 16.8627 33.7679 16.7001 33.7679 16.4292C33.7679 16.1516 33.5918 15.9958 33.2329 15.9958H32.7453V16.8627ZM35.786 18.0952V15.7994C35.786 15.5895 35.8943 15.4744 36.0704 15.4744H36.1517C36.3277 15.4744 36.3819 15.5353 36.4835 15.664L37.7296 17.3773V15.7723C37.7296 15.576 37.8244 15.4744 38.0072 15.4744H38.0682C38.251 15.4744 38.3458 15.576 38.3458 15.7723V18.0681C38.3458 18.2848 38.2375 18.3931 38.0682 18.3931H38.014C37.8379 18.3931 37.7905 18.3457 37.6957 18.2306L36.3955 16.4496V18.0952C36.3955 18.2916 36.3006 18.3931 36.111 18.3931H36.0501C35.8808 18.3931 35.786 18.2916 35.786 18.0952ZM41.5355 17.6347H40.479L40.303 18.0952C40.2217 18.3254 40.0863 18.3999 39.944 18.3999C39.7612 18.3999 39.5783 18.2577 39.5987 18.1968L40.5874 15.6504C40.6212 15.5285 40.7161 15.4541 41.014 15.4541C41.3188 15.4541 41.4 15.5285 41.4407 15.6504L42.4497 18.19C42.47 18.2442 42.2872 18.3931 42.0908 18.3931C41.9486 18.3931 41.7996 18.3187 41.7116 18.0816L41.5355 17.6347ZM40.6077 17.1471H41.4L41.0005 16.0974L40.6077 17.1471Z" fill="#68AB46"/>
</svg>
