<svg xmlns="http://www.w3.org/2000/svg" viewBox="0 0 290 92.9">
  <title>pilulka</title>
  <path
    d="M35.9 42.7h10c2.3 0 4.3 2 4.3 4.4 0 2.4-2 4.4-4.3 4.4h-10v10c0 2.4-2 4.4-4.4 4.4-2.3 0-4.4-2-4.4-4.4v-10h-9.9c-2.4 0-4.4-2-4.4-4.4 0-2.3 2-4.4 4.4-4.4h9.9v-10c0-2.3 2-4.3 4.4-4.3 2.4 0 4.4 2 4.4 4.3v10zM79.2 57.5c5.9 0 10.2-4.5 10.2-10.2 0-5.7-4.1-10.5-10.2-10.5-5.8 0-10 4.4-10 10.5-.1 5.9 4.2 10.2 10 10.2M60.6 33c0-2.5 2.1-4.6 4.6-4.6s4.3 2.2 4.3 3.9c1.9-1.7 5.2-3.9 11-3.9 10 0 17.6 8.4 17.6 18.8s-7.9 18.7-18 18.7c-6.4 0-10.2-4-10.2-4V77c0 2.5-2.1 4.6-4.6 4.6-2.5 0-4.6-2.2-4.6-4.6V33zM116.7 61.3c0 2.5-2.1 4.6-4.6 4.6-2.5 0-4.6-2.2-4.6-4.6V33.8c0-2.5 2.1-4.6 4.6-4.6s4.6 2.2 4.6 4.6v27.5zM112.1 14c3.1 0 5.6 2.5 5.6 5.6 0 3.1-2.5 5.6-5.6 5.6s-5.6-2.5-5.6-5.6c-.1-3.1 2.4-5.6 5.6-5.6M137.7 61.3c0 2.5-2.1 4.6-4.6 4.6-2.5 0-4.6-2.2-4.6-4.6V15.7c0-2.5 2.1-4.6 4.6-4.6s4.6 2.2 4.6 4.6v45.6zM157.1 47.2c0 5.6 4 10.2 9.7 10.2 5.7 0 9.7-4.7 9.7-10.2V33c0-2.5 2.1-4.6 4.6-4.6s4.6 2.2 4.6 4.6v14.2c0 10.5-8.4 18.7-19 18.7-10.5 0-19-8.3-19-18.7V33c0-2.5 2.1-4.6 4.6-4.6s4.6 2.2 4.6 4.6l.2 14.2zM205.1 61.3c0 2.5-2.1 4.6-4.6 4.6s-4.6-2.2-4.6-4.6V15.7c0-2.5 2.1-4.6 4.6-4.6 2.5 0 4.6 2.2 4.6 4.6v45.6zM225.9 41.8l13-11.8c.6-.6 1.8-1.5 3.5-1.5 2.7 0 4.5 2.1 4.5 4.7 0 1.4-.6 2.4-1.1 3l-11.9 10 13.6 12.1c.9.8 1.3 2.1 1.3 3.2 0 2.5-2 4.5-4.5 4.5-1.1 0-2.3-.4-3.2-1.2l-15.2-14v10.5c0 2.6-2 4.7-4.7 4.7-2.5 0-4.5-2.1-4.5-4.7V15.7c0-2.5 2.1-4.6 4.6-4.6 2.5 0 4.6 2.2 4.6 4.6v26.1zM270.1 36.8c-5.7 0-10.2 4.8-10.2 10.3s4.3 10.5 10.2 10.5c5.8 0 10-4.5 10-10.5 0-5.9-4.2-10.3-10-10.3m18.5 24.3c0 2.6-2.4 4.8-4.8 4.8s-4.3-2.2-4.3-3.8c-1.7 1.6-5.6 3.8-10.2 3.8-10.1 0-18.2-8.4-18.2-18.8s8.2-18.7 18.2-18.7c4.5 0 8.5 2.2 10.2 3.8 0-1.7 1.9-3.8 4.3-3.8 2.5 0 4.8 2.2 4.8 4.8v27.9z"
    fill="#e6007e"/>
</svg>
