<svg width="91" height="20" viewBox="0 0 91 20" fill="none" xmlns="http://www.w3.org/2000/svg">
<path d="M56.4739 4.89742C57.2961 5.45268 58.0834 6.33763 58.8006 7.72579C59.7628 9.66921 59.4304 10.1898 59.4479 11.1962C58.6257 10.3633 58.1708 9.91214 57.3836 8.43722C56.6138 6.96231 56.6313 6.16411 56.4739 4.89742ZM60.8824 9.84273C60.83 9.40893 60.7425 8.97514 60.6375 8.55869C60.8999 7.98607 61.1798 7.37875 61.5297 6.68467C62.3345 5.05359 62.9293 4.58509 63.8215 3.63073C63.699 4.7239 63.3316 5.97324 62.5794 7.50022C61.9496 8.6975 61.3898 9.35688 60.8824 9.84273ZM55.4242 4.35951C55.3542 5.33122 55.5992 6.84084 55.9665 8.00342C56.3339 9.16601 57.2086 10.693 57.9084 11.4044C58.1358 11.6473 59.133 12.7752 59.7628 13.1917C60.3576 13.5734 60.83 13.2264 60.8999 12.0464C61.9146 11.1268 63.0342 9.73862 63.7515 8.35046C65.3785 5.26181 65.1511 2.43344 65.1511 2.1211C65.1511 1.91288 65.0461 1.70466 64.8886 1.60055C64.7487 1.51379 64.5912 1.49643 64.4513 1.54849C64.2413 1.6179 64.1539 1.72201 63.874 1.93023C63.0167 2.5549 62.0371 3.56132 61.1973 4.75861C60.8125 5.33122 60.3926 6.06 60.0427 6.80614C58.7656 4.42892 56.5788 3.35309 56.3689 3.24898C56.2115 3.17958 56.0015 3.19693 55.8266 3.30104C55.6866 3.3878 55.5642 3.52661 55.5117 3.66543C55.4417 3.90836 55.4592 4.02982 55.4242 4.35951Z" fill="#9AC45F"/>
<path d="M73.9332 12.7058C75.7701 12.7058 76.5223 11.9597 76.5223 11.5432C76.5223 11.3697 76.4174 11.2656 76.2074 11.2656C75.5427 11.2656 75.6476 11.9597 74.8779 11.9597C74.1781 11.9597 73.7582 9.35688 73.7582 7.11847C73.7582 5.38328 74.0032 3.8563 74.598 3.8563C75.5776 3.8563 75.2278 4.89742 75.7526 4.89742C75.9625 4.89742 76.4349 4.79331 76.4349 4.44627C76.4349 4.15129 76.3474 2.97135 74.7729 2.97135C71.7289 2.97135 71.344 5.50474 71.344 7.65639C71.344 9.79068 71.7114 12.7058 73.9332 12.7058Z" fill="#9AC45F"/>
<path d="M70.5568 11.2829C70.4168 11.2309 70.2944 11.2135 70.1719 11.2135C69.4022 11.2135 68.9823 11.7341 68.9998 12.0811C69.0173 12.3935 69.3672 12.7926 69.8045 12.7926C70.2069 12.7926 70.9242 12.22 70.9242 11.7515C70.9242 11.5606 70.8192 11.3871 70.5568 11.2829Z" fill="#9AC45F"/>
<path d="M67.7227 12.22C67.7752 11.977 68.195 8.94043 68.195 5.86913C68.195 3.19693 67.5653 2.97135 67.1804 2.97135C66.3931 2.97135 66.3057 3.57867 66.3057 4.23805C66.3057 5.07094 66.4106 5.64356 66.4106 6.75408C66.4106 7.48287 66.3931 8.28106 66.3931 9.04455C66.3931 10.3459 66.3756 11.5606 66.5856 12.0985C66.6905 12.3414 66.9005 12.7058 67.2678 12.7232C67.3903 12.7232 67.6527 12.6538 67.7227 12.22Z" fill="#9AC45F"/>
<path d="M54.8469 10.4674C54.1296 8.36781 53.7622 4.01247 52.8875 3.30104C52.5202 3.00605 52.2402 2.9887 52.0653 2.9887C51.7504 2.9887 51.558 3.02341 51.3655 3.19693C50.9107 3.61337 50.4733 4.70655 50.0535 7.03171C49.7386 8.74956 49.3887 10.6062 49.3887 12.1158C49.3887 12.272 49.4412 12.567 49.791 12.567C50.1234 12.567 50.1234 12.4976 50.2459 12.0117L50.7707 9.65186C51.2781 9.68656 52.5376 9.66921 52.87 9.66921C53.5348 12.567 54.427 12.7232 54.8644 12.7232C55.4592 12.7232 55.7216 12.4976 55.6516 12.0464C55.6166 11.8209 55.1093 11.2135 54.8469 10.4674ZM52.3102 8.62809C52.1353 8.62809 51.2781 8.6628 50.9632 8.71485C51.4005 6.85819 51.6279 6.00795 51.7854 5.36592C52.1703 6.61526 52.2927 7.3267 52.5901 8.64545C52.5901 8.64545 52.4852 8.62809 52.3102 8.62809Z" fill="#9AC45F"/>
<path d="M48.339 11.3524C47.8842 10.7797 47.1319 9.00984 46.5721 8.26371C47.6567 7.82991 47.8142 6.77144 47.8142 5.83443C47.8142 4.61979 46.9745 2.97135 45.26 2.97135H44.1054C42.7234 2.97135 42.6184 3.45721 42.5484 7.51757C42.5309 8.97514 42.4435 10.0163 42.4435 10.7624C42.4435 11.5606 42.5834 12.7232 43.703 12.7232C43.878 12.7232 44.0529 12.7058 44.1754 12.6364C44.3678 12.5323 44.5253 12.3414 44.5428 11.7862C44.5778 11.0747 44.6127 9.89479 44.6477 8.43723C44.8227 8.47193 45.0326 8.48928 45.295 8.48928H45.435C45.6099 9.0966 46.0473 10.4154 46.6246 11.5259C47.0794 12.3935 47.4993 12.6017 47.8142 12.6017C48.1116 12.6017 48.6539 12.3761 48.6539 12.0117C48.6364 11.8382 48.5664 11.63 48.339 11.3524ZM45.3825 7.74315C44.8052 7.74315 44.7177 7.63904 44.6477 7.55228C44.6477 5.93854 44.5952 4.53303 44.4728 3.71749C44.7177 3.66543 44.9626 3.66543 45.2775 3.73484C45.9073 3.90836 46.2047 4.84537 46.2047 5.93854C46.2047 6.87555 45.9423 7.74315 45.3825 7.74315Z" fill="#9AC45F"/>
<path d="M36.4079 3.05811C36.3554 3.05811 36.2855 3.05811 36.233 3.05811H36.093C35.7081 3.05811 35.5332 3.09282 35.4282 3.28369C35.4282 3.30104 35.3233 3.4225 35.2358 3.76954C35.0259 4.7239 34.9209 6.71938 34.9209 10.0163V10.051C34.9209 10.2245 34.9384 11.1441 35.2008 11.8903C35.3932 12.4282 35.6906 12.6538 36.198 12.6538C36.3379 12.6538 36.5829 12.6538 36.7928 12.6538C36.9502 12.6538 37.0727 12.6538 37.1427 12.6538C38.3848 12.6538 39.3295 12.3241 40.0117 11.6473C40.9214 10.7624 41.3763 9.27012 41.3763 7.20523C41.3588 3.92571 38.2448 3.05811 36.4079 3.05811ZM37.1952 11.7688L37.1077 11.7862L37.1252 11.6994C37.1777 11.3177 37.1952 10.8839 37.1952 10.3112C37.1952 9.9989 37.1952 9.66921 37.1777 9.30482C37.1777 8.87102 37.1602 8.38517 37.1602 7.86461C37.1602 6.19882 37.1602 5.00153 37.0027 4.18599L36.9852 4.11658H37.2476C38.2098 4.11658 39.3644 4.7239 39.3644 7.60433C39.3819 8.85367 39.3819 11.4391 37.1952 11.7688Z" fill="#9AC45F"/>
<path d="M23.987 2.97135C22.0276 2.97135 20.6106 4.65449 20.6106 9.35688C20.6106 12.1505 22.1501 12.7058 23.3922 12.7058C24.4418 12.7058 25.4565 12.4108 26.1213 11.682C26.8735 10.8839 27.6608 9.30482 27.6608 6.18147C27.6608 3.12752 24.5643 2.97135 23.987 2.97135ZM24.2144 11.8035C23.0248 11.8035 22.8673 9.9642 22.8673 9.18336C22.8673 4.13393 23.7071 3.8563 24.4068 3.8563C24.8617 3.8563 25.404 4.30745 25.404 6.58056C25.404 10.3633 24.8967 11.8035 24.2144 11.8035Z" fill="#9AC45F"/>
<path d="M33.6613 12.0117V11.977C33.6088 11.682 33.4864 10.9012 31.9469 10.9012C31.3171 10.9012 30.6698 11.0053 30.1275 11.0921L30.005 11.1094L30.0575 10.988C30.4424 10.2418 31.0547 9.27012 31.7019 8.24635C32.6991 6.66732 33.7313 5.03624 33.8887 4.2901C33.9237 4.13393 33.9062 3.99512 33.8712 3.83895C33.8188 3.64808 33.7488 3.52661 33.6788 3.43985C33.4514 3.14487 33.049 3.17957 33.049 3.17957C32.5242 3.17957 32.1218 3.17957 31.7544 3.16222C31.0721 3.16222 30.5823 3.14487 29.8475 3.14487H29.6551C28.448 3.16222 28.3955 3.17957 28.3955 3.57867C28.413 4.01247 29.3402 4.22069 31.2821 4.22069H32.2443L32.1568 4.32481C30.7747 6.09471 29.6901 7.63903 28.8504 9.04454C28.2206 10.103 27.8882 10.9359 27.8882 11.5432C27.8882 11.9076 28.1506 12.4802 28.5705 12.5843C28.6754 12.6191 28.8329 12.6364 29.0603 12.6364C29.2877 12.6364 29.5152 12.6191 29.6551 12.6191H29.7251C30.0925 12.6017 30.5123 12.5496 30.9147 12.5149C31.5095 12.4629 32.0693 12.3935 32.5067 12.3935C32.6291 12.3935 32.7341 12.4108 32.8391 12.4108C32.944 12.4282 33.0665 12.4282 33.1715 12.4282C33.5039 12.4282 33.6088 12.2547 33.6088 12.0811C33.6613 12.0638 33.6613 12.0291 33.6613 12.0117Z" fill="#9AC45F"/>
<path d="M19.6484 11.3524C19.1935 10.7797 18.4763 9.00984 17.9164 8.26371C19.0011 7.82991 19.1585 6.77144 19.1585 5.83443C19.1585 4.61979 18.3188 2.97135 16.6044 2.97135H15.4497C14.0677 2.97135 13.9627 3.45721 13.8928 7.51757C13.8753 8.97514 13.7878 10.0163 13.7878 10.7624C13.7878 11.5606 13.9277 12.7232 15.0474 12.7232C15.2223 12.7232 15.3798 12.6885 15.5197 12.6364C15.7297 12.567 15.8521 12.5149 15.8696 11.9423C15.9046 11.2309 15.9571 9.87744 15.9746 8.41987C16.1495 8.45458 16.3594 8.47193 16.6219 8.47193H16.7618C16.9368 9.07925 17.3566 10.398 17.9339 11.5085C18.3888 12.3761 18.8087 12.5844 19.1235 12.5844C19.421 12.5844 19.9633 12.3588 19.9633 11.9944C19.9283 11.8382 19.8583 11.63 19.6484 11.3524ZM16.6918 7.74315C16.1145 7.74315 16.0271 7.63904 15.9571 7.55228C15.9571 5.93854 15.9046 4.53303 15.7821 3.71749C16.0271 3.66543 16.272 3.66543 16.5869 3.73484C17.2167 3.90836 17.5141 4.84537 17.5141 5.93854C17.5316 6.87555 17.2692 7.74315 16.6918 7.74315Z" fill="#9AC45F"/>
<path d="M83.0827 12.0117V11.977C83.0302 11.682 82.9078 10.9186 81.3858 10.9186C80.756 10.9186 80.1087 11.0227 79.5664 11.1094L79.4439 11.1268L79.4964 11.0053C79.8813 10.2592 80.4936 9.28747 81.1408 8.26371C82.138 6.68468 83.1702 5.05359 83.3276 4.30746C83.3626 4.15129 83.3451 4.01247 83.3101 3.85631C83.2752 3.66543 83.1877 3.54397 83.1177 3.45721C82.8903 3.16223 82.4879 3.19693 82.4879 3.19693C81.9631 3.19693 81.5607 3.19693 81.1933 3.17958C80.5111 3.17958 80.0212 3.16223 79.2865 3.16223H79.094C77.8869 3.17958 77.8344 3.17958 77.8344 3.59603C77.8519 4.02983 78.7791 4.23805 80.721 4.23805H81.6832L81.5957 4.34216C80.2136 6.11206 79.129 7.65639 78.2893 9.0619C77.6595 10.1204 77.3271 10.9533 77.3271 11.5606C77.3271 11.925 77.5895 12.4976 78.0094 12.6017C78.1143 12.6364 78.2718 12.6538 78.4992 12.6538C78.7266 12.6538 78.9541 12.6364 79.094 12.6364H79.164C79.5314 12.6191 79.9512 12.567 80.3536 12.5323C80.9484 12.4629 81.5082 12.4108 81.9456 12.4108C82.068 12.4108 82.173 12.4282 82.278 12.4282C82.3829 12.4455 82.5054 12.4455 82.6104 12.4455C82.9428 12.4455 83.0477 12.272 83.0477 12.0985C83.1002 12.0638 83.1002 12.0291 83.0827 12.0117Z" fill="#9AC45F"/>
<path d="M73.8632 12.7579C75.7001 12.7579 76.4524 12.0117 76.4524 11.5953C76.4524 11.4218 76.3474 11.3177 76.1375 11.3177C75.4727 11.3177 75.5777 12.0117 74.8079 12.0117C74.1081 12.0117 73.6883 9.40893 73.6883 7.17053C73.6883 5.43533 73.9332 3.90836 74.528 3.90836C75.5077 3.90836 75.1578 4.94948 75.6826 4.94948C75.8926 4.94948 76.3649 4.84536 76.3649 4.49832C76.3649 4.20334 76.2774 3.02341 74.7029 3.02341C71.6589 3.02341 71.2741 5.5568 71.2741 7.70844C71.2566 9.82538 71.6414 12.7579 73.8632 12.7579Z" fill="#9AC45F"/>
<path d="M70.4868 11.3177C70.3469 11.2656 70.2244 11.2482 70.1019 11.2482C69.3322 11.2482 68.9123 11.7688 68.9298 12.1158C68.9473 12.4282 69.2972 12.8273 69.7346 12.8273C70.1369 12.8273 70.8542 12.2547 70.8542 11.7862C70.8542 11.5953 70.7492 11.4391 70.4868 11.3177Z" fill="#9AC45F"/>
<path d="M67.6352 12.272C67.6877 12.0291 68.1076 8.99249 68.1076 5.92119C68.1076 3.24898 67.4778 3.02341 67.0929 3.02341C66.3057 3.02341 66.2182 3.63073 66.2182 4.2901C66.2182 5.123 66.3232 5.69561 66.3232 6.80614C66.3232 7.53492 66.3057 8.33311 66.3057 9.0966C66.3057 10.398 66.2882 11.6126 66.4981 12.1505C66.6031 12.3935 66.813 12.7579 67.1804 12.7752C67.3203 12.7752 67.5828 12.6885 67.6352 12.272Z" fill="#9AC45F"/>
<path d="M83.0127 12.0464V12.0117C82.9602 11.7167 82.8378 10.9533 81.3158 10.9533C80.686 10.9533 80.0387 11.0574 79.4964 11.1441L79.3739 11.1615L79.4264 11.04C79.8113 10.2939 80.4236 9.32217 81.0709 8.29841C82.068 6.71938 83.1002 5.08829 83.2576 4.34216C83.2926 4.18599 83.2751 4.04717 83.2402 3.891C83.2052 3.70013 83.1177 3.57867 83.0477 3.49191C82.8203 3.19693 82.4179 3.23163 82.4179 3.23163C81.8931 3.23163 81.4907 3.23163 81.1233 3.21428C80.4411 3.21428 79.9512 3.19693 79.2165 3.19693H79.024C77.8169 3.21428 77.7644 3.23163 77.7644 3.63072C77.7819 4.06452 78.7091 4.27275 80.651 4.27275H81.6132L81.5257 4.37686C80.1437 6.14676 79.059 7.69109 78.2193 9.0966C77.5895 10.1551 77.2571 10.988 77.2571 11.5953C77.2571 11.9597 77.5195 12.5323 77.9394 12.6364C78.0444 12.6711 78.2018 12.6885 78.4292 12.6885C78.6567 12.6885 78.8841 12.6711 79.024 12.6711H79.094C79.4614 12.6538 79.8813 12.6017 80.2836 12.567C80.8784 12.4976 81.4382 12.4455 81.8756 12.4455C81.9981 12.4455 82.103 12.4629 82.208 12.4629C82.313 12.4802 82.4354 12.4802 82.5404 12.4802C82.8728 12.4802 82.9777 12.3067 82.9777 12.1332C83.0302 12.0985 83.0302 12.0811 83.0127 12.0464Z" fill="#9AC45F"/>
<path d="M9.02934 8.55869V11.7167C9.02934 12.4282 8.92437 12.7752 8.03216 12.7752C7.15745 12.7752 7 12.0117 7 10.5368C7 9.1313 7.17494 7.43081 7.17494 6.26823C7.17494 5.92119 7.17494 5.52209 7.17494 5.00153C7.17494 3.54397 7.62979 2.97135 8.13713 2.97135C8.55699 2.97135 8.8544 3.14487 8.95936 3.21428C9.22178 3.04076 9.57166 2.93665 10.044 2.93665C11.5485 2.93665 12.6507 3.57867 12.6507 5.24446C12.6507 6.54586 12.1608 8.6975 9.69412 8.6975C9.39672 8.6975 9.18679 8.64545 9.02934 8.55869ZM9.1518 5.53944V7.58698C9.34424 7.7952 9.81658 8.00343 10.3414 7.69109C10.7963 7.43081 10.9887 6.47645 11.0062 5.34857C11.0237 4.60244 10.7263 3.73484 10.2539 3.71749C9.39672 3.70013 9.16929 4.82801 9.16929 5.10564C9.1518 5.1577 9.16929 5.33122 9.1518 5.53944Z" fill="#9AC45F"/>
<path d="M7.17494 15.1177H8.39954C8.66196 15.1177 8.88938 15.1351 9.08182 15.1871C9.25676 15.2392 9.41421 15.3433 9.51918 15.5168C9.62414 15.6903 9.67663 15.8639 9.67663 16.0721C9.67663 16.4018 9.57166 16.6447 9.36173 16.8182C9.1518 16.9917 8.8369 17.0785 8.45203 17.0785H7.6123V18.3799H7.17494V15.1177ZM7.6123 16.6968H8.45203C8.73193 16.6968 8.92437 16.6447 9.04683 16.5406C9.16929 16.4365 9.22177 16.2803 9.22177 16.0894C9.22177 15.9506 9.18679 15.8465 9.11681 15.7424C9.04683 15.6383 8.95936 15.5689 8.87189 15.5515C8.78442 15.5342 8.62697 15.5168 8.43453 15.5168H7.6123V16.6968Z" fill="#9AC45F"/>
<path d="M11.4086 15.0657L10.9187 15.6904H10.4814L9.97403 15.0657H10.4289L10.6913 15.4474L10.9537 15.0657H11.4086ZM11.4436 16.4191C11.3911 16.4018 11.3036 16.3844 11.1811 16.3844C10.9712 16.3844 10.7788 16.4885 10.6213 16.7141V18.3799H10.2015V16.0374H10.6213V16.3671C10.7963 16.1068 11.0062 15.9853 11.2511 15.9853C11.3036 15.9853 11.3736 15.9853 11.4436 16.0027V16.4191Z" fill="#9AC45F"/>
<path d="M12.5282 15.0657L12.0384 15.6904H11.706L12.0034 15.0657H12.5282ZM12.1608 18.3973H11.7235V16.0374H12.1433V18.3973H12.1608Z" fill="#9AC45F"/>
<path d="M14.0152 16.4191C13.9627 16.4018 13.8753 16.3844 13.7528 16.3844C13.5429 16.3844 13.3504 16.4885 13.193 16.7141V18.3799H12.7731V16.0374H13.193V16.3671C13.3679 16.1068 13.5779 15.9853 13.8228 15.9853C13.8753 15.9853 13.9452 15.9853 14.0152 16.0027V16.4191Z" fill="#9AC45F"/>
<path d="M15.2923 15.968C15.6247 15.968 15.9046 16.0721 16.1145 16.2977C16.3245 16.5059 16.4119 16.8182 16.4119 17.2173C16.4119 17.6164 16.307 17.9114 16.1145 18.137C15.9221 18.3626 15.6422 18.4667 15.2923 18.4667C14.9599 18.4667 14.68 18.3626 14.4701 18.137C14.2601 17.9288 14.1727 17.6164 14.1727 17.2173C14.1727 16.8182 14.2776 16.5233 14.4701 16.2977C14.68 16.0895 14.9424 15.968 15.2923 15.968ZM15.2923 18.1196C15.5022 18.1196 15.6597 18.0502 15.7821 17.8941C15.9046 17.7379 15.9746 17.5123 15.9746 17.2173C15.9746 16.9223 15.9046 16.6794 15.7821 16.5406C15.6597 16.3844 15.4847 16.315 15.2923 16.315C15.0824 16.315 14.9249 16.3844 14.8025 16.5406C14.68 16.6968 14.61 16.9223 14.61 17.2173C14.61 17.5123 14.68 17.7379 14.8025 17.8941C14.9249 18.0502 15.0824 18.1196 15.2923 18.1196Z" fill="#9AC45F"/>
<path d="M18.3888 18.1196C18.1964 18.3452 17.9689 18.4667 17.7065 18.4667C17.3916 18.4667 17.1467 18.3626 16.9892 18.137C16.8143 17.9114 16.7268 17.6164 16.7268 17.252C16.7268 16.8703 16.8143 16.5579 17.0067 16.3324C17.1992 16.1068 17.4441 16.0027 17.724 16.0027C17.9864 16.0027 18.1964 16.0894 18.3713 16.2456V15.1524H18.7912V18.432H18.3713V18.1196H18.3888ZM18.3888 17.7205V16.5927C18.2138 16.4018 18.0039 16.2977 17.759 16.2977C17.5841 16.2977 17.4266 16.3671 17.3216 16.5232C17.2167 16.6794 17.1642 16.905 17.1642 17.2173C17.1642 17.5123 17.2167 17.7379 17.3216 17.8767C17.4266 18.0329 17.5666 18.1023 17.7415 18.1023C17.9864 18.1196 18.1964 17.9808 18.3888 17.7205Z" fill="#9AC45F"/>
<path d="M19.8758 16.3324C20.0857 16.0894 20.3307 15.9853 20.5931 15.9853C21.1354 15.9853 21.3978 16.2803 21.3978 16.8529V18.3973H20.9779V16.8703C20.9779 16.6794 20.943 16.5406 20.873 16.4538C20.803 16.3671 20.6805 16.3324 20.5231 16.3324C20.3132 16.3324 20.0857 16.4538 19.8758 16.7141V18.4146H19.4559V16.0374H19.8758V16.3324Z" fill="#9AC45F"/>
<path d="M22.7974 15.0657L22.3075 15.6904H21.9751L22.2725 15.0657H22.7974ZM22.43 18.3973H22.0101V16.0374H22.43V18.3973Z" fill="#9AC45F"/>
<path d="M25.2466 18.4493C24.9142 18.4493 24.6342 18.3452 24.4243 18.1196C24.2144 17.9114 24.1269 17.5991 24.1269 17.2C24.1269 16.8009 24.2319 16.5059 24.4243 16.2803C24.6342 16.0721 24.8967 15.9506 25.2466 15.9506C25.509 15.9506 25.7189 16.02 25.8938 16.1415C26.0688 16.2803 26.1737 16.4538 26.2087 16.7141H25.7714C25.7714 16.5753 25.7189 16.4712 25.6139 16.3844C25.509 16.315 25.3865 16.2803 25.2466 16.2803C25.0366 16.2803 24.8792 16.3497 24.7567 16.5059C24.6342 16.6621 24.5643 16.8876 24.5643 17.1826C24.5643 17.4776 24.6342 17.7032 24.7567 17.8594C24.8792 18.0155 25.0541 18.0849 25.2466 18.0849C25.3865 18.0849 25.509 18.0502 25.6139 17.9808C25.7189 17.9114 25.7714 17.8073 25.7714 17.6511H26.2087C26.1737 17.8941 26.0688 18.0849 25.8938 18.2237C25.7364 18.3973 25.509 18.4493 25.2466 18.4493Z" fill="#9AC45F"/>
<path d="M27.6083 18.4493C27.2584 18.4493 26.9785 18.3452 26.7686 18.1196C26.5586 17.8941 26.4537 17.5991 26.4537 17.2C26.4537 16.8182 26.5586 16.5059 26.7686 16.2977C26.9785 16.0721 27.2409 15.968 27.5733 15.968C27.9057 15.968 28.1856 16.0721 28.3955 16.2977C28.6055 16.5059 28.6929 16.8182 28.6929 17.2173V17.3214H26.891C26.9085 17.5991 26.9785 17.7899 27.1184 17.9288C27.2584 18.0676 27.4158 18.1196 27.6083 18.1196C27.7482 18.1196 27.8882 18.0849 28.0106 18.0155C28.1331 17.9461 28.1856 17.842 28.2031 17.7032H28.6404C28.6055 17.9461 28.5005 18.137 28.3081 18.2758C28.1156 18.3799 27.8707 18.4493 27.6083 18.4493ZM28.2381 16.9918C28.2031 16.7662 28.1331 16.5927 28.0106 16.4885C27.8882 16.3671 27.7482 16.315 27.5733 16.315C27.3984 16.315 27.2584 16.3671 27.1359 16.4885C27.0135 16.5927 26.9435 16.7662 26.9085 17.0091H28.2381V16.9918Z" fill="#9AC45F"/>
<path d="M30.005 18.4493C29.3577 18.4493 29.0078 18.189 28.9728 17.6858H29.3927C29.3927 17.9808 29.5851 18.1196 29.9875 18.1196C30.1625 18.1196 30.3024 18.0849 30.3899 18.0155C30.4773 17.9461 30.5298 17.8594 30.5298 17.7379C30.5298 17.6338 30.4773 17.547 30.3899 17.5123C30.3024 17.4603 30.11 17.4082 29.8301 17.3388C29.5502 17.2694 29.3402 17.1826 29.2178 17.0959C29.0953 17.0091 29.0253 16.8529 29.0253 16.6447C29.0253 16.4538 29.1128 16.2803 29.2702 16.1589C29.4277 16.0374 29.6551 15.968 29.9175 15.968C30.5473 15.968 30.8622 16.1936 30.8797 16.6274H30.4599C30.4424 16.4018 30.2674 16.2977 29.9525 16.2977C29.8126 16.2977 29.6901 16.3324 29.6026 16.3844C29.5152 16.4365 29.4627 16.5233 29.4627 16.6274C29.4627 16.7141 29.4977 16.7835 29.5676 16.8356C29.6376 16.8703 29.8126 16.9397 30.11 17.0091C30.4074 17.0785 30.6173 17.1653 30.7573 17.252C30.8972 17.3388 30.9672 17.5123 30.9672 17.7379C30.9672 17.9461 30.8797 18.137 30.7048 18.2758C30.5298 18.4146 30.3024 18.4493 30.005 18.4493Z" fill="#9AC45F"/>
<path d="M32.3842 18.3973C32.2968 18.4146 32.1918 18.432 32.0868 18.432C31.9119 18.432 31.7894 18.3973 31.7019 18.3452C31.6145 18.2758 31.562 18.2064 31.5445 18.1023C31.527 17.9982 31.5095 17.8767 31.5095 17.7032V16.3671H31.2121V16.0374H31.5095V15.4474H31.9294V16.0374H32.3142V16.3671H31.9294V17.7379C31.9294 17.8941 31.9469 17.9982 31.9993 18.0502C32.0343 18.1023 32.1043 18.1196 32.1743 18.1196C32.2443 18.1196 32.3142 18.1196 32.3842 18.1023V18.3973Z" fill="#9AC45F"/>
<path d="M33.7138 15.968C34.0462 15.968 34.3261 16.0721 34.536 16.2977C34.7459 16.5059 34.8334 16.8182 34.8334 17.2173C34.8334 17.6164 34.7285 17.9114 34.536 18.137C34.3436 18.3626 34.0637 18.4667 33.7138 18.4667C33.3814 18.4667 33.1015 18.3626 32.8916 18.137C32.6816 17.9288 32.5942 17.6164 32.5942 17.2173C32.5942 16.8182 32.6991 16.5233 32.8916 16.2977C33.1015 16.0895 33.3639 15.968 33.7138 15.968ZM33.7138 18.1196C33.9237 18.1196 34.0812 18.0502 34.2036 17.8941C34.3261 17.7379 34.3961 17.5123 34.3961 17.2173C34.3961 16.9223 34.3261 16.6794 34.2036 16.5406C34.0812 16.3844 33.9062 16.315 33.7138 16.315C33.5039 16.315 33.3464 16.3844 33.2239 16.5406C33.1015 16.6968 33.0315 16.9223 33.0315 17.2173C33.0315 17.5123 33.1015 17.7379 33.2239 17.8941C33.3464 18.0502 33.5039 18.1196 33.7138 18.1196Z" fill="#9AC45F"/>
<path d="M36.8103 18.1023C36.6003 18.3452 36.3554 18.4667 36.093 18.4667C35.5507 18.4667 35.2883 18.1717 35.2883 17.5991V16.0547H35.7081V17.5817C35.7081 17.7726 35.7431 17.9114 35.8131 17.9982C35.8831 18.0849 35.988 18.1196 36.163 18.1196C36.4079 18.1196 36.6178 17.9982 36.8103 17.7379V16.0374H37.2301V18.4146H36.8103V18.1023Z" fill="#9AC45F"/>
<path d="M41.0614 18.3973H40.5541L39.7843 17.2L39.5219 17.4603V18.3973H39.102V15.1177H39.5219V16.9744L40.4491 16.02H40.9914L40.0817 16.905L41.0614 18.3973Z" fill="#9AC45F"/>
<path d="M42.4085 18.4493C42.0586 18.4493 41.7787 18.3452 41.5687 18.1196C41.3588 17.8941 41.2538 17.5991 41.2538 17.2C41.2538 16.8182 41.3588 16.5059 41.5687 16.2977C41.7787 16.0721 42.0411 15.968 42.3735 15.968C42.7059 15.968 42.9858 16.0721 43.1957 16.2977C43.4056 16.5059 43.4931 16.8182 43.4931 17.2173V17.3214H41.6912C41.7087 17.5991 41.7787 17.7899 41.9186 17.9288C42.0586 18.0676 42.216 18.1196 42.4085 18.1196C42.5484 18.1196 42.6884 18.0849 42.8108 18.0155C42.9333 17.9461 42.9858 17.842 43.0033 17.7032H43.4406C43.4056 17.9461 43.3007 18.137 43.1082 18.2758C42.9158 18.3799 42.6884 18.4493 42.4085 18.4493ZM43.0382 16.9918C43.0033 16.7662 42.9333 16.5927 42.8108 16.4885C42.6884 16.3671 42.5484 16.315 42.3735 16.315C42.1985 16.315 42.0586 16.3671 41.9361 16.4885C41.8136 16.5927 41.7437 16.7662 41.7087 17.0091H43.0382V16.9918Z" fill="#9AC45F"/>
<path d="M46.0298 18.4493C45.3825 18.4493 45.0326 18.189 44.9976 17.6858H45.4175C45.4175 17.9808 45.6099 18.1196 46.0123 18.1196C46.1872 18.1196 46.3272 18.0849 46.4146 18.0155C46.5021 17.9461 46.5546 17.8594 46.5546 17.7379C46.5546 17.6338 46.5021 17.547 46.4146 17.5123C46.3272 17.4603 46.1347 17.4082 45.8548 17.3388C45.5749 17.2694 45.365 17.1826 45.2425 17.0959C45.1201 17.0091 45.0501 16.8529 45.0501 16.6447C45.0501 16.4538 45.1376 16.2803 45.295 16.1589C45.4525 16.0374 45.6799 15.968 45.9423 15.968C46.5721 15.968 46.887 16.1936 46.9045 16.6274H46.4846C46.4671 16.4018 46.2922 16.2977 45.9773 16.2977C45.8373 16.2977 45.7149 16.3324 45.6274 16.3844C45.5399 16.4365 45.4874 16.5233 45.4874 16.6274C45.4874 16.7141 45.5224 16.7835 45.5924 16.8356C45.6624 16.8703 45.8373 16.9397 46.1347 17.0091C46.4321 17.0785 46.6421 17.1653 46.782 17.252C46.922 17.3388 46.992 17.5123 46.992 17.7379C46.992 17.9461 46.9045 18.137 46.7295 18.2758C46.5546 18.3799 46.3272 18.4493 46.0298 18.4493Z" fill="#9AC45F"/>
<path d="M49.4587 18.3973H48.9513L48.1816 17.2L47.9192 17.4603V18.3973H47.4993V15.1177H47.9192V16.9744L48.8464 16.02H49.3887L48.479 16.905L49.4587 18.3973Z" fill="#9AC45F"/>
<path d="M51.3131 18.1023C51.1031 18.3452 50.8582 18.4667 50.5958 18.4667C50.0535 18.4667 49.7911 18.1717 49.7911 17.5991V16.0547H50.2109V17.5817C50.2109 17.7726 50.2459 17.9114 50.3159 17.9982C50.3859 18.0849 50.4908 18.1196 50.6658 18.1196C50.9107 18.1196 51.1206 17.9982 51.3131 17.7379V16.0374H51.7329V18.4146H51.3131V18.1023Z" fill="#9AC45F"/>
<path d="M53.2899 18.3973C53.2024 18.4146 53.0975 18.432 52.9925 18.432C52.8176 18.432 52.6951 18.3973 52.6076 18.3452C52.5202 18.2758 52.4677 18.2064 52.4502 18.1023C52.4327 17.9982 52.4152 17.8767 52.4152 17.7032V16.3671H52.1178V16.0374H52.4152V15.4474H52.835V16.0374H53.2199V16.3671H52.835V17.7379C52.835 17.8941 52.8525 17.9982 52.905 18.0502C52.94 18.1023 53.01 18.1196 53.08 18.1196C53.1499 18.1196 53.2199 18.1196 53.2899 18.1023V18.3973Z" fill="#9AC45F"/>
<path d="M54.6545 18.4493C54.3046 18.4493 54.0247 18.3452 53.8147 18.1196C53.6048 17.8941 53.4998 17.5991 53.4998 17.2C53.4998 16.8182 53.6048 16.5059 53.8147 16.2977C54.0247 16.0721 54.2871 15.968 54.6195 15.968C54.9519 15.968 55.2318 16.0721 55.4417 16.2977C55.6516 16.5059 55.7391 16.8182 55.7391 17.2173V17.3214H53.9372C53.9547 17.5991 54.0247 17.7899 54.1646 17.9288C54.3046 18.0676 54.462 18.1196 54.6545 18.1196C54.7944 18.1196 54.9344 18.0849 55.0568 18.0155C55.1793 17.9461 55.2318 17.842 55.2493 17.7032H55.6866C55.6516 17.9461 55.5467 18.137 55.3542 18.2758C55.1618 18.4146 54.9169 18.4493 54.6545 18.4493ZM55.2843 16.9918C55.2493 16.7662 55.1793 16.5927 55.0568 16.4885C54.9344 16.3671 54.7944 16.315 54.6195 16.315C54.4445 16.315 54.3046 16.3671 54.1821 16.4885C54.0597 16.5927 53.9897 16.7662 53.9547 17.0091H55.2843V16.9918Z" fill="#9AC45F"/>
<path d="M57.1737 18.4493C56.8413 18.4493 56.5614 18.3452 56.3514 18.1196C56.1415 17.8941 56.054 17.5991 56.054 17.2C56.054 16.8009 56.159 16.5059 56.3514 16.2803C56.5614 16.0721 56.8238 15.9506 57.1737 15.9506C57.4361 15.9506 57.646 16.02 57.8209 16.1415C57.9959 16.2803 58.1008 16.4538 58.1358 16.7141H57.6985C57.6985 16.5753 57.646 16.4712 57.541 16.3844C57.4361 16.315 57.3136 16.2803 57.1737 16.2803C56.9637 16.2803 56.8063 16.3497 56.6838 16.5059C56.5614 16.6621 56.4914 16.8876 56.4914 17.1826C56.4914 17.4776 56.5614 17.7032 56.6838 17.8593C56.8063 18.0155 56.9812 18.0849 57.1737 18.0849C57.3136 18.0849 57.4361 18.0502 57.541 17.9808C57.646 17.9114 57.6985 17.8073 57.6985 17.6511H58.1358C58.1008 17.8941 57.9959 18.0849 57.8209 18.2237C57.646 18.3626 57.4361 18.4493 57.1737 18.4493ZM57.8209 15.0657L57.3311 15.6904H56.8937L56.4039 15.0657H56.8588L57.1212 15.4474L57.3836 15.0657H57.8209Z" fill="#9AC45F"/>
<path d="M58.9231 16.3324C59.133 16.0894 59.3779 15.9853 59.6403 15.9853C60.1827 15.9853 60.4451 16.2803 60.4451 16.8529V18.3973H60.0252V16.8703C60.0252 16.6794 59.9902 16.5406 59.9202 16.4538C59.8503 16.3671 59.7278 16.3324 59.5704 16.3324C59.3604 16.3324 59.133 16.4538 58.9231 16.7141V18.4146H58.5032V16.0374H58.9231V16.3324Z" fill="#9AC45F"/>
<path d="M62.0895 18.4493C61.7396 18.4493 61.4597 18.3452 61.2498 18.1196C61.0399 17.8941 60.9349 17.5991 60.9349 17.2C60.9349 16.8182 61.0399 16.5059 61.2498 16.2977C61.4597 16.0721 61.7222 15.968 62.0545 15.968C62.3869 15.968 62.6668 16.0721 62.8768 16.2977C63.0867 16.5059 63.1742 16.8182 63.1742 17.2173V17.3214H61.3723C61.3898 17.5991 61.4597 17.7899 61.5997 17.9288C61.7396 18.0676 61.8971 18.1196 62.0895 18.1196C62.2295 18.1196 62.3694 18.0849 62.4919 18.0155C62.6144 17.9461 62.6668 17.842 62.6843 17.7032H63.1217C63.0867 17.9461 62.9817 18.137 62.7893 18.2758C62.5969 18.4146 62.3519 18.4493 62.0895 18.4493ZM62.7018 16.9918C62.6668 16.7662 62.5969 16.5927 62.4744 16.4885C62.3519 16.3671 62.212 16.315 62.0371 16.315C61.8621 16.315 61.7222 16.3671 61.5997 16.4885C61.4772 16.5927 61.4073 16.7662 61.3723 17.0091H62.7018V16.9918ZM62.6144 15.0657L62.1245 15.6904H61.7921L62.0895 15.0657H62.6144Z" fill="#9AC45F"/>
<path d="M66.8655 18.3973H66.4456V16.8703C66.4456 16.6794 66.4106 16.5406 66.3582 16.4538C66.3057 16.3671 66.2007 16.3324 66.0782 16.3324C65.8683 16.3324 65.6759 16.4538 65.4659 16.7141V18.4146H65.0461V16.8876C65.0461 16.6968 65.0111 16.5579 64.9586 16.4712C64.9061 16.3844 64.8012 16.3497 64.6787 16.3497C64.4688 16.3497 64.2763 16.4712 64.0839 16.7315V18.432H63.664V16.0374H64.0839V16.3324C64.2763 16.0894 64.5038 15.9853 64.7487 15.9853C65.0986 15.9853 65.326 16.1241 65.4135 16.4191C65.5709 16.2283 65.7109 16.1068 65.8158 16.0721C65.9208 16.02 66.0433 16.0027 66.1482 16.0027C66.6381 16.0027 66.883 16.2977 66.883 16.8703V18.3973H66.8655Z" fill="#9AC45F"/>
<path d="M68.9823 18.1023C68.7724 18.3452 68.5275 18.4667 68.265 18.4667C67.7227 18.4667 67.4603 18.1717 67.4603 17.5991V16.0547H67.8802V17.5817C67.8802 17.7726 67.9151 17.9114 67.9851 17.9982C68.0551 18.0849 68.1601 18.1196 68.335 18.1196C68.5799 18.1196 68.7899 17.9982 68.9823 17.7379V16.0374H69.4022V18.4146H68.9823V18.1023Z" fill="#9AC45F"/>
<path d="M73.1634 18.3973H71.0466V18.0329L72.5336 16.3844H71.1341V16.02H73.0935V16.3844L71.6064 18.0329H73.1634V18.3973Z" fill="#9AC45F"/>
<path d="M75.0703 18.1196C74.8779 18.3452 74.6505 18.4667 74.388 18.4667C74.0731 18.4667 73.8282 18.3626 73.6708 18.137C73.4958 17.9114 73.4084 17.6164 73.4084 17.252C73.4084 16.8703 73.4958 16.5579 73.6883 16.3324C73.8807 16.1068 74.1256 16.0027 74.4055 16.0027C74.6679 16.0027 74.8779 16.0894 75.0528 16.2456V15.1524H75.4727V18.432H75.0528V18.1196H75.0703ZM75.0703 17.7205V16.5927C74.8954 16.4018 74.6854 16.2977 74.4405 16.2977C74.2656 16.2977 74.1081 16.3671 74.0032 16.5232C73.8982 16.6794 73.8457 16.905 73.8457 17.2173C73.8457 17.5123 73.8982 17.7379 74.0032 17.8767C74.1081 18.0329 74.2481 18.1023 74.423 18.1023C74.6679 18.1196 74.8779 17.9808 75.0703 17.7205Z" fill="#9AC45F"/>
<path d="M77.3621 16.4191C77.3096 16.4018 77.2221 16.3844 77.0996 16.3844C76.8897 16.3844 76.6973 16.4885 76.5398 16.7141V18.3799H76.12V16.0374H76.5398V16.3671C76.7148 16.1068 76.9247 15.9853 77.1696 15.9853C77.2221 15.9853 77.2921 15.9853 77.3621 16.0027V16.4191Z" fill="#9AC45F"/>
<path d="M79.1815 18.1543C78.9715 18.3452 78.6916 18.4493 78.3417 18.4493C78.0968 18.4493 77.9044 18.3799 77.7644 18.2584C77.607 18.137 77.537 17.9635 77.537 17.7726C77.537 17.2173 78.0094 16.9397 78.9715 16.9397H79.1815C79.1815 16.7662 79.164 16.6447 79.1465 16.5753C79.129 16.5059 79.0765 16.4365 78.989 16.3844C78.9016 16.3324 78.7791 16.315 78.5867 16.315C78.2018 16.315 78.0094 16.4538 78.0094 16.7141H77.5895C77.6245 16.2283 77.9569 15.9853 78.6217 15.9853C78.9366 15.9853 79.164 16.0374 79.3389 16.1589C79.5139 16.2803 79.6013 16.5232 79.6013 16.8703V18.3973H79.1815V18.1543ZM79.1815 17.7726V17.252H78.8841C78.2718 17.252 77.9569 17.4256 77.9569 17.7552C77.9569 17.8767 78.0094 17.9635 78.0968 18.0329C78.1843 18.1023 78.3068 18.137 78.4642 18.137C78.6042 18.137 78.7441 18.1023 78.8666 18.0502C78.989 17.9982 79.1115 17.8767 79.1815 17.7726Z" fill="#9AC45F"/>
<path d="M82.1555 16.0374L81.2458 18.4146H80.8609L79.9512 16.0374H80.4061L81.0359 17.8941L81.6657 16.0374H82.1555Z" fill="#9AC45F"/>
<path d="M83.3276 15.0657L82.8378 15.6904H82.5054L82.8028 15.0657H83.3276ZM82.9602 18.3973H82.5404V16.0374H82.9602V18.3973Z" fill="#9AC45F"/>
</svg>
