<svg width="51" height="28" viewBox="0 0 51 28" fill="none" xmlns="http://www.w3.org/2000/svg">
  <title>Rohlik.cz</title>
  <g>
    <path fill-rule="evenodd" clip-rule="evenodd"
          d="M1.06268 10.8431H2.18408V11.7611H2.2104C2.28411 11.6019 2.38414 11.4587 2.51049 11.326C2.63684 11.1986 2.77373 11.0872 2.92641 10.9917C3.07908 10.9015 3.24756 10.8272 3.43182 10.7741C3.61609 10.7211 3.79509 10.6945 3.97936 10.6945C4.16362 10.6945 4.32683 10.7211 4.47951 10.7688L4.43213 11.9893C4.34262 11.9628 4.24786 11.9415 4.15836 11.9256C4.06886 11.9097 3.97409 11.8991 3.88459 11.8991C3.33706 11.8991 2.91588 12.053 2.62631 12.3661C2.33675 12.6738 2.18934 13.1567 2.18934 13.8094V16.8023H1.06268V10.8431ZM5.16393 13.8253C5.16393 13.3902 5.2429 12.9816 5.40611 12.6049C5.56931 12.2281 5.79043 11.8991 6.07473 11.6125C6.35903 11.326 6.69071 11.1031 7.06977 10.9386C7.45409 10.7741 7.86475 10.6945 8.30172 10.6945C8.74396 10.6945 9.15461 10.7741 9.53367 10.9386C9.918 11.1031 10.2497 11.326 10.5287 11.6125C10.813 11.8991 11.0341 12.2281 11.1973 12.6049C11.3605 12.9816 11.4395 13.3902 11.4395 13.8253C11.4395 14.2605 11.3605 14.6691 11.1973 15.0511C11.0341 15.4332 10.813 15.7622 10.5287 16.0435C10.2444 16.3247 9.91273 16.5476 9.53367 16.7068C9.14935 16.8713 8.73869 16.9509 8.30172 16.9509C7.85948 16.9509 7.44883 16.8713 7.06977 16.7068C6.68544 16.5423 6.35376 16.3194 6.07473 16.0435C5.79043 15.7622 5.56931 15.4332 5.40611 15.0511C5.24816 14.6691 5.16393 14.2605 5.16393 13.8253ZM6.36429 13.8253C6.36429 14.1278 6.41167 14.4037 6.50117 14.6585C6.59068 14.9132 6.72229 15.1307 6.8855 15.3112C7.05397 15.4916 7.25403 15.6349 7.49621 15.741C7.73839 15.8471 8.00689 15.9002 8.30698 15.9002C8.60708 15.9002 8.87558 15.8471 9.11776 15.741C9.35994 15.6349 9.56 15.4916 9.72847 15.3112C9.89694 15.1307 10.0233 14.9132 10.1128 14.6585C10.2023 14.4037 10.2497 14.1225 10.2497 13.8253C10.2497 13.5229 10.2023 13.2469 10.1128 12.9922C10.0233 12.7375 9.89167 12.5199 9.72847 12.3395C9.56 12.1591 9.35994 12.0158 9.11776 11.9097C8.87558 11.8036 8.60708 11.7505 8.30698 11.7505C8.00689 11.7505 7.73839 11.8036 7.49621 11.9097C7.25403 12.0158 7.05397 12.1591 6.8855 12.3395C6.71703 12.5199 6.59068 12.7375 6.50117 12.9922C6.40641 13.2416 6.36429 13.5229 6.36429 13.8253Z"
          fill="#313131"/>
    <path fill-rule="evenodd" clip-rule="evenodd"
          d="M12.8555 7.30371H13.9769V11.7665H14.0033C14.1454 11.4481 14.3876 11.1881 14.7403 10.9917C15.0878 10.7954 15.4932 10.6946 15.9512 10.6946C16.2355 10.6946 16.504 10.737 16.7673 10.8272C17.0305 10.9174 17.2569 11.0501 17.4517 11.2358C17.6465 11.4215 17.8044 11.655 17.9202 11.9469C18.0361 12.2334 18.094 12.5783 18.094 12.971V16.8023H16.9726V13.2841C16.9726 13.0082 16.9357 12.7694 16.862 12.573C16.7883 12.3767 16.6883 12.2175 16.5619 12.0955C16.4356 11.9734 16.2934 11.8885 16.1302 11.8301C15.967 11.7771 15.7985 11.7505 15.6248 11.7505C15.3932 11.7505 15.1773 11.7877 14.9772 11.862C14.7772 11.9363 14.6034 12.0583 14.456 12.2175C14.3086 12.382 14.1875 12.589 14.1086 12.8384C14.0243 13.0878 13.9822 13.3849 13.9822 13.7299V16.797H12.8608V7.30371H12.8555ZM19.8735 7.30371H20.9949V16.8023H19.8735V7.30371ZM22.6059 8.70993C22.6059 8.48175 22.6849 8.29072 22.8481 8.12621C23.0113 7.96171 23.2008 7.88212 23.4272 7.88212C23.6536 7.88212 23.8431 7.96171 24.0063 8.12621C24.1695 8.29072 24.2485 8.48175 24.2485 8.70993C24.2485 8.93811 24.1695 9.12914 24.0063 9.29364C23.8431 9.45814 23.6536 9.53774 23.4272 9.53774C23.2008 9.53774 23.0113 9.45814 22.8481 9.29364C22.6849 9.12914 22.6059 8.93811 22.6059 8.70993ZM22.8639 10.8431H23.9852V16.797H22.8639V10.8431ZM25.77 7.30371H26.8914V13.4327L29.4343 10.8591H30.9926L28.2392 13.56L31.2296 16.8023H29.6343L26.8914 13.7086V16.8023H25.77V7.30371Z"
          fill="#313131"/>
    <path fill-rule="evenodd" clip-rule="evenodd"
          d="M21.7685 23.6848C21.7685 23.5628 21.8106 23.4619 21.8949 23.3823C21.9791 23.2974 22.0791 23.255 22.195 23.255C22.3161 23.255 22.4161 23.2974 22.4951 23.3823C22.5793 23.4672 22.6214 23.5681 22.6214 23.6848C22.6214 23.8015 22.5793 23.9077 22.4951 23.9873C22.4108 24.0722 22.3108 24.1146 22.195 24.1146C22.0791 24.1146 21.9791 24.0722 21.8949 23.9873C21.8106 23.9024 21.7685 23.8015 21.7685 23.6848Z"
          fill="#767676"/>
    <path fill-rule="evenodd" clip-rule="evenodd"
          d="M27.4918 23.4513C27.2917 23.6954 27.0653 23.8758 26.8074 23.9926C26.5547 24.1093 26.2809 24.1677 25.9808 24.1677C25.6649 24.1677 25.3806 24.1146 25.1121 24.0085C24.8436 23.9024 24.6172 23.7485 24.4277 23.5574C24.2382 23.3664 24.0908 23.1329 23.9855 22.8676C23.8802 22.6023 23.8275 22.3104 23.8275 21.9973C23.8275 21.6843 23.8802 21.3924 23.9855 21.1271C24.0908 20.8618 24.2382 20.6336 24.4277 20.4372C24.6172 20.2462 24.8436 20.0923 25.1121 19.9862C25.3806 19.8801 25.6702 19.827 25.9808 19.827C26.2809 19.827 26.5599 19.8907 26.8179 20.0127C27.0759 20.1401 27.3023 20.3152 27.5076 20.5381L27.0811 20.8618C26.9285 20.692 26.76 20.554 26.5757 20.4532C26.3915 20.3523 26.1967 20.3046 25.9808 20.3046C25.7334 20.3046 25.507 20.347 25.3069 20.4372C25.1069 20.5275 24.9331 20.6495 24.791 20.7981C24.6488 20.952 24.5435 21.1271 24.4698 21.334C24.3961 21.541 24.3593 21.7586 24.3593 21.992C24.3593 22.2255 24.3961 22.4431 24.4698 22.65C24.5435 22.857 24.6541 23.0321 24.791 23.186C24.9331 23.3399 25.1069 23.4566 25.3069 23.5468C25.507 23.637 25.7334 23.6795 25.9808 23.6795C26.2072 23.6795 26.4125 23.6264 26.5968 23.5256C26.781 23.4195 26.9442 23.2815 27.0811 23.1117L27.4918 23.4513ZM27.8551 23.7379L30.3084 20.416H27.9761V19.9331H31.0455V20.2515L28.5974 23.5787H31.1508V24.0616H27.8551V23.7379Z"
          fill="#767676"/>
    <path fill-rule="evenodd" clip-rule="evenodd"
          d="M42.2067 10.3815C42.2014 9.51651 42.2646 8.67278 42.3909 7.85558C42.1803 7.33555 41.4854 6.45467 40.7483 5.96648C39.369 5.04846 38.3002 5.06438 37.9475 5.10152C37.5052 5.67993 37.1104 6.30079 36.7629 6.94287C38.8267 7.26656 41.6223 9.03362 42.2067 10.3815ZM45.8815 20.9467C45.3602 20.294 44.8811 19.5829 44.4494 18.8241C44.6284 20.2144 43.0227 23.3027 41.3538 24.6134C41.9961 25.022 42.67 25.3776 43.3754 25.6747C43.6545 25.558 44.4284 25.0857 45.3129 23.5893C46.1342 22.2043 45.8815 20.9467 45.8815 20.9467ZM41.3274 4.21534C42.3488 4.87334 42.7331 5.72238 42.8226 5.93994C42.9911 5.37215 43.1912 4.82028 43.4228 4.29494C43.4175 4.29494 43.4175 4.29494 43.4123 4.29494C43.565 3.95532 43.6123 3.55734 43.507 3.16996C43.2701 2.28378 42.3699 1.75313 41.4906 1.99193C41.359 2.02907 41.2327 2.08214 41.1169 2.14581V2.14051C40.3956 2.6234 39.7322 3.16996 39.1268 3.7749C39.5374 3.66347 40.543 3.71653 41.3274 4.21534ZM49.1614 24.4542C49.0298 23.966 48.6665 23.5468 48.2611 23.3293C47.8768 23.0321 47.5556 22.7296 47.1924 22.3847C47.2292 22.6023 47.3503 23.6105 46.7765 24.7196C46.3658 25.5102 45.5287 26.0886 45.0865 26.2584C45.8025 26.4495 46.5395 26.5821 47.2871 26.6458C47.2871 26.6405 47.2871 26.6405 47.2871 26.6352C47.4977 26.6617 47.7188 26.6458 47.94 26.5874C48.8613 26.3434 49.4088 25.3882 49.1614 24.4542ZM42.7963 14.7434C41.8276 11.1031 39.0636 8.56134 36.1364 8.31194C35.1045 10.9068 34.8676 13.8519 35.6415 16.7599C36.3996 19.6147 38.0159 22.008 40.1376 23.7273C42.6015 22.0663 43.7755 18.4261 42.7963 14.7434Z"
          fill="#FFAB07"/>
  </g>
</svg>
