<svg fill="none" xmlns="http://www.w3.org/2000/svg" viewBox="0 0 91 23">
  <path d="M9.4 9.2h3.2a4 4 0 0 0-.4-2A3 3 0 0 0 11.1 6c-.5-.3-1-.5-1.6-.6a11 11 0 0 0-3.8 0l-1.8.7a4 4 0 0 0-1.4 1.2c-.3.5-.5 1.2-.5 1.9 0 .5 0 .9.2 1.2.1.4.3.7.5.9l.9.6 1.1.5 2.6.8 1 .5c.1.1.3.4.3.9l-.2.7a1.7 1.7 0 0 1-1.2.7 4.2 4.2 0 0 1-1.7 0l-.8-.4a2 2 0 0 1-.5-.5c-.2-.2-.2-.4-.2-.7V14H.8v.5a3.5 3.5 0 0 0 1.7 3c.5.3 1 .5 1.7.6a9.2 9.2 0 0 0 5.9-.7 4 4 0 0 0 1.3-1.3c.4-.6.6-1.2.6-2 0-.5-.1-1-.3-1.3l-.7-1-1-.7-1.3-.5L7 10l-1.2-.5a.9.9 0 0 1-.4-.7c0-.5.2-.8.6-1 .4-.2 1-.3 1.5-.3.7 0 1.2.2 1.5.5.3.3.4.7.4 1.2Z" fill="#40AD45"/>
  <path d="M15.7.9 12.2 18h12l.7-3.2h-8.3l3-14h-3.9ZM34.2 4 37.6.7h-3.7l-2 3.5h2.3Zm.2 6.5h-5.7l.5-1 .7-.9a3.2 3.2 0 0 1 2.2-.8c.5 0 .9.1 1.2.3.3.1.5.3.7.6.2.2.3.5.3.8l.1 1Zm-6 2.1h9.1l.2-2a6 6 0 0 0-.4-2.3c-.3-.7-.7-1.2-1.2-1.7-.5-.4-1.1-.8-1.8-1-.7-.2-1.5-.3-2.4-.3a6.4 6.4 0 0 0-5 2.3A8.6 8.6 0 0 0 25 13c0 1 0 1.7.4 2.4.2.6.6 1.2 1 1.7.6.4 1.1.8 1.8 1a9.3 9.3 0 0 0 4.6 0c.7-.1 1.3-.4 1.8-.7.6-.4 1-.9 1.4-1.4l1-1.8h-3.5a11 11 0 0 1-1 1.1c-.1.2-.4.3-.6.4l-1 .2a3 3 0 0 1-2-.7c-.4-.5-.7-1-.7-1.8v-.7ZM40.7.9 37.1 18h3.4l.9-4 1.7-1.5 2 5.5H49l-3.2-7.7 5.1-4.7h-3.7l-4.9 4.6 2-9.3h-3.5Z" fill="#175CB2"/>
  <path d="m54.7 19.7 7.9-14.1H59l-4.3 8.9-1.1-9H50L52.3 18l-.4.5a2 2 0 0 1-.4.5l-.5.4a2 2 0 0 1-1 .2h-.7l-.7-.1-.5 2.8a17.5 17.5 0 0 1 1.8.1h1.6l1.3-.5c.4-.2.7-.4 1-.8l.9-1.3Z" fill="#175CB2"/>
  <path d="m61.3 14.3-.8 3.7h3.8l.8-3.7h-3.8Zm14.4-4.4H79a4.6 4.6 0 0 0-1.7-3.6 5 5 0 0 0-1.7-.8c-.7-.2-1.4-.2-2.2-.2a6.8 6.8 0 0 0-5.2 2.3 7 7 0 0 0-1.3 2.4c-.3 1-.5 2-.5 3 0 1.8.5 3.2 1.4 4a6 6 0 0 0 4.1 1.3c1.7 0 3-.4 4-1.2 1.1-.9 2-2 2.4-3.6H75c0 .3-.2.6-.4.9l-.5.7a2.7 2.7 0 0 1-3 .5 2.1 2.1 0 0 1-1-1.5l-.2-1c0-.5 0-1.1.2-1.7l.6-1.8c.3-.5.6-1 1-1.2.5-.4 1-.6 1.7-.6.8 0 1.3.2 1.7.5.4.3.6.9.6 1.6Z" fill="#40AD45"/>
  <path d="m77.7 15.5-.5 2.5h11.2l.6-2.6h-7l8-7.3.6-2.5H80l-.6 2.6h6l-7.8 7.3Z" fill="#40AD45"/>
</svg>
