<svg xmlns="http://www.w3.org/2000/svg" width="178.724" height="30.726">
  <g data-name="Group 31">
    <g data-name="Group 29">
      <path data-name="Path 181"
            d="M54.698 6.864h-6.32c-1.609-2.068-5.327-2.2-7.334-2.2-6.251 0-8.962 5.5-11.446 11.145-3.088 7.155-6.779 14.384-15.439 14.384-8.886 0-14.158-6.928-14.158-16.342 0-4.819 1.2-9.188 2.786-11.6l3.841 1.733a20.471 20.471 0 0 0-2.561 9.79c0 6.853 3.615 11.823 9.941 11.823 6.251 0 9.112-6.175 11.6-11.9C28.546 7.07 32.085-.009 40.972-.009c2.88 0 4.225.3 8.587 2.5h13.588l-7.622 10.24a25.446 25.446 0 0 1 .508 5.26 28.431 28.431 0 0 1-2.784 12.727l-3.992-1.732a24.528 24.528 0 0 0 2.636-10.92 14.237 14.237 0 0 0-.98-5.959l-.089-.079Z"
            fill="#c02485"/>
    </g>
    <g data-name="Group 30">
      <path data-name="Path 182"
            d="M79.466 19.248a3.732 3.732 0 0 1-1.464 3.079 6.354 6.354 0 0 1-4.046 1.16 10.28 10.28 0 0 1-2.382-.287 7.4 7.4 0 0 1-2.037-.775l.66-1.32a4.294 4.294 0 0 0 .76.373 8.447 8.447 0 0 0 .947.3q.5.13 1.019.215a6.046 6.046 0 0 0 1 .086 4.48 4.48 0 0 0 2.755-.775 2.481 2.481 0 0 0 1.033-2.094 2.58 2.58 0 0 0-.258-1.191 2.654 2.654 0 0 0-.732-.875 5.226 5.226 0 0 0-1.119-.66q-.646-.286-1.392-.574-.861-.315-1.635-.689a6.269 6.269 0 0 1-1.363-.875 3.711 3.711 0 0 1-.933-1.205 4.163 4.163 0 0 1-.02-3.271 3.589 3.589 0 0 1 .933-1.262 4.527 4.527 0 0 1 1.526-.847 6.435 6.435 0 0 1 2.095-.316 8.077 8.077 0 0 1 2.281.308 7.181 7.181 0 0 1 1.793.776l-.66 1.269a5.582 5.582 0 0 0-1.449-.66 6.092 6.092 0 0 0-1.851-.287 3.572 3.572 0 0 0-2.439.759 2.373 2.373 0 0 0-.86 1.847 2.6 2.6 0 0 0 .244 1.174 2.535 2.535 0 0 0 .691.844 4.83 4.83 0 0 0 1.051.63q.6.272 1.325.53.892.344 1.714.716a6.649 6.649 0 0 1 1.454.888 3.742 3.742 0 0 1 .994 1.231 3.93 3.93 0 0 1 .365 1.778Z"/>
      <path data-name="Path 183"
            d="M100.988 23.199V12.381A3.288 3.288 0 0 0 99.94 9.77a3.88 3.88 0 0 0-2.654-.918 5.732 5.732 0 0 0-2.224.4 4.146 4.146 0 0 0-1.593 1.148v12.8h-1.693V11.922a2.627 2.627 0 0 0-1.134-2.253 4.911 4.911 0 0 0-2.942-.818 10.109 10.109 0 0 0-1.922.172 7.453 7.453 0 0 0-1.55.459v13.717h-1.693V8.507a12.36 12.36 0 0 1 2.4-.775 12.727 12.727 0 0 1 2.74-.287 7.277 7.277 0 0 1 3.013.56 4.759 4.759 0 0 1 1.836 1.335 6.859 6.859 0 0 1 1.997-1.309 7.1 7.1 0 0 1 3-.589 6.088 6.088 0 0 1 2.094.345 4.972 4.972 0 0 1 1.636.961 4.132 4.132 0 0 1 1.062 1.521 5.265 5.265 0 0 1 .373 2.023v10.9Z"/>
      <path data-name="Path 184"
            d="M115.938 22.84a11.9 11.9 0 0 1-1.262.33q-.689.144-1.435.23a12.753 12.753 0 0 1-1.463.086 7.136 7.136 0 0 1-4.577-1.248 4.117 4.117 0 0 1-1.535-3.372 4.05 4.05 0 0 1 .847-2.7 5.611 5.611 0 0 1 2.209-1.564 12.017 12.017 0 0 1 3.085-.775q1.722-.215 3.472-.3v-1.349a3.783 3.783 0 0 0-.316-1.636 2.723 2.723 0 0 0-.846-1.047 3.3 3.3 0 0 0-1.277-.545 7.773 7.773 0 0 0-1.607-.158 9.2 9.2 0 0 0-2.239.287 8.248 8.248 0 0 0-1.894.689l-.517-1.263a10.078 10.078 0 0 1 .975-.387q.546-.186 1.162-.345a10.872 10.872 0 0 1 1.292-.244 10.586 10.586 0 0 1 1.334-.086 9.185 9.185 0 0 1 2.238.259 4.632 4.632 0 0 1 1.765.832 3.883 3.883 0 0 1 1.148 1.506 5.51 5.51 0 0 1 .416 2.253v10.13a5.2 5.2 0 0 1-.975.417Zm-.66-8.02q-1.377.086-2.8.215a11.162 11.162 0 0 0-2.569.516 4.517 4.517 0 0 0-1.88 1.162 3.294 3.294 0 0 0 .359 4.519 5.193 5.193 0 0 0 3.357.9 12.119 12.119 0 0 0 2.023-.172 6.193 6.193 0 0 0 1.506-.4Z"/>
      <path data-name="Path 185"
            d="M126.957 8.937a7.016 7.016 0 0 0-1.148-.086 11.554 11.554 0 0 0-1.879.158 5.885 5.885 0 0 0-1.564.446v13.744h-1.693V8.507a9.649 9.649 0 0 1 2.424-.775 14.958 14.958 0 0 1 2.913-.287q.488 0 .846.014a2.982 2.982 0 0 1 .473.043Z"/>
      <path data-name="Path 186"
            d="M134.82 23.342a4.188 4.188 0 0 1-2.826-.947 3.646 3.646 0 0 1-1.105-2.927V9.023h-2.41V7.732h2.41V3.887l1.635-.632v4.477h3.5v1.291h-3.5v10.365a2.179 2.179 0 0 0 .761 1.861 2.9 2.9 0 0 0 1.794.573 3.279 3.279 0 0 0 .947-.115v1.463a3.212 3.212 0 0 1-1.206.172Z"/>
      <path data-name="Path 187"
            d="M142.711 29.373h-1.751l2.325-6.169-5.825-15.467h1.837l4.247 11.966q.258.775.4 1.378.086.344.143.689h.058a2.9 2.9 0 0 1 .143-.689 4.676 4.676 0 0 1 .172-.66q.114-.344.258-.718l4.247-11.971h1.836Z"/>
      <path data-name="Path 188" d="M153.013 22.08a1.274 1.274 0 1 1-.373-.918 1.249 1.249 0 0 1 .373.918Z"/>
      <path data-name="Path 189"
            d="M164.618 23.199a6.858 6.858 0 0 1-2.023.287 6.5 6.5 0 0 1-2.339-.445 5.741 5.741 0 0 1-2.09-1.406 7.021 7.021 0 0 1-1.492-2.5 10.706 10.706 0 0 1-.565-3.688 10.581 10.581 0 0 1 .565-3.673 7.041 7.041 0 0 1 1.492-2.482 5.754 5.754 0 0 1 2.09-1.406 6.508 6.508 0 0 1 2.339-.445 6.958 6.958 0 0 1 2.052.3 5.993 5.993 0 0 1 1.621.745l-.6 1.255a4.916 4.916 0 0 0-1.348-.645 5.329 5.329 0 0 0-1.608-.244 4.782 4.782 0 0 0-1.765.345 4.211 4.211 0 0 0-1.579 1.121 5.773 5.773 0 0 0-1.133 2.042 9.617 9.617 0 0 0-.431 3.077 9.32 9.32 0 0 0 .445 3.077 5.942 5.942 0 0 0 1.147 2.042 4.207 4.207 0 0 0 1.579 1.121 4.7 4.7 0 0 0 1.736.345 5.315 5.315 0 0 0 1.608-.244 4.9 4.9 0 0 0 1.348-.645l.6 1.291a6.1 6.1 0 0 1-1.649.775Z"/>
      <path data-name="Path 190" d="m167.906 23.199 8.006-14.061h-7.576V7.732h10.13l-7.977 14.061h8.236v1.406Z"/>
    </g>
  </g>
</svg>
