<?xml version="1.0" encoding="UTF-8"?>
<svg width="632px" height="144px" viewBox="0 0 632 144" version="1.1" xmlns="http://www.w3.org/2000/svg" xmlns:xlink="http://www.w3.org/1999/xlink">
    <!-- Generator: Sketch 55.2 (78181) - https://sketchapp.com -->
    <title>topmonks_logo</title>
    <desc>Created with Sketch.</desc>
    <g id="Page-1" stroke="none" stroke-width="1" fill="none" fill-rule="evenodd">
        <g id="topmonks_logo" fill-rule="nonzero">
            <g id="Group">
                <g transform="translate(6.000000, 68.000000)" fill="#F15938" id="Path">
                    <path d="M36.409,48.314 L36.541,48.432 L36.713,48.387 C39.728,47.602 55.459,43.142 69.052,32.457 L69.219,32.326 L69.169,32.12 C68.693,30.162 68.723,28.432 69.259,26.979 C70.924,22.459 77.363,19.031 81.269,19.501 L81.494,19.532 L81.609,19.367 C81.83,19.05 82.047,18.731 82.261,18.41 C82.13,18.657 81.991,18.913 81.844,19.176 L81.637,19.547 L82.047,19.657 C84.748,20.379 88.11,22.976 89.874,24.459 L90.009,24.573 L90.179,24.523 C90.652,24.385 91.102,24.277 91.554,24.191 L91.851,24.135 L91.822,23.835 C91.013,15.442 88.88,8.529 85.817,4.368 L85.776,4.322 C84.469,3.108 82.992,2.014 81.386,1.068 L81.014,0.849 L80.9,1.266 C80.079,4.261 77.378,12.116 70.05,20.341 C60.957,30.547 48.087,37.809 31.797,41.923 L31.365,42.032 L31.594,42.414 C33.026,44.796 34.511,46.616 36.409,48.314 Z"></path>
                    <path d="M99.688,32.536 C94.448,28.344 87.431,30.234 80.917,37.589 C74.902,44.381 71.121,48.165 61.339,49.386 C67.944,46.224 70.886,44.431 73.37,40.838 L73.511,40.634 L73.365,40.433 C72.288,38.956 70.8,36.665 69.826,34.139 L69.648,33.678 L69.272,33.999 C61.513,40.626 51.646,46.132 39.944,50.363 L39.29,50.6 L39.872,50.984 C41.952,52.354 44.393,53.655 47.299,54.939 C34.89,54.7 28.636,44.947 24.441,38.401 L23.947,37.632 C21.336,33.578 17.697,30.903 13.965,30.293 C11.072,29.82 8.26,30.596 5.817,32.551 C0.796,37.145 -0.537,44.633 2.337,52.093 C4.076,56.607 7.135,60.504 11.183,63.364 C15.679,66.54 21.222,68.236 27.216,68.27 C34.467,68.27 38.634,66.7 42.403,65.315 C45.393,64.216 48.001,63.176 52.001,63.117 L52.001,66.056 L52.45,66.078 C52.496,66.079 52.582,66.186 52.609,66.19 C52.502,66.162 52.443,66.001 52.443,66.001 L53,66.001 L53,63.117 C57,63.176 59.804,64.216 62.814,65.315 C66.608,66.7 70.944,68.27 78.196,68.27 C84.198,68.237 89.772,66.535 94.281,63.348 C98.284,60.519 101.443,56.506 103.161,52.047 C106.031,44.602 104.711,37.132 99.688,32.536 Z"></path>
                    <path d="M52.66,66.087 C52.684,66.093 52.709,66.098 52.731,66.101 C52.718,66.099 52.695,66.093 52.66,66.087 Z"></path>
                </g>
                <g transform="translate(19.000000, 7.000000)" fill="#F1CEAB">
                    <path d="M66.921,30.802 L66.722,30.638 L66.507,30.779 C65.534,31.417 64.647,32.326 64.034,33.031 C65.398,23.946 63.144,14.872 57.894,8.528 C53.348,3.035 47.081,0.129 39.77,0.123 C32.46,0.129 26.193,3.035 21.647,8.528 C16.397,14.872 14.142,23.946 15.507,33.031 C14.894,32.326 14.007,31.417 13.034,30.779 L12.819,30.638 L12.62,30.802 C10.061,32.907 8.867,35.715 9.345,38.505 C9.767,40.97 11.478,43.087 13.706,43.899 L13.897,43.969 L14.052,43.837 C14.992,43.036 15.587,42.483 16.257,41.67 C16.753,44.886 18.255,51.399 22.667,57.209 C27.056,62.987 32.971,66.045 39.771,66.051 C46.571,66.045 52.485,62.987 56.874,57.209 C61.287,51.4 62.789,44.886 63.284,41.67 C63.954,42.483 64.549,43.035 65.489,43.837 L65.644,43.969 L65.835,43.899 C68.062,43.087 69.774,40.97 70.196,38.505 C70.674,35.715 69.48,32.907 66.921,30.802 Z M37.149,15.227 C37.259,16.411 36.385,17.463 35.201,17.573 C34.014,17.682 32.965,16.809 32.855,15.625 C32.745,14.441 33.619,13.389 34.803,13.279 C34.87,13.273 34.937,13.2699991 35.003,13.2699991 C36.103,13.269 37.046,14.11 37.149,15.227 Z M32.677,6.852 C33.045,6.409 33.563,6.136 34.137,6.083 L34.137,6.083 C34.711,6.03 35.27,6.203 35.713,6.571 C36.156,6.939 36.429,7.457 36.482,8.031 C36.592,9.215 35.718,10.267 34.534,10.377 C33.348,10.487 32.298,9.613 32.188,8.429 C32.135,7.855 32.309,7.295 32.677,6.852 Z M32.99,41.785 C31.854,42.544 30.306,42.961 28.632,42.961 C25.622,42.961 22.577,41.553 22.225,38.855 C26.496,40.477 30.743,40.479 34.864,38.862 C34.719,40.056 34.078,41.059 32.99,41.785 Z M35.889,25 C35.315,25.053 34.756,24.88 34.313,24.512 C33.87,24.144 33.597,23.626 33.544,23.052 C33.491,22.478 33.664,21.919 34.032,21.476 C34.4,21.033 34.918,20.76 35.492,20.707 C35.56,20.701 35.627,20.698 35.695,20.698 C36.197,20.698 36.678,20.871 37.069,21.196 C37.512,21.564 37.785,22.082 37.838,22.656 C37.947,23.838 37.073,24.891 35.889,25 Z M43.058,8.031 C43.111,7.457 43.384,6.939 43.827,6.571 C44.218,6.247 44.699,6.073 45.201,6.073 C45.268,6.073 45.336,6.076 45.404,6.082 C45.978,6.135 46.496,6.408 46.864,6.851 C47.232,7.294 47.405,7.854 47.352,8.427 C47.242,9.611 46.187,10.486 45.006,10.375 C44.432,10.322 43.914,10.049 43.546,9.606 C43.178,9.164 43.005,8.604 43.058,8.031 Z M42.391,15.227 L42.391,15.227 C42.501,14.043 43.554,13.167 44.737,13.279 C45.921,13.389 46.795,14.441 46.685,15.625 C46.632,16.199 46.359,16.717 45.915,17.085 C45.472,17.453 44.911,17.626 44.339,17.573 C43.156,17.463 42.282,16.41 42.391,15.227 Z M43.652,25 C43.078,24.947 42.56,24.674 42.192,24.231 C41.824,23.788 41.651,23.228 41.704,22.655 C41.757,22.082 42.03,21.563 42.473,21.195 C42.864,20.87 43.345,20.697 43.847,20.697 C43.914,20.697 43.982,20.7 44.05,20.706 C44.624,20.759 45.142,21.032 45.51,21.475 C45.878,21.918 46.051,22.478 45.998,23.051 C45.888,24.236 44.833,25.109 43.652,25 Z M50.983,43.05 C49.323,43.05 47.795,42.629 46.682,41.864 C45.605,41.124 44.973,40.094 44.833,38.861 C48.955,40.48 53.203,40.478 57.475,38.855 C57.126,41.612 54.036,43.05 50.983,43.05 Z" id="Shape"></path>
                    <path d="M60.911,59.051 L60.696,59.005 L60.571,59.186 C55.052,67.175 48.217,71.065 39.676,71.079 C31.316,71.065 24.317,67.064 18.875,59.186 L18.75,59.005 L18.535,59.051 C17.444,59.282 11.748,60.669 6.737,65.321 L6.696,65.367 C3.643,69.512 1.515,76.426 0.705,84.834 L0.676,85.134 L0.973,85.19 C1.433,85.277 1.898,85.389 2.355,85.522 L2.525,85.572 L2.66,85.458 C4.297,84.082 8.412,80.844 11.276,80.5 C12.218,80.387 13.372,80.511 14.611,80.86 L14.917,80.946 L15.015,80.643 C15.307,79.738 16.167,77.54 18.283,74.877 C17.564,77.54 17.539,80.542 17.572,81.877 L17.577,82.067 L17.743,82.159 C20.45,83.651 22.469,85.772 23.282,87.979 C24.264,90.645 23.096,94.287 21.942,96.873 L21.666,97.492 L22.324,97.328 C32.553,94.782 57.281,86.157 65.953,61.122 L66.052,60.837 L65.777,60.713 C63.35,59.613 61.439,59.163 60.911,59.051 Z" id="Path"></path>
                    <path d="M12.077,83.494 C9.777,83.582 7.642,85.318 6.256,86.759 L5.967,87.059 L6.326,87.272 C8.725,88.695 10.969,90.722 12.482,92.835 C14.069,95.051 15.207,97.142 16.15,98.927 L16.383,99.369 L16.698,98.982 C20.642,94.134 20.572,91.001 20.179,89.564 C19.265,86.223 14.888,83.386 12.077,83.494 Z" id="Path"></path>
                </g>
                <path d="M92.284,93.759 C90.898,92.318 88.763,90.581 86.463,90.494 C83.647,90.387 79.275,93.223 78.361,96.565 C77.671,99.089 78.657,101.941 81.376,105.283 L81.656,105.627 L81.906,105.26 C82.627,104.2 83.307,103.359 84.026,102.468 C84.664,101.679 85.323,100.862 86.059,99.835 C87.572,97.722 89.816,95.695 92.215,94.272 L92.574,94.059 L92.284,93.759 Z" id="Path" fill="#F1CEAB"></path>
                <g fill="#233341">
                    <circle id="Oval" cx="63.538" cy="22.425" r="2.506"></circle>
                    <circle id="Oval" cx="64.205" cy="15.23" r="2.506"></circle>
                    <path d="M76.858,46 C72.311,48 67.824,48 63.454,46 C63.454,53 76.858,53 76.858,46 Z" id="Path"></path>
                    <path d="M54.246,46 C49.876,48 45.389,48 40.842,46 C40.842,53 54.246,53 54.246,46 Z" id="Path"></path>
                    <path d="M58.908,138 C66.134,138 65.103,139.632 77.536,142.274 C112.037,148.801 124.42,112.672 112.482,98.412 C109.878,95.302 107.214,93.422 104.613,92.465 C104.399,90.769 102.449,76.397 97.018,69.465 C89.968,62.401 83.767,60.566 83.364,60.452 C84.452,58.273 85.455,56.412 85.996,55.267 C90.611,55.365 99.337,43.369 88.377,34.544 C88.377,7.42 66.134,0.976 58.675,0.954 C51.449,0.976 29.068,7.419 29.068,34.543 C18.108,43.368 26.91,55.362 31.526,55.264 C32.067,56.408 33.079,58.267 34.168,60.446 C33.765,60.56 27.568,62.389 20.519,69.454 C15.088,76.386 13.141,90.748 12.927,92.444 C10.326,93.401 7.663,95.26 5.06,98.37 C-6.879,112.63 5.527,148.8 40.027,142.273 C52.458,139.632 51.371,138 58.675,138 L58.908,138 Z M91.55,72.564 C94.806,76.985 96.75,84.163 97.493,91.866 C97.014,91.956 96.55,92.07 96.087,92.205 C94.407,90.792 90.932,88.085 88.133,87.337 C89.969,84.05 90.534,81.966 90.534,81.966 C89.562,83.791 88.49,85.526 87.338,87.178 C87.326,87.176 87.314,87.174 87.302,87.173 C83.417,86.707 76.721,90.056 74.949,94.866 C74.344,96.509 74.398,98.345 74.848,100.199 C61.389,110.778 45.971,115.198 42.63,116.069 C40.508,114.17 39.083,112.249 37.877,110.243 C76.295,100.541 85.462,75.756 87.218,69.353 C88.64,70.19 90.128,71.244 91.55,72.564 Z M92.046,93.988 C89.304,95.614 87.108,97.803 85.79,99.643 C84.232,101.819 83.004,103.059 81.633,105.074 C80.189,103.299 77.782,99.936 78.68,96.651 C79.556,93.446 83.768,90.721 86.45,90.823 C88.716,90.911 90.827,92.721 92.046,93.988 Z M35.442,105.774 C34.426,103.848 33.309,101.82 31.751,99.644 C30.433,97.804 28.237,95.615 25.495,93.989 C26.714,92.722 28.825,90.911 31.09,90.825 C33.773,90.722 37.984,93.448 38.86,96.653 C39.758,99.937 36.885,103.999 35.442,105.774 Z M32.824,50.571 C28.576,49.023 26.364,42.578 31.841,38.072 C33.583,39.215 35.076,41.301 35.076,41.301 C31.929,24.692 41.19,7.487 58.77,7.473 C76.349,7.487 85.611,24.691 82.464,41.301 C82.464,41.301 83.957,39.215 85.699,38.072 C91.176,42.578 88.964,49.023 84.716,50.571 C83.577,49.6 82.959,49.012 82.052,47.809 C80.791,57.802 73.856,72.688 58.77,72.702 C43.684,72.688 36.749,57.802 35.488,47.809 C34.582,49.012 33.963,49.6 32.824,50.571 Z M25.961,72.564 C30.941,67.941 36.674,66.571 37.603,66.375 C41.771,72.409 48.418,78.394 58.675,78.41 C69.165,78.393 75.674,72.409 79.842,66.375 C80.338,66.48 82.227,66.921 84.639,68.015 C75.795,93.547 50.159,101.789 41.242,104.009 C42.664,100.821 43.517,97.381 42.59,94.866 C41.666,92.359 39.404,90.251 36.9,88.871 C36.866,87.47 36.883,83.274 38.16,80.335 C35.503,83.257 34.212,85.948 33.698,87.543 C32.444,87.19 31.244,87.052 30.234,87.173 C27.329,87.522 23.296,90.649 21.445,92.206 C20.982,92.071 20.511,91.957 20.032,91.867 C20.776,84.162 22.705,76.985 25.961,72.564 Z M84.288,136.038 C71.125,136.038 67.999,131 58.908,131 L58.675,131 C49.467,131 46.437,136.038 33.273,136.038 C10.126,135.91 0.645,111.306 12.052,100.868 C17.88,96.206 25.223,98.974 29.652,105.85 C34.081,112.727 40.725,123.94 54.945,123.28 C51.234,121.73 48.357,120.209 46.065,118.699 C59.416,113.871 68.86,107.941 75.502,102.268 C76.394,104.582 77.76,106.82 79.087,108.64 C76.47,112.427 73.439,114.136 65.358,117.943 C76.547,117.011 80.588,113.28 87.194,105.821 C92.617,99.697 99.671,96.206 105.499,100.868 C116.906,111.306 107.435,135.91 84.288,136.038 Z" id="Shape"></path>
                    <circle id="Oval" cx="53.336" cy="15.23" r="2.506"></circle>
                    <circle id="Oval" cx="54.69" cy="29.853" r="2.506"></circle>
                    <circle id="Oval" cx="62.85" cy="29.853" r="2.506"></circle>
                    <circle id="Oval" cx="54.002" cy="22.425" r="2.506"></circle>
                </g>
            </g>
            <g id="Group" transform="translate(148.000000, 47.000000)" fill="#233341">
                <polygon id="Path" points="28.669 13.914 28.669 64.002 14.305 64.002 14.305 13.914 0.781 13.914 0.781 1.788 42.194 1.788 42.194 13.914"></polygon>
                <path d="M99.594,9.437 C105.47,15.127 109.294,23.335 109.294,32.942 C109.294,41.244 106.309,49.732 99.594,56.261 C93.811,61.857 85.975,65.402 75.529,65.402 C63.87,65.402 55.942,60.738 51.278,56.261 C45.308,50.665 41.578,42.27 41.578,33.129 C41.578,24.174 45.588,15.127 51.185,9.531 C55.383,5.334 63.124,0.389999749 75.53,0.389999749 C85.23,0.389 93.344,3.374 99.594,9.437 Z M61.818,18.951 C59.113,21.563 56.315,26.133 56.315,33.035 C56.315,38.725 58.181,43.295 62.005,47.026 C66.015,50.85 70.492,52.157 75.343,52.157 C81.686,52.157 86.163,49.825 89.147,46.84 C91.572,44.508 94.557,40.124 94.557,32.942 C94.557,26.507 91.945,21.749 89.147,18.951 C86.069,15.967 81.126,13.634 75.436,13.634 C70.026,13.634 65.176,15.593 61.818,18.951 Z" id="Shape"></path>
                <path d="M138.375,1.788 C143.785,1.788 149.755,2.534 154.698,6.919 C160.015,11.582 160.76,17.739 160.76,22.029 C160.76,29.863 157.776,34.248 155.444,36.673 C150.5,41.709 143.971,42.176 139.587,42.176 L130.819,42.176 L130.819,64.002 L116.455,64.002 L116.455,1.788 L138.375,1.788 L138.375,1.788 Z M130.821,30.424 L135.951,30.424 C137.91,30.424 141.361,30.331 143.693,28.092 C144.999,26.786 146.025,24.641 146.025,21.936 C146.025,19.324 145.093,17.179 143.693,15.873 C141.548,13.821 138.47,13.541 135.672,13.541 L130.822,13.541 L130.822,30.424 L130.821,30.424 Z" id="Shape"></path>
                <polygon id="Path" points="160.788 64.002 170.768 1.788 182.707 1.788 198.19 39.004 213.674 1.788 225.613 1.788 235.594 64.002 221.23 64.002 216.286 26.879 200.709 64.002 195.673 64.002 180.096 26.879 175.152 64.002"></polygon>
                <path d="M296.582,9.437 C302.458,15.127 306.282,23.335 306.282,32.942 C306.282,41.244 303.298,49.732 296.582,56.261 C290.799,61.857 282.963,65.402 272.517,65.402 C260.858,65.402 252.93,60.738 248.266,56.261 C242.296,50.665 238.566,42.27 238.566,33.129 C238.566,24.174 242.576,15.127 248.173,9.531 C252.371,5.334 260.112,0.389999749 272.518,0.389999749 C282.218,0.389 290.332,3.374 296.582,9.437 Z M258.806,18.951 C256.101,21.563 253.303,26.133 253.303,33.035 C253.303,38.725 255.169,43.295 258.993,47.026 C263.003,50.85 267.481,52.157 272.331,52.157 C278.674,52.157 283.151,49.825 286.135,46.84 C288.56,44.508 291.545,40.124 291.545,32.942 C291.545,26.507 288.933,21.749 286.135,18.951 C283.057,15.967 278.114,13.634 272.424,13.634 C267.014,13.634 262.164,15.593 258.806,18.951 Z" id="Shape"></path>
                <polygon id="Path" points="313.444 64.002 313.444 1.788 325.942 1.788 359.707 41.896 359.707 1.788 374.071 1.788 374.071 64.002 361.573 64.002 327.808 23.708 327.808 64.002"></polygon>
                <polygon id="Path" points="398.946 27.718 420.212 1.788 437.747 1.788 412.563 31.262 439.706 64.001 421.237 64.001 398.945 36.392 398.945 64.001 384.581 64.001 384.581 1.787 398.945 1.787 398.945 27.718"></polygon>
                <path d="M474.506,16.992 C469.843,12.795 465.832,12.515 464.06,12.515 C462.102,12.515 459.676,12.795 457.997,14.66 C457.065,15.592 456.412,16.992 456.412,18.577 C456.412,20.07 456.878,21.189 457.811,22.029 C459.304,23.428 461.448,23.987 465.645,25.573 L470.309,27.345 C473.014,28.371 476.372,29.77 478.797,32.102 C482.435,35.553 483.367,40.03 483.367,43.668 C483.367,50.104 481.128,55.701 477.864,59.058 C472.36,64.841 464.339,65.401 460.235,65.401 C455.758,65.401 451.84,64.748 447.923,62.789 C444.752,61.204 441.114,58.312 438.782,55.98 L446.244,45.72 C447.829,47.306 450.348,49.451 452.027,50.477 C454.452,51.969 456.971,52.715 459.862,52.715 C461.728,52.715 464.339,52.342 466.391,50.57 C467.604,49.544 468.63,47.865 468.63,45.534 C468.63,43.481 467.79,42.176 466.485,41.056 C464.806,39.657 460.982,38.258 459.21,37.605 L454.08,35.833 C451.189,34.807 447.831,33.501 445.406,30.889 C442.141,27.438 441.675,23.055 441.675,20.069 C441.675,14.566 443.354,9.902 447.084,6.078 C451.468,1.601 456.691,0.388 462.475,0.388 C466.765,0.388 473.668,1.134 480.943,6.544 L474.506,16.992 Z" id="Path"></path>
            </g>
        </g>
    </g>
</svg>