<svg width="115" height="15" viewBox="0 0 115 15" fill="none" xmlns="http://www.w3.org/2000/svg">
  <title>TSBohemia</title>
  <path fill-rule="evenodd" clip-rule="evenodd"
        d="M103.03 4.56744C103.74 4.56744 104.28 4.73098 104.674 4.89408L105.135 2.9655C104.766 2.76209 103.937 2.55777 102.911 2.55777C100.268 2.55777 97.9796 4.20138 97.9796 7.43697C97.9796 9.87113 99.4388 12.0167 102.754 12.0167C103.819 12.0167 104.648 11.7997 104.99 11.6362L104.661 9.70759C104.293 9.85709 103.649 9.97986 103.069 9.97986C101.438 9.97986 100.478 8.94649 100.478 7.27342C100.478 5.39695 101.662 4.56744 103.03 4.56744ZM96.3345 9.16394C95.5451 9.16394 94.9801 9.74836 94.9801 10.5906C94.9801 11.4182 95.5326 12.0163 96.3215 12.0163H96.3345C97.1363 12.0163 97.6888 11.4183 97.6888 10.5896C97.6759 9.73386 97.1234 9.16394 96.3345 9.16394ZM108.398 9.8435V9.78913L112.199 4.1067V2.70772H105.571V4.73098H109.122V4.78535L105.202 10.5634V11.8677H112.265V9.8435H108.398ZM10.0069 2.55777C9.5302 2.55777 9.05258 2.74261 8.69046 3.11047L3.10396 8.78702C2.37838 9.52456 2.37838 10.726 3.10396 11.4631C3.82908 12.1993 5.01176 12.1993 5.73733 11.4631L11.3238 5.78565C11.686 5.41733 11.8679 4.93304 11.8679 4.44829C11.8679 3.96399 11.686 3.47925 11.3238 3.11047C10.9617 2.74261 10.4841 2.55777 10.0069 2.55777Z"
        fill="#F9B623"/>
  <path fill-rule="evenodd" clip-rule="evenodd"
        d="M45.3821 6.92005V6.89287C46.4207 6.48559 46.8279 5.73718 46.8279 4.96158C46.8279 4.07861 46.3155 3.41265 45.6314 3.08692C44.9344 2.71996 44.1847 2.63886 42.9209 2.63886C41.8287 2.63886 40.659 2.734 40.1194 2.82869V11.8124C40.6059 11.8944 41.3814 11.975 42.4598 11.975C44.3551 11.975 45.4602 11.6633 46.1309 11.1469C46.7227 10.6848 47.1169 10.0061 47.1169 9.14854C47.1182 8.06125 46.4734 7.23265 45.3821 6.92005ZM42.4731 4.44557C42.6314 4.41839 42.8549 4.39121 43.2504 4.39121C44.0536 4.39121 44.4492 4.73144 44.4492 5.27553C44.4492 5.8604 43.9613 6.22827 42.9481 6.22827H42.4731V4.44557ZM43.1581 10.1692C42.8553 10.1692 42.6453 10.1692 42.4736 10.142V7.96566H43.0404C43.9354 7.96566 44.62 8.26467 44.62 9.04072C44.6195 9.8435 43.9488 10.1692 43.1581 10.1692ZM37.0552 6.32205C35.9354 5.88668 35.4622 5.6964 35.4622 5.23431C35.4622 4.82657 35.8569 4.5543 36.5816 4.5543C37.4757 4.5543 38.1331 4.81208 38.5148 4.98921L39.0143 3.03346C38.4225 2.76118 37.6733 2.55777 36.6079 2.55777C34.3705 2.55777 33.0563 3.8077 33.0563 5.42458C33.0563 6.7846 34.0419 7.64083 35.5412 8.18493C36.5423 8.53785 36.937 8.79653 36.937 9.24594C36.937 9.70804 36.5423 9.99254 35.7253 9.99254C34.8441 9.99254 33.9634 9.70759 33.4247 9.42263L32.9769 11.4463C33.4768 11.7186 34.5159 12.0167 35.5804 12.0167C38.1728 12.0167 39.3697 10.659 39.3697 9.08194C39.3693 7.80393 38.6459 6.92005 37.0552 6.32205ZM25.8857 4.75862H28.1485V11.8668H30.5282V4.75862H32.8302V2.70772H25.8857V4.75862ZM83.3112 11.8668H85.6909V2.70772H83.3112V11.8668ZM91.9008 2.70772H88.7439L86.1663 11.8672H88.6262L89.1261 9.74655H91.4138L91.9802 11.8672H94.5453L91.9008 2.70772ZM89.4414 7.9267L89.8222 6.29532C89.9542 5.7775 90.0858 5.0164 90.2164 4.47275H90.2436C90.3752 5.0164 90.546 5.76436 90.6776 6.28082L91.0861 7.9267H89.4414ZM78.7977 2.70772L78.1395 5.15231C77.8768 6.11818 77.5878 7.40979 77.3372 8.52561H77.2846C77.1004 7.40979 76.8373 6.18614 76.6005 5.16635L76.0091 2.70772H72.8125L72.2733 11.8672H74.4567L74.5883 8.59312C74.628 7.5457 74.6806 6.18614 74.7328 4.89408H74.7591C74.9567 6.14536 75.2332 7.50492 75.4561 8.49753L76.2062 11.6769H78.061L78.9422 8.48439C79.2316 7.47774 79.5995 6.10459 79.876 4.89408H79.9157C79.9028 6.32205 79.9291 7.54615 79.9554 8.59312L80.0602 11.8672H82.3752L81.9279 2.70772H78.7977ZM62.2353 6.1055H59.3526V2.70772H56.9734V11.8672H59.3526V8.25153H62.2353V11.8672H64.6015V2.70772H62.2353V6.1055ZM51.9341 2.55777C49.2231 2.55777 47.5276 4.67707 47.5276 7.34183C47.5276 9.88472 49.0394 12.0167 51.7887 12.0167C54.526 12.0167 56.2354 10.1425 56.2354 7.19324C56.2349 4.74503 54.7887 2.55777 51.9341 2.55777ZM51.9074 10.0745C50.7626 10.0745 50.0383 9.01399 50.0383 7.3006C50.0383 5.6144 50.763 4.49948 51.8944 4.49948C53.0396 4.49948 53.7242 5.6964 53.7242 7.27342C53.7237 8.91885 53.0521 10.0745 51.9074 10.0745ZM68.101 8.16998H71.2855V6.18704H68.101V4.70335H71.4827V2.70772H65.7213V11.8672H71.6664V9.85663H68.101V8.16998ZM22.4215 8.23295H15.7442L18.1533 5.78746C18.5163 5.41915 18.6978 4.93394 18.6978 4.4501C18.6978 3.96535 18.5163 3.4806 18.1533 3.11229C17.7907 2.74442 17.3135 2.55958 16.8368 2.55958C16.3601 2.55958 15.882 2.74442 15.5199 3.11229L9.93162 8.78702C9.20649 9.52411 9.20649 10.726 9.93162 11.4631C10.2942 11.831 10.7714 12.0158 11.2485 12.0158L22.4215 12.0167C23.4459 12.0167 24.2839 11.1659 24.2839 10.1248C24.2839 9.08466 23.4464 8.23295 22.4215 8.23295Z"
        fill="#1D3650"/>
</svg>
