<svg width="2800" height="1035" viewBox="0 0 2800 1035" fill="none" xmlns="http://www.w3.org/2000/svg">
<path fill-rule="evenodd" clip-rule="evenodd" d="M540.695 510.264C454.413 349.833 324.49 210.234 292.927 30.8759C260.356 -154.211 260.436 -361.981 359.112 -521.595C457.307 -680.429 676.436 -707.248 821.705 -824.449C955.727 -932.575 1020.06 -1127.25 1182.09 -1185.56C1344.26 -1243.93 1534.52 -1210.64 1690.71 -1137.21C1838.13 -1067.9 1886.65 -874.63 2025.33 -789.101C2173.22 -697.888 2390.44 -751.126 2514.36 -629.229C2637.25 -508.337 2691.95 -317.677 2679.24 -145.85C2666.7 23.7307 2526.6 150.586 2445.63 299.934C2373.54 432.888 2333.71 584.415 2225.86 690.346C2116.93 797.345 1974.29 861.069 1828.42 906.194C1682.45 951.351 1530.32 939.354 1378.05 952.624C1186.95 969.279 981.169 1084.54 811.353 994.833C645.794 907.372 629.439 675.274 540.695 510.264Z" fill="#545FEF" fill-opacity="0.07"/>
</svg>
