<svg width="49" height="36" viewBox="0 0 49 36" fill="none" xmlns="http://www.w3.org/2000/svg">
 <title>Blockquote Icon</title>
  <path
    d="M0 23.2326C0 19.5349 1.28346 15.6105 3.85038 11.4593C6.45246 7.27326 11.1292 3.45349 17.8805 0L19.1464 2.35465C15.7707 4.72674 13.2741 6.71512 11.6566 8.31977C8.8084 11.2151 7.38428 13.9884 7.38428 16.6395C7.38428 17.5465 7.64801 18.1395 8.17546 18.4186C8.70291 18.7326 9.16003 18.8895 9.54682 18.8895C10.883 18.7151 11.7621 18.6279 12.1841 18.6279C14.4345 18.6279 16.2806 19.4477 17.7223 21.0872C19.164 22.6919 19.8848 24.6453 19.8848 26.9477C19.8848 29.5291 19.0936 31.6919 17.5113 33.436C15.929 35.1454 13.7488 36 10.9709 36C7.70075 36 5.04593 34.8488 3.00646 32.5465C1.00215 30.2093 0 27.1047 0 23.2326ZM29.1152 23.2326C29.1152 19.3256 30.4865 15.2965 33.2293 11.1453C35.972 6.99419 40.5608 3.27907 46.9957 0L48.2616 2.35465C45.0969 4.55233 42.6706 6.48837 40.9828 8.16279C37.9939 11.1279 36.4995 13.8837 36.4995 16.4302C36.4995 17.1628 36.6929 17.7558 37.0797 18.2093C37.4664 18.6628 37.9939 18.8895 38.662 18.8895C39.9982 18.7151 40.8773 18.6279 41.2992 18.6279C43.5145 18.6279 45.343 19.4302 46.7847 21.0349C48.2616 22.6395 49 24.6105 49 26.9477C49 29.6686 48.1912 31.8663 46.5737 33.5407C44.9562 35.1802 42.7585 36 39.9806 36C36.8159 36 34.2138 34.8488 32.1744 32.5465C30.1349 30.2093 29.1152 27.1047 29.1152 23.2326Z"
    fill="#EBEEF2"/>
</svg>
