<svg width="46" height="54" viewBox="0 0 46 54" fill="none" xmlns="http://www.w3.org/2000/svg">
<g clip-path="url(#clip0)">
<path d="M35.9864 5.36315L31.2782 0H23.0083H14.6975L9.98939 5.36315C9.98939 5.36315 5.85444 4.21683 3.88931 6.18196C3.88931 6.18196 9.41623 5.69067 11.2995 8.76118C11.2995 8.76118 16.417 9.74374 17.113 9.74374C17.8089 9.74374 19.2828 9.17058 20.6748 8.72024C22.0667 8.2699 22.9674 8.2699 22.9674 8.2699C22.9674 8.2699 23.8681 8.2699 25.26 8.72024C26.652 9.17058 28.1259 9.74374 28.8218 9.74374C29.5178 9.74374 34.6353 8.76118 34.6353 8.76118C36.5186 5.69067 42.0455 6.18196 42.0455 6.18196C40.1213 4.21683 35.9864 5.36315 35.9864 5.36315Z" fill="white"/>
<path d="M44.3716 12.9371L45.6408 9.82563C45.6408 9.82563 44.0441 8.10614 42.079 6.14102C40.1139 4.17589 35.9789 5.32221 35.9789 5.32221L31.2708 0H23.0009H14.731L9.98194 5.36315C9.98194 5.36315 5.84699 4.21683 3.88186 6.18196C1.91674 8.14708 0.320074 9.86657 0.320074 9.86657L1.58922 12.978L-0.00744629 17.5633C-0.00744629 17.5633 4.74161 35.4951 5.27383 37.7058C6.37921 42.0046 7.11613 43.6831 10.2276 45.8939C13.339 48.1046 18.9478 51.8711 19.8894 52.4443C20.7901 53.0174 21.9774 54 23.0009 54C24.0244 54 25.1707 53.0174 26.1123 52.4443C27.013 51.8711 32.6628 48.0637 35.7742 45.8939C38.8857 43.724 39.6226 42.0455 40.728 37.7058C41.3011 35.4951 46.0092 17.5633 46.0092 17.5633L44.3716 12.9371Z" fill="url(#paint0_linear)"/>
<path d="M34.6688 8.76118C34.6688 8.76118 40.7279 16.0895 40.7279 17.6861C40.7279 19.2828 39.9501 19.6512 39.1722 20.47C38.3944 21.2889 35.0373 24.8506 34.6279 25.301C34.1775 25.7513 33.3178 26.4473 33.8091 27.7164C34.3413 28.9446 35.1191 30.5413 34.2594 32.1789C33.3997 33.7756 31.9258 34.881 30.9842 34.6763C30.0426 34.5125 27.7909 33.3252 26.9721 32.793C26.1533 32.2608 23.574 30.1319 23.574 29.3131C23.574 28.4943 26.2761 27.0205 26.7674 26.6929C27.2586 26.3654 29.5103 25.0553 29.5513 24.5641C29.5922 24.0728 29.5922 23.909 28.8962 22.6399C28.2412 21.3707 27.013 19.6922 27.2177 18.5868C27.4224 17.4814 29.3466 16.9083 30.7385 16.376C32.1305 15.8438 34.7916 14.8613 35.1191 14.6975C35.4467 14.5337 35.3648 14.4109 34.3413 14.2881C33.3178 14.2062 30.4929 13.7968 29.1828 14.1653C27.8727 14.5337 25.7029 15.066 25.4982 15.3525C25.3345 15.6391 25.1707 15.6391 25.3345 16.6626C25.4982 17.6452 26.4808 22.4761 26.5627 23.3359C26.6445 24.1956 26.8492 24.7688 25.9076 24.9735C25.0069 25.1782 23.4512 25.5466 22.919 25.5466C22.3868 25.5466 20.831 25.1782 19.9304 24.9735C19.0297 24.7688 19.1934 24.1956 19.2753 23.3359C19.3572 22.4761 20.2988 17.6861 20.5035 16.6626C20.6673 15.6801 20.5445 15.6391 20.3398 15.3525C20.176 15.066 17.9652 14.5337 16.6552 14.1653C15.3451 13.7968 12.5202 14.1653 11.4967 14.2881C10.4732 14.37 10.3913 14.5337 10.7188 14.6975C11.0464 14.8613 13.7075 15.8438 15.0994 16.376C16.4914 16.9083 18.4156 17.4814 18.6203 18.5868C18.825 19.6922 17.6377 21.3707 16.9417 22.6399C16.2867 23.909 16.2458 24.0318 16.2867 24.5641C16.3276 25.0553 18.5793 26.3654 19.0706 26.6929C19.5619 27.0205 22.2639 28.4943 22.2639 29.3131C22.2639 30.1319 19.6847 32.2608 18.8659 32.793C18.0471 33.3252 15.8364 34.4716 14.8538 34.6763C13.9122 34.84 12.4383 33.7756 11.5786 32.1789C10.7188 30.5823 11.4967 28.9856 12.0289 27.7164C12.5611 26.4882 11.6605 25.7923 11.2101 25.301C10.9235 24.8097 7.56645 21.2479 6.78859 20.47C6.01073 19.6512 5.2738 19.2418 5.2738 17.6861C5.2738 16.1304 11.3329 8.76118 11.3329 8.76118C11.3329 8.76118 16.4505 9.74374 17.1464 9.74374C17.8424 9.74374 19.3163 9.17058 20.7082 8.72024C22.1002 8.2699 23.0009 8.2699 23.0009 8.2699C23.0009 8.2699 23.9016 8.2699 25.2935 8.72024C26.6855 9.17058 28.1593 9.74374 28.8553 9.74374C29.5513 9.74374 34.6688 8.76118 34.6688 8.76118ZM30.1244 36.8052C30.4929 37.0508 30.2882 37.5011 29.9197 37.7058C29.5922 37.9515 24.966 41.5133 24.5566 41.9227C24.1063 42.3321 23.4512 42.9462 23.0009 42.9462C22.5505 42.9462 21.8955 42.2911 21.4451 41.9227C20.9948 41.5133 16.4095 37.9515 16.082 37.7058C15.7545 37.4602 15.5088 37.0099 15.8773 36.8052C16.2458 36.5595 17.433 35.9864 19.0297 35.1266C20.6673 34.2669 22.6733 33.5709 23.0009 33.5709C23.3284 33.5709 25.3345 34.2669 26.9721 35.1266C28.5687 35.9864 29.756 36.6004 30.1244 36.8052Z" fill="white"/>
<path d="M35.9789 5.36315L31.2708 0H23.0009H14.731L9.98194 5.36315C9.98194 5.36315 5.84699 4.21683 3.88187 6.18196C3.88187 6.18196 9.40878 5.69067 11.292 8.76118C11.292 8.76118 16.4095 9.74374 17.1055 9.74374C17.8015 9.74374 19.2753 9.17058 20.6673 8.72024C22.0593 8.2699 22.96 8.2699 22.96 8.2699C22.96 8.2699 23.8606 8.2699 25.2526 8.72024C26.6446 9.17058 28.1184 9.74374 28.8144 9.74374C29.5104 9.74374 34.6279 8.76118 34.6279 8.76118C36.5111 5.69067 42.0381 6.18196 42.0381 6.18196C40.1139 4.21683 35.9789 5.36315 35.9789 5.36315Z" fill="url(#paint1_linear)"/>
</g>
<defs>
<linearGradient id="paint0_linear" x1="-0.000565599" y1="26.9902" x2="45.9802" y2="26.9902" gradientUnits="userSpaceOnUse">
<stop stop-color="#FF5500"/>
<stop offset="0.4099" stop-color="#FF5500"/>
<stop offset="0.582" stop-color="#FF2000"/>
<stop offset="1" stop-color="#FF2000"/>
</linearGradient>
<linearGradient id="paint1_linear" x1="4.73086" y1="4.86158" x2="42.0744" y2="4.86158" gradientUnits="userSpaceOnUse">
<stop stop-color="#FF452A"/>
<stop offset="1" stop-color="#FF2000"/>
</linearGradient>
<clipPath id="clip0">
<rect width="45.9757" height="54" fill="white"/>
</clipPath>
</defs>
</svg>
