<svg width="452" height="396" viewBox="0 0 452 396" fill="none" xmlns="http://www.w3.org/2000/svg">
  <title>Chart Picture with a Pink Background</title>
  <path fill-rule="evenodd" clip-rule="evenodd"
        d="M201.378 8.66975C232.129 9.59627 263.519 2.39177 292.418 12.9065C322.24 23.757 352.623 41.2893 367.636 69.1617C382.575 96.8979 367.993 131.165 372.868 162.266C377.366 190.959 400.406 216.772 395.253 245.355C390.095 273.963 369.161 298.945 345.23 315.566C322.644 331.253 290.278 322.042 266.058 335.085C240.227 348.995 229.671 385.21 201.378 393.03C173.318 400.786 140.812 392.698 116.753 376.352C93.0089 360.219 86.2849 329.06 71.2788 304.639C57.9198 282.898 39.1209 264.302 32.7339 239.617C26.2825 214.684 29.0074 188.477 34.725 163.366C40.4466 138.238 55.0487 117.029 65.9656 93.6704C79.6672 64.3542 80.1857 24.5775 107.647 7.33942C134.42 -9.46654 169.749 7.71678 201.378 8.66975Z"
        fill="#FF8787"/>
  <g filter="url(#filter0_d)">
    <rect x="20" y="35" width="412" height="320" rx="8" fill="white"/>
  </g>
  <rect x="65.5335" y="319.349" width="342.373" height="1.19711" fill="#EBEEF2"/>
  <path fill-rule="evenodd" clip-rule="evenodd" d="M65.5335 289.422H407.907V290.619H65.5335V289.422Z" fill="#EBEEF2"/>
  <path fill-rule="evenodd" clip-rule="evenodd" d="M65.5335 259.494H407.907V260.691H65.5335V259.494Z" fill="#EBEEF2"/>
  <path fill-rule="evenodd" clip-rule="evenodd" d="M65.5335 229.566H407.907V230.763H65.5335V229.566Z" fill="#EBEEF2"/>
  <path fill-rule="evenodd" clip-rule="evenodd" d="M65.5335 169.711H407.907V170.908H65.5335V169.711Z" fill="#EBEEF2"/>
  <path fill-rule="evenodd" clip-rule="evenodd" d="M65.5335 139.783H407.907V140.98H65.5335V139.783Z" fill="#EBEEF2"/>
  <path fill-rule="evenodd" clip-rule="evenodd" d="M65.5335 109.855H407.907V111.053H65.5335V109.855Z" fill="#EBEEF2"/>
  <path fill-rule="evenodd" clip-rule="evenodd" d="M65.5335 79.9277H407.907V81.1248H65.5335V79.9277Z" fill="#EBEEF2"/>
  <rect x="65.5335" y="50" width="1.19711" height="269.349" fill="#EBEEF2"/>
  <rect x="121.798" y="50" width="1.19711" height="269.349" fill="#EBEEF2"/>
  <rect x="179.259" y="50" width="1.19711" height="269.349" fill="#EBEEF2"/>
  <rect x="235.523" y="50" width="1.19711" height="269.349" fill="#EBEEF2"/>
  <rect x="291.787" y="50" width="1.19711" height="269.349" fill="#EBEEF2"/>
  <rect x="348.051" y="50" width="1.19711" height="269.349" fill="#EBEEF2"/>
  <rect x="406.709" y="50" width="1.19711" height="269.349" fill="#EBEEF2"/>
  <rect x="65.5335" y="199.639" width="342.373" height="1.19711" fill="#9AA9B9"/>
  <rect x="98.3817" y="124.221" width="12.4699" height="75.4178" fill="#FF8787"/>
  <rect width="12.4699" height="99.36" transform="matrix(1 0 0 -1 155.438 300.196)" fill="#FF8787"/>
  <rect x="212.495" y="200.836" width="12.4699" height="75.4178" fill="#FF8787"/>
  <rect x="268.354" y="79.9277" width="12.4699" height="119.711" fill="#FF8787"/>
  <rect x="324.214" y="200.836" width="12.4699" height="46.6872" fill="#FF8787"/>
  <rect x="381.27" y="152.951" width="12.4699" height="46.6872" fill="#FF8787"/>
  <rect x="77.3058" y="100.279" width="12.4699" height="99.36" fill="#545FEF"/>
  <rect x="134.362" y="139.783" width="12.4699" height="59.8554" fill="#545FEF"/>
  <rect width="12.4699" height="82.6005" transform="matrix(1 0 0 -1 191.419 283.436)" fill="#545FEF"/>
  <rect x="247.278" y="57.1826" width="12.4699" height="142.456" fill="#545FEF"/>
  <rect x="303.138" y="65.5624" width="12.4699" height="134.076" fill="#545FEF"/>
  <rect x="360.194" y="200.836" width="12.4699" height="31.1248" fill="#545FEF"/>
  <g filter="url(#filter1_d)">
    <path
      d="M402.592 267.874C390.873 249.577 389.937 201.307 374.753 200.836C353.177 198.719 362.927 90.0379 316.756 85.9133C269.516 81.9781 266.431 207.942 230.92 210.413C196.1 212.539 182.174 43.7808 140.445 111.053C98.065 177.504 96.0276 96.1235 85.4504 88.282C74.8733 80.4405 70.8482 100.556 70.8482 100.279"
      stroke="#534582" stroke-width="1.24699"/>
  </g>
  <path fill-rule="evenodd" clip-rule="evenodd"
        d="M71.5191 102.673C72.8414 102.673 73.9133 101.601 73.9133 100.279C73.9133 98.9563 72.8414 97.8844 71.5191 97.8844C70.1968 97.8844 69.1248 98.9563 69.1248 100.279C69.1248 101.601 70.1968 102.673 71.5191 102.673Z"
        fill="#534582"/>
  <path fill-rule="evenodd" clip-rule="evenodd"
        d="M139.591 115.841C140.913 115.841 141.985 114.769 141.985 113.447C141.985 112.124 140.913 111.052 139.591 111.052C138.269 111.052 137.197 112.124 137.197 113.447C137.197 114.769 138.269 115.841 139.591 115.841Z"
        fill="#534582"/>
  <path fill-rule="evenodd" clip-rule="evenodd"
        d="M191.291 144.572C192.614 144.572 193.686 143.5 193.686 142.177C193.686 140.855 192.614 139.783 191.291 139.783C189.969 139.783 188.897 140.855 188.897 142.177C188.897 143.5 189.969 144.572 191.291 144.572Z"
        fill="#534582"/>
  <path fill-rule="evenodd" clip-rule="evenodd"
        d="M252.47 192.456C253.792 192.456 254.864 191.384 254.864 190.062C254.864 188.739 253.792 187.667 252.47 187.667C251.148 187.667 250.076 188.739 250.076 190.062C250.076 191.384 251.148 192.456 252.47 192.456Z"
        fill="#534582"/>
  <path fill-rule="evenodd" clip-rule="evenodd"
        d="M311.926 88.3075C313.248 88.3075 314.32 87.2355 314.32 85.9133C314.32 84.591 313.248 83.519 311.926 83.519C310.603 83.519 309.531 84.591 309.531 85.9133C309.531 87.2355 310.603 88.3075 311.926 88.3075Z"
        fill="#534582"/>
  <path fill-rule="evenodd" clip-rule="evenodd"
        d="M356.732 149.36C358.055 149.36 359.127 148.288 359.127 146.966C359.127 145.643 358.055 144.572 356.732 144.572C355.41 144.572 354.338 145.643 354.338 146.966C354.338 148.288 355.41 149.36 356.732 149.36Z"
        fill="#534582"/>
  <path fill-rule="evenodd" clip-rule="evenodd"
        d="M403.263 269.071C404.585 269.071 405.657 267.999 405.657 266.677C405.657 265.354 404.585 264.282 403.263 264.282C401.94 264.282 400.869 265.354 400.869 266.677C400.869 267.999 401.94 269.071 403.263 269.071Z"
        fill="#534582"/>
  <g clip-path="url(#clip0)">
    <path opacity="0.5"
          d="M100.206 345.393C99.9011 345.393 99.6608 345.349 99.4855 345.261V344.555C99.716 344.62 99.9564 344.653 100.206 344.653C100.528 344.653 100.771 344.555 100.937 344.36C101.106 344.165 101.19 343.885 101.19 343.518V336.396H102.018V343.449C102.018 344.066 101.863 344.544 101.551 344.881C101.239 345.222 100.791 345.393 100.206 345.393ZM107.075 343.518L106.914 342.758H106.875C106.609 343.092 106.342 343.319 106.076 343.44C105.813 343.557 105.483 343.615 105.087 343.615C104.558 343.615 104.142 343.479 103.84 343.206C103.541 342.933 103.392 342.545 103.392 342.042C103.392 340.964 104.254 340.398 105.979 340.347L106.885 340.317V339.986C106.885 339.567 106.794 339.259 106.612 339.061C106.433 338.859 106.146 338.759 105.75 338.759C105.305 338.759 104.801 338.895 104.24 339.168L103.991 338.549C104.254 338.406 104.542 338.294 104.853 338.213C105.168 338.132 105.483 338.091 105.798 338.091C106.435 338.091 106.906 338.232 107.211 338.515C107.519 338.798 107.674 339.251 107.674 339.874V343.518H107.075ZM105.248 342.948C105.751 342.948 106.146 342.81 106.432 342.534C106.721 342.258 106.865 341.871 106.865 341.374V340.892L106.057 340.926C105.414 340.949 104.949 341.05 104.663 341.228C104.381 341.404 104.24 341.678 104.24 342.051C104.24 342.344 104.327 342.566 104.503 342.719C104.681 342.871 104.93 342.948 105.248 342.948ZM112.998 343.518V340.064C112.998 339.629 112.899 339.304 112.701 339.09C112.503 338.875 112.192 338.768 111.77 338.768C111.212 338.768 110.803 338.919 110.543 339.221C110.283 339.523 110.153 340.022 110.153 340.717V343.518H109.344V338.179H110.002L110.134 338.91H110.173C110.338 338.647 110.57 338.444 110.869 338.301C111.168 338.155 111.501 338.081 111.868 338.081C112.511 338.081 112.995 338.237 113.319 338.549C113.644 338.858 113.806 339.353 113.806 340.035V343.518H112.998Z"
          fill="#1D3650"/>
    <path opacity="0.5"
          d="M157.01 343.518H156.182V336.396H160.152V337.132H157.01V339.738H159.962V340.473H157.01V343.518ZM163.469 343.615C162.68 343.615 162.056 343.375 161.599 342.894C161.144 342.413 160.917 341.746 160.917 340.892C160.917 340.032 161.128 339.348 161.55 338.841C161.975 338.335 162.545 338.081 163.26 338.081C163.929 338.081 164.458 338.302 164.848 338.744C165.237 339.182 165.432 339.762 165.432 340.483V340.994H161.754C161.771 341.621 161.928 342.097 162.227 342.422C162.529 342.746 162.953 342.909 163.498 342.909C164.073 342.909 164.641 342.789 165.203 342.548V343.269C164.917 343.393 164.646 343.48 164.39 343.532C164.136 343.587 163.829 343.615 163.469 343.615ZM163.25 338.759C162.821 338.759 162.479 338.898 162.222 339.177C161.969 339.457 161.819 339.843 161.774 340.337H164.565C164.565 339.827 164.451 339.437 164.224 339.168C163.997 338.895 163.672 338.759 163.25 338.759ZM169.3 338.091C170.001 338.091 170.545 338.332 170.931 338.812C171.321 339.29 171.516 339.967 171.516 340.843C171.516 341.72 171.32 342.402 170.927 342.889C170.537 343.373 169.995 343.615 169.3 343.615C168.952 343.615 168.634 343.552 168.345 343.425C168.059 343.295 167.819 343.097 167.624 342.831H167.566L167.395 343.518H166.815V335.938H167.624V337.779C167.624 338.192 167.611 338.562 167.585 338.89H167.624C168.001 338.358 168.559 338.091 169.3 338.091ZM169.183 338.768C168.631 338.768 168.233 338.927 167.989 339.246C167.746 339.561 167.624 340.093 167.624 340.843C167.624 341.594 167.749 342.131 167.999 342.456C168.249 342.777 168.65 342.938 169.202 342.938C169.699 342.938 170.069 342.758 170.313 342.397C170.556 342.034 170.678 341.512 170.678 340.834C170.678 340.139 170.556 339.621 170.313 339.28C170.069 338.939 169.693 338.768 169.183 338.768Z"
          fill="#1D3650"/>
    <path opacity="0.5"
          d="M215.031 343.518L212.615 337.205H212.576C212.622 337.705 212.645 338.299 212.645 338.988V343.518H211.88V336.396H213.127L215.382 342.271H215.421L217.696 336.396H218.933V343.518H218.105V338.929C218.105 338.403 218.128 337.831 218.173 337.214H218.134L215.699 343.518H215.031ZM224.053 343.518L223.892 342.758H223.853C223.587 343.092 223.32 343.319 223.054 343.44C222.791 343.557 222.461 343.615 222.065 343.615C221.536 343.615 221.12 343.479 220.818 343.206C220.519 342.933 220.37 342.545 220.37 342.042C220.37 340.964 221.232 340.398 222.957 340.347L223.863 340.317V339.986C223.863 339.567 223.772 339.259 223.59 339.061C223.411 338.859 223.124 338.759 222.728 338.759C222.283 338.759 221.779 338.895 221.218 339.168L220.969 338.549C221.232 338.406 221.52 338.294 221.831 338.213C222.146 338.132 222.461 338.091 222.776 338.091C223.413 338.091 223.884 338.232 224.189 338.515C224.497 338.798 224.652 339.251 224.652 339.874V343.518H224.053ZM222.226 342.948C222.729 342.948 223.124 342.81 223.41 342.534C223.699 342.258 223.843 341.871 223.843 341.374V340.892L223.035 340.926C222.392 340.949 221.927 341.05 221.641 341.228C221.359 341.404 221.218 341.678 221.218 342.051C221.218 342.344 221.305 342.566 221.481 342.719C221.659 342.871 221.908 342.948 222.226 342.948ZM228.758 338.081C228.995 338.081 229.208 338.101 229.396 338.14L229.284 338.89C229.063 338.841 228.868 338.817 228.7 338.817C228.268 338.817 227.897 338.992 227.589 339.343C227.284 339.694 227.131 340.131 227.131 340.653V343.518H226.322V338.179H226.99L227.082 339.168H227.121C227.319 338.82 227.558 338.552 227.837 338.364C228.117 338.176 228.424 338.081 228.758 338.081Z"
          fill="#1D3650"/>
    <path opacity="0.5"
          d="M274.155 343.518L273.269 341.253H270.414L269.538 343.518H268.7L271.515 336.367H272.212L275.013 343.518H274.155ZM273.011 340.507L272.183 338.301C272.075 338.021 271.965 337.679 271.851 337.273C271.78 337.585 271.678 337.927 271.544 338.301L270.707 340.507H273.011ZM278.354 343.615C278.007 343.615 277.688 343.552 277.399 343.425C277.114 343.295 276.873 343.097 276.679 342.831H276.62C276.659 343.143 276.679 343.438 276.679 343.717V345.914H275.87V338.179H276.528L276.64 338.91H276.679C276.886 338.617 277.128 338.406 277.404 338.276C277.68 338.146 277.997 338.081 278.354 338.081C279.062 338.081 279.608 338.323 279.991 338.807C280.377 339.291 280.571 339.97 280.571 340.843C280.571 341.72 280.374 342.402 279.981 342.889C279.591 343.373 279.049 343.615 278.354 343.615ZM278.237 338.768C277.692 338.768 277.297 338.919 277.054 339.221C276.81 339.523 276.685 340.004 276.679 340.663V340.843C276.679 341.594 276.804 342.131 277.054 342.456C277.304 342.777 277.705 342.938 278.257 342.938C278.718 342.938 279.078 342.751 279.338 342.378C279.601 342.004 279.733 341.49 279.733 340.834C279.733 340.168 279.601 339.658 279.338 339.304C279.078 338.947 278.711 338.768 278.237 338.768ZM284.424 338.081C284.661 338.081 284.873 338.101 285.062 338.14L284.95 338.89C284.729 338.841 284.534 338.817 284.365 338.817C283.933 338.817 283.563 338.992 283.254 339.343C282.949 339.694 282.797 340.131 282.797 340.653V343.518H281.988V338.179H282.655L282.748 339.168H282.787C282.985 338.82 283.224 338.552 283.503 338.364C283.782 338.176 284.089 338.081 284.424 338.081Z"
          fill="#1D3650"/>
    <path opacity="0.5"
          d="M327.203 343.518L324.787 337.205H324.748C324.794 337.705 324.817 338.299 324.817 338.988V343.518H324.052V336.396H325.299L327.554 342.271H327.593L329.868 336.396H331.105V343.518H330.277V338.929C330.277 338.403 330.3 337.831 330.345 337.214H330.306L327.871 343.518H327.203ZM336.225 343.518L336.064 342.758H336.025C335.759 343.092 335.492 343.319 335.226 343.44C334.963 343.557 334.633 343.615 334.237 343.615C333.708 343.615 333.292 343.479 332.99 343.206C332.691 342.933 332.542 342.545 332.542 342.042C332.542 340.964 333.404 340.398 335.129 340.347L336.035 340.317V339.986C336.035 339.567 335.944 339.259 335.762 339.061C335.583 338.859 335.296 338.759 334.9 338.759C334.455 338.759 333.951 338.895 333.39 339.168L333.141 338.549C333.404 338.406 333.692 338.294 334.003 338.213C334.318 338.132 334.633 338.091 334.948 338.091C335.585 338.091 336.056 338.232 336.361 338.515C336.669 338.798 336.824 339.251 336.824 339.874V343.518H336.225ZM334.398 342.948C334.901 342.948 335.296 342.81 335.582 342.534C335.871 342.258 336.015 341.871 336.015 341.374V340.892L335.207 340.926C334.564 340.949 334.099 341.05 333.813 341.228C333.531 341.404 333.39 341.678 333.39 342.051C333.39 342.344 333.477 342.566 333.653 342.719C333.831 342.871 334.08 342.948 334.398 342.948ZM337.647 338.179H338.514L339.683 341.223C339.94 341.918 340.099 342.42 340.16 342.728H340.199C340.242 342.563 340.329 342.28 340.462 341.881C340.599 341.478 341.04 340.244 341.787 338.179H342.654L340.36 344.258C340.133 344.859 339.866 345.284 339.561 345.534C339.259 345.787 338.887 345.914 338.446 345.914C338.199 345.914 337.955 345.887 337.715 345.831V345.183C337.894 345.222 338.093 345.242 338.314 345.242C338.87 345.242 339.266 344.93 339.503 344.307L339.8 343.547L337.647 338.179Z"
          fill="#1D3650"/>
    <path opacity="0.5"
          d="M385.142 345.393C384.837 345.393 384.596 345.349 384.421 345.261V344.555C384.652 344.62 384.892 344.653 385.142 344.653C385.463 344.653 385.707 344.555 385.873 344.36C386.041 344.165 386.126 343.885 386.126 343.518V336.396H386.954V343.449C386.954 344.066 386.798 344.544 386.486 344.881C386.175 345.222 385.726 345.393 385.142 345.393ZM389.487 338.179V341.642C389.487 342.077 389.586 342.402 389.784 342.616C389.982 342.831 390.292 342.938 390.714 342.938C391.273 342.938 391.681 342.785 391.937 342.48C392.197 342.175 392.327 341.676 392.327 340.985V338.179H393.135V343.518H392.468L392.351 342.802H392.307C392.142 343.065 391.911 343.266 391.616 343.406C391.323 343.545 390.989 343.615 390.612 343.615C389.963 343.615 389.476 343.461 389.151 343.152C388.829 342.844 388.669 342.35 388.669 341.671V338.179H389.487ZM398.508 343.518V340.064C398.508 339.629 398.409 339.304 398.211 339.09C398.013 338.875 397.703 338.768 397.281 338.768C396.722 338.768 396.313 338.919 396.053 339.221C395.793 339.523 395.663 340.022 395.663 340.717V343.518H394.855V338.179H395.512L395.644 338.91H395.683C395.849 338.647 396.081 338.444 396.379 338.301C396.678 338.155 397.011 338.081 397.378 338.081C398.021 338.081 398.505 338.237 398.83 338.549C399.154 338.858 399.317 339.353 399.317 340.035V343.518H398.508Z"
          fill="#1D3650"/>
    <path opacity="0.5"
          d="M41.7332 320.863V320.122H44.1249V320.863H41.7332ZM47.3836 315.943C48.0331 315.943 48.5478 316.094 48.9277 316.396C49.3076 316.698 49.4976 317.115 49.4976 317.648C49.4976 317.999 49.3888 318.318 49.1713 318.607C48.9537 318.896 48.6062 319.16 48.1289 319.397C48.7069 319.673 49.1177 319.963 49.3612 320.268C49.6048 320.57 49.7266 320.921 49.7266 321.321C49.7266 321.912 49.5204 322.384 49.1079 322.738C48.6955 323.089 48.1305 323.264 47.4128 323.264C46.6529 323.264 46.0684 323.099 45.6592 322.767C45.2501 322.433 45.0455 321.96 45.0455 321.35C45.0455 320.535 45.5423 319.9 46.536 319.445C46.0879 319.192 45.7664 318.919 45.5716 318.627C45.3767 318.331 45.2793 318.002 45.2793 317.638C45.2793 317.122 45.4693 316.711 45.8492 316.406C46.2324 316.097 46.7439 315.943 47.3836 315.943ZM45.8443 321.369C45.8443 321.759 45.9791 322.063 46.2486 322.28C46.5214 322.498 46.903 322.607 47.3933 322.607C47.8772 322.607 48.2539 322.493 48.5234 322.266C48.7929 322.038 48.9277 321.727 48.9277 321.33C48.9277 321.015 48.8011 320.736 48.5478 320.493C48.2945 320.246 47.8528 320.007 47.2228 319.776C46.739 319.984 46.3883 320.215 46.1707 320.468C45.9531 320.718 45.8443 321.019 45.8443 321.369ZM47.3738 316.601C46.9679 316.601 46.6497 316.698 46.4191 316.893C46.1886 317.088 46.0733 317.347 46.0733 317.672C46.0733 317.971 46.1691 318.228 46.3607 318.442C46.5523 318.656 46.9062 318.87 47.4226 319.085C47.8869 318.89 48.2149 318.681 48.4065 318.456C48.6013 318.232 48.6988 317.971 48.6988 317.672C48.6988 317.344 48.5802 317.084 48.3432 316.893C48.1094 316.698 47.7863 316.601 47.3738 316.601ZM55.4549 319.596C55.4549 320.827 55.2601 321.746 54.8704 322.353C54.4839 322.961 53.8913 323.264 53.0925 323.264C52.3261 323.264 51.7432 322.954 51.3437 322.334C50.9443 321.71 50.7446 320.798 50.7446 319.596C50.7446 318.356 50.9378 317.435 51.3243 316.834C51.7107 316.234 52.3001 315.933 53.0925 315.933C53.8653 315.933 54.4515 316.247 54.8509 316.873C55.2536 317.5 55.4549 318.408 55.4549 319.596ZM51.5629 319.596C51.5629 320.632 51.6847 321.387 51.9283 321.861C52.1718 322.332 52.5599 322.568 53.0925 322.568C53.6315 322.568 54.0212 322.329 54.2615 321.852C54.5051 321.371 54.6268 320.619 54.6268 319.596C54.6268 318.573 54.5051 317.825 54.2615 317.351C54.0212 316.873 53.6315 316.635 53.0925 316.635C52.5599 316.635 52.1718 316.87 51.9283 317.341C51.6847 317.809 51.5629 318.56 51.5629 319.596Z"
          fill="#1D3650"/>
    <path opacity="0.5"
          d="M41.7332 290.935V290.195H44.1249V290.935H41.7332ZM45.1088 290.195C45.1088 288.795 45.38 287.749 45.9223 287.058C46.4678 286.363 47.2732 286.015 48.3383 286.015C48.7053 286.015 48.9943 286.046 49.2054 286.108V286.804C48.9553 286.723 48.6695 286.683 48.3481 286.683C47.5849 286.683 47.002 286.921 46.5993 287.399C46.1967 287.873 45.9759 288.62 45.9369 289.639H45.9953C46.3525 289.081 46.9176 288.802 47.6905 288.802C48.3302 288.802 48.8335 288.995 49.2005 289.381C49.5707 289.768 49.7558 290.292 49.7558 290.955C49.7558 291.695 49.5528 292.278 49.1469 292.703C48.7442 293.125 48.1987 293.337 47.5102 293.337C46.7731 293.337 46.1886 293.061 45.7567 292.508C45.3248 291.953 45.1088 291.182 45.1088 290.195ZM47.5005 292.65C47.9616 292.65 48.3188 292.505 48.5721 292.216C48.8287 291.924 48.9569 291.503 48.9569 290.955C48.9569 290.484 48.8384 290.114 48.6013 289.844C48.3643 289.574 48.0103 289.44 47.5395 289.44C47.2472 289.44 46.9793 289.5 46.7357 289.62C46.4922 289.74 46.2973 289.906 46.1512 290.117C46.0083 290.328 45.9369 290.547 45.9369 290.774C45.9369 291.109 46.0018 291.421 46.1317 291.71C46.2616 291.999 46.4451 292.228 46.6822 292.396C46.9225 292.565 47.1952 292.65 47.5005 292.65ZM55.4549 289.669C55.4549 290.899 55.2601 291.818 54.8704 292.426C54.4839 293.033 53.8913 293.337 53.0925 293.337C52.3261 293.337 51.7432 293.026 51.3437 292.406C50.9443 291.783 50.7446 290.87 50.7446 289.669C50.7446 288.428 50.9378 287.508 51.3243 286.907C51.7107 286.306 52.3001 286.006 53.0925 286.006C53.8653 286.006 54.4515 286.319 54.8509 286.946C55.2536 287.572 55.4549 288.48 55.4549 289.669ZM51.5629 289.669C51.5629 290.705 51.6847 291.46 51.9283 291.934C52.1718 292.405 52.5599 292.64 53.0925 292.64C53.6315 292.64 54.0212 292.401 54.2615 291.924C54.5051 291.443 54.6268 290.692 54.6268 289.669C54.6268 288.646 54.5051 287.897 54.2615 287.423C54.0212 286.946 53.6315 286.707 53.0925 286.707C52.5599 286.707 52.1718 286.942 51.9283 287.413C51.6847 287.881 51.5629 288.633 51.5629 289.669Z"
          fill="#1D3650"/>
    <path opacity="0.5"
          d="M41.7332 261.007V260.267H44.1249V261.007H41.7332ZM50.0432 261.675H48.9862V263.311H48.2117V261.675H44.7483V260.968L48.1289 256.151H48.9862V260.939H50.0432V261.675ZM48.2117 260.939V258.572C48.2117 258.107 48.2279 257.583 48.2604 256.999H48.2214C48.0655 257.31 47.9194 257.568 47.783 257.773L45.5569 260.939H48.2117ZM55.4549 259.741C55.4549 260.972 55.2601 261.891 54.8704 262.498C54.4839 263.105 53.8913 263.409 53.0925 263.409C52.3261 263.409 51.7432 263.099 51.3437 262.478C50.9443 261.855 50.7446 260.942 50.7446 259.741C50.7446 258.5 50.9378 257.58 51.3243 256.979C51.7107 256.378 52.3001 256.078 53.0925 256.078C53.8653 256.078 54.4515 256.391 54.8509 257.018C55.2536 257.645 55.4549 258.552 55.4549 259.741ZM51.5629 259.741C51.5629 260.777 51.6847 261.532 51.9283 262.006C52.1718 262.477 52.5599 262.712 53.0925 262.712C53.6315 262.712 54.0212 262.474 54.2615 261.996C54.5051 261.516 54.6268 260.764 54.6268 259.741C54.6268 258.718 54.5051 257.969 54.2615 257.495C54.0212 257.018 53.6315 256.779 53.0925 256.779C52.5599 256.779 52.1718 257.015 51.9283 257.486C51.6847 257.953 51.5629 258.705 51.5629 259.741Z"
          fill="#1D3650"/>
    <path opacity="0.5"
          d="M41.7332 231.08V230.339H44.1249V231.08H41.7332ZM49.7071 233.384H45.026V232.687L46.9014 230.802C47.4729 230.224 47.8496 229.812 48.0314 229.565C48.2133 229.318 48.3497 229.078 48.4406 228.844C48.5315 228.61 48.577 228.358 48.577 228.089C48.577 227.709 48.4617 227.409 48.2311 227.188C48.0006 226.964 47.6807 226.852 47.2716 226.852C46.976 226.852 46.6951 226.9 46.4289 226.998C46.1658 227.095 45.8719 227.272 45.5472 227.529L45.1185 226.978C45.7745 226.433 46.4889 226.16 47.2618 226.16C47.9308 226.16 48.4552 226.332 48.8352 226.676C49.2151 227.017 49.4051 227.477 49.4051 228.055C49.4051 228.506 49.2784 228.953 49.0251 229.394C48.7718 229.836 48.2977 230.394 47.6028 231.07L46.044 232.595V232.634H49.7071V233.384ZM55.4549 229.813C55.4549 231.044 55.2601 231.963 54.8704 232.57C54.4839 233.177 53.8913 233.481 53.0925 233.481C52.3261 233.481 51.7432 233.171 51.3437 232.551C50.9443 231.927 50.7446 231.015 50.7446 229.813C50.7446 228.573 50.9378 227.652 51.3243 227.051C51.7107 226.451 52.3001 226.15 53.0925 226.15C53.8653 226.15 54.4515 226.464 54.8509 227.09C55.2536 227.717 55.4549 228.625 55.4549 229.813ZM51.5629 229.813C51.5629 230.849 51.6847 231.604 51.9283 232.078C52.1718 232.549 52.5599 232.785 53.0925 232.785C53.6315 232.785 54.0212 232.546 54.2615 232.068C54.5051 231.588 54.6268 230.836 54.6268 229.813C54.6268 228.79 54.5051 228.042 54.2615 227.568C54.0212 227.09 53.6315 226.852 53.0925 226.852C52.5599 226.852 52.1718 227.087 51.9283 227.558C51.6847 228.026 51.5629 228.777 51.5629 229.813Z"
          fill="#1D3650"/>
    <path opacity="0.5"
          d="M55.4549 199.885C55.4549 201.116 55.2601 202.035 54.8704 202.642C54.4839 203.25 53.8913 203.553 53.0925 203.553C52.3261 203.553 51.7432 203.243 51.3437 202.623C50.9443 201.999 50.7446 201.087 50.7446 199.885C50.7446 198.645 50.9378 197.724 51.3243 197.124C51.7107 196.523 52.3001 196.222 53.0925 196.222C53.8653 196.222 54.4515 196.536 54.8509 197.163C55.2536 197.789 55.4549 198.697 55.4549 199.885ZM51.5629 199.885C51.5629 200.921 51.6847 201.676 51.9283 202.15C52.1718 202.621 52.5599 202.857 53.0925 202.857C53.6315 202.857 54.0212 202.618 54.2615 202.141C54.5051 201.66 54.6268 200.908 54.6268 199.885C54.6268 198.863 54.5051 198.114 54.2615 197.64C54.0212 197.163 53.6315 196.924 53.0925 196.924C52.5599 196.924 52.1718 197.159 51.9283 197.63C51.6847 198.098 51.5629 198.85 51.5629 199.885Z"
          fill="#1D3650"/>
    <path opacity="0.5"
          d="M49.7071 173.528H45.026V172.832L46.9014 170.947C47.4729 170.369 47.8496 169.956 48.0314 169.709C48.2133 169.462 48.3497 169.222 48.4406 168.988C48.5315 168.755 48.577 168.503 48.577 168.233C48.577 167.853 48.4617 167.553 48.2311 167.332C48.0006 167.108 47.6807 166.996 47.2716 166.996C46.976 166.996 46.6951 167.045 46.4289 167.142C46.1658 167.24 45.8719 167.417 45.5472 167.673L45.1185 167.123C45.7745 166.577 46.4889 166.304 47.2618 166.304C47.9308 166.304 48.4552 166.477 48.8352 166.821C49.2151 167.162 49.4051 167.621 49.4051 168.199C49.4051 168.651 49.2784 169.097 49.0251 169.539C48.7718 169.98 48.2977 170.539 47.6028 171.214L46.044 172.739V172.778H49.7071V173.528ZM55.4549 169.958C55.4549 171.188 55.2601 172.107 54.8704 172.715C54.4839 173.322 53.8913 173.626 53.0925 173.626C52.3261 173.626 51.7432 173.315 51.3437 172.695C50.9443 172.072 50.7446 171.159 50.7446 169.958C50.7446 168.717 50.9378 167.797 51.3243 167.196C51.7107 166.595 52.3001 166.295 53.0925 166.295C53.8653 166.295 54.4515 166.608 54.8509 167.235C55.2536 167.862 55.4549 168.769 55.4549 169.958ZM51.5629 169.958C51.5629 170.994 51.6847 171.749 51.9283 172.223C52.1718 172.694 52.5599 172.929 53.0925 172.929C53.6315 172.929 54.0212 172.69 54.2615 172.213C54.5051 171.732 54.6268 170.981 54.6268 169.958C54.6268 168.935 54.5051 168.186 54.2615 167.712C54.0212 167.235 53.6315 166.996 53.0925 166.996C52.5599 166.996 52.1718 167.232 51.9283 167.702C51.6847 168.17 51.5629 168.922 51.5629 169.958Z"
          fill="#1D3650"/>
    <path opacity="0.5"
          d="M50.0432 141.964H48.9862V143.601H48.2117V141.964H44.7483V141.258L48.1289 136.44H48.9862V141.228H50.0432V141.964ZM48.2117 141.228V138.861C48.2117 138.397 48.2279 137.872 48.2604 137.288H48.2214C48.0655 137.599 47.9194 137.858 47.783 138.062L45.5569 141.228H48.2117ZM55.4549 140.03C55.4549 141.261 55.2601 142.18 54.8704 142.787C54.4839 143.394 53.8913 143.698 53.0925 143.698C52.3261 143.698 51.7432 143.388 51.3437 142.768C50.9443 142.144 50.7446 141.232 50.7446 140.03C50.7446 138.79 50.9378 137.869 51.3243 137.268C51.7107 136.667 52.3001 136.367 53.0925 136.367C53.8653 136.367 54.4515 136.68 54.8509 137.307C55.2536 137.934 55.4549 138.842 55.4549 140.03ZM51.5629 140.03C51.5629 141.066 51.6847 141.821 51.9283 142.295C52.1718 142.766 52.5599 143.001 53.0925 143.001C53.6315 143.001 54.0212 142.763 54.2615 142.285C54.5051 141.805 54.6268 141.053 54.6268 140.03C54.6268 139.007 54.5051 138.259 54.2615 137.785C54.0212 137.307 53.6315 137.069 53.0925 137.069C52.5599 137.069 52.1718 137.304 51.9283 137.775C51.6847 138.242 51.5629 138.994 51.5629 140.03Z"
          fill="#1D3650"/>
    <path opacity="0.5"
          d="M45.1088 110.628C45.1088 109.229 45.38 108.183 45.9223 107.491C46.4678 106.797 47.2732 106.449 48.3383 106.449C48.7053 106.449 48.9943 106.48 49.2054 106.542V107.238C48.9553 107.157 48.6695 107.116 48.3481 107.116C47.5849 107.116 47.002 107.355 46.5993 107.832C46.1967 108.307 45.9759 109.053 45.9369 110.073H45.9953C46.3525 109.515 46.9176 109.235 47.6905 109.235C48.3302 109.235 48.8335 109.429 49.2005 109.815C49.5707 110.201 49.7558 110.726 49.7558 111.388C49.7558 112.129 49.5528 112.712 49.1469 113.137C48.7442 113.559 48.1987 113.77 47.5102 113.77C46.7731 113.77 46.1886 113.494 45.7567 112.942C45.3248 112.387 45.1088 111.616 45.1088 110.628ZM47.5005 113.083C47.9616 113.083 48.3188 112.939 48.5721 112.65C48.8287 112.358 48.9569 111.937 48.9569 111.388C48.9569 110.917 48.8384 110.547 48.6013 110.278C48.3643 110.008 48.0103 109.873 47.5395 109.873C47.2472 109.873 46.9793 109.934 46.7357 110.054C46.4922 110.174 46.2973 110.339 46.1512 110.551C46.0083 110.762 45.9369 110.981 45.9369 111.208C45.9369 111.543 46.0018 111.854 46.1317 112.143C46.2616 112.432 46.4451 112.661 46.6822 112.83C46.9225 112.999 47.1952 113.083 47.5005 113.083ZM55.4549 110.102C55.4549 111.333 55.2601 112.252 54.8704 112.859C54.4839 113.467 53.8913 113.77 53.0925 113.77C52.3261 113.77 51.7432 113.46 51.3437 112.84C50.9443 112.216 50.7446 111.304 50.7446 110.102C50.7446 108.862 50.9378 107.941 51.3243 107.34C51.7107 106.74 52.3001 106.439 53.0925 106.439C53.8653 106.439 54.4515 106.753 54.8509 107.379C55.2536 108.006 55.4549 108.914 55.4549 110.102ZM51.5629 110.102C51.5629 111.138 51.6847 111.893 51.9283 112.367C52.1718 112.838 52.5599 113.074 53.0925 113.074C53.6315 113.074 54.0212 112.835 54.2615 112.358C54.5051 111.877 54.6268 111.125 54.6268 110.102C54.6268 109.079 54.5051 108.331 54.2615 107.857C54.0212 107.379 53.6315 107.141 53.0925 107.141C52.5599 107.141 52.1718 107.376 51.9283 107.847C51.6847 108.315 51.5629 109.066 51.5629 110.102Z"
          fill="#1D3650"/>
    <path opacity="0.5"
          d="M47.3836 76.5214C48.0331 76.5214 48.5478 76.6724 48.9277 76.9744C49.3076 77.2764 49.4976 77.6937 49.4976 78.2262C49.4976 78.5769 49.3888 78.8968 49.1713 79.1858C48.9537 79.4748 48.6062 79.7379 48.1289 79.9749C48.7069 80.251 49.1177 80.5416 49.3612 80.8468C49.6048 81.1488 49.7266 81.4996 49.7266 81.899C49.7266 82.49 49.5204 82.9625 49.1079 83.3165C48.6955 83.6672 48.1305 83.8425 47.4128 83.8425C46.6529 83.8425 46.0684 83.6769 45.6592 83.3457C45.2501 83.0112 45.0455 82.5387 45.0455 81.9282C45.0455 81.1131 45.5423 80.4783 46.536 80.0236C46.0879 79.7703 45.7664 79.4976 45.5716 79.2053C45.3767 78.9098 45.2793 78.5802 45.2793 78.2165C45.2793 77.7001 45.4693 77.2894 45.8492 76.9841C46.2324 76.6756 46.7439 76.5214 47.3836 76.5214ZM45.8443 81.9477C45.8443 82.3374 45.9791 82.641 46.2486 82.8586C46.5214 83.0762 46.903 83.1849 47.3933 83.1849C47.8772 83.1849 48.2539 83.0713 48.5234 82.844C48.7929 82.6167 48.9277 82.3049 48.9277 81.9087C48.9277 81.5937 48.8011 81.3145 48.5478 81.0709C48.2945 80.8241 47.8528 80.5854 47.2228 80.3549C46.739 80.5627 46.3883 80.7933 46.1707 81.0466C45.9531 81.2966 45.8443 81.597 45.8443 81.9477ZM47.3738 77.1789C46.9679 77.1789 46.6497 77.2764 46.4191 77.4712C46.1886 77.6661 46.0733 77.9258 46.0733 78.2506C46.0733 78.5493 46.1691 78.8059 46.3607 79.0202C46.5523 79.2345 46.9062 79.4489 47.4226 79.6632C47.8869 79.4683 48.2149 79.2589 48.4065 79.0348C48.6013 78.8107 48.6988 78.5493 48.6988 78.2506C48.6988 77.9226 48.5802 77.6628 48.3432 77.4712C48.1094 77.2764 47.7863 77.1789 47.3738 77.1789ZM55.4549 80.1746C55.4549 81.4054 55.2601 82.3244 54.8704 82.9317C54.4839 83.5389 53.8913 83.8425 53.0925 83.8425C52.3261 83.8425 51.7432 83.5324 51.3437 82.9122C50.9443 82.2887 50.7446 81.3762 50.7446 80.1746C50.7446 78.9341 50.9378 78.0135 51.3243 77.4128C51.7107 76.812 52.3001 76.5116 53.0925 76.5116C53.8653 76.5116 54.4515 76.825 54.8509 77.4517C55.2536 78.0785 55.4549 78.9861 55.4549 80.1746ZM51.5629 80.1746C51.5629 81.2105 51.6847 81.9656 51.9283 82.4397C52.1718 82.9105 52.5599 83.146 53.0925 83.146C53.6315 83.146 54.0212 82.9073 54.2615 82.4299C54.5051 81.9493 54.6268 81.1976 54.6268 80.1746C54.6268 79.1517 54.5051 78.4032 54.2615 77.9291C54.0212 77.4517 53.6315 77.213 53.0925 77.213C52.5599 77.213 52.1718 77.4485 51.9283 77.9193C51.6847 78.387 51.5629 79.1387 51.5629 80.1746Z"
          fill="#1D3650"/>
  </g>
  <defs>
    <filter id="filter0_d" x="0" y="35" width="452" height="360" filterUnits="userSpaceOnUse"
            color-interpolation-filters="sRGB">
      <feFlood flood-opacity="0" result="BackgroundImageFix"/>
      <feColorMatrix in="SourceAlpha" type="matrix" values="0 0 0 0 0 0 0 0 0 0 0 0 0 0 0 0 0 0 127 0"/>
      <feOffset dy="20"/>
      <feGaussianBlur stdDeviation="10"/>
      <feColorMatrix type="matrix" values="0 0 0 0 0.360784 0 0 0 0 0.384314 0 0 0 0 0.803922 0 0 0 0.1 0"/>
      <feBlend mode="normal" in2="BackgroundImageFix" result="effect1_dropShadow"/>
      <feBlend mode="normal" in="SourceGraphic" in2="effect1_dropShadow" result="shape"/>
    </filter>
    <filter id="filter1_d" x="65.2246" y="75.1993" width="342.892" height="193.011" filterUnits="userSpaceOnUse"
            color-interpolation-filters="sRGB">
      <feFlood flood-opacity="0" result="BackgroundImageFix"/>
      <feColorMatrix in="SourceAlpha" type="matrix" values="0 0 0 0 0 0 0 0 0 0 0 0 0 0 0 0 0 0 127 0"/>
      <feOffset dy="-5"/>
      <feGaussianBlur stdDeviation="2.5"/>
      <feColorMatrix type="matrix" values="0 0 0 0 0.32549 0 0 0 0 0.270588 0 0 0 0 0.509804 0 0 0 0.35 0"/>
      <feBlend mode="normal" in2="BackgroundImageFix" result="effect1_dropShadow"/>
      <feBlend mode="normal" in="SourceGraphic" in2="effect1_dropShadow" result="shape"/>
    </filter>
    <clipPath id="clip0">
      <rect width="363" height="272" fill="white" transform="translate(38 72.7451)"/>
    </clipPath>
  </defs>
</svg>
