<svg width="452" height="446" viewBox="0 0 452 446" fill="none" xmlns="http://www.w3.org/2000/svg">
  <title>Chart Picture with a Purple Background</title>
  <path fill-rule="evenodd" clip-rule="evenodd"
        d="M294.79 62.9233C341.034 72.4123 395.98 53.9249 426.685 89.8181C458.059 126.494 437.368 178.987 435.346 227.231C432.219 301.839 478.179 404.323 412.054 438.881C346.255 473.269 290.867 373.918 226.948 336.144C175.024 305.46 108.285 298.029 81.8803 243.763C47.0511 172.184 10.9935 68.4747 71.639 16.9642C132.563 -34.7828 216.52 46.8625 294.79 62.9233Z"
        fill="#545FEF"/>
  <g filter="url(#filter0_d)">
    <rect x="20" y="61" width="412" height="342" rx="8" fill="white"/>
  </g>
  <rect x="56.4509" y="357.145" width="343.754" height="1.20194" fill="#EBEEF2"/>
  <path fill-rule="evenodd" clip-rule="evenodd" d="M56.4509 327.097H400.204V328.299H56.4509V327.097Z" fill="#EBEEF2"/>
  <path fill-rule="evenodd" clip-rule="evenodd" d="M56.4509 267H400.204V268.202H56.4509V267Z" fill="#EBEEF2"/>
  <path fill-rule="evenodd" clip-rule="evenodd" d="M56.4509 206.903H400.204V208.105H56.4509V206.903Z" fill="#EBEEF2"/>
  <path fill-rule="evenodd" clip-rule="evenodd" d="M56.4509 176.855H400.204V178.057H56.4509V176.855Z" fill="#EBEEF2"/>
  <path fill-rule="evenodd" clip-rule="evenodd" d="M56.4509 117.871H400.204V119.073H56.4509V117.871Z" fill="#EBEEF2"/>
  <rect x="56.4509" y="86.7097" width="1.20194" height="270.435" fill="#EBEEF2"/>
  <rect x="112.942" y="86.7097" width="1.20194" height="270.435" fill="#EBEEF2"/>
  <rect x="170.635" y="86.7097" width="1.20194" height="270.435" fill="#EBEEF2"/>
  <rect x="227.126" y="86.7097" width="1.20194" height="270.435" fill="#EBEEF2"/>
  <rect x="283.617" y="86.7097" width="1.20194" height="270.435" fill="#EBEEF2"/>
  <rect x="340.108" y="86.7097" width="1.20194" height="270.435" fill="#EBEEF2"/>
  <rect x="399.003" y="86.7097" width="1.20194" height="270.435" fill="#EBEEF2"/>
  <path opacity="0.5" d="M57.6529 147.919L399.085 148.52" stroke="#1D3650" stroke-width="0.890323"
        stroke-linecap="square" stroke-dasharray="4.45 8.9"/>
  <path opacity="0.5" d="M57.6529 297.048L399.085 297.649" stroke="#1D3650" stroke-width="0.890323"
        stroke-linecap="square" stroke-dasharray="4.45 8.9"/>
  <rect x="56.4509" y="236.952" width="343.754" height="1.20194" fill="#EBEEF2"/>
  <path opacity="0.9" fill-rule="evenodd" clip-rule="evenodd"
        d="M57.7419 236.743C69.8218 255.113 78.1443 138.918 119.888 157.791C152.796 172.669 120.144 338.951 170.111 338.951C220.078 338.951 209.459 212.799 234.745 212.799C260.031 212.799 269.007 392.832 312.022 325.293C355.707 258.577 375.945 314.483 385.399 322.169C394.853 329.855 398.29 236.464 398.29 236.743H57.7419Z"
        fill="#FF8787"/>
  <path opacity="0.9" fill-rule="evenodd" clip-rule="evenodd"
        d="M398.143 236.377C376.593 350.897 382.027 137.932 348.541 151.916C321.255 163.31 358.554 311.736 311.005 315.877C262.355 319.828 259.178 193.37 222.608 190.889C186.748 188.754 172.407 358.175 129.432 290.639C85.7877 223.927 94.2858 199.428 76.6078 204.6C58.9299 209.772 57.7419 238.024 57.7419 238.303C57.7419 238.303 117.675 236.885 189.851 236.377C210.932 236.228 233.13 236.675 255.12 236.674C300.099 236.671 344.453 236.377 378.298 236.377C384.768 236.377 398.143 236.377 398.143 236.377Z"
        fill="#FF8787"/>
  <g filter="url(#filter1_d)">
    <path fill-rule="evenodd" clip-rule="evenodd"
          d="M57.7419 290.94C57.7419 291.406 64.362 287.665 71.5463 290.94C77.6982 295.146 84.1793 301.525 97.6214 296.937C110.36 291.406 111.161 284.37 117.561 270.549C122.99 257.42 134.946 284.203 148.238 282.543C165.857 281.106 169.977 268.198 194.253 224.969C217.507 181.715 226.247 200.808 243.335 229.767C261.042 258.2 258.603 238.789 278.613 240.562C297.959 242.105 309.527 329.305 339.276 329.323C373.807 329.344 373.622 130.218 393.65 129.011C395.951 128.88 396.284 129.939 398.062 131.41C398.575 132.486 398.062 236.632 398.062 236.632H57.7419V290.94Z"
          fill="#545FEF"/>
  </g>
  <path opacity="0.9" fill-rule="evenodd" clip-rule="evenodd"
        d="M398.29 181.851C398.29 181.382 391.67 185.148 384.486 181.851C378.334 177.616 371.853 171.193 358.411 175.813C345.672 181.382 344.872 188.466 338.471 202.382C333.042 215.601 321.086 188.634 307.794 190.305C290.175 191.753 286.055 204.749 261.78 248.275C238.525 291.826 229.785 272.602 212.697 243.444C194.991 214.815 197.429 234.36 177.419 232.575C158.073 231.021 152.352 146.806 123.441 146.806C88.0939 146.806 82.4106 343.677 62.382 344.892C60.0807 345.024 59.7484 343.958 57.9698 342.477C57.457 341.394 57.9698 236.532 57.9698 236.532C57.9698 236.532 138.245 236.952 208.063 236.532C230.306 236.399 252.088 236.952 269.07 236.952C339.33 236.952 398.29 236.532 398.29 236.532L398.29 181.851Z"
        fill="#545FEF"/>
  <g clip-path="url(#clip0)">
    <path opacity="0.5"
          d="M52.3991 381.04C52.1266 381.04 51.9122 381.001 51.7557 380.923V380.292C51.9614 380.35 52.1759 380.379 52.3991 380.379C52.686 380.379 52.9034 380.292 53.0512 380.119C53.2019 379.945 53.2772 379.694 53.2772 379.366V373.011H54.0163V379.306C54.0163 379.856 53.8771 380.282 53.5989 380.584C53.3207 380.888 52.9207 381.04 52.3991 381.04ZM58.5287 379.366L58.3853 378.688H58.3505C58.1128 378.987 57.8752 379.19 57.6375 379.297C57.4028 379.401 57.1086 379.453 56.755 379.453C56.2826 379.453 55.9117 379.332 55.6421 379.088C55.3755 378.845 55.2422 378.498 55.2422 378.049C55.2422 377.087 56.0117 376.583 57.5506 376.536L58.3592 376.51V376.215C58.3592 375.841 58.278 375.565 58.1157 375.389C57.9563 375.209 57.6999 375.119 57.3463 375.119C56.9492 375.119 56.5 375.241 55.9986 375.484L55.7769 374.932C56.0117 374.805 56.2681 374.705 56.5464 374.632C56.8275 374.56 57.1086 374.524 57.3897 374.524C57.9578 374.524 58.378 374.65 58.6505 374.902C58.9258 375.154 59.0634 375.558 59.0634 376.115V379.366H58.5287ZM56.8985 378.858C57.3477 378.858 57.6999 378.735 57.9549 378.488C58.2128 378.242 58.3418 377.897 58.3418 377.454V377.023L57.6202 377.054C57.0463 377.074 56.6319 377.164 56.3768 377.323C56.1247 377.48 55.9986 377.725 55.9986 378.058C55.9986 378.319 56.0769 378.517 56.2334 378.654C56.3928 378.79 56.6145 378.858 56.8985 378.858ZM63.815 379.366V376.284C63.815 375.896 63.7266 375.606 63.5498 375.415C63.3731 375.223 63.0963 375.128 62.7195 375.128C62.221 375.128 61.8559 375.263 61.624 375.532C61.3921 375.802 61.2762 376.247 61.2762 376.867V379.366H60.5546V374.602H61.1414L61.2588 375.254H61.2936C61.4414 375.019 61.6486 374.838 61.9153 374.711C62.1819 374.58 62.479 374.515 62.8065 374.515C63.3803 374.515 63.8121 374.654 64.1019 374.932C64.3918 375.208 64.5367 375.65 64.5367 376.258V379.366H63.815Z"
          fill="#1D3650"/>
    <path opacity="0.5"
          d="M107.025 379.366H106.286V373.011H109.829V373.667H107.025V375.993H109.66V376.649H107.025V379.366ZM112.79 379.453C112.085 379.453 111.529 379.239 111.12 378.81C110.715 378.381 110.512 377.785 110.512 377.023C110.512 376.255 110.7 375.645 111.077 375.193C111.457 374.741 111.965 374.515 112.603 374.515C113.2 374.515 113.672 374.712 114.02 375.106C114.368 375.497 114.542 376.015 114.542 376.658V377.115H111.259C111.274 377.674 111.415 378.098 111.681 378.388C111.951 378.678 112.329 378.823 112.816 378.823C113.329 378.823 113.836 378.716 114.337 378.501V379.145C114.082 379.255 113.84 379.333 113.611 379.379C113.385 379.429 113.111 379.453 112.79 379.453ZM112.594 375.119C112.212 375.119 111.906 375.244 111.677 375.493C111.451 375.742 111.317 376.087 111.277 376.528H113.768C113.768 376.073 113.666 375.725 113.464 375.484C113.261 375.241 112.971 375.119 112.594 375.119ZM117.993 374.524C118.619 374.524 119.105 374.738 119.45 375.167C119.798 375.593 119.971 376.197 119.971 376.98C119.971 377.762 119.796 378.371 119.445 378.806C119.098 379.237 118.614 379.453 117.993 379.453C117.683 379.453 117.399 379.397 117.141 379.284C116.886 379.168 116.672 378.991 116.498 378.753H116.446L116.294 379.366H115.776V372.602H116.498V374.245C116.498 374.613 116.486 374.944 116.463 375.237H116.498C116.834 374.761 117.333 374.524 117.993 374.524ZM117.889 375.128C117.396 375.128 117.041 375.27 116.824 375.554C116.607 375.835 116.498 376.31 116.498 376.98C116.498 377.649 116.61 378.129 116.833 378.419C117.056 378.706 117.414 378.849 117.906 378.849C118.35 378.849 118.68 378.688 118.898 378.367C119.115 378.042 119.224 377.577 119.224 376.971C119.224 376.351 119.115 375.889 118.898 375.584C118.68 375.28 118.344 375.128 117.889 375.128Z"
          fill="#1D3650"/>
    <path opacity="0.5"
          d="M166.005 379.366L163.849 373.732H163.814C163.854 374.179 163.875 374.709 163.875 375.323V379.366H163.192V373.011H164.305L166.318 378.254H166.353L168.383 373.011H169.487V379.366H168.748V375.271C168.748 374.802 168.768 374.292 168.809 373.741H168.774L166.601 379.366H166.005ZM174.056 379.366L173.913 378.688H173.878C173.64 378.987 173.403 379.19 173.165 379.297C172.93 379.401 172.636 379.453 172.282 379.453C171.81 379.453 171.439 379.332 171.169 379.088C170.903 378.845 170.77 378.498 170.77 378.049C170.77 377.087 171.539 376.583 173.078 376.536L173.887 376.51V376.215C173.887 375.841 173.805 375.565 173.643 375.389C173.484 375.209 173.227 375.119 172.874 375.119C172.477 375.119 172.027 375.241 171.526 375.484L171.304 374.932C171.539 374.805 171.796 374.705 172.074 374.632C172.355 374.56 172.636 374.524 172.917 374.524C173.485 374.524 173.905 374.65 174.178 374.902C174.453 375.154 174.591 375.558 174.591 376.115V379.366H174.056ZM172.426 378.858C172.875 378.858 173.227 378.735 173.482 378.488C173.74 378.242 173.869 377.897 173.869 377.454V377.023L173.148 377.054C172.574 377.074 172.159 377.164 171.904 377.323C171.652 377.48 171.526 377.725 171.526 378.058C171.526 378.319 171.604 378.517 171.761 378.654C171.92 378.79 172.142 378.858 172.426 378.858ZM178.256 374.515C178.467 374.515 178.657 374.532 178.825 374.567L178.725 375.237C178.528 375.193 178.354 375.171 178.203 375.171C177.818 375.171 177.488 375.328 177.212 375.641C176.94 375.954 176.804 376.344 176.804 376.81V379.366H176.082V374.602H176.677L176.76 375.484H176.795C176.972 375.174 177.185 374.935 177.434 374.767C177.683 374.599 177.957 374.515 178.256 374.515Z"
          fill="#1D3650"/>
    <path opacity="0.5"
          d="M224.029 379.366L223.238 377.345H220.691L219.908 379.366H219.16L221.673 372.985H222.295L224.795 379.366H224.029ZM223.008 376.68L222.269 374.711C222.173 374.461 222.075 374.156 221.973 373.793C221.909 374.071 221.818 374.377 221.699 374.711L220.952 376.68H223.008ZM227.777 379.453C227.467 379.453 227.183 379.397 226.925 379.284C226.67 379.168 226.455 378.991 226.281 378.753H226.229C226.264 379.032 226.281 379.295 226.281 379.545V381.505H225.56V374.602H226.147L226.247 375.254H226.281C226.467 374.993 226.683 374.805 226.929 374.689C227.175 374.573 227.458 374.515 227.777 374.515C228.409 374.515 228.895 374.731 229.237 375.163C229.582 375.594 229.755 376.2 229.755 376.98C229.755 377.762 229.579 378.371 229.229 378.806C228.881 379.237 228.397 379.453 227.777 379.453ZM227.672 375.128C227.186 375.128 226.833 375.263 226.616 375.532C226.399 375.802 226.287 376.231 226.281 376.819V376.98C226.281 377.649 226.393 378.129 226.616 378.419C226.839 378.706 227.197 378.849 227.69 378.849C228.101 378.849 228.423 378.682 228.655 378.349C228.89 378.016 229.007 377.557 229.007 376.971C229.007 376.377 228.89 375.922 228.655 375.606C228.423 375.287 228.096 375.128 227.672 375.128ZM233.193 374.515C233.405 374.515 233.595 374.532 233.763 374.567L233.663 375.237C233.466 375.193 233.292 375.171 233.141 375.171C232.756 375.171 232.425 375.328 232.15 375.641C231.878 375.954 231.741 376.344 231.741 376.81V379.366H231.02V374.602H231.615L231.698 375.484H231.733C231.91 375.174 232.123 374.935 232.372 374.767C232.621 374.599 232.895 374.515 233.193 374.515Z"
          fill="#1D3650"/>
    <path opacity="0.5"
          d="M279.162 379.366L277.006 373.732H276.971C277.011 374.179 277.032 374.709 277.032 375.323V379.366H276.349V373.011H277.462L279.475 378.254H279.51L281.54 373.011H282.644V379.366H281.905V375.271C281.905 374.802 281.925 374.292 281.966 373.741H281.931L279.757 379.366H279.162ZM287.213 379.366L287.07 378.688H287.035C286.797 378.987 286.559 379.19 286.322 379.297C286.087 379.401 285.793 379.453 285.439 379.453C284.967 379.453 284.596 379.332 284.326 379.088C284.06 378.845 283.926 378.498 283.926 378.049C283.926 377.087 284.696 376.583 286.235 376.536L287.043 376.51V376.215C287.043 375.841 286.962 375.565 286.8 375.389C286.641 375.209 286.384 375.119 286.031 375.119C285.633 375.119 285.184 375.241 284.683 375.484L284.461 374.932C284.696 374.805 284.952 374.705 285.231 374.632C285.512 374.56 285.793 374.524 286.074 374.524C286.642 374.524 287.062 374.65 287.335 374.902C287.61 375.154 287.748 375.558 287.748 376.115V379.366H287.213ZM285.583 378.858C286.032 378.858 286.384 378.735 286.639 378.488C286.897 378.242 287.026 377.897 287.026 377.454V377.023L286.304 377.054C285.731 377.074 285.316 377.164 285.061 377.323C284.809 377.48 284.683 377.725 284.683 378.058C284.683 378.319 284.761 378.517 284.918 378.654C285.077 378.79 285.299 378.858 285.583 378.858ZM288.482 374.602H289.256L290.3 377.319C290.528 377.939 290.671 378.387 290.726 378.662H290.76C290.798 378.514 290.876 378.262 290.995 377.906C291.117 377.546 291.511 376.445 292.178 374.602H292.951L290.904 380.027C290.701 380.563 290.463 380.943 290.191 381.166C289.921 381.392 289.589 381.505 289.195 381.505C288.975 381.505 288.758 381.481 288.543 381.431V380.853C288.703 380.888 288.881 380.905 289.078 380.905C289.574 380.905 289.927 380.627 290.139 380.071L290.404 379.393L288.482 374.602Z"
          fill="#1D3650"/>
    <path opacity="0.5"
          d="M335.198 381.04C334.926 381.04 334.711 381.001 334.555 380.923V380.292C334.761 380.35 334.975 380.379 335.198 380.379C335.485 380.379 335.703 380.292 335.85 380.119C336.001 379.945 336.077 379.694 336.077 379.366V373.011H336.816V379.306C336.816 379.856 336.676 380.282 336.398 380.584C336.12 380.888 335.72 381.04 335.198 381.04ZM339.076 374.602V377.693C339.076 378.081 339.165 378.371 339.341 378.562C339.518 378.753 339.795 378.849 340.172 378.849C340.67 378.849 341.034 378.713 341.263 378.44C341.495 378.168 341.611 377.723 341.611 377.106V374.602H342.332V379.366H341.737L341.632 378.727H341.593C341.445 378.962 341.24 379.142 340.976 379.266C340.715 379.391 340.417 379.453 340.08 379.453C339.501 379.453 339.066 379.316 338.776 379.04C338.489 378.765 338.346 378.325 338.346 377.719V374.602H339.076ZM347.127 379.366V376.284C347.127 375.896 347.039 375.606 346.862 375.415C346.685 375.223 346.409 375.128 346.032 375.128C345.533 375.128 345.168 375.263 344.936 375.532C344.704 375.802 344.588 376.247 344.588 376.867V379.366H343.867V374.602H344.454L344.571 375.254H344.606C344.754 375.019 344.961 374.838 345.228 374.711C345.494 374.58 345.791 374.515 346.119 374.515C346.693 374.515 347.124 374.654 347.414 374.932C347.704 375.208 347.849 375.65 347.849 376.258V379.366H347.127Z"
          fill="#1D3650"/>
    <path opacity="0.5"
          d="M392.096 381.04C391.823 381.04 391.609 381.001 391.453 380.923V380.292C391.658 380.35 391.873 380.379 392.096 380.379C392.383 380.379 392.6 380.292 392.748 380.119C392.899 379.945 392.974 379.694 392.974 379.366V373.011H393.713V379.306C393.713 379.856 393.574 380.282 393.296 380.584C393.018 380.888 392.618 381.04 392.096 381.04ZM395.974 374.602V377.693C395.974 378.081 396.062 378.371 396.239 378.562C396.416 378.753 396.692 378.849 397.069 378.849C397.568 378.849 397.931 378.713 398.16 378.44C398.392 378.168 398.508 377.723 398.508 377.106V374.602H399.23V379.366H398.634L398.53 378.727H398.491C398.343 378.962 398.137 379.142 397.873 379.266C397.613 379.391 397.314 379.453 396.978 379.453C396.398 379.453 395.964 379.316 395.674 379.04C395.387 378.765 395.243 378.325 395.243 377.719V374.602H395.974ZM401.486 379.366H400.764V372.602H401.486V379.366Z"
          fill="#1D3650"/>
    <path opacity="0.5"
          d="M34.1414 356.877V356.217H36.2759V356.877H34.1414ZM39.1842 352.487C39.7639 352.487 40.2232 352.621 40.5623 352.891C40.9014 353.16 41.0709 353.533 41.0709 354.008C41.0709 354.321 40.9738 354.607 40.7797 354.865C40.5855 355.122 40.2754 355.357 39.8494 355.569C40.3652 355.815 40.7318 356.075 40.9492 356.347C41.1666 356.616 41.2753 356.929 41.2753 357.286C41.2753 357.813 41.0912 358.235 40.7232 358.551C40.3551 358.864 39.8508 359.021 39.2103 359.021C38.5321 359.021 38.0105 358.873 37.6453 358.577C37.2801 358.279 37.0975 357.857 37.0975 357.312C37.0975 356.585 37.5409 356.018 38.4278 355.612C38.0278 355.386 37.7409 355.143 37.567 354.882C37.3931 354.618 37.3062 354.324 37.3062 353.999C37.3062 353.539 37.4757 353.172 37.8148 352.9C38.1568 352.624 38.6133 352.487 39.1842 352.487ZM37.8105 357.329C37.8105 357.677 37.9308 357.948 38.1713 358.142C38.4147 358.337 38.7553 358.434 39.1929 358.434C39.6247 358.434 39.9609 358.332 40.2015 358.129C40.442 357.926 40.5623 357.648 40.5623 357.295C40.5623 357.014 40.4493 356.764 40.2232 356.547C39.9972 356.327 39.603 356.114 39.0408 355.908C38.6089 356.093 38.2959 356.299 38.1017 356.525C37.9076 356.748 37.8105 357.016 37.8105 357.329ZM39.1755 353.073C38.8133 353.073 38.5292 353.16 38.3235 353.334C38.1177 353.508 38.0148 353.74 38.0148 354.03C38.0148 354.296 38.1003 354.525 38.2713 354.717C38.4423 354.908 38.7582 355.099 39.219 355.291C39.6334 355.117 39.9262 354.93 40.0971 354.73C40.271 354.53 40.358 354.296 40.358 354.03C40.358 353.737 40.2522 353.505 40.0406 353.334C39.832 353.16 39.5436 353.073 39.1755 353.073ZM46.3877 355.747C46.3877 356.845 46.2138 357.666 45.866 358.208C45.5211 358.75 44.9922 359.021 44.2792 359.021C43.5953 359.021 43.075 358.744 42.7186 358.19C42.3621 357.634 42.1838 356.819 42.1838 355.747C42.1838 354.64 42.3563 353.818 42.7012 353.282C43.0461 352.746 43.5721 352.478 44.2792 352.478C44.969 352.478 45.4921 352.758 45.8486 353.317C46.208 353.876 46.3877 354.686 46.3877 355.747ZM42.9142 355.747C42.9142 356.672 43.0229 357.345 43.2402 357.769C43.4576 358.189 43.8039 358.399 44.2792 358.399C44.7603 358.399 45.1081 358.186 45.3226 357.76C45.5399 357.331 45.6486 356.66 45.6486 355.747C45.6486 354.834 45.5399 354.166 45.3226 353.743C45.1081 353.317 44.7603 353.104 44.2792 353.104C43.8039 353.104 43.4576 353.314 43.2402 353.734C43.0229 354.152 42.9142 354.823 42.9142 355.747Z"
          fill="#1D3650"/>
    <path opacity="0.5"
          d="M34.1414 326.829V326.168H36.2759V326.829H34.1414ZM37.154 326.168C37.154 324.919 37.396 323.986 37.88 323.369C38.3669 322.748 39.0857 322.438 40.0363 322.438C40.3638 322.438 40.6217 322.466 40.8101 322.521V323.142C40.5869 323.07 40.3319 323.034 40.045 323.034C39.3639 323.034 38.8437 323.247 38.4843 323.673C38.1249 324.096 37.9279 324.763 37.8931 325.673H37.9452C38.264 325.174 38.7683 324.925 39.4581 324.925C40.029 324.925 40.4783 325.097 40.8058 325.442C41.1361 325.787 41.3013 326.255 41.3013 326.846C41.3013 327.507 41.1202 328.027 40.7579 328.407C40.3986 328.784 39.9117 328.972 39.2972 328.972C38.6394 328.972 38.1177 328.726 37.7322 328.233C37.3468 327.738 37.154 327.049 37.154 326.168ZM39.2886 328.359C39.7001 328.359 40.0189 328.23 40.245 327.972C40.4739 327.711 40.5884 327.336 40.5884 326.846C40.5884 326.426 40.4826 326.096 40.271 325.855C40.0595 325.615 39.7436 325.494 39.3233 325.494C39.0625 325.494 38.8234 325.548 38.606 325.655C38.3887 325.762 38.2148 325.91 38.0844 326.099C37.9568 326.287 37.8931 326.483 37.8931 326.686C37.8931 326.984 37.951 327.262 38.067 327.52C38.1829 327.778 38.3466 327.982 38.5582 328.133C38.7727 328.284 39.0161 328.359 39.2886 328.359ZM46.3877 325.699C46.3877 326.797 46.2138 327.617 45.866 328.159C45.5211 328.701 44.9922 328.972 44.2792 328.972C43.5953 328.972 43.075 328.695 42.7186 328.142C42.3621 327.585 42.1838 326.771 42.1838 325.699C42.1838 324.592 42.3563 323.77 42.7012 323.234C43.0461 322.698 43.5721 322.43 44.2792 322.43C44.969 322.43 45.4921 322.709 45.8486 323.269C46.208 323.828 46.3877 324.638 46.3877 325.699ZM42.9142 325.699C42.9142 326.623 43.0229 327.297 43.2402 327.72C43.4576 328.14 43.8039 328.351 44.2792 328.351C44.7603 328.351 45.1081 328.138 45.3226 327.711C45.5399 327.283 45.6486 326.612 45.6486 325.699C45.6486 324.786 45.5399 324.118 45.3226 323.695C45.1081 323.269 44.7603 323.056 44.2792 323.056C43.8039 323.056 43.4576 323.266 43.2402 323.686C43.0229 324.103 42.9142 324.774 42.9142 325.699Z"
          fill="#1D3650"/>
    <path opacity="0.5"
          d="M34.1414 296.781V296.12H36.2759V296.781H34.1414ZM41.5578 297.376H40.6145V298.837H39.9233V297.376H36.8323V296.746L39.8494 292.446H40.6145V296.72H41.5578V297.376ZM39.9233 296.72V294.607C39.9233 294.192 39.9377 293.724 39.9667 293.203H39.932C39.7928 293.481 39.6624 293.711 39.5407 293.894L37.554 296.72H39.9233ZM46.3877 295.65C46.3877 296.749 46.2138 297.569 45.866 298.111C45.5211 298.653 44.9922 298.924 44.2792 298.924C43.5953 298.924 43.075 298.647 42.7186 298.093C42.3621 297.537 42.1838 296.723 42.1838 295.65C42.1838 294.543 42.3563 293.721 42.7012 293.185C43.0461 292.649 43.5721 292.381 44.2792 292.381C44.969 292.381 45.4921 292.661 45.8486 293.22C46.208 293.779 46.3877 294.59 46.3877 295.65ZM42.9142 295.65C42.9142 296.575 43.0229 297.249 43.2402 297.672C43.4576 298.092 43.8039 298.302 44.2792 298.302C44.7603 298.302 45.1081 298.089 45.3226 297.663C45.5399 297.234 45.6486 296.563 45.6486 295.65C45.6486 294.737 45.5399 294.069 45.3226 293.646C45.1081 293.22 44.7603 293.007 44.2792 293.007C43.8039 293.007 43.4576 293.217 43.2402 293.637C43.0229 294.055 42.9142 294.726 42.9142 295.65Z"
          fill="#1D3650"/>
    <path opacity="0.5"
          d="M34.1414 266.732V266.071H36.2759V266.732H34.1414ZM41.2579 268.788H37.0801V268.167L38.7538 266.484C39.2639 265.969 39.6001 265.6 39.7624 265.38C39.9247 265.16 40.0464 264.945 40.1276 264.737C40.2087 264.528 40.2493 264.304 40.2493 264.063C40.2493 263.724 40.1464 263.456 39.9406 263.259C39.7349 263.059 39.4494 262.959 39.0842 262.959C38.8205 262.959 38.5698 263.002 38.3322 263.089C38.0974 263.176 37.8351 263.334 37.5453 263.563L37.1627 263.072C37.7482 262.585 38.3858 262.341 39.0755 262.341C39.6726 262.341 40.1406 262.495 40.4797 262.802C40.8188 263.107 40.9883 263.517 40.9883 264.033C40.9883 264.435 40.8753 264.834 40.6493 265.228C40.4232 265.622 40.0001 266.121 39.3798 266.723L37.9887 268.084V268.119H41.2579V268.788ZM46.3877 265.602C46.3877 266.7 46.2138 267.52 45.866 268.062C45.5211 268.604 44.9922 268.875 44.2792 268.875C43.5953 268.875 43.075 268.599 42.7186 268.045C42.3621 267.489 42.1838 266.674 42.1838 265.602C42.1838 264.495 42.3563 263.673 42.7012 263.137C43.0461 262.601 43.5721 262.333 44.2792 262.333C44.969 262.333 45.4921 262.612 45.8486 263.172C46.208 263.731 46.3877 264.541 46.3877 265.602ZM42.9142 265.602C42.9142 266.526 43.0229 267.2 43.2402 267.623C43.4576 268.044 43.8039 268.254 44.2792 268.254C44.7603 268.254 45.1081 268.041 45.3226 267.615C45.5399 267.186 45.6486 266.515 45.6486 265.602C45.6486 264.689 45.5399 264.021 45.3226 263.598C45.1081 263.172 44.7603 262.959 44.2792 262.959C43.8039 262.959 43.4576 263.169 43.2402 263.589C43.0229 264.006 42.9142 264.677 42.9142 265.602Z"
          fill="#1D3650"/>
    <path opacity="0.5"
          d="M46.3877 235.554C46.3877 236.652 46.2138 237.472 45.866 238.014C45.5211 238.556 44.9922 238.827 44.2792 238.827C43.5953 238.827 43.075 238.55 42.7186 237.997C42.3621 237.44 42.1838 236.626 42.1838 235.554C42.1838 234.446 42.3563 233.625 42.7012 233.089C43.0461 232.552 43.5721 232.284 44.2792 232.284C44.969 232.284 45.4921 232.564 45.8486 233.123C46.208 233.683 46.3877 234.493 46.3877 235.554ZM42.9142 235.554C42.9142 236.478 43.0229 237.152 43.2402 237.575C43.4576 237.995 43.8039 238.205 44.2792 238.205C44.7603 238.205 45.1081 237.992 45.3226 237.566C45.5399 237.137 45.6486 236.466 45.6486 235.554C45.6486 234.641 45.5399 233.973 45.3226 233.549C45.1081 233.123 44.7603 232.91 44.2792 232.91C43.8039 232.91 43.4576 233.121 43.2402 233.541C43.0229 233.958 42.9142 234.629 42.9142 235.554Z"
          fill="#1D3650"/>
    <path opacity="0.5"
          d="M41.2579 208.692H37.0801V208.07L38.7538 206.388C39.2639 205.872 39.6001 205.504 39.7624 205.283C39.9247 205.063 40.0464 204.849 40.1276 204.64C40.2087 204.431 40.2493 204.207 40.2493 203.966C40.2493 203.627 40.1464 203.359 39.9406 203.162C39.7349 202.962 39.4494 202.862 39.0842 202.862C38.8205 202.862 38.5698 202.905 38.3322 202.992C38.0974 203.079 37.8351 203.237 37.5453 203.466L37.1627 202.975C37.7482 202.488 38.3858 202.245 39.0755 202.245C39.6726 202.245 40.1406 202.398 40.4797 202.705C40.8188 203.01 40.9883 203.42 40.9883 203.936C40.9883 204.339 40.8753 204.737 40.6493 205.131C40.4232 205.525 40.0001 206.024 39.3798 206.627L37.9887 207.987V208.022H41.2579V208.692ZM46.3877 205.505C46.3877 206.604 46.2138 207.424 45.866 207.966C45.5211 208.508 44.9922 208.779 44.2792 208.779C43.5953 208.779 43.075 208.502 42.7186 207.948C42.3621 207.392 42.1838 206.577 42.1838 205.505C42.1838 204.398 42.3563 203.576 42.7012 203.04C43.0461 202.504 43.5721 202.236 44.2792 202.236C44.969 202.236 45.4921 202.516 45.8486 203.075C46.208 203.634 46.3877 204.444 46.3877 205.505ZM42.9142 205.505C42.9142 206.43 43.0229 207.103 43.2402 207.527C43.4576 207.947 43.8039 208.157 44.2792 208.157C44.7603 208.157 45.1081 207.944 45.3226 207.518C45.5399 207.089 45.6486 206.418 45.6486 205.505C45.6486 204.592 45.5399 203.924 45.3226 203.501C45.1081 203.075 44.7603 202.862 44.2792 202.862C43.8039 202.862 43.4576 203.072 43.2402 203.492C43.0229 203.91 42.9142 204.581 42.9142 205.505Z"
          fill="#1D3650"/>
    <path opacity="0.5"
          d="M41.5578 177.183H40.6145V178.643H39.9233V177.183H36.8323V176.552L39.8494 172.253H40.6145V176.526H41.5578V177.183ZM39.9233 176.526V174.413C39.9233 173.999 39.9377 173.531 39.9667 173.009H39.932C39.7928 173.287 39.6624 173.518 39.5407 173.7L37.554 176.526H39.9233ZM46.3877 175.457C46.3877 176.555 46.2138 177.375 45.866 177.917C45.5211 178.459 44.9922 178.73 44.2792 178.73C43.5953 178.73 43.075 178.453 42.7186 177.9C42.3621 177.343 42.1838 176.529 42.1838 175.457C42.1838 174.35 42.3563 173.528 42.7012 172.992C43.0461 172.456 43.5721 172.188 44.2792 172.188C44.969 172.188 45.4921 172.467 45.8486 173.027C46.208 173.586 46.3877 174.396 46.3877 175.457ZM42.9142 175.457C42.9142 176.381 43.0229 177.055 43.2402 177.478C43.4576 177.898 43.8039 178.109 44.2792 178.109C44.7603 178.109 45.1081 177.896 45.3226 177.47C45.5399 177.041 45.6486 176.37 45.6486 175.457C45.6486 174.544 45.5399 173.876 45.3226 173.453C45.1081 173.027 44.7603 172.814 44.2792 172.814C43.8039 172.814 43.4576 173.024 43.2402 173.444C43.0229 173.861 42.9142 174.532 42.9142 175.457Z"
          fill="#1D3650"/>
    <path opacity="0.5"
          d="M37.154 145.878C37.154 144.629 37.396 143.695 37.88 143.078C38.3669 142.458 39.0857 142.148 40.0363 142.148C40.3638 142.148 40.6217 142.175 40.8101 142.23V142.852C40.5869 142.78 40.3319 142.743 40.045 142.743C39.3639 142.743 38.8437 142.956 38.4843 143.382C38.1249 143.806 37.9279 144.472 37.8931 145.382H37.9452C38.264 144.884 38.7683 144.634 39.4581 144.634C40.029 144.634 40.4783 144.807 40.8058 145.152C41.1361 145.497 41.3013 145.965 41.3013 146.556C41.3013 147.217 41.1202 147.737 40.7579 148.117C40.3986 148.493 39.9117 148.682 39.2972 148.682C38.6394 148.682 38.1177 148.435 37.7322 147.943C37.3468 147.447 37.154 146.759 37.154 145.878ZM39.2886 148.069C39.7001 148.069 40.0189 147.94 40.245 147.682C40.4739 147.421 40.5884 147.046 40.5884 146.556C40.5884 146.136 40.4826 145.805 40.271 145.565C40.0595 145.324 39.7436 145.204 39.3233 145.204C39.0625 145.204 38.8234 145.258 38.606 145.365C38.3887 145.472 38.2148 145.62 38.0844 145.808C37.9568 145.997 37.8931 146.192 37.8931 146.395C37.8931 146.694 37.951 146.972 38.067 147.23C38.1829 147.488 38.3466 147.692 38.5582 147.843C38.7727 147.993 39.0161 148.069 39.2886 148.069ZM46.3877 145.408C46.3877 146.507 46.2138 147.327 45.866 147.869C45.5211 148.411 44.9922 148.682 44.2792 148.682C43.5953 148.682 43.075 148.405 42.7186 147.851C42.3621 147.295 42.1838 146.481 42.1838 145.408C42.1838 144.301 42.3563 143.48 42.7012 142.943C43.0461 142.407 43.5721 142.139 44.2792 142.139C44.969 142.139 45.4921 142.419 45.8486 142.978C46.208 143.538 46.3877 144.348 46.3877 145.408ZM42.9142 145.408C42.9142 146.333 43.0229 147.007 43.2402 147.43C43.4576 147.85 43.8039 148.06 44.2792 148.06C44.7603 148.06 45.1081 147.847 45.3226 147.421C45.5399 146.992 45.6486 146.321 45.6486 145.408C45.6486 144.495 45.5399 143.827 45.3226 143.404C45.1081 142.978 44.7603 142.765 44.2792 142.765C43.8039 142.765 43.4576 142.975 43.2402 143.396C43.0229 143.813 42.9142 144.484 42.9142 145.408Z"
          fill="#1D3650"/>
    <path opacity="0.5"
          d="M39.1842 112.099C39.7639 112.099 40.2232 112.234 40.5623 112.504C40.9014 112.773 41.0709 113.146 41.0709 113.621C41.0709 113.934 40.9738 114.22 40.7797 114.477C40.5855 114.735 40.2754 114.97 39.8494 115.182C40.3652 115.428 40.7318 115.687 40.9492 115.96C41.1666 116.229 41.2753 116.542 41.2753 116.899C41.2753 117.426 41.0912 117.848 40.7232 118.164C40.3551 118.477 39.8508 118.633 39.2103 118.633C38.5321 118.633 38.0105 118.486 37.6453 118.19C37.2801 117.892 37.0975 117.47 37.0975 116.925C37.0975 116.198 37.5409 115.631 38.4278 115.225C38.0278 114.999 37.7409 114.756 37.567 114.495C37.3931 114.231 37.3062 113.937 37.3062 113.612C37.3062 113.152 37.4757 112.785 37.8148 112.512C38.1568 112.237 38.6133 112.099 39.1842 112.099ZM37.8105 116.942C37.8105 117.29 37.9308 117.561 38.1713 117.755C38.4147 117.949 38.7553 118.047 39.1929 118.047C39.6247 118.047 39.9609 117.945 40.2015 117.742C40.442 117.539 40.5623 117.261 40.5623 116.908C40.5623 116.626 40.4493 116.377 40.2232 116.16C39.9972 115.94 39.603 115.727 39.0408 115.521C38.6089 115.706 38.2959 115.912 38.1017 116.138C37.9076 116.361 37.8105 116.629 37.8105 116.942ZM39.1755 112.686C38.8133 112.686 38.5292 112.773 38.3235 112.947C38.1177 113.121 38.0148 113.353 38.0148 113.643C38.0148 113.909 38.1003 114.138 38.2713 114.33C38.4423 114.521 38.7582 114.712 39.219 114.903C39.6334 114.73 39.9262 114.543 40.0971 114.343C40.271 114.143 40.358 113.909 40.358 113.643C40.358 113.35 40.2522 113.118 40.0406 112.947C39.832 112.773 39.5436 112.686 39.1755 112.686ZM46.3877 115.36C46.3877 116.458 46.2138 117.279 45.866 117.821C45.5211 118.362 44.9922 118.633 44.2792 118.633C43.5953 118.633 43.075 118.357 42.7186 117.803C42.3621 117.247 42.1838 116.432 42.1838 115.36C42.1838 114.253 42.3563 113.431 42.7012 112.895C43.0461 112.359 43.5721 112.091 44.2792 112.091C44.969 112.091 45.4921 112.37 45.8486 112.93C46.208 113.489 46.3877 114.299 46.3877 115.36ZM42.9142 115.36C42.9142 116.284 43.0229 116.958 43.2402 117.381C43.4576 117.802 43.8039 118.012 44.2792 118.012C44.7603 118.012 45.1081 117.799 45.3226 117.373C45.5399 116.944 45.6486 116.273 45.6486 115.36C45.6486 114.447 45.5399 113.779 45.3226 113.356C45.1081 112.93 44.7603 112.717 44.2792 112.717C43.8039 112.717 43.4576 112.927 43.2402 113.347C43.0229 113.765 42.9142 114.435 42.9142 115.36Z"
          fill="#1D3650"/>
  </g>
  <defs>
    <filter id="filter0_d" x="0" y="61" width="452" height="382" filterUnits="userSpaceOnUse"
            color-interpolation-filters="sRGB">
      <feFlood flood-opacity="0" result="BackgroundImageFix"/>
      <feColorMatrix in="SourceAlpha" type="matrix" values="0 0 0 0 0 0 0 0 0 0 0 0 0 0 0 0 0 0 127 0"/>
      <feOffset dy="20"/>
      <feGaussianBlur stdDeviation="10"/>
      <feColorMatrix type="matrix" values="0 0 0 0 0.360784 0 0 0 0 0.384314 0 0 0 0 0.803922 0 0 0 0.1 0"/>
      <feBlend mode="normal" in2="BackgroundImageFix" result="effect1_dropShadow"/>
      <feBlend mode="normal" in="SourceGraphic" in2="effect1_dropShadow" result="shape"/>
    </filter>
    <filter id="filter1_d" x="48.7419" y="120" width="384.548" height="244.323" filterUnits="userSpaceOnUse"
            color-interpolation-filters="sRGB">
      <feFlood flood-opacity="0" result="BackgroundImageFix"/>
      <feColorMatrix in="SourceAlpha" type="matrix" values="0 0 0 0 0 0 0 0 0 0 0 0 0 0 0 0 0 0 127 0"/>
      <feOffset dx="13" dy="13"/>
      <feGaussianBlur stdDeviation="11"/>
      <feColorMatrix type="matrix" values="0 0 0 0 0.247059 0 0 0 0 0.156863 0 0 0 0 0.556863 0 0 0 0.2 0"/>
      <feBlend mode="normal" in2="BackgroundImageFix" result="effect1_dropShadow"/>
      <feBlend mode="normal" in="SourceGraphic" in2="effect1_dropShadow" result="shape"/>
    </filter>
    <clipPath id="clip0">
      <rect width="389" height="272" fill="white" transform="translate(28.8064 109.547)"/>
    </clipPath>
  </defs>
</svg>
