<svg width="52" height="52" viewBox="0 0 52 52" fill="none" xmlns="http://www.w3.org/2000/svg">
<g clip-path="url(#clip0)">
<path d="M42.3445 30.758C42.3445 21.754 35.0622 14.4717 26.0582 14.4717C17.0541 14.4717 9.77181 21.754 9.77181 30.758H14.4251C14.4251 24.3366 19.6367 19.1249 26.0582 19.1249C32.4796 19.1249 37.6913 24.3366 37.6913 30.758" fill="black" fill-opacity="0.1"/>
<path d="M25.9418 36.4815C31.7241 36.4815 36.4116 31.794 36.4116 26.0117C36.4116 20.2294 31.7241 15.5419 25.9418 15.5419C20.1595 15.5419 15.472 20.2294 15.472 26.0117C15.472 31.794 20.1595 36.4815 25.9418 36.4815Z" fill="url(#paint0_radial)"/>
<path d="M25.9418 37.5284C19.5902 37.5284 14.4251 32.3633 14.4251 26.0117C14.4251 19.66 19.5902 14.4949 25.9418 14.4949C32.2935 14.4949 37.4586 19.66 37.4586 26.0117C37.4586 32.3633 32.2935 37.5284 25.9418 37.5284ZM25.9418 16.5888C20.7302 16.5888 16.519 20.8 16.519 26.0117C16.519 31.2 20.7535 35.4345 25.9418 35.4345C31.1302 35.4345 35.3647 31.2 35.3647 26.0117C35.3647 20.8 31.1302 16.5888 25.9418 16.5888Z" fill="url(#paint1_radial)"/>
<path d="M49.3244 14.4715C42.9262 1.58206 27.268 -3.67611 14.4018 2.74537C10.3767 4.74626 6.9566 7.74761 4.42058 11.4469L14.8904 29.5946C12.9593 23.4756 16.3562 16.9378 22.4984 15.0067C23.5687 14.6577 24.7087 14.4948 25.8255 14.4715" fill="url(#paint2_radial)"/>
<path d="M4.42058 11.447C-3.583 23.4059 -0.395527 39.5991 11.5633 47.6027C15.2626 50.0922 19.5436 51.5813 23.9642 51.9302L34.8993 33.3173C30.8045 38.273 23.4756 38.971 18.5199 34.8761C16.8447 33.4801 15.5884 31.6421 14.8904 29.5947" fill="url(#paint3_radial)"/>
<path d="M23.9642 51.9303C38.3195 53.0238 50.8367 42.2515 51.9069 27.9196C52.2559 23.2896 51.3718 18.6596 49.3244 14.4717H25.8255C32.247 14.4949 37.4354 19.7298 37.4121 26.1513C37.3888 28.7571 36.528 31.2699 34.8993 33.3173" fill="url(#paint4_radial)"/>
<path opacity="0.075" d="M4.42058 11.447L14.8904 29.5947C14.1226 26.9888 14.2855 24.1969 15.3557 21.6841L4.88591 10.749" fill="black"/>
<path opacity="0.05" d="M23.9642 51.9302L34.8993 33.3173C33.1776 35.3647 30.7812 36.7839 28.1521 37.2725L23.4989 51.9302" fill="black"/>
<path opacity="0.05" d="M49.3244 14.4717H25.8255C29.362 14.4949 32.7123 16.1236 34.8993 18.8923L49.7897 15.1697" fill="black"/>
</g>
<defs>
<radialGradient id="paint0_radial" cx="0" cy="0" r="1" gradientUnits="userSpaceOnUse" gradientTransform="translate(25.9376 15.5354) scale(20.9396)">
<stop offset="0.1" stop-color="#7FB3DF"/>
<stop offset="0.9" stop-color="#0F5B94"/>
</radialGradient>
<radialGradient id="paint1_radial" cx="0" cy="0" r="1" gradientUnits="userSpaceOnUse" gradientTransform="translate(25.9376 24.8535) scale(2.30336)">
<stop stop-color="#F6F0EE"/>
<stop offset="1" stop-color="#DDDDDD"/>
</radialGradient>
<radialGradient id="paint2_radial" cx="0" cy="0" r="1" gradientUnits="userSpaceOnUse" gradientTransform="translate(26.8681 -0.00599768) scale(22.4519 14.7946)">
<stop stop-color="#F06B59"/>
<stop offset="1" stop-color="#DF2227"/>
</radialGradient>
<radialGradient id="paint3_radial" cx="0" cy="0" r="1" gradientUnits="userSpaceOnUse" gradientTransform="translate(22.6799 23.5866) scale(26.5202 30.7672)">
<stop offset="0.65" stop-color="#4CB749"/>
<stop offset="1" stop-color="#388B41"/>
</radialGradient>
<radialGradient id="paint4_radial" cx="0" cy="0" r="1" gradientUnits="userSpaceOnUse" gradientTransform="translate(34.0468 23.8512) scale(22.4181 30.0272)">
<stop offset="0.6" stop-color="#FCD209"/>
<stop offset="0.7" stop-color="#F7C616"/>
<stop offset="1" stop-color="#BC821E"/>
</radialGradient>
<clipPath id="clip0">
<rect width="51.9767" height="52" fill="white"/>
</clipPath>
</defs>
</svg>
