<svg width="46" height="46" viewBox="0 0 46 46" fill="none" xmlns="http://www.w3.org/2000/svg">
<path d="M17.8003 26.5818C16.039 21.4852 18.5342 18.6809 20.0019 17.9158C14.5916 20.7361 12.2728 24.4738 11.7575 30.4229C11.2423 36.372 15.9734 41.8058 19.2524 43.539C22.5315 45.2722 26.1384 46.537 32.3217 44.1011C37.2683 42.1524 41.1438 37.2152 42.4632 35.1072C42.5335 34.9745 42.6085 34.6247 42.3461 34.2875C42.0838 33.9502 41.7059 33.9908 41.5498 34.0532C40.5505 34.7325 37.4651 36.1003 33.118 36.1378C27.6842 36.1846 20.0019 32.9524 17.8003 26.5818Z" fill="url(#paint0_linear)"/>
<path d="M8.0102 40.2131C15.4676 46.9585 24.9518 46.3027 28.7617 45.1316C22.2037 46.2558 17.4725 42.4615 16.2078 41.1031C14.943 39.7446 7.25924 30.4305 15.9267 21.1479C23.1874 13.3719 28.0591 18.9463 28.7617 21.7569C28.5275 18.5715 26.0819 11.2736 14.8025 10.7019C4.63749 10.1866 1.21794 17.4473 0.374758 19.9768C-0.18736 21.6632 -1.3116 31.7813 8.0102 40.2131Z" fill="url(#paint1_linear)"/>
<path d="M5.43381 8.07873C1.19919 12.8005 0.0468432 19.1337 0 21.7101C0.327902 20.9138 0.957644 15.7347 6.5112 12.763C11.8513 9.90561 16.1843 10.4092 20.2831 11.873C23.8432 13.1445 26.9813 15.29 28.3635 20.1643C29.6986 24.872 27.0988 26.4881 26.7709 27.3781C26.443 28.2681 28.5041 30.0248 31.4786 30.2824C34.4658 30.5411 39.2546 31.4535 43.5173 26.3007C47.78 21.148 45.6721 14.5899 43.0957 10.1398C40.5193 5.68973 33.165 0.302763 24.78 0.0217037C16.3951 -0.259355 10.7271 2.17649 5.43381 8.07873Z" fill="url(#paint2_linear)"/>
<defs>
<linearGradient id="paint0_linear" x1="11.7107" y1="20.3985" x2="18.4561" y2="37.0746" gradientUnits="userSpaceOnUse">
<stop stop-color="#073257"/>
<stop offset="1" stop-color="#104D90"/>
</linearGradient>
<linearGradient id="paint1_linear" x1="7.96335" y1="10.7487" x2="6.37068" y2="19.8363" gradientUnits="userSpaceOnUse">
<stop stop-color="#0E6DA5"/>
<stop offset="1" stop-color="#007DD4"/>
</linearGradient>
<linearGradient id="paint2_linear" x1="21.3136" y1="11.5234" x2="47.9206" y2="19.2057" gradientUnits="userSpaceOnUse">
<stop stop-color="#30C0DB"/>
<stop offset="0.460288" stop-color="#42D29E"/>
<stop offset="1" stop-color="#5DE571"/>
</linearGradient>
</defs>
</svg>
