<svg width="46" height="50" viewBox="0 0 46 50" fill="none" xmlns="http://www.w3.org/2000/svg">
<path d="M14.388 29.6875C14.388 30.8906 14.5658 31.9844 14.9289 32.9688C15.3153 33.9375 15.8176 34.8047 16.4589 35.5625C17.1003 36.3203 17.8498 36.9688 18.7307 37.5156C19.5807 38.0625 20.508 38.5156 21.4971 38.8672C22.4784 39.2266 23.5061 39.4922 24.5493 39.6641C25.6079 39.8359 26.6356 39.9219 27.6788 39.9219C28.9924 39.9219 30.2133 39.8203 31.3724 39.6094C32.5315 39.3906 33.6597 39.1016 34.7724 38.7344C35.8851 38.3672 36.9592 37.9297 38.0333 37.4297C39.1151 36.9297 40.2123 36.3828 41.3405 35.7734V46.3672C40.081 46.9922 38.8446 47.5156 37.6083 47.9688C36.3719 48.4063 35.1356 48.7891 33.876 49.0938C32.6165 49.4063 31.3415 49.6406 30.0356 49.7813C28.7297 49.9219 27.3929 50 26.002 50C24.1475 50 22.3548 49.7812 20.6316 49.3516C18.9085 48.9219 17.2935 48.3047 15.7789 47.4922C14.2644 46.6797 12.8812 45.6953 11.6217 44.5391C10.3544 43.3828 9.28036 42.0781 8.37628 40.6328C7.4722 39.1875 6.77675 37.6016 6.27448 35.8984C5.78767 34.1953 5.5404 32.3828 5.5404 30.4609C5.5404 28.4063 5.81858 26.4531 6.37494 24.5859C6.93902 22.7109 7.73492 21.0078 8.78582 19.4453C9.82899 17.8828 11.104 16.4922 12.6108 15.2812C14.1176 14.0703 15.8098 13.0781 17.6953 12.3125C16.6676 13.3516 15.8639 14.5781 15.2998 16.0078C14.7203 17.4297 14.3571 18.8594 14.1949 20.2891H31.7974C31.7974 18.4922 31.6197 16.9297 31.2565 15.5859C30.8933 14.2422 30.3138 13.125 29.5024 12.2422C28.6988 11.3516 27.6634 10.6797 26.3884 10.2422C25.1134 9.79687 23.5757 9.57031 21.7752 9.57031C19.6503 9.57031 17.5253 9.88281 15.4003 10.5312C13.2753 11.1562 11.2585 12.0547 9.34218 13.1875C7.42584 14.3359 5.66404 15.6875 4.05678 17.2344C2.44952 18.7969 1.09726 20.4766 0 22.2969C0.231816 20.1875 0.695448 18.1563 1.33681 16.2266C1.97816 14.2969 2.82815 12.5 3.84814 10.8359C4.86813 9.19531 6.06585 7.69531 7.43356 6.35156C8.80128 5.00781 10.3158 3.85156 11.9926 2.91406C13.6694 1.97656 15.4467 1.21875 17.3785 0.710938C19.3103 0.265625 21.3657 0 23.5293 0C24.7966 0 26.0561 0.117188 27.3156 0.34375C28.5752 0.578125 29.8038 0.890625 31.0015 1.29687C33.3815 2.125 35.5065 3.28125 37.3765 4.75C39.2464 6.23437 40.8151 7.92187 42.09 9.85156C43.365 11.7812 44.3309 13.9141 44.9955 16.2344C45.66 18.5547 46 20.9687 46 23.4766V29.6875H14.388V29.6875Z" fill="#0078D7"/>
</svg>
