<svg width="982" height="980" viewBox="0 0 982 980" fill="none" xmlns="http://www.w3.org/2000/svg">
<path d="M380 567.463C342.4 458.663 395.667 398.797 427 382.463C311.5 442.671 262 522.463 251 649.463C240 776.463 341 892.463 411 929.463C481 966.463 558 993.463 690 941.463C795.6 899.863 878.333 794.463 906.5 749.463C908 746.63 909.6 739.163 904 731.963C898.4 724.763 890.333 725.63 887 726.963C865.667 741.463 799.8 770.663 707 771.463C591 772.463 427 703.463 380 567.463Z" fill="url(#paint0_linear)"/>
<path d="M171 858.463C330.2 1002.46 532.667 988.463 614 963.463C474 987.463 373 906.463 346 877.463C319 848.463 154.969 649.626 340 451.463C495 285.463 599 404.463 614 464.463C609 396.463 556.792 240.669 316 228.463C99 217.463 26 372.463 8.00002 426.463C-3.99998 462.463 -28 678.463 171 858.463Z" fill="url(#paint1_linear)"/>
<path d="M116 172.463C25.6 273.263 1 408.463 0 463.463C7 446.463 20.4436 335.901 139 272.463C253 211.463 345.5 222.213 433 253.463C509 280.606 575.992 326.409 605.5 430.463C634 530.963 578.5 565.463 571.5 584.463C564.5 603.463 608.5 640.963 672 646.463C735.769 651.987 838 671.463 929 561.463C1020 451.463 975 311.463 920 216.463C865 121.463 708 6.46333 529 0.463326C350 -5.53667 229 46.4633 116 172.463Z" fill="url(#paint2_linear)"/>
<rect x="302" y="675" width="680" height="294" rx="40" fill="url(#paint3_linear)"/>
<path d="M378 748H437.19C448.906 748 457.627 748.505 463.35 749.514C469.141 750.457 474.293 752.476 478.804 755.572C483.383 758.668 487.188 762.807 490.218 767.989C493.248 773.104 494.763 778.859 494.763 785.252C494.763 792.185 492.878 798.545 489.107 804.333C485.403 810.121 480.353 814.462 473.956 817.356C482.979 819.981 489.915 824.457 494.763 830.783C499.612 837.11 502.036 844.547 502.036 853.094C502.036 859.824 500.453 866.387 497.288 872.78C494.191 879.107 489.915 884.188 484.461 888.025C479.074 891.794 472.407 894.116 464.461 894.99C459.478 895.529 447.459 895.865 428.402 896H378V748ZM407.898 772.633V806.857H427.493C439.142 806.857 446.381 806.688 449.209 806.352C454.327 805.746 458.334 803.996 461.229 801.102C464.192 798.141 465.673 794.271 465.673 789.492C465.673 784.916 464.394 781.214 461.835 778.387C459.344 775.493 455.606 773.744 450.624 773.138C447.661 772.801 439.142 772.633 425.069 772.633H407.898ZM407.898 831.49V871.064H435.574C446.348 871.064 453.182 870.761 456.078 870.156C460.522 869.348 464.125 867.396 466.886 864.3C469.714 861.137 471.128 856.93 471.128 851.681C471.128 847.239 470.05 843.47 467.896 840.374C465.741 837.278 462.61 835.023 458.502 833.61C454.462 832.196 445.641 831.49 432.038 831.49H407.898Z" fill="black"/>
<path d="M527.388 896V748H637.182V773.037H557.286V805.847H631.627V830.783H557.286V871.064H640.01V896H527.388Z" fill="black"/>
<path d="M698.695 896V773.037H654.757V748H772.429V773.037H728.593V896H698.695Z" fill="black"/>
<path d="M910 896H877.476L864.547 862.382H805.358L793.136 896H761.42L819.094 748H850.709L910 896ZM854.952 837.446L834.548 782.527L814.549 837.446H854.952Z" fill="black"/>
<defs>
<linearGradient id="paint0_linear" x1="250" y1="435.463" x2="394" y2="791.463" gradientUnits="userSpaceOnUse">
<stop stop-color="#073257"/>
<stop offset="1" stop-color="#104D90"/>
</linearGradient>
<linearGradient id="paint1_linear" x1="170" y1="229.463" x2="136" y2="423.463" gradientUnits="userSpaceOnUse">
<stop stop-color="#0E6DA5"/>
<stop offset="1" stop-color="#007DD4"/>
</linearGradient>
<linearGradient id="paint2_linear" x1="455" y1="246" x2="1023" y2="410" gradientUnits="userSpaceOnUse">
<stop stop-color="#30C0DB"/>
<stop offset="0.460288" stop-color="#42D29E"/>
<stop offset="1" stop-color="#5DE571"/>
</linearGradient>
<linearGradient id="paint3_linear" x1="642" y1="675" x2="642" y2="969" gradientUnits="userSpaceOnUse">
<stop stop-color="#50E6FF"/>
<stop offset="1" stop-color="#50E6FF"/>
</linearGradient>
</defs>
</svg>
