<svg width="51" height="53" viewBox="0 0 51 53" fill="none" xmlns="http://www.w3.org/2000/svg">
<path d="M48.9125 17.6736C47.8144 15.0042 45.5871 12.1219 43.8429 11.2108C45.0869 13.6451 45.9503 16.2595 46.4021 18.9609L46.4067 19.0037C43.5495 11.8063 38.7042 8.90431 34.747 2.58508C34.5468 2.26556 34.3466 1.94539 34.1517 1.60742C34.0402 1.41439 33.9508 1.24047 33.8733 1.08038C33.7091 0.759248 33.5827 0.419867 33.4964 0.0691179C33.4965 0.0529325 33.4907 0.0372706 33.4801 0.0251197C33.4695 0.0129689 33.4549 0.00517955 33.439 0.00323768C33.4234 -0.00107923 33.407 -0.00107923 33.3914 0.00323768C33.3881 0.00323768 33.3829 0.0091669 33.379 0.0104845C33.3751 0.0118021 33.3666 0.0177313 33.3608 0.0203665L33.3705 0.00323768C27.023 3.75841 24.8693 10.7101 24.6711 14.1872C22.1362 14.3633 19.7126 15.3071 17.7165 16.8956C17.5082 16.7173 17.2905 16.5506 17.0644 16.3962C16.4886 14.3598 16.4641 12.2046 16.9934 10.1554C14.6623 11.2964 12.591 12.9138 10.9105 14.9053H10.8988C9.89726 13.6226 9.96768 9.39314 10.0251 8.50969C9.72877 8.63 9.44595 8.78171 9.18133 8.96228C8.29719 9.59985 7.47067 10.3152 6.71142 11.1001C5.84623 11.9864 5.05603 12.9443 4.34909 13.9639V13.9679V13.9632C2.72438 16.2905 1.57201 18.9199 0.958508 21.6996L0.924602 21.8682C0.877003 22.0929 0.705518 23.2181 0.676176 23.4625C0.676176 23.4816 0.672264 23.4994 0.670308 23.5185C0.449097 24.6802 0.312023 25.8567 0.260178 27.0385V27.1703C0.265718 33.5635 2.64469 39.722 6.92692 44.4287C11.2092 49.1353 17.0831 52.0478 23.3878 52.5903C29.6925 53.1328 35.9693 51.266 40.9776 47.3588C45.9859 43.4515 49.3614 37.7882 50.4369 31.488C50.4793 31.1586 50.5138 30.8325 50.5517 30.4998C51.0722 26.1532 50.5087 21.7441 48.9125 17.6736V17.6736ZM19.786 37.6604C19.904 37.7177 20.0149 37.7796 20.1362 37.8343L20.1538 37.8455C20.0312 37.7862 19.9086 37.7245 19.786 37.6604V37.6604ZM46.4086 19.0097V18.9853L46.4132 19.0123L46.4086 19.0097Z" fill="#5C62CD"/>
<path d="M48.9125 17.6735C47.8144 15.0041 45.5871 12.1218 43.8429 11.2107C45.0869 13.645 45.9503 16.2594 46.4021 18.9608V18.9852L46.4067 19.0122C48.3545 24.644 48.0727 30.8184 45.6203 36.2452C42.724 42.5242 35.7133 48.96 24.7395 48.6471C12.8823 48.3078 2.43993 39.418 0.487738 27.7743C0.132379 25.9382 0.487738 25.0073 0.666396 23.5151C0.422683 24.6742 0.286686 25.8538 0.260178 27.0384V27.1702C0.265718 33.5634 2.64469 39.7219 6.92692 44.4286C11.2092 49.1353 17.0831 52.0477 23.3878 52.5902C29.6925 53.1327 35.9693 51.2659 40.9776 47.3587C45.9859 43.4515 49.3614 37.7881 50.4369 31.488C50.4793 31.1586 50.5138 30.8324 50.5517 30.4998C51.0722 26.1531 50.5087 21.744 48.9125 17.6735V17.6735Z" fill="url(#paint0_radial)"/>
<path d="M48.9125 17.6735C47.8144 15.0041 45.5871 12.1218 43.8429 11.2107C45.0869 13.645 45.9503 16.2594 46.4021 18.9608V18.9852L46.4067 19.0122C48.3545 24.644 48.0727 30.8184 45.6203 36.2452C42.724 42.5242 35.7133 48.96 24.7395 48.6471C12.8823 48.3078 2.43993 39.418 0.487738 27.7743C0.132379 25.9382 0.487738 25.0073 0.666396 23.5151C0.422683 24.6742 0.286686 25.8538 0.260178 27.0384V27.1702C0.265718 33.5634 2.64469 39.7219 6.92692 44.4286C11.2092 49.1353 17.0831 52.0477 23.3878 52.5902C29.6925 53.1327 35.9693 51.2659 40.9776 47.3587C45.9859 43.4515 49.3614 37.7881 50.4369 31.488C50.4793 31.1586 50.5138 30.8324 50.5517 30.4998C51.0722 26.1531 50.5087 21.744 48.9125 17.6735V17.6735Z" fill="url(#paint1_radial)"/>
<path d="M36.632 20.6752C36.6868 20.7141 36.7376 20.7529 36.7892 20.7918C36.1544 19.6545 35.3642 18.6132 34.4418 17.6987C26.5874 9.76147 32.3834 0.488833 33.3608 0.0177895L33.3705 0.0032959C27.023 3.75847 24.8693 10.7101 24.6711 14.1873C24.9658 14.1669 25.2579 14.1418 25.5592 14.1418C27.8114 14.146 30.0224 14.7527 31.9673 15.9003C33.9122 17.0478 35.5217 18.6953 36.632 20.6752V20.6752Z" fill="url(#paint2_radial)"/>
<path d="M25.5755 22.2601C25.5337 22.8952 23.3129 25.0857 22.5363 25.0857C15.3502 25.0857 14.1837 29.478 14.1837 29.478C14.5019 33.1765 17.0527 36.2228 20.1362 37.8342C20.277 37.908 20.4198 37.9745 20.5626 38.0398C20.8099 38.1504 21.0573 38.2528 21.3046 38.3468C22.3629 38.7252 23.4712 38.9412 24.5928 38.9878C37.1882 39.5847 39.6281 23.7695 30.5388 19.1802C32.683 18.8983 34.8545 19.4311 36.632 20.6751C35.5217 18.6952 33.9122 17.0477 31.9673 15.9002C30.0224 14.7526 27.8114 14.1459 25.5592 14.1417C25.2592 14.1417 24.9658 14.1668 24.6711 14.1872C22.1362 14.3632 19.7126 15.307 17.7165 16.8955C18.1018 17.2249 18.5367 17.665 19.4528 18.5774C21.1677 20.2844 25.5657 22.0526 25.5755 22.2601V22.2601Z" fill="url(#paint3_radial)"/>
<path d="M25.5755 22.2601C25.5337 22.8952 23.3129 25.0857 22.5363 25.0857C15.3502 25.0857 14.1837 29.478 14.1837 29.478C14.5019 33.1765 17.0527 36.2228 20.1362 37.8342C20.277 37.908 20.4198 37.9745 20.5626 38.0398C20.8099 38.1504 21.0573 38.2528 21.3046 38.3468C22.3629 38.7252 23.4712 38.9412 24.5928 38.9878C37.1882 39.5847 39.6281 23.7695 30.5388 19.1802C32.683 18.8983 34.8545 19.4311 36.632 20.6751C35.5217 18.6952 33.9122 17.0477 31.9673 15.9002C30.0224 14.7526 27.8114 14.1459 25.5592 14.1417C25.2592 14.1417 24.9658 14.1668 24.6711 14.1872C22.1362 14.3632 19.7126 15.307 17.7165 16.8955C18.1018 17.2249 18.5367 17.665 19.4528 18.5774C21.1677 20.2844 25.5657 22.0526 25.5755 22.2601V22.2601Z" fill="url(#paint4_radial)"/>
<path d="M16.5382 16.0464C16.743 16.1782 16.9119 16.2928 17.0599 16.3962C16.4841 14.3598 16.4595 12.2046 16.9888 10.1554C14.6577 11.2964 12.5864 12.9138 10.906 14.9054C11.0292 14.9021 14.6949 14.8355 16.5382 16.0464V16.0464Z" fill="url(#paint5_radial)"/>
<path d="M0.491002 27.7743C2.44124 39.418 12.8855 48.3079 24.7428 48.6471C35.7166 48.9607 42.7272 42.5242 45.6236 36.2452C48.076 30.8184 48.3578 24.644 46.4099 19.0123V18.9879C46.4099 18.9688 46.406 18.9576 46.4099 18.9635L46.4145 19.0063C47.3111 24.9204 44.3339 30.65 39.6796 34.5244L39.6653 34.5574C30.5968 42.0196 21.9182 39.0596 20.1616 37.8514C20.039 37.7921 19.9164 37.7304 19.7939 37.6662C14.5065 35.1127 12.3222 30.2455 12.7903 26.0713C11.5352 26.09 10.3017 25.7406 9.23919 25.0653C8.17668 24.39 7.33079 23.4179 6.80401 22.2667C8.19194 21.4076 9.7745 20.9219 11.4009 20.856C13.0272 20.79 14.6432 21.146 16.0949 21.8899C19.0876 23.2626 22.4931 23.3979 25.5833 22.2667C25.5735 22.0592 21.1755 20.2903 19.4607 18.584C18.5446 17.6716 18.1097 17.2322 17.7243 16.9021C17.516 16.7239 17.2984 16.5572 17.0723 16.4028C16.9223 16.2993 16.7534 16.1873 16.5506 16.0529C14.7073 14.8421 11.0416 14.9086 10.9203 14.9119H10.9086C9.90704 13.6292 9.97747 9.39969 10.0348 8.51624C9.73856 8.63655 9.45573 8.78826 9.19111 8.96883C8.30698 9.60639 7.48045 10.3218 6.7212 11.1066C5.85292 11.9905 5.05944 12.9462 4.3491 13.9639V13.9678V13.9632C2.72438 16.2905 1.57201 18.9198 0.958512 21.6995C0.946123 21.7516 0.0482702 25.7176 0.491002 27.7743V27.7743Z" fill="url(#paint6_radial)"/>
<path d="M34.4431 17.6987C35.3657 18.6142 36.1559 19.6566 36.7905 20.795C36.9293 20.9011 37.0591 21.0065 37.1693 21.1086C42.8987 26.4449 39.8968 33.9882 39.6731 34.5251C44.3273 30.6507 47.3019 24.9211 46.408 19.007C43.5495 11.8063 38.7042 8.90431 34.747 2.58508C34.5468 2.26556 34.3466 1.94539 34.1517 1.60742C34.0402 1.41439 33.9508 1.24047 33.8733 1.08038C33.7091 0.759248 33.5827 0.419867 33.4964 0.0691179C33.4965 0.0529326 33.4907 0.0372706 33.4801 0.0251197C33.4695 0.0129689 33.4549 0.00517955 33.439 0.00323768C33.4234 -0.00107923 33.407 -0.00107923 33.3914 0.00323768C33.3881 0.00323768 33.3829 0.0091669 33.379 0.0104845C33.3751 0.0118021 33.3666 0.0177313 33.3608 0.0203665C32.3834 0.488775 26.5874 9.76141 34.4431 17.6987V17.6987Z" fill="url(#paint7_radial)"/>
<path d="M37.1654 21.1053C37.0552 21.0032 36.9254 20.8978 36.7865 20.7917C36.735 20.7528 36.6842 20.714 36.6294 20.6751C34.8518 19.4311 32.6804 18.8984 30.5361 19.1803C39.6255 23.7721 37.1869 39.5847 24.5902 38.9878C23.4686 38.9413 22.3602 38.7252 21.302 38.3468C21.0547 38.2532 20.8073 38.1509 20.56 38.0398C20.4172 37.9739 20.2744 37.908 20.1336 37.8342L20.1512 37.8454C21.9077 39.057 30.5837 42.017 39.6548 34.5514L39.6692 34.5185C39.8955 33.9849 42.8974 26.4396 37.1654 21.1053V21.1053Z" fill="url(#paint8_radial)"/>
<path d="M14.1837 29.478C14.1837 29.478 15.3502 25.0858 22.5363 25.0858C23.3129 25.0858 25.5357 22.8953 25.5754 22.2602C22.4853 23.3913 19.0798 23.2561 16.087 21.8834C14.6354 21.1394 13.0194 20.7835 11.393 20.8494C9.76666 20.9154 8.1841 21.4011 6.79617 22.2602C7.32295 23.4114 8.16884 24.3835 9.23136 25.0588C10.2939 25.734 11.5274 26.0835 12.7825 26.0648C12.3143 30.2396 14.4987 35.1068 19.786 37.6597C19.904 37.717 20.0149 37.7789 20.1362 37.8336C17.0501 36.2228 14.5019 33.1765 14.1837 29.478Z" fill="url(#paint9_radial)"/>
<path d="M48.9125 17.6736C47.8144 15.0042 45.5871 12.1219 43.8429 11.2108C45.0869 13.6451 45.9503 16.2595 46.4021 18.9609L46.4067 19.0037C43.5495 11.8063 38.7042 8.90431 34.747 2.58508C34.5468 2.26556 34.3466 1.94539 34.1517 1.60742C34.0402 1.41439 33.9508 1.24047 33.8733 1.08038C33.7091 0.759248 33.5827 0.419867 33.4964 0.0691179C33.4965 0.0529325 33.4907 0.0372706 33.4801 0.0251197C33.4695 0.0129689 33.4549 0.00517955 33.439 0.00323768C33.4234 -0.00107923 33.407 -0.00107923 33.3914 0.00323768C33.3881 0.00323768 33.3829 0.0091669 33.379 0.0104845C33.3751 0.0118021 33.3666 0.0177313 33.3608 0.0203665L33.3705 0.00323768C27.023 3.75841 24.8693 10.7101 24.6711 14.1872C24.9658 14.1668 25.2579 14.1418 25.5592 14.1418C27.8114 14.146 30.0224 14.7527 31.9673 15.9002C33.9122 17.0478 35.5217 18.6953 36.632 20.6751C34.8545 19.4311 32.683 18.8984 30.5387 19.1803C39.6281 23.7721 37.1895 39.5847 24.5928 38.9878C23.4712 38.9413 22.3629 38.7252 21.3046 38.3468C21.0573 38.2533 20.8099 38.1509 20.5626 38.0398C20.4198 37.9739 20.277 37.9081 20.1362 37.8343L20.1538 37.8455C20.0312 37.7862 19.9086 37.7245 19.786 37.6604C19.904 37.7177 20.0149 37.7796 20.1362 37.8343C17.0501 36.2228 14.5019 33.1765 14.1837 29.478C14.1837 29.478 15.3502 25.0858 22.5363 25.0858C23.3129 25.0858 25.5357 22.8953 25.5755 22.2602C25.5657 22.0527 21.1677 20.2838 19.4528 18.5775C18.5367 17.6651 18.1018 17.2256 17.7165 16.8956C17.5082 16.7173 17.2905 16.5506 17.0644 16.3962C16.4886 14.3598 16.4641 12.2046 16.9934 10.1554C14.6623 11.2964 12.591 12.9138 10.9105 14.9053H10.8988C9.89726 13.6226 9.96768 9.39314 10.0251 8.50969C9.72877 8.63 9.44595 8.78171 9.18133 8.96228C8.29719 9.59985 7.47067 10.3152 6.71142 11.1001C5.84623 11.9864 5.05603 12.9443 4.34909 13.9639V13.9679V13.9632C2.72438 16.2905 1.57201 18.9199 0.958508 21.6996L0.924602 21.8682C0.877003 22.0929 0.663788 23.2339 0.633142 23.479C0.633142 23.4974 0.633142 23.4599 0.633142 23.479C0.438125 24.6568 0.313577 25.8455 0.260178 27.0385V27.1703C0.265718 33.5635 2.64469 39.722 6.92692 44.4287C11.2092 49.1353 17.0831 52.0478 23.3878 52.5903C29.6925 53.1328 35.9693 51.266 40.9776 47.3588C45.9859 43.4515 49.3614 37.7882 50.4369 31.488C50.4793 31.1586 50.5138 30.8325 50.5517 30.4998C51.0722 26.1532 50.5087 21.7441 48.9125 17.6736V17.6736ZM46.4054 18.9853L46.4099 19.0123L46.4054 18.9853Z" fill="url(#paint10_linear)"/>
<defs>
<radialGradient id="paint0_radial" cx="0" cy="0" r="1" gradientUnits="userSpaceOnUse" gradientTransform="translate(43.629 5.84665) scale(52.6825 53.2292)">
<stop offset="0.129" stop-color="#FFBD4F"/>
<stop offset="0.186" stop-color="#FFAC31"/>
<stop offset="0.247" stop-color="#FF9D17"/>
<stop offset="0.283" stop-color="#FF980E"/>
<stop offset="0.403" stop-color="#FF563B"/>
<stop offset="0.467" stop-color="#FF3750"/>
<stop offset="0.71" stop-color="#F5156C"/>
<stop offset="0.782" stop-color="#EB0878"/>
<stop offset="0.86" stop-color="#E50080"/>
</radialGradient>
<radialGradient id="paint1_radial" cx="0" cy="0" r="1" gradientUnits="userSpaceOnUse" gradientTransform="translate(24.3784 27.6083) scale(52.6825 53.2292)">
<stop offset="0.3" stop-color="#960E18"/>
<stop offset="0.351" stop-color="#B11927" stop-opacity="0.74"/>
<stop offset="0.435" stop-color="#DB293D" stop-opacity="0.343"/>
<stop offset="0.497" stop-color="#F5334B" stop-opacity="0.094"/>
<stop offset="0.53" stop-color="#FF3750" stop-opacity="0"/>
</radialGradient>
<radialGradient id="paint2_radial" cx="0" cy="0" r="1" gradientUnits="userSpaceOnUse" gradientTransform="translate(30.7297 -6.23293) scale(38.1662 38.5623)">
<stop offset="0.132" stop-color="#FFF44F"/>
<stop offset="0.252" stop-color="#FFDC3E"/>
<stop offset="0.506" stop-color="#FF9D12"/>
<stop offset="0.526" stop-color="#FF980E"/>
</radialGradient>
<radialGradient id="paint3_radial" cx="0" cy="0" r="1" gradientUnits="userSpaceOnUse" gradientTransform="translate(18.5511 41.512) scale(25.0845 25.3448)">
<stop offset="0.353" stop-color="#3A8EE6"/>
<stop offset="0.472" stop-color="#5C79F0"/>
<stop offset="0.669" stop-color="#9059FF"/>
<stop offset="1" stop-color="#C139E6"/>
</radialGradient>
<radialGradient id="paint4_radial" cx="0" cy="0" r="1" gradientUnits="userSpaceOnUse" gradientTransform="translate(27.2572 23.246) rotate(-13.7273) scale(13.3073 15.7231)">
<stop offset="0.206" stop-color="#9059FF" stop-opacity="0"/>
<stop offset="0.278" stop-color="#8C4FF3" stop-opacity="0.064"/>
<stop offset="0.747" stop-color="#7716A8" stop-opacity="0.45"/>
<stop offset="0.975" stop-color="#6E008B" stop-opacity="0.6"/>
</radialGradient>
<radialGradient id="paint5_radial" cx="0" cy="0" r="1" gradientUnits="userSpaceOnUse" gradientTransform="translate(23.7132 3.66896) scale(18.0457 18.233)">
<stop stop-color="#FFE226"/>
<stop offset="0.121" stop-color="#FFDB27"/>
<stop offset="0.295" stop-color="#FFC82A"/>
<stop offset="0.502" stop-color="#FFA930"/>
<stop offset="0.732" stop-color="#FF7E37"/>
<stop offset="0.792" stop-color="#FF7139"/>
</radialGradient>
<radialGradient id="paint6_radial" cx="0" cy="0" r="1" gradientUnits="userSpaceOnUse" gradientTransform="translate(37.8976 -7.89611) scale(76.993 77.792)">
<stop offset="0.113" stop-color="#FFF44F"/>
<stop offset="0.456" stop-color="#FF980E"/>
<stop offset="0.622" stop-color="#FF5634"/>
<stop offset="0.716" stop-color="#FF3647"/>
<stop offset="0.904" stop-color="#E31587"/>
</radialGradient>
<radialGradient id="paint7_radial" cx="0" cy="0" r="1" gradientUnits="userSpaceOnUse" gradientTransform="translate(31.4085 -3.57043) rotate(84.0374) scale(57.0092 37.0387)">
<stop stop-color="#FFF44F"/>
<stop offset="0.06" stop-color="#FFE847"/>
<stop offset="0.168" stop-color="#FFC830"/>
<stop offset="0.304" stop-color="#FF980E"/>
<stop offset="0.356" stop-color="#FF8B16"/>
<stop offset="0.455" stop-color="#FF672A"/>
<stop offset="0.57" stop-color="#FF3647"/>
<stop offset="0.737" stop-color="#E31587"/>
</radialGradient>
<radialGradient id="paint8_radial" cx="0" cy="0" r="1" gradientUnits="userSpaceOnUse" gradientTransform="translate(23.2882 10.4223) scale(48.0681 48.5669)">
<stop offset="0.137" stop-color="#FFF44F"/>
<stop offset="0.48" stop-color="#FF980E"/>
<stop offset="0.592" stop-color="#FF5634"/>
<stop offset="0.655" stop-color="#FF3647"/>
<stop offset="0.904" stop-color="#E31587"/>
</radialGradient>
<radialGradient id="paint9_radial" cx="0" cy="0" r="1" gradientUnits="userSpaceOnUse" gradientTransform="translate(35.9768 13.2647) scale(52.6101 53.1561)">
<stop offset="0.094" stop-color="#FFF44F"/>
<stop offset="0.231" stop-color="#FFE141"/>
<stop offset="0.509" stop-color="#FFAF1E"/>
<stop offset="0.626" stop-color="#FF980E"/>
</radialGradient>
<linearGradient id="paint10_linear" x1="45.0635" y1="7.94312" x2="8.99865" y2="43.6369" gradientUnits="userSpaceOnUse">
<stop offset="0.167" stop-color="#FFF44F" stop-opacity="0.8"/>
<stop offset="0.266" stop-color="#FFF44F" stop-opacity="0.634"/>
<stop offset="0.489" stop-color="#FFF44F" stop-opacity="0.217"/>
<stop offset="0.6" stop-color="#FFF44F" stop-opacity="0"/>
</linearGradient>
</defs>
</svg>
