<svg width="251" height="39" viewBox="0 0 251 39" fill="none" xmlns="http://www.w3.org/2000/svg">
<path d="M52.3303 10.0536V27.2381H56.84V20.6438H63.8139V27.2381H68.3235V10.0536H63.8139V17.0647H56.84V10.0536H52.3303Z" fill="white"/>
<path d="M71.802 9.04851V27.2381H76.1884V9.04851H71.802Z" fill="white"/>
<path d="M82.3052 8.36211L79.6684 12.5786H82.9952L86.2234 9.73491L82.3052 8.36211ZM79.6684 13.9759V27.2381H84.0302V13.9759H79.6684Z" fill="white"/>
<path d="M96.4619 9.04851V15.7164C95.5255 14.5152 94.1455 13.8288 92.4205 13.8288C88.7487 13.8288 86.3091 16.5009 86.3091 20.5457C86.3091 24.6641 88.7734 27.4097 92.5191 27.4097C94.1948 27.4097 95.5501 26.7478 96.4619 25.5221V27.2381H100.848V9.04851H96.4619ZM93.6034 23.9777C91.8784 23.9777 90.7201 22.6294 90.7201 20.6683C90.7201 18.7071 91.8784 17.3589 93.6034 17.3589C95.3037 17.3589 96.4619 18.6826 96.4619 20.6683C96.4619 22.6294 95.3037 23.9777 93.6034 23.9777Z" fill="white"/>
<path d="M110.324 13.8043C108.131 13.8043 106.209 14.3191 104.114 15.2506L105.322 18.1923C106.751 17.5059 108.205 17.1382 109.314 17.1382C110.989 17.1382 111.852 17.8737 111.852 19.1239V19.271H108.377C105.075 19.32 103.276 20.7663 103.276 23.2913C103.276 25.7182 104.977 27.4342 107.835 27.4342C109.634 27.4342 110.989 26.8459 111.852 25.7427V27.2381H116.164V18.6091C116.14 15.5693 113.996 13.8043 110.324 13.8043ZM109.191 24.468C108.057 24.468 107.392 23.8797 107.392 22.9726C107.392 22.0411 108.008 21.5998 109.24 21.5998H111.852V22.752C111.581 23.7571 110.497 24.468 109.191 24.468Z" fill="white"/>
<path d="M119.653 8.55822L122.66 12.6276H126.455L129.461 8.55822H126.061L124.557 10.789L123.054 8.55822H119.653ZM127.712 18.8052L130.891 16.9666C129.732 14.981 127.613 13.8288 124.927 13.8288C120.787 13.8288 118.027 16.5499 118.027 20.6683C118.027 24.7131 120.762 27.3852 124.878 27.3852C127.712 27.3852 129.88 26.233 130.94 24.1983L127.712 22.3598C127.17 23.3894 126.258 23.8551 125.1 23.8551C123.522 23.8551 122.438 22.5804 122.438 20.6438C122.438 18.7317 123.522 17.4324 125.1 17.4324C126.233 17.4324 127.12 17.9472 127.712 18.8052Z" fill="white"/>
<path d="M141.845 18.1678L143.323 15.3242C141.648 14.3191 139.701 13.7798 137.779 13.7798C134.649 13.7798 132.308 15.2997 132.308 18.0698C132.308 22.6539 139.183 21.7469 139.183 23.561C139.183 24.1003 138.592 24.3699 137.779 24.3699C136.3 24.3699 134.575 23.7816 133.047 22.7275L131.667 25.5466C133.294 26.7969 135.438 27.4342 137.68 27.4342C140.933 27.4342 143.323 25.8898 143.323 23.1687C143.348 18.5601 136.35 19.3935 136.35 17.653C136.35 17.0892 136.867 16.8195 137.606 16.8195C138.691 16.8195 140.194 17.3098 141.845 18.1678Z" fill="white"/>
<path d="M154.6 13.8043C152.653 13.8043 151.125 14.6133 150.189 16.1331V9.04851H145.803V27.2381H150.189V20.6928C150.189 18.9523 151.175 17.7266 152.801 17.7021C154.206 17.7021 155.068 18.6336 155.068 20.129V27.2381H159.455V18.8787C159.455 15.7654 157.533 13.8043 154.6 13.8043Z" fill="white"/>
<path d="M168.59 13.8288C164.204 13.8288 161.32 16.5254 161.32 20.5947C161.32 24.6886 164.204 27.3852 168.59 27.3852C172.976 27.3852 175.884 24.6886 175.884 20.5947C175.884 16.5254 172.976 13.8288 168.59 13.8288ZM168.59 17.3589C170.315 17.3589 171.473 18.6826 171.473 20.6683C171.473 22.6294 170.315 23.9532 168.59 23.9532C166.89 23.9532 165.731 22.6294 165.731 20.6683C165.731 18.6826 166.89 17.3589 168.59 17.3589Z" fill="white"/>
<path d="M186.547 13.8288C184.896 13.8288 183.565 14.4907 182.629 15.6919V13.9759H178.243V31.9939H182.629V25.5221C183.565 26.7233 184.945 27.3852 186.646 27.3852C190.342 27.3852 192.757 24.7131 192.757 20.6683C192.757 16.5499 190.268 13.8288 186.547 13.8288ZM185.463 23.8551C183.787 23.8551 182.629 22.5314 182.629 20.5702C182.629 18.6091 183.787 17.2608 185.463 17.2608C187.188 17.2608 188.346 18.6091 188.346 20.5702C188.346 22.5314 187.188 23.8551 185.463 23.8551Z" fill="white"/>
<path d="M201.396 13.1424C203.047 13.1424 204.377 11.8186 204.377 10.2007C204.377 8.55822 203.047 7.23445 201.396 7.23445C199.745 7.23445 198.414 8.55822 198.414 10.2007C198.414 11.8186 199.745 13.1424 201.396 13.1424ZM201.396 8.97496C202.086 8.97496 202.652 9.51428 202.652 10.2007C202.652 10.8626 202.086 11.4019 201.396 11.4019C200.706 11.4019 200.139 10.8626 200.139 10.2007C200.139 9.51428 200.706 8.97496 201.396 8.97496ZM203.638 13.9759V20.5212C203.638 22.2617 202.702 23.4874 201.149 23.5119C199.843 23.5119 199.005 22.6049 199.005 21.1095V13.9759H194.619V22.3598C194.619 25.4486 196.492 27.4342 199.375 27.4342C201.272 27.4097 202.726 26.6253 203.638 25.0809V27.2381H208.025V13.9759H203.638Z" fill="white"/>
<path d="M214.297 22.9835C213.064 22.9835 212.202 23.8415 212.202 25.0917C212.202 26.342 213.064 27.2245 214.297 27.2245C215.529 27.2245 216.416 26.342 216.416 25.0917C216.416 23.8415 215.529 22.9835 214.297 22.9835Z" fill="white"/>
<path d="M227.607 18.5954L230.785 16.7569C229.627 14.7712 227.508 13.619 224.822 13.619C220.682 13.619 217.922 16.3401 217.922 20.4585C217.922 24.5034 220.657 27.1754 224.773 27.1754C227.607 27.1754 229.775 26.0233 230.835 23.9886L227.607 22.15C227.064 23.1796 226.153 23.6454 224.994 23.6454C223.417 23.6454 222.333 22.3707 222.333 20.434C222.333 18.5219 223.417 17.2227 224.994 17.2227C226.128 17.2227 227.015 17.7374 227.607 18.5954Z" fill="white"/>
<path d="M232.228 13.7661V17.1246H238.413L232.006 24.3808V27.0284H244.155V23.6944H237.501L243.908 16.4382V13.7906L232.228 13.7661Z" fill="white"/>
<path fill-rule="evenodd" clip-rule="evenodd" d="M2.79071 11.1429H38.2806C39.8219 11.1429 41.0713 12.403 41.0713 13.9301V15.7842C41.0713 17.2944 39.8666 18.5241 38.3676 18.5701L35.4042 31.836C34.973 33.7662 33.0812 35.2857 31.0974 35.2857H28.9464H12.3214H10.1705C8.18666 35.2857 6.29482 33.7662 5.86363 31.836L2.90051 18.5714H2.79071C1.24944 18.5714 0 17.3113 0 15.7842V13.9301C0 12.3908 1.25161 11.1429 2.79071 11.1429ZM13.6538 33.4286H27.6141H31.0974C32.2037 33.4286 33.3399 32.516 33.5818 31.4331L36.4549 18.5714H4.81293L7.68605 31.4331C7.92796 32.516 9.06415 33.4286 10.1705 33.4286H13.6538ZM1.86688 15.7842C1.86688 16.2927 2.28767 16.7143 2.79071 16.7143H38.2806C38.788 16.7143 39.2045 16.2985 39.2045 15.7842V13.9301C39.2045 13.4215 38.7837 13 38.2806 13H2.79071C2.28336 13 1.86688 13.4157 1.86688 13.9301V15.7842Z" fill="white"/>
<path fill-rule="evenodd" clip-rule="evenodd" d="M19.3019 1.61089C19.6807 1.26305 19.7043 0.675578 19.3546 0.298744C19.005 -0.078089 18.4144 -0.101588 18.0356 0.246259L5.9009 11.3891C5.52209 11.737 5.49847 12.3244 5.84814 12.7013C6.19781 13.0781 6.78835 13.1016 7.16716 12.7537L19.3019 1.61089Z" fill="white"/>
<path fill-rule="evenodd" clip-rule="evenodd" d="M23.0356 0.246259C22.6568 -0.101588 22.0662 -0.078089 21.7165 0.298744C21.3669 0.675578 21.3905 1.26305 21.7693 1.61089L33.904 12.7537C34.2828 13.1016 34.8734 13.0781 35.223 12.7013C35.5727 12.3244 35.5491 11.737 35.1703 11.3891L23.0356 0.246259Z" fill="white"/>
<path d="M20.0366 23.114C20.0366 23.5042 19.9677 23.8603 19.8298 24.1823C19.692 24.5042 19.509 24.7823 19.2808 25.0164C19.0526 25.2457 18.7864 25.4237 18.4822 25.5506C18.1827 25.6774 17.869 25.7408 17.541 25.7408C17.1797 25.7408 16.8469 25.6774 16.5427 25.5506C16.2432 25.4237 15.9818 25.2457 15.7584 25.0164C15.5397 24.7823 15.3686 24.5042 15.245 24.1823C15.1214 23.8603 15.0596 23.5042 15.0596 23.114C15.0596 22.7091 15.1214 22.3432 15.245 22.0164C15.3686 21.6847 15.5397 21.4018 15.7584 21.1676C15.9818 20.9335 16.2432 20.753 16.5427 20.6261C16.8469 20.4944 17.1797 20.4286 17.541 20.4286C17.9022 20.4286 18.235 20.4944 18.5392 20.6261C18.8482 20.753 19.112 20.9335 19.3307 21.1676C19.5541 21.4018 19.7276 21.6847 19.8512 22.0164C19.9748 22.3432 20.0366 22.7091 20.0366 23.114ZM18.3396 23.114C18.3396 22.8652 18.3182 22.6603 18.2754 22.4993C18.2374 22.3335 18.1827 22.2018 18.1114 22.1042C18.0401 22.0066 17.9545 21.9383 17.8547 21.8993C17.7596 21.8603 17.6551 21.8408 17.541 21.8408C17.4269 21.8408 17.3223 21.8603 17.2272 21.8993C17.1322 21.9383 17.0513 22.0066 16.9848 22.1042C16.9182 22.2018 16.8659 22.3335 16.8279 22.4993C16.7899 22.6603 16.7709 22.8652 16.7709 23.114C16.7709 23.3481 16.7899 23.5432 16.8279 23.6993C16.8659 23.8554 16.9182 23.9798 16.9848 24.0725C17.0513 24.1652 17.1322 24.2311 17.2272 24.2701C17.3223 24.3091 17.4269 24.3286 17.541 24.3286C17.6551 24.3286 17.7596 24.3091 17.8547 24.2701C17.9545 24.2311 18.0401 24.1652 18.1114 24.0725C18.1827 23.9798 18.2374 23.8554 18.2754 23.6993C18.3182 23.5432 18.3396 23.3481 18.3396 23.114ZM23.3024 20.8676C23.3737 20.7847 23.4616 20.7091 23.5662 20.6408C23.6708 20.5676 23.8158 20.531 24.0011 20.531H25.6126L17.7834 30.8701C17.7121 30.9628 17.6218 31.0409 17.5124 31.1043C17.4079 31.1628 17.2795 31.1921 17.1274 31.1921H15.4731L23.3024 20.8676ZM26.0119 28.6896C26.0119 29.0799 25.943 29.4384 25.8051 29.7653C25.6673 30.0872 25.4843 30.3653 25.2561 30.5994C25.0279 30.8287 24.7617 31.0067 24.4575 31.1336C24.158 31.2604 23.8443 31.3238 23.5163 31.3238C23.155 31.3238 22.8222 31.2604 22.518 31.1336C22.2185 31.0067 21.9571 30.8287 21.7337 30.5994C21.515 30.3653 21.3439 30.0872 21.2203 29.7653C21.0967 29.4384 21.0349 29.0799 21.0349 28.6896C21.0349 28.2848 21.0967 27.9189 21.2203 27.5921C21.3439 27.2604 21.515 26.9774 21.7337 26.7433C21.9571 26.5091 22.2185 26.3286 22.518 26.2018C22.8222 26.0701 23.155 26.0042 23.5163 26.0042C23.8775 26.0042 24.2103 26.0701 24.5145 26.2018C24.8235 26.3286 25.0873 26.5091 25.306 26.7433C25.5294 26.9774 25.7029 27.2604 25.8265 27.5921C25.9501 27.9189 26.0119 28.2848 26.0119 28.6896ZM24.3149 28.6896C24.3149 28.4457 24.2935 28.2433 24.2507 28.0823C24.2127 27.9165 24.158 27.7847 24.0867 27.6872C24.0154 27.5896 23.9298 27.5213 23.83 27.4823C23.7349 27.4433 23.6304 27.4238 23.5163 27.4238C23.4022 27.4238 23.2976 27.4433 23.2025 27.4823C23.1075 27.5213 23.0266 27.5896 22.9601 27.6872C22.8935 27.7847 22.8413 27.9165 22.8032 28.0823C22.7652 28.2433 22.7462 28.4457 22.7462 28.6896C22.7462 28.9238 22.7652 29.1189 22.8032 29.275C22.8413 29.4311 22.8935 29.5555 22.9601 29.6482C23.0266 29.7409 23.1075 29.8067 23.2025 29.8457C23.2976 29.8848 23.4022 29.9043 23.5163 29.9043C23.6304 29.9043 23.7349 29.8848 23.83 29.8457C23.9298 29.8067 24.0154 29.7409 24.0867 29.6482C24.158 29.5555 24.2127 29.4311 24.2507 29.275C24.2935 29.1189 24.3149 28.9238 24.3149 28.6896Z" fill="white"/>
</svg>
