<svg width="276" height="94" viewBox="0 0 276 94" fill="none" xmlns="http://www.w3.org/2000/svg">
  <title>[logo] TopMonks - purple color</title>
  <rect width="240.611" height="29.7742" transform="translate(18 31.2258)" fill="white"/>
  <path fill-rule="evenodd" clip-rule="evenodd"
        d="M75.3963 39.2247C74.2207 40.3502 73.0048 42.3199 73.0048 45.2942C73.0048 47.7463 73.8154 49.7157 75.4775 51.3232C77.2204 52.9712 79.1662 53.5345 81.2748 53.5345C84.0312 53.5345 85.977 52.5292 87.2742 51.243C88.3281 50.2385 89.6256 48.349 89.6256 45.2534C89.6256 42.4806 88.4902 40.4304 87.2742 39.2247C85.9366 37.9385 83.7879 36.9337 81.3149 36.9337C78.9637 36.9337 76.8559 37.7779 75.3963 39.2247ZM91.8147 35.1249C94.3686 37.5767 96.0307 41.1139 96.0307 45.2534C96.0307 48.8313 94.7332 52.4891 91.8147 55.3027C89.3012 57.7144 85.8958 59.2417 81.3556 59.2417C76.2882 59.2417 72.8424 57.232 70.8154 55.3027C68.221 52.891 66.5993 49.2737 66.5993 45.3346C66.5993 41.4757 68.3426 37.5767 70.7749 35.165C72.5994 33.3563 75.9637 31.226 81.3556 31.226C85.5717 31.226 89.0983 32.5125 91.8147 35.1249Z"
        fill="#545FEF"/>
  <path fill-rule="evenodd" clip-rule="evenodd"
        d="M105.386 44.1689H107.616C108.467 44.1689 109.967 44.1284 110.98 43.164C111.548 42.601 111.994 41.6767 111.994 40.5111C111.994 39.3856 111.589 38.4612 110.98 37.8983C110.048 37.014 108.711 36.8934 107.494 36.8934H105.386V44.1689ZM108.67 31.8288C111.021 31.8288 113.616 32.1505 115.764 34.0397C118.075 36.0491 118.399 38.7024 118.399 40.5515C118.399 43.9276 117.102 45.8168 116.089 46.8618C113.94 49.0323 111.102 49.2334 109.197 49.2334H105.386V58.6389H99.1433V31.8288H108.67Z"
        fill="#545FEF"/>
  <path fill-rule="evenodd" clip-rule="evenodd"
        d="M118.411 58.639L122.748 31.8289H127.937L134.667 47.8664L141.396 31.8289H146.585L150.923 58.639H144.68L142.531 42.6415L135.761 58.639H133.572L126.802 42.6415L124.654 58.639H118.411Z"
        fill="#545FEF"/>
  <path fill-rule="evenodd" clip-rule="evenodd"
        d="M161.012 39.2247C159.836 40.3502 158.62 42.3199 158.62 45.2942C158.62 47.7463 159.431 49.7157 161.093 51.3232C162.836 52.9712 164.782 53.5345 166.89 53.5345C169.647 53.5345 171.592 52.5292 172.89 51.243C173.943 50.2385 175.241 48.349 175.241 45.2534C175.241 42.4806 174.106 40.4304 172.89 39.2247C171.552 37.9385 169.403 36.9337 166.93 36.9337C164.579 36.9337 162.471 37.7779 161.012 39.2247ZM177.43 35.1249C179.984 37.5767 181.646 41.1139 181.646 45.2534C181.646 48.8313 180.349 52.4891 177.43 55.3027C174.917 57.7144 171.511 59.2417 166.971 59.2417C161.904 59.2417 158.458 57.232 156.431 55.3027C153.836 52.891 152.215 49.2737 152.215 45.3346C152.215 41.4757 153.958 37.5767 156.39 35.165C158.215 33.3563 161.579 31.226 166.971 31.226C171.187 31.226 174.714 32.5125 177.43 35.1249Z"
        fill="#545FEF"/>
  <path fill-rule="evenodd" clip-rule="evenodd"
        d="M184.759 58.639V31.8289H190.19L204.866 49.1125V31.8289H211.109V58.639H205.677L191.002 41.2745V58.639H184.759Z"
        fill="#545FEF"/>
  <path fill-rule="evenodd" clip-rule="evenodd"
        d="M221.92 43.0031L231.162 31.829H238.784L227.838 44.5305L239.635 58.6392H231.608L221.92 46.7414V58.6392H215.677V31.829H221.92V43.0031Z"
        fill="#545FEF"/>
  <path fill-rule="evenodd" clip-rule="evenodd"
        d="M254.76 38.3807C252.733 36.572 250.99 36.4514 250.219 36.4514C249.368 36.4514 248.314 36.572 247.585 37.3758C247.179 37.7777 246.895 38.3807 246.895 39.0639C246.895 39.707 247.098 40.1894 247.503 40.5512C248.152 41.1542 249.084 41.3954 250.909 42.0786L252.935 42.8423C254.111 43.2842 255.571 43.8872 256.625 44.8921C258.206 46.3794 258.611 48.3087 258.611 49.8765C258.611 52.65 257.638 55.0617 256.219 56.5086C253.827 59.0008 250.341 59.242 248.558 59.242C246.612 59.242 244.909 58.9607 243.206 58.1161C241.828 57.4329 240.247 56.1868 239.234 55.1823L242.476 50.7608C243.166 51.444 244.26 52.3684 244.99 52.8107C246.044 53.4538 247.139 53.7752 248.395 53.7752C249.206 53.7752 250.341 53.6145 251.233 52.8508C251.76 52.4088 252.206 51.6852 252.206 50.6803C252.206 49.796 251.841 49.2331 251.273 48.7507C250.544 48.148 248.882 47.545 248.111 47.2637L245.881 46.5C244.625 46.0577 243.166 45.4951 242.111 44.3696C240.693 42.8823 240.491 40.9935 240.491 39.707C240.491 37.3357 241.22 35.3259 242.842 33.6779C244.747 31.7487 247.017 31.2258 249.53 31.2258C251.395 31.2258 254.395 31.5476 257.557 33.8791L254.76 38.3807Z"
        fill="#545FEF"/>
  <path fill-rule="evenodd" clip-rule="evenodd"
        d="M48.7791 32.3363V37.5805H54.5984V59.242H60.7793V37.5805H66.5992V32.3363H48.7791Z" fill="#545FEF"/>
  <path fill-rule="evenodd" clip-rule="evenodd"
        d="M35.0521 59.5884C32.369 59.5884 31.7319 58.551 29.8787 58.551H29.8312C27.9543 58.551 27.3365 59.5884 24.6534 59.5884C19.9353 59.563 18.0025 54.7094 20.3278 52.6418C21.5158 51.7184 23.0125 52.2765 23.9152 53.6387C24.8182 55.0008 26.1724 57.2268 29.071 57.096C28.3146 56.7892 27.7281 56.4902 27.2609 56.1911C29.9822 55.2349 31.9074 54.0616 33.2612 52.9379C33.443 53.3963 33.7214 53.8403 33.9919 54.2006C33.4583 54.9508 32.8406 55.2896 31.1933 56.0436C33.4742 55.859 34.2978 55.1202 35.6443 53.6426C36.7498 52.4298 38.1877 51.7184 39.3756 52.6418C41.7009 54.7094 39.7704 59.563 35.0521 59.5884ZM23.163 47.0552C24.178 46.1394 25.3467 45.8682 25.5359 45.8293C26.3855 47.0244 27.7404 48.2098 29.8312 48.213C31.9695 48.2098 33.2962 47.0244 34.1459 45.8293C34.247 45.8501 34.6322 45.9375 35.1236 46.154C33.3209 51.2114 28.0952 52.8439 26.2777 53.2836C26.5675 52.6522 26.7413 51.9707 26.5524 51.4725C26.3643 50.9759 25.9031 50.5583 25.3928 50.285C25.3857 50.0075 25.3893 49.1764 25.6497 48.5943C25.1081 49.1731 24.845 49.7062 24.7401 50.0221C24.4845 49.9522 24.2399 49.9249 24.034 49.9488C23.442 50.0179 22.6199 50.6373 22.2425 50.9456C22.1482 50.919 22.0522 50.8965 21.9546 50.8784C22.106 49.3526 22.4992 47.931 23.163 47.0552ZM24.562 42.699C23.6961 42.3923 23.245 41.1158 24.3615 40.2232C24.7167 40.4497 25.0209 40.8629 25.0209 40.8629C24.3795 37.5729 26.2672 34.1653 29.8507 34.1624C33.434 34.1653 35.3218 37.5729 34.6803 40.8629C34.6803 40.8629 34.9845 40.4497 35.3396 40.2232C36.4561 41.1158 36.0051 42.3923 35.1393 42.699C34.9072 42.5067 34.7811 42.3901 34.5963 42.1519C34.3392 44.1314 32.9256 47.0799 29.8507 47.0827C26.7754 47.0799 25.3619 44.1314 25.1049 42.1519C24.9201 42.3901 24.7941 42.5067 24.562 42.699ZM25.0953 53.6334C24.8881 53.252 24.6605 52.8502 24.343 52.4192C24.0743 52.0547 23.6268 51.6211 23.0677 51.2991C23.3161 51.048 23.7465 50.6893 24.2083 50.6722C24.7552 50.6519 25.6136 51.1918 25.7922 51.8265C25.9754 52.4772 25.3896 53.2819 25.0953 53.6334ZM36.6334 51.2991C36.0745 51.6211 35.6268 52.0547 35.3582 52.4192C35.0406 52.8502 34.7903 53.0957 34.5108 53.4949C34.2166 53.1433 33.7259 52.4772 33.9089 51.8265C34.0877 51.1918 34.9461 50.6519 35.4929 50.6722C35.9546 50.6893 36.385 51.048 36.6334 51.2991ZM36.5324 47.0552C37.196 47.931 37.5923 49.3526 37.7437 50.8785C37.646 50.8965 37.5515 50.919 37.457 50.9457C37.1147 50.6659 36.4064 50.1297 35.8356 49.9814C36.2101 49.3303 36.3253 48.9176 36.3253 48.9176C36.1271 49.2791 35.9086 49.6228 35.6738 49.9498C35.6712 49.9496 35.6688 49.9491 35.6664 49.9489C34.8744 49.8565 33.5096 50.5197 33.1483 51.4725C33.0249 51.798 33.0359 52.1618 33.1278 52.529C30.3843 54.6243 27.2417 55.4999 26.5604 55.6724C26.1279 55.2964 25.8374 54.9157 25.5916 54.5185C33.4226 52.5966 35.2914 47.6875 35.6492 46.4191C35.9392 46.5852 36.2425 46.7939 36.5324 47.0552ZM29.8787 59.9807C31.3518 59.9807 31.1415 60.3219 33.6757 60.8452C40.7083 62.138 43.2325 54.9908 40.7989 52.1663C40.2683 51.5503 39.7251 51.1823 39.1951 50.9929C39.1513 50.6569 38.754 47.8124 37.647 46.4393C36.21 45.0401 34.9461 44.6777 34.8637 44.6553C35.0855 44.2236 35.2901 43.8555 35.4003 43.629C36.3412 43.6483 38.1197 41.2726 35.8857 39.5246C35.8857 34.152 31.3518 32.8756 29.8312 32.8713C28.3581 32.8756 23.7961 34.152 23.7961 39.5246C21.562 41.2726 23.3564 43.6484 24.2971 43.629C24.4074 43.8557 24.6137 44.2237 24.8356 44.6554C24.7534 44.6778 23.4903 45.0404 22.0532 46.4397C20.9462 47.8126 20.5493 50.6573 20.5057 50.9934C19.9757 51.1829 19.4327 51.551 18.9019 52.167C16.4684 54.9917 18.9971 62.138 26.0297 60.8452C28.5639 60.3219 28.3423 59.9807 29.8312 59.9807H29.8787ZM30.4485 37.9829C30.8105 38.0155 31.1311 37.7569 31.1647 37.4054C31.1982 37.0538 30.9318 36.7424 30.5698 36.7099C30.2079 36.6773 29.8873 36.9359 29.8536 37.2874C29.8201 37.639 30.0864 37.9503 30.4485 37.9829ZM30.4485 36.7043C30.8105 36.7369 31.1312 36.4783 31.1647 36.1268C31.1981 35.7752 30.9317 35.4639 30.5698 35.4313C30.2079 35.3987 29.8873 35.6573 29.8536 36.0088C29.8201 36.3604 30.0864 36.6718 30.4485 36.7043ZM32.4843 41.8214C31.591 42.276 30.7096 42.276 29.8508 41.8214C29.8508 43.5261 32.4843 43.5261 32.4843 41.8214ZM28.534 41.8214C27.6754 42.276 26.7938 42.276 25.9005 41.8214C25.9005 43.5261 28.534 43.5261 28.534 41.8214ZM29.2531 36.7043C29.6152 36.6718 29.8815 36.3604 29.8479 36.0088C29.8144 35.6573 29.4937 35.3987 29.1317 35.4313C28.7696 35.4639 28.5033 35.7752 28.5369 36.1268C28.5704 36.4783 28.8911 36.7369 29.2531 36.7043ZM29.1317 37.9884C28.7696 38.021 28.5033 38.3324 28.5369 38.6839C28.5704 39.0355 28.8911 39.2941 29.2531 39.2615C29.6152 39.2289 29.8815 38.9175 29.8479 38.566C29.8144 38.2144 29.4937 37.9559 29.1317 37.9884ZM30.4484 39.2615C30.8106 39.2941 31.1313 39.0355 31.1647 38.6839C31.1982 38.3324 30.9319 38.021 30.5699 37.9884C30.208 37.9559 29.8873 38.2144 29.8536 38.566C29.8201 38.9175 30.0864 39.2289 30.4484 39.2615ZM29.1317 36.7099C28.7696 36.7424 28.5033 37.0538 28.5369 37.4054C28.5704 37.7569 28.8911 38.0155 29.2531 37.9829C29.6151 37.9503 29.8815 37.639 29.8479 37.2874C29.8144 36.9359 29.4937 36.6773 29.1317 36.7099Z"
        fill="#545FEF"/>
</svg>
