<svg width="1920" height="1155" viewBox="0 0 1920 1155" fill="none" xmlns="http://www.w3.org/2000/svg">
  <title>Purple Waves Background</title>
  <path fill-rule="evenodd" clip-rule="evenodd"
        d="M20.695 245.264C-65.5866 84.8329 -195.51 -54.7663 -227.073 -234.124C-259.644 -419.211 -259.564 -626.981 -160.887 -786.595C-62.693 -945.429 156.436 -972.248 301.705 -1089.45C435.727 -1197.58 500.06 -1392.25 662.09 -1450.56C824.256 -1508.93 1014.52 -1475.64 1170.71 -1402.21C1318.13 -1332.9 1366.65 -1139.63 1505.33 -1054.1C1653.22 -962.888 1870.44 -1016.13 1994.36 -894.229C2117.25 -773.337 2171.95 -582.677 2159.24 -410.85C2146.7 -241.269 2006.6 -114.414 1925.63 34.9337C1853.54 167.888 1813.71 319.415 1705.86 425.346C1596.93 532.345 1454.29 596.069 1308.42 641.194C1162.45 686.351 1010.32 674.354 858.054 687.624C666.954 704.279 461.169 819.544 291.353 729.833C125.794 642.372 109.439 410.274 20.695 245.264Z"
        fill="#545FEF" fill-opacity="0.07"/>
  <path fill-rule="evenodd" clip-rule="evenodd"
        d="M543.387 -253.003C484.178 -250.17 419.865 -250.37 381.19 -205.327C341.2 -158.753 340.346 -92.1939 353.835 -32.2431C367.373 27.9306 395.863 89.6372 452.806 112.981C507.115 135.245 562.421 99.5732 615.799 75.1498C671.469 49.6775 736.396 30.9338 757.775 -26.5591C781.946 -91.5637 773.867 -171.523 726.232 -221.837C681.449 -269.138 608.356 -256.112 543.387 -253.003Z"
        fill="white"/>
</svg>
