<svg width="50" height="50" viewBox="0 0 50 50" fill="none" xmlns="http://www.w3.org/2000/svg">
<path d="M16.75 39.1C14 35.85 12.2 31 12.05 25.6C12.05 25.6 12.05 24.45 12.05 24.4C12.15 19 13.95 14.15 16.75 10.9C20.35 6.25 25.65 3.3 31.6 3.3C35.25 3.3 38.7 4.4 41.6 6.35C37.25 2.45 31.45 0 25.1 0C25.05 0 25.05 0 25 0C11.2 0 0 11.2 0 25C0 38.4 10.55 49.35 23.8 49.95C24.2 49.95 24.6 50 25 50C31.4 50 37.25 47.6 41.65 43.65C38.7 45.6 35.3 46.7 31.65 46.7C25.7 46.7 20.35 43.75 16.75 39.1Z" fill="url(#paint0_linear)"/>
<path d="M16.75 10.9C19.05 8.20005 22 6.55005 25.25 6.55005C32.55 6.55005 38.45 14.8 38.45 25C38.45 35.2 32.55 43.4501 25.25 43.4501C22 43.4501 19.05 41.8 16.75 39.1C20.35 43.75 25.65 46.7001 31.6 46.7001C35.25 46.7001 38.7 45.6001 41.6 43.6501C46.8 39.0501 50 32.4 50 25C50 17.6 46.8 10.95 41.65 6.35005C38.7 4.40005 35.3 3.30005 31.65 3.30005C25.7 3.30005 20.35 6.25005 16.75 10.9Z" fill="url(#paint1_linear)"/>
<defs>
<linearGradient id="paint0_linear" x1="20.8311" y1="0.8152" x2="20.8311" y2="49.2724" gradientUnits="userSpaceOnUse">
<stop offset="0.3" stop-color="#DB413F"/>
<stop offset="0.4728" stop-color="#D23F3C"/>
<stop offset="0.6675" stop-color="#C23937"/>
<stop offset="0.8721" stop-color="#AB322F"/>
<stop offset="1" stop-color="#9A2C29"/>
</linearGradient>
<linearGradient id="paint1_linear" x1="33.3855" y1="3.67135" x2="33.3855" y2="46.5294" gradientUnits="userSpaceOnUse">
<stop stop-color="#8B2825"/>
<stop offset="0.7" stop-color="#DE5A53"/>
</linearGradient>
</defs>
</svg>
