<svg width="72" height="72" viewBox="0 0 72 72" fill="none" xmlns="http://www.w3.org/2000/svg">
<g filter="url(#filter0_d)">
<circle cx="36" cy="32" r="16" fill="white"/>
</g>
<path d="M31.8824 38C30.9673 38 30.2505 37.6281 29.732 36.8843C29.244 36.1405 29 35.0572 29 33.6343C29 31.694 29.4118 30.0124 30.2353 28.5896C31.0588 27.1667 32.2636 25.9702 33.8497 25L34.9477 26.8918C33.7887 27.7002 32.9194 28.5734 32.3399 29.5112C31.7603 30.4167 31.4706 31.5485 31.4706 32.9067C31.5621 32.8744 31.6993 32.8582 31.8824 32.8582C32.4924 32.8582 33.0414 33.0684 33.5294 33.4888C34.0479 33.9092 34.3072 34.5236 34.3072 35.3321C34.3072 36.1729 34.0784 36.8358 33.6209 37.3209C33.1634 37.7736 32.5839 38 31.8824 38ZM39.9346 38C39.0196 38 38.3028 37.6281 37.7843 36.8843C37.2963 36.1405 37.0523 35.0572 37.0523 33.6343C37.0523 31.694 37.4641 30.0124 38.2876 28.5896C39.1111 27.1667 40.3159 25.9702 41.902 25L43 26.8918C41.841 27.7002 40.9717 28.5734 40.3922 29.5112C39.8126 30.4167 39.5229 31.5485 39.5229 32.9067C39.6144 32.8744 39.7516 32.8582 39.9346 32.8582C40.5447 32.8582 41.0937 33.0684 41.5817 33.4888C42.1002 33.9092 42.3595 34.5236 42.3595 35.3321C42.3595 36.1729 42.1307 36.8358 41.6732 37.3209C41.2157 37.7736 40.6362 38 39.9346 38Z" fill="#FF8787"/>
<defs>
<filter id="filter0_d" x="0" y="0" width="72" height="72" filterUnits="userSpaceOnUse" color-interpolation-filters="sRGB">
<feFlood flood-opacity="0" result="BackgroundImageFix"/>
<feColorMatrix in="SourceAlpha" type="matrix" values="0 0 0 0 0 0 0 0 0 0 0 0 0 0 0 0 0 0 127 0"/>
<feOffset dy="4"/>
<feGaussianBlur stdDeviation="10"/>
<feColorMatrix type="matrix" values="0 0 0 0 0 0 0 0 0 0 0 0 0 0 0 0 0 0 0.07 0"/>
<feBlend mode="normal" in2="BackgroundImageFix" result="effect1_dropShadow"/>
<feBlend mode="normal" in="SourceGraphic" in2="effect1_dropShadow" result="shape"/>
</filter>
</defs>
</svg>
