<svg width="50" height="50" viewBox="0 0 50 50" fill="none" xmlns="http://www.w3.org/2000/svg">
<g clip-path="url(#clip0)">
<path opacity="0.53" d="M48.8973 26.921C48.8973 29.9548 48.2767 32.959 47.071 35.7619C45.8653 38.5649 44.0981 41.1117 41.8702 43.257C39.6424 45.4023 36.9975 47.104 34.0867 48.265C31.1759 49.426 28.0561 50.0236 24.9054 50.0236C21.7548 50.0236 18.635 49.426 15.7241 48.265C12.8133 47.104 10.1685 45.4023 7.94063 43.257C5.71278 41.1117 3.94555 38.5649 2.73985 35.7619C1.53414 32.959 0.913574 29.9548 0.913574 26.921C0.913574 20.7938 3.44128 14.9175 7.94063 10.585C12.44 6.25238 18.5424 3.81836 24.9054 3.81836C28.0561 3.81836 31.1759 4.41592 34.0867 5.57694C36.9975 6.73795 39.6424 8.43968 41.8702 10.585C44.0981 12.7302 45.8653 15.277 47.071 18.08C48.2767 20.8829 48.8973 23.8871 48.8973 26.921Z" fill="black"/>
<path d="M49.811 24.8818C49.811 28.1525 49.1668 31.3911 47.9152 34.4128C46.6636 37.4344 44.8291 40.18 42.5164 42.4927C40.2037 44.8054 37.4581 46.6399 34.4364 47.8915C31.4148 49.1432 28.1761 49.7873 24.9055 49.7873C18.3001 49.7873 11.9653 47.1634 7.29465 42.4927C2.62396 37.822 -4.21728e-07 31.4872 0 24.8818C-4.21728e-07 18.2765 2.62396 11.9417 7.29465 7.27098C11.9653 2.60029 18.3001 -0.02368 24.9055 -0.0236816C28.1761 -0.0236818 31.4148 0.620521 34.4364 1.87214C37.4581 3.12376 40.2037 4.95829 42.5164 7.27098C44.8291 9.58367 46.6636 12.3292 47.9152 15.3509C49.1668 18.3726 49.811 21.6112 49.811 24.8818Z" fill="url(#paint0_linear)" stroke="#CDCDCD" stroke-width="0.0930123" stroke-linecap="round" stroke-linejoin="round"/>
<path d="M47.8595 24.8819C47.8595 30.9697 45.4412 36.8081 41.1365 41.1128C36.8318 45.4175 30.9934 47.8359 24.9056 47.8359C18.8178 47.8359 12.9794 45.4175 8.67471 41.1128C4.37001 36.8081 1.95166 30.9697 1.95166 24.8819C1.95166 18.7942 4.37001 12.9557 8.67471 8.65103C12.9794 4.34633 18.8178 1.92798 24.9056 1.92798C30.9934 1.92798 36.8318 4.34633 41.1365 8.65103C45.4412 12.9557 47.8595 18.7942 47.8595 24.8819Z" fill="url(#paint1_radial)"/>
<path d="M24.9053 3.125C24.7199 3.125 24.5706 3.27424 24.5706 3.45965V7.31983C24.5706 7.50524 24.7199 7.65448 24.9053 7.65448C25.0907 7.65448 25.24 7.50524 25.24 7.31983V3.45965C25.24 3.27424 25.0907 3.125 24.9053 3.125ZM22.716 3.26337C22.6938 3.26099 22.671 3.26099 22.6479 3.26365C22.4635 3.28289 22.3306 3.44682 22.3498 3.63123L22.5185 5.24616C22.5377 5.43056 22.7017 5.56354 22.8861 5.54428C23.0705 5.52504 23.2035 5.3611 23.1842 5.17669L23.0156 3.56178C22.9988 3.40042 22.8711 3.27844 22.7159 3.26337H22.716ZM27.11 3.26496C26.9548 3.27991 26.8271 3.40188 26.8101 3.56321L26.6403 5.178C26.6209 5.36239 26.7538 5.52649 26.9382 5.54588C27.1226 5.56528 27.2866 5.43244 27.306 5.24805L27.4758 3.63312C27.4952 3.44873 27.3622 3.28477 27.1778 3.26539C27.1548 3.263 27.1321 3.263 27.11 3.26498V3.26496ZM20.467 3.5895C20.4447 3.58967 20.4221 3.59189 20.3994 3.59666C20.218 3.63506 20.1029 3.81204 20.1413 3.99342L20.9407 7.76982C20.9791 7.9512 21.1561 8.06633 21.3375 8.02793C21.5189 7.98953 21.634 7.8127 21.5956 7.63131L20.7961 3.85477C20.7625 3.69605 20.6229 3.58808 20.467 3.58929L20.467 3.5895ZM29.3588 3.59269C29.2029 3.5911 29.0632 3.69918 29.0295 3.85786L28.2273 7.63382C28.1887 7.81518 28.3038 7.99221 28.4851 8.03074C28.6665 8.0693 28.8435 7.95425 28.882 7.77291L29.6842 3.99694C29.7228 3.81559 29.6077 3.63856 29.4264 3.60004C29.4037 3.59527 29.3811 3.59288 29.3588 3.59288L29.3588 3.59269ZM18.3207 4.19468C18.2773 4.1907 18.2326 4.19548 18.1885 4.21011C18.0122 4.26743 17.9163 4.45538 17.9736 4.63171L18.4754 6.17602C18.5327 6.35235 18.7208 6.44822 18.8971 6.39093C19.0734 6.3336 19.1692 6.14551 19.1119 5.96918L18.6101 4.42489C18.5672 4.29264 18.4506 4.2057 18.3207 4.19465V4.19468ZM31.493 4.19548C31.363 4.20653 31.2465 4.29346 31.2035 4.4257L30.7015 5.96986C30.6441 6.14618 30.74 6.33429 30.9162 6.39161C31.0926 6.44893 31.2807 6.35313 31.338 6.17684L31.8401 4.63253C31.8974 4.45621 31.8016 4.2681 31.6253 4.21079C31.5813 4.19648 31.5363 4.19178 31.493 4.19544V4.19548ZM16.1982 4.97139C16.1547 4.97218 16.1107 4.98172 16.0683 5.00056C15.899 5.07585 15.8232 5.27282 15.8985 5.44224L17.4663 8.96963C17.5416 9.13904 17.7386 9.2148 17.908 9.13949C18.0773 9.0642 18.1533 8.86723 18.078 8.69781L16.51 5.17042C16.4536 5.04334 16.3286 4.96886 16.1982 4.97139ZM33.6394 4.98323C33.509 4.98084 33.384 5.05486 33.3273 5.18182L31.7547 8.70705C31.6792 8.87637 31.7547 9.07348 31.924 9.14902C32.0933 9.22455 32.2904 9.14907 32.366 8.97975L33.9386 5.45453C34.0141 5.28521 33.9386 5.08809 33.7693 5.01255C33.727 4.99371 33.6829 4.98417 33.6394 4.98321V4.98323ZM14.2281 6.01378C14.1638 6.00901 14.0976 6.02331 14.0374 6.05813C13.8769 6.15084 13.8223 6.35472 13.9149 6.51528L14.7268 7.9215C14.8195 8.08207 15.0234 8.13667 15.184 8.04397C15.3445 7.95127 15.3992 7.74741 15.3065 7.58684L14.4946 6.18063C14.4366 6.08026 14.3352 6.02128 14.2281 6.01379V6.01378ZM35.5825 6.01378C35.4754 6.02093 35.3741 6.08024 35.3162 6.1806L34.5042 7.58681C34.4114 7.74738 34.4662 7.95124 34.6268 8.04395C34.7874 8.13665 34.9912 8.08204 35.0839 7.92148L35.8958 6.51525C35.9885 6.35469 35.9339 6.15081 35.7733 6.05811C35.7131 6.02336 35.6468 6.0093 35.5825 6.01375V6.01378ZM12.315 7.20694C12.2506 7.20933 12.1862 7.23001 12.1299 7.27079C11.9798 7.37966 11.9466 7.58811 12.0555 7.73819L14.3222 10.8627C14.431 11.0128 14.6396 11.046 14.7897 10.9372C14.9398 10.8283 14.973 10.6198 14.864 10.4698L12.5973 7.34521C12.5292 7.25141 12.4223 7.20331 12.315 7.20698V7.20694ZM37.5195 7.22396C37.4123 7.21999 37.3053 7.26809 37.2372 7.36176L34.9662 10.4833C34.8571 10.6332 34.8901 10.8417 35.04 10.9508C35.1899 11.0599 35.3985 11.0271 35.5075 10.8772L37.7784 7.75567C37.8874 7.60574 37.8544 7.3972 37.7046 7.28813C37.6484 7.24726 37.5839 7.22627 37.5195 7.22396ZM10.6051 8.64101C10.5197 8.63624 10.4325 8.66478 10.3636 8.7268C10.2258 8.85085 10.2147 9.06161 10.3388 9.19941L11.4252 10.4063C11.5493 10.5441 11.76 10.5552 11.8978 10.4311C12.0356 10.3071 12.0467 10.0962 11.9226 9.95837L10.8363 8.75161C10.7743 8.68268 10.6905 8.64546 10.6051 8.64097V8.64101ZM39.208 8.6434C39.1226 8.64817 39.0388 8.68513 38.9767 8.75403L37.8903 9.96065C37.7662 10.0984 37.7772 10.3093 37.915 10.4334C38.0528 10.5574 38.2636 10.5463 38.3876 10.4086L39.4742 9.20197C39.5983 9.06417 39.5871 8.85328 39.4494 8.72923C39.3805 8.66721 39.2935 8.63896 39.2081 8.64343L39.208 8.6434ZM8.96618 10.2153C8.88075 10.22 8.7971 10.257 8.73507 10.3259C8.61103 10.4637 8.62213 10.6745 8.75989 10.7985L11.6288 13.3811C11.7666 13.5052 11.9773 13.4941 12.1014 13.3563C12.2254 13.2186 12.2145 13.0078 12.0767 12.8837L9.2076 10.3011C9.13867 10.2391 9.05155 10.2108 8.96611 10.2153L8.96618 10.2153ZM40.8548 10.2266C40.7694 10.2218 40.6821 10.2503 40.6132 10.3122L37.7425 12.8928C37.6047 13.0168 37.5933 13.2275 37.7173 13.3654C37.8412 13.5033 38.0521 13.5145 38.19 13.3906L41.0608 10.8099C41.1987 10.686 41.2099 10.4752 41.0859 10.3373C41.0239 10.2684 40.9402 10.2311 40.8548 10.2266H40.8548ZM7.60328 11.9677C7.496 11.9638 7.38903 12.0121 7.32093 12.1058C7.21195 12.2558 7.245 12.4642 7.39503 12.5732L8.70865 13.5276C8.85865 13.6366 9.06706 13.6037 9.17604 13.4537C9.28502 13.3037 9.25205 13.0951 9.10211 12.9862L7.78846 12.0317C7.73225 11.9909 7.66767 11.97 7.60331 11.9677L7.60328 11.9677ZM42.2164 11.9799C42.152 11.9823 42.0875 12.0029 42.0313 12.0437L40.717 12.9973C40.567 13.1062 40.5338 13.3148 40.6426 13.4649C40.7515 13.6149 40.9599 13.648 41.11 13.5391L42.4244 12.5855C42.5745 12.4767 42.6075 12.2682 42.4987 12.1182C42.4306 12.0244 42.3237 11.9763 42.2164 11.9799V11.9799ZM6.32967 13.8371C6.22258 13.8442 6.12128 13.9035 6.06333 14.0039C5.97063 14.1644 6.02525 14.3683 6.18581 14.461L9.52875 16.3911C9.68932 16.4838 9.8932 16.4292 9.9859 16.2686C10.0786 16.108 10.024 15.9042 9.86342 15.8115L6.52045 13.8814C6.46027 13.8466 6.39392 13.8326 6.32967 13.837V13.8371ZM43.4809 13.8371C43.4167 13.8323 43.3504 13.8466 43.2902 13.8814L39.9472 15.8115C39.7867 15.9042 39.732 16.1081 39.8247 16.2686C39.9174 16.4292 40.1213 16.4838 40.2819 16.3911L43.625 14.461C43.7855 14.3683 43.8401 14.1645 43.7474 14.0039C43.6895 13.9035 43.588 13.8446 43.4809 13.8371V13.8371ZM5.3667 15.8295C5.23629 15.8263 5.11123 15.901 5.05458 16.028C4.97905 16.1973 5.05453 16.3944 5.22387 16.47L6.70692 17.1315C6.87625 17.207 7.07338 17.1315 7.1489 16.9622C7.22443 16.7929 7.14879 16.5957 6.97947 16.5202L5.49656 15.8587C5.45426 15.8398 5.41017 15.8304 5.3667 15.8295ZM44.4504 15.8433C44.4069 15.8441 44.3628 15.8536 44.3204 15.8725L42.8371 16.5328C42.6677 16.6083 42.5919 16.8053 42.6673 16.9746C42.7428 17.144 42.9399 17.2198 43.1093 17.1444L44.5927 16.4839C44.762 16.4085 44.8376 16.2114 44.7622 16.042C44.7057 15.915 44.5808 15.8407 44.4504 15.8433ZM4.50848 17.912C4.3785 17.9229 4.26198 18.0098 4.2189 18.142C4.1615 18.3183 4.25704 18.5064 4.43336 18.5639L8.10362 19.7598C8.27989 19.8172 8.46807 19.7215 8.52551 19.5453C8.58291 19.369 8.48734 19.1808 8.31102 19.1234L4.64079 17.9275C4.59674 17.9131 4.55181 17.9084 4.50848 17.9121V17.912ZM45.307 17.9263C45.2637 17.9224 45.219 17.9271 45.1749 17.9418L41.5038 19.1351C41.3275 19.1924 41.2317 19.3805 41.289 19.5568C41.3463 19.7332 41.5344 19.8289 41.7108 19.7716L45.3817 18.5783C45.558 18.521 45.6539 18.3329 45.5966 18.1565C45.5536 18.0243 45.437 17.9374 45.307 17.9263V17.9263ZM3.97379 20.0981C3.81788 20.0965 3.67804 20.2047 3.64432 20.3634C3.60576 20.5447 3.72081 20.7218 3.90214 20.7603L5.4905 21.0979C5.67185 21.1364 5.84884 21.0214 5.8874 20.84C5.92596 20.6587 5.81093 20.4817 5.6296 20.4431L4.04139 20.1056C4.01873 20.1008 3.99605 20.0984 3.97379 20.0984V20.0981ZM45.8375 20.1013C45.8153 20.1014 45.7928 20.1044 45.7701 20.1084L44.1818 20.4458C44.0004 20.4844 43.8854 20.6612 43.924 20.8426C43.9625 21.0239 44.1395 21.1391 44.3209 21.1005L45.9091 20.7631C46.0904 20.7246 46.2056 20.5476 46.167 20.3662C46.1333 20.2075 45.9935 20.0996 45.8376 20.1009L45.8375 20.1013ZM3.56908 22.297C3.41388 22.3118 3.28613 22.4336 3.26908 22.5949C3.2496 22.7793 3.38225 22.9435 3.56663 22.9629L7.40541 23.3688C7.58979 23.3883 7.75396 23.2555 7.77344 23.0711C7.79292 22.8868 7.66014 22.7226 7.47575 22.7031L3.63697 22.2972C3.61391 22.2949 3.59126 22.2949 3.56908 22.297V22.297ZM46.2451 22.3258C46.223 22.3234 46.2001 22.3234 46.1771 22.3261L42.3379 22.7268C42.1535 22.746 42.0205 22.9099 42.0397 23.0943C42.059 23.2788 42.2229 23.4117 42.4073 23.3925L46.2466 22.9918C46.431 22.9726 46.5639 22.8086 46.5447 22.6242C46.5278 22.4629 46.4003 22.3409 46.2451 22.3258L46.2451 22.3258ZM3.50407 24.5478C3.31867 24.5478 3.16943 24.6971 3.16943 24.8825C3.16943 25.0679 3.31867 25.2171 3.50407 25.2171H5.12783C5.31323 25.2171 5.46262 25.0679 5.46262 24.8825C5.46262 24.6971 5.31323 24.5478 5.12783 24.5478H3.50407ZM44.6828 24.5478C44.4974 24.5478 44.3481 24.6971 44.3481 24.8825C44.3481 25.0679 44.4974 25.2171 44.6828 25.2171H46.3065C46.4919 25.2171 46.6412 25.0679 46.6412 24.8825C46.6412 24.6971 46.4919 24.5478 46.3065 24.5478H44.6828ZM7.47129 26.3722C7.44911 26.3698 7.42643 26.3698 7.40338 26.3724L3.56401 26.7731C3.3796 26.7923 3.24668 26.9563 3.2659 27.1407C3.28515 27.3251 3.44907 27.4581 3.63347 27.4388L7.47287 27.0381C7.65727 27.0189 7.79019 26.855 7.77097 26.6706C7.75411 26.5092 7.62644 26.3872 7.47126 26.3722H7.47129ZM42.3373 26.3959C42.1821 26.4107 42.0544 26.5325 42.0373 26.6938C42.0178 26.8782 42.1505 27.0424 42.3349 27.0619L46.1737 27.4677C46.3581 27.4872 46.5222 27.3544 46.5417 27.17C46.5611 26.9857 46.4284 26.8215 46.244 26.802L42.4053 26.3962C42.3823 26.3938 42.3595 26.3938 42.3373 26.3959L42.3373 26.3959ZM5.55751 28.6567C5.53525 28.6569 5.5126 28.6591 5.48994 28.6639L3.90158 29.0013C3.72022 29.0398 3.60525 29.2168 3.64376 29.3982C3.68232 29.5795 3.85932 29.6945 4.04068 29.656L5.62904 29.3187C5.81039 29.2802 5.92536 29.1032 5.88684 28.9218C5.85313 28.7631 5.71344 28.6552 5.55754 28.6565L5.55751 28.6567ZM44.2527 28.6599C44.0968 28.6583 43.9571 28.7664 43.9234 28.9251C43.8848 29.1064 43.9997 29.2834 44.181 29.322L45.7694 29.6595C45.9507 29.6981 46.1277 29.5832 46.1663 29.4018C46.2048 29.2205 46.0898 29.0433 45.9085 29.0048L44.3203 28.6672C44.2976 28.6625 44.2749 28.6601 44.2527 28.6601L44.2527 28.6599ZM8.23216 29.978C8.18883 29.974 8.14409 29.9788 8.1 29.9934L4.4289 31.1867C4.25257 31.2441 4.1568 31.4322 4.21412 31.6085C4.27144 31.7848 4.45954 31.8806 4.63587 31.8233L8.30685 30.6299C8.48318 30.5726 8.57906 30.3845 8.52175 30.2082C8.47874 30.0759 8.36214 29.989 8.23216 29.978V29.978ZM41.5749 29.9898C41.4449 30.0007 41.3283 30.0876 41.2852 30.2198C41.2278 30.3961 41.3234 30.5842 41.4997 30.6417L45.17 31.8376C45.3463 31.895 45.5344 31.7994 45.5919 31.6231C45.6494 31.4468 45.5537 31.2587 45.3774 31.2012L41.7071 30.0053C41.6631 29.9909 41.6182 29.9862 41.5749 29.9899V29.9898ZM6.83129 32.5917C6.7878 32.5925 6.74378 32.6019 6.70143 32.6207L5.21795 33.2812C5.04856 33.3566 4.97296 33.5537 5.04837 33.723C5.12382 33.8924 5.32083 33.968 5.4902 33.8926L6.97369 33.2322C7.14307 33.1569 7.21868 32.9598 7.14327 32.7904C7.08674 32.6634 6.96171 32.5891 6.83129 32.5917V32.5917ZM42.974 32.6044C42.8436 32.6012 42.7185 32.6759 42.6619 32.8029C42.5863 32.9722 42.6618 33.1693 42.8311 33.2448L44.314 33.9064C44.4834 33.9819 44.6805 33.9064 44.756 33.7371C44.8316 33.5677 44.7561 33.3706 44.5867 33.2951L43.1038 32.6336C43.0615 32.6147 43.0175 32.6053 42.974 32.6044V32.6044ZM9.71956 33.3296C9.65532 33.3249 9.58897 33.3392 9.52875 33.374L6.18581 35.3041C6.02525 35.3968 5.97063 35.6006 6.06333 35.7612C6.15604 35.9218 6.35989 35.9764 6.52045 35.8837L9.86342 33.9538C10.024 33.861 10.0786 33.657 9.9859 33.4965C9.92794 33.3961 9.82665 33.3371 9.71956 33.3297V33.3296ZM40.0912 33.3296C39.9841 33.3368 39.8827 33.3961 39.8247 33.4965C39.732 33.657 39.7867 33.861 39.9472 33.9537L43.2902 35.8837C43.4507 35.9764 43.6547 35.9217 43.7474 35.7612C43.8401 35.6006 43.7855 35.3968 43.625 35.3041L40.2819 33.374C40.2217 33.3392 40.1554 33.3251 40.0912 33.3296V33.3296ZM8.88572 36.162C8.82132 36.1644 8.75685 36.1851 8.70057 36.226L7.38634 37.1796C7.23627 37.2884 7.20308 37.4969 7.31193 37.6469C7.42081 37.797 7.62927 37.8302 7.77934 37.7213L9.09369 36.7677C9.24377 36.6589 9.27695 36.4504 9.1681 36.3003C9.10004 36.2065 8.99301 36.1583 8.88572 36.162V36.162ZM40.917 36.1733C40.8097 36.1693 40.7027 36.2176 40.6346 36.3114C40.5256 36.4613 40.5586 36.6699 40.7087 36.7789L42.0223 37.7333C42.1723 37.8423 42.3807 37.8093 42.4897 37.6592C42.5987 37.5092 42.5657 37.3008 42.4158 37.1918L41.1021 36.2374C41.0459 36.1965 40.9813 36.1755 40.917 36.1732L40.917 36.1733ZM11.8622 36.2888C11.7768 36.2841 11.6897 36.3125 11.6207 36.3745L8.74997 38.9551C8.61209 39.079 8.60087 39.2898 8.72483 39.4277C8.84878 39.5656 9.05955 39.5768 9.19744 39.4528L12.0682 36.8722C12.2061 36.7483 12.2173 36.5375 12.0933 36.3996C12.0314 36.3307 11.9477 36.2934 11.8622 36.2888ZM37.9404 36.298C37.855 36.3028 37.7712 36.3398 37.7092 36.4087C37.5851 36.5465 37.5962 36.7572 37.734 36.8813L40.6029 39.4639C40.7407 39.588 40.9516 39.5769 41.0756 39.4391C41.1997 39.3013 41.1886 39.0906 41.0508 38.9665L38.1818 36.3839C38.1128 36.3219 38.0258 36.2936 37.9404 36.2981V36.298ZM14.5857 38.7497C14.4784 38.7457 14.3714 38.7937 14.3032 38.8875L12.0324 42.009C11.9233 42.1589 11.9561 42.3675 12.106 42.4765C12.2559 42.5856 12.4645 42.5528 12.5735 42.4028L14.8444 39.2813C14.9534 39.1314 14.9206 38.9229 14.7707 38.8138C14.7145 38.7729 14.6501 38.7519 14.5857 38.7497ZM35.2063 38.7637C35.1419 38.7661 35.0774 38.7867 35.0211 38.8275C34.871 38.9364 34.8378 39.1448 34.9467 39.2949L37.2133 42.4195C37.3222 42.5696 37.5306 42.6027 37.6807 42.4939C37.8308 42.385 37.8639 42.1766 37.7551 42.0265L35.4885 38.902C35.4204 38.8082 35.3135 38.7601 35.2063 38.7637V38.7637ZM11.6543 39.2458C11.5688 39.2506 11.4851 39.2876 11.423 39.3565L10.3366 40.5631C10.2125 40.7008 10.2235 40.9117 10.3613 41.0358C10.4991 41.1599 10.7098 41.1487 10.8339 41.0109L11.9205 39.8043C12.0445 39.6665 12.0334 39.4556 11.8957 39.3316C11.8267 39.2696 11.7397 39.2413 11.6543 39.2458L11.6543 39.2458ZM38.1543 39.2474C38.0689 39.2426 37.9819 39.2712 37.913 39.3332C37.7752 39.4572 37.7641 39.668 37.8881 39.8058L38.9744 41.0127C39.0984 41.1505 39.3092 41.1616 39.447 41.0375C39.5848 40.9135 39.5959 40.7026 39.4718 40.5648L38.3855 39.358C38.3235 39.2891 38.2397 39.2519 38.1543 39.2474L38.1543 39.2474ZM17.7568 40.586C17.6264 40.5828 17.5015 40.6575 17.4448 40.7845L15.8721 44.3097C15.7965 44.479 15.872 44.6761 16.0413 44.7517C16.2107 44.8272 16.4078 44.7517 16.4833 44.5824L18.0561 41.0572C18.1316 40.8879 18.0561 40.6907 17.8868 40.6152C17.8445 40.5963 17.8003 40.5869 17.7568 40.586ZM32.0326 40.5957C31.9891 40.5965 31.945 40.6059 31.9026 40.6247C31.7333 40.7 31.6574 40.897 31.7328 41.0664L33.3006 44.5938C33.3759 44.7631 33.573 44.839 33.7424 44.7637C33.9117 44.6884 33.9876 44.4914 33.9123 44.322L32.3444 40.7946C32.288 40.6676 32.163 40.5932 32.0326 40.5957ZM14.9932 41.6759C14.8861 41.6831 14.7848 41.7424 14.7268 41.8428L13.9149 43.249C13.8223 43.4096 13.8769 43.6134 14.0374 43.7061C14.198 43.7988 14.4019 43.7442 14.4946 43.5836L15.3065 42.1774C15.3992 42.0169 15.3445 41.813 15.184 41.7203C15.1238 41.6855 15.0574 41.6715 14.9932 41.6759V41.6759ZM34.8174 41.6759C34.7532 41.6712 34.687 41.6856 34.6268 41.7203C34.4662 41.813 34.4116 42.0169 34.5043 42.1775L35.3162 43.5837C35.4089 43.7442 35.6128 43.7989 35.7733 43.7062C35.9339 43.6134 35.9885 43.4096 35.8958 43.249L35.0839 41.8428C35.026 41.7424 34.9245 41.6835 34.8174 41.676V41.6759ZM21.258 41.7264C21.1021 41.7248 20.9624 41.8328 20.9287 41.9915L20.1265 45.7675C20.088 45.9489 20.203 46.1259 20.3843 46.1644C20.5657 46.203 20.7427 46.0879 20.7813 45.9066L21.5834 42.1306C21.622 41.9493 21.507 41.7723 21.3256 41.7337C21.303 41.729 21.2803 41.7266 21.2581 41.7266L21.258 41.7264ZM28.5407 41.7287C28.5185 41.7289 28.496 41.7311 28.4733 41.7359C28.2919 41.7743 28.1768 41.9511 28.2152 42.1325L29.0147 45.9091C29.0531 46.0904 29.23 46.2056 29.4114 46.1672C29.5928 46.1288 29.7079 45.9518 29.6695 45.7704L28.8699 41.9941C28.8363 41.8354 28.6967 41.7274 28.5408 41.7286L28.5407 41.7287ZM24.9053 42.1096C24.7199 42.1096 24.5706 42.2589 24.5706 42.4443V46.3044C24.5706 46.4898 24.7199 46.6391 24.9053 46.6391C25.0907 46.6391 25.24 46.4898 25.24 46.3044V42.4443C25.24 42.2589 25.0907 42.1096 24.9053 42.1096ZM18.7622 43.357C18.6322 43.368 18.5156 43.4549 18.4726 43.5872L17.9707 45.1315C17.9134 45.3078 18.0092 45.4959 18.1855 45.5532C18.3618 45.6106 18.5499 45.5146 18.6072 45.3383L19.1091 43.7942C19.1665 43.6178 19.0706 43.4297 18.8944 43.3724C18.8503 43.3581 18.8055 43.3533 18.7622 43.357V43.357ZM31.0458 43.3578C31.0025 43.3538 30.9578 43.3586 30.9137 43.3731C30.7373 43.4304 30.6414 43.6185 30.6987 43.7949L31.2005 45.3392C31.2578 45.5155 31.4459 45.6112 31.6223 45.5539C31.7986 45.4966 31.8945 45.3087 31.8372 45.1323L31.3353 43.588C31.2923 43.4558 31.1758 43.3688 31.0458 43.3578V43.3578ZM22.8046 44.2179C22.6495 44.2328 22.5216 44.3546 22.5047 44.516L22.3349 46.1309C22.3155 46.3153 22.4484 46.4792 22.6328 46.4986C22.8172 46.518 22.9813 46.3852 23.0007 46.2008L23.1703 44.586C23.1897 44.4016 23.0569 44.2375 22.8725 44.2181C22.8495 44.2158 22.8268 44.2158 22.8046 44.2179L22.8046 44.2179ZM26.9925 44.2195C26.9704 44.2171 26.9475 44.2171 26.9245 44.2197C26.7401 44.239 26.6071 44.4029 26.6264 44.5873L26.7951 46.2024C26.8143 46.3868 26.9782 46.5196 27.1627 46.5004C27.347 46.4811 27.48 46.3172 27.4608 46.1328L27.2922 44.5178C27.2754 44.3565 27.1477 44.2345 26.9925 44.2194L26.9925 44.2195Z" fill="#F4F2F3"/>
<g opacity="0.409" filter="url(#filter0_f)">
<path d="M40.5915 11.4958L22.2816 22.1339L10.7048 40.3591L27.6407 27.8148L40.5915 11.4958Z" fill="black"/>
</g>
<path d="M27.5293 27.6299L22.2812 22.1338L40.8984 9.60997L27.5293 27.6299Z" fill="#FF5150"/>
<path d="M27.5296 27.63L22.2814 22.134L8.91231 40.1539L27.5296 27.63Z" fill="#F1F1F1"/>
<path opacity="0.243" d="M8.91235 40.1539L27.5296 27.63L40.8987 9.61011L8.91235 40.1539Z" fill="black"/>
</g>
<defs>
<filter id="filter0_f" x="8.78949" y="9.5805" width="33.7173" height="32.6939" filterUnits="userSpaceOnUse" color-interpolation-filters="sRGB">
<feFlood flood-opacity="0" result="BackgroundImageFix"/>
<feBlend mode="normal" in="SourceGraphic" in2="BackgroundImageFix" result="shape"/>
<feGaussianBlur stdDeviation="0.957674" result="effect1_foregroundBlur"/>
</filter>
<linearGradient id="paint0_linear" x1="24.9055" y1="49.7873" x2="24.9055" y2="-0.0236816" gradientUnits="userSpaceOnUse">
<stop stop-color="#BDBDBD"/>
<stop offset="1" stop-color="white"/>
</linearGradient>
<radialGradient id="paint1_radial" cx="0" cy="0" r="1" gradientUnits="userSpaceOnUse" gradientTransform="translate(25.0101 21.5353) scale(24.9056)">
<stop stop-color="#06C2E7"/>
<stop offset="0.25" stop-color="#0DB8EC"/>
<stop offset="0.5" stop-color="#12AEF1"/>
<stop offset="0.75" stop-color="#1F86F9"/>
<stop offset="1" stop-color="#107DDD"/>
</radialGradient>
<clipPath id="clip0">
<rect width="50" height="50" fill="white"/>
</clipPath>
</defs>
</svg>
