<svg width="29" height="29" viewBox="0 0 29 29" fill="none" xmlns="http://www.w3.org/2000/svg">
  <title>[icon] Search - Grey Color</title>
  <path
    d="M24.7144 22.1558L20.6248 18.067C20.4403 17.8824 20.1901 17.7799 19.9275 17.7799H19.2589C20.391 16.3322 21.0637 14.5113 21.0637 12.5304C21.0637 7.81818 17.2449 4 12.5319 4C7.81883 4 4 7.81818 4 12.5304C4 17.2427 7.81883 21.0608 12.5319 21.0608C14.5131 21.0608 16.3343 20.3882 17.7823 19.2563V19.9248C17.7823 20.1873 17.8848 20.4375 18.0694 20.622L22.1589 24.7109C22.5445 25.0964 23.168 25.0964 23.5495 24.7109L24.7103 23.5502C25.0959 23.1647 25.0959 22.5414 24.7144 22.1558ZM12.5319 17.7799C9.63186 17.7799 7.28149 15.434 7.28149 12.5304C7.28149 9.6309 9.62776 7.28093 12.5319 7.28093C15.4319 7.28093 17.7823 9.62679 17.7823 12.5304C17.7823 15.4299 15.436 17.7799 12.5319 17.7799Z"
    fill="#CFD4DE"/>
</svg>
