<svg width="123" height="19" viewBox="0 0 123 19" fill="none" xmlns="http://www.w3.org/2000/svg">
<path d="M9.5 0L11.6329 6.56434H18.535L12.9511 10.6213L15.084 17.1857L9.5 13.1287L3.91604 17.1857L6.04892 10.6213L0.464963 6.56434H7.36712L9.5 0Z" fill="#FFE607"/>
<path d="M35.5 0L37.6329 6.56434H44.535L38.9511 10.6213L41.084 17.1857L35.5 13.1287L29.916 17.1857L32.0489 10.6213L26.465 6.56434H33.3671L35.5 0Z" fill="#FFE607"/>
<path d="M61.5 0L63.6329 6.56434H70.535L64.9511 10.6213L67.084 17.1857L61.5 13.1287L55.916 17.1857L58.0489 10.6213L52.465 6.56434H59.3671L61.5 0Z" fill="#FFE607"/>
<path d="M87.5 0L89.6329 6.56434H96.535L90.9511 10.6213L93.084 17.1857L87.5 13.1287L81.916 17.1857L84.0489 10.6213L78.465 6.56434H85.3671L87.5 0Z" fill="#FFE607"/>
<path d="M113.5 0L115.633 6.56434H122.535L116.951 10.6213L119.084 17.1857L113.5 13.1287L107.916 17.1857L110.049 10.6213L104.465 6.56434H111.367L113.5 0Z" fill="#FFE607"/>
</svg>
