<svg width="331" height="234" viewBox="0 0 331 234" fill="none" xmlns="http://www.w3.org/2000/svg">
<g opacity="0.14">
<g filter="url(#filter0_d)">
<path d="M325.379 202.478C314.117 184.894 313.217 138.506 298.626 138.053C277.891 136.018 287.26 31.5744 242.889 27.6106C197.491 23.8288 194.526 144.882 160.4 147.256C126.937 149.3 113.554 -12.8795 73.4512 51.7699C32.7235 115.631 30.7655 37.4227 20.6007 29.8869C10.4359 22.3511 6.56766 41.6824 6.56766 41.4159" stroke="#534582" stroke-width="1.24699"/>
</g>
<path fill-rule="evenodd" clip-rule="evenodd" d="M7.2125 43.7168C8.48325 43.7168 9.51339 42.6866 9.51339 41.4159C9.51339 40.1451 8.48325 39.115 7.2125 39.115C5.94176 39.115 4.91162 40.1451 4.91162 41.4159C4.91162 42.6866 5.94176 43.7168 7.2125 43.7168Z" fill="#534582"/>
<path fill-rule="evenodd" clip-rule="evenodd" d="M72.631 56.3717C73.9017 56.3717 74.9318 55.3415 74.9318 54.0708C74.9318 52.8 73.9017 51.7699 72.631 51.7699C71.3602 51.7699 70.3301 52.8 70.3301 54.0708C70.3301 55.3415 71.3602 56.3717 72.631 56.3717Z" fill="#534582"/>
<path fill-rule="evenodd" clip-rule="evenodd" d="M122.316 83.9821C123.586 83.9821 124.616 82.952 124.616 81.6813C124.616 80.4105 123.586 79.3804 122.316 79.3804C121.045 79.3804 120.015 80.4105 120.015 81.6813C120.015 82.952 121.045 83.9821 122.316 83.9821Z" fill="#534582"/>
<path fill-rule="evenodd" clip-rule="evenodd" d="M181.109 130C182.38 130 183.41 128.97 183.41 127.699C183.41 126.428 182.38 125.398 181.109 125.398C179.839 125.398 178.809 126.428 178.809 127.699C178.809 128.97 179.839 130 181.109 130Z" fill="#534582"/>
<path fill-rule="evenodd" clip-rule="evenodd" d="M238.247 29.9115C239.518 29.9115 240.548 28.8813 240.548 27.6106C240.548 26.3398 239.518 25.3097 238.247 25.3097C236.976 25.3097 235.946 26.3398 235.946 27.6106C235.946 28.8813 236.976 29.9115 238.247 29.9115Z" fill="#534582"/>
<path fill-rule="evenodd" clip-rule="evenodd" d="M281.307 88.5839C282.578 88.5839 283.608 87.5538 283.608 86.2831C283.608 85.0123 282.578 83.9822 281.307 83.9822C280.036 83.9822 279.006 85.0123 279.006 86.2831C279.006 87.5538 280.036 88.5839 281.307 88.5839Z" fill="#534582"/>
<path fill-rule="evenodd" clip-rule="evenodd" d="M326.024 203.628C327.294 203.628 328.324 202.598 328.324 201.327C328.324 200.057 327.294 199.026 326.024 199.026C324.753 199.026 323.723 200.057 323.723 201.327C323.723 202.598 324.753 203.628 326.024 203.628Z" fill="#534582"/>
<rect x="33.0278" y="64.4247" width="11.9838" height="72.4778" fill="#F28080"/>
<rect width="11.9838" height="95.4866" transform="matrix(1 0 0 -1 87.8599 233.54)" fill="#F28080"/>
<rect x="142.692" y="138.053" width="11.9838" height="72.4778" fill="#F28080"/>
<rect x="196.374" y="21.8584" width="11.9838" height="115.044" fill="#F28080"/>
<rect x="250.056" y="138.053" width="11.9838" height="44.8672" fill="#F28080"/>
<rect x="304.888" y="92.0353" width="11.9838" height="44.8672" fill="#F28080"/>
<rect x="12.7734" y="41.4159" width="11.9838" height="95.4866" fill="#545FEF"/>
<rect x="67.606" y="79.3804" width="11.9838" height="57.5221" fill="#545FEF"/>
<rect width="11.9838" height="79.3804" transform="matrix(1 0 0 -1 122.438 217.433)" fill="#545FEF"/>
<rect x="176.12" width="11.9838" height="136.903" fill="#545FEF"/>
<rect x="229.802" y="8.0531" width="11.9838" height="128.849" fill="#545FEF"/>
<rect x="284.634" y="138.053" width="11.9838" height="29.9115" fill="#545FEF"/>
</g>
<defs>
<filter id="filter0_d" x="0.944336" y="16.9001" width="329.96" height="185.914" filterUnits="userSpaceOnUse" color-interpolation-filters="sRGB">
<feFlood flood-opacity="0" result="BackgroundImageFix"/>
<feColorMatrix in="SourceAlpha" type="matrix" values="0 0 0 0 0 0 0 0 0 0 0 0 0 0 0 0 0 0 127 0"/>
<feOffset dy="-5"/>
<feGaussianBlur stdDeviation="2.5"/>
<feColorMatrix type="matrix" values="0 0 0 0 0.32549 0 0 0 0 0.270588 0 0 0 0 0.509804 0 0 0 0.35 0"/>
<feBlend mode="normal" in2="BackgroundImageFix" result="effect1_dropShadow"/>
<feBlend mode="normal" in="SourceGraphic" in2="effect1_dropShadow" result="shape"/>
</filter>
</defs>
</svg>
