<?xml version="1.0" standalone="no"?>
<!DOCTYPE svg PUBLIC "-//W3C//DTD SVG 20010904//EN"
 "http://www.w3.org/TR/2001/REC-SVG-20010904/DTD/svg10.dtd">
<svg version="1.0" xmlns="http://www.w3.org/2000/svg"
 width="512.000000pt" height="512.000000pt" viewBox="0 0 512.000000 512.000000"
 preserveAspectRatio="xMidYMid meet">
<metadata>
Created by potrace 1.11, written by Peter Selinger 2001-2013
</metadata>
<g transform="translate(0.000000,512.000000) scale(0.100000,-0.100000)"
fill="#000000" stroke="none">
<path d="M2309 4542 c-14 -9 -308 -278 -653 -597 l-628 -580 -222 -5 c-252 -6
-278 -12 -356 -90 -76 -76 -85 -109 -85 -310 0 -200 9 -234 83 -308 51 -51 88
-70 165 -86 l61 -12 163 -735 c116 -522 171 -749 189 -787 36 -74 131 -172
202 -210 122 -65 59 -62 1342 -62 1282 0 1221 -3 1341 61 70 38 167 136 203
206 19 38 69 247 186 775 88 398 163 730 166 739 2 10 25 21 58 28 106 24 192
105 222 209 12 41 15 89 12 205 -4 175 -16 215 -88 287 -78 78 -104 84 -356
90 l-222 5 -628 580 c-345 319 -639 588 -653 597 -41 28 -78 23 -117 -16 -44
-44 -45 -82 -3 -130 16 -19 273 -259 570 -533 l540 -498 -621 -3 c-341 -1
-899 -1 -1240 0 l-621 3 540 498 c297 274 554 514 570 533 42 48 41 86 -3 130
-39 39 -76 44 -117 16z m2196 -1394 c45 -20 55 -55 55 -188 0 -128 -11 -169
-49 -190 -13 -7 -644 -10 -1946 -10 -2095 0 -1967 -4 -1993 55 -7 15 -12 74
-12 146 0 125 10 167 47 188 28 16 3864 15 3898 -1z m-396 -1298 c-87 -390
-163 -719 -170 -731 -21 -40 -92 -110 -134 -132 l-40 -22 -1174 -3 c-1313 -3
-1228 -7 -1315 69 -24 22 -54 54 -65 72 -13 22 -72 269 -176 732 -85 385 -155
705 -155 712 0 11 332 13 1693 13 l1694 0 -158 -710z"/>
<path d="M2190 2351 c-93 -20 -169 -88 -195 -175 -35 -118 -7 -244 70 -315
141 -130 363 -64 426 127 28 86 -9 240 -73 299 -51 48 -159 78 -228 64z m112
-172 c37 -50 36 -176 -3 -218 -26 -28 -91 -29 -118 -2 -40 40 -39 175 1 226
28 36 92 33 120 -6z"/>
<path d="M2869 2314 c-13 -14 -206 -267 -429 -562 l-405 -537 85 -3 c47 -2 94
-1 106 2 13 4 180 217 443 566 l422 560 -99 0 c-93 0 -100 -1 -123 -26z"/>
<path d="M2833 1749 c-126 -23 -202 -114 -211 -255 -8 -124 44 -225 142 -277
62 -33 164 -30 234 6 60 31 114 99 133 165 26 95 -8 239 -73 299 -52 49 -150
76 -225 62z m89 -150 c58 -31 65 -219 8 -249 -31 -17 -88 -12 -109 9 -39 39
-39 175 0 225 22 28 65 34 101 15z"/>
</g>
</svg>
