<svg width="243" height="38" viewBox="0 0 243 38" fill="none" xmlns="http://www.w3.org/2000/svg">
<path d="M57.2825 9.79569V26.5396H61.6478V20.1143H68.3986V26.5396H72.764V9.79569H68.3986V16.627H61.6478V9.79569H57.2825Z" fill="black"/>
<path d="M76.1312 8.81637V26.5396H80.3773V8.81637H76.1312Z" fill="black"/>
<path d="M86.2984 8.14757L83.7459 12.2559H86.9663L90.0912 9.48517L86.2984 8.14757ZM83.7459 13.6174V26.5396H87.9682V13.6174H83.7459Z" fill="black"/>
<path d="M100.002 8.81637V15.3133C99.0957 14.1429 97.7598 13.4741 96.09 13.4741C92.5357 13.4741 90.1741 16.0776 90.1741 20.0188C90.1741 24.0316 92.5596 26.7068 96.1855 26.7068C97.8076 26.7068 99.1195 26.0619 100.002 24.8676V26.5396H104.248V8.81637H100.002ZM97.235 23.3628C95.5652 23.3628 94.4441 22.0491 94.4441 20.1382C94.4441 18.2273 95.5652 16.9136 97.235 16.9136C98.881 16.9136 100.002 18.2035 100.002 20.1382C100.002 22.0491 98.881 23.3628 97.235 23.3628Z" fill="black"/>
<path d="M113.421 13.4502C111.298 13.4502 109.437 13.9518 107.41 14.8595L108.578 17.7257C109.962 17.0569 111.369 16.6987 112.443 16.6987C114.065 16.6987 114.9 17.4152 114.9 18.6334V18.7767H111.536C108.34 18.8245 106.598 20.2337 106.598 22.694C106.598 25.0587 108.244 26.7307 111.012 26.7307C112.753 26.7307 114.065 26.1574 114.9 25.0825V26.5396H119.074V18.1318C119.05 15.17 116.975 13.4502 113.421 13.4502ZM112.324 23.8405C111.226 23.8405 110.582 23.2672 110.582 22.3835C110.582 21.4758 111.179 21.0459 112.371 21.0459H114.9V22.1685C114.637 23.1478 113.588 23.8405 112.324 23.8405Z" fill="black"/>
<path d="M122.452 8.33866L125.362 12.3037H129.036L131.946 8.33866H128.654L127.199 10.5123L125.744 8.33866H122.452ZM130.252 18.3229L133.329 16.5315C132.208 14.5967 130.157 13.4741 127.557 13.4741C123.549 13.4741 120.877 16.1254 120.877 20.1382C120.877 24.0793 123.525 26.6829 127.509 26.6829C130.252 26.6829 132.351 25.5603 133.377 23.5777L130.252 21.7863C129.727 22.7895 128.845 23.2433 127.724 23.2433C126.197 23.2433 125.147 22.0013 125.147 20.1143C125.147 18.2512 126.197 16.9853 127.724 16.9853C128.821 16.9853 129.68 17.4869 130.252 18.3229Z" fill="black"/>
<path d="M143.933 17.7019L145.364 14.9311C143.742 13.9518 141.858 13.4263 139.997 13.4263C136.968 13.4263 134.702 14.9072 134.702 17.6063C134.702 22.0729 141.357 21.1892 141.357 22.9567C141.357 23.4822 140.784 23.7449 139.997 23.7449C138.566 23.7449 136.896 23.1717 135.417 22.1446L134.081 24.8915C135.656 26.1096 137.731 26.7307 139.902 26.7307C143.051 26.7307 145.364 25.2259 145.364 22.5745C145.388 18.084 138.614 18.8961 138.614 17.2003C138.614 16.6509 139.115 16.3881 139.83 16.3881C140.88 16.3881 142.335 16.8659 143.933 17.7019Z" fill="black"/>
<path d="M156.28 13.4502C154.396 13.4502 152.917 14.2384 152.01 15.7193V8.81637H147.764V26.5396H152.01V20.1621C152.01 18.4662 152.965 17.2719 154.539 17.248C155.899 17.248 156.734 18.1557 156.734 19.6127V26.5396H160.98V18.3945C160.98 15.3611 159.119 13.4502 156.28 13.4502Z" fill="black"/>
<path d="M169.823 13.4741C165.577 13.4741 162.786 16.1015 162.786 20.0665C162.786 24.0555 165.577 26.6829 169.823 26.6829C174.069 26.6829 176.884 24.0555 176.884 20.0665C176.884 16.1015 174.069 13.4741 169.823 13.4741ZM169.823 16.9136C171.492 16.9136 172.614 18.2035 172.614 20.1382C172.614 22.0491 171.492 23.3389 169.823 23.3389C168.177 23.3389 167.056 22.0491 167.056 20.1382C167.056 18.2035 168.177 16.9136 169.823 16.9136Z" fill="black"/>
<path d="M187.205 13.4741C185.607 13.4741 184.319 14.119 183.412 15.2894V13.6174H179.166V31.1734H183.412V24.8676C184.319 26.038 185.655 26.6829 187.301 26.6829C190.879 26.6829 193.217 24.0793 193.217 20.1382C193.217 16.1254 190.807 13.4741 187.205 13.4741ZM186.156 23.2433C184.534 23.2433 183.412 21.9535 183.412 20.0427C183.412 18.1318 184.534 16.8181 186.156 16.8181C187.825 16.8181 188.947 18.1318 188.947 20.0427C188.947 21.9535 187.825 23.2433 186.156 23.2433Z" fill="black"/>
<path d="M201.579 12.8053C203.177 12.8053 204.465 11.5155 204.465 9.939C204.465 8.33866 203.177 7.04883 201.579 7.04883C199.98 7.04883 198.692 8.33866 198.692 9.939C198.692 11.5155 199.98 12.8053 201.579 12.8053ZM201.579 8.74471C202.247 8.74471 202.795 9.2702 202.795 9.939C202.795 10.5839 202.247 11.1094 201.579 11.1094C200.911 11.1094 200.362 10.5839 200.362 9.939C200.362 9.2702 200.911 8.74471 201.579 8.74471ZM203.749 13.6174V19.9949C203.749 21.6908 202.843 22.8851 201.34 22.9089C200.076 22.9089 199.265 22.0252 199.265 20.5681V13.6174H195.019V21.7863C195.019 24.7959 196.832 26.7307 199.623 26.7307C201.459 26.7068 202.867 25.9424 203.749 24.4376V26.5396H207.995V13.6174H203.749Z" fill="black"/>
<path d="M214.067 22.3941C212.874 22.3941 212.039 23.2301 212.039 24.4483C212.039 25.6665 212.874 26.5263 214.067 26.5263C215.259 26.5263 216.118 25.6665 216.118 24.4483C216.118 23.2301 215.259 22.3941 214.067 22.3941Z" fill="#545FEF"/>
<path d="M226.951 18.1186L230.028 16.3271C228.907 14.3924 226.855 13.2698 224.255 13.2698C220.248 13.2698 217.576 15.9211 217.576 19.9339C217.576 23.875 220.224 26.4786 224.208 26.4786C226.951 26.4786 229.05 25.3559 230.076 23.3734L226.951 21.582C226.426 22.5852 225.543 23.039 224.422 23.039C222.896 23.039 221.846 21.797 221.846 19.91C221.846 18.0469 222.896 16.781 224.422 16.781C225.52 16.781 226.378 17.2826 226.951 18.1186Z" fill="#545FEF"/>
<path d="M231.424 13.4131V16.6854H237.412L231.209 23.7556V26.3353H242.97V23.0868H236.529L242.731 16.0166V13.437L231.424 13.4131Z" fill="#545FEF"/>
<path fill-rule="evenodd" clip-rule="evenodd" d="M2.70143 10.8572H37.0559C38.5479 10.8572 39.7573 12.085 39.7573 13.573V15.3795C39.7573 16.8794 38.5458 18.0953 37.0559 18.0953H2.70143C1.20947 18.0953 0 16.8674 0 15.3795V13.573C0 12.0731 1.21157 10.8572 2.70143 10.8572ZM1.80715 15.3795C1.80715 15.875 2.21448 16.2857 2.70143 16.2857H37.0559C37.547 16.2857 37.9502 15.8807 37.9502 15.3795V13.573C37.9502 13.0774 37.5429 12.6667 37.0559 12.6667H2.70143C2.21031 12.6667 1.80715 13.0718 1.80715 13.573V15.3795Z" fill="#5C62CD"/>
<path fill-rule="evenodd" clip-rule="evenodd" d="M2.70143 11.7019H37.0559C38.5479 11.7019 39.7573 12.6023 39.7573 13.6935V15.0183C39.7573 16.1182 38.5458 17.0098 37.0559 17.0098H2.70143C1.20947 17.0098 0 16.1094 0 15.0183V13.6935C0 12.5936 1.21157 11.7019 2.70143 11.7019Z" fill="#5C62CD"/>
<path fill-rule="evenodd" clip-rule="evenodd" d="M18.6843 1.56959C19.051 1.23066 19.0739 0.658255 18.7354 0.291084C18.3969 -0.0760867 17.8253 -0.0989829 17.4586 0.239944L5.71209 11.0971C5.3454 11.436 5.32253 12.0084 5.66102 12.3756C5.9995 12.7428 6.57115 12.7657 6.93784 12.4267L18.6843 1.56959Z" fill="#5C62CD"/>
<path fill-rule="evenodd" clip-rule="evenodd" d="M22.2987 0.239944C21.932 -0.0989829 21.3603 -0.0760867 21.0219 0.291084C20.6834 0.658255 20.7062 1.23066 21.0729 1.56959L32.8194 12.4267C33.1861 12.7657 33.7578 12.7428 34.0962 12.3756C34.4347 12.0084 34.4119 11.436 34.0452 11.0971L22.2987 0.239944Z" fill="#5C62CD"/>
<path fill-rule="evenodd" clip-rule="evenodd" d="M27.1985 34.3809C26.6691 33.8614 26.2305 33.2496 25.9087 32.5713H25.9087C26.2305 33.2496 26.6691 33.8614 27.1985 34.3809H27.1985ZM24.8623 34.3809C24.4891 33.8226 24.183 33.2156 23.9556 32.5713H9.02323C7.95229 32.5713 6.85246 31.6822 6.61829 30.627L3.59273 16.9941L1.82861 17.3867L4.85417 31.0196C5.27157 32.9003 7.10288 34.3809 9.02323 34.3809H24.8623ZM36.7003 23.4942C36.2046 23.0973 35.6615 22.7572 35.0808 22.4839L36.3892 16.9023L38.1485 17.3158L36.7003 23.4942Z" fill="#5C62CD"/>
<path fill-rule="evenodd" clip-rule="evenodd" d="M31.6251 36.1906C35.1183 36.1906 37.9501 33.3551 37.9501 29.8573C37.9501 26.3595 35.1183 23.5239 31.6251 23.5239C28.1319 23.5239 25.3 26.3595 25.3 29.8573C25.3 33.3551 28.1319 36.1906 31.6251 36.1906Z" fill="#FF8787"/>
<path d="M31.378 28.4808C31.378 28.6753 31.3438 28.8527 31.2756 29.0131C31.2074 29.1735 31.1168 29.3121 31.0038 29.4287C30.8909 29.543 30.7591 29.6317 30.6085 29.6949C30.4603 29.7581 30.305 29.7897 30.1426 29.7897C29.9638 29.7897 29.7991 29.7581 29.6485 29.6949C29.5002 29.6317 29.3708 29.543 29.2602 29.4287C29.152 29.3121 29.0673 29.1735 29.0061 29.0131C28.9449 28.8527 28.9143 28.6753 28.9143 28.4808C28.9143 28.2791 28.9449 28.0968 29.0061 27.934C29.0673 27.7687 29.152 27.6277 29.2602 27.511C29.3708 27.3944 29.5002 27.3045 29.6485 27.2413C29.7991 27.1756 29.9638 27.1428 30.1426 27.1428C30.3214 27.1428 30.4862 27.1756 30.6367 27.2413C30.7897 27.3045 30.9203 27.3944 31.0285 27.511C31.1391 27.6277 31.225 27.7687 31.2862 27.934C31.3474 28.0968 31.378 28.2791 31.378 28.4808ZM30.5379 28.4808C30.5379 28.3569 30.5273 28.2548 30.5062 28.1746C30.4873 28.0919 30.4603 28.0263 30.425 27.9777C30.3897 27.9291 30.3473 27.8951 30.2979 27.8756C30.2508 27.8562 30.1991 27.8465 30.1426 27.8465C30.0861 27.8465 30.0344 27.8562 29.9873 27.8756C29.9402 27.8951 29.9002 27.9291 29.8673 27.9777C29.8344 28.0263 29.8085 28.0919 29.7896 28.1746C29.7708 28.2548 29.7614 28.3569 29.7614 28.4808C29.7614 28.5975 29.7708 28.6947 29.7896 28.7725C29.8085 28.8503 29.8344 28.9122 29.8673 28.9584C29.9002 29.0046 29.9402 29.0374 29.9873 29.0569C30.0344 29.0763 30.0861 29.086 30.1426 29.086C30.1991 29.086 30.2508 29.0763 30.2979 29.0569C30.3473 29.0374 30.3897 29.0046 30.425 28.9584C30.4603 28.9122 30.4873 28.8503 30.5062 28.7725C30.5273 28.6947 30.5379 28.5975 30.5379 28.4808ZM32.9945 27.3616C33.0298 27.3203 33.0733 27.2826 33.1251 27.2486C33.1769 27.2121 33.2486 27.1939 33.3404 27.1939H34.1381L30.2626 32.3454C30.2273 32.3915 30.1826 32.4304 30.1285 32.462C30.0767 32.4912 30.0132 32.5058 29.9379 32.5058H29.119L32.9945 27.3616ZM34.3358 31.2589C34.3358 31.4534 34.3016 31.632 34.2334 31.7948C34.1652 31.9553 34.0746 32.0938 33.9616 32.2105C33.8487 32.3247 33.7169 32.4134 33.5663 32.4766C33.4181 32.5398 33.2628 32.5714 33.1004 32.5714C32.9216 32.5714 32.7569 32.5398 32.6063 32.4766C32.458 32.4134 32.3286 32.3247 32.218 32.2105C32.1098 32.0938 32.0251 31.9553 31.9639 31.7948C31.9027 31.632 31.8721 31.4534 31.8721 31.2589C31.8721 31.0572 31.9027 30.8749 31.9639 30.712C32.0251 30.5468 32.1098 30.4058 32.218 30.2891C32.3286 30.1725 32.458 30.0825 32.6063 30.0193C32.7569 29.9537 32.9216 29.9209 33.1004 29.9209C33.2792 29.9209 33.4439 29.9537 33.5945 30.0193C33.7475 30.0825 33.8781 30.1725 33.9863 30.2891C34.0969 30.4058 34.1828 30.5468 34.244 30.712C34.3052 30.8749 34.3358 31.0572 34.3358 31.2589ZM33.4957 31.2589C33.4957 31.1374 33.4851 31.0365 33.464 30.9563C33.4451 30.8737 33.4181 30.808 33.3828 30.7594C33.3475 30.7108 33.3051 30.6768 33.2557 30.6574C33.2086 30.6379 33.1569 30.6282 33.1004 30.6282C33.0439 30.6282 32.9922 30.6379 32.9451 30.6574C32.898 30.6768 32.858 30.7108 32.8251 30.7594C32.7922 30.808 32.7663 30.8737 32.7474 30.9563C32.7286 31.0365 32.7192 31.1374 32.7192 31.2589C32.7192 31.3756 32.7286 31.4728 32.7474 31.5506C32.7663 31.6283 32.7922 31.6903 32.8251 31.7365C32.858 31.7827 32.898 31.8155 32.9451 31.8349C32.9922 31.8544 33.0439 31.8641 33.1004 31.8641C33.1569 31.8641 33.2086 31.8544 33.2557 31.8349C33.3051 31.8155 33.3475 31.7827 33.3828 31.7365C33.4181 31.6903 33.4451 31.6283 33.464 31.5506C33.4851 31.4728 33.4957 31.3756 33.4957 31.2589Z" fill="white"/>
</svg>
